<svg width="165" height="165" viewBox="0 0 165 165" fill="none" xmlns="http://www.w3.org/2000/svg">
<circle cx="82.5" cy="82.5" r="82.5" fill="#930345"/>
<path d="M47.6489 64.672H44.4089V68.224C44.4089 69.4 43.6409 70.12 42.6089 70.12C41.5769 70.12 40.8329 69.4 40.8329 68.224V55.48C40.8329 54.04 41.6729 53.2 43.1129 53.2H47.6489C49.6409 53.2 51.2249 53.704 52.4249 54.712C53.6249 55.72 54.2249 57.088 54.2249 58.816C54.2249 60.568 53.6249 61.984 52.4009 63.064C51.1769 64.144 49.5929 64.672 47.6489 64.672ZM47.0249 56.488H44.4089V61.384H47.0249C49.4489 61.384 50.6729 60.544 50.6729 58.888C50.6729 57.232 49.4969 56.488 47.0249 56.488ZM57.5904 68.512C56.4144 67.336 55.8144 65.872 55.8144 64.12C55.8144 62.368 56.4144 60.904 57.5904 59.728C58.7904 58.552 60.2784 57.952 62.0304 57.952C63.7824 57.952 65.2704 58.552 66.4464 59.728C67.6464 60.904 68.2464 62.368 68.2464 64.12C68.2464 65.872 67.6464 67.336 66.4704 68.512C65.2944 69.688 63.8064 70.264 62.0304 70.264C60.2544 70.264 58.7664 69.688 57.5904 68.512ZM60.0624 61.984C59.5584 62.536 59.2944 63.256 59.2944 64.12C59.2944 64.984 59.5584 65.704 60.0624 66.256C60.5664 66.808 61.2384 67.096 62.0304 67.096C62.8224 67.096 63.4944 66.808 63.9984 66.256C64.5024 65.704 64.7664 64.984 64.7664 64.12C64.7664 63.256 64.5024 62.536 63.9984 61.984C63.4944 61.432 62.8224 61.144 62.0304 61.144C61.2384 61.144 60.5664 61.432 60.0624 61.984ZM74.4959 54.904V68.296C74.6399 70.696 70.9439 70.696 71.0879 68.296V54.904C70.9439 52.504 74.6399 52.504 74.4959 54.904ZM82.0518 59.944V68.296C82.0518 69.424 81.3318 70.12 80.3478 70.12C79.3638 70.12 78.6438 69.424 78.6438 68.296V59.944C78.6438 58.816 79.3638 58.12 80.3478 58.12C81.3318 58.12 82.0518 58.816 82.0518 59.944ZM81.7878 55.48L79.7238 56.44C79.2678 56.656 78.8358 56.632 78.4038 56.368C77.7558 55.96 77.5878 55.048 77.9958 54.448C78.1158 54.256 78.2838 54.112 78.4758 53.992L80.5158 52.648C81.0678 52.288 81.6438 52.312 82.2438 52.672C82.9398 53.128 83.1558 54.112 82.6758 54.856C82.4598 55.144 82.1478 55.36 81.7878 55.48ZM90.7524 66.88C91.8324 67 92.4084 67.6 92.4084 68.488C92.4084 69.376 91.7604 70.048 90.5844 70.048H90.2724C87.5364 70.048 86.1684 68.656 86.1684 65.848V61.384H85.7364C84.6804 61.384 84.0324 60.712 84.0324 59.824C84.0324 58.936 84.6804 58.24 85.7364 58.24H86.1684V56.656C86.0244 54.256 89.7204 54.256 89.5524 56.656V58.24H90.7044C91.7604 58.24 92.4084 58.936 92.4084 59.824C92.4084 60.712 91.7604 61.384 90.7044 61.384H89.5524V65.44C89.5524 66.424 89.9604 66.808 90.7524 66.88ZM95.108 54.904C95.108 53.776 95.996 52.912 97.076 52.912C98.204 52.912 99.068 53.776 99.068 54.904C99.068 55.984 98.156 56.872 97.076 56.872C95.996 56.872 95.108 55.984 95.108 54.904ZM98.78 68.296C98.78 69.424 98.06 70.12 97.076 70.12C96.092 70.12 95.372 69.424 95.372 68.296V59.944C95.372 58.816 96.092 58.12 97.076 58.12C98.06 58.12 98.78 58.816 98.78 59.944V68.296ZM109.792 61.744C109.24 61.336 108.664 61.12 108.064 61.12C106.36 61.12 105.208 62.368 105.208 64.12C105.208 65.872 106.36 67.12 108.064 67.12C108.712 67.12 109.36 66.856 110.008 66.352C110.944 65.68 111.808 65.896 112.408 66.688C112.96 67.36 112.792 68.32 111.904 69.016C110.8 69.856 109.48 70.264 107.944 70.264C106.168 70.264 104.68 69.688 103.504 68.512C102.328 67.336 101.728 65.872 101.728 64.12C101.728 62.368 102.328 60.904 103.504 59.728C104.704 58.552 106.192 57.952 107.944 57.952C109.312 57.952 110.512 58.312 111.52 59.056C112.408 59.752 112.648 60.76 112.144 61.432C111.592 62.2 110.728 62.392 109.792 61.744ZM116.383 59.176C117.415 58.36 118.783 57.952 120.439 57.952C121.903 57.952 123.103 58.384 124.039 59.224C124.975 60.064 125.431 61.192 125.431 62.656V68.296C125.431 69.424 124.687 70.12 123.727 70.12C122.935 70.12 122.407 69.76 122.143 69.04C121.327 69.856 120.319 70.264 119.143 70.264C117.967 70.264 117.031 69.928 116.287 69.256C115.543 68.56 115.183 67.696 115.183 66.64C115.183 65.416 115.615 64.504 116.503 63.88C117.391 63.256 118.519 62.92 119.839 62.872L121.999 62.776C121.999 61.576 121.399 60.976 120.199 60.976C119.479 60.976 118.831 61.168 118.231 61.576C117.343 62.176 116.479 62.104 115.975 61.432C115.423 60.784 115.591 59.824 116.383 59.176ZM118.615 66.448C118.615 67.024 119.119 67.384 119.983 67.384C120.679 67.384 121.351 67.144 121.999 66.664V65.272L120.487 65.392C119.239 65.464 118.615 65.8 118.615 66.448ZM22.184 103.52L20.096 98.024L18.008 103.52H22.184ZM12.68 107.768L17.792 94.688C18.2 93.608 18.968 93.08 20.072 93.08C21.2 93.08 21.968 93.608 22.376 94.664L27.512 107.768C27.92 108.824 27.416 109.712 26.456 110.024C25.424 110.336 24.68 109.952 24.224 108.848L23.336 106.688H16.832L15.968 108.848C15.56 109.928 14.672 110.312 13.736 110.024C12.776 109.712 12.272 108.824 12.68 107.768ZM30.3301 108.296V99.944C30.3301 98.816 31.0741 98.12 32.0341 98.12C32.8261 98.12 33.3541 98.48 33.6181 99.176C34.3141 98.36 35.2501 97.952 36.4741 97.952C39.3781 97.952 41.2501 99.872 41.2501 103.16V108.296C41.2501 109.424 40.5301 110.12 39.5461 110.12C38.5621 110.12 37.8421 109.424 37.8421 108.296V103.424C37.8421 102.08 37.2181 101.12 35.8981 101.12C34.4581 101.12 33.7381 102.128 33.7381 104.12V108.296C33.8821 110.696 30.1861 110.696 30.3301 108.296ZM49.3618 106.88C50.4418 107 51.0178 107.6 51.0178 108.488C51.0178 109.376 50.3698 110.048 49.1938 110.048H48.8818C46.1458 110.048 44.7778 108.656 44.7778 105.848V101.384H44.3458C43.2898 101.384 42.6418 100.712 42.6418 99.824C42.6418 98.936 43.2898 98.24 44.3458 98.24H44.7778V96.656C44.6338 94.256 48.3298 94.256 48.1618 96.656V98.24H49.3138C50.3698 98.24 51.0178 98.936 51.0178 99.824C51.0178 100.712 50.3698 101.384 49.3138 101.384H48.1618V105.44C48.1618 106.424 48.5698 106.808 49.3618 106.88ZM53.7174 94.904C53.7174 93.776 54.6054 92.912 55.6854 92.912C56.8134 92.912 57.6774 93.776 57.6774 94.904C57.6774 95.984 56.7654 96.872 55.6854 96.872C54.6054 96.872 53.7174 95.984 53.7174 94.904ZM57.3894 108.296C57.3894 109.424 56.6694 110.12 55.6854 110.12C54.7014 110.12 53.9814 109.424 53.9814 108.296V99.944C53.9814 98.816 54.7014 98.12 55.6854 98.12C56.6694 98.12 57.3894 98.816 57.3894 99.944V108.296ZM61.3213 108.968C60.5293 108.272 60.4333 107.36 61.0333 106.688C61.6813 105.968 62.4253 105.944 63.2893 106.64C63.9373 107.144 64.8013 107.408 65.8573 107.408C66.6013 107.408 67.1773 107.144 67.1773 106.688C67.1773 106.304 66.9133 106.112 66.1213 105.896L64.8013 105.512C62.1853 104.768 60.9613 103.568 60.9613 101.672C60.9613 100.544 61.3933 99.656 62.2812 98.984C63.1693 98.288 64.2493 97.952 65.5213 97.952C66.8893 97.952 68.0413 98.24 69.0013 98.84C69.8653 99.416 70.0813 100.28 69.6253 101.024C69.1213 101.792 68.3053 102.008 67.3693 101.456C66.7453 101.048 66.0733 100.856 65.3773 100.856C64.7053 100.856 64.2733 101.12 64.2733 101.504C64.2733 101.864 64.5373 102.008 65.1133 102.176L66.6253 102.584C69.0253 103.256 70.4893 104.288 70.4893 106.472C70.4893 108.704 68.5693 110.264 65.5693 110.264C63.7693 110.264 62.3533 109.832 61.3213 108.968ZM74.1841 108.512C73.0081 107.336 72.4081 105.872 72.4081 104.12C72.4081 102.368 73.0081 100.904 74.1841 99.728C75.3841 98.552 76.8721 97.952 78.6241 97.952C80.3761 97.952 81.8641 98.552 83.0401 99.728C84.2401 100.904 84.8401 102.368 84.8401 104.12C84.8401 105.872 84.2401 107.336 83.0641 108.512C81.8881 109.688 80.4001 110.264 78.6241 110.264C76.8481 110.264 75.3601 109.688 74.1841 108.512ZM76.6561 101.984C76.1521 102.536 75.8881 103.256 75.8881 104.12C75.8881 104.984 76.1521 105.704 76.6561 106.256C77.1601 106.808 77.8321 107.096 78.6241 107.096C79.4161 107.096 80.0881 106.808 80.5921 106.256C81.0961 105.704 81.3601 104.984 81.3601 104.12C81.3601 103.256 81.0961 102.536 80.5921 101.984C80.0881 101.432 79.4161 101.144 78.6241 101.144C77.8321 101.144 77.1601 101.432 76.6561 101.984ZM87.6817 108.296V94.904C87.5377 92.504 91.2337 92.504 91.0897 94.904V98.984C91.8817 98.288 92.8897 97.952 94.1137 97.952C95.7697 97.952 97.1617 98.528 98.2897 99.68C99.4177 100.808 99.9937 102.296 99.9937 104.12C99.9937 105.968 99.4177 107.456 98.2897 108.584C97.1617 109.712 95.7697 110.264 94.1137 110.264C92.8417 110.264 91.5697 109.76 90.9697 109.016C90.7297 109.76 90.2017 110.12 89.3857 110.12C88.4257 110.12 87.6817 109.424 87.6817 108.296ZM91.8097 101.912C91.3057 102.488 91.0417 103.232 91.0417 104.12C91.0417 105.008 91.3057 105.752 91.8097 106.328C92.3377 106.904 92.9857 107.192 93.7777 107.192C94.5697 107.192 95.2177 106.904 95.7217 106.328C96.2497 105.752 96.5137 105.008 96.5137 104.12C96.5137 103.232 96.2497 102.488 95.7217 101.912C95.2177 101.336 94.5697 101.048 93.7777 101.048C92.9857 101.048 92.3377 101.336 91.8097 101.912ZM104.067 108.512C102.891 107.336 102.291 105.872 102.291 104.12C102.291 102.368 102.891 100.904 104.067 99.728C105.267 98.552 106.755 97.952 108.507 97.952C110.259 97.952 111.747 98.552 112.923 99.728C114.123 100.904 114.723 102.368 114.723 104.12C114.723 105.872 114.123 107.336 112.947 108.512C111.771 109.688 110.283 110.264 108.507 110.264C106.731 110.264 105.243 109.688 104.067 108.512ZM106.539 101.984C106.035 102.536 105.771 103.256 105.771 104.12C105.771 104.984 106.035 105.704 106.539 106.256C107.043 106.808 107.715 107.096 108.507 107.096C109.299 107.096 109.971 106.808 110.475 106.256C110.979 105.704 111.243 104.984 111.243 104.12C111.243 103.256 110.979 102.536 110.475 101.984C109.971 101.432 109.299 101.144 108.507 101.144C107.715 101.144 107.043 101.432 106.539 101.984ZM124.741 98.168C125.509 98.36 126.085 98.96 126.085 99.848C126.085 100.784 125.437 101.432 124.597 101.432C124.429 101.432 124.069 101.384 123.853 101.384C122.221 101.384 120.973 102.704 120.973 105.08V108.296C121.117 110.696 117.421 110.696 117.565 108.296V99.944C117.565 98.816 118.309 98.12 119.269 98.12C120.157 98.12 120.805 98.696 120.925 99.536C121.597 98.6 122.749 98.072 123.781 98.072C124.189 98.072 124.501 98.096 124.741 98.168ZM127.994 108.296V99.944C127.994 98.816 128.738 98.12 129.698 98.12C130.49 98.12 131.018 98.48 131.282 99.176C131.978 98.36 132.914 97.952 134.138 97.952C137.042 97.952 138.914 99.872 138.914 103.16V108.296C138.914 109.424 138.194 110.12 137.21 110.12C136.226 110.12 135.506 109.424 135.506 108.296V103.424C135.506 102.08 134.882 101.12 133.562 101.12C132.122 101.12 131.402 102.128 131.402 104.12V108.296C131.546 110.696 127.85 110.696 127.994 108.296ZM143.254 108.512C142.078 107.336 141.478 105.872 141.478 104.12C141.478 102.368 142.078 100.904 143.254 99.728C144.454 98.552 145.942 97.952 147.694 97.952C149.446 97.952 150.934 98.552 152.11 99.728C153.31 100.904 153.91 102.368 153.91 104.12C153.91 105.872 153.31 107.336 152.134 108.512C150.958 109.688 149.47 110.264 147.694 110.264C145.918 110.264 144.43 109.688 143.254 108.512ZM145.726 101.984C145.222 102.536 144.958 103.256 144.958 104.12C144.958 104.984 145.222 105.704 145.726 106.256C146.23 106.808 146.902 107.096 147.694 107.096C148.486 107.096 149.158 106.808 149.662 106.256C150.166 105.704 150.43 104.984 150.43 104.12C150.43 103.256 150.166 102.536 149.662 101.984C149.158 101.432 148.486 101.144 147.694 101.144C146.902 101.144 146.23 101.432 145.726 101.984Z" fill="#F9D332"/>
</svg>
