<svg width="165" height="165" viewBox="0 0 165 165" fill="none" xmlns="http://www.w3.org/2000/svg">
<circle cx="82.5" cy="82.5" r="82.5" fill="#F9D332"/>
<path d="M38.5783 54.928C39.4423 55.696 39.5143 56.752 38.8423 57.448C38.1943 58.216 37.2343 58.312 36.2983 57.544C35.3143 56.68 34.1383 56.248 32.7463 56.248C31.4263 56.248 30.2743 56.728 29.2663 57.688C28.2823 58.624 27.7783 59.92 27.7783 61.552C27.7783 63.208 28.2823 64.528 29.2663 65.488C30.2503 66.448 31.4743 66.928 32.9383 66.928C34.3063 66.928 35.5063 66.496 36.5623 65.608C37.4983 64.864 38.4583 64.96 39.1063 65.704C39.7783 66.4 39.7063 67.456 38.8423 68.224C37.3063 69.592 35.3623 70.264 33.0343 70.264C30.4663 70.264 28.3303 69.472 26.6263 67.888C24.9463 66.304 24.1063 64.216 24.1063 61.624C24.1063 59.008 24.9463 56.896 26.6263 55.312C28.3063 53.704 30.3943 52.912 32.9143 52.912C35.0983 52.912 36.9943 53.584 38.5783 54.928ZM43.7857 68.512C42.6097 67.336 42.0097 65.872 42.0097 64.12C42.0097 62.368 42.6097 60.904 43.7857 59.728C44.9857 58.552 46.4737 57.952 48.2257 57.952C49.9777 57.952 51.4657 58.552 52.6417 59.728C53.8417 60.904 54.4417 62.368 54.4417 64.12C54.4417 65.872 53.8417 67.336 52.6657 68.512C51.4897 69.688 50.0017 70.264 48.2257 70.264C46.4497 70.264 44.9617 69.688 43.7857 68.512ZM46.2577 61.984C45.7537 62.536 45.4897 63.256 45.4897 64.12C45.4897 64.984 45.7537 65.704 46.2577 66.256C46.7617 66.808 47.4337 67.096 48.2257 67.096C49.0177 67.096 49.6897 66.808 50.1937 66.256C50.6977 65.704 50.9617 64.984 50.9617 64.12C50.9617 63.256 50.6977 62.536 50.1937 61.984C49.6897 61.432 49.0177 61.144 48.2257 61.144C47.4337 61.144 46.7617 61.432 46.2577 61.984ZM49.6417 55.48L47.5777 56.44C47.1217 56.656 46.6897 56.632 46.2577 56.368C45.6097 55.96 45.4417 55.048 45.8497 54.448C45.9697 54.256 46.1377 54.112 46.3297 53.992L48.3697 52.648C48.9217 52.288 49.4977 52.312 50.0977 52.672C50.7937 53.128 51.0097 54.112 50.5297 54.856C50.3137 55.144 50.0017 55.36 49.6417 55.48ZM69.0399 54.904V68.296C69.0399 69.424 68.2959 70.12 67.3359 70.12C66.5199 70.12 65.9919 69.76 65.7519 69.016C65.1519 69.76 63.8799 70.264 62.6079 70.264C60.9519 70.264 59.5359 69.712 58.4079 68.584C57.2799 67.456 56.7279 65.968 56.7279 64.12C56.7279 62.296 57.2799 60.808 58.4079 59.68C59.5359 58.528 60.9519 57.952 62.6079 57.952C63.8319 57.952 64.8399 58.288 65.6319 58.984V54.904C65.4879 52.504 69.1839 52.504 69.0399 54.904ZM64.8879 66.328C65.4159 65.752 65.6799 65.008 65.6799 64.12C65.6799 63.232 65.4159 62.488 64.8879 61.912C64.3839 61.336 63.7359 61.048 62.9439 61.048C62.1519 61.048 61.5039 61.336 60.9759 61.912C60.4719 62.488 60.2079 63.232 60.2079 64.12C60.2079 65.008 60.4719 65.752 60.9759 66.328C61.5039 66.904 62.1519 67.192 62.9439 67.192C63.7359 67.192 64.3839 66.904 64.8879 66.328ZM72.6549 54.904C72.6549 53.776 73.5429 52.912 74.6229 52.912C75.7509 52.912 76.6149 53.776 76.6149 54.904C76.6149 55.984 75.7029 56.872 74.6229 56.872C73.5429 56.872 72.6549 55.984 72.6549 54.904ZM76.3269 68.296C76.3269 69.424 75.6069 70.12 74.6229 70.12C73.6389 70.12 72.9189 69.424 72.9189 68.296V59.944C72.9189 58.816 73.6389 58.12 74.6229 58.12C75.6069 58.12 76.3269 58.816 76.3269 59.944V68.296ZM87.9628 63.856C87.9628 62.2 86.8108 61.048 85.3468 61.048C83.9068 61.048 82.7548 62.2 82.7548 63.856C82.7548 65.488 83.9068 66.64 85.3468 66.64C86.8108 66.64 87.9628 65.488 87.9628 63.856ZM80.6908 73.624C79.8027 72.952 79.8027 71.848 80.4508 71.176C81.0508 70.528 81.8668 70.504 82.8988 71.152C83.5948 71.56 84.2668 71.776 84.9388 71.776C86.7388 71.776 87.8908 70.72 87.8908 69.16V68.848C87.2188 69.448 86.2588 69.736 85.0348 69.736C83.3548 69.736 81.9628 69.208 80.8828 68.152C79.8027 67.096 79.2748 65.656 79.2748 63.856C79.2748 62.032 79.8268 60.592 80.9548 59.536C82.0828 58.48 83.4268 57.952 85.0348 57.952C86.2828 57.952 87.2908 58.36 88.0348 59.2C88.2748 58.456 88.8028 58.096 89.6188 58.096C90.6028 58.096 91.3228 58.768 91.3228 59.92V68.776C91.3228 70.6 90.7468 72.088 89.6188 73.216C88.4908 74.344 86.9548 74.92 84.9628 74.92C83.2828 74.92 81.8668 74.488 80.6908 73.624ZM95.9107 68.512C94.7347 67.336 94.1347 65.872 94.1347 64.12C94.1347 62.368 94.7347 60.904 95.9107 59.728C97.1107 58.552 98.5987 57.952 100.351 57.952C102.103 57.952 103.591 58.552 104.767 59.728C105.967 60.904 106.567 62.368 106.567 64.12C106.567 65.872 105.967 67.336 104.791 68.512C103.615 69.688 102.127 70.264 100.351 70.264C98.5747 70.264 97.0867 69.688 95.9107 68.512ZM98.3827 61.984C97.8787 62.536 97.6147 63.256 97.6147 64.12C97.6147 64.984 97.8787 65.704 98.3827 66.256C98.8867 66.808 99.5587 67.096 100.351 67.096C101.143 67.096 101.815 66.808 102.319 66.256C102.823 65.704 103.087 64.984 103.087 64.12C103.087 63.256 102.823 62.536 102.319 61.984C101.815 61.432 101.143 61.144 100.351 61.144C99.5587 61.144 98.8867 61.432 98.3827 61.984ZM127.727 54.904V68.296C127.727 69.424 126.983 70.12 126.023 70.12C125.207 70.12 124.679 69.76 124.439 69.016C123.839 69.76 122.567 70.264 121.295 70.264C119.639 70.264 118.223 69.712 117.095 68.584C115.967 67.456 115.415 65.968 115.415 64.12C115.415 62.296 115.967 60.808 117.095 59.68C118.223 58.528 119.639 57.952 121.295 57.952C122.519 57.952 123.527 58.288 124.319 58.984V54.904C124.175 52.504 127.871 52.504 127.727 54.904ZM123.575 66.328C124.103 65.752 124.367 65.008 124.367 64.12C124.367 63.232 124.103 62.488 123.575 61.912C123.071 61.336 122.423 61.048 121.631 61.048C120.839 61.048 120.191 61.336 119.663 61.912C119.159 62.488 118.895 63.232 118.895 64.12C118.895 65.008 119.159 65.752 119.663 66.328C120.191 66.904 120.839 67.192 121.631 67.192C122.423 67.192 123.071 66.904 123.575 66.328ZM141.933 63.112C141.933 64.36 141.309 64.984 140.037 64.984H134.013C134.205 66.256 135.189 67.144 136.653 67.144C137.469 67.144 138.165 66.904 138.765 66.424C139.701 65.752 140.565 65.968 141.165 66.76C141.717 67.432 141.549 68.392 140.661 69.088C139.629 69.88 138.309 70.264 136.749 70.264C134.949 70.264 133.485 69.712 132.309 68.608C131.133 67.48 130.557 66.016 130.557 64.192C130.557 62.392 131.085 60.904 132.165 59.728C133.245 58.552 134.637 57.952 136.341 57.952C137.517 57.952 138.549 58.24 139.437 58.792C141.237 59.92 141.933 61.504 141.933 63.112ZM136.413 60.952C135.189 60.952 134.397 61.672 134.181 62.704H138.405C138.333 61.72 137.541 60.952 136.413 60.952ZM65.841 103.04H58.905V106.712H66.225C67.305 106.712 67.977 107.408 67.977 108.368C67.977 109.304 67.305 110 66.225 110H57.609C56.169 110 55.329 109.16 55.329 107.72V95.48C55.329 94.04 56.169 93.2 57.609 93.2H66.225C67.305 93.2 67.977 93.896 67.977 94.856C67.977 95.792 67.305 96.488 66.225 96.488H58.905V99.8H65.841C66.897 99.8 67.569 100.496 67.569 101.432C67.569 102.32 66.897 103.04 65.841 103.04ZM62.889 90.608L60.825 91.568C60.369 91.784 59.937 91.76 59.505 91.496C58.857 91.088 58.689 90.176 59.097 89.576C59.217 89.384 59.385 89.24 59.577 89.12L61.617 87.776C62.169 87.416 62.745 87.44 63.345 87.8C64.041 88.256 64.257 89.24 63.777 89.984C63.561 90.272 63.249 90.488 62.889 90.608ZM76.2563 106.88C77.3363 107 77.9123 107.6 77.9123 108.488C77.9123 109.376 77.2643 110.048 76.0883 110.048H75.7763C73.0403 110.048 71.6723 108.656 71.6723 105.848V101.384H71.2403C70.1843 101.384 69.5363 100.712 69.5363 99.824C69.5363 98.936 70.1843 98.24 71.2403 98.24H71.6723V96.656C71.5283 94.256 75.2243 94.256 75.0563 96.656V98.24H76.2083C77.2643 98.24 77.9123 98.936 77.9123 99.824C77.9123 100.712 77.2643 101.384 76.2083 101.384H75.0563V105.44C75.0563 106.424 75.4643 106.808 76.2563 106.88ZM80.6119 94.904C80.6119 93.776 81.4999 92.912 82.5799 92.912C83.7079 92.912 84.5719 93.776 84.5719 94.904C84.5719 95.984 83.6599 96.872 82.5799 96.872C81.4999 96.872 80.6119 95.984 80.6119 94.904ZM84.2839 108.296C84.2839 109.424 83.5639 110.12 82.5799 110.12C81.5959 110.12 80.8759 109.424 80.8759 108.296V99.944C80.8759 98.816 81.5959 98.12 82.5799 98.12C83.5639 98.12 84.2839 98.816 84.2839 99.944V108.296ZM95.2958 101.744C94.7438 101.336 94.1678 101.12 93.5678 101.12C91.8638 101.12 90.7118 102.368 90.7118 104.12C90.7118 105.872 91.8638 107.12 93.5678 107.12C94.2158 107.12 94.8638 106.856 95.5118 106.352C96.4478 105.68 97.3118 105.896 97.9118 106.688C98.4638 107.36 98.2958 108.32 97.4078 109.016C96.3038 109.856 94.9838 110.264 93.4478 110.264C91.6718 110.264 90.1838 109.688 89.0078 108.512C87.8318 107.336 87.2318 105.872 87.2318 104.12C87.2318 102.368 87.8318 100.904 89.0078 99.728C90.2078 98.552 91.6958 97.952 93.4478 97.952C94.8158 97.952 96.0158 98.312 97.0238 99.056C97.9118 99.752 98.1518 100.76 97.6478 101.432C97.0958 102.2 96.2318 102.392 95.2958 101.744ZM101.887 99.176C102.919 98.36 104.287 97.952 105.943 97.952C107.407 97.952 108.607 98.384 109.543 99.224C110.479 100.064 110.935 101.192 110.935 102.656V108.296C110.935 109.424 110.191 110.12 109.231 110.12C108.439 110.12 107.911 109.76 107.647 109.04C106.831 109.856 105.823 110.264 104.647 110.264C103.471 110.264 102.535 109.928 101.791 109.256C101.047 108.56 100.687 107.696 100.687 106.64C100.687 105.416 101.119 104.504 102.007 103.88C102.895 103.256 104.023 102.92 105.343 102.872L107.503 102.776C107.503 101.576 106.903 100.976 105.703 100.976C104.983 100.976 104.335 101.168 103.735 101.576C102.847 102.176 101.983 102.104 101.479 101.432C100.927 100.784 101.095 99.824 101.887 99.176ZM104.119 106.448C104.119 107.024 104.623 107.384 105.487 107.384C106.183 107.384 106.855 107.144 107.503 106.664V105.272L105.991 105.392C104.743 105.464 104.119 105.8 104.119 106.448Z" fill="#930345"/>
</svg>
