<svg width="498" height="499" viewBox="0 0 498 499" fill="none" xmlns="http://www.w3.org/2000/svg">
<path d="M1.96116e-05 249.5C1.35884e-05 387.295 111.481 499 249 499C386.519 499 498 387.295 498 249.5C498 111.705 386.519 -4.87299e-06 249 -1.08841e-05C111.481 -1.68953e-05 2.56348e-05 111.705 1.96116e-05 249.5Z" fill="#F9D332"/>
<path d="M136.693 83.904C134.581 82.112 132.053 81.216 129.141 81.216C125.781 81.216 122.997 82.272 120.757 84.416C118.517 86.528 117.397 89.344 117.397 92.832C117.397 96.288 118.517 99.072 120.757 101.184C123.029 103.296 125.877 104.352 129.301 104.352C132.405 104.352 134.997 103.456 137.045 101.632C138.197 100.608 138.293 99.2 137.397 98.272C136.533 97.28 135.253 97.152 134.005 98.144C132.597 99.328 130.997 99.904 129.173 99.904C127.221 99.904 125.589 99.264 124.277 97.984C122.965 96.704 122.293 94.944 122.293 92.736C122.293 90.56 122.965 88.832 124.277 87.584C125.621 86.304 127.157 85.664 128.917 85.664C130.773 85.664 132.341 86.24 133.653 87.392C134.901 88.416 136.181 88.288 137.045 87.264C137.941 86.336 137.845 84.928 136.693 83.904ZM143.636 102.016C145.204 103.584 147.188 104.352 149.556 104.352C151.924 104.352 153.908 103.584 155.476 102.016C157.044 100.448 157.844 98.496 157.844 96.16C157.844 93.824 157.044 91.872 155.444 90.304C153.876 88.736 151.892 87.936 149.556 87.936C147.22 87.936 145.236 88.736 143.636 90.304C142.068 91.872 141.268 93.824 141.268 96.16C141.268 98.496 142.068 100.448 143.636 102.016ZM146.932 93.312C147.604 92.576 148.5 92.192 149.556 92.192C150.612 92.192 151.508 92.576 152.18 93.312C152.852 94.048 153.204 95.008 153.204 96.16C153.204 97.312 152.852 98.272 152.18 99.008C151.508 99.744 150.612 100.128 149.556 100.128C148.5 100.128 147.604 99.744 146.932 99.008C146.26 98.272 145.908 97.312 145.908 96.16C145.908 95.008 146.26 94.048 146.932 93.312ZM161.633 101.728C161.441 104.928 166.369 104.928 166.177 101.728V96.16C166.177 93.504 167.137 92.16 169.057 92.16C170.817 92.16 171.649 93.44 171.649 95.232V101.728C171.649 103.232 172.609 104.16 173.921 104.16C175.233 104.16 176.193 103.232 176.193 101.728V94.88C176.193 90.496 173.697 87.936 169.825 87.936C168.193 87.936 166.945 88.48 166.017 89.568C165.665 88.64 164.961 88.16 163.905 88.16C162.625 88.16 161.633 89.088 161.633 90.592V101.728ZM187.008 99.84C185.952 99.744 185.408 99.232 185.408 97.92V92.512H186.944C188.352 92.512 189.216 91.616 189.216 90.432C189.216 89.248 188.352 88.32 186.944 88.32H185.408V86.208C185.632 83.008 180.704 83.008 180.896 86.208V88.32H180.32C178.912 88.32 178.048 89.248 178.048 90.432C178.048 91.616 178.912 92.512 180.32 92.512H180.896V98.464C180.896 102.208 182.72 104.064 186.368 104.064H186.784C188.352 104.064 189.216 103.168 189.216 101.984C189.216 100.8 188.448 100 187.008 99.84ZM193.808 89.568C192.752 90.432 192.528 91.712 193.264 92.576C193.936 93.472 195.088 93.568 196.272 92.768C197.072 92.224 197.936 91.968 198.896 91.968C200.496 91.968 201.296 92.768 201.296 94.368L198.416 94.496C196.656 94.56 195.152 95.008 193.968 95.84C192.784 96.672 192.208 97.888 192.208 99.52C192.208 100.928 192.688 102.08 193.68 103.008C194.672 103.904 195.92 104.352 197.488 104.352C199.056 104.352 200.4 103.808 201.488 102.72C201.84 103.68 202.544 104.16 203.6 104.16C204.88 104.16 205.872 103.232 205.872 101.728V94.208C205.872 92.256 205.264 90.752 204.016 89.632C202.768 88.512 201.168 87.936 199.216 87.936C197.008 87.936 195.184 88.48 193.808 89.568ZM196.784 99.264C196.784 98.4 197.616 97.952 199.28 97.856L201.296 97.696V99.552C200.432 100.192 199.536 100.512 198.608 100.512C197.456 100.512 196.784 100.032 196.784 99.264ZM220.176 92.992C221.424 93.856 222.576 93.6 223.312 92.576C223.984 91.68 223.664 90.336 222.48 89.408C221.136 88.416 219.536 87.936 217.712 87.936C215.376 87.936 213.392 88.736 211.792 90.304C210.224 91.872 209.424 93.824 209.424 96.16C209.424 98.496 210.224 100.448 211.792 102.016C213.36 103.584 215.344 104.352 217.712 104.352C219.76 104.352 221.52 103.808 222.992 102.688C224.176 101.76 224.4 100.48 223.664 99.584C222.864 98.528 221.712 98.24 220.464 99.136C219.6 99.808 218.736 100.16 217.872 100.16C215.6 100.16 214.064 98.496 214.064 96.16C214.064 93.824 215.6 92.16 217.872 92.16C218.672 92.16 219.44 92.448 220.176 92.992ZM235.04 99.84C233.984 99.744 233.44 99.232 233.44 97.92V92.512H234.976C236.384 92.512 237.248 91.616 237.248 90.432C237.248 89.248 236.384 88.32 234.976 88.32H233.44V86.208C233.664 83.008 228.736 83.008 228.928 86.208V88.32H228.352C226.944 88.32 226.08 89.248 226.08 90.432C226.08 91.616 226.944 92.512 228.352 92.512H228.928V98.464C228.928 102.208 230.752 104.064 234.4 104.064H234.816C236.384 104.064 237.248 103.168 237.248 101.984C237.248 100.8 236.48 100 235.04 99.84ZM241.839 89.568C240.783 90.432 240.559 91.712 241.295 92.576C241.967 93.472 243.119 93.568 244.303 92.768C245.103 92.224 245.967 91.968 246.927 91.968C248.527 91.968 249.327 92.768 249.327 94.368L246.447 94.496C244.687 94.56 243.183 95.008 241.999 95.84C240.815 96.672 240.239 97.888 240.239 99.52C240.239 100.928 240.719 102.08 241.711 103.008C242.703 103.904 243.951 104.352 245.519 104.352C247.087 104.352 248.431 103.808 249.519 102.72C249.871 103.68 250.575 104.16 251.631 104.16C252.911 104.16 253.903 103.232 253.903 101.728V94.208C253.903 92.256 253.295 90.752 252.047 89.632C250.799 88.512 249.199 87.936 247.247 87.936C245.039 87.936 243.215 88.48 241.839 89.568ZM244.815 99.264C244.815 98.4 245.647 97.952 247.311 97.856L249.327 97.696V99.552C248.463 100.192 247.567 100.512 246.639 100.512C245.487 100.512 244.815 100.032 244.815 99.264ZM268.295 88.224C267.975 88.128 267.559 88.096 267.015 88.096C265.639 88.096 264.103 88.8 263.207 90.048C263.047 88.928 262.183 88.16 260.999 88.16C259.719 88.16 258.727 89.088 258.727 90.592V101.728C258.535 104.928 263.463 104.928 263.271 101.728V97.44C263.271 94.272 264.935 92.512 267.111 92.512C267.399 92.512 267.879 92.576 268.103 92.576C269.223 92.576 270.087 91.712 270.087 90.464C270.087 89.28 269.319 88.48 268.295 88.224ZM272.633 101.728C272.441 104.928 277.369 104.928 277.177 101.728V95.968C277.177 93.536 278.105 92.16 279.897 92.16C281.465 92.16 282.297 93.312 282.297 95.072V101.728C282.105 104.928 287.033 104.928 286.841 101.728V95.648C286.841 93.472 287.865 92.16 289.561 92.16C291.129 92.16 291.961 93.312 291.961 95.072V101.728C291.769 104.928 296.697 104.928 296.505 101.728V94.88C296.505 90.432 294.137 87.936 289.945 87.936C288.057 87.936 286.489 88.576 285.241 89.824C284.153 88.576 282.713 87.936 280.889 87.936C279.257 87.936 277.945 88.48 277.017 89.568C276.665 88.64 275.961 88.16 274.905 88.16C273.625 88.16 272.633 89.088 272.633 90.592V101.728ZM315.092 94.816C315.092 92.672 314.164 90.56 311.764 89.056C310.58 88.32 309.204 87.936 307.636 87.936C305.364 87.936 303.508 88.736 302.068 90.304C300.628 91.872 299.924 93.856 299.924 96.256C299.924 98.688 300.692 100.64 302.26 102.144C303.828 103.616 305.78 104.352 308.18 104.352C310.26 104.352 312.02 103.84 313.396 102.784C314.58 101.856 314.804 100.576 314.068 99.68C313.268 98.624 312.116 98.336 310.868 99.232C310.068 99.872 309.14 100.192 308.052 100.192C306.1 100.192 304.788 99.008 304.532 97.312H312.564C314.26 97.312 315.092 96.48 315.092 94.816ZM307.732 91.936C309.236 91.936 310.292 92.96 310.388 94.272H304.756C305.044 92.896 306.1 91.936 307.732 91.936ZM337.738 92.992C338.986 93.856 340.138 93.6 340.874 92.576C341.546 91.68 341.226 90.336 340.042 89.408C338.698 88.416 337.098 87.936 335.274 87.936C332.938 87.936 330.954 88.736 329.354 90.304C327.786 91.872 326.986 93.824 326.986 96.16C326.986 98.496 327.786 100.448 329.354 102.016C330.922 103.584 332.906 104.352 335.274 104.352C337.322 104.352 339.082 103.808 340.554 102.688C341.738 101.76 341.962 100.48 341.226 99.584C340.426 98.528 339.274 98.24 338.026 99.136C337.162 99.808 336.298 100.16 335.434 100.16C333.162 100.16 331.626 98.496 331.626 96.16C331.626 93.824 333.162 92.16 335.434 92.16C336.234 92.16 337.002 92.448 337.738 92.992ZM346.667 102.016C348.235 103.584 350.219 104.352 352.587 104.352C354.955 104.352 356.939 103.584 358.507 102.016C360.075 100.448 360.875 98.496 360.875 96.16C360.875 93.824 360.075 91.872 358.475 90.304C356.907 88.736 354.923 87.936 352.587 87.936C350.251 87.936 348.267 88.736 346.667 90.304C345.099 91.872 344.299 93.824 344.299 96.16C344.299 98.496 345.099 100.448 346.667 102.016ZM349.963 93.312C350.635 92.576 351.531 92.192 352.587 92.192C353.643 92.192 354.539 92.576 355.211 93.312C355.883 94.048 356.235 95.008 356.235 96.16C356.235 97.312 355.883 98.272 355.211 99.008C354.539 99.744 353.643 100.128 352.587 100.128C351.531 100.128 350.635 99.744 349.963 99.008C349.291 98.272 348.939 97.312 348.939 96.16C348.939 95.008 349.291 94.048 349.963 93.312ZM364.664 101.728C364.472 104.928 369.4 104.928 369.208 101.728V96.16C369.208 93.504 370.168 92.16 372.088 92.16C373.848 92.16 374.68 93.44 374.68 95.232V101.728C374.68 103.232 375.64 104.16 376.952 104.16C378.264 104.16 379.224 103.232 379.224 101.728V94.88C379.224 90.496 376.728 87.936 372.856 87.936C371.224 87.936 369.976 88.48 369.048 89.568C368.696 88.64 367.992 88.16 366.936 88.16C365.656 88.16 364.664 89.088 364.664 90.592V101.728ZM186.896 120.904C184.784 119.112 182.256 118.216 179.344 118.216C175.984 118.216 173.2 119.272 170.96 121.416C168.72 123.528 167.6 126.344 167.6 129.832C167.6 133.288 168.72 136.072 170.96 138.184C173.232 140.296 176.08 141.352 179.504 141.352C182.608 141.352 185.2 140.456 187.248 138.632C188.4 137.608 188.496 136.2 187.6 135.272C186.736 134.28 185.456 134.152 184.208 135.144C182.8 136.328 181.2 136.904 179.376 136.904C177.424 136.904 175.792 136.264 174.48 134.984C173.168 133.704 172.496 131.944 172.496 129.736C172.496 127.56 173.168 125.832 174.48 124.584C175.824 123.304 177.36 122.664 179.12 122.664C180.976 122.664 182.544 123.24 183.856 124.392C185.104 125.416 186.384 125.288 187.248 124.264C188.144 123.336 188.048 121.928 186.896 120.904ZM193.839 139.016C195.407 140.584 197.391 141.352 199.759 141.352C202.127 141.352 204.111 140.584 205.679 139.016C207.247 137.448 208.047 135.496 208.047 133.16C208.047 130.824 207.247 128.872 205.647 127.304C204.079 125.736 202.095 124.936 199.759 124.936C197.423 124.936 195.439 125.736 193.839 127.304C192.271 128.872 191.471 130.824 191.471 133.16C191.471 135.496 192.271 137.448 193.839 139.016ZM197.135 130.312C197.807 129.576 198.703 129.192 199.759 129.192C200.815 129.192 201.711 129.576 202.383 130.312C203.055 131.048 203.407 132.008 203.407 133.16C203.407 134.312 203.055 135.272 202.383 136.008C201.711 136.744 200.815 137.128 199.759 137.128C198.703 137.128 197.807 136.744 197.135 136.008C196.463 135.272 196.111 134.312 196.111 133.16C196.111 132.008 196.463 131.048 197.135 130.312ZM211.836 138.728C211.644 141.928 216.572 141.928 216.38 138.728V133.16C216.38 130.504 217.34 129.16 219.26 129.16C221.02 129.16 221.852 130.44 221.852 132.232V138.728C221.852 140.232 222.812 141.16 224.124 141.16C225.436 141.16 226.396 140.232 226.396 138.728V131.88C226.396 127.496 223.9 124.936 220.028 124.936C218.396 124.936 217.148 125.48 216.22 126.568C215.868 125.64 215.164 125.16 214.108 125.16C212.828 125.16 211.836 126.088 211.836 127.592V138.728ZM230.199 139.528C231.671 140.744 233.399 141.352 235.415 141.352C240.279 141.352 243.095 138.504 243.095 133.288V120.936C243.095 119.368 242.103 118.408 240.727 118.408C239.351 118.408 238.359 119.368 238.359 120.936V133.48C238.359 135.752 237.335 137 235.447 137C234.647 137 233.879 136.712 233.143 136.104C231.895 135.176 230.679 135.272 229.879 136.264C229.015 137.192 229.047 138.6 230.199 139.528ZM261.379 127.592C261.571 124.392 256.643 124.392 256.835 127.592V133.16C256.835 135.752 256.131 137.16 254.115 137.16C252.515 137.16 251.715 136.136 251.715 134.088V127.592C251.907 124.392 246.979 124.392 247.171 127.592V134.44C247.171 138.888 249.315 141.352 253.155 141.352C254.851 141.352 256.131 140.808 257.027 139.752C257.379 140.68 258.083 141.16 259.107 141.16C260.387 141.16 261.379 140.232 261.379 138.728V127.592ZM266.43 138.728C266.238 141.928 271.166 141.928 270.974 138.728V133.16C270.974 130.504 271.934 129.16 273.854 129.16C275.614 129.16 276.446 130.44 276.446 132.232V138.728C276.446 140.232 277.406 141.16 278.718 141.16C280.03 141.16 280.99 140.232 280.99 138.728V131.88C280.99 127.496 278.494 124.936 274.622 124.936C272.99 124.936 271.742 125.48 270.814 126.568C270.462 125.64 269.758 125.16 268.702 125.16C267.422 125.16 266.43 126.088 266.43 127.592V138.728ZM291.805 136.84C290.749 136.744 290.205 136.232 290.205 134.92V129.512H291.741C293.149 129.512 294.013 128.616 294.013 127.432C294.013 126.248 293.149 125.32 291.741 125.32H290.205V123.208C290.429 120.008 285.501 120.008 285.693 123.208V125.32H285.117C283.709 125.32 282.845 126.248 282.845 127.432C282.845 128.616 283.709 129.512 285.117 129.512H285.693V135.464C285.693 139.208 287.517 141.064 291.165 141.064H291.581C293.149 141.064 294.013 140.168 294.013 138.984C294.013 137.8 293.245 137 291.805 136.84ZM299.089 139.016C300.657 140.584 302.641 141.352 305.009 141.352C307.377 141.352 309.361 140.584 310.929 139.016C312.497 137.448 313.297 135.496 313.297 133.16C313.297 130.824 312.497 128.872 310.897 127.304C309.329 125.736 307.345 124.936 305.009 124.936C302.673 124.936 300.689 125.736 299.089 127.304C297.521 128.872 296.721 130.824 296.721 133.16C296.721 135.496 297.521 137.448 299.089 139.016ZM302.385 130.312C303.057 129.576 303.953 129.192 305.009 129.192C306.065 129.192 306.961 129.576 307.633 130.312C308.305 131.048 308.657 132.008 308.657 133.16C308.657 134.312 308.305 135.272 307.633 136.008C306.961 136.744 306.065 137.128 305.009 137.128C303.953 137.128 303.057 136.744 302.385 136.008C301.713 135.272 301.361 134.312 301.361 133.16C301.361 132.008 301.713 131.048 302.385 130.312ZM317.47 139.624C318.846 140.776 320.734 141.352 323.134 141.352C327.134 141.352 329.694 139.272 329.694 136.296C329.694 133.384 327.742 132.008 324.542 131.112L322.526 130.568C321.758 130.344 321.406 130.152 321.406 129.672C321.406 129.16 321.982 128.808 322.878 128.808C323.806 128.808 324.702 129.064 325.534 129.608C326.782 130.344 327.87 130.056 328.542 129.032C329.15 128.04 328.862 126.888 327.71 126.12C326.43 125.32 324.894 124.936 323.07 124.936C321.374 124.936 319.934 125.384 318.75 126.312C317.566 127.208 316.99 128.392 316.99 129.896C316.99 132.424 318.622 134.024 322.11 135.016L323.87 135.528C324.926 135.816 325.278 136.072 325.278 136.584C325.278 137.192 324.51 137.544 323.518 137.544C322.11 137.544 320.958 137.192 320.094 136.52C318.942 135.592 317.95 135.624 317.086 136.584C316.286 137.48 316.414 138.696 317.47 139.624Z" fill="#930345"/>
<path d="M67 343.384H60.184L63.568 334.528L67 343.384ZM56.464 347.776C56.224 348.424 56.392 348.832 56.968 349.048C57.52 349.264 57.928 349.048 58.192 348.4L59.464 345.136H67.672L68.968 348.4C69.232 349.048 69.64 349.264 70.192 349.048C70.768 348.832 70.936 348.424 70.696 347.776L64.984 333.112C64.72 332.416 64.264 332.08 63.592 332.08C62.944 332.08 62.464 332.416 62.2 333.088L56.464 347.776ZM75.4182 339.904C76.1142 339.064 77.0262 338.632 78.2022 338.632C79.3782 338.632 80.2902 339.064 80.9862 339.904C81.6822 340.744 82.0422 341.824 82.0422 343.12C82.0422 344.416 81.6822 345.496 80.9862 346.336C80.2902 347.176 79.3782 347.608 78.2022 347.608C77.0262 347.608 76.1142 347.176 75.4182 346.336C74.7222 345.496 74.3862 344.416 74.3862 343.12C74.3862 341.824 74.7222 340.744 75.4182 339.904ZM83.7702 333.088C83.7702 332.416 83.4822 332.08 82.8822 332.08C82.2822 332.08 81.9942 332.416 81.9942 333.088V338.8C80.9382 337.576 79.6182 336.952 78.0342 336.952C76.4262 336.952 75.1302 337.552 74.0982 338.752C73.0662 339.928 72.5622 341.392 72.5622 343.12C72.5622 344.848 73.0662 346.312 74.0982 347.488C75.1302 348.664 76.4262 349.264 78.0342 349.264C79.6422 349.264 80.9622 348.64 82.0422 347.392V348.136C82.0422 349.432 83.7702 349.432 83.7702 348.136V333.088ZM92.8964 338.632C94.8404 338.632 96.0884 340 96.1124 342.088H89.2004C89.4884 340.072 90.8804 338.632 92.8964 338.632ZM97.9124 342.568C97.9124 339.928 96.4964 336.952 92.8484 336.952C91.2404 336.952 89.9204 337.552 88.8644 338.776C87.8324 340 87.3044 341.464 87.3044 343.192C87.3044 344.992 87.8324 346.456 88.8644 347.584C89.9204 348.712 91.3364 349.264 93.0884 349.264C94.6484 349.264 95.9924 348.712 97.1204 347.632C97.5524 347.2 97.6004 346.768 97.2404 346.36C96.8324 345.952 96.4004 345.952 95.9444 346.408C95.1524 347.2 94.1924 347.608 93.0884 347.608C90.7844 347.608 89.2964 346.144 89.1284 343.672H96.6884C97.5044 343.672 97.9124 343.312 97.9124 342.568ZM116.498 348.112C116.498 348.784 116.786 349.12 117.386 349.12C117.986 349.12 118.274 348.784 118.274 348.112V342.16C118.274 338.8 116.738 336.952 113.858 336.952C112.322 336.952 110.906 337.648 110.066 338.896C109.322 337.6 108.122 336.952 106.442 336.952C105.05 336.952 103.97 337.48 103.178 338.536V338.104C103.178 337.456 102.89 337.12 102.314 337.12C101.834 337.12 101.45 337.456 101.45 338.104V348.112C101.45 348.784 101.738 349.12 102.338 349.12C102.938 349.12 103.226 348.784 103.226 348.112V342.52C103.226 340.24 104.474 338.608 106.322 338.608C108.074 338.608 108.962 339.784 108.962 342.136V348.112C108.962 348.784 109.25 349.12 109.85 349.12C110.45 349.12 110.738 348.784 110.738 348.112V342.52C110.738 340.024 111.818 338.608 113.762 338.608C115.586 338.608 116.498 339.736 116.498 342.016V348.112ZM123.656 339.856C124.568 339.016 125.504 338.608 126.488 338.608C128.192 338.608 129.224 339.568 129.224 341.368V341.728L126.008 342.112C123.416 342.4 121.664 343.72 121.664 345.808C121.664 347.944 123.296 349.264 125.504 349.264C127.064 349.264 128.48 348.568 129.272 347.68V348.136C129.272 349.432 131 349.432 131 348.136V341.56C131 338.584 129.32 336.952 126.512 336.952C125 336.952 123.416 337.72 122.456 338.752C122.048 339.232 122.072 339.688 122.432 340C122.792 340.312 123.2 340.264 123.656 339.856ZM123.44 345.856C123.44 344.68 124.328 343.984 126.104 343.768L129.224 343.384V345.808C128.528 346.864 127.064 347.68 125.6 347.68C124.28 347.68 123.44 346.936 123.44 345.856ZM124.832 334C124.376 334.336 124.256 334.696 124.472 335.08C124.736 335.512 125.12 335.584 125.6 335.272L128.192 333.736C128.744 333.376 128.864 332.968 128.6 332.488C128.264 331.984 127.832 331.912 127.304 332.272L124.832 334ZM141.542 339.52C142.094 339.976 142.526 340 142.886 339.616C143.294 339.184 143.246 338.752 142.766 338.296C141.806 337.408 140.606 336.952 139.19 336.952C138.086 336.952 137.126 337.264 136.334 337.864C135.542 338.464 135.134 339.28 135.134 340.336C135.134 342.064 136.238 343.192 138.47 343.72L140.222 344.128C141.446 344.416 142.07 344.992 142.07 345.832C142.07 346.96 141.086 347.632 139.43 347.632C138.254 347.632 137.246 347.224 136.382 346.384C135.974 345.976 135.542 345.952 135.134 346.36C134.75 346.744 134.774 347.152 135.182 347.608C136.262 348.712 137.678 349.264 139.454 349.264C142.118 349.264 143.846 347.824 143.846 345.736C143.846 344.056 142.742 342.952 140.51 342.424L138.662 341.992C137.486 341.728 136.91 341.152 136.91 340.264C136.91 339.28 137.798 338.608 139.07 338.608C140.006 338.608 140.822 338.92 141.542 339.52ZM146.043 350.848C145.779 351.472 145.947 351.904 146.523 352.144C147.051 352.36 147.459 352.168 147.747 351.52L149.571 347.512C149.883 346.816 149.715 346.36 149.019 346.096C148.419 345.88 147.963 346.144 147.675 346.84L146.043 350.848ZM168.818 346.312C168.122 347.152 167.21 347.584 166.034 347.584C164.858 347.584 163.922 347.152 163.226 346.312C162.53 345.472 162.194 344.392 162.194 343.096C162.194 341.8 162.53 340.72 163.226 339.88C163.922 339.04 164.858 338.608 166.034 338.608C167.21 338.608 168.122 339.04 168.818 339.88C169.514 340.72 169.85 341.8 169.85 343.096C169.85 344.392 169.514 345.472 168.818 346.312ZM160.466 352.768C160.466 353.44 160.754 353.776 161.354 353.776C161.954 353.776 162.242 353.44 162.242 352.768V347.416C163.298 348.64 164.618 349.264 166.202 349.264C167.81 349.264 169.106 348.664 170.138 347.488C171.17 346.288 171.674 344.824 171.674 343.096C171.674 341.368 171.17 339.904 170.138 338.728C169.106 337.552 167.81 336.952 166.202 336.952C164.594 336.952 163.274 337.576 162.194 338.824V338.08C162.194 336.76 160.466 336.76 160.466 338.08V352.768ZM184.688 338.128C184.688 337.456 184.4 337.12 183.8 337.12C183.2 337.12 182.912 337.456 182.912 338.128V343.048C182.912 346.072 181.808 347.584 179.576 347.584C177.68 347.584 176.624 346.408 176.624 344.2V338.128C176.624 337.456 176.336 337.12 175.736 337.12C175.136 337.12 174.848 337.456 174.848 338.128V344.056C174.848 347.416 176.36 349.264 179.336 349.264C180.848 349.264 182.072 348.688 182.984 347.536V348.136C182.984 348.784 183.272 349.12 183.824 349.12C184.328 349.12 184.688 348.784 184.688 348.136V338.128ZM193.818 338.632C195.762 338.632 197.01 340 197.034 342.088H190.122C190.41 340.072 191.802 338.632 193.818 338.632ZM198.834 342.568C198.834 339.928 197.418 336.952 193.77 336.952C192.162 336.952 190.842 337.552 189.786 338.776C188.754 340 188.226 341.464 188.226 343.192C188.226 344.992 188.754 346.456 189.786 347.584C190.842 348.712 192.258 349.264 194.01 349.264C195.57 349.264 196.914 348.712 198.042 347.632C198.474 347.2 198.522 346.768 198.162 346.36C197.754 345.952 197.322 345.952 196.866 346.408C196.074 347.2 195.114 347.608 194.01 347.608C191.706 347.608 190.218 346.144 190.05 343.672H197.61C198.426 343.672 198.834 343.312 198.834 342.568ZM204.817 339.904C205.513 339.064 206.425 338.632 207.601 338.632C208.777 338.632 209.689 339.064 210.385 339.904C211.081 340.744 211.441 341.824 211.441 343.12C211.441 344.416 211.081 345.496 210.385 346.336C209.689 347.176 208.777 347.608 207.601 347.608C206.425 347.608 205.513 347.176 204.817 346.336C204.121 345.496 203.785 344.416 203.785 343.12C203.785 341.824 204.121 340.744 204.817 339.904ZM213.169 333.088C213.169 332.416 212.881 332.08 212.281 332.08C211.681 332.08 211.393 332.416 211.393 333.088V338.8C210.337 337.576 209.017 336.952 207.433 336.952C205.825 336.952 204.529 337.552 203.497 338.752C202.465 339.928 201.961 341.392 201.961 343.12C201.961 344.848 202.465 346.312 203.497 347.488C204.529 348.664 205.825 349.264 207.433 349.264C209.041 349.264 210.361 348.64 211.441 347.392V348.136C211.441 349.432 213.169 349.432 213.169 348.136V333.088ZM222.295 338.632C224.239 338.632 225.487 340 225.511 342.088H218.599C218.887 340.072 220.279 338.632 222.295 338.632ZM227.311 342.568C227.311 339.928 225.895 336.952 222.247 336.952C220.639 336.952 219.319 337.552 218.263 338.776C217.231 340 216.703 341.464 216.703 343.192C216.703 344.992 217.231 346.456 218.263 347.584C219.319 348.712 220.735 349.264 222.487 349.264C224.047 349.264 225.391 348.712 226.519 347.632C226.951 347.2 226.999 346.768 226.639 346.36C226.231 345.952 225.799 345.952 225.343 346.408C224.551 347.2 223.591 347.608 222.487 347.608C220.183 347.608 218.695 346.144 218.527 343.672H226.087C226.903 343.672 227.311 343.312 227.311 342.568ZM237.449 339.52C238.001 339.976 238.433 340 238.793 339.616C239.201 339.184 239.153 338.752 238.673 338.296C237.713 337.408 236.513 336.952 235.097 336.952C233.993 336.952 233.033 337.264 232.241 337.864C231.449 338.464 231.041 339.28 231.041 340.336C231.041 342.064 232.145 343.192 234.377 343.72L236.129 344.128C237.353 344.416 237.977 344.992 237.977 345.832C237.977 346.96 236.993 347.632 235.337 347.632C234.161 347.632 233.153 347.224 232.289 346.384C231.881 345.976 231.449 345.952 231.041 346.36C230.657 346.744 230.681 347.152 231.089 347.608C232.169 348.712 233.585 349.264 235.361 349.264C238.025 349.264 239.753 347.824 239.753 345.736C239.753 344.056 238.649 342.952 236.417 342.424L234.569 341.992C233.393 341.728 232.817 341.152 232.817 340.264C232.817 339.28 233.705 338.608 234.977 338.608C235.913 338.608 236.729 338.92 237.449 339.52ZM258.203 339.664C258.707 340.072 259.139 340.072 259.499 339.712C259.859 339.304 259.811 338.872 259.379 338.44C258.395 337.456 257.099 336.952 255.515 336.952C253.859 336.952 252.443 337.552 251.267 338.776C250.115 339.976 249.539 341.416 249.539 343.12C249.539 344.824 250.091 346.288 251.219 347.488C252.347 348.664 253.763 349.264 255.443 349.264C257.099 349.264 258.491 348.712 259.619 347.632C260.051 347.2 260.099 346.768 259.739 346.36C259.331 345.952 258.899 345.952 258.443 346.408C257.651 347.2 256.691 347.608 255.587 347.608C252.971 347.608 251.363 345.736 251.363 343.12C251.363 341.848 251.747 340.768 252.539 339.928C253.331 339.064 254.315 338.632 255.515 338.632C256.499 338.632 257.387 338.968 258.203 339.664ZM268.357 349.264C270.061 349.264 271.477 348.664 272.605 347.488C273.733 346.288 274.309 344.824 274.309 343.12C274.309 341.416 273.733 339.952 272.581 338.752C271.453 337.552 270.037 336.952 268.357 336.952C266.677 336.952 265.261 337.552 264.133 338.752C263.005 339.952 262.453 341.416 262.453 343.12C262.453 344.824 263.005 346.288 264.133 347.488C265.261 348.664 266.677 349.264 268.357 349.264ZM268.357 347.608C267.181 347.608 266.197 347.176 265.429 346.336C264.661 345.472 264.277 344.392 264.277 343.12C264.277 341.848 264.661 340.768 265.429 339.928C266.197 339.064 267.181 338.632 268.357 338.632C269.557 338.632 270.541 339.064 271.309 339.928C272.077 340.768 272.461 341.848 272.461 343.12C272.461 344.392 272.077 345.472 271.309 346.336C270.541 347.176 269.557 347.608 268.357 347.608ZM277.841 348.112C277.841 348.784 278.129 349.12 278.729 349.12C279.329 349.12 279.617 348.784 279.617 348.112V343.168C279.617 340.36 280.865 338.608 283.169 338.608C285.065 338.608 286.169 339.832 286.169 342.016V348.112C286.169 348.784 286.457 349.12 287.057 349.12C287.561 349.12 287.969 348.784 287.969 348.112V342.16C287.969 338.824 286.289 336.952 283.289 336.952C281.825 336.952 280.361 337.648 279.569 338.68V338.104C279.569 337.456 279.281 337.12 278.705 337.12C278.225 337.12 277.841 337.456 277.841 338.104V348.112ZM295.944 347.392C294.288 347.392 293.88 346.936 293.88 345.208V338.872H295.92C296.544 338.872 296.856 338.608 296.856 338.056C296.856 337.504 296.544 337.24 295.92 337.24H293.88V334.84C293.88 334.168 293.592 333.832 292.992 333.832C292.392 333.832 292.104 334.168 292.104 334.84V337.24H290.88C290.256 337.24 289.944 337.504 289.944 338.056C289.944 338.608 290.256 338.872 290.88 338.872H292.104V345.328C292.104 348.184 293.208 349.024 295.8 349.024C296.496 349.024 296.856 348.76 296.856 348.208C296.856 347.656 296.544 347.392 295.944 347.392ZM301.519 339.856C302.431 339.016 303.367 338.608 304.351 338.608C306.055 338.608 307.087 339.568 307.087 341.368V341.728L303.871 342.112C301.279 342.4 299.527 343.72 299.527 345.808C299.527 347.944 301.159 349.264 303.367 349.264C304.927 349.264 306.343 348.568 307.135 347.68V348.136C307.135 349.432 308.863 349.432 308.863 348.136V341.56C308.863 338.584 307.183 336.952 304.375 336.952C302.863 336.952 301.279 337.72 300.319 338.752C299.911 339.232 299.935 339.688 300.295 340C300.655 340.312 301.063 340.264 301.519 339.856ZM301.303 345.856C301.303 344.68 302.191 343.984 303.967 343.768L307.087 343.384V345.808C306.391 346.864 304.927 347.68 303.463 347.68C302.143 347.68 301.303 346.936 301.303 345.856ZM320.922 339.664C321.426 340.072 321.858 340.072 322.218 339.712C322.578 339.304 322.53 338.872 322.098 338.44C321.114 337.456 319.818 336.952 318.234 336.952C316.578 336.952 315.162 337.552 313.986 338.776C312.834 339.976 312.258 341.416 312.258 343.12C312.258 344.824 312.81 346.288 313.938 347.488C315.066 348.664 316.482 349.264 318.162 349.264C319.818 349.264 321.21 348.712 322.338 347.632C322.77 347.2 322.818 346.768 322.458 346.36C322.05 345.952 321.618 345.952 321.162 346.408C320.37 347.2 319.41 347.608 318.306 347.608C315.69 347.608 314.082 345.736 314.082 343.12C314.082 341.848 314.466 340.768 315.258 339.928C316.05 339.064 317.034 338.632 318.234 338.632C319.218 338.632 320.106 338.968 320.922 339.664ZM330.655 347.392C328.999 347.392 328.591 346.936 328.591 345.208V338.872H330.631C331.255 338.872 331.567 338.608 331.567 338.056C331.567 337.504 331.255 337.24 330.631 337.24H328.591V334.84C328.591 334.168 328.303 333.832 327.703 333.832C327.103 333.832 326.815 334.168 326.815 334.84V337.24H325.591C324.967 337.24 324.655 337.504 324.655 338.056C324.655 338.608 324.967 338.872 325.591 338.872H326.815V345.328C326.815 348.184 327.919 349.024 330.511 349.024C331.207 349.024 331.567 348.76 331.567 348.208C331.567 347.656 331.255 347.392 330.655 347.392ZM336.23 339.856C337.142 339.016 338.078 338.608 339.062 338.608C340.766 338.608 341.798 339.568 341.798 341.368V341.728L338.582 342.112C335.99 342.4 334.238 343.72 334.238 345.808C334.238 347.944 335.87 349.264 338.078 349.264C339.638 349.264 341.054 348.568 341.846 347.68V348.136C341.846 349.432 343.574 349.432 343.574 348.136V341.56C343.574 338.584 341.894 336.952 339.086 336.952C337.574 336.952 335.99 337.72 335.03 338.752C334.622 339.232 334.646 339.688 335.006 340C335.366 340.312 335.774 340.264 336.23 339.856ZM336.014 345.856C336.014 344.68 336.902 343.984 338.678 343.768L341.798 343.384V345.808C341.102 346.864 339.638 347.68 338.174 347.68C336.854 347.68 336.014 346.936 336.014 345.856ZM353.346 338.776C353.514 338.776 353.73 338.8 354.018 338.848C354.666 338.944 355.026 338.56 355.026 338.056C355.026 337.576 354.762 337.288 354.21 337.168L353.346 337.072C351.69 337.072 350.418 337.624 349.506 338.728V338.104C349.506 337.456 349.218 337.12 348.642 337.12C348.162 337.12 347.778 337.456 347.778 338.104V348.112C347.778 348.784 348.066 349.12 348.666 349.12C349.266 349.12 349.554 348.784 349.554 348.112V343.984C349.554 340.216 350.682 338.776 353.346 338.776ZM357.669 348.112C357.669 348.784 357.957 349.12 358.557 349.12C359.157 349.12 359.445 348.784 359.445 348.112V343.168C359.445 340.36 360.693 338.608 362.997 338.608C364.893 338.608 365.997 339.832 365.997 342.016V348.112C365.997 348.784 366.285 349.12 366.885 349.12C367.389 349.12 367.797 348.784 367.797 348.112V342.16C367.797 338.824 366.117 336.952 363.117 336.952C361.653 336.952 360.189 337.648 359.397 338.68V338.104C359.397 337.456 359.109 337.12 358.533 337.12C358.053 337.12 357.669 337.456 357.669 338.104V348.112ZM376.872 349.264C378.576 349.264 379.992 348.664 381.12 347.488C382.248 346.288 382.824 344.824 382.824 343.12C382.824 341.416 382.248 339.952 381.096 338.752C379.968 337.552 378.552 336.952 376.872 336.952C375.192 336.952 373.776 337.552 372.648 338.752C371.52 339.952 370.968 341.416 370.968 343.12C370.968 344.824 371.52 346.288 372.648 347.488C373.776 348.664 375.192 349.264 376.872 349.264ZM376.872 347.608C375.696 347.608 374.712 347.176 373.944 346.336C373.176 345.472 372.792 344.392 372.792 343.12C372.792 341.848 373.176 340.768 373.944 339.928C374.712 339.064 375.696 338.632 376.872 338.632C378.072 338.632 379.056 339.064 379.824 339.928C380.592 340.768 380.976 341.848 380.976 343.12C380.976 344.392 380.592 345.472 379.824 346.336C379.056 347.176 378.072 347.608 376.872 347.608ZM392.956 339.52C393.508 339.976 393.94 340 394.3 339.616C394.708 339.184 394.66 338.752 394.18 338.296C393.22 337.408 392.02 336.952 390.604 336.952C389.5 336.952 388.54 337.264 387.748 337.864C386.956 338.464 386.548 339.28 386.548 340.336C386.548 342.064 387.652 343.192 389.884 343.72L391.636 344.128C392.86 344.416 393.484 344.992 393.484 345.832C393.484 346.96 392.5 347.632 390.844 347.632C389.668 347.632 388.66 347.224 387.796 346.384C387.388 345.976 386.956 345.952 386.548 346.36C386.164 346.744 386.188 347.152 386.596 347.608C387.676 348.712 389.092 349.264 390.868 349.264C393.532 349.264 395.26 347.824 395.26 345.736C395.26 344.056 394.156 342.952 391.924 342.424L390.076 341.992C388.9 341.728 388.324 341.152 388.324 340.264C388.324 339.28 389.212 338.608 390.484 338.608C391.42 338.608 392.236 338.92 392.956 339.52ZM413.951 346.312C413.255 347.152 412.343 347.584 411.167 347.584C409.991 347.584 409.055 347.152 408.359 346.312C407.663 345.472 407.327 344.392 407.327 343.096C407.327 341.8 407.663 340.72 408.359 339.88C409.055 339.04 409.991 338.608 411.167 338.608C412.343 338.608 413.255 339.04 413.951 339.88C414.647 340.72 414.983 341.8 414.983 343.096C414.983 344.392 414.647 345.472 413.951 346.312ZM405.599 352.768C405.599 353.44 405.887 353.776 406.487 353.776C407.087 353.776 407.375 353.44 407.375 352.768V347.416C408.431 348.64 409.751 349.264 411.335 349.264C412.943 349.264 414.239 348.664 415.271 347.488C416.303 346.288 416.807 344.824 416.807 343.096C416.807 341.368 416.303 339.904 415.271 338.728C414.239 337.552 412.943 336.952 411.335 336.952C409.727 336.952 408.407 337.576 407.327 338.824V338.08C407.327 336.76 405.599 336.76 405.599 338.08V352.768ZM425.833 349.264C427.537 349.264 428.953 348.664 430.081 347.488C431.209 346.288 431.785 344.824 431.785 343.12C431.785 341.416 431.209 339.952 430.057 338.752C428.929 337.552 427.513 336.952 425.833 336.952C424.153 336.952 422.737 337.552 421.609 338.752C420.481 339.952 419.929 341.416 419.929 343.12C419.929 344.824 420.481 346.288 421.609 347.488C422.737 348.664 424.153 349.264 425.833 349.264ZM425.833 347.608C424.657 347.608 423.673 347.176 422.905 346.336C422.137 345.472 421.753 344.392 421.753 343.12C421.753 341.848 422.137 340.768 422.905 339.928C423.673 339.064 424.657 338.632 425.833 338.632C427.033 338.632 428.017 339.064 428.785 339.928C429.553 340.768 429.937 341.848 429.937 343.12C429.937 344.392 429.553 345.472 428.785 346.336C428.017 347.176 427.033 347.608 425.833 347.608ZM440.885 338.776C441.053 338.776 441.269 338.8 441.557 338.848C442.205 338.944 442.565 338.56 442.565 338.056C442.565 337.576 442.301 337.288 441.749 337.168L440.885 337.072C439.229 337.072 437.957 337.624 437.045 338.728V338.104C437.045 337.456 436.757 337.12 436.181 337.12C435.701 337.12 435.317 337.456 435.317 338.104V348.112C435.317 348.784 435.605 349.12 436.205 349.12C436.805 349.12 437.093 348.784 437.093 348.112V343.984C437.093 340.216 438.221 338.776 440.885 338.776ZM92.7458 366.664C93.2498 367.072 93.6818 367.072 94.0418 366.712C94.4018 366.304 94.3538 365.872 93.9218 365.44C92.9378 364.456 91.6418 363.952 90.0578 363.952C88.4018 363.952 86.9858 364.552 85.8098 365.776C84.6578 366.976 84.0818 368.416 84.0818 370.12C84.0818 371.824 84.6338 373.288 85.7617 374.488C86.8898 375.664 88.3058 376.264 89.9858 376.264C91.6418 376.264 93.0338 375.712 94.1618 374.632C94.5938 374.2 94.6418 373.768 94.2818 373.36C93.8738 372.952 93.4418 372.952 92.9858 373.408C92.1938 374.2 91.2338 374.608 90.1298 374.608C87.5138 374.608 85.9058 372.736 85.9058 370.12C85.9058 368.848 86.2898 367.768 87.0818 366.928C87.8738 366.064 88.8578 365.632 90.0578 365.632C91.0418 365.632 91.9298 365.968 92.7458 366.664ZM107.426 365.128C107.426 364.456 107.138 364.12 106.538 364.12C105.938 364.12 105.65 364.456 105.65 365.128V370.048C105.65 373.072 104.546 374.584 102.314 374.584C100.418 374.584 99.3623 373.408 99.3623 371.2V365.128C99.3623 364.456 99.0742 364.12 98.4743 364.12C97.8743 364.12 97.5863 364.456 97.5863 365.128V371.056C97.5863 374.416 99.0983 376.264 102.074 376.264C103.586 376.264 104.81 375.688 105.722 374.536V375.136C105.722 375.784 106.01 376.12 106.562 376.12C107.066 376.12 107.426 375.784 107.426 375.136V365.128ZM112.789 366.856C113.701 366.016 114.637 365.608 115.621 365.608C117.325 365.608 118.357 366.568 118.357 368.368V368.728L115.141 369.112C112.549 369.4 110.797 370.72 110.797 372.808C110.797 374.944 112.429 376.264 114.637 376.264C116.197 376.264 117.613 375.568 118.405 374.68V375.136C118.405 376.432 120.133 376.432 120.133 375.136V368.56C120.133 365.584 118.453 363.952 115.645 363.952C114.133 363.952 112.549 364.72 111.589 365.752C111.181 366.232 111.205 366.688 111.565 367C111.925 367.312 112.333 367.264 112.789 366.856ZM112.573 372.856C112.573 371.68 113.461 370.984 115.237 370.768L118.357 370.384V372.808C117.661 373.864 116.197 374.68 114.733 374.68C113.413 374.68 112.573 373.936 112.573 372.856ZM126.113 360.064C126.113 359.416 125.825 359.08 125.225 359.08C124.721 359.08 124.337 359.416 124.337 360.064V375.112C124.337 375.784 124.625 376.12 125.225 376.12C125.825 376.12 126.113 375.784 126.113 375.112V360.064ZM132.5 366.88C133.196 366.04 134.108 365.608 135.284 365.608C136.46 365.608 137.372 366.04 138.068 366.88C138.764 367.72 139.124 368.8 139.124 370.096C139.124 371.392 138.764 372.472 138.068 373.312C137.372 374.152 136.46 374.584 135.284 374.584C134.108 374.584 133.196 374.152 132.5 373.312C131.804 372.472 131.468 371.392 131.468 370.096C131.468 368.8 131.804 367.72 132.5 366.88ZM140.852 365.08C140.852 363.76 139.124 363.76 139.124 365.08V365.824C138.044 364.576 136.724 363.952 135.116 363.952C133.508 363.952 132.212 364.552 131.18 365.728C130.148 366.904 129.644 368.368 129.644 370.096C129.644 371.824 130.148 373.288 131.18 374.488C132.212 375.664 133.508 376.264 135.116 376.264C136.7 376.264 138.02 375.64 139.076 374.416V379.768C139.076 380.44 139.364 380.776 139.964 380.776C140.564 380.776 140.852 380.44 140.852 379.768V365.08ZM154.418 365.128C154.418 364.456 154.13 364.12 153.53 364.12C152.93 364.12 152.642 364.456 152.642 365.128V370.048C152.642 373.072 151.538 374.584 149.306 374.584C147.41 374.584 146.354 373.408 146.354 371.2V365.128C146.354 364.456 146.066 364.12 145.466 364.12C144.866 364.12 144.578 364.456 144.578 365.128V371.056C144.578 374.416 146.09 376.264 149.066 376.264C150.578 376.264 151.802 375.688 152.714 374.536V375.136C152.714 375.784 153.002 376.12 153.554 376.12C154.058 376.12 154.418 375.784 154.418 375.136V365.128ZM158.863 361.312C159.415 361.816 160.255 361.816 160.759 361.312C161.311 360.76 161.311 359.92 160.759 359.416C160.255 358.912 159.415 358.912 158.863 359.416C158.359 359.92 158.359 360.76 158.863 361.312ZM160.711 365.104C160.711 364.456 160.423 364.12 159.823 364.12C159.319 364.12 158.935 364.456 158.935 365.104V375.112C158.935 375.784 159.223 376.12 159.823 376.12C160.423 376.12 160.711 375.784 160.711 375.112V365.104ZM170.018 365.632C171.962 365.632 173.21 367 173.234 369.088H166.322C166.61 367.072 168.002 365.632 170.018 365.632ZM175.034 369.568C175.034 366.928 173.618 363.952 169.97 363.952C168.362 363.952 167.042 364.552 165.986 365.776C164.954 367 164.426 368.464 164.426 370.192C164.426 371.992 164.954 373.456 165.986 374.584C167.042 375.712 168.458 376.264 170.21 376.264C171.77 376.264 173.114 375.712 174.242 374.632C174.674 374.2 174.722 373.768 174.362 373.36C173.954 372.952 173.522 372.952 173.066 373.408C172.274 374.2 171.314 374.608 170.21 374.608C167.906 374.608 166.418 373.144 166.25 370.672H173.81C174.626 370.672 175.034 370.312 175.034 369.568ZM184.139 365.776C184.307 365.776 184.523 365.8 184.811 365.848C185.459 365.944 185.819 365.56 185.819 365.056C185.819 364.576 185.555 364.288 185.003 364.168L184.139 364.072C182.483 364.072 181.211 364.624 180.299 365.728V365.104C180.299 364.456 180.011 364.12 179.435 364.12C178.955 364.12 178.571 364.456 178.571 365.104V375.112C178.571 375.784 178.859 376.12 179.459 376.12C180.059 376.12 180.347 375.784 180.347 375.112V370.984C180.347 367.216 181.475 365.776 184.139 365.776ZM189.476 366.856C190.388 366.016 191.324 365.608 192.308 365.608C194.012 365.608 195.044 366.568 195.044 368.368V368.728L191.828 369.112C189.236 369.4 187.484 370.72 187.484 372.808C187.484 374.944 189.116 376.264 191.324 376.264C192.884 376.264 194.3 375.568 195.092 374.68V375.136C195.092 376.432 196.82 376.432 196.82 375.136V368.56C196.82 365.584 195.14 363.952 192.332 363.952C190.82 363.952 189.236 364.72 188.276 365.752C187.868 366.232 187.892 366.688 188.252 367C188.612 367.312 189.02 367.264 189.476 366.856ZM189.26 372.856C189.26 371.68 190.148 370.984 191.924 370.768L195.044 370.384V372.808C194.348 373.864 192.884 374.68 191.42 374.68C190.1 374.68 189.26 373.936 189.26 372.856ZM210.453 366.904C211.149 366.064 212.061 365.632 213.237 365.632C214.413 365.632 215.325 366.064 216.021 366.904C216.717 367.744 217.077 368.824 217.077 370.12C217.077 371.416 216.717 372.496 216.021 373.336C215.325 374.176 214.413 374.608 213.237 374.608C212.061 374.608 211.149 374.176 210.453 373.336C209.757 372.496 209.421 371.416 209.421 370.12C209.421 368.824 209.757 367.744 210.453 366.904ZM218.805 360.088C218.805 359.416 218.517 359.08 217.917 359.08C217.317 359.08 217.029 359.416 217.029 360.088V365.8C215.973 364.576 214.653 363.952 213.069 363.952C211.461 363.952 210.165 364.552 209.133 365.752C208.101 366.928 207.597 368.392 207.597 370.12C207.597 371.848 208.101 373.312 209.133 374.488C210.165 375.664 211.461 376.264 213.069 376.264C214.677 376.264 215.997 375.64 217.077 374.392V375.136C217.077 376.432 218.805 376.432 218.805 375.136V360.088ZM227.932 365.632C229.876 365.632 231.124 367 231.148 369.088H224.236C224.524 367.072 225.916 365.632 227.932 365.632ZM232.948 369.568C232.948 366.928 231.532 363.952 227.884 363.952C226.276 363.952 224.956 364.552 223.9 365.776C222.868 367 222.34 368.464 222.34 370.192C222.34 371.992 222.868 373.456 223.9 374.584C224.956 375.712 226.372 376.264 228.124 376.264C229.684 376.264 231.028 375.712 232.156 374.632C232.588 374.2 232.636 373.768 232.276 373.36C231.868 372.952 231.436 372.952 230.98 373.408C230.188 374.2 229.228 374.608 228.124 374.608C225.82 374.608 224.332 373.144 224.164 370.672H231.724C232.54 370.672 232.948 370.312 232.948 369.568ZM243.868 375.112C243.868 375.784 244.156 376.12 244.756 376.12C245.356 376.12 245.644 375.784 245.644 375.112V370.168C245.644 367.36 246.892 365.608 249.196 365.608C251.092 365.608 252.196 366.832 252.196 369.016V375.112C252.196 375.784 252.484 376.12 253.084 376.12C253.588 376.12 253.996 375.784 253.996 375.112V369.16C253.996 365.824 252.316 363.952 249.316 363.952C247.852 363.952 246.388 364.648 245.596 365.68V365.104C245.596 364.456 245.308 364.12 244.732 364.12C244.252 364.12 243.868 364.456 243.868 365.104V375.112ZM267.458 365.128C267.458 364.456 267.17 364.12 266.57 364.12C265.97 364.12 265.682 364.456 265.682 365.128V370.048C265.682 373.072 264.578 374.584 262.346 374.584C260.45 374.584 259.394 373.408 259.394 371.2V365.128C259.394 364.456 259.105 364.12 258.506 364.12C257.906 364.12 257.618 364.456 257.618 365.128V371.056C257.618 374.416 259.13 376.264 262.105 376.264C263.618 376.264 264.842 375.688 265.754 374.536V375.136C265.754 375.784 266.042 376.12 266.594 376.12C267.098 376.12 267.458 375.784 267.458 375.136V365.128ZM276.588 365.632C278.532 365.632 279.78 367 279.804 369.088H272.892C273.18 367.072 274.572 365.632 276.588 365.632ZM281.604 369.568C281.604 366.928 280.188 363.952 276.54 363.952C274.932 363.952 273.612 364.552 272.556 365.776C271.524 367 270.996 368.464 270.996 370.192C270.996 371.992 271.524 373.456 272.556 374.584C273.612 375.712 275.028 376.264 276.78 376.264C278.34 376.264 279.684 375.712 280.812 374.632C281.244 374.2 281.292 373.768 280.932 373.36C280.524 372.952 280.092 372.952 279.636 373.408C278.844 374.2 277.884 374.608 276.78 374.608C274.476 374.608 272.988 373.144 272.82 370.672H280.38C281.196 370.672 281.604 370.312 281.604 369.568ZM291.742 366.52C292.294 366.976 292.726 367 293.086 366.616C293.494 366.184 293.446 365.752 292.966 365.296C292.006 364.408 290.806 363.952 289.39 363.952C288.286 363.952 287.326 364.264 286.534 364.864C285.742 365.464 285.334 366.28 285.334 367.336C285.334 369.064 286.438 370.192 288.67 370.72L290.422 371.128C291.646 371.416 292.27 371.992 292.27 372.832C292.27 373.96 291.286 374.632 289.63 374.632C288.454 374.632 287.446 374.224 286.582 373.384C286.174 372.976 285.742 372.952 285.334 373.36C284.95 373.744 284.974 374.152 285.382 374.608C286.462 375.712 287.878 376.264 289.654 376.264C292.318 376.264 294.046 374.824 294.046 372.736C294.046 371.056 292.942 369.952 290.71 369.424L288.862 368.992C287.686 368.728 287.11 368.152 287.11 367.264C287.11 366.28 287.998 365.608 289.27 365.608C290.206 365.608 291.022 365.92 291.742 366.52ZM301.252 374.392C299.596 374.392 299.188 373.936 299.188 372.208V365.872H301.228C301.852 365.872 302.164 365.608 302.164 365.056C302.164 364.504 301.852 364.24 301.228 364.24H299.188V361.84C299.188 361.168 298.9 360.832 298.3 360.832C297.7 360.832 297.412 361.168 297.412 361.84V364.24H296.188C295.564 364.24 295.252 364.504 295.252 365.056C295.252 365.608 295.564 365.872 296.188 365.872H297.412V372.328C297.412 375.184 298.516 376.024 301.108 376.024C301.804 376.024 302.164 375.76 302.164 375.208C302.164 374.656 301.852 374.392 301.252 374.392ZM311.358 365.776C311.526 365.776 311.742 365.8 312.03 365.848C312.678 365.944 313.038 365.56 313.038 365.056C313.038 364.576 312.774 364.288 312.222 364.168L311.358 364.072C309.702 364.072 308.43 364.624 307.518 365.728V365.104C307.518 364.456 307.23 364.12 306.654 364.12C306.174 364.12 305.79 364.456 305.79 365.104V375.112C305.79 375.784 306.078 376.12 306.678 376.12C307.278 376.12 307.566 375.784 307.566 375.112V370.984C307.566 367.216 308.694 365.776 311.358 365.776ZM316.695 366.856C317.607 366.016 318.543 365.608 319.527 365.608C321.231 365.608 322.263 366.568 322.263 368.368V368.728L319.047 369.112C316.455 369.4 314.703 370.72 314.703 372.808C314.703 374.944 316.335 376.264 318.543 376.264C320.103 376.264 321.519 375.568 322.311 374.68V375.136C322.311 376.432 324.039 376.432 324.039 375.136V368.56C324.039 365.584 322.359 363.952 319.551 363.952C318.039 363.952 316.455 364.72 315.495 365.752C315.087 366.232 315.111 366.688 315.471 367C315.831 367.312 316.239 367.264 316.695 366.856ZM316.479 372.856C316.479 371.68 317.367 370.984 319.143 370.768L322.263 370.384V372.808C321.567 373.864 320.103 374.68 318.639 374.68C317.319 374.68 316.479 373.936 316.479 372.856ZM334.585 366.52C335.137 366.976 335.569 367 335.929 366.616C336.337 366.184 336.289 365.752 335.809 365.296C334.849 364.408 333.649 363.952 332.233 363.952C331.129 363.952 330.169 364.264 329.377 364.864C328.585 365.464 328.177 366.28 328.177 367.336C328.177 369.064 329.281 370.192 331.513 370.72L333.265 371.128C334.489 371.416 335.113 371.992 335.113 372.832C335.113 373.96 334.129 374.632 332.473 374.632C331.297 374.632 330.289 374.224 329.425 373.384C329.017 372.976 328.585 372.952 328.177 373.36C327.793 373.744 327.817 374.152 328.225 374.608C329.305 375.712 330.721 376.264 332.497 376.264C335.161 376.264 336.889 374.824 336.889 372.736C336.889 371.056 335.785 369.952 333.553 369.424L331.705 368.992C330.529 368.728 329.953 368.152 329.953 367.264C329.953 366.28 330.841 365.608 332.113 365.608C333.049 365.608 333.865 365.92 334.585 366.52ZM352.796 365.776C352.964 365.776 353.18 365.8 353.468 365.848C354.116 365.944 354.476 365.56 354.476 365.056C354.476 364.576 354.212 364.288 353.66 364.168L352.796 364.072C351.14 364.072 349.868 364.624 348.956 365.728V365.104C348.956 364.456 348.668 364.12 348.092 364.12C347.612 364.12 347.228 364.456 347.228 365.104V375.112C347.228 375.784 347.516 376.12 348.116 376.12C348.715 376.12 349.004 375.784 349.004 375.112V370.984C349.004 367.216 350.132 365.776 352.796 365.776ZM361.9 365.632C363.844 365.632 365.092 367 365.116 369.088H358.204C358.492 367.072 359.884 365.632 361.9 365.632ZM366.916 369.568C366.916 366.928 365.5 363.952 361.852 363.952C360.244 363.952 358.924 364.552 357.868 365.776C356.836 367 356.308 368.464 356.308 370.192C356.308 371.992 356.836 373.456 357.868 374.584C358.924 375.712 360.34 376.264 362.092 376.264C363.652 376.264 364.996 375.712 366.124 374.632C366.556 374.2 366.604 373.768 366.244 373.36C365.836 372.952 365.404 372.952 364.948 373.408C364.156 374.2 363.196 374.608 362.092 374.608C359.788 374.608 358.3 373.144 358.132 370.672H365.692C366.508 370.672 366.916 370.312 366.916 369.568ZM372.899 366.904C373.595 366.064 374.507 365.632 375.683 365.632C376.859 365.632 377.771 366.064 378.467 366.904C379.163 367.744 379.523 368.824 379.523 370.12C379.523 371.416 379.163 372.496 378.467 373.336C377.771 374.176 376.859 374.608 375.683 374.608C374.507 374.608 373.595 374.176 372.899 373.336C372.203 372.496 371.867 371.416 371.867 370.12C371.867 368.824 372.203 367.744 372.899 366.904ZM381.251 360.088C381.251 359.416 380.963 359.08 380.363 359.08C379.763 359.08 379.475 359.416 379.475 360.088V365.8C378.419 364.576 377.099 363.952 375.515 363.952C373.907 363.952 372.611 364.552 371.579 365.752C370.547 366.928 370.043 368.392 370.043 370.12C370.043 371.848 370.547 373.312 371.579 374.488C372.611 375.664 373.907 376.264 375.515 376.264C377.123 376.264 378.443 375.64 379.523 374.392V375.136C379.523 376.432 381.251 376.432 381.251 375.136V360.088ZM390.377 365.632C392.321 365.632 393.569 367 393.593 369.088H386.681C386.969 367.072 388.361 365.632 390.377 365.632ZM395.393 369.568C395.393 366.928 393.977 363.952 390.329 363.952C388.721 363.952 387.401 364.552 386.345 365.776C385.313 367 384.785 368.464 384.785 370.192C384.785 371.992 385.313 373.456 386.345 374.584C387.401 375.712 388.817 376.264 390.569 376.264C392.129 376.264 393.473 375.712 394.601 374.632C395.033 374.2 395.081 373.768 394.721 373.36C394.313 372.952 393.881 372.952 393.425 373.408C392.633 374.2 391.673 374.608 390.569 374.608C388.265 374.608 386.777 373.144 386.609 370.672H394.169C394.985 370.672 395.393 370.312 395.393 369.568ZM405.531 366.52C406.083 366.976 406.515 367 406.875 366.616C407.283 366.184 407.235 365.752 406.755 365.296C405.795 364.408 404.595 363.952 403.179 363.952C402.075 363.952 401.115 364.264 400.323 364.864C399.531 365.464 399.123 366.28 399.123 367.336C399.123 369.064 400.227 370.192 402.459 370.72L404.211 371.128C405.435 371.416 406.059 371.992 406.059 372.832C406.059 373.96 405.075 374.632 403.419 374.632C402.243 374.632 401.235 374.224 400.371 373.384C399.963 372.976 399.531 372.952 399.123 373.36C398.739 373.744 398.763 374.152 399.171 374.608C400.251 375.712 401.667 376.264 403.443 376.264C406.107 376.264 407.835 374.824 407.835 372.736C407.835 371.056 406.731 369.952 404.499 369.424L402.651 368.992C401.475 368.728 400.899 368.152 400.899 367.264C400.899 366.28 401.787 365.608 403.059 365.608C403.995 365.608 404.811 365.92 405.531 366.52ZM411.644 373.408C410.852 373.408 410.228 374.056 410.228 374.848C410.228 375.64 410.852 376.264 411.644 376.264C412.484 376.264 413.108 375.64 413.108 374.848C413.108 374.008 412.484 373.408 411.644 373.408ZM411.644 364.096C410.852 364.096 410.228 364.744 410.228 365.536C410.228 366.328 410.852 366.952 411.644 366.952C412.484 366.952 413.108 366.328 413.108 365.536C413.108 364.696 412.484 364.096 411.644 364.096Z" fill="#930345"/>
<path d="M146.517 202.658C147.021 203.066 147.453 203.066 147.813 202.706C148.173 202.298 148.125 201.866 147.693 201.434C146.709 200.45 145.413 199.946 143.829 199.946C142.173 199.946 140.757 200.546 139.581 201.77C138.429 202.97 137.853 204.41 137.853 206.114C137.853 207.818 138.405 209.282 139.533 210.482C140.661 211.658 142.077 212.258 143.757 212.258C145.413 212.258 146.805 211.706 147.933 210.626C148.365 210.194 148.413 209.762 148.053 209.354C147.645 208.946 147.213 208.946 146.757 209.402C145.965 210.194 145.005 210.602 143.901 210.602C141.285 210.602 139.677 208.73 139.677 206.114C139.677 204.842 140.061 203.762 140.853 202.922C141.645 202.058 142.629 201.626 143.829 201.626C144.813 201.626 145.701 201.962 146.517 202.658ZM156.671 212.258C158.375 212.258 159.791 211.658 160.919 210.482C162.047 209.282 162.623 207.818 162.623 206.114C162.623 204.41 162.047 202.946 160.895 201.746C159.767 200.546 158.351 199.946 156.671 199.946C154.991 199.946 153.575 200.546 152.447 201.746C151.319 202.946 150.767 204.41 150.767 206.114C150.767 207.818 151.319 209.282 152.447 210.482C153.575 211.658 154.991 212.258 156.671 212.258ZM156.671 210.602C155.495 210.602 154.511 210.17 153.743 209.33C152.975 208.466 152.591 207.386 152.591 206.114C152.591 204.842 152.975 203.762 153.743 202.922C154.511 202.058 155.495 201.626 156.671 201.626C157.871 201.626 158.855 202.058 159.623 202.922C160.391 203.762 160.775 204.842 160.775 206.114C160.775 207.386 160.391 208.466 159.623 209.33C158.855 210.17 157.871 210.602 156.671 210.602ZM171.723 201.77C171.891 201.77 172.107 201.794 172.395 201.842C173.043 201.938 173.403 201.554 173.403 201.05C173.403 200.57 173.139 200.282 172.587 200.162L171.723 200.066C170.067 200.066 168.795 200.618 167.883 201.722V201.098C167.883 200.45 167.595 200.114 167.019 200.114C166.539 200.114 166.155 200.45 166.155 201.098V211.106C166.155 211.778 166.443 212.114 167.043 212.114C167.643 212.114 167.931 211.778 167.931 211.106V206.978C167.931 203.21 169.059 201.77 171.723 201.77ZM181.614 201.77C181.782 201.77 181.998 201.794 182.286 201.842C182.934 201.938 183.294 201.554 183.294 201.05C183.294 200.57 183.03 200.282 182.478 200.162L181.614 200.066C179.958 200.066 178.686 200.618 177.774 201.722V201.098C177.774 200.45 177.486 200.114 176.91 200.114C176.43 200.114 176.046 200.45 176.046 201.098V211.106C176.046 211.778 176.334 212.114 176.934 212.114C177.534 212.114 177.822 211.778 177.822 211.106V206.978C177.822 203.21 178.95 201.77 181.614 201.77ZM190.719 201.626C192.663 201.626 193.911 202.994 193.935 205.082H187.023C187.311 203.066 188.703 201.626 190.719 201.626ZM195.735 205.562C195.735 202.922 194.319 199.946 190.671 199.946C189.063 199.946 187.743 200.546 186.687 201.77C185.655 202.994 185.127 204.458 185.127 206.186C185.127 207.986 185.655 209.45 186.687 210.578C187.743 211.706 189.159 212.258 190.911 212.258C192.471 212.258 193.815 211.706 194.943 210.626C195.375 210.194 195.423 209.762 195.063 209.354C194.655 208.946 194.223 208.946 193.767 209.402C192.975 210.194 192.015 210.602 190.911 210.602C188.607 210.602 187.119 209.138 186.951 206.666H194.511C195.327 206.666 195.735 206.306 195.735 205.562ZM204.765 212.258C206.469 212.258 207.885 211.658 209.013 210.482C210.141 209.282 210.717 207.818 210.717 206.114C210.717 204.41 210.141 202.946 208.989 201.746C207.861 200.546 206.445 199.946 204.765 199.946C203.085 199.946 201.669 200.546 200.541 201.746C199.413 202.946 198.861 204.41 198.861 206.114C198.861 207.818 199.413 209.282 200.541 210.482C201.669 211.658 203.085 212.258 204.765 212.258ZM204.765 210.602C203.589 210.602 202.605 210.17 201.837 209.33C201.069 208.466 200.685 207.386 200.685 206.114C200.685 204.842 201.069 203.762 201.837 202.922C202.605 202.058 203.589 201.626 204.765 201.626C205.965 201.626 206.949 202.058 207.717 202.922C208.485 203.762 208.869 204.842 208.869 206.114C208.869 207.386 208.485 208.466 207.717 209.33C206.949 210.17 205.965 210.602 204.765 210.602ZM215.367 209.402C214.575 209.402 213.951 210.05 213.951 210.842C213.951 211.634 214.575 212.258 215.367 212.258C216.207 212.258 216.831 211.634 216.831 210.842C216.831 210.002 216.207 209.402 215.367 209.402ZM229.275 202.658C229.779 203.066 230.211 203.066 230.571 202.706C230.931 202.298 230.883 201.866 230.451 201.434C229.467 200.45 228.171 199.946 226.587 199.946C224.931 199.946 223.515 200.546 222.339 201.77C221.187 202.97 220.611 204.41 220.611 206.114C220.611 207.818 221.163 209.282 222.291 210.482C223.419 211.658 224.835 212.258 226.515 212.258C228.171 212.258 229.563 211.706 230.691 210.626C231.123 210.194 231.171 209.762 230.811 209.354C230.403 208.946 229.971 208.946 229.515 209.402C228.723 210.194 227.763 210.602 226.659 210.602C224.043 210.602 222.435 208.73 222.435 206.114C222.435 204.842 222.819 203.762 223.611 202.922C224.403 202.058 225.387 201.626 226.587 201.626C227.571 201.626 228.459 201.962 229.275 202.658ZM239.429 212.258C241.133 212.258 242.549 211.658 243.677 210.482C244.805 209.282 245.381 207.818 245.381 206.114C245.381 204.41 244.805 202.946 243.653 201.746C242.525 200.546 241.109 199.946 239.429 199.946C237.749 199.946 236.333 200.546 235.205 201.746C234.077 202.946 233.525 204.41 233.525 206.114C233.525 207.818 234.077 209.282 235.205 210.482C236.333 211.658 237.749 212.258 239.429 212.258ZM239.429 210.602C238.253 210.602 237.269 210.17 236.501 209.33C235.733 208.466 235.349 207.386 235.349 206.114C235.349 204.842 235.733 203.762 236.501 202.922C237.269 202.058 238.253 201.626 239.429 201.626C240.629 201.626 241.613 202.058 242.381 202.922C243.149 203.762 243.533 204.842 243.533 206.114C243.533 207.386 243.149 208.466 242.381 209.33C241.613 210.17 240.629 210.602 239.429 210.602ZM254.481 201.77C254.649 201.77 254.865 201.794 255.153 201.842C255.801 201.938 256.161 201.554 256.161 201.05C256.161 200.57 255.897 200.282 255.345 200.162L254.481 200.066C252.825 200.066 251.553 200.618 250.641 201.722V201.098C250.641 200.45 250.353 200.114 249.777 200.114C249.297 200.114 248.913 200.45 248.913 201.098V211.106C248.913 211.778 249.201 212.114 249.801 212.114C250.401 212.114 250.689 211.778 250.689 211.106V206.978C250.689 203.21 251.817 201.77 254.481 201.77ZM264.372 201.77C264.54 201.77 264.756 201.794 265.044 201.842C265.692 201.938 266.052 201.554 266.052 201.05C266.052 200.57 265.788 200.282 265.236 200.162L264.372 200.066C262.716 200.066 261.444 200.618 260.532 201.722V201.098C260.532 200.45 260.244 200.114 259.668 200.114C259.188 200.114 258.804 200.45 258.804 201.098V211.106C258.804 211.778 259.092 212.114 259.692 212.114C260.292 212.114 260.58 211.778 260.58 211.106V206.978C260.58 203.21 261.708 201.77 264.372 201.77ZM273.477 201.626C275.421 201.626 276.669 202.994 276.693 205.082H269.781C270.069 203.066 271.461 201.626 273.477 201.626ZM278.493 205.562C278.493 202.922 277.077 199.946 273.429 199.946C271.821 199.946 270.501 200.546 269.445 201.77C268.413 202.994 267.885 204.458 267.885 206.186C267.885 207.986 268.413 209.45 269.445 210.578C270.501 211.706 271.917 212.258 273.669 212.258C275.229 212.258 276.573 211.706 277.701 210.626C278.133 210.194 278.181 209.762 277.821 209.354C277.413 208.946 276.981 208.946 276.525 209.402C275.733 210.194 274.773 210.602 273.669 210.602C271.365 210.602 269.877 209.138 269.709 206.666H277.269C278.085 206.666 278.493 206.306 278.493 205.562ZM287.523 212.258C289.227 212.258 290.643 211.658 291.771 210.482C292.899 209.282 293.475 207.818 293.475 206.114C293.475 204.41 292.899 202.946 291.747 201.746C290.619 200.546 289.203 199.946 287.523 199.946C285.843 199.946 284.427 200.546 283.299 201.746C282.171 202.946 281.619 204.41 281.619 206.114C281.619 207.818 282.171 209.282 283.299 210.482C284.427 211.658 285.843 212.258 287.523 212.258ZM287.523 210.602C286.347 210.602 285.363 210.17 284.595 209.33C283.827 208.466 283.443 207.386 283.443 206.114C283.443 204.842 283.827 203.762 284.595 202.922C285.363 202.058 286.347 201.626 287.523 201.626C288.723 201.626 289.707 202.058 290.475 202.922C291.243 203.762 291.627 204.842 291.627 206.114C291.627 207.386 291.243 208.466 290.475 209.33C289.707 210.17 288.723 210.602 287.523 210.602ZM307.567 210.626C306.415 210.626 305.479 210.194 304.783 209.354C304.087 208.49 303.751 207.41 303.751 206.114C303.751 204.818 304.087 203.738 304.783 202.898C305.479 202.058 306.391 201.626 307.567 201.626C308.743 201.626 309.679 202.058 310.375 202.898C311.071 203.738 311.431 204.818 311.431 206.114C311.431 207.41 311.071 208.49 310.375 209.354C309.679 210.194 308.743 210.626 307.567 210.626ZM312.607 216.29C313.207 216.122 313.447 215.786 313.327 215.258C313.231 214.802 312.799 214.562 312.199 214.754C311.047 215.114 309.823 215.282 308.527 215.282C305.599 215.282 303.223 214.394 301.399 212.594C299.599 210.818 298.687 208.586 298.687 205.922C298.687 203.258 299.551 201.026 301.303 199.226C303.055 197.426 305.335 196.538 308.119 196.538C310.975 196.538 313.183 197.402 314.743 199.13C316.303 200.858 317.095 203.042 317.095 205.658C317.095 206.906 316.855 208.058 316.351 209.09C315.847 210.122 315.199 210.626 314.359 210.626C313.543 210.626 313.135 210.05 313.135 208.898V201.122C313.135 200.45 312.847 200.114 312.247 200.114C311.647 200.114 311.359 200.45 311.359 201.122V201.794C310.303 200.57 308.983 199.946 307.399 199.946C305.791 199.946 304.495 200.546 303.463 201.746C302.431 202.922 301.927 204.386 301.927 206.114C301.927 207.842 302.431 209.306 303.463 210.482C304.495 211.658 305.791 212.258 307.399 212.258C309.055 212.258 310.639 211.538 311.671 210.218C312.031 211.442 312.895 212.258 314.215 212.258C315.487 212.258 316.591 211.634 317.479 210.41C318.391 209.162 318.847 207.578 318.847 205.658C318.847 201.722 317.215 198.386 313.927 196.394C312.271 195.41 310.351 194.906 308.119 194.906C301.615 194.81 296.839 199.946 296.983 205.922C296.983 209.018 298.063 211.634 300.199 213.746C302.359 215.858 305.143 216.914 308.527 216.914C309.943 216.914 311.287 216.698 312.607 216.29ZM324.341 205.85C324.341 204.602 324.677 203.594 325.373 202.802C326.069 202.01 326.933 201.626 328.013 201.626C329.093 201.626 329.981 202.01 330.677 202.802C331.373 203.594 331.733 204.602 331.733 205.85C331.733 207.074 331.373 208.082 330.677 208.874C329.981 209.666 329.093 210.05 328.013 210.05C326.933 210.05 326.069 209.666 325.373 208.874C324.677 208.082 324.341 207.074 324.341 205.85ZM323.333 214.874C324.413 216.242 325.901 216.914 327.797 216.914C331.277 216.914 333.461 214.61 333.461 211.034V201.074C333.461 199.754 331.733 199.754 331.733 201.074V201.746C330.797 200.546 329.501 199.946 327.845 199.946C326.333 199.946 325.085 200.498 324.053 201.626C323.021 202.754 322.517 204.146 322.517 205.85C322.517 207.53 323.021 208.922 324.053 210.05C325.085 211.178 326.333 211.73 327.845 211.73C329.525 211.73 330.797 211.13 331.685 209.954V211.178C331.685 213.65 330.317 215.282 327.797 215.282C326.573 215.282 325.541 214.778 324.677 213.77C324.245 213.266 323.813 213.218 323.381 213.578C322.949 213.938 322.925 214.37 323.333 214.874ZM352.836 211.106C352.836 211.778 353.124 212.114 353.724 212.114C354.324 212.114 354.612 211.778 354.612 211.106V205.154C354.612 201.794 353.076 199.946 350.196 199.946C348.66 199.946 347.244 200.642 346.404 201.89C345.66 200.594 344.46 199.946 342.78 199.946C341.388 199.946 340.308 200.474 339.516 201.53V201.098C339.516 200.45 339.228 200.114 338.652 200.114C338.172 200.114 337.788 200.45 337.788 201.098V211.106C337.788 211.778 338.076 212.114 338.676 212.114C339.276 212.114 339.564 211.778 339.564 211.106V205.514C339.564 203.234 340.812 201.602 342.66 201.602C344.412 201.602 345.3 202.778 345.3 205.13V211.106C345.3 211.778 345.588 212.114 346.188 212.114C346.788 212.114 347.076 211.778 347.076 211.106V205.514C347.076 203.018 348.156 201.602 350.1 201.602C351.924 201.602 352.836 202.73 352.836 205.01V211.106ZM359.826 202.85C360.738 202.01 361.674 201.602 362.658 201.602C364.362 201.602 365.394 202.562 365.394 204.362V204.722L362.178 205.106C359.586 205.394 357.834 206.714 357.834 208.802C357.834 210.938 359.466 212.258 361.674 212.258C363.234 212.258 364.65 211.562 365.442 210.674V211.13C365.442 212.426 367.17 212.426 367.17 211.13V204.554C367.17 201.578 365.49 199.946 362.682 199.946C361.17 199.946 359.586 200.714 358.626 201.746C358.218 202.226 358.242 202.682 358.602 202.994C358.962 203.306 359.37 203.258 359.826 202.85ZM359.61 208.85C359.61 207.674 360.498 206.978 362.274 206.762L365.394 206.378V208.802C364.698 209.858 363.234 210.674 361.77 210.674C360.45 210.674 359.61 209.93 359.61 208.85ZM371.47 197.306C372.022 197.81 372.862 197.81 373.366 197.306C373.918 196.754 373.918 195.914 373.366 195.41C372.862 194.906 372.022 194.906 371.47 195.41C370.966 195.914 370.966 196.754 371.47 197.306ZM373.318 201.098C373.318 200.45 373.03 200.114 372.43 200.114C371.926 200.114 371.542 200.45 371.542 201.098V211.106C371.542 211.778 371.83 212.114 372.43 212.114C373.03 212.114 373.318 211.778 373.318 211.106V201.098ZM379.619 196.058C379.619 195.41 379.331 195.074 378.731 195.074C378.227 195.074 377.843 195.41 377.843 196.058V211.106C377.843 211.778 378.131 212.114 378.731 212.114C379.331 212.114 379.619 211.778 379.619 211.106V196.058ZM385.382 209.402C384.59 209.402 383.966 210.05 383.966 210.842C383.966 211.634 384.59 212.258 385.382 212.258C386.222 212.258 386.846 211.634 386.846 210.842C386.846 210.002 386.222 209.402 385.382 209.402ZM399.291 202.658C399.795 203.066 400.227 203.066 400.587 202.706C400.947 202.298 400.899 201.866 400.467 201.434C399.483 200.45 398.187 199.946 396.603 199.946C394.947 199.946 393.531 200.546 392.355 201.77C391.203 202.97 390.627 204.41 390.627 206.114C390.627 207.818 391.179 209.282 392.307 210.482C393.435 211.658 394.851 212.258 396.531 212.258C398.187 212.258 399.579 211.706 400.707 210.626C401.139 210.194 401.187 209.762 400.827 209.354C400.419 208.946 399.987 208.946 399.531 209.402C398.739 210.194 397.779 210.602 396.675 210.602C394.059 210.602 392.451 208.73 392.451 206.114C392.451 204.842 392.835 203.762 393.627 202.922C394.419 202.058 395.403 201.626 396.603 201.626C397.587 201.626 398.475 201.962 399.291 202.658ZM409.445 212.258C411.149 212.258 412.565 211.658 413.693 210.482C414.821 209.282 415.397 207.818 415.397 206.114C415.397 204.41 414.821 202.946 413.669 201.746C412.541 200.546 411.125 199.946 409.445 199.946C407.765 199.946 406.349 200.546 405.221 201.746C404.093 202.946 403.541 204.41 403.541 206.114C403.541 207.818 404.093 209.282 405.221 210.482C406.349 211.658 407.765 212.258 409.445 212.258ZM409.445 210.602C408.269 210.602 407.285 210.17 406.517 209.33C405.749 208.466 405.365 207.386 405.365 206.114C405.365 204.842 405.749 203.762 406.517 202.922C407.285 202.058 408.269 201.626 409.445 201.626C410.645 201.626 411.629 202.058 412.397 202.922C413.165 203.762 413.549 204.842 413.549 206.114C413.549 207.386 413.165 208.466 412.397 209.33C411.629 210.17 410.645 210.602 409.445 210.602ZM433.977 211.106C433.977 211.778 434.265 212.114 434.865 212.114C435.465 212.114 435.753 211.778 435.753 211.106V205.154C435.753 201.794 434.217 199.946 431.337 199.946C429.801 199.946 428.385 200.642 427.545 201.89C426.801 200.594 425.601 199.946 423.921 199.946C422.529 199.946 421.449 200.474 420.657 201.53V201.098C420.657 200.45 420.369 200.114 419.793 200.114C419.313 200.114 418.929 200.45 418.929 201.098V211.106C418.929 211.778 419.217 212.114 419.817 212.114C420.417 212.114 420.705 211.778 420.705 211.106V205.514C420.705 203.234 421.953 201.602 423.801 201.602C425.553 201.602 426.441 202.778 426.441 205.13V211.106C426.441 211.778 426.729 212.114 427.329 212.114C427.929 212.114 428.217 211.778 428.217 211.106V205.514C428.217 203.018 429.297 201.602 431.241 201.602C433.065 201.602 433.977 202.73 433.977 205.01V211.106Z" fill="#930345"/>
<path d="M105.652 212.313C105.418 212.555 105.129 212.682 104.849 212.682C104.57 212.682 104.29 212.555 104.047 212.313L92.6743 200.554L89.9688 197.757V224.759C89.9688 225.814 90.573 226.666 91.3215 226.666H118.377C119.126 226.666 119.73 225.814 119.73 224.759V197.757L117.024 200.554L105.652 212.313Z" fill="#930345"/>
<path d="M104.848 208.41L117.934 194.884H91.7617L104.848 208.41Z" fill="#930345"/>
<path d="M171.415 281.669C171.415 282.293 171.703 282.605 172.255 282.605C172.831 282.605 173.119 282.293 173.119 281.669V277.397H177.511C178.111 277.397 178.423 277.109 178.423 276.557C178.423 276.029 178.111 275.765 177.511 275.765H173.119V271.541C173.119 270.917 172.831 270.605 172.255 270.605C171.703 270.605 171.415 270.917 171.415 271.541V275.765H167.095C166.495 275.765 166.183 276.029 166.183 276.557C166.183 277.109 166.495 277.397 167.095 277.397H171.415V281.669ZM191.159 267.413C192.479 267.413 192.479 265.685 191.159 265.685H183.983C183.407 265.685 182.927 266.189 182.903 266.789L182.567 274.397C182.543 275.141 182.879 275.501 183.551 275.501C183.863 275.501 184.127 275.357 184.367 275.069C185.255 274.037 186.287 273.533 187.511 273.533C189.719 273.533 191.327 274.925 191.327 277.253C191.327 278.381 190.943 279.317 190.151 280.013C189.383 280.709 188.423 281.045 187.295 281.045C185.999 281.045 184.823 280.517 183.743 279.437C183.167 278.957 182.735 279.077 182.375 279.485C182.039 279.917 182.111 280.373 182.615 280.853C183.911 282.125 185.447 282.749 187.199 282.749C188.999 282.749 190.439 282.221 191.519 281.141C192.599 280.061 193.151 278.765 193.151 277.253C193.151 275.549 192.623 274.205 191.567 273.245C190.511 272.285 189.239 271.805 187.751 271.805C186.287 271.805 184.967 272.333 184.319 273.077L184.583 267.413H191.159ZM201.323 266.645C201.323 265.901 200.915 265.565 200.363 265.565C200.123 265.565 199.763 265.709 199.259 265.997L195.875 267.941C195.419 268.205 195.203 268.517 195.203 268.877C195.203 269.573 195.995 269.909 196.571 269.549L199.499 267.917V280.757H195.947C194.651 280.757 194.651 282.485 195.947 282.485H204.635C205.931 282.485 205.931 280.757 204.635 280.757H201.323V266.645ZM220.709 274.829C219.701 274.829 218.837 274.493 218.117 273.797C217.397 273.101 217.037 272.165 217.037 270.989C217.037 269.741 217.397 268.781 218.093 268.109C218.813 267.437 219.653 267.101 220.589 267.101C221.645 267.101 222.533 267.485 223.253 268.229C223.973 268.973 224.333 269.909 224.333 271.013C224.333 272.141 223.973 273.077 223.253 273.773C222.557 274.469 221.693 274.829 220.709 274.829ZM217.685 279.869C217.229 279.413 216.773 279.389 216.341 279.797C215.933 280.205 215.957 280.661 216.437 281.141C217.541 282.221 218.909 282.749 220.541 282.749C222.485 282.749 223.997 281.981 225.125 280.421C226.253 278.861 226.829 276.797 226.829 274.229C226.829 271.565 226.277 269.429 225.173 267.821C224.069 266.213 222.581 265.397 220.709 265.397C219.269 265.397 217.997 265.901 216.869 266.933C215.741 267.941 215.189 269.285 215.189 270.989C215.189 272.645 215.741 273.989 216.821 275.021C217.925 276.053 219.221 276.557 220.709 276.557C222.437 276.557 224.213 275.669 225.101 274.013C225.173 276.077 224.789 277.757 223.925 279.077C223.061 280.397 221.933 281.045 220.541 281.045C219.413 281.045 218.477 280.661 217.685 279.869ZM235.31 274.829C234.302 274.829 233.438 274.493 232.718 273.797C231.998 273.101 231.638 272.165 231.638 270.989C231.638 269.741 231.998 268.781 232.694 268.109C233.414 267.437 234.254 267.101 235.19 267.101C236.246 267.101 237.134 267.485 237.854 268.229C238.574 268.973 238.934 269.909 238.934 271.013C238.934 272.141 238.574 273.077 237.854 273.773C237.158 274.469 236.294 274.829 235.31 274.829ZM232.286 279.869C231.83 279.413 231.374 279.389 230.942 279.797C230.534 280.205 230.558 280.661 231.038 281.141C232.142 282.221 233.51 282.749 235.142 282.749C237.086 282.749 238.598 281.981 239.726 280.421C240.854 278.861 241.43 276.797 241.43 274.229C241.43 271.565 240.878 269.429 239.774 267.821C238.67 266.213 237.182 265.397 235.31 265.397C233.87 265.397 232.598 265.901 231.47 266.933C230.342 267.941 229.79 269.285 229.79 270.989C229.79 272.645 230.342 273.989 231.422 275.021C232.526 276.053 233.822 276.557 235.31 276.557C237.038 276.557 238.814 275.669 239.702 274.013C239.774 276.077 239.39 277.757 238.526 279.077C237.662 280.397 236.534 281.045 235.142 281.045C234.014 281.045 233.078 280.661 232.286 279.869ZM253.56 279.149C252.84 280.421 251.808 281.045 250.464 281.045C249.12 281.045 248.088 280.397 247.344 279.125C246.6 277.853 246.24 276.149 246.24 274.061C246.24 271.973 246.6 270.293 247.344 269.021C248.088 267.749 249.12 267.101 250.464 267.101C251.808 267.101 252.84 267.725 253.56 268.997C254.304 270.269 254.664 271.949 254.664 274.061C254.664 276.173 254.304 277.877 253.56 279.149ZM244.776 277.277C245.256 279.293 246.168 281.045 247.728 282.029C248.52 282.509 249.432 282.749 250.464 282.749C251.496 282.749 252.384 282.509 253.176 282.029C254.784 281.045 255.672 279.293 256.152 277.277C256.632 275.261 256.632 272.861 256.152 270.845C255.672 268.829 254.784 267.101 253.176 266.141C252.384 265.637 251.496 265.397 250.464 265.397C249.432 265.397 248.52 265.637 247.728 266.141C246.168 267.101 245.256 268.829 244.776 270.845C244.296 272.861 244.296 275.261 244.776 277.277ZM266.725 278.045C266.725 279.461 267.253 280.589 268.285 281.453C269.341 282.317 270.637 282.749 272.149 282.749C273.661 282.749 274.957 282.317 275.989 281.453C277.045 280.589 277.573 279.461 277.573 278.045C277.573 277.061 277.237 276.173 276.589 275.429C275.941 274.685 275.293 274.205 274.645 274.037C275.245 273.773 275.797 273.341 276.349 272.717C276.901 272.093 277.165 271.325 277.165 270.389C277.165 268.997 276.661 267.893 275.653 267.053C274.669 266.213 273.493 265.805 272.149 265.805C270.805 265.805 269.629 266.213 268.621 267.053C267.637 267.893 267.133 268.997 267.133 270.389C267.133 271.325 267.397 272.093 267.949 272.717C268.501 273.341 269.053 273.773 269.653 274.037C269.005 274.205 268.333 274.685 267.685 275.429C267.037 276.173 266.725 277.061 266.725 278.045ZM272.149 274.973C274.189 274.973 275.725 276.125 275.725 278.021C275.725 279.869 274.165 281.045 272.149 281.045C270.133 281.045 268.573 279.869 268.573 278.021C268.573 276.125 270.061 274.973 272.149 274.973ZM268.981 270.413C268.981 269.477 269.317 268.757 269.965 268.253C270.613 267.749 271.357 267.509 272.149 267.509C272.941 267.509 273.685 267.749 274.333 268.253C274.981 268.757 275.317 269.477 275.317 270.413C275.317 272.165 273.973 273.245 272.149 273.245C270.301 273.245 268.981 272.165 268.981 270.413ZM289.56 279.149C288.84 280.421 287.808 281.045 286.464 281.045C285.12 281.045 284.088 280.397 283.344 279.125C282.6 277.853 282.24 276.149 282.24 274.061C282.24 271.973 282.6 270.293 283.344 269.021C284.088 267.749 285.12 267.101 286.464 267.101C287.808 267.101 288.84 267.725 289.56 268.997C290.304 270.269 290.664 271.949 290.664 274.061C290.664 276.173 290.304 277.877 289.56 279.149ZM280.776 277.277C281.256 279.293 282.168 281.045 283.728 282.029C284.52 282.509 285.432 282.749 286.464 282.749C287.496 282.749 288.384 282.509 289.176 282.029C290.784 281.045 291.672 279.293 292.152 277.277C292.632 275.261 292.632 272.861 292.152 270.845C291.672 268.829 290.784 267.101 289.176 266.141C288.384 265.637 287.496 265.397 286.464 265.397C285.432 265.397 284.52 265.637 283.728 266.141C282.168 267.101 281.256 268.829 280.776 270.845C280.296 272.861 280.296 275.261 280.776 277.277ZM304.63 279.149C303.91 280.421 302.878 281.045 301.534 281.045C300.19 281.045 299.158 280.397 298.414 279.125C297.67 277.853 297.31 276.149 297.31 274.061C297.31 271.973 297.67 270.293 298.414 269.021C299.158 267.749 300.19 267.101 301.534 267.101C302.878 267.101 303.91 267.725 304.63 268.997C305.374 270.269 305.734 271.949 305.734 274.061C305.734 276.173 305.374 277.877 304.63 279.149ZM295.846 277.277C296.326 279.293 297.238 281.045 298.798 282.029C299.59 282.509 300.502 282.749 301.534 282.749C302.566 282.749 303.454 282.509 304.246 282.029C305.854 281.045 306.742 279.293 307.222 277.277C307.702 275.261 307.702 272.861 307.222 270.845C306.742 268.829 305.854 267.101 304.246 266.141C303.454 265.637 302.566 265.397 301.534 265.397C300.502 265.397 299.59 265.637 298.798 266.141C297.238 267.101 296.326 268.829 295.846 270.845C295.366 272.861 295.366 275.261 295.846 277.277ZM324.323 266.645C324.323 265.901 323.915 265.565 323.363 265.565C323.123 265.565 322.763 265.709 322.259 265.997L318.875 267.941C318.419 268.205 318.203 268.517 318.203 268.877C318.203 269.573 318.995 269.909 319.571 269.549L322.499 267.917V280.757H318.947C317.651 280.757 317.651 282.485 318.947 282.485H327.635C328.931 282.485 328.931 280.757 327.635 280.757H324.323V266.645ZM337.214 266.645C337.214 265.901 336.806 265.565 336.254 265.565C336.014 265.565 335.654 265.709 335.15 265.997L331.766 267.941C331.31 268.205 331.094 268.517 331.094 268.877C331.094 269.573 331.886 269.909 332.462 269.549L335.39 267.917V280.757H331.838C330.542 280.757 330.542 282.485 331.838 282.485H340.526C341.822 282.485 341.822 280.757 340.526 280.757H337.214V266.645ZM353.416 267.413C354.736 267.413 354.736 265.685 353.416 265.685H346.24C345.664 265.685 345.184 266.189 345.16 266.789L344.824 274.397C344.8 275.141 345.136 275.501 345.808 275.501C346.12 275.501 346.384 275.357 346.624 275.069C347.512 274.037 348.544 273.533 349.768 273.533C351.976 273.533 353.584 274.925 353.584 277.253C353.584 278.381 353.2 279.317 352.408 280.013C351.64 280.709 350.68 281.045 349.552 281.045C348.256 281.045 347.08 280.517 346 279.437C345.424 278.957 344.992 279.077 344.632 279.485C344.296 279.917 344.368 280.373 344.872 280.853C346.168 282.125 347.704 282.749 349.456 282.749C351.256 282.749 352.696 282.221 353.776 281.141C354.856 280.061 355.408 278.765 355.408 277.253C355.408 275.549 354.88 274.205 353.824 273.245C352.768 272.285 351.496 271.805 350.008 271.805C348.544 271.805 347.224 272.333 346.576 273.077L346.84 267.413H353.416Z" fill="#930345"/>
<g clip-path="url(#clip0_794_191)">
<path d="M150.313 262.485C143.226 262.485 137.456 268.241 137.456 275.314C137.456 277.506 138.045 279.693 139.161 281.654L137.271 288.455L144.199 286.586C146.217 287.687 148.331 288.271 150.313 288.271C157.323 288.271 163.247 282.335 163.247 275.309C163.242 268.241 157.44 262.485 150.313 262.485ZM150.313 286.125C148.434 286.125 146.509 285.552 144.737 284.471L144.512 284.333L140.287 285.418L141.439 281.332L141.291 281.096C140.195 279.385 139.611 277.388 139.611 275.309C139.611 269.419 144.414 264.626 150.318 264.626C156.263 264.626 161.101 269.419 161.101 275.309C161.096 281.275 156.258 286.125 150.313 286.125Z" fill="#930345"/>
<path d="M152.607 278.53C152.412 278.781 152.08 278.878 151.783 278.776C151.025 278.51 148.439 277.429 147.021 274.699C146.882 274.428 146.918 274.105 147.118 273.875L148.137 272.697L146.964 269.978L146.166 269.937C146.155 269.937 146.145 269.937 146.135 269.937C146.002 269.937 145.879 269.983 145.782 270.07C145.454 270.351 144.88 270.94 144.717 271.688C144.455 272.856 144.891 274.29 145.94 275.724C146.632 276.671 148.746 279.549 152.745 280.676C153.698 280.948 154.558 280.845 155.3 280.369C155.776 280.067 156.12 279.565 156.242 278.991L156.37 278.392L153.657 277.153L152.607 278.53Z" fill="#930345"/>
<path d="M150.313 265.496C144.886 265.496 140.467 269.901 140.467 275.319C140.467 277.229 140.999 279.068 142.008 280.64L142.366 281.198L141.516 284.22L144.645 283.416L145.177 283.744C146.816 284.742 148.588 285.27 150.308 285.27C155.782 285.27 160.231 280.804 160.231 275.319C160.236 269.901 155.782 265.496 150.313 265.496ZM157.21 278.571L157.082 279.17C156.913 279.964 156.432 280.661 155.766 281.091C155.152 281.485 154.476 281.685 153.754 281.685C153.355 281.685 152.94 281.624 152.515 281.506C148.229 280.292 145.992 277.24 145.254 276.231C144.051 274.592 143.565 272.912 143.882 271.494C144.102 270.51 144.819 269.768 145.224 269.419C145.5 269.179 145.858 269.061 146.222 269.076L147.026 269.122C147.349 269.138 147.63 269.337 147.758 269.634L148.931 272.374C149.059 272.671 149.002 273.02 148.792 273.26L147.83 274.377C149.059 276.681 151.225 277.654 151.988 277.936L152.991 276.62C153.237 276.308 153.657 276.205 154.015 276.369L156.734 277.624C157.098 277.788 157.292 278.177 157.21 278.571Z" fill="#930345"/>
</g>
<g clip-path="url(#clip1_794_191)">
<path d="M241.552 416.06C241.463 416.06 241.374 416.06 241.301 416.06C239.617 416.06 237.919 416.06 236.236 416.06C236 416.06 236 416.06 236 415.825C236 414.591 235.985 413.356 236.015 412.122C236.029 411.74 236.118 411.358 236.236 410.99C236.458 410.388 236.945 410.035 237.55 409.903C237.964 409.815 238.392 409.771 238.805 409.756C239.721 409.741 240.636 409.741 241.552 409.756C241.714 409.756 241.758 409.712 241.758 409.55C241.758 408.022 241.758 406.509 241.758 404.981C241.758 404.804 241.699 404.745 241.537 404.731C241.005 404.701 240.474 404.643 239.927 404.628C238.938 404.598 237.964 404.54 236.974 404.569C235.513 404.598 234.14 404.981 232.929 405.818C232.25 406.288 231.703 406.891 231.26 407.596C230.876 408.213 230.625 408.889 230.448 409.594C230.242 410.417 230.168 411.24 230.168 412.093C230.168 413.356 230.168 414.605 230.168 415.869C230.168 416.045 230.109 416.089 229.946 416.089C228.47 416.089 227.008 416.089 225.532 416.089C225.295 416.089 225.295 416.089 225.295 416.324C225.295 418.029 225.295 419.733 225.295 421.438C225.295 421.688 225.295 421.688 225.546 421.688C227.008 421.688 228.47 421.688 229.946 421.688C230.123 421.688 230.168 421.732 230.168 421.908C230.168 426.552 230.168 431.18 230.168 435.824C230.168 435.985 230.123 436.029 229.961 436.029C225.827 436.029 221.678 436.029 217.544 436.015C216.008 436.015 214.605 435.559 213.35 434.677C212.479 434.06 211.771 433.282 211.239 432.356C210.589 431.21 210.279 429.975 210.279 428.668C210.279 421.218 210.279 413.768 210.279 406.332C210.279 405.407 210.427 404.51 210.767 403.643C211.269 402.365 212.066 401.307 213.173 400.484C214.473 399.514 215.92 399.029 217.544 399.029C225.103 399.029 232.648 399.029 240.208 399.029C241.478 399.029 242.674 399.338 243.781 399.97C244.785 400.543 245.612 401.307 246.247 402.277C247.074 403.511 247.458 404.878 247.458 406.347C247.458 413.797 247.458 421.247 247.458 428.682C247.458 430.034 247.147 431.298 246.453 432.459C245.848 433.473 245.051 434.295 244.032 434.913C242.807 435.662 241.478 436.015 240.045 436.015C238.761 436.015 237.476 436.015 236.177 436.029C235.985 436.029 235.956 435.971 235.956 435.794C235.956 431.166 235.956 426.537 235.956 421.894C235.956 421.717 236.015 421.673 236.192 421.673C237.639 421.673 239.101 421.673 240.547 421.673C240.813 421.673 240.813 421.673 240.843 421.409C240.961 420.454 241.094 419.513 241.212 418.558C241.315 417.764 241.419 416.971 241.522 416.177C241.552 416.148 241.552 416.119 241.552 416.06Z" fill="#930345"/>
<path d="M269.25 399.029C273.414 399.029 277.578 399.015 281.741 399.029C285.374 399.044 287.721 401.336 287.736 404.936C287.751 413.297 287.751 421.658 287.736 430.019C287.736 433.678 285.374 435.971 281.682 435.971C273.355 435.971 265.027 435.971 256.685 435.971C252.92 435.971 250.602 433.693 250.587 429.946C250.572 421.658 250.572 413.371 250.587 405.069C250.602 401.263 252.905 399.015 256.759 399.015C260.923 399.029 265.086 399.029 269.25 399.029ZM283.513 428.344C283.513 424.465 283.749 420.659 283.454 416.898C283.1 412.489 278.803 410.065 274.772 411.769C273.857 412.151 273.089 412.93 272.174 413.577C272.174 412.96 272.174 412.386 272.174 411.769C270.269 411.769 268.453 411.769 266.622 411.769C266.622 417.338 266.622 422.834 266.622 428.33C268.497 428.33 270.313 428.33 272.188 428.33C272.188 426.346 272.174 424.465 272.188 422.57C272.203 421.129 272.159 419.689 272.277 418.249C272.395 416.839 273.65 415.781 275.068 415.722C276.574 415.663 277.504 416.369 277.799 417.926C277.962 418.778 278.006 419.66 278.006 420.542C278.035 423.128 278.021 425.714 278.021 428.359C279.925 428.344 281.712 428.344 283.513 428.344ZM257.925 428.344C259.801 428.344 261.587 428.344 263.418 428.344C263.418 422.79 263.418 417.309 263.418 411.769C261.558 411.769 259.756 411.769 257.925 411.769C257.925 417.309 257.925 422.775 257.925 428.344ZM260.686 409.389C262.562 409.389 263.876 408.184 263.861 406.479C263.846 404.819 262.517 403.585 260.746 403.585C258.929 403.585 257.527 404.878 257.542 406.538C257.556 408.184 258.885 409.389 260.686 409.389Z" fill="#930345"/>
<path d="M170 417.647C170 414.282 170 410.932 170.015 407.567C170.03 402.438 173.485 399.029 178.652 399.029C185.311 399.029 191.956 399.029 198.615 399.029C203.768 399.029 207.223 402.482 207.223 407.611C207.223 414.297 207.223 420.982 207.223 427.654C207.223 432.473 203.679 436 198.851 436C192.103 436 185.356 436 178.608 436C173.455 436 170 432.562 170 427.433C170 424.171 170 420.909 170 417.647ZM175.064 417.529C175.064 419.631 175.035 421.717 175.079 423.818C175.168 427.903 178.593 431.357 182.683 431.415C186.552 431.474 190.42 431.474 194.288 431.415C198.821 431.342 202.188 427.859 202.188 423.334C202.188 419.396 202.188 415.443 202.188 411.505C202.188 407.214 198.629 403.687 194.333 403.687C190.582 403.687 186.847 403.687 183.097 403.687C178.578 403.687 175.109 407.126 175.079 411.622C175.05 413.591 175.064 415.56 175.064 417.529Z" fill="#930345"/>
<path d="M177.131 417.456C177.131 415.546 177.131 413.635 177.131 411.725C177.145 408.375 179.685 405.803 183.051 405.774C186.772 405.745 190.478 405.745 194.199 405.789C197.492 405.833 200.031 408.301 200.075 411.593C200.134 415.56 200.134 419.542 200.09 423.51C200.046 426.713 197.669 429.211 194.406 429.299C190.508 429.402 186.61 429.402 182.712 429.285C179.508 429.182 177.175 426.596 177.145 423.378C177.116 421.409 177.131 419.44 177.131 417.456ZM181.191 417.515C181.191 421.614 184.498 424.906 188.603 424.906C192.752 424.906 196.074 421.526 196.059 417.324C196.045 413.033 192.988 410.138 188.485 410.124C184.425 410.138 181.191 413.4 181.191 417.515ZM196.177 408.243C195.159 408.243 194.391 408.992 194.406 409.977C194.42 410.946 195.233 411.696 196.222 411.681C197.181 411.666 197.92 410.932 197.934 409.977C197.949 408.963 197.211 408.228 196.177 408.243Z" fill="#930345"/>
<path d="M193.462 417.28C193.477 420.086 191.366 422.334 188.664 422.349C185.962 422.378 183.762 420.189 183.762 417.5C183.762 414.84 185.858 412.695 188.472 412.68C191.543 412.666 193.448 414.429 193.462 417.28Z" fill="#930345"/>
<path d="M323.57 399H295.265C292.829 399 290.836 400.969 290.836 403.408V431.577C290.836 434.002 292.814 435.985 295.265 435.985H323.57C326.006 435.985 327.999 434.016 327.999 431.577V403.408C327.999 400.969 326.006 399 323.57 399ZM320.041 415.134C319.834 415.149 319.642 415.164 319.436 415.164C317.118 415.164 315.08 413.973 313.884 412.181C313.884 416.883 313.884 422.246 313.884 422.334C313.884 426.478 310.503 429.843 306.339 429.843C302.175 429.843 298.794 426.478 298.794 422.334C298.794 418.191 302.175 414.826 306.339 414.826C306.502 414.826 306.649 414.84 306.812 414.855V418.558C306.664 418.543 306.502 418.514 306.339 418.514C304.213 418.514 302.485 420.233 302.485 422.349C302.485 424.465 304.213 426.184 306.339 426.184C308.465 426.184 310.34 424.524 310.34 422.393C310.34 422.305 310.385 405.142 310.385 405.142H313.943C314.283 408.301 316.837 410.799 320.041 411.035V415.134V415.134Z" fill="#930345"/>
</g>
<defs>
<clipPath id="clip0_794_191">
<rect width="25.9703" height="25.9703" fill="white" transform="translate(137.271 262.485)"/>
</clipPath>
<clipPath id="clip1_794_191">
<rect width="158" height="37" fill="white" transform="translate(170 399)"/>
</clipPath>
</defs>
</svg>
