<svg width="351" height="176" viewBox="0 0 351 176" fill="none" xmlns="http://www.w3.org/2000/svg">
<path d="M-3.07728e-05 176C-1.37884e-05 78.8605 78.6364 1.37492e-05 175.5 3.06854e-05C272.363 4.76215e-05 351 78.8606 351 176L-3.07728e-05 176Z" fill="#F9D332"/>
<path d="M121.12 73.88C118.48 71.64 115.32 70.52 111.68 70.52C107.48 70.52 104 71.84 101.2 74.52C98.4 77.16 97 80.68 97 85.04C97 89.36 98.4 92.84 101.2 95.48C104.04 98.12 107.6 99.44 111.88 99.44C115.76 99.44 119 98.32 121.56 96.04C123 94.76 123.12 93 122 91.84C120.92 90.6 119.32 90.44 117.76 91.68C116 93.16 114 93.88 111.72 93.88C109.28 93.88 107.24 93.08 105.6 91.48C103.96 89.88 103.12 87.68 103.12 84.92C103.12 82.2 103.96 80.04 105.6 78.48C107.28 76.88 109.2 76.08 111.4 76.08C113.72 76.08 115.68 76.8 117.32 78.24C118.88 79.52 120.48 79.36 121.56 78.08C122.68 76.92 122.56 75.16 121.12 73.88ZM129.799 96.52C131.759 98.48 134.239 99.44 137.199 99.44C140.159 99.44 142.639 98.48 144.599 96.52C146.559 94.56 147.559 92.12 147.559 89.2C147.559 86.28 146.559 83.84 144.559 81.88C142.599 79.92 140.119 78.92 137.199 78.92C134.279 78.92 131.799 79.92 129.799 81.88C127.839 83.84 126.839 86.28 126.839 89.2C126.839 92.12 127.839 94.56 129.799 96.52ZM133.919 85.64C134.759 84.72 135.879 84.24 137.199 84.24C138.519 84.24 139.639 84.72 140.479 85.64C141.319 86.56 141.759 87.76 141.759 89.2C141.759 90.64 141.319 91.84 140.479 92.76C139.639 93.68 138.519 94.16 137.199 94.16C135.879 94.16 134.759 93.68 133.919 92.76C133.079 91.84 132.639 90.64 132.639 89.2C132.639 87.76 133.079 86.56 133.919 85.64ZM152.295 96.16C152.055 100.16 158.215 100.16 157.975 96.16V89.2C157.975 85.88 159.175 84.2 161.575 84.2C163.775 84.2 164.815 85.8 164.815 88.04V96.16C164.815 98.04 166.015 99.2 167.655 99.2C169.295 99.2 170.495 98.04 170.495 96.16V87.6C170.495 82.12 167.375 78.92 162.535 78.92C160.495 78.92 158.935 79.6 157.775 80.96C157.335 79.8 156.455 79.2 155.135 79.2C153.535 79.2 152.295 80.36 152.295 82.24V96.16ZM173.806 71C172.006 71 170.886 72.16 170.886 73.76C170.886 75.32 172.006 76.48 173.806 76.48H179.286V96.04C179.286 98 180.526 99.2 182.246 99.2C183.966 99.2 185.246 98 185.246 96.04V76.48H190.766C192.566 76.48 193.686 75.32 193.686 73.76C193.686 72.16 192.566 71 190.766 71H173.806ZM197.485 73.84C197.485 75.64 198.965 77.12 200.765 77.12C202.565 77.12 204.085 75.64 204.085 73.84C204.085 71.96 202.645 70.52 200.765 70.52C198.965 70.52 197.485 71.96 197.485 73.84ZM203.605 96.16V82.24C203.605 80.36 202.405 79.2 200.765 79.2C199.125 79.2 197.925 80.36 197.925 82.24V96.16C197.925 98.04 199.125 99.2 200.765 99.2C202.405 99.2 203.605 98.04 203.605 96.16ZM222.998 88.76C222.998 91.48 221.078 93.4 218.638 93.4C216.238 93.4 214.318 91.48 214.318 88.76C214.318 86 216.238 84.08 218.638 84.08C221.078 84.08 222.998 86 222.998 88.76ZM210.878 105.04C212.838 106.48 215.198 107.2 217.998 107.2C221.318 107.2 223.878 106.24 225.758 104.36C227.638 102.48 228.598 100 228.598 96.96V82.2C228.598 80.28 227.398 79.16 225.758 79.16C224.398 79.16 223.518 79.76 223.118 81C221.878 79.6 220.198 78.92 218.118 78.92C215.438 78.92 213.198 79.8 211.318 81.56C209.438 83.32 208.518 85.72 208.518 88.76C208.518 91.76 209.398 94.16 211.198 95.92C212.998 97.68 215.318 98.56 218.118 98.56C220.158 98.56 221.758 98.08 222.878 97.08V97.6C222.878 100.2 220.958 101.96 217.958 101.96C216.838 101.96 215.718 101.6 214.558 100.92C212.838 99.84 211.478 99.88 210.478 100.96C209.398 102.08 209.398 103.92 210.878 105.04ZM236.244 96.52C238.204 98.48 240.684 99.44 243.644 99.44C246.604 99.44 249.084 98.48 251.044 96.52C253.004 94.56 254.004 92.12 254.004 89.2C254.004 86.28 253.004 83.84 251.004 81.88C249.044 79.92 246.564 78.92 243.644 78.92C240.724 78.92 238.244 79.92 236.244 81.88C234.284 83.84 233.284 86.28 233.284 89.2C233.284 92.12 234.284 94.56 236.244 96.52ZM240.364 85.64C241.204 84.72 242.324 84.24 243.644 84.24C244.964 84.24 246.084 84.72 246.924 85.64C247.764 86.56 248.204 87.76 248.204 89.2C248.204 90.64 247.764 91.84 246.924 92.76C246.084 93.68 244.964 94.16 243.644 94.16C242.324 94.16 241.204 93.68 240.364 92.76C239.524 91.84 239.084 90.64 239.084 89.2C239.084 87.76 239.524 86.56 240.364 85.64Z" fill="#930345"/>
</svg>
