<svg width="498" height="499" viewBox="0 0 498 499" fill="none" xmlns="http://www.w3.org/2000/svg">
<path d="M1.96116e-05 249.5C1.35884e-05 387.295 111.481 499 249 499C386.519 499 498 387.295 498 249.5C498 111.705 386.519 -4.87299e-06 249 -1.08841e-05C111.481 -1.68953e-05 2.56348e-05 111.705 1.96116e-05 249.5Z" fill="#F9D332"/>
<path d="M136.693 84.904C137.845 85.928 137.941 87.336 137.045 88.264C136.181 89.288 134.901 89.416 133.653 88.392C132.341 87.24 130.773 86.664 128.917 86.664C127.157 86.664 125.621 87.304 124.277 88.584C122.965 89.832 122.293 91.56 122.293 93.736C122.293 95.944 122.965 97.704 124.277 98.984C125.589 100.264 127.221 100.904 129.173 100.904C130.997 100.904 132.597 100.328 134.005 99.144C135.253 98.152 136.533 98.28 137.397 99.272C138.293 100.2 138.197 101.608 137.045 102.632C134.997 104.456 132.405 105.352 129.301 105.352C125.877 105.352 123.029 104.296 120.757 102.184C118.517 100.072 117.397 97.288 117.397 93.832C117.397 90.344 118.517 87.528 120.757 85.416C122.997 83.272 125.781 82.216 129.141 82.216C132.053 82.216 134.581 83.112 136.693 84.904ZM143.636 103.016C142.068 101.448 141.268 99.496 141.268 97.16C141.268 94.824 142.068 92.872 143.636 91.304C145.236 89.736 147.22 88.936 149.556 88.936C151.892 88.936 153.876 89.736 155.444 91.304C157.044 92.872 157.844 94.824 157.844 97.16C157.844 99.496 157.044 101.448 155.476 103.016C153.908 104.584 151.924 105.352 149.556 105.352C147.188 105.352 145.204 104.584 143.636 103.016ZM146.932 94.312C146.26 95.048 145.908 96.008 145.908 97.16C145.908 98.312 146.26 99.272 146.932 100.008C147.604 100.744 148.5 101.128 149.556 101.128C150.612 101.128 151.508 100.744 152.18 100.008C152.852 99.272 153.204 98.312 153.204 97.16C153.204 96.008 152.852 95.048 152.18 94.312C151.508 93.576 150.612 93.192 149.556 93.192C148.5 93.192 147.604 93.576 146.932 94.312ZM161.633 102.728V91.592C161.633 90.088 162.625 89.16 163.905 89.16C164.961 89.16 165.665 89.64 166.017 90.568C166.945 89.48 168.193 88.936 169.825 88.936C173.697 88.936 176.193 91.496 176.193 95.88V102.728C176.193 104.232 175.233 105.16 173.921 105.16C172.609 105.16 171.649 104.232 171.649 102.728V96.232C171.649 94.44 170.817 93.16 169.057 93.16C167.137 93.16 166.177 94.504 166.177 97.16V102.728C166.369 105.928 161.441 105.928 161.633 102.728ZM187.008 100.84C188.448 101 189.216 101.8 189.216 102.984C189.216 104.168 188.352 105.064 186.784 105.064H186.368C182.72 105.064 180.896 103.208 180.896 99.464V93.512H180.32C178.912 93.512 178.048 92.616 178.048 91.432C178.048 90.248 178.912 89.32 180.32 89.32H180.896V87.208C180.704 84.008 185.632 84.008 185.408 87.208V89.32H186.944C188.352 89.32 189.216 90.248 189.216 91.432C189.216 92.616 188.352 93.512 186.944 93.512H185.408V98.92C185.408 100.232 185.952 100.744 187.008 100.84ZM193.808 90.568C195.184 89.48 197.008 88.936 199.216 88.936C201.168 88.936 202.768 89.512 204.016 90.632C205.264 91.752 205.872 93.256 205.872 95.208V102.728C205.872 104.232 204.88 105.16 203.6 105.16C202.544 105.16 201.84 104.68 201.488 103.72C200.4 104.808 199.056 105.352 197.488 105.352C195.92 105.352 194.672 104.904 193.68 104.008C192.688 103.08 192.208 101.928 192.208 100.52C192.208 98.888 192.784 97.672 193.968 96.84C195.152 96.008 196.656 95.56 198.416 95.496L201.296 95.368C201.296 93.768 200.496 92.968 198.896 92.968C197.936 92.968 197.072 93.224 196.272 93.768C195.088 94.568 193.936 94.472 193.264 93.576C192.528 92.712 192.752 91.432 193.808 90.568ZM196.784 100.264C196.784 101.032 197.456 101.512 198.608 101.512C199.536 101.512 200.432 101.192 201.296 100.552V98.696L199.28 98.856C197.616 98.952 196.784 99.4 196.784 100.264ZM220.176 93.992C219.44 93.448 218.672 93.16 217.872 93.16C215.6 93.16 214.064 94.824 214.064 97.16C214.064 99.496 215.6 101.16 217.872 101.16C218.736 101.16 219.6 100.808 220.464 100.136C221.712 99.24 222.864 99.528 223.664 100.584C224.4 101.48 224.176 102.76 222.992 103.688C221.52 104.808 219.76 105.352 217.712 105.352C215.344 105.352 213.36 104.584 211.792 103.016C210.224 101.448 209.424 99.496 209.424 97.16C209.424 94.824 210.224 92.872 211.792 91.304C213.392 89.736 215.376 88.936 217.712 88.936C219.536 88.936 221.136 89.416 222.48 90.408C223.664 91.336 223.984 92.68 223.312 93.576C222.576 94.6 221.424 94.856 220.176 93.992ZM235.04 100.84C236.48 101 237.248 101.8 237.248 102.984C237.248 104.168 236.384 105.064 234.816 105.064H234.4C230.752 105.064 228.928 103.208 228.928 99.464V93.512H228.352C226.944 93.512 226.08 92.616 226.08 91.432C226.08 90.248 226.944 89.32 228.352 89.32H228.928V87.208C228.736 84.008 233.664 84.008 233.44 87.208V89.32H234.976C236.384 89.32 237.248 90.248 237.248 91.432C237.248 92.616 236.384 93.512 234.976 93.512H233.44V98.92C233.44 100.232 233.984 100.744 235.04 100.84ZM241.839 90.568C243.215 89.48 245.039 88.936 247.247 88.936C249.199 88.936 250.799 89.512 252.047 90.632C253.295 91.752 253.903 93.256 253.903 95.208V102.728C253.903 104.232 252.911 105.16 251.631 105.16C250.575 105.16 249.871 104.68 249.519 103.72C248.431 104.808 247.087 105.352 245.519 105.352C243.951 105.352 242.703 104.904 241.711 104.008C240.719 103.08 240.239 101.928 240.239 100.52C240.239 98.888 240.815 97.672 241.999 96.84C243.183 96.008 244.687 95.56 246.447 95.496L249.327 95.368C249.327 93.768 248.527 92.968 246.927 92.968C245.967 92.968 245.103 93.224 244.303 93.768C243.119 94.568 241.967 94.472 241.295 93.576C240.559 92.712 240.783 91.432 241.839 90.568ZM244.815 100.264C244.815 101.032 245.487 101.512 246.639 101.512C247.567 101.512 248.463 101.192 249.327 100.552V98.696L247.311 98.856C245.647 98.952 244.815 99.4 244.815 100.264ZM268.295 89.224C269.319 89.48 270.087 90.28 270.087 91.464C270.087 92.712 269.223 93.576 268.103 93.576C267.879 93.576 267.399 93.512 267.111 93.512C264.935 93.512 263.271 95.272 263.271 98.44V102.728C263.463 105.928 258.535 105.928 258.727 102.728V91.592C258.727 90.088 259.719 89.16 260.999 89.16C262.183 89.16 263.047 89.928 263.207 91.048C264.103 89.8 265.639 89.096 267.015 89.096C267.559 89.096 267.975 89.128 268.295 89.224ZM272.633 102.728V91.592C272.633 90.088 273.625 89.16 274.905 89.16C275.961 89.16 276.665 89.64 277.017 90.568C277.945 89.48 279.257 88.936 280.889 88.936C282.713 88.936 284.153 89.576 285.241 90.824C286.489 89.576 288.057 88.936 289.945 88.936C294.137 88.936 296.505 91.432 296.505 95.88V102.728C296.697 105.928 291.769 105.928 291.961 102.728V96.072C291.961 94.312 291.129 93.16 289.561 93.16C287.865 93.16 286.841 94.472 286.841 96.648V102.728C287.033 105.928 282.105 105.928 282.297 102.728V96.072C282.297 94.312 281.465 93.16 279.897 93.16C278.105 93.16 277.177 94.536 277.177 96.968V102.728C277.369 105.928 272.441 105.928 272.633 102.728ZM315.092 95.816C315.092 97.48 314.26 98.312 312.564 98.312H304.532C304.788 100.008 306.1 101.192 308.052 101.192C309.14 101.192 310.068 100.872 310.868 100.232C312.116 99.336 313.268 99.624 314.068 100.68C314.804 101.576 314.58 102.856 313.396 103.784C312.02 104.84 310.26 105.352 308.18 105.352C305.78 105.352 303.828 104.616 302.26 103.144C300.692 101.64 299.924 99.688 299.924 97.256C299.924 94.856 300.628 92.872 302.068 91.304C303.508 89.736 305.364 88.936 307.636 88.936C309.204 88.936 310.58 89.32 311.764 90.056C314.164 91.56 315.092 93.672 315.092 95.816ZM307.732 92.936C306.1 92.936 305.044 93.896 304.756 95.272H310.388C310.292 93.96 309.236 92.936 307.732 92.936ZM337.738 93.992C337.002 93.448 336.234 93.16 335.434 93.16C333.162 93.16 331.626 94.824 331.626 97.16C331.626 99.496 333.162 101.16 335.434 101.16C336.298 101.16 337.162 100.808 338.026 100.136C339.274 99.24 340.426 99.528 341.226 100.584C341.962 101.48 341.738 102.76 340.554 103.688C339.082 104.808 337.322 105.352 335.274 105.352C332.906 105.352 330.922 104.584 329.354 103.016C327.786 101.448 326.986 99.496 326.986 97.16C326.986 94.824 327.786 92.872 329.354 91.304C330.954 89.736 332.938 88.936 335.274 88.936C337.098 88.936 338.698 89.416 340.042 90.408C341.226 91.336 341.546 92.68 340.874 93.576C340.138 94.6 338.986 94.856 337.738 93.992ZM346.667 103.016C345.099 101.448 344.299 99.496 344.299 97.16C344.299 94.824 345.099 92.872 346.667 91.304C348.267 89.736 350.251 88.936 352.587 88.936C354.923 88.936 356.907 89.736 358.475 91.304C360.075 92.872 360.875 94.824 360.875 97.16C360.875 99.496 360.075 101.448 358.507 103.016C356.939 104.584 354.955 105.352 352.587 105.352C350.219 105.352 348.235 104.584 346.667 103.016ZM349.963 94.312C349.291 95.048 348.939 96.008 348.939 97.16C348.939 98.312 349.291 99.272 349.963 100.008C350.635 100.744 351.531 101.128 352.587 101.128C353.643 101.128 354.539 100.744 355.211 100.008C355.883 99.272 356.235 98.312 356.235 97.16C356.235 96.008 355.883 95.048 355.211 94.312C354.539 93.576 353.643 93.192 352.587 93.192C351.531 93.192 350.635 93.576 349.963 94.312ZM364.664 102.728V91.592C364.664 90.088 365.656 89.16 366.936 89.16C367.992 89.16 368.696 89.64 369.048 90.568C369.976 89.48 371.224 88.936 372.856 88.936C376.728 88.936 379.224 91.496 379.224 95.88V102.728C379.224 104.232 378.264 105.16 376.952 105.16C375.64 105.16 374.68 104.232 374.68 102.728V96.232C374.68 94.44 373.848 93.16 372.088 93.16C370.168 93.16 369.208 94.504 369.208 97.16V102.728C369.4 105.928 364.472 105.928 364.664 102.728ZM186.896 121.904C188.048 122.928 188.144 124.336 187.248 125.264C186.384 126.288 185.104 126.416 183.856 125.392C182.544 124.24 180.976 123.664 179.12 123.664C177.36 123.664 175.824 124.304 174.48 125.584C173.168 126.832 172.496 128.56 172.496 130.736C172.496 132.944 173.168 134.704 174.48 135.984C175.792 137.264 177.424 137.904 179.376 137.904C181.2 137.904 182.8 137.328 184.208 136.144C185.456 135.152 186.736 135.28 187.6 136.272C188.496 137.2 188.4 138.608 187.248 139.632C185.2 141.456 182.608 142.352 179.504 142.352C176.08 142.352 173.232 141.296 170.96 139.184C168.72 137.072 167.6 134.288 167.6 130.832C167.6 127.344 168.72 124.528 170.96 122.416C173.2 120.272 175.984 119.216 179.344 119.216C182.256 119.216 184.784 120.112 186.896 121.904ZM193.839 140.016C192.271 138.448 191.471 136.496 191.471 134.16C191.471 131.824 192.271 129.872 193.839 128.304C195.439 126.736 197.423 125.936 199.759 125.936C202.095 125.936 204.079 126.736 205.647 128.304C207.247 129.872 208.047 131.824 208.047 134.16C208.047 136.496 207.247 138.448 205.679 140.016C204.111 141.584 202.127 142.352 199.759 142.352C197.391 142.352 195.407 141.584 193.839 140.016ZM197.135 131.312C196.463 132.048 196.111 133.008 196.111 134.16C196.111 135.312 196.463 136.272 197.135 137.008C197.807 137.744 198.703 138.128 199.759 138.128C200.815 138.128 201.711 137.744 202.383 137.008C203.055 136.272 203.407 135.312 203.407 134.16C203.407 133.008 203.055 132.048 202.383 131.312C201.711 130.576 200.815 130.192 199.759 130.192C198.703 130.192 197.807 130.576 197.135 131.312ZM211.836 139.728V128.592C211.836 127.088 212.828 126.16 214.108 126.16C215.164 126.16 215.868 126.64 216.22 127.568C217.148 126.48 218.396 125.936 220.028 125.936C223.9 125.936 226.396 128.496 226.396 132.88V139.728C226.396 141.232 225.436 142.16 224.124 142.16C222.812 142.16 221.852 141.232 221.852 139.728V133.232C221.852 131.44 221.02 130.16 219.26 130.16C217.34 130.16 216.38 131.504 216.38 134.16V139.728C216.572 142.928 211.644 142.928 211.836 139.728ZM230.199 140.528C229.047 139.6 229.015 138.192 229.879 137.264C230.679 136.272 231.895 136.176 233.143 137.104C233.879 137.712 234.647 138 235.447 138C237.335 138 238.359 136.752 238.359 134.48V121.936C238.359 120.368 239.351 119.408 240.727 119.408C242.103 119.408 243.095 120.368 243.095 121.936V134.288C243.095 139.504 240.279 142.352 235.415 142.352C233.399 142.352 231.671 141.744 230.199 140.528ZM261.379 128.592V139.728C261.379 141.232 260.387 142.16 259.107 142.16C258.083 142.16 257.379 141.68 257.027 140.752C256.131 141.808 254.851 142.352 253.155 142.352C249.315 142.352 247.171 139.888 247.171 135.44V128.592C246.979 125.392 251.907 125.392 251.715 128.592V135.088C251.715 137.136 252.515 138.16 254.115 138.16C256.131 138.16 256.835 136.752 256.835 134.16V128.592C256.643 125.392 261.571 125.392 261.379 128.592ZM266.43 139.728V128.592C266.43 127.088 267.422 126.16 268.702 126.16C269.758 126.16 270.462 126.64 270.814 127.568C271.742 126.48 272.99 125.936 274.622 125.936C278.494 125.936 280.99 128.496 280.99 132.88V139.728C280.99 141.232 280.03 142.16 278.718 142.16C277.406 142.16 276.446 141.232 276.446 139.728V133.232C276.446 131.44 275.614 130.16 273.854 130.16C271.934 130.16 270.974 131.504 270.974 134.16V139.728C271.166 142.928 266.238 142.928 266.43 139.728ZM291.805 137.84C293.245 138 294.013 138.8 294.013 139.984C294.013 141.168 293.149 142.064 291.581 142.064H291.165C287.517 142.064 285.693 140.208 285.693 136.464V130.512H285.117C283.709 130.512 282.845 129.616 282.845 128.432C282.845 127.248 283.709 126.32 285.117 126.32H285.693V124.208C285.501 121.008 290.429 121.008 290.205 124.208V126.32H291.741C293.149 126.32 294.013 127.248 294.013 128.432C294.013 129.616 293.149 130.512 291.741 130.512H290.205V135.92C290.205 137.232 290.749 137.744 291.805 137.84ZM299.089 140.016C297.521 138.448 296.721 136.496 296.721 134.16C296.721 131.824 297.521 129.872 299.089 128.304C300.689 126.736 302.673 125.936 305.009 125.936C307.345 125.936 309.329 126.736 310.897 128.304C312.497 129.872 313.297 131.824 313.297 134.16C313.297 136.496 312.497 138.448 310.929 140.016C309.361 141.584 307.377 142.352 305.009 142.352C302.641 142.352 300.657 141.584 299.089 140.016ZM302.385 131.312C301.713 132.048 301.361 133.008 301.361 134.16C301.361 135.312 301.713 136.272 302.385 137.008C303.057 137.744 303.953 138.128 305.009 138.128C306.065 138.128 306.961 137.744 307.633 137.008C308.305 136.272 308.657 135.312 308.657 134.16C308.657 133.008 308.305 132.048 307.633 131.312C306.961 130.576 306.065 130.192 305.009 130.192C303.953 130.192 303.057 130.576 302.385 131.312ZM317.47 140.624C316.414 139.696 316.286 138.48 317.086 137.584C317.95 136.624 318.942 136.592 320.094 137.52C320.958 138.192 322.11 138.544 323.518 138.544C324.51 138.544 325.278 138.192 325.278 137.584C325.278 137.072 324.926 136.816 323.87 136.528L322.11 136.016C318.622 135.024 316.99 133.424 316.99 130.896C316.99 129.392 317.566 128.208 318.75 127.312C319.934 126.384 321.374 125.936 323.07 125.936C324.894 125.936 326.43 126.32 327.71 127.12C328.862 127.888 329.15 129.04 328.542 130.032C327.87 131.056 326.782 131.344 325.534 130.608C324.702 130.064 323.806 129.808 322.878 129.808C321.982 129.808 321.406 130.16 321.406 130.672C321.406 131.152 321.758 131.344 322.526 131.568L324.542 132.112C327.742 133.008 329.694 134.384 329.694 137.296C329.694 140.272 327.134 142.352 323.134 142.352C320.734 142.352 318.846 141.776 317.47 140.624Z" fill="#930345"/>
<path d="M67 344.384H60.184L63.568 335.528L67 344.384ZM56.464 348.776C56.224 349.424 56.392 349.832 56.968 350.048C57.52 350.264 57.928 350.048 58.192 349.4L59.464 346.136H67.672L68.968 349.4C69.232 350.048 69.64 350.264 70.192 350.048C70.768 349.832 70.936 349.424 70.696 348.776L64.984 334.112C64.72 333.416 64.264 333.08 63.592 333.08C62.944 333.08 62.464 333.416 62.2 334.088L56.464 348.776ZM75.4182 340.904C76.1142 340.064 77.0262 339.632 78.2022 339.632C79.3782 339.632 80.2902 340.064 80.9862 340.904C81.6822 341.744 82.0422 342.824 82.0422 344.12C82.0422 345.416 81.6822 346.496 80.9862 347.336C80.2902 348.176 79.3782 348.608 78.2022 348.608C77.0262 348.608 76.1142 348.176 75.4182 347.336C74.7222 346.496 74.3862 345.416 74.3862 344.12C74.3862 342.824 74.7222 341.744 75.4182 340.904ZM83.7702 334.088C83.7702 333.416 83.4822 333.08 82.8822 333.08C82.2822 333.08 81.9942 333.416 81.9942 334.088V339.8C80.9382 338.576 79.6182 337.952 78.0342 337.952C76.4262 337.952 75.1302 338.552 74.0982 339.752C73.0662 340.928 72.5622 342.392 72.5622 344.12C72.5622 345.848 73.0662 347.312 74.0982 348.488C75.1302 349.664 76.4262 350.264 78.0342 350.264C79.6422 350.264 80.9622 349.64 82.0422 348.392V349.136C82.0422 350.432 83.7702 350.432 83.7702 349.136V334.088ZM92.8964 339.632C94.8404 339.632 96.0884 341 96.1124 343.088H89.2004C89.4884 341.072 90.8804 339.632 92.8964 339.632ZM97.9124 343.568C97.9124 340.928 96.4964 337.952 92.8484 337.952C91.2404 337.952 89.9204 338.552 88.8644 339.776C87.8324 341 87.3044 342.464 87.3044 344.192C87.3044 345.992 87.8324 347.456 88.8644 348.584C89.9204 349.712 91.3364 350.264 93.0884 350.264C94.6484 350.264 95.9924 349.712 97.1204 348.632C97.5524 348.2 97.6004 347.768 97.2404 347.36C96.8324 346.952 96.4004 346.952 95.9444 347.408C95.1524 348.2 94.1924 348.608 93.0884 348.608C90.7844 348.608 89.2964 347.144 89.1284 344.672H96.6884C97.5044 344.672 97.9124 344.312 97.9124 343.568ZM116.498 349.112C116.498 349.784 116.786 350.12 117.386 350.12C117.986 350.12 118.274 349.784 118.274 349.112V343.16C118.274 339.8 116.738 337.952 113.858 337.952C112.322 337.952 110.906 338.648 110.066 339.896C109.322 338.6 108.122 337.952 106.442 337.952C105.05 337.952 103.97 338.48 103.178 339.536V339.104C103.178 338.456 102.89 338.12 102.314 338.12C101.834 338.12 101.45 338.456 101.45 339.104V349.112C101.45 349.784 101.738 350.12 102.338 350.12C102.938 350.12 103.226 349.784 103.226 349.112V343.52C103.226 341.24 104.474 339.608 106.322 339.608C108.074 339.608 108.962 340.784 108.962 343.136V349.112C108.962 349.784 109.25 350.12 109.85 350.12C110.45 350.12 110.738 349.784 110.738 349.112V343.52C110.738 341.024 111.818 339.608 113.762 339.608C115.586 339.608 116.498 340.736 116.498 343.016V349.112ZM123.656 340.856C124.568 340.016 125.504 339.608 126.488 339.608C128.192 339.608 129.224 340.568 129.224 342.368V342.728L126.008 343.112C123.416 343.4 121.664 344.72 121.664 346.808C121.664 348.944 123.296 350.264 125.504 350.264C127.064 350.264 128.48 349.568 129.272 348.68V349.136C129.272 350.432 131 350.432 131 349.136V342.56C131 339.584 129.32 337.952 126.512 337.952C125 337.952 123.416 338.72 122.456 339.752C122.048 340.232 122.072 340.688 122.432 341C122.792 341.312 123.2 341.264 123.656 340.856ZM123.44 346.856C123.44 345.68 124.328 344.984 126.104 344.768L129.224 344.384V346.808C128.528 347.864 127.064 348.68 125.6 348.68C124.28 348.68 123.44 347.936 123.44 346.856ZM124.832 335C124.376 335.336 124.256 335.696 124.472 336.08C124.736 336.512 125.12 336.584 125.6 336.272L128.192 334.736C128.744 334.376 128.864 333.968 128.6 333.488C128.264 332.984 127.832 332.912 127.304 333.272L124.832 335ZM141.542 340.52C142.094 340.976 142.526 341 142.886 340.616C143.294 340.184 143.246 339.752 142.766 339.296C141.806 338.408 140.606 337.952 139.19 337.952C138.086 337.952 137.126 338.264 136.334 338.864C135.542 339.464 135.134 340.28 135.134 341.336C135.134 343.064 136.238 344.192 138.47 344.72L140.222 345.128C141.446 345.416 142.07 345.992 142.07 346.832C142.07 347.96 141.086 348.632 139.43 348.632C138.254 348.632 137.246 348.224 136.382 347.384C135.974 346.976 135.542 346.952 135.134 347.36C134.75 347.744 134.774 348.152 135.182 348.608C136.262 349.712 137.678 350.264 139.454 350.264C142.118 350.264 143.846 348.824 143.846 346.736C143.846 345.056 142.742 343.952 140.51 343.424L138.662 342.992C137.486 342.728 136.91 342.152 136.91 341.264C136.91 340.28 137.798 339.608 139.07 339.608C140.006 339.608 140.822 339.92 141.542 340.52ZM146.043 351.848C145.779 352.472 145.947 352.904 146.523 353.144C147.051 353.36 147.459 353.168 147.747 352.52L149.571 348.512C149.883 347.816 149.715 347.36 149.019 347.096C148.419 346.88 147.963 347.144 147.675 347.84L146.043 351.848ZM168.818 347.312C168.122 348.152 167.21 348.584 166.034 348.584C164.858 348.584 163.922 348.152 163.226 347.312C162.53 346.472 162.194 345.392 162.194 344.096C162.194 342.8 162.53 341.72 163.226 340.88C163.922 340.04 164.858 339.608 166.034 339.608C167.21 339.608 168.122 340.04 168.818 340.88C169.514 341.72 169.85 342.8 169.85 344.096C169.85 345.392 169.514 346.472 168.818 347.312ZM160.466 353.768C160.466 354.44 160.754 354.776 161.354 354.776C161.954 354.776 162.242 354.44 162.242 353.768V348.416C163.298 349.64 164.618 350.264 166.202 350.264C167.81 350.264 169.106 349.664 170.138 348.488C171.17 347.288 171.674 345.824 171.674 344.096C171.674 342.368 171.17 340.904 170.138 339.728C169.106 338.552 167.81 337.952 166.202 337.952C164.594 337.952 163.274 338.576 162.194 339.824V339.08C162.194 337.76 160.466 337.76 160.466 339.08V353.768ZM184.688 339.128C184.688 338.456 184.4 338.12 183.8 338.12C183.2 338.12 182.912 338.456 182.912 339.128V344.048C182.912 347.072 181.808 348.584 179.576 348.584C177.68 348.584 176.624 347.408 176.624 345.2V339.128C176.624 338.456 176.336 338.12 175.736 338.12C175.136 338.12 174.848 338.456 174.848 339.128V345.056C174.848 348.416 176.36 350.264 179.336 350.264C180.848 350.264 182.072 349.688 182.984 348.536V349.136C182.984 349.784 183.272 350.12 183.824 350.12C184.328 350.12 184.688 349.784 184.688 349.136V339.128ZM193.818 339.632C195.762 339.632 197.01 341 197.034 343.088H190.122C190.41 341.072 191.802 339.632 193.818 339.632ZM198.834 343.568C198.834 340.928 197.418 337.952 193.77 337.952C192.162 337.952 190.842 338.552 189.786 339.776C188.754 341 188.226 342.464 188.226 344.192C188.226 345.992 188.754 347.456 189.786 348.584C190.842 349.712 192.258 350.264 194.01 350.264C195.57 350.264 196.914 349.712 198.042 348.632C198.474 348.2 198.522 347.768 198.162 347.36C197.754 346.952 197.322 346.952 196.866 347.408C196.074 348.2 195.114 348.608 194.01 348.608C191.706 348.608 190.218 347.144 190.05 344.672H197.61C198.426 344.672 198.834 344.312 198.834 343.568ZM204.817 340.904C205.513 340.064 206.425 339.632 207.601 339.632C208.777 339.632 209.689 340.064 210.385 340.904C211.081 341.744 211.441 342.824 211.441 344.12C211.441 345.416 211.081 346.496 210.385 347.336C209.689 348.176 208.777 348.608 207.601 348.608C206.425 348.608 205.513 348.176 204.817 347.336C204.121 346.496 203.785 345.416 203.785 344.12C203.785 342.824 204.121 341.744 204.817 340.904ZM213.169 334.088C213.169 333.416 212.881 333.08 212.281 333.08C211.681 333.08 211.393 333.416 211.393 334.088V339.8C210.337 338.576 209.017 337.952 207.433 337.952C205.825 337.952 204.529 338.552 203.497 339.752C202.465 340.928 201.961 342.392 201.961 344.12C201.961 345.848 202.465 347.312 203.497 348.488C204.529 349.664 205.825 350.264 207.433 350.264C209.041 350.264 210.361 349.64 211.441 348.392V349.136C211.441 350.432 213.169 350.432 213.169 349.136V334.088ZM222.295 339.632C224.239 339.632 225.487 341 225.511 343.088H218.599C218.887 341.072 220.279 339.632 222.295 339.632ZM227.311 343.568C227.311 340.928 225.895 337.952 222.247 337.952C220.639 337.952 219.319 338.552 218.263 339.776C217.231 341 216.703 342.464 216.703 344.192C216.703 345.992 217.231 347.456 218.263 348.584C219.319 349.712 220.735 350.264 222.487 350.264C224.047 350.264 225.391 349.712 226.519 348.632C226.951 348.2 226.999 347.768 226.639 347.36C226.231 346.952 225.799 346.952 225.343 347.408C224.551 348.2 223.591 348.608 222.487 348.608C220.183 348.608 218.695 347.144 218.527 344.672H226.087C226.903 344.672 227.311 344.312 227.311 343.568ZM237.449 340.52C238.001 340.976 238.433 341 238.793 340.616C239.201 340.184 239.153 339.752 238.673 339.296C237.713 338.408 236.513 337.952 235.097 337.952C233.993 337.952 233.033 338.264 232.241 338.864C231.449 339.464 231.041 340.28 231.041 341.336C231.041 343.064 232.145 344.192 234.377 344.72L236.129 345.128C237.353 345.416 237.977 345.992 237.977 346.832C237.977 347.96 236.993 348.632 235.337 348.632C234.161 348.632 233.153 348.224 232.289 347.384C231.881 346.976 231.449 346.952 231.041 347.36C230.657 347.744 230.681 348.152 231.089 348.608C232.169 349.712 233.585 350.264 235.361 350.264C238.025 350.264 239.753 348.824 239.753 346.736C239.753 345.056 238.649 343.952 236.417 343.424L234.569 342.992C233.393 342.728 232.817 342.152 232.817 341.264C232.817 340.28 233.705 339.608 234.977 339.608C235.913 339.608 236.729 339.92 237.449 340.52ZM258.203 340.664C258.707 341.072 259.139 341.072 259.499 340.712C259.859 340.304 259.811 339.872 259.379 339.44C258.395 338.456 257.099 337.952 255.515 337.952C253.859 337.952 252.443 338.552 251.267 339.776C250.115 340.976 249.539 342.416 249.539 344.12C249.539 345.824 250.091 347.288 251.219 348.488C252.347 349.664 253.763 350.264 255.443 350.264C257.099 350.264 258.491 349.712 259.619 348.632C260.051 348.2 260.099 347.768 259.739 347.36C259.331 346.952 258.899 346.952 258.443 347.408C257.651 348.2 256.691 348.608 255.587 348.608C252.971 348.608 251.363 346.736 251.363 344.12C251.363 342.848 251.747 341.768 252.539 340.928C253.331 340.064 254.315 339.632 255.515 339.632C256.499 339.632 257.387 339.968 258.203 340.664ZM268.357 350.264C270.061 350.264 271.477 349.664 272.605 348.488C273.733 347.288 274.309 345.824 274.309 344.12C274.309 342.416 273.733 340.952 272.581 339.752C271.453 338.552 270.037 337.952 268.357 337.952C266.677 337.952 265.261 338.552 264.133 339.752C263.005 340.952 262.453 342.416 262.453 344.12C262.453 345.824 263.005 347.288 264.133 348.488C265.261 349.664 266.677 350.264 268.357 350.264ZM268.357 348.608C267.181 348.608 266.197 348.176 265.429 347.336C264.661 346.472 264.277 345.392 264.277 344.12C264.277 342.848 264.661 341.768 265.429 340.928C266.197 340.064 267.181 339.632 268.357 339.632C269.557 339.632 270.541 340.064 271.309 340.928C272.077 341.768 272.461 342.848 272.461 344.12C272.461 345.392 272.077 346.472 271.309 347.336C270.541 348.176 269.557 348.608 268.357 348.608ZM277.841 349.112C277.841 349.784 278.129 350.12 278.729 350.12C279.329 350.12 279.617 349.784 279.617 349.112V344.168C279.617 341.36 280.865 339.608 283.169 339.608C285.065 339.608 286.169 340.832 286.169 343.016V349.112C286.169 349.784 286.457 350.12 287.057 350.12C287.561 350.12 287.969 349.784 287.969 349.112V343.16C287.969 339.824 286.289 337.952 283.289 337.952C281.825 337.952 280.361 338.648 279.569 339.68V339.104C279.569 338.456 279.281 338.12 278.705 338.12C278.225 338.12 277.841 338.456 277.841 339.104V349.112ZM295.944 348.392C294.288 348.392 293.88 347.936 293.88 346.208V339.872H295.92C296.544 339.872 296.856 339.608 296.856 339.056C296.856 338.504 296.544 338.24 295.92 338.24H293.88V335.84C293.88 335.168 293.592 334.832 292.992 334.832C292.392 334.832 292.104 335.168 292.104 335.84V338.24H290.88C290.256 338.24 289.944 338.504 289.944 339.056C289.944 339.608 290.256 339.872 290.88 339.872H292.104V346.328C292.104 349.184 293.208 350.024 295.8 350.024C296.496 350.024 296.856 349.76 296.856 349.208C296.856 348.656 296.544 348.392 295.944 348.392ZM301.519 340.856C302.431 340.016 303.367 339.608 304.351 339.608C306.055 339.608 307.087 340.568 307.087 342.368V342.728L303.871 343.112C301.279 343.4 299.527 344.72 299.527 346.808C299.527 348.944 301.159 350.264 303.367 350.264C304.927 350.264 306.343 349.568 307.135 348.68V349.136C307.135 350.432 308.863 350.432 308.863 349.136V342.56C308.863 339.584 307.183 337.952 304.375 337.952C302.863 337.952 301.279 338.72 300.319 339.752C299.911 340.232 299.935 340.688 300.295 341C300.655 341.312 301.063 341.264 301.519 340.856ZM301.303 346.856C301.303 345.68 302.191 344.984 303.967 344.768L307.087 344.384V346.808C306.391 347.864 304.927 348.68 303.463 348.68C302.143 348.68 301.303 347.936 301.303 346.856ZM320.922 340.664C321.426 341.072 321.858 341.072 322.218 340.712C322.578 340.304 322.53 339.872 322.098 339.44C321.114 338.456 319.818 337.952 318.234 337.952C316.578 337.952 315.162 338.552 313.986 339.776C312.834 340.976 312.258 342.416 312.258 344.12C312.258 345.824 312.81 347.288 313.938 348.488C315.066 349.664 316.482 350.264 318.162 350.264C319.818 350.264 321.21 349.712 322.338 348.632C322.77 348.2 322.818 347.768 322.458 347.36C322.05 346.952 321.618 346.952 321.162 347.408C320.37 348.2 319.41 348.608 318.306 348.608C315.69 348.608 314.082 346.736 314.082 344.12C314.082 342.848 314.466 341.768 315.258 340.928C316.05 340.064 317.034 339.632 318.234 339.632C319.218 339.632 320.106 339.968 320.922 340.664ZM330.655 348.392C328.999 348.392 328.591 347.936 328.591 346.208V339.872H330.631C331.255 339.872 331.567 339.608 331.567 339.056C331.567 338.504 331.255 338.24 330.631 338.24H328.591V335.84C328.591 335.168 328.303 334.832 327.703 334.832C327.103 334.832 326.815 335.168 326.815 335.84V338.24H325.591C324.967 338.24 324.655 338.504 324.655 339.056C324.655 339.608 324.967 339.872 325.591 339.872H326.815V346.328C326.815 349.184 327.919 350.024 330.511 350.024C331.207 350.024 331.567 349.76 331.567 349.208C331.567 348.656 331.255 348.392 330.655 348.392ZM336.23 340.856C337.142 340.016 338.078 339.608 339.062 339.608C340.766 339.608 341.798 340.568 341.798 342.368V342.728L338.582 343.112C335.99 343.4 334.238 344.72 334.238 346.808C334.238 348.944 335.87 350.264 338.078 350.264C339.638 350.264 341.054 349.568 341.846 348.68V349.136C341.846 350.432 343.574 350.432 343.574 349.136V342.56C343.574 339.584 341.894 337.952 339.086 337.952C337.574 337.952 335.99 338.72 335.03 339.752C334.622 340.232 334.646 340.688 335.006 341C335.366 341.312 335.774 341.264 336.23 340.856ZM336.014 346.856C336.014 345.68 336.902 344.984 338.678 344.768L341.798 344.384V346.808C341.102 347.864 339.638 348.68 338.174 348.68C336.854 348.68 336.014 347.936 336.014 346.856ZM353.346 339.776C353.514 339.776 353.73 339.8 354.018 339.848C354.666 339.944 355.026 339.56 355.026 339.056C355.026 338.576 354.762 338.288 354.21 338.168L353.346 338.072C351.69 338.072 350.418 338.624 349.506 339.728V339.104C349.506 338.456 349.218 338.12 348.642 338.12C348.162 338.12 347.778 338.456 347.778 339.104V349.112C347.778 349.784 348.066 350.12 348.666 350.12C349.266 350.12 349.554 349.784 349.554 349.112V344.984C349.554 341.216 350.682 339.776 353.346 339.776ZM357.669 349.112C357.669 349.784 357.957 350.12 358.557 350.12C359.157 350.12 359.445 349.784 359.445 349.112V344.168C359.445 341.36 360.693 339.608 362.997 339.608C364.893 339.608 365.997 340.832 365.997 343.016V349.112C365.997 349.784 366.285 350.12 366.885 350.12C367.389 350.12 367.797 349.784 367.797 349.112V343.16C367.797 339.824 366.117 337.952 363.117 337.952C361.653 337.952 360.189 338.648 359.397 339.68V339.104C359.397 338.456 359.109 338.12 358.533 338.12C358.053 338.12 357.669 338.456 357.669 339.104V349.112ZM376.872 350.264C378.576 350.264 379.992 349.664 381.12 348.488C382.248 347.288 382.824 345.824 382.824 344.12C382.824 342.416 382.248 340.952 381.096 339.752C379.968 338.552 378.552 337.952 376.872 337.952C375.192 337.952 373.776 338.552 372.648 339.752C371.52 340.952 370.968 342.416 370.968 344.12C370.968 345.824 371.52 347.288 372.648 348.488C373.776 349.664 375.192 350.264 376.872 350.264ZM376.872 348.608C375.696 348.608 374.712 348.176 373.944 347.336C373.176 346.472 372.792 345.392 372.792 344.12C372.792 342.848 373.176 341.768 373.944 340.928C374.712 340.064 375.696 339.632 376.872 339.632C378.072 339.632 379.056 340.064 379.824 340.928C380.592 341.768 380.976 342.848 380.976 344.12C380.976 345.392 380.592 346.472 379.824 347.336C379.056 348.176 378.072 348.608 376.872 348.608ZM392.956 340.52C393.508 340.976 393.94 341 394.3 340.616C394.708 340.184 394.66 339.752 394.18 339.296C393.22 338.408 392.02 337.952 390.604 337.952C389.5 337.952 388.54 338.264 387.748 338.864C386.956 339.464 386.548 340.28 386.548 341.336C386.548 343.064 387.652 344.192 389.884 344.72L391.636 345.128C392.86 345.416 393.484 345.992 393.484 346.832C393.484 347.96 392.5 348.632 390.844 348.632C389.668 348.632 388.66 348.224 387.796 347.384C387.388 346.976 386.956 346.952 386.548 347.36C386.164 347.744 386.188 348.152 386.596 348.608C387.676 349.712 389.092 350.264 390.868 350.264C393.532 350.264 395.26 348.824 395.26 346.736C395.26 345.056 394.156 343.952 391.924 343.424L390.076 342.992C388.9 342.728 388.324 342.152 388.324 341.264C388.324 340.28 389.212 339.608 390.484 339.608C391.42 339.608 392.236 339.92 392.956 340.52ZM413.951 347.312C413.255 348.152 412.343 348.584 411.167 348.584C409.991 348.584 409.055 348.152 408.359 347.312C407.663 346.472 407.327 345.392 407.327 344.096C407.327 342.8 407.663 341.72 408.359 340.88C409.055 340.04 409.991 339.608 411.167 339.608C412.343 339.608 413.255 340.04 413.951 340.88C414.647 341.72 414.983 342.8 414.983 344.096C414.983 345.392 414.647 346.472 413.951 347.312ZM405.599 353.768C405.599 354.44 405.887 354.776 406.487 354.776C407.087 354.776 407.375 354.44 407.375 353.768V348.416C408.431 349.64 409.751 350.264 411.335 350.264C412.943 350.264 414.239 349.664 415.271 348.488C416.303 347.288 416.807 345.824 416.807 344.096C416.807 342.368 416.303 340.904 415.271 339.728C414.239 338.552 412.943 337.952 411.335 337.952C409.727 337.952 408.407 338.576 407.327 339.824V339.08C407.327 337.76 405.599 337.76 405.599 339.08V353.768ZM425.833 350.264C427.537 350.264 428.953 349.664 430.081 348.488C431.209 347.288 431.785 345.824 431.785 344.12C431.785 342.416 431.209 340.952 430.057 339.752C428.929 338.552 427.513 337.952 425.833 337.952C424.153 337.952 422.737 338.552 421.609 339.752C420.481 340.952 419.929 342.416 419.929 344.12C419.929 345.824 420.481 347.288 421.609 348.488C422.737 349.664 424.153 350.264 425.833 350.264ZM425.833 348.608C424.657 348.608 423.673 348.176 422.905 347.336C422.137 346.472 421.753 345.392 421.753 344.12C421.753 342.848 422.137 341.768 422.905 340.928C423.673 340.064 424.657 339.632 425.833 339.632C427.033 339.632 428.017 340.064 428.785 340.928C429.553 341.768 429.937 342.848 429.937 344.12C429.937 345.392 429.553 346.472 428.785 347.336C428.017 348.176 427.033 348.608 425.833 348.608ZM440.885 339.776C441.053 339.776 441.269 339.8 441.557 339.848C442.205 339.944 442.565 339.56 442.565 339.056C442.565 338.576 442.301 338.288 441.749 338.168L440.885 338.072C439.229 338.072 437.957 338.624 437.045 339.728V339.104C437.045 338.456 436.757 338.12 436.181 338.12C435.701 338.12 435.317 338.456 435.317 339.104V349.112C435.317 349.784 435.605 350.12 436.205 350.12C436.805 350.12 437.093 349.784 437.093 349.112V344.984C437.093 341.216 438.221 339.776 440.885 339.776ZM92.7458 367.664C93.2498 368.072 93.6818 368.072 94.0418 367.712C94.4018 367.304 94.3538 366.872 93.9218 366.44C92.9378 365.456 91.6418 364.952 90.0578 364.952C88.4018 364.952 86.9858 365.552 85.8098 366.776C84.6578 367.976 84.0818 369.416 84.0818 371.12C84.0818 372.824 84.6338 374.288 85.7617 375.488C86.8898 376.664 88.3058 377.264 89.9858 377.264C91.6418 377.264 93.0338 376.712 94.1618 375.632C94.5938 375.2 94.6418 374.768 94.2818 374.36C93.8738 373.952 93.4418 373.952 92.9858 374.408C92.1938 375.2 91.2338 375.608 90.1298 375.608C87.5138 375.608 85.9058 373.736 85.9058 371.12C85.9058 369.848 86.2898 368.768 87.0818 367.928C87.8738 367.064 88.8578 366.632 90.0578 366.632C91.0418 366.632 91.9298 366.968 92.7458 367.664ZM107.426 366.128C107.426 365.456 107.138 365.12 106.538 365.12C105.938 365.12 105.65 365.456 105.65 366.128V371.048C105.65 374.072 104.546 375.584 102.314 375.584C100.418 375.584 99.3623 374.408 99.3623 372.2V366.128C99.3623 365.456 99.0742 365.12 98.4743 365.12C97.8743 365.12 97.5863 365.456 97.5863 366.128V372.056C97.5863 375.416 99.0983 377.264 102.074 377.264C103.586 377.264 104.81 376.688 105.722 375.536V376.136C105.722 376.784 106.01 377.12 106.562 377.12C107.066 377.12 107.426 376.784 107.426 376.136V366.128ZM112.789 367.856C113.701 367.016 114.637 366.608 115.621 366.608C117.325 366.608 118.357 367.568 118.357 369.368V369.728L115.141 370.112C112.549 370.4 110.797 371.72 110.797 373.808C110.797 375.944 112.429 377.264 114.637 377.264C116.197 377.264 117.613 376.568 118.405 375.68V376.136C118.405 377.432 120.133 377.432 120.133 376.136V369.56C120.133 366.584 118.453 364.952 115.645 364.952C114.133 364.952 112.549 365.72 111.589 366.752C111.181 367.232 111.205 367.688 111.565 368C111.925 368.312 112.333 368.264 112.789 367.856ZM112.573 373.856C112.573 372.68 113.461 371.984 115.237 371.768L118.357 371.384V373.808C117.661 374.864 116.197 375.68 114.733 375.68C113.413 375.68 112.573 374.936 112.573 373.856ZM126.113 361.064C126.113 360.416 125.825 360.08 125.225 360.08C124.721 360.08 124.337 360.416 124.337 361.064V376.112C124.337 376.784 124.625 377.12 125.225 377.12C125.825 377.12 126.113 376.784 126.113 376.112V361.064ZM132.5 367.88C133.196 367.04 134.108 366.608 135.284 366.608C136.46 366.608 137.372 367.04 138.068 367.88C138.764 368.72 139.124 369.8 139.124 371.096C139.124 372.392 138.764 373.472 138.068 374.312C137.372 375.152 136.46 375.584 135.284 375.584C134.108 375.584 133.196 375.152 132.5 374.312C131.804 373.472 131.468 372.392 131.468 371.096C131.468 369.8 131.804 368.72 132.5 367.88ZM140.852 366.08C140.852 364.76 139.124 364.76 139.124 366.08V366.824C138.044 365.576 136.724 364.952 135.116 364.952C133.508 364.952 132.212 365.552 131.18 366.728C130.148 367.904 129.644 369.368 129.644 371.096C129.644 372.824 130.148 374.288 131.18 375.488C132.212 376.664 133.508 377.264 135.116 377.264C136.7 377.264 138.02 376.64 139.076 375.416V380.768C139.076 381.44 139.364 381.776 139.964 381.776C140.564 381.776 140.852 381.44 140.852 380.768V366.08ZM154.418 366.128C154.418 365.456 154.13 365.12 153.53 365.12C152.93 365.12 152.642 365.456 152.642 366.128V371.048C152.642 374.072 151.538 375.584 149.306 375.584C147.41 375.584 146.354 374.408 146.354 372.2V366.128C146.354 365.456 146.066 365.12 145.466 365.12C144.866 365.12 144.578 365.456 144.578 366.128V372.056C144.578 375.416 146.09 377.264 149.066 377.264C150.578 377.264 151.802 376.688 152.714 375.536V376.136C152.714 376.784 153.002 377.12 153.554 377.12C154.058 377.12 154.418 376.784 154.418 376.136V366.128ZM158.863 362.312C159.415 362.816 160.255 362.816 160.759 362.312C161.311 361.76 161.311 360.92 160.759 360.416C160.255 359.912 159.415 359.912 158.863 360.416C158.359 360.92 158.359 361.76 158.863 362.312ZM160.711 366.104C160.711 365.456 160.423 365.12 159.823 365.12C159.319 365.12 158.935 365.456 158.935 366.104V376.112C158.935 376.784 159.223 377.12 159.823 377.12C160.423 377.12 160.711 376.784 160.711 376.112V366.104ZM170.018 366.632C171.962 366.632 173.21 368 173.234 370.088H166.322C166.61 368.072 168.002 366.632 170.018 366.632ZM175.034 370.568C175.034 367.928 173.618 364.952 169.97 364.952C168.362 364.952 167.042 365.552 165.986 366.776C164.954 368 164.426 369.464 164.426 371.192C164.426 372.992 164.954 374.456 165.986 375.584C167.042 376.712 168.458 377.264 170.21 377.264C171.77 377.264 173.114 376.712 174.242 375.632C174.674 375.2 174.722 374.768 174.362 374.36C173.954 373.952 173.522 373.952 173.066 374.408C172.274 375.2 171.314 375.608 170.21 375.608C167.906 375.608 166.418 374.144 166.25 371.672H173.81C174.626 371.672 175.034 371.312 175.034 370.568ZM184.139 366.776C184.307 366.776 184.523 366.8 184.811 366.848C185.459 366.944 185.819 366.56 185.819 366.056C185.819 365.576 185.555 365.288 185.003 365.168L184.139 365.072C182.483 365.072 181.211 365.624 180.299 366.728V366.104C180.299 365.456 180.011 365.12 179.435 365.12C178.955 365.12 178.571 365.456 178.571 366.104V376.112C178.571 376.784 178.859 377.12 179.459 377.12C180.059 377.12 180.347 376.784 180.347 376.112V371.984C180.347 368.216 181.475 366.776 184.139 366.776ZM189.476 367.856C190.388 367.016 191.324 366.608 192.308 366.608C194.012 366.608 195.044 367.568 195.044 369.368V369.728L191.828 370.112C189.236 370.4 187.484 371.72 187.484 373.808C187.484 375.944 189.116 377.264 191.324 377.264C192.884 377.264 194.3 376.568 195.092 375.68V376.136C195.092 377.432 196.82 377.432 196.82 376.136V369.56C196.82 366.584 195.14 364.952 192.332 364.952C190.82 364.952 189.236 365.72 188.276 366.752C187.868 367.232 187.892 367.688 188.252 368C188.612 368.312 189.02 368.264 189.476 367.856ZM189.26 373.856C189.26 372.68 190.148 371.984 191.924 371.768L195.044 371.384V373.808C194.348 374.864 192.884 375.68 191.42 375.68C190.1 375.68 189.26 374.936 189.26 373.856ZM210.453 367.904C211.149 367.064 212.061 366.632 213.237 366.632C214.413 366.632 215.325 367.064 216.021 367.904C216.717 368.744 217.077 369.824 217.077 371.12C217.077 372.416 216.717 373.496 216.021 374.336C215.325 375.176 214.413 375.608 213.237 375.608C212.061 375.608 211.149 375.176 210.453 374.336C209.757 373.496 209.421 372.416 209.421 371.12C209.421 369.824 209.757 368.744 210.453 367.904ZM218.805 361.088C218.805 360.416 218.517 360.08 217.917 360.08C217.317 360.08 217.029 360.416 217.029 361.088V366.8C215.973 365.576 214.653 364.952 213.069 364.952C211.461 364.952 210.165 365.552 209.133 366.752C208.101 367.928 207.597 369.392 207.597 371.12C207.597 372.848 208.101 374.312 209.133 375.488C210.165 376.664 211.461 377.264 213.069 377.264C214.677 377.264 215.997 376.64 217.077 375.392V376.136C217.077 377.432 218.805 377.432 218.805 376.136V361.088ZM227.932 366.632C229.876 366.632 231.124 368 231.148 370.088H224.236C224.524 368.072 225.916 366.632 227.932 366.632ZM232.948 370.568C232.948 367.928 231.532 364.952 227.884 364.952C226.276 364.952 224.956 365.552 223.9 366.776C222.868 368 222.34 369.464 222.34 371.192C222.34 372.992 222.868 374.456 223.9 375.584C224.956 376.712 226.372 377.264 228.124 377.264C229.684 377.264 231.028 376.712 232.156 375.632C232.588 375.2 232.636 374.768 232.276 374.36C231.868 373.952 231.436 373.952 230.98 374.408C230.188 375.2 229.228 375.608 228.124 375.608C225.82 375.608 224.332 374.144 224.164 371.672H231.724C232.54 371.672 232.948 371.312 232.948 370.568ZM243.868 376.112C243.868 376.784 244.156 377.12 244.756 377.12C245.356 377.12 245.644 376.784 245.644 376.112V371.168C245.644 368.36 246.892 366.608 249.196 366.608C251.092 366.608 252.196 367.832 252.196 370.016V376.112C252.196 376.784 252.484 377.12 253.084 377.12C253.588 377.12 253.996 376.784 253.996 376.112V370.16C253.996 366.824 252.316 364.952 249.316 364.952C247.852 364.952 246.388 365.648 245.596 366.68V366.104C245.596 365.456 245.308 365.12 244.732 365.12C244.252 365.12 243.868 365.456 243.868 366.104V376.112ZM267.458 366.128C267.458 365.456 267.17 365.12 266.57 365.12C265.97 365.12 265.682 365.456 265.682 366.128V371.048C265.682 374.072 264.578 375.584 262.346 375.584C260.45 375.584 259.394 374.408 259.394 372.2V366.128C259.394 365.456 259.105 365.12 258.506 365.12C257.906 365.12 257.618 365.456 257.618 366.128V372.056C257.618 375.416 259.13 377.264 262.105 377.264C263.618 377.264 264.842 376.688 265.754 375.536V376.136C265.754 376.784 266.042 377.12 266.594 377.12C267.098 377.12 267.458 376.784 267.458 376.136V366.128ZM276.588 366.632C278.532 366.632 279.78 368 279.804 370.088H272.892C273.18 368.072 274.572 366.632 276.588 366.632ZM281.604 370.568C281.604 367.928 280.188 364.952 276.54 364.952C274.932 364.952 273.612 365.552 272.556 366.776C271.524 368 270.996 369.464 270.996 371.192C270.996 372.992 271.524 374.456 272.556 375.584C273.612 376.712 275.028 377.264 276.78 377.264C278.34 377.264 279.684 376.712 280.812 375.632C281.244 375.2 281.292 374.768 280.932 374.36C280.524 373.952 280.092 373.952 279.636 374.408C278.844 375.2 277.884 375.608 276.78 375.608C274.476 375.608 272.988 374.144 272.82 371.672H280.38C281.196 371.672 281.604 371.312 281.604 370.568ZM291.742 367.52C292.294 367.976 292.726 368 293.086 367.616C293.494 367.184 293.446 366.752 292.966 366.296C292.006 365.408 290.806 364.952 289.39 364.952C288.286 364.952 287.326 365.264 286.534 365.864C285.742 366.464 285.334 367.28 285.334 368.336C285.334 370.064 286.438 371.192 288.67 371.72L290.422 372.128C291.646 372.416 292.27 372.992 292.27 373.832C292.27 374.96 291.286 375.632 289.63 375.632C288.454 375.632 287.446 375.224 286.582 374.384C286.174 373.976 285.742 373.952 285.334 374.36C284.95 374.744 284.974 375.152 285.382 375.608C286.462 376.712 287.878 377.264 289.654 377.264C292.318 377.264 294.046 375.824 294.046 373.736C294.046 372.056 292.942 370.952 290.71 370.424L288.862 369.992C287.686 369.728 287.11 369.152 287.11 368.264C287.11 367.28 287.998 366.608 289.27 366.608C290.206 366.608 291.022 366.92 291.742 367.52ZM301.252 375.392C299.596 375.392 299.188 374.936 299.188 373.208V366.872H301.228C301.852 366.872 302.164 366.608 302.164 366.056C302.164 365.504 301.852 365.24 301.228 365.24H299.188V362.84C299.188 362.168 298.9 361.832 298.3 361.832C297.7 361.832 297.412 362.168 297.412 362.84V365.24H296.188C295.564 365.24 295.252 365.504 295.252 366.056C295.252 366.608 295.564 366.872 296.188 366.872H297.412V373.328C297.412 376.184 298.516 377.024 301.108 377.024C301.804 377.024 302.164 376.76 302.164 376.208C302.164 375.656 301.852 375.392 301.252 375.392ZM311.358 366.776C311.526 366.776 311.742 366.8 312.03 366.848C312.678 366.944 313.038 366.56 313.038 366.056C313.038 365.576 312.774 365.288 312.222 365.168L311.358 365.072C309.702 365.072 308.43 365.624 307.518 366.728V366.104C307.518 365.456 307.23 365.12 306.654 365.12C306.174 365.12 305.79 365.456 305.79 366.104V376.112C305.79 376.784 306.078 377.12 306.678 377.12C307.278 377.12 307.566 376.784 307.566 376.112V371.984C307.566 368.216 308.694 366.776 311.358 366.776ZM316.695 367.856C317.607 367.016 318.543 366.608 319.527 366.608C321.231 366.608 322.263 367.568 322.263 369.368V369.728L319.047 370.112C316.455 370.4 314.703 371.72 314.703 373.808C314.703 375.944 316.335 377.264 318.543 377.264C320.103 377.264 321.519 376.568 322.311 375.68V376.136C322.311 377.432 324.039 377.432 324.039 376.136V369.56C324.039 366.584 322.359 364.952 319.551 364.952C318.039 364.952 316.455 365.72 315.495 366.752C315.087 367.232 315.111 367.688 315.471 368C315.831 368.312 316.239 368.264 316.695 367.856ZM316.479 373.856C316.479 372.68 317.367 371.984 319.143 371.768L322.263 371.384V373.808C321.567 374.864 320.103 375.68 318.639 375.68C317.319 375.68 316.479 374.936 316.479 373.856ZM334.585 367.52C335.137 367.976 335.569 368 335.929 367.616C336.337 367.184 336.289 366.752 335.809 366.296C334.849 365.408 333.649 364.952 332.233 364.952C331.129 364.952 330.169 365.264 329.377 365.864C328.585 366.464 328.177 367.28 328.177 368.336C328.177 370.064 329.281 371.192 331.513 371.72L333.265 372.128C334.489 372.416 335.113 372.992 335.113 373.832C335.113 374.96 334.129 375.632 332.473 375.632C331.297 375.632 330.289 375.224 329.425 374.384C329.017 373.976 328.585 373.952 328.177 374.36C327.793 374.744 327.817 375.152 328.225 375.608C329.305 376.712 330.721 377.264 332.497 377.264C335.161 377.264 336.889 375.824 336.889 373.736C336.889 372.056 335.785 370.952 333.553 370.424L331.705 369.992C330.529 369.728 329.953 369.152 329.953 368.264C329.953 367.28 330.841 366.608 332.113 366.608C333.049 366.608 333.865 366.92 334.585 367.52ZM352.796 366.776C352.964 366.776 353.18 366.8 353.468 366.848C354.116 366.944 354.476 366.56 354.476 366.056C354.476 365.576 354.212 365.288 353.66 365.168L352.796 365.072C351.14 365.072 349.868 365.624 348.956 366.728V366.104C348.956 365.456 348.668 365.12 348.092 365.12C347.612 365.12 347.228 365.456 347.228 366.104V376.112C347.228 376.784 347.516 377.12 348.116 377.12C348.715 377.12 349.004 376.784 349.004 376.112V371.984C349.004 368.216 350.132 366.776 352.796 366.776ZM361.9 366.632C363.844 366.632 365.092 368 365.116 370.088H358.204C358.492 368.072 359.884 366.632 361.9 366.632ZM366.916 370.568C366.916 367.928 365.5 364.952 361.852 364.952C360.244 364.952 358.924 365.552 357.868 366.776C356.836 368 356.308 369.464 356.308 371.192C356.308 372.992 356.836 374.456 357.868 375.584C358.924 376.712 360.34 377.264 362.092 377.264C363.652 377.264 364.996 376.712 366.124 375.632C366.556 375.2 366.604 374.768 366.244 374.36C365.836 373.952 365.404 373.952 364.948 374.408C364.156 375.2 363.196 375.608 362.092 375.608C359.788 375.608 358.3 374.144 358.132 371.672H365.692C366.508 371.672 366.916 371.312 366.916 370.568ZM372.899 367.904C373.595 367.064 374.507 366.632 375.683 366.632C376.859 366.632 377.771 367.064 378.467 367.904C379.163 368.744 379.523 369.824 379.523 371.12C379.523 372.416 379.163 373.496 378.467 374.336C377.771 375.176 376.859 375.608 375.683 375.608C374.507 375.608 373.595 375.176 372.899 374.336C372.203 373.496 371.867 372.416 371.867 371.12C371.867 369.824 372.203 368.744 372.899 367.904ZM381.251 361.088C381.251 360.416 380.963 360.08 380.363 360.08C379.763 360.08 379.475 360.416 379.475 361.088V366.8C378.419 365.576 377.099 364.952 375.515 364.952C373.907 364.952 372.611 365.552 371.579 366.752C370.547 367.928 370.043 369.392 370.043 371.12C370.043 372.848 370.547 374.312 371.579 375.488C372.611 376.664 373.907 377.264 375.515 377.264C377.123 377.264 378.443 376.64 379.523 375.392V376.136C379.523 377.432 381.251 377.432 381.251 376.136V361.088ZM390.377 366.632C392.321 366.632 393.569 368 393.593 370.088H386.681C386.969 368.072 388.361 366.632 390.377 366.632ZM395.393 370.568C395.393 367.928 393.977 364.952 390.329 364.952C388.721 364.952 387.401 365.552 386.345 366.776C385.313 368 384.785 369.464 384.785 371.192C384.785 372.992 385.313 374.456 386.345 375.584C387.401 376.712 388.817 377.264 390.569 377.264C392.129 377.264 393.473 376.712 394.601 375.632C395.033 375.2 395.081 374.768 394.721 374.36C394.313 373.952 393.881 373.952 393.425 374.408C392.633 375.2 391.673 375.608 390.569 375.608C388.265 375.608 386.777 374.144 386.609 371.672H394.169C394.985 371.672 395.393 371.312 395.393 370.568ZM405.531 367.52C406.083 367.976 406.515 368 406.875 367.616C407.283 367.184 407.235 366.752 406.755 366.296C405.795 365.408 404.595 364.952 403.179 364.952C402.075 364.952 401.115 365.264 400.323 365.864C399.531 366.464 399.123 367.28 399.123 368.336C399.123 370.064 400.227 371.192 402.459 371.72L404.211 372.128C405.435 372.416 406.059 372.992 406.059 373.832C406.059 374.96 405.075 375.632 403.419 375.632C402.243 375.632 401.235 375.224 400.371 374.384C399.963 373.976 399.531 373.952 399.123 374.36C398.739 374.744 398.763 375.152 399.171 375.608C400.251 376.712 401.667 377.264 403.443 377.264C406.107 377.264 407.835 375.824 407.835 373.736C407.835 372.056 406.731 370.952 404.499 370.424L402.651 369.992C401.475 369.728 400.899 369.152 400.899 368.264C400.899 367.28 401.787 366.608 403.059 366.608C403.995 366.608 404.811 366.92 405.531 367.52ZM411.644 374.408C410.852 374.408 410.228 375.056 410.228 375.848C410.228 376.64 410.852 377.264 411.644 377.264C412.484 377.264 413.108 376.64 413.108 375.848C413.108 375.008 412.484 374.408 411.644 374.408ZM411.644 365.096C410.852 365.096 410.228 365.744 410.228 366.536C410.228 367.328 410.852 367.952 411.644 367.952C412.484 367.952 413.108 367.328 413.108 366.536C413.108 365.696 412.484 365.096 411.644 365.096Z" fill="#930345"/>
<path d="M162.029 203.312C161.525 202.76 161.525 201.92 162.029 201.416C162.581 200.912 163.421 200.912 163.925 201.416C164.477 201.92 164.477 202.76 163.925 203.312C163.421 203.816 162.581 203.816 162.029 203.312ZM163.877 207.104V217.112C163.877 217.784 163.589 218.12 162.989 218.12C162.389 218.12 162.101 217.784 162.101 217.112V207.104C162.101 206.456 162.485 206.12 162.989 206.12C163.589 206.12 163.877 206.456 163.877 207.104ZM168.401 217.112V207.104C168.401 206.456 168.785 206.12 169.265 206.12C169.841 206.12 170.129 206.456 170.129 207.104V207.68C170.921 206.648 172.385 205.952 173.849 205.952C176.849 205.952 178.529 207.824 178.529 211.16V217.112C178.529 217.784 178.121 218.12 177.617 218.12C177.017 218.12 176.729 217.784 176.729 217.112V211.016C176.729 208.832 175.625 207.608 173.729 207.608C171.425 207.608 170.177 209.36 170.177 212.168V217.112C170.177 217.784 169.889 218.12 169.289 218.12C168.689 218.12 168.401 217.784 168.401 217.112ZM186.699 202.808C184.947 202.808 184.323 203.6 184.323 205.352V206.24H186.363C186.987 206.24 187.299 206.504 187.299 207.056C187.299 207.608 186.987 207.872 186.363 207.872H184.323V217.112C184.323 217.784 184.035 218.12 183.435 218.12C182.835 218.12 182.547 217.784 182.547 217.112V207.872H181.323C180.699 207.872 180.387 207.608 180.387 207.056C180.387 206.504 180.699 206.24 181.323 206.24H182.547V205.352C182.547 202.448 183.963 201.176 186.675 201.176C187.299 201.176 187.611 201.44 187.611 201.992C187.611 202.544 187.299 202.808 186.699 202.808ZM195.269 218.264C193.589 218.264 192.173 217.664 191.045 216.488C189.917 215.288 189.365 213.824 189.365 212.12C189.365 210.416 189.917 208.952 191.045 207.752C192.173 206.552 193.589 205.952 195.269 205.952C196.949 205.952 198.365 206.552 199.493 207.752C200.645 208.952 201.221 210.416 201.221 212.12C201.221 213.824 200.645 215.288 199.517 216.488C198.389 217.664 196.973 218.264 195.269 218.264ZM195.269 216.608C196.469 216.608 197.453 216.176 198.221 215.336C198.989 214.472 199.373 213.392 199.373 212.12C199.373 210.848 198.989 209.768 198.221 208.928C197.453 208.064 196.469 207.632 195.269 207.632C194.093 207.632 193.109 208.064 192.341 208.928C191.573 209.768 191.189 210.848 191.189 212.12C191.189 213.392 191.573 214.472 192.341 215.336C193.109 216.176 194.093 216.608 195.269 216.608ZM215.313 216.632C216.489 216.632 217.425 216.2 218.121 215.36C218.817 214.496 219.177 213.416 219.177 212.12C219.177 210.824 218.817 209.744 218.121 208.904C217.425 208.064 216.489 207.632 215.313 207.632C214.137 207.632 213.225 208.064 212.529 208.904C211.833 209.744 211.497 210.824 211.497 212.12C211.497 213.416 211.833 214.496 212.529 215.36C213.225 216.2 214.161 216.632 215.313 216.632ZM220.353 222.296C219.033 222.704 217.689 222.92 216.273 222.92C212.889 222.92 210.105 221.864 207.945 219.752C205.809 217.64 204.729 215.024 204.729 211.928C204.585 205.952 209.361 200.816 215.865 200.912C218.097 200.912 220.017 201.416 221.673 202.4C224.961 204.392 226.593 207.728 226.593 211.664C226.593 213.584 226.137 215.168 225.225 216.416C224.337 217.64 223.233 218.264 221.961 218.264C220.641 218.264 219.777 217.448 219.417 216.224C218.385 217.544 216.801 218.264 215.145 218.264C213.537 218.264 212.241 217.664 211.209 216.488C210.177 215.312 209.673 213.848 209.673 212.12C209.673 210.392 210.177 208.928 211.209 207.752C212.241 206.552 213.537 205.952 215.145 205.952C216.729 205.952 218.049 206.576 219.105 207.8V207.128C219.105 206.456 219.393 206.12 219.993 206.12C220.593 206.12 220.881 206.456 220.881 207.128V214.904C220.881 216.056 221.289 216.632 222.105 216.632C222.945 216.632 223.593 216.128 224.097 215.096C224.601 214.064 224.841 212.912 224.841 211.664C224.841 209.048 224.049 206.864 222.489 205.136C220.929 203.408 218.721 202.544 215.865 202.544C213.081 202.544 210.801 203.432 209.049 205.232C207.297 207.032 206.433 209.264 206.433 211.928C206.433 214.592 207.345 216.824 209.145 218.6C210.969 220.4 213.345 221.288 216.273 221.288C217.569 221.288 218.793 221.12 219.945 220.76C220.545 220.568 220.977 220.808 221.073 221.264C221.193 221.792 220.953 222.128 220.353 222.296ZM238.928 208.664C238.112 207.968 237.224 207.632 236.24 207.632C235.04 207.632 234.056 208.064 233.264 208.928C232.472 209.768 232.088 210.848 232.088 212.12C232.088 214.736 233.696 216.608 236.312 216.608C237.416 216.608 238.376 216.2 239.168 215.408C239.624 214.952 240.056 214.952 240.464 215.36C240.824 215.768 240.776 216.2 240.344 216.632C239.216 217.712 237.824 218.264 236.168 218.264C234.488 218.264 233.072 217.664 231.944 216.488C230.816 215.288 230.264 213.824 230.264 212.12C230.264 210.416 230.84 208.976 231.992 207.776C233.168 206.552 234.584 205.952 236.24 205.952C237.824 205.952 239.12 206.456 240.104 207.44C240.536 207.872 240.584 208.304 240.224 208.712C239.864 209.072 239.432 209.072 238.928 208.664ZM249.082 218.264C247.402 218.264 245.986 217.664 244.858 216.488C243.73 215.288 243.178 213.824 243.178 212.12C243.178 210.416 243.73 208.952 244.858 207.752C245.986 206.552 247.402 205.952 249.082 205.952C250.762 205.952 252.178 206.552 253.306 207.752C254.458 208.952 255.034 210.416 255.034 212.12C255.034 213.824 254.458 215.288 253.33 216.488C252.202 217.664 250.786 218.264 249.082 218.264ZM249.082 216.608C250.282 216.608 251.266 216.176 252.034 215.336C252.802 214.472 253.186 213.392 253.186 212.12C253.186 210.848 252.802 209.768 252.034 208.928C251.266 208.064 250.282 207.632 249.082 207.632C247.906 207.632 246.922 208.064 246.154 208.928C245.386 209.768 245.002 210.848 245.002 212.12C245.002 213.392 245.386 214.472 246.154 215.336C246.922 216.176 247.906 216.608 249.082 216.608ZM258.566 217.112V207.104C258.566 206.456 258.95 206.12 259.43 206.12C260.006 206.12 260.294 206.456 260.294 207.104V207.68C261.086 206.648 262.55 205.952 264.014 205.952C267.014 205.952 268.694 207.824 268.694 211.16V217.112C268.694 217.784 268.286 218.12 267.782 218.12C267.182 218.12 266.894 217.784 266.894 217.112V211.016C266.894 208.832 265.79 207.608 263.894 207.608C261.59 207.608 260.342 209.36 260.342 212.168V217.112C260.342 217.784 260.054 218.12 259.454 218.12C258.854 218.12 258.566 217.784 258.566 217.112ZM271.361 222.776H270.809C270.209 222.776 269.897 222.416 269.897 221.96C269.897 221.408 270.209 221.144 270.809 221.144H271.193C272.633 221.144 273.017 220.544 273.017 219.008V207.104C273.017 206.456 273.401 206.12 273.905 206.12C274.505 206.12 274.793 206.456 274.793 207.104V219.296C274.793 221.792 273.689 222.776 271.361 222.776ZM272.945 203.312C272.441 202.76 272.441 201.92 272.945 201.416C273.497 200.912 274.337 200.912 274.841 201.416C275.393 201.92 275.393 202.76 274.841 203.312C274.337 203.816 273.497 203.816 272.945 203.312ZM288.811 207.128V217.136C288.811 217.784 288.451 218.12 287.947 218.12C287.395 218.12 287.107 217.784 287.107 217.136V216.536C286.195 217.688 284.971 218.264 283.459 218.264C280.483 218.264 278.971 216.416 278.971 213.056V207.128C278.971 206.456 279.259 206.12 279.859 206.12C280.459 206.12 280.747 206.456 280.747 207.128V213.2C280.747 215.408 281.803 216.584 283.699 216.584C285.931 216.584 287.035 215.072 287.035 212.048V207.128C287.035 206.456 287.323 206.12 287.923 206.12C288.523 206.12 288.811 206.456 288.811 207.128ZM293.159 217.112V207.104C293.159 206.456 293.543 206.12 294.023 206.12C294.599 206.12 294.887 206.456 294.887 207.104V207.68C295.679 206.648 297.143 205.952 298.607 205.952C301.607 205.952 303.287 207.824 303.287 211.16V217.112C303.287 217.784 302.879 218.12 302.375 218.12C301.775 218.12 301.487 217.784 301.487 217.112V211.016C301.487 208.832 300.383 207.608 298.487 207.608C296.183 207.608 294.935 209.36 294.935 212.168V217.112C294.935 217.784 294.647 218.12 294.047 218.12C293.447 218.12 293.159 217.784 293.159 217.112ZM311.262 216.392C311.862 216.392 312.174 216.656 312.174 217.208C312.174 217.76 311.814 218.024 311.118 218.024C308.526 218.024 307.422 217.184 307.422 214.328V207.872H306.198C305.574 207.872 305.262 207.608 305.262 207.056C305.262 206.504 305.574 206.24 306.198 206.24H307.422V203.84C307.422 203.168 307.71 202.832 308.31 202.832C308.91 202.832 309.198 203.168 309.198 203.84V206.24H311.238C311.862 206.24 312.174 206.504 312.174 207.056C312.174 207.608 311.862 207.872 311.238 207.872H309.198V214.208C309.198 215.936 309.606 216.392 311.262 216.392ZM320.777 218.264C319.097 218.264 317.681 217.664 316.553 216.488C315.425 215.288 314.873 213.824 314.873 212.12C314.873 210.416 315.425 208.952 316.553 207.752C317.681 206.552 319.097 205.952 320.777 205.952C322.457 205.952 323.873 206.552 325.001 207.752C326.153 208.952 326.729 210.416 326.729 212.12C326.729 213.824 326.153 215.288 325.025 216.488C323.897 217.664 322.481 218.264 320.777 218.264ZM320.777 216.608C321.977 216.608 322.961 216.176 323.729 215.336C324.497 214.472 324.881 213.392 324.881 212.12C324.881 210.848 324.497 209.768 323.729 208.928C322.961 208.064 321.977 207.632 320.777 207.632C319.601 207.632 318.617 208.064 317.849 208.928C317.081 209.768 316.697 210.848 316.697 212.12C316.697 213.392 317.081 214.472 317.849 215.336C318.617 216.176 319.601 216.608 320.777 216.608ZM336.861 208.52C336.141 207.92 335.325 207.608 334.389 207.608C333.117 207.608 332.229 208.28 332.229 209.264C332.229 210.152 332.805 210.728 333.981 210.992L335.829 211.424C338.061 211.952 339.165 213.056 339.165 214.736C339.165 216.824 337.437 218.264 334.773 218.264C332.997 218.264 331.581 217.712 330.501 216.608C330.093 216.152 330.069 215.744 330.453 215.36C330.861 214.952 331.293 214.976 331.701 215.384C332.565 216.224 333.573 216.632 334.749 216.632C336.405 216.632 337.389 215.96 337.389 214.832C337.389 213.992 336.765 213.416 335.541 213.128L333.789 212.72C331.557 212.192 330.453 211.064 330.453 209.336C330.453 208.28 330.861 207.464 331.653 206.864C332.445 206.264 333.405 205.952 334.509 205.952C335.925 205.952 337.125 206.408 338.085 207.296C338.565 207.752 338.613 208.184 338.205 208.616C337.845 209 337.413 208.976 336.861 208.52ZM343.402 215.408C344.242 215.408 344.866 216.008 344.866 216.848C344.866 217.64 344.242 218.264 343.402 218.264C342.61 218.264 341.986 217.64 341.986 216.848C341.986 216.056 342.61 215.408 343.402 215.408ZM354.55 218.264C352.87 218.264 351.454 217.664 350.326 216.488C349.198 215.288 348.646 213.824 348.646 212.12C348.646 210.416 349.198 208.952 350.326 207.752C351.454 206.552 352.87 205.952 354.55 205.952C356.23 205.952 357.646 206.552 358.774 207.752C359.926 208.952 360.502 210.416 360.502 212.12C360.502 213.824 359.926 215.288 358.798 216.488C357.67 217.664 356.254 218.264 354.55 218.264ZM354.55 216.608C355.75 216.608 356.734 216.176 357.502 215.336C358.27 214.472 358.654 213.392 358.654 212.12C358.654 210.848 358.27 209.768 357.502 208.928C356.734 208.064 355.75 207.632 354.55 207.632C353.374 207.632 352.39 208.064 351.622 208.928C350.854 209.768 350.47 210.848 350.47 212.12C350.47 213.392 350.854 214.472 351.622 215.336C352.39 216.176 353.374 216.608 354.55 216.608ZM369.602 207.776C366.938 207.776 365.81 209.216 365.81 212.984V217.112C365.81 217.784 365.522 218.12 364.922 218.12C364.322 218.12 364.034 217.784 364.034 217.112V207.104C364.034 206.456 364.418 206.12 364.898 206.12C365.474 206.12 365.762 206.456 365.762 207.104V207.728C366.674 206.624 367.946 206.072 369.602 206.072L370.466 206.168C371.018 206.288 371.282 206.576 371.282 207.056C371.282 207.56 370.922 207.944 370.274 207.848C369.986 207.8 369.77 207.776 369.602 207.776ZM374.939 211.856C374.939 213.08 375.275 214.088 375.971 214.88C376.667 215.672 377.531 216.056 378.611 216.056C379.691 216.056 380.579 215.672 381.275 214.88C381.971 214.088 382.331 213.08 382.331 211.856C382.331 210.608 381.971 209.6 381.275 208.808C380.579 208.016 379.691 207.632 378.611 207.632C377.531 207.632 376.667 208.016 375.971 208.808C375.275 209.6 374.939 210.608 374.939 211.856ZM373.931 220.88C373.523 220.376 373.547 219.944 373.979 219.584C374.411 219.224 374.843 219.272 375.275 219.776C376.139 220.784 377.171 221.288 378.395 221.288C380.915 221.288 382.283 219.656 382.283 217.184V215.96C381.395 217.136 380.123 217.736 378.443 217.736C376.931 217.736 375.683 217.184 374.651 216.056C373.619 214.928 373.115 213.536 373.115 211.856C373.115 210.152 373.619 208.76 374.651 207.632C375.683 206.504 376.931 205.952 378.443 205.952C380.099 205.952 381.395 206.552 382.331 207.752V207.08C382.331 205.76 384.059 205.76 384.059 207.08V217.04C384.059 220.616 381.875 222.92 378.395 222.92C376.499 222.92 375.011 222.248 373.931 220.88Z" fill="#930345"/>
<path d="M135.683 212.429C135.449 212.671 135.16 212.798 134.881 212.798C134.601 212.798 134.322 212.671 134.078 212.429L122.706 200.67L120 197.873V224.875C120 225.931 120.604 226.782 121.353 226.782H148.409C149.157 226.782 149.761 225.931 149.761 224.875V197.873L147.056 200.67L135.683 212.429Z" fill="#930345"/>
<path d="M134.879 208.527L147.965 195H121.793L134.879 208.527Z" fill="#930345"/>
<path d="M171.415 282.669C171.415 283.293 171.703 283.605 172.255 283.605C172.831 283.605 173.119 283.293 173.119 282.669V278.397H177.511C178.111 278.397 178.423 278.109 178.423 277.557C178.423 277.029 178.111 276.765 177.511 276.765H173.119V272.541C173.119 271.917 172.831 271.605 172.255 271.605C171.703 271.605 171.415 271.917 171.415 272.541V276.765H167.095C166.495 276.765 166.183 277.029 166.183 277.557C166.183 278.109 166.495 278.397 167.095 278.397H171.415V282.669ZM191.159 268.413C192.479 268.413 192.479 266.685 191.159 266.685H183.983C183.407 266.685 182.927 267.189 182.903 267.789L182.567 275.397C182.543 276.141 182.879 276.501 183.551 276.501C183.863 276.501 184.127 276.357 184.367 276.069C185.255 275.037 186.287 274.533 187.511 274.533C189.719 274.533 191.327 275.925 191.327 278.253C191.327 279.381 190.943 280.317 190.151 281.013C189.383 281.709 188.423 282.045 187.295 282.045C185.999 282.045 184.823 281.517 183.743 280.437C183.167 279.957 182.735 280.077 182.375 280.485C182.039 280.917 182.111 281.373 182.615 281.853C183.911 283.125 185.447 283.749 187.199 283.749C188.999 283.749 190.439 283.221 191.519 282.141C192.599 281.061 193.151 279.765 193.151 278.253C193.151 276.549 192.623 275.205 191.567 274.245C190.511 273.285 189.239 272.805 187.751 272.805C186.287 272.805 184.967 273.333 184.319 274.077L184.583 268.413H191.159ZM201.323 267.645C201.323 266.901 200.915 266.565 200.363 266.565C200.123 266.565 199.763 266.709 199.259 266.997L195.875 268.941C195.419 269.205 195.203 269.517 195.203 269.877C195.203 270.573 195.995 270.909 196.571 270.549L199.499 268.917V281.757H195.947C194.651 281.757 194.651 283.485 195.947 283.485H204.635C205.931 283.485 205.931 281.757 204.635 281.757H201.323V267.645ZM220.709 275.829C219.701 275.829 218.837 275.493 218.117 274.797C217.397 274.101 217.037 273.165 217.037 271.989C217.037 270.741 217.397 269.781 218.093 269.109C218.813 268.437 219.653 268.101 220.589 268.101C221.645 268.101 222.533 268.485 223.253 269.229C223.973 269.973 224.333 270.909 224.333 272.013C224.333 273.141 223.973 274.077 223.253 274.773C222.557 275.469 221.693 275.829 220.709 275.829ZM217.685 280.869C217.229 280.413 216.773 280.389 216.341 280.797C215.933 281.205 215.957 281.661 216.437 282.141C217.541 283.221 218.909 283.749 220.541 283.749C222.485 283.749 223.997 282.981 225.125 281.421C226.253 279.861 226.829 277.797 226.829 275.229C226.829 272.565 226.277 270.429 225.173 268.821C224.069 267.213 222.581 266.397 220.709 266.397C219.269 266.397 217.997 266.901 216.869 267.933C215.741 268.941 215.189 270.285 215.189 271.989C215.189 273.645 215.741 274.989 216.821 276.021C217.925 277.053 219.221 277.557 220.709 277.557C222.437 277.557 224.213 276.669 225.101 275.013C225.173 277.077 224.789 278.757 223.925 280.077C223.061 281.397 221.933 282.045 220.541 282.045C219.413 282.045 218.477 281.661 217.685 280.869ZM235.31 275.829C234.302 275.829 233.438 275.493 232.718 274.797C231.998 274.101 231.638 273.165 231.638 271.989C231.638 270.741 231.998 269.781 232.694 269.109C233.414 268.437 234.254 268.101 235.19 268.101C236.246 268.101 237.134 268.485 237.854 269.229C238.574 269.973 238.934 270.909 238.934 272.013C238.934 273.141 238.574 274.077 237.854 274.773C237.158 275.469 236.294 275.829 235.31 275.829ZM232.286 280.869C231.83 280.413 231.374 280.389 230.942 280.797C230.534 281.205 230.558 281.661 231.038 282.141C232.142 283.221 233.51 283.749 235.142 283.749C237.086 283.749 238.598 282.981 239.726 281.421C240.854 279.861 241.43 277.797 241.43 275.229C241.43 272.565 240.878 270.429 239.774 268.821C238.67 267.213 237.182 266.397 235.31 266.397C233.87 266.397 232.598 266.901 231.47 267.933C230.342 268.941 229.79 270.285 229.79 271.989C229.79 273.645 230.342 274.989 231.422 276.021C232.526 277.053 233.822 277.557 235.31 277.557C237.038 277.557 238.814 276.669 239.702 275.013C239.774 277.077 239.39 278.757 238.526 280.077C237.662 281.397 236.534 282.045 235.142 282.045C234.014 282.045 233.078 281.661 232.286 280.869ZM253.56 280.149C252.84 281.421 251.808 282.045 250.464 282.045C249.12 282.045 248.088 281.397 247.344 280.125C246.6 278.853 246.24 277.149 246.24 275.061C246.24 272.973 246.6 271.293 247.344 270.021C248.088 268.749 249.12 268.101 250.464 268.101C251.808 268.101 252.84 268.725 253.56 269.997C254.304 271.269 254.664 272.949 254.664 275.061C254.664 277.173 254.304 278.877 253.56 280.149ZM244.776 278.277C245.256 280.293 246.168 282.045 247.728 283.029C248.52 283.509 249.432 283.749 250.464 283.749C251.496 283.749 252.384 283.509 253.176 283.029C254.784 282.045 255.672 280.293 256.152 278.277C256.632 276.261 256.632 273.861 256.152 271.845C255.672 269.829 254.784 268.101 253.176 267.141C252.384 266.637 251.496 266.397 250.464 266.397C249.432 266.397 248.52 266.637 247.728 267.141C246.168 268.101 245.256 269.829 244.776 271.845C244.296 273.861 244.296 276.261 244.776 278.277ZM266.725 279.045C266.725 280.461 267.253 281.589 268.285 282.453C269.341 283.317 270.637 283.749 272.149 283.749C273.661 283.749 274.957 283.317 275.989 282.453C277.045 281.589 277.573 280.461 277.573 279.045C277.573 278.061 277.237 277.173 276.589 276.429C275.941 275.685 275.293 275.205 274.645 275.037C275.245 274.773 275.797 274.341 276.349 273.717C276.901 273.093 277.165 272.325 277.165 271.389C277.165 269.997 276.661 268.893 275.653 268.053C274.669 267.213 273.493 266.805 272.149 266.805C270.805 266.805 269.629 267.213 268.621 268.053C267.637 268.893 267.133 269.997 267.133 271.389C267.133 272.325 267.397 273.093 267.949 273.717C268.501 274.341 269.053 274.773 269.653 275.037C269.005 275.205 268.333 275.685 267.685 276.429C267.037 277.173 266.725 278.061 266.725 279.045ZM272.149 275.973C274.189 275.973 275.725 277.125 275.725 279.021C275.725 280.869 274.165 282.045 272.149 282.045C270.133 282.045 268.573 280.869 268.573 279.021C268.573 277.125 270.061 275.973 272.149 275.973ZM268.981 271.413C268.981 270.477 269.317 269.757 269.965 269.253C270.613 268.749 271.357 268.509 272.149 268.509C272.941 268.509 273.685 268.749 274.333 269.253C274.981 269.757 275.317 270.477 275.317 271.413C275.317 273.165 273.973 274.245 272.149 274.245C270.301 274.245 268.981 273.165 268.981 271.413ZM289.56 280.149C288.84 281.421 287.808 282.045 286.464 282.045C285.12 282.045 284.088 281.397 283.344 280.125C282.6 278.853 282.24 277.149 282.24 275.061C282.24 272.973 282.6 271.293 283.344 270.021C284.088 268.749 285.12 268.101 286.464 268.101C287.808 268.101 288.84 268.725 289.56 269.997C290.304 271.269 290.664 272.949 290.664 275.061C290.664 277.173 290.304 278.877 289.56 280.149ZM280.776 278.277C281.256 280.293 282.168 282.045 283.728 283.029C284.52 283.509 285.432 283.749 286.464 283.749C287.496 283.749 288.384 283.509 289.176 283.029C290.784 282.045 291.672 280.293 292.152 278.277C292.632 276.261 292.632 273.861 292.152 271.845C291.672 269.829 290.784 268.101 289.176 267.141C288.384 266.637 287.496 266.397 286.464 266.397C285.432 266.397 284.52 266.637 283.728 267.141C282.168 268.101 281.256 269.829 280.776 271.845C280.296 273.861 280.296 276.261 280.776 278.277ZM304.63 280.149C303.91 281.421 302.878 282.045 301.534 282.045C300.19 282.045 299.158 281.397 298.414 280.125C297.67 278.853 297.31 277.149 297.31 275.061C297.31 272.973 297.67 271.293 298.414 270.021C299.158 268.749 300.19 268.101 301.534 268.101C302.878 268.101 303.91 268.725 304.63 269.997C305.374 271.269 305.734 272.949 305.734 275.061C305.734 277.173 305.374 278.877 304.63 280.149ZM295.846 278.277C296.326 280.293 297.238 282.045 298.798 283.029C299.59 283.509 300.502 283.749 301.534 283.749C302.566 283.749 303.454 283.509 304.246 283.029C305.854 282.045 306.742 280.293 307.222 278.277C307.702 276.261 307.702 273.861 307.222 271.845C306.742 269.829 305.854 268.101 304.246 267.141C303.454 266.637 302.566 266.397 301.534 266.397C300.502 266.397 299.59 266.637 298.798 267.141C297.238 268.101 296.326 269.829 295.846 271.845C295.366 273.861 295.366 276.261 295.846 278.277ZM324.323 267.645C324.323 266.901 323.915 266.565 323.363 266.565C323.123 266.565 322.763 266.709 322.259 266.997L318.875 268.941C318.419 269.205 318.203 269.517 318.203 269.877C318.203 270.573 318.995 270.909 319.571 270.549L322.499 268.917V281.757H318.947C317.651 281.757 317.651 283.485 318.947 283.485H327.635C328.931 283.485 328.931 281.757 327.635 281.757H324.323V267.645ZM337.214 267.645C337.214 266.901 336.806 266.565 336.254 266.565C336.014 266.565 335.654 266.709 335.15 266.997L331.766 268.941C331.31 269.205 331.094 269.517 331.094 269.877C331.094 270.573 331.886 270.909 332.462 270.549L335.39 268.917V281.757H331.838C330.542 281.757 330.542 283.485 331.838 283.485H340.526C341.822 283.485 341.822 281.757 340.526 281.757H337.214V267.645ZM353.416 268.413C354.736 268.413 354.736 266.685 353.416 266.685H346.24C345.664 266.685 345.184 267.189 345.16 267.789L344.824 275.397C344.8 276.141 345.136 276.501 345.808 276.501C346.12 276.501 346.384 276.357 346.624 276.069C347.512 275.037 348.544 274.533 349.768 274.533C351.976 274.533 353.584 275.925 353.584 278.253C353.584 279.381 353.2 280.317 352.408 281.013C351.64 281.709 350.68 282.045 349.552 282.045C348.256 282.045 347.08 281.517 346 280.437C345.424 279.957 344.992 280.077 344.632 280.485C344.296 280.917 344.368 281.373 344.872 281.853C346.168 283.125 347.704 283.749 349.456 283.749C351.256 283.749 352.696 283.221 353.776 282.141C354.856 281.061 355.408 279.765 355.408 278.253C355.408 276.549 354.88 275.205 353.824 274.245C352.768 273.285 351.496 272.805 350.008 272.805C348.544 272.805 347.224 273.333 346.576 274.077L346.84 268.413H353.416Z" fill="#930345"/>
<g clip-path="url(#clip0_1012_143)">
<path d="M150.313 263.485C143.226 263.485 137.456 269.241 137.456 276.314C137.456 278.506 138.045 280.693 139.161 282.654L137.271 289.455L144.199 287.586C146.217 288.687 148.331 289.271 150.313 289.271C157.323 289.271 163.247 283.335 163.247 276.309C163.242 269.241 157.44 263.485 150.313 263.485ZM150.313 287.125C148.434 287.125 146.509 286.552 144.737 285.471L144.512 285.333L140.287 286.418L141.439 282.332L141.291 282.096C140.195 280.385 139.611 278.388 139.611 276.309C139.611 270.419 144.414 265.626 150.318 265.626C156.263 265.626 161.101 270.419 161.101 276.309C161.096 282.275 156.258 287.125 150.313 287.125Z" fill="#930345"/>
<path d="M152.607 279.53C152.412 279.781 152.08 279.878 151.783 279.776C151.025 279.51 148.439 278.429 147.021 275.699C146.882 275.428 146.918 275.105 147.118 274.875L148.137 273.697L146.964 270.978L146.166 270.937C146.155 270.937 146.145 270.937 146.135 270.937C146.002 270.937 145.879 270.983 145.782 271.07C145.454 271.351 144.88 271.94 144.717 272.688C144.455 273.856 144.891 275.29 145.94 276.724C146.632 277.671 148.746 280.549 152.745 281.676C153.698 281.948 154.558 281.845 155.3 281.369C155.776 281.067 156.12 280.565 156.242 279.991L156.37 279.392L153.657 278.153L152.607 279.53Z" fill="#930345"/>
<path d="M150.313 266.496C144.886 266.496 140.467 270.901 140.467 276.319C140.467 278.229 140.999 280.068 142.008 281.64L142.366 282.198L141.516 285.22L144.645 284.416L145.177 284.744C146.816 285.742 148.588 286.27 150.308 286.27C155.782 286.27 160.231 281.804 160.231 276.319C160.236 270.901 155.782 266.496 150.313 266.496ZM157.21 279.571L157.082 280.17C156.913 280.964 156.432 281.661 155.766 282.091C155.152 282.485 154.476 282.685 153.754 282.685C153.355 282.685 152.94 282.624 152.515 282.506C148.229 281.292 145.992 278.24 145.254 277.231C144.051 275.592 143.565 273.912 143.882 272.494C144.102 271.51 144.819 270.768 145.224 270.419C145.5 270.179 145.858 270.061 146.222 270.076L147.026 270.122C147.349 270.138 147.63 270.337 147.758 270.634L148.931 273.374C149.059 273.671 149.002 274.02 148.792 274.26L147.83 275.377C149.059 277.681 151.225 278.654 151.988 278.936L152.991 277.62C153.237 277.308 153.657 277.205 154.015 277.369L156.734 278.624C157.098 278.788 157.292 279.177 157.21 279.571Z" fill="#930345"/>
</g>
<g clip-path="url(#clip1_1012_143)">
<path d="M241.552 417.06C241.463 417.06 241.374 417.06 241.301 417.06C239.617 417.06 237.919 417.06 236.236 417.06C236 417.06 236 417.06 236 416.825C236 415.591 235.985 414.356 236.015 413.122C236.029 412.74 236.118 412.358 236.236 411.99C236.458 411.388 236.945 411.035 237.55 410.903C237.964 410.815 238.392 410.771 238.805 410.756C239.721 410.741 240.636 410.741 241.552 410.756C241.714 410.756 241.758 410.712 241.758 410.55C241.758 409.022 241.758 407.509 241.758 405.981C241.758 405.804 241.699 405.745 241.537 405.731C241.005 405.701 240.474 405.643 239.927 405.628C238.938 405.598 237.964 405.54 236.974 405.569C235.513 405.598 234.139 405.981 232.929 406.818C232.25 407.288 231.703 407.891 231.26 408.596C230.876 409.213 230.625 409.889 230.448 410.594C230.242 411.417 230.168 412.24 230.168 413.093C230.168 414.356 230.168 415.605 230.168 416.869C230.168 417.045 230.109 417.089 229.946 417.089C228.47 417.089 227.008 417.089 225.532 417.089C225.295 417.089 225.295 417.089 225.295 417.324C225.295 419.029 225.295 420.733 225.295 422.438C225.295 422.688 225.295 422.688 225.546 422.688C227.008 422.688 228.47 422.688 229.946 422.688C230.123 422.688 230.168 422.732 230.168 422.908C230.168 427.552 230.168 432.18 230.168 436.824C230.168 436.985 230.123 437.029 229.961 437.029C225.827 437.029 221.678 437.029 217.544 437.015C216.008 437.015 214.605 436.559 213.35 435.677C212.479 435.06 211.771 434.282 211.239 433.356C210.589 432.21 210.279 430.975 210.279 429.668C210.279 422.218 210.279 414.768 210.279 407.332C210.279 406.407 210.427 405.51 210.767 404.643C211.269 403.365 212.066 402.307 213.173 401.484C214.473 400.514 215.92 400.029 217.544 400.029C225.103 400.029 232.648 400.029 240.208 400.029C241.478 400.029 242.674 400.338 243.781 400.97C244.785 401.543 245.612 402.307 246.247 403.277C247.074 404.511 247.458 405.878 247.458 407.347C247.458 414.797 247.458 422.247 247.458 429.682C247.458 431.034 247.147 432.298 246.453 433.459C245.848 434.473 245.051 435.295 244.032 435.913C242.807 436.662 241.478 437.015 240.045 437.015C238.761 437.015 237.476 437.015 236.177 437.029C235.985 437.029 235.956 436.971 235.956 436.794C235.956 432.166 235.956 427.537 235.956 422.894C235.956 422.717 236.015 422.673 236.192 422.673C237.639 422.673 239.101 422.673 240.547 422.673C240.813 422.673 240.813 422.673 240.843 422.409C240.961 421.454 241.094 420.513 241.212 419.558C241.315 418.764 241.419 417.971 241.522 417.177C241.552 417.148 241.552 417.119 241.552 417.06Z" fill="#930345"/>
<path d="M269.25 400.029C273.414 400.029 277.578 400.015 281.741 400.029C285.374 400.044 287.721 402.336 287.736 405.936C287.751 414.297 287.751 422.658 287.736 431.019C287.736 434.678 285.374 436.971 281.682 436.971C273.355 436.971 265.027 436.971 256.685 436.971C252.92 436.971 250.602 434.693 250.587 430.946C250.572 422.658 250.572 414.371 250.587 406.069C250.602 402.263 252.905 400.015 256.759 400.015C260.923 400.029 265.086 400.029 269.25 400.029ZM283.513 429.344C283.513 425.465 283.749 421.659 283.454 417.898C283.1 413.489 278.803 411.065 274.772 412.769C273.857 413.151 273.089 413.93 272.174 414.577C272.174 413.96 272.174 413.386 272.174 412.769C270.269 412.769 268.453 412.769 266.622 412.769C266.622 418.338 266.622 423.834 266.622 429.33C268.497 429.33 270.313 429.33 272.188 429.33C272.188 427.346 272.174 425.465 272.188 423.57C272.203 422.129 272.159 420.689 272.277 419.249C272.395 417.839 273.65 416.781 275.068 416.722C276.574 416.663 277.504 417.369 277.799 418.926C277.962 419.778 278.006 420.66 278.006 421.542C278.035 424.128 278.021 426.714 278.021 429.359C279.925 429.344 281.712 429.344 283.513 429.344ZM257.925 429.344C259.801 429.344 261.587 429.344 263.418 429.344C263.418 423.79 263.418 418.309 263.418 412.769C261.558 412.769 259.756 412.769 257.925 412.769C257.925 418.309 257.925 423.775 257.925 429.344ZM260.686 410.389C262.562 410.389 263.876 409.184 263.861 407.479C263.846 405.819 262.517 404.585 260.746 404.585C258.929 404.585 257.527 405.878 257.542 407.538C257.556 409.184 258.885 410.389 260.686 410.389Z" fill="#930345"/>
<path d="M170 418.647C170 415.282 170 411.932 170.015 408.567C170.03 403.438 173.485 400.029 178.652 400.029C185.311 400.029 191.956 400.029 198.615 400.029C203.768 400.029 207.223 403.482 207.223 408.611C207.223 415.297 207.223 421.982 207.223 428.654C207.223 433.473 203.679 437 198.851 437C192.103 437 185.356 437 178.608 437C173.455 437 170 433.562 170 428.433C170 425.171 170 421.909 170 418.647ZM175.064 418.529C175.064 420.631 175.035 422.717 175.079 424.818C175.168 428.903 178.593 432.357 182.683 432.415C186.552 432.474 190.42 432.474 194.288 432.415C198.821 432.342 202.188 428.859 202.188 424.334C202.188 420.396 202.188 416.443 202.188 412.505C202.188 408.214 198.629 404.687 194.333 404.687C190.582 404.687 186.847 404.687 183.097 404.687C178.578 404.687 175.109 408.126 175.079 412.622C175.05 414.591 175.064 416.56 175.064 418.529Z" fill="#930345"/>
<path d="M177.131 418.456C177.131 416.546 177.131 414.635 177.131 412.725C177.145 409.375 179.685 406.803 183.051 406.774C186.772 406.745 190.478 406.745 194.199 406.789C197.492 406.833 200.031 409.301 200.075 412.593C200.134 416.56 200.134 420.542 200.09 424.51C200.046 427.713 197.669 430.211 194.406 430.299C190.508 430.402 186.61 430.402 182.712 430.285C179.508 430.182 177.175 427.596 177.145 424.378C177.116 422.409 177.131 420.44 177.131 418.456ZM181.191 418.515C181.191 422.614 184.498 425.906 188.603 425.906C192.752 425.906 196.074 422.526 196.059 418.324C196.045 414.033 192.988 411.138 188.485 411.124C184.425 411.138 181.191 414.4 181.191 418.515ZM196.177 409.243C195.159 409.243 194.391 409.992 194.406 410.977C194.42 411.946 195.233 412.696 196.222 412.681C197.181 412.666 197.92 411.932 197.934 410.977C197.949 409.963 197.211 409.228 196.177 409.243Z" fill="#930345"/>
<path d="M193.462 418.28C193.477 421.086 191.366 423.334 188.664 423.349C185.962 423.378 183.762 421.189 183.762 418.5C183.762 415.84 185.858 413.695 188.472 413.68C191.543 413.666 193.448 415.429 193.462 418.28Z" fill="#930345"/>
<path d="M323.57 400H295.265C292.829 400 290.836 401.969 290.836 404.408V432.577C290.836 435.002 292.814 436.985 295.265 436.985H323.57C326.006 436.985 327.999 435.016 327.999 432.577V404.408C327.999 401.969 326.006 400 323.57 400ZM320.041 416.134C319.834 416.149 319.642 416.164 319.436 416.164C317.118 416.164 315.08 414.973 313.884 413.181C313.884 417.883 313.884 423.246 313.884 423.334C313.884 427.478 310.503 430.843 306.339 430.843C302.175 430.843 298.794 427.478 298.794 423.334C298.794 419.191 302.175 415.826 306.339 415.826C306.502 415.826 306.649 415.84 306.812 415.855V419.558C306.664 419.543 306.502 419.514 306.339 419.514C304.213 419.514 302.485 421.233 302.485 423.349C302.485 425.465 304.213 427.184 306.339 427.184C308.465 427.184 310.34 425.524 310.34 423.393C310.34 423.305 310.385 406.142 310.385 406.142H313.943C314.283 409.301 316.837 411.799 320.041 412.035V416.134Z" fill="#930345"/>
</g>
<defs>
<clipPath id="clip0_1012_143">
<rect width="25.9703" height="25.9703" fill="white" transform="translate(137.271 263.485)"/>
</clipPath>
<clipPath id="clip1_1012_143">
<rect width="158" height="37" fill="white" transform="translate(170 400)"/>
</clipPath>
</defs>
</svg>
