<svg width="588" height="121" viewBox="0 0 588 121" fill="none" xmlns="http://www.w3.org/2000/svg">
<rect width="588" height="121" fill="#930345"/>
<path d="M57.9265 41.64C58.4065 42.632 59.4625 43.08 60.4545 42.824C61.5745 42.472 62.2465 41.288 61.7665 40.008L60.1665 35.944C59.6545 34.536 58.5025 33.96 57.1905 34.376C55.9425 34.76 55.3985 36.168 56.0065 37.544L57.9265 41.64ZM64.9985 41.64C65.4785 42.632 66.5345 43.08 67.5265 42.824C68.6465 42.472 69.3185 41.288 68.8385 40.008L67.2385 35.944C66.7265 34.536 65.5745 33.96 64.2625 34.376C63.0145 34.76 62.4705 36.168 63.0785 37.544L64.9985 41.64ZM67.5428 55.528C69.0148 56.744 70.7428 57.352 72.7588 57.352C77.6228 57.352 80.4388 54.504 80.4388 49.288V36.936C80.4388 35.368 79.4468 34.408 78.0708 34.408C76.6948 34.408 75.7028 35.368 75.7028 36.936V49.48C75.7028 51.752 74.6788 53 72.7908 53C71.9908 53 71.2228 52.712 70.4868 52.104C69.2388 51.176 68.0228 51.272 67.2228 52.264C66.3588 53.192 66.3908 54.6 67.5428 55.528ZM98.7225 43.592C98.9145 40.392 93.9865 40.392 94.1785 43.592V49.16C94.1785 51.752 93.4745 53.16 91.4585 53.16C89.8585 53.16 89.0585 52.136 89.0585 50.088V43.592C89.2505 40.392 84.3225 40.392 84.5145 43.592V50.44C84.5145 54.888 86.6585 57.352 90.4985 57.352C92.1945 57.352 93.4745 56.808 94.3705 55.752C94.7225 56.68 95.4265 57.16 96.4505 57.16C97.7305 57.16 98.7225 56.232 98.7225 54.728V43.592ZM103.774 54.728C103.582 57.928 108.51 57.928 108.318 54.728V49.16C108.318 46.504 109.278 45.16 111.198 45.16C112.958 45.16 113.79 46.44 113.79 48.232V54.728C113.79 56.232 114.75 57.16 116.062 57.16C117.374 57.16 118.333 56.232 118.333 54.728V47.88C118.333 43.496 115.838 40.936 111.966 40.936C110.334 40.936 109.086 41.48 108.158 42.568C107.806 41.64 107.102 41.16 106.046 41.16C104.766 41.16 103.774 42.088 103.774 43.592V54.728ZM129.149 52.84C128.093 52.744 127.549 52.232 127.549 50.92V45.512H129.085C130.493 45.512 131.357 44.616 131.357 43.432C131.357 42.248 130.493 41.32 129.085 41.32H127.549V39.208C127.773 36.008 122.845 36.008 123.037 39.208V41.32H122.461C121.053 41.32 120.189 42.248 120.189 43.432C120.189 44.616 121.053 45.512 122.461 45.512H123.037V51.464C123.037 55.208 124.861 57.064 128.509 57.064H128.925C130.493 57.064 131.357 56.168 131.357 54.984C131.357 53.8 130.589 53 129.149 52.84ZM136.433 55.016C138.001 56.584 139.985 57.352 142.353 57.352C144.721 57.352 146.705 56.584 148.273 55.016C149.841 53.448 150.641 51.496 150.641 49.16C150.641 46.824 149.841 44.872 148.241 43.304C146.673 41.736 144.689 40.936 142.353 40.936C140.017 40.936 138.033 41.736 136.433 43.304C134.865 44.872 134.065 46.824 134.065 49.16C134.065 51.496 134.865 53.448 136.433 55.016ZM139.729 46.312C140.401 45.576 141.297 45.192 142.353 45.192C143.409 45.192 144.305 45.576 144.977 46.312C145.649 47.048 146.001 48.008 146.001 49.16C146.001 50.312 145.649 51.272 144.977 52.008C144.305 52.744 143.409 53.128 142.353 53.128C141.297 53.128 140.401 52.744 139.729 52.008C139.057 51.272 138.705 50.312 138.705 49.16C138.705 48.008 139.057 47.048 139.729 46.312ZM154.814 55.624C156.19 56.776 158.078 57.352 160.478 57.352C164.478 57.352 167.038 55.272 167.038 52.296C167.038 49.384 165.086 48.008 161.886 47.112L159.87 46.568C159.102 46.344 158.75 46.152 158.75 45.672C158.75 45.16 159.326 44.808 160.222 44.808C161.15 44.808 162.046 45.064 162.878 45.608C164.126 46.344 165.214 46.056 165.886 45.032C166.494 44.04 166.206 42.888 165.054 42.12C163.774 41.32 162.238 40.936 160.414 40.936C158.718 40.936 157.278 41.384 156.094 42.312C154.91 43.208 154.334 44.392 154.334 45.896C154.334 48.424 155.966 50.024 159.454 51.016L161.214 51.528C162.27 51.816 162.622 52.072 162.622 52.584C162.622 53.192 161.854 53.544 160.862 53.544C159.454 53.544 158.302 53.192 157.438 52.52C156.286 51.592 155.294 51.624 154.43 52.584C153.63 53.48 153.758 54.696 154.814 55.624ZM188.865 49.896C191.457 49.896 193.569 49.192 195.201 47.752C196.833 46.312 197.633 44.424 197.633 42.088C197.633 39.784 196.833 37.96 195.233 36.616C193.633 35.272 191.521 34.6 188.865 34.6H182.817C180.897 34.6 179.777 35.72 179.777 37.64V54.632C179.777 56.2 180.769 57.16 182.145 57.16C183.521 57.16 184.545 56.2 184.545 54.632V49.896H188.865ZM188.033 38.984C191.329 38.984 192.897 39.976 192.897 42.184C192.897 44.392 191.265 45.512 188.033 45.512H184.545V38.984H188.033ZM202.121 55.016C203.689 56.584 205.673 57.352 208.041 57.352C210.409 57.352 212.393 56.584 213.961 55.016C215.529 53.448 216.329 51.496 216.329 49.16C216.329 46.824 215.529 44.872 213.929 43.304C212.361 41.736 210.377 40.936 208.041 40.936C205.705 40.936 203.721 41.736 202.121 43.304C200.553 44.872 199.753 46.824 199.753 49.16C199.753 51.496 200.553 53.448 202.121 55.016ZM205.417 46.312C206.089 45.576 206.985 45.192 208.041 45.192C209.097 45.192 209.993 45.576 210.665 46.312C211.337 47.048 211.689 48.008 211.689 49.16C211.689 50.312 211.337 51.272 210.665 52.008C209.993 52.744 209.097 53.128 208.041 53.128C206.985 53.128 206.089 52.744 205.417 52.008C204.745 51.272 204.393 50.312 204.393 49.16C204.393 48.008 204.745 47.048 205.417 46.312ZM229.685 41.224C229.365 41.128 228.949 41.096 228.405 41.096C227.029 41.096 225.493 41.8 224.597 43.048C224.437 41.928 223.573 41.16 222.389 41.16C221.109 41.16 220.117 42.088 220.117 43.592V54.728C219.925 57.928 224.853 57.928 224.661 54.728V50.44C224.661 47.272 226.325 45.512 228.501 45.512C228.789 45.512 229.269 45.576 229.493 45.576C230.613 45.576 231.477 44.712 231.477 43.464C231.477 42.28 230.709 41.48 229.685 41.224ZM247.505 36.968C247.505 35.4 246.513 34.44 245.137 34.44C243.761 34.44 242.769 35.4 242.769 36.968V47.048C242.769 53.736 246.289 57.352 252.177 57.352C258.065 57.352 261.585 53.736 261.585 47.048V36.968C261.585 35.4 260.593 34.44 259.217 34.44C257.841 34.44 256.849 35.4 256.849 36.968V47.208C256.849 51.08 255.281 53 252.177 53C249.105 53 247.505 50.696 247.505 47.272V36.968ZM266.055 54.728C265.863 57.928 270.791 57.928 270.599 54.728V49.16C270.599 46.504 271.559 45.16 273.479 45.16C275.239 45.16 276.071 46.44 276.071 48.232V54.728C276.071 56.232 277.031 57.16 278.343 57.16C279.655 57.16 280.615 56.232 280.615 54.728V47.88C280.615 43.496 278.119 40.936 274.247 40.936C272.615 40.936 271.367 41.48 270.439 42.568C270.087 41.64 269.383 41.16 268.327 41.16C267.047 41.16 266.055 42.088 266.055 43.592V54.728ZM294.059 54.632C294.059 56.2 295.051 57.16 296.427 57.16C297.803 57.16 298.795 56.2 298.795 54.632V47.72H308.203V54.632C308.203 56.2 309.195 57.16 310.571 57.16C311.947 57.16 312.939 56.2 312.939 54.632V36.936C312.939 35.368 311.947 34.408 310.571 34.408C309.195 34.408 308.203 35.368 308.203 36.936V43.368H298.795V36.936C298.795 35.368 297.803 34.408 296.427 34.408C295.051 34.408 294.059 35.368 294.059 36.936V54.632ZM319.246 55.016C320.814 56.584 322.798 57.352 325.166 57.352C327.534 57.352 329.518 56.584 331.086 55.016C332.654 53.448 333.454 51.496 333.454 49.16C333.454 46.824 332.654 44.872 331.054 43.304C329.486 41.736 327.502 40.936 325.166 40.936C322.83 40.936 320.846 41.736 319.246 43.304C317.678 44.872 316.878 46.824 316.878 49.16C316.878 51.496 317.678 53.448 319.246 55.016ZM322.542 46.312C323.214 45.576 324.11 45.192 325.166 45.192C326.222 45.192 327.118 45.576 327.79 46.312C328.462 47.048 328.814 48.008 328.814 49.16C328.814 50.312 328.462 51.272 327.79 52.008C327.118 52.744 326.222 53.128 325.166 53.128C324.11 53.128 323.214 52.744 322.542 52.008C321.87 51.272 321.518 50.312 321.518 49.16C321.518 48.008 321.87 47.048 322.542 46.312ZM348.086 48.808C348.086 50.984 346.55 52.52 344.598 52.52C342.678 52.52 341.142 50.984 341.142 48.808C341.142 46.6 342.678 45.064 344.598 45.064C346.55 45.064 348.086 46.6 348.086 48.808ZM338.39 61.832C339.958 62.984 341.846 63.56 344.086 63.56C346.742 63.56 348.79 62.792 350.294 61.288C351.798 59.784 352.566 57.8 352.566 55.368V43.56C352.566 42.024 351.606 41.128 350.294 41.128C349.206 41.128 348.502 41.608 348.182 42.6C347.19 41.48 345.846 40.936 344.182 40.936C342.038 40.936 340.246 41.64 338.742 43.048C337.238 44.456 336.502 46.376 336.502 48.808C336.502 51.208 337.206 53.128 338.646 54.536C340.086 55.944 341.942 56.648 344.182 56.648C345.814 56.648 347.094 56.264 347.99 55.464V55.88C347.99 57.96 346.454 59.368 344.054 59.368C343.158 59.368 342.262 59.08 341.334 58.536C339.958 57.672 338.87 57.704 338.07 58.568C337.206 59.464 337.206 60.936 338.39 61.832ZM358.011 42.568C356.955 43.432 356.731 44.712 357.467 45.576C358.139 46.472 359.291 46.568 360.475 45.768C361.275 45.224 362.139 44.968 363.099 44.968C364.699 44.968 365.499 45.768 365.499 47.368L362.619 47.496C360.859 47.56 359.355 48.008 358.171 48.84C356.987 49.672 356.411 50.888 356.411 52.52C356.411 53.928 356.891 55.08 357.883 56.008C358.875 56.904 360.123 57.352 361.691 57.352C363.259 57.352 364.603 56.808 365.691 55.72C366.043 56.68 366.747 57.16 367.803 57.16C369.083 57.16 370.075 56.232 370.075 54.728V47.208C370.075 45.256 369.467 43.752 368.219 42.632C366.971 41.512 365.371 40.936 363.419 40.936C361.211 40.936 359.387 41.48 358.011 42.568ZM360.987 52.264C360.987 51.4 361.819 50.952 363.483 50.856L365.499 50.696V52.552C364.635 53.192 363.739 53.512 362.811 53.512C361.659 53.512 360.987 53.032 360.987 52.264ZM384.467 41.224C384.147 41.128 383.731 41.096 383.187 41.096C381.811 41.096 380.275 41.8 379.379 43.048C379.219 41.928 378.355 41.16 377.171 41.16C375.891 41.16 374.899 42.088 374.899 43.592V54.728C374.707 57.928 379.635 57.928 379.443 54.728V50.44C379.443 47.272 381.107 45.512 383.283 45.512C383.571 45.512 384.051 45.576 384.275 45.576C385.395 45.576 386.259 44.712 386.259 43.464C386.259 42.28 385.491 41.48 384.467 41.224ZM406.99 49.896C409.582 49.896 411.694 49.192 413.326 47.752C414.958 46.312 415.758 44.424 415.758 42.088C415.758 39.784 414.958 37.96 413.358 36.616C411.758 35.272 409.646 34.6 406.99 34.6H400.942C399.022 34.6 397.902 35.72 397.902 37.64V54.632C397.902 56.2 398.894 57.16 400.27 57.16C401.646 57.16 402.67 56.2 402.67 54.632V49.896H406.99ZM406.158 38.984C409.454 38.984 411.022 39.976 411.022 42.184C411.022 44.392 409.39 45.512 406.158 45.512H402.67V38.984H406.158ZM419.574 42.568C418.518 43.432 418.294 44.712 419.03 45.576C419.702 46.472 420.854 46.568 422.038 45.768C422.838 45.224 423.702 44.968 424.661 44.968C426.262 44.968 427.062 45.768 427.062 47.368L424.182 47.496C422.422 47.56 420.918 48.008 419.734 48.84C418.549 49.672 417.974 50.888 417.974 52.52C417.974 53.928 418.454 55.08 419.446 56.008C420.438 56.904 421.686 57.352 423.254 57.352C424.822 57.352 426.166 56.808 427.254 55.72C427.606 56.68 428.31 57.16 429.366 57.16C430.646 57.16 431.638 56.232 431.638 54.728V47.208C431.638 45.256 431.03 43.752 429.782 42.632C428.534 41.512 426.934 40.936 424.982 40.936C422.774 40.936 420.95 41.48 419.574 42.568ZM422.55 52.264C422.55 51.4 423.382 50.952 425.046 50.856L427.062 50.696V52.552C426.198 53.192 425.302 53.512 424.374 53.512C423.222 53.512 422.55 53.032 422.55 52.264ZM446.029 41.224C445.709 41.128 445.293 41.096 444.749 41.096C443.373 41.096 441.837 41.8 440.941 43.048C440.781 41.928 439.917 41.16 438.733 41.16C437.453 41.16 436.461 42.088 436.461 43.592V54.728C436.269 57.928 441.197 57.928 441.005 54.728V50.44C441.005 47.272 442.669 45.512 444.845 45.512C445.133 45.512 445.613 45.576 445.837 45.576C446.957 45.576 447.821 44.712 447.821 43.464C447.821 42.28 447.053 41.48 446.029 41.224ZM450.824 42.568C449.768 43.432 449.544 44.712 450.28 45.576C450.952 46.472 452.104 46.568 453.288 45.768C454.088 45.224 454.952 44.968 455.911 44.968C457.512 44.968 458.312 45.768 458.312 47.368L455.432 47.496C453.672 47.56 452.168 48.008 450.984 48.84C449.799 49.672 449.224 50.888 449.224 52.52C449.224 53.928 449.704 55.08 450.696 56.008C451.688 56.904 452.936 57.352 454.504 57.352C456.072 57.352 457.416 56.808 458.504 55.72C458.856 56.68 459.56 57.16 460.616 57.16C461.896 57.16 462.888 56.232 462.888 54.728V47.208C462.888 45.256 462.28 43.752 461.032 42.632C459.784 41.512 458.184 40.936 456.232 40.936C454.024 40.936 452.2 41.48 450.824 42.568ZM453.8 52.264C453.8 51.4 454.632 50.952 456.296 50.856L458.312 50.696V52.552C457.448 53.192 456.552 53.512 455.624 53.512C454.472 53.512 453.8 53.032 453.8 52.264ZM481.905 35.912C481.361 34.824 480.433 34.28 479.185 34.28C477.489 34.28 476.497 35.368 476.497 37.128V54.632C476.497 56.2 477.489 57.16 478.865 57.16C480.241 57.16 481.233 56.2 481.233 54.632V44.264L485.041 51.56C485.585 52.616 486.449 53.16 487.601 53.16C488.753 53.16 489.617 52.616 490.193 51.528L494.001 44.264V54.632C494.001 56.2 494.993 57.16 496.369 57.16C497.745 57.16 498.737 56.2 498.737 54.632V37.128C498.737 35.368 497.745 34.28 496.049 34.28C494.769 34.28 493.873 34.824 493.329 35.912L487.601 47.144L481.905 35.912ZM504.483 42.568C503.427 43.432 503.203 44.712 503.939 45.576C504.611 46.472 505.763 46.568 506.947 45.768C507.747 45.224 508.611 44.968 509.571 44.968C511.171 44.968 511.971 45.768 511.971 47.368L509.091 47.496C507.331 47.56 505.827 48.008 504.643 48.84C503.459 49.672 502.883 50.888 502.883 52.52C502.883 53.928 503.363 55.08 504.355 56.008C505.347 56.904 506.595 57.352 508.163 57.352C509.731 57.352 511.075 56.808 512.163 55.72C512.515 56.68 513.219 57.16 514.275 57.16C515.555 57.16 516.547 56.232 516.547 54.728V47.208C516.547 45.256 515.939 43.752 514.691 42.632C513.443 41.512 511.843 40.936 509.891 40.936C507.683 40.936 505.859 41.48 504.483 42.568ZM507.459 52.264C507.459 51.4 508.291 50.952 509.955 50.856L511.971 50.696V52.552C511.107 53.192 510.211 53.512 509.283 53.512C508.131 53.512 507.459 53.032 507.459 52.264ZM511.843 37.64C512.323 37.48 512.739 37.192 513.027 36.808C513.667 35.816 513.379 34.504 512.451 33.896C511.651 33.416 510.883 33.384 510.147 33.864L507.427 35.656C507.171 35.816 506.947 36.008 506.787 36.264C506.243 37.064 506.467 38.28 507.331 38.824C507.907 39.176 508.483 39.208 509.091 38.92L511.843 37.64ZM521.408 55.624C522.784 56.776 524.672 57.352 527.072 57.352C531.072 57.352 533.632 55.272 533.632 52.296C533.632 49.384 531.68 48.008 528.48 47.112L526.464 46.568C525.696 46.344 525.344 46.152 525.344 45.672C525.344 45.16 525.92 44.808 526.816 44.808C527.744 44.808 528.64 45.064 529.472 45.608C530.72 46.344 531.808 46.056 532.48 45.032C533.088 44.04 532.8 42.888 531.648 42.12C530.368 41.32 528.832 40.936 527.008 40.936C525.312 40.936 523.872 41.384 522.688 42.312C521.504 43.208 520.928 44.392 520.928 45.896C520.928 48.424 522.56 50.024 526.048 51.016L527.808 51.528C528.864 51.816 529.216 52.072 529.216 52.584C529.216 53.192 528.448 53.544 527.456 53.544C526.048 53.544 524.896 53.192 524.032 52.52C522.88 51.592 521.888 51.624 521.024 52.584C520.224 53.48 520.352 54.696 521.408 55.624ZM236.701 85.136C238.109 85.136 239.005 84.176 239.005 82.992C239.005 81.744 238.109 80.816 236.701 80.816H228.733V75.984H237.405C238.845 75.984 239.741 75.056 239.741 73.808C239.741 72.528 238.845 71.6 237.405 71.6H227.005C225.085 71.6 223.965 72.72 223.965 74.64V91.632C223.965 93.2 224.957 94.16 226.333 94.16C227.709 94.16 228.733 93.2 228.733 91.632V85.136H236.701ZM243.417 79.568C242.361 80.432 242.137 81.712 242.873 82.576C243.545 83.472 244.697 83.568 245.881 82.768C246.681 82.224 247.545 81.968 248.505 81.968C250.105 81.968 250.905 82.768 250.905 84.368L248.025 84.496C246.265 84.56 244.761 85.008 243.577 85.84C242.393 86.672 241.817 87.888 241.817 89.52C241.817 90.928 242.297 92.08 243.289 93.008C244.281 93.904 245.529 94.352 247.097 94.352C248.665 94.352 250.009 93.808 251.097 92.72C251.449 93.68 252.153 94.16 253.209 94.16C254.489 94.16 255.481 93.232 255.481 91.728V84.208C255.481 82.256 254.873 80.752 253.625 79.632C252.377 78.512 250.777 77.936 248.825 77.936C246.617 77.936 244.793 78.48 243.417 79.568ZM246.393 89.264C246.393 88.4 247.225 87.952 248.889 87.856L250.905 87.696V89.552C250.041 90.192 249.145 90.512 248.217 90.512C247.065 90.512 246.393 90.032 246.393 89.264ZM260.305 91.728C260.113 94.928 265.041 94.928 264.849 91.728V85.968C264.849 83.536 265.777 82.16 267.569 82.16C269.137 82.16 269.969 83.312 269.969 85.072V91.728C269.777 94.928 274.705 94.928 274.513 91.728V85.648C274.513 83.472 275.537 82.16 277.233 82.16C278.801 82.16 279.633 83.312 279.633 85.072V91.728C279.441 94.928 284.369 94.928 284.177 91.728V84.88C284.177 80.432 281.809 77.936 277.617 77.936C275.729 77.936 274.161 78.576 272.913 79.824C271.825 78.576 270.385 77.936 268.561 77.936C266.929 77.936 265.617 78.48 264.689 79.568C264.337 78.64 263.633 78.16 262.577 78.16C261.297 78.16 260.305 79.088 260.305 80.592V91.728ZM288.644 73.872C288.644 75.312 289.828 76.496 291.268 76.496C292.708 76.496 293.924 75.312 293.924 73.872C293.924 72.368 292.772 71.216 291.268 71.216C289.828 71.216 288.644 72.368 288.644 73.872ZM293.54 91.728V80.592C293.54 79.088 292.58 78.16 291.268 78.16C289.956 78.16 288.996 79.088 288.996 80.592V91.728C288.996 93.232 289.956 94.16 291.268 94.16C292.58 94.16 293.54 93.232 293.54 91.728ZM303.286 73.872C303.478 70.672 298.55 70.672 298.742 73.872V91.728C298.55 94.928 303.478 94.928 303.286 91.728V73.872ZM308.113 73.872C308.113 75.312 309.297 76.496 310.737 76.496C312.177 76.496 313.393 75.312 313.393 73.872C313.393 72.368 312.241 71.216 310.737 71.216C309.297 71.216 308.113 72.368 308.113 73.872ZM313.009 91.728V80.592C313.009 79.088 312.049 78.16 310.737 78.16C309.425 78.16 308.465 79.088 308.465 80.592V91.728C308.465 93.232 309.425 94.16 310.737 94.16C312.049 94.16 313.009 93.232 313.009 91.728ZM318.667 79.568C317.611 80.432 317.387 81.712 318.123 82.576C318.795 83.472 319.947 83.568 321.131 82.768C321.931 82.224 322.795 81.968 323.755 81.968C325.355 81.968 326.155 82.768 326.155 84.368L323.275 84.496C321.515 84.56 320.011 85.008 318.827 85.84C317.643 86.672 317.067 87.888 317.067 89.52C317.067 90.928 317.547 92.08 318.539 93.008C319.531 93.904 320.779 94.352 322.347 94.352C323.915 94.352 325.259 93.808 326.347 92.72C326.699 93.68 327.403 94.16 328.459 94.16C329.739 94.16 330.731 93.232 330.731 91.728V84.208C330.731 82.256 330.123 80.752 328.875 79.632C327.627 78.512 326.027 77.936 324.075 77.936C321.867 77.936 320.043 78.48 318.667 79.568ZM321.643 89.264C321.643 88.4 322.475 87.952 324.139 87.856L326.155 87.696V89.552C325.291 90.192 324.395 90.512 323.467 90.512C322.315 90.512 321.643 90.032 321.643 89.264ZM335.595 92.624C336.971 93.776 338.859 94.352 341.259 94.352C345.259 94.352 347.819 92.272 347.819 89.296C347.819 86.384 345.867 85.008 342.667 84.112L340.651 83.568C339.883 83.344 339.531 83.152 339.531 82.672C339.531 82.16 340.107 81.808 341.003 81.808C341.931 81.808 342.827 82.064 343.659 82.608C344.907 83.344 345.995 83.056 346.667 82.032C347.275 81.04 346.987 79.888 345.835 79.12C344.555 78.32 343.019 77.936 341.195 77.936C339.499 77.936 338.059 78.384 336.875 79.312C335.691 80.208 335.115 81.392 335.115 82.896C335.115 85.424 336.747 87.024 340.235 88.016L341.995 88.528C343.051 88.816 343.403 89.072 343.403 89.584C343.403 90.192 342.635 90.544 341.643 90.544C340.235 90.544 339.083 90.192 338.219 89.52C337.067 88.592 336.075 88.624 335.211 89.584C334.411 90.48 334.539 91.696 335.595 92.624ZM356.869 74.544C357.477 73.168 356.933 71.76 355.685 71.376C354.373 70.96 353.221 71.536 352.709 72.944L351.109 77.008C350.629 78.288 351.301 79.472 352.421 79.824C353.413 80.08 354.469 79.632 354.949 78.64L356.869 74.544ZM363.941 74.544C364.549 73.168 364.005 71.76 362.757 71.376C361.445 70.96 360.293 71.536 359.781 72.944L358.181 77.008C357.701 78.288 358.373 79.472 359.493 79.824C360.485 80.08 361.541 79.632 362.021 78.64L363.941 74.544Z" fill="#F9D332"/>
</svg>
