<svg width="639" height="163" viewBox="0 0 639 163" fill="none" xmlns="http://www.w3.org/2000/svg">
<path d="M639 162.352L639 0.452637L562.318 81.4623L639 162.352Z" fill="#F9D332"/>
<path d="M562.203 162.352L562.203 0.452637L485.407 81.4623L562.203 162.352Z" fill="#F9D332"/>
<rect x="486" y="162" width="486" height="162" transform="rotate(-180 486 162)" fill="#930345"/>
<path d="M99.6301 62.784C101.898 62.784 103.746 62.168 105.174 60.908C106.602 59.648 107.302 57.996 107.302 55.952C107.302 53.936 106.602 52.34 105.202 51.164C103.802 49.988 101.954 49.4 99.6301 49.4H94.3381C92.6581 49.4 91.6781 50.38 91.6781 52.06V66.928C91.6781 68.3 92.5461 69.14 93.7501 69.14C94.9541 69.14 95.8501 68.3 95.8501 66.928V62.784H99.6301ZM98.9021 53.236C101.786 53.236 103.158 54.104 103.158 56.036C103.158 57.968 101.73 58.948 98.9021 58.948H95.8501V53.236H98.9021ZM118.777 55.196C118.497 55.112 118.133 55.084 117.657 55.084C116.453 55.084 115.109 55.7 114.325 56.792C114.185 55.812 113.429 55.14 112.393 55.14C111.273 55.14 110.405 55.952 110.405 57.268V67.012C110.237 69.812 114.549 69.812 114.381 67.012V63.26C114.381 60.488 115.837 58.948 117.741 58.948C117.993 58.948 118.413 59.004 118.609 59.004C119.589 59.004 120.345 58.248 120.345 57.156C120.345 56.12 119.673 55.42 118.777 55.196ZM123.561 67.264C124.933 68.636 126.669 69.308 128.741 69.308C130.813 69.308 132.549 68.636 133.921 67.264C135.293 65.892 135.993 64.184 135.993 62.14C135.993 60.096 135.293 58.388 133.893 57.016C132.521 55.644 130.785 54.944 128.741 54.944C126.697 54.944 124.961 55.644 123.561 57.016C122.189 58.388 121.489 60.096 121.489 62.14C121.489 64.184 122.189 65.892 123.561 67.264ZM126.445 59.648C127.033 59.004 127.817 58.668 128.741 58.668C129.665 58.668 130.449 59.004 131.037 59.648C131.625 60.292 131.933 61.132 131.933 62.14C131.933 63.148 131.625 63.988 131.037 64.632C130.449 65.276 129.665 65.612 128.741 65.612C127.817 65.612 127.033 65.276 126.445 64.632C125.857 63.988 125.549 63.148 125.549 62.14C125.549 61.132 125.857 60.292 126.445 59.648ZM148.796 61.832C148.796 63.736 147.452 65.08 145.744 65.08C144.064 65.08 142.72 63.736 142.72 61.832C142.72 59.9 144.064 58.556 145.744 58.556C147.452 58.556 148.796 59.9 148.796 61.832ZM140.312 73.228C141.684 74.236 143.336 74.74 145.296 74.74C147.62 74.74 149.412 74.068 150.728 72.752C152.044 71.436 152.716 69.7 152.716 67.572V57.24C152.716 55.896 151.876 55.112 150.728 55.112C149.776 55.112 149.16 55.532 148.88 56.4C148.012 55.42 146.836 54.944 145.38 54.944C143.504 54.944 141.936 55.56 140.62 56.792C139.304 58.024 138.66 59.704 138.66 61.832C138.66 63.932 139.276 65.612 140.536 66.844C141.796 68.076 143.42 68.692 145.38 68.692C146.808 68.692 147.928 68.356 148.712 67.656V68.02C148.712 69.84 147.368 71.072 145.268 71.072C144.484 71.072 143.7 70.82 142.888 70.344C141.684 69.588 140.732 69.616 140.032 70.372C139.276 71.156 139.276 72.444 140.312 73.228ZM165.453 55.196C165.173 55.112 164.809 55.084 164.333 55.084C163.129 55.084 161.785 55.7 161.001 56.792C160.861 55.812 160.105 55.14 159.069 55.14C157.949 55.14 157.081 55.952 157.081 57.268V67.012C156.913 69.812 161.225 69.812 161.057 67.012V63.26C161.057 60.488 162.513 58.948 164.417 58.948C164.669 58.948 165.089 59.004 165.285 59.004C166.265 59.004 167.021 58.248 167.021 57.156C167.021 56.12 166.349 55.42 165.453 55.196ZM169.648 56.372C168.724 57.128 168.528 58.248 169.172 59.004C169.76 59.788 170.768 59.872 171.804 59.172C172.504 58.696 173.26 58.472 174.1 58.472C175.5 58.472 176.2 59.172 176.2 60.572L173.68 60.684C172.14 60.74 170.824 61.132 169.788 61.86C168.752 62.588 168.248 63.652 168.248 65.08C168.248 66.312 168.668 67.32 169.536 68.132C170.404 68.916 171.496 69.308 172.868 69.308C174.24 69.308 175.416 68.832 176.368 67.88C176.676 68.72 177.292 69.14 178.216 69.14C179.336 69.14 180.204 68.328 180.204 67.012V60.432C180.204 58.724 179.672 57.408 178.58 56.428C177.488 55.448 176.088 54.944 174.38 54.944C172.448 54.944 170.852 55.42 169.648 56.372ZM172.252 64.856C172.252 64.1 172.98 63.708 174.436 63.624L176.2 63.484V65.108C175.444 65.668 174.66 65.948 173.848 65.948C172.84 65.948 172.252 65.528 172.252 64.856ZM184.425 67.012C184.257 69.812 188.569 69.812 188.401 67.012V61.972C188.401 59.844 189.213 58.64 190.781 58.64C192.153 58.64 192.881 59.648 192.881 61.188V67.012C192.713 69.812 197.025 69.812 196.857 67.012V61.692C196.857 59.788 197.753 58.64 199.237 58.64C200.609 58.64 201.337 59.648 201.337 61.188V67.012C201.169 69.812 205.481 69.812 205.313 67.012V61.02C205.313 57.128 203.241 54.944 199.573 54.944C197.921 54.944 196.549 55.504 195.457 56.596C194.505 55.504 193.245 54.944 191.649 54.944C190.221 54.944 189.073 55.42 188.261 56.372C187.953 55.56 187.337 55.14 186.413 55.14C185.293 55.14 184.425 55.952 184.425 57.268V67.012ZM209.789 56.372C208.865 57.128 208.669 58.248 209.313 59.004C209.901 59.788 210.909 59.872 211.945 59.172C212.645 58.696 213.401 58.472 214.241 58.472C215.641 58.472 216.341 59.172 216.341 60.572L213.821 60.684C212.281 60.74 210.965 61.132 209.929 61.86C208.893 62.588 208.389 63.652 208.389 65.08C208.389 66.312 208.809 67.32 209.677 68.132C210.545 68.916 211.637 69.308 213.009 69.308C214.381 69.308 215.557 68.832 216.509 67.88C216.817 68.72 217.433 69.14 218.357 69.14C219.477 69.14 220.345 68.328 220.345 67.012V60.432C220.345 58.724 219.813 57.408 218.721 56.428C217.629 55.448 216.229 54.944 214.521 54.944C212.589 54.944 210.993 55.42 209.789 56.372ZM212.393 64.856C212.393 64.1 213.121 63.708 214.577 63.624L216.341 63.484V65.108C215.585 65.668 214.801 65.948 213.989 65.948C212.981 65.948 212.393 65.528 212.393 64.856ZM245.637 51.388C245.805 48.588 241.493 48.588 241.661 51.388V56.148C240.737 55.336 239.561 54.944 238.133 54.944C236.201 54.944 234.549 55.616 233.233 56.96C231.917 58.276 231.273 60.012 231.273 62.14C231.273 64.296 231.917 66.032 233.233 67.348C234.549 68.664 236.201 69.308 238.133 69.308C239.617 69.308 241.101 68.72 241.801 67.852C242.081 68.72 242.697 69.14 243.649 69.14C244.769 69.14 245.637 68.328 245.637 67.012V51.388ZM240.793 64.716C240.205 65.388 239.449 65.724 238.525 65.724C237.601 65.724 236.845 65.388 236.229 64.716C235.641 64.044 235.333 63.176 235.333 62.14C235.333 61.104 235.641 60.236 236.229 59.564C236.845 58.892 237.601 58.556 238.525 58.556C239.449 58.556 240.205 58.892 240.793 59.564C241.409 60.236 241.717 61.104 241.717 62.14C241.717 63.176 241.409 64.044 240.793 64.716ZM262.21 60.964C262.21 59.088 261.398 57.24 259.298 55.924C258.262 55.28 257.058 54.944 255.686 54.944C253.698 54.944 252.074 55.644 250.814 57.016C249.554 58.388 248.938 60.124 248.938 62.224C248.938 64.352 249.61 66.06 250.982 67.376C252.354 68.664 254.062 69.308 256.162 69.308C257.982 69.308 259.522 68.86 260.726 67.936C261.762 67.124 261.958 66.004 261.314 65.22C260.614 64.296 259.606 64.044 258.514 64.828C257.814 65.388 257.002 65.668 256.05 65.668C254.342 65.668 253.194 64.632 252.97 63.148H259.998C261.482 63.148 262.21 62.42 262.21 60.964ZM255.77 58.444C257.086 58.444 258.01 59.34 258.094 60.488H253.166C253.418 59.284 254.342 58.444 255.77 58.444ZM273.429 67.012C273.429 68.328 274.297 69.14 275.417 69.14C276.369 69.14 276.985 68.72 277.265 67.852C277.965 68.72 279.449 69.308 280.933 69.308C282.865 69.308 284.489 68.664 285.805 67.348C287.121 66.032 287.793 64.296 287.793 62.14C287.793 60.012 287.121 58.276 285.805 56.96C284.489 55.616 282.865 54.944 280.933 54.944C279.505 54.944 278.329 55.336 277.405 56.148V51.388C277.573 48.588 273.261 48.588 273.429 51.388V67.012ZM278.245 59.564C278.861 58.892 279.617 58.556 280.541 58.556C281.465 58.556 282.221 58.892 282.809 59.564C283.425 60.236 283.733 61.104 283.733 62.14C283.733 63.176 283.425 64.044 282.809 64.716C282.221 65.388 281.465 65.724 280.541 65.724C279.617 65.724 278.861 65.388 278.245 64.716C277.657 64.044 277.349 63.176 277.349 62.14C277.349 61.104 277.657 60.236 278.245 59.564ZM290.925 51.388C290.925 52.648 291.961 53.684 293.221 53.684C294.481 53.684 295.545 52.648 295.545 51.388C295.545 50.072 294.537 49.064 293.221 49.064C291.961 49.064 290.925 50.072 290.925 51.388ZM295.209 67.012V57.268C295.209 55.952 294.369 55.14 293.221 55.14C292.073 55.14 291.233 55.952 291.233 57.268V67.012C291.233 68.328 292.073 69.14 293.221 69.14C294.369 69.14 295.209 68.328 295.209 67.012ZM311.948 60.964C311.948 59.088 311.136 57.24 309.036 55.924C308 55.28 306.796 54.944 305.424 54.944C303.436 54.944 301.812 55.644 300.552 57.016C299.292 58.388 298.676 60.124 298.676 62.224C298.676 64.352 299.348 66.06 300.72 67.376C302.092 68.664 303.8 69.308 305.9 69.308C307.72 69.308 309.26 68.86 310.464 67.936C311.5 67.124 311.696 66.004 311.052 65.22C310.352 64.296 309.344 64.044 308.252 64.828C307.552 65.388 306.74 65.668 305.788 65.668C304.08 65.668 302.932 64.632 302.708 63.148H309.736C311.22 63.148 311.948 62.42 311.948 60.964ZM305.508 58.444C306.824 58.444 307.748 59.34 307.832 60.488H302.904C303.156 59.284 304.08 58.444 305.508 58.444ZM315.347 67.012C315.179 69.812 319.491 69.812 319.323 67.012V62.14C319.323 59.816 320.163 58.64 321.843 58.64C323.383 58.64 324.111 59.76 324.111 61.328V67.012C324.111 68.328 324.951 69.14 326.099 69.14C327.247 69.14 328.087 68.328 328.087 67.012V61.02C328.087 57.184 325.903 54.944 322.515 54.944C321.087 54.944 319.995 55.42 319.183 56.372C318.875 55.56 318.259 55.14 317.335 55.14C316.215 55.14 315.347 55.952 315.347 57.268V67.012ZM344.35 60.964C344.35 59.088 343.538 57.24 341.438 55.924C340.402 55.28 339.198 54.944 337.826 54.944C335.838 54.944 334.214 55.644 332.954 57.016C331.694 58.388 331.078 60.124 331.078 62.224C331.078 64.352 331.75 66.06 333.122 67.376C334.494 68.664 336.202 69.308 338.302 69.308C340.122 69.308 341.662 68.86 342.866 67.936C343.902 67.124 344.098 66.004 343.454 65.22C342.754 64.296 341.746 64.044 340.654 64.828C339.954 65.388 339.142 65.668 338.19 65.668C336.482 65.668 335.334 64.632 335.11 63.148H342.138C343.622 63.148 344.35 62.42 344.35 60.964ZM337.91 58.444C339.226 58.444 340.15 59.34 340.234 60.488H335.306C335.558 59.284 336.482 58.444 337.91 58.444ZM348.085 67.796C349.289 68.804 350.941 69.308 353.041 69.308C356.541 69.308 358.781 67.488 358.781 64.884C358.781 62.336 357.073 61.132 354.273 60.348L352.509 59.872C351.837 59.676 351.529 59.508 351.529 59.088C351.529 58.64 352.033 58.332 352.817 58.332C353.629 58.332 354.413 58.556 355.141 59.032C356.233 59.676 357.185 59.424 357.773 58.528C358.305 57.66 358.053 56.652 357.045 55.98C355.925 55.28 354.581 54.944 352.985 54.944C351.501 54.944 350.241 55.336 349.205 56.148C348.169 56.932 347.665 57.968 347.665 59.284C347.665 61.496 349.093 62.896 352.145 63.764L353.685 64.212C354.609 64.464 354.917 64.688 354.917 65.136C354.917 65.668 354.245 65.976 353.377 65.976C352.145 65.976 351.137 65.668 350.381 65.08C349.373 64.268 348.505 64.296 347.749 65.136C347.049 65.92 347.161 66.984 348.085 67.796ZM367.656 65.36C366.732 65.276 366.256 64.828 366.256 63.68V58.948H367.6C368.832 58.948 369.588 58.164 369.588 57.128C369.588 56.092 368.832 55.28 367.6 55.28H366.256V53.432C366.452 50.632 362.14 50.632 362.308 53.432V55.28H361.804C360.572 55.28 359.816 56.092 359.816 57.128C359.816 58.164 360.572 58.948 361.804 58.948H362.308V64.156C362.308 67.432 363.904 69.056 367.096 69.056H367.46C368.832 69.056 369.588 68.272 369.588 67.236C369.588 66.2 368.916 65.5 367.656 65.36ZM373.605 56.372C372.681 57.128 372.485 58.248 373.129 59.004C373.717 59.788 374.725 59.872 375.761 59.172C376.461 58.696 377.217 58.472 378.057 58.472C379.457 58.472 380.157 59.172 380.157 60.572L377.637 60.684C376.097 60.74 374.781 61.132 373.745 61.86C372.709 62.588 372.205 63.652 372.205 65.08C372.205 66.312 372.625 67.32 373.493 68.132C374.361 68.916 375.453 69.308 376.825 69.308C378.197 69.308 379.373 68.832 380.325 67.88C380.633 68.72 381.249 69.14 382.173 69.14C383.293 69.14 384.161 68.328 384.161 67.012V60.432C384.161 58.724 383.629 57.408 382.537 56.428C381.445 55.448 380.045 54.944 378.337 54.944C376.405 54.944 374.809 55.42 373.605 56.372ZM376.209 64.856C376.209 64.1 376.937 63.708 378.393 63.624L380.157 63.484V65.108C379.401 65.668 378.617 65.948 377.805 65.948C376.797 65.948 376.209 65.528 376.209 64.856ZM396.754 55.196C396.474 55.112 396.11 55.084 395.634 55.084C394.43 55.084 393.086 55.7 392.302 56.792C392.162 55.812 391.406 55.14 390.37 55.14C389.25 55.14 388.382 55.952 388.382 57.268V67.012C388.214 69.812 392.526 69.812 392.358 67.012V63.26C392.358 60.488 393.814 58.948 395.718 58.948C395.97 58.948 396.39 59.004 396.586 59.004C397.566 59.004 398.322 58.248 398.322 57.156C398.322 56.12 397.65 55.42 396.754 55.196ZM63.7295 104.444C63.5615 107.244 67.8735 107.244 67.7055 104.444V100.104C68.6295 100.916 69.8055 101.308 71.2335 101.308C73.1655 101.308 74.7895 100.636 76.1055 99.32C77.4215 98.004 78.0935 96.268 78.0935 94.14C78.0935 91.984 77.4215 90.248 76.1055 88.932C74.7895 87.616 73.1655 86.944 71.2335 86.944C69.7495 86.944 68.2655 87.532 67.5655 88.4C67.2855 87.532 66.6695 87.112 65.7175 87.112C64.5975 87.112 63.7295 87.896 63.7295 89.24V104.444ZM68.5455 91.564C69.1615 90.892 69.9175 90.556 70.8415 90.556C71.7655 90.556 72.5215 90.892 73.1095 91.564C73.7255 92.236 74.0335 93.104 74.0335 94.14C74.0335 95.176 73.7255 96.044 73.1095 96.716C72.5215 97.388 71.7655 97.724 70.8415 97.724C69.9175 97.724 69.1615 97.388 68.5455 96.716C67.9575 96.044 67.6495 95.176 67.6495 94.14C67.6495 93.104 67.9575 92.236 68.5455 91.564ZM81.7023 99.796C82.9063 100.804 84.5583 101.308 86.6583 101.308C90.1583 101.308 92.3983 99.488 92.3983 96.884C92.3983 94.336 90.6903 93.132 87.8903 92.348L86.1263 91.872C85.4543 91.676 85.1463 91.508 85.1463 91.088C85.1463 90.64 85.6503 90.332 86.4343 90.332C87.2463 90.332 88.0303 90.556 88.7583 91.032C89.8503 91.676 90.8023 91.424 91.3903 90.528C91.9223 89.66 91.6703 88.652 90.6623 87.98C89.5423 87.28 88.1983 86.944 86.6023 86.944C85.1183 86.944 83.8583 87.336 82.8223 88.148C81.7863 88.932 81.2823 89.968 81.2823 91.284C81.2823 93.496 82.7103 94.896 85.7623 95.764L87.3023 96.212C88.2263 96.464 88.5343 96.688 88.5343 97.136C88.5343 97.668 87.8623 97.976 86.9943 97.976C85.7623 97.976 84.7543 97.668 83.9983 97.08C82.9903 96.268 82.1223 96.296 81.3663 97.136C80.6663 97.92 80.7783 98.984 81.7023 99.796ZM95.417 83.388C95.417 84.648 96.453 85.684 97.713 85.684C98.973 85.684 100.037 84.648 100.037 83.388C100.037 82.072 99.029 81.064 97.713 81.064C96.453 81.064 95.417 82.072 95.417 83.388ZM99.701 99.012V89.268C99.701 87.952 98.861 87.14 97.713 87.14C96.565 87.14 95.725 87.952 95.725 89.268V99.012C95.725 100.328 96.565 101.14 97.713 101.14C98.861 101.14 99.701 100.328 99.701 99.012ZM112.548 91.368C113.64 92.124 114.648 91.9 115.292 91.004C115.88 90.22 115.6 89.044 114.564 88.232C113.388 87.364 111.988 86.944 110.392 86.944C108.348 86.944 106.612 87.644 105.212 89.016C103.84 90.388 103.14 92.096 103.14 94.14C103.14 96.184 103.84 97.892 105.212 99.264C106.584 100.636 108.32 101.308 110.392 101.308C112.184 101.308 113.724 100.832 115.012 99.852C116.048 99.04 116.244 97.92 115.6 97.136C114.9 96.212 113.892 95.96 112.8 96.744C112.044 97.332 111.288 97.64 110.532 97.64C108.544 97.64 107.2 96.184 107.2 94.14C107.2 92.096 108.544 90.64 110.532 90.64C111.232 90.64 111.904 90.892 112.548 91.368ZM120.361 99.264C121.733 100.636 123.469 101.308 125.541 101.308C127.613 101.308 129.349 100.636 130.721 99.264C132.093 97.892 132.793 96.184 132.793 94.14C132.793 92.096 132.093 90.388 130.693 89.016C129.321 87.644 127.585 86.944 125.541 86.944C123.497 86.944 121.761 87.644 120.361 89.016C118.989 90.388 118.289 92.096 118.289 94.14C118.289 96.184 118.989 97.892 120.361 99.264ZM123.245 91.648C123.833 91.004 124.617 90.668 125.541 90.668C126.465 90.668 127.249 91.004 127.837 91.648C128.425 92.292 128.733 93.132 128.733 94.14C128.733 95.148 128.425 95.988 127.837 96.632C127.249 97.276 126.465 97.612 125.541 97.612C124.617 97.612 123.833 97.276 123.245 96.632C122.657 95.988 122.349 95.148 122.349 94.14C122.349 93.132 122.657 92.292 123.245 91.648ZM140.084 83.388C140.252 80.588 135.94 80.588 136.108 83.388V99.012C135.94 101.812 140.252 101.812 140.084 99.012V83.388ZM145.463 99.264C146.835 100.636 148.571 101.308 150.643 101.308C152.715 101.308 154.451 100.636 155.823 99.264C157.195 97.892 157.895 96.184 157.895 94.14C157.895 92.096 157.195 90.388 155.795 89.016C154.423 87.644 152.687 86.944 150.643 86.944C148.599 86.944 146.863 87.644 145.463 89.016C144.091 90.388 143.391 92.096 143.391 94.14C143.391 96.184 144.091 97.892 145.463 99.264ZM148.347 91.648C148.935 91.004 149.719 90.668 150.643 90.668C151.567 90.668 152.351 91.004 152.939 91.648C153.527 92.292 153.835 93.132 153.835 94.14C153.835 95.148 153.527 95.988 152.939 96.632C152.351 97.276 151.567 97.612 150.643 97.612C149.719 97.612 148.935 97.276 148.347 96.632C147.759 95.988 147.451 95.148 147.451 94.14C147.451 93.132 147.759 92.292 148.347 91.648ZM152.295 84.06C152.715 83.92 153.079 83.668 153.331 83.332C153.891 82.464 153.639 81.316 152.827 80.784C152.127 80.364 151.455 80.336 150.811 80.756L148.431 82.324C148.207 82.464 148.011 82.632 147.871 82.856C147.395 83.556 147.591 84.62 148.347 85.096C148.851 85.404 149.355 85.432 149.887 85.18L152.295 84.06ZM170.698 93.832C170.698 95.736 169.354 97.08 167.646 97.08C165.966 97.08 164.622 95.736 164.622 93.832C164.622 91.9 165.966 90.556 167.646 90.556C169.354 90.556 170.698 91.9 170.698 93.832ZM162.214 105.228C163.586 106.236 165.238 106.74 167.198 106.74C169.522 106.74 171.314 106.068 172.63 104.752C173.946 103.436 174.618 101.7 174.618 99.572V89.24C174.618 87.896 173.778 87.112 172.63 87.112C171.678 87.112 171.062 87.532 170.782 88.4C169.914 87.42 168.738 86.944 167.282 86.944C165.406 86.944 163.838 87.56 162.522 88.792C161.206 90.024 160.562 91.704 160.562 93.832C160.562 95.932 161.178 97.612 162.438 98.844C163.698 100.076 165.322 100.692 167.282 100.692C168.71 100.692 169.83 100.356 170.614 99.656V100.02C170.614 101.84 169.27 103.072 167.17 103.072C166.386 103.072 165.602 102.82 164.79 102.344C163.586 101.588 162.634 101.616 161.934 102.372C161.178 103.156 161.178 104.444 162.214 105.228ZM178.815 83.388C178.815 84.648 179.851 85.684 181.111 85.684C182.371 85.684 183.435 84.648 183.435 83.388C183.435 82.072 182.427 81.064 181.111 81.064C179.851 81.064 178.815 82.072 178.815 83.388ZM183.099 99.012V89.268C183.099 87.952 182.259 87.14 181.111 87.14C179.963 87.14 179.123 87.952 179.123 89.268V99.012C179.123 100.328 179.963 101.14 181.111 101.14C182.259 101.14 183.099 100.328 183.099 99.012ZM195.947 91.368C197.039 92.124 198.047 91.9 198.691 91.004C199.279 90.22 198.999 89.044 197.963 88.232C196.787 87.364 195.387 86.944 193.791 86.944C191.747 86.944 190.011 87.644 188.611 89.016C187.239 90.388 186.539 92.096 186.539 94.14C186.539 96.184 187.239 97.892 188.611 99.264C189.983 100.636 191.719 101.308 193.791 101.308C195.583 101.308 197.123 100.832 198.411 99.852C199.447 99.04 199.643 97.92 198.999 97.136C198.299 96.212 197.291 95.96 196.199 96.744C195.443 97.332 194.687 97.64 193.931 97.64C191.943 97.64 190.599 96.184 190.599 94.14C190.599 92.096 191.943 90.64 193.931 90.64C194.631 90.64 195.303 90.892 195.947 91.368ZM203.76 99.264C205.132 100.636 206.868 101.308 208.94 101.308C211.012 101.308 212.748 100.636 214.12 99.264C215.492 97.892 216.192 96.184 216.192 94.14C216.192 92.096 215.492 90.388 214.092 89.016C212.72 87.644 210.984 86.944 208.94 86.944C206.896 86.944 205.16 87.644 203.76 89.016C202.388 90.388 201.688 92.096 201.688 94.14C201.688 96.184 202.388 97.892 203.76 99.264ZM206.644 91.648C207.232 91.004 208.016 90.668 208.94 90.668C209.864 90.668 210.648 91.004 211.236 91.648C211.824 92.292 212.132 93.132 212.132 94.14C212.132 95.148 211.824 95.988 211.236 96.632C210.648 97.276 209.864 97.612 208.94 97.612C208.016 97.612 207.232 97.276 206.644 96.632C206.056 95.988 205.748 95.148 205.748 94.14C205.748 93.132 206.056 92.292 206.644 91.648ZM227.327 104.444C227.159 107.244 231.471 107.244 231.303 104.444V100.104C232.227 100.916 233.403 101.308 234.831 101.308C236.763 101.308 238.387 100.636 239.703 99.32C241.019 98.004 241.691 96.268 241.691 94.14C241.691 91.984 241.019 90.248 239.703 88.932C238.387 87.616 236.763 86.944 234.831 86.944C233.347 86.944 231.863 87.532 231.163 88.4C230.883 87.532 230.267 87.112 229.315 87.112C228.195 87.112 227.327 87.896 227.327 89.24V104.444ZM232.143 91.564C232.759 90.892 233.515 90.556 234.439 90.556C235.363 90.556 236.119 90.892 236.707 91.564C237.323 92.236 237.631 93.104 237.631 94.14C237.631 95.176 237.323 96.044 236.707 96.716C236.119 97.388 235.363 97.724 234.439 97.724C233.515 97.724 232.759 97.388 232.143 96.716C231.555 96.044 231.247 95.176 231.247 94.14C231.247 93.104 231.555 92.236 232.143 91.564ZM245.664 88.372C244.74 89.128 244.544 90.248 245.188 91.004C245.776 91.788 246.784 91.872 247.82 91.172C248.52 90.696 249.276 90.472 250.116 90.472C251.516 90.472 252.216 91.172 252.216 92.572L249.696 92.684C248.156 92.74 246.84 93.132 245.804 93.86C244.768 94.588 244.264 95.652 244.264 97.08C244.264 98.312 244.684 99.32 245.552 100.132C246.42 100.916 247.512 101.308 248.884 101.308C250.256 101.308 251.432 100.832 252.384 99.88C252.692 100.72 253.308 101.14 254.232 101.14C255.352 101.14 256.22 100.328 256.22 99.012V92.432C256.22 90.724 255.688 89.408 254.596 88.428C253.504 87.448 252.104 86.944 250.396 86.944C248.464 86.944 246.868 87.42 245.664 88.372ZM248.268 96.856C248.268 96.1 248.996 95.708 250.452 95.624L252.216 95.484V97.108C251.46 97.668 250.676 97.948 249.864 97.948C248.856 97.948 248.268 97.528 248.268 96.856ZM268.812 87.196C268.532 87.112 268.168 87.084 267.692 87.084C266.488 87.084 265.144 87.7 264.36 88.792C264.22 87.812 263.464 87.14 262.428 87.14C261.308 87.14 260.44 87.952 260.44 89.268V99.012C260.272 101.812 264.584 101.812 264.416 99.012V95.26C264.416 92.488 265.872 90.948 267.776 90.948C268.028 90.948 268.448 91.004 268.644 91.004C269.624 91.004 270.38 90.248 270.38 89.156C270.38 88.12 269.708 87.42 268.812 87.196ZM273.008 88.372C272.084 89.128 271.888 90.248 272.532 91.004C273.12 91.788 274.128 91.872 275.164 91.172C275.864 90.696 276.62 90.472 277.46 90.472C278.86 90.472 279.56 91.172 279.56 92.572L277.04 92.684C275.5 92.74 274.184 93.132 273.148 93.86C272.112 94.588 271.608 95.652 271.608 97.08C271.608 98.312 272.028 99.32 272.896 100.132C273.764 100.916 274.856 101.308 276.228 101.308C277.6 101.308 278.776 100.832 279.728 99.88C280.036 100.72 280.652 101.14 281.576 101.14C282.696 101.14 283.564 100.328 283.564 99.012V92.432C283.564 90.724 283.032 89.408 281.94 88.428C280.848 87.448 279.448 86.944 277.74 86.944C275.808 86.944 274.212 87.42 273.008 88.372ZM275.612 96.856C275.612 96.1 276.34 95.708 277.796 95.624L279.56 95.484V97.108C278.804 97.668 278.02 97.948 277.208 97.948C276.2 97.948 275.612 97.528 275.612 96.856ZM296.004 88.372C295.08 89.128 294.884 90.248 295.528 91.004C296.116 91.788 297.124 91.872 298.16 91.172C298.86 90.696 299.616 90.472 300.456 90.472C301.856 90.472 302.556 91.172 302.556 92.572L300.036 92.684C298.496 92.74 297.18 93.132 296.144 93.86C295.108 94.588 294.604 95.652 294.604 97.08C294.604 98.312 295.024 99.32 295.892 100.132C296.76 100.916 297.852 101.308 299.224 101.308C300.596 101.308 301.772 100.832 302.724 99.88C303.032 100.72 303.648 101.14 304.572 101.14C305.692 101.14 306.56 100.328 306.56 99.012V92.432C306.56 90.724 306.028 89.408 304.936 88.428C303.844 87.448 302.444 86.944 300.736 86.944C298.804 86.944 297.208 87.42 296.004 88.372ZM298.608 96.856C298.608 96.1 299.336 95.708 300.792 95.624L302.556 95.484V97.108C301.8 97.668 301.016 97.948 300.204 97.948C299.196 97.948 298.608 97.528 298.608 96.856ZM314.756 83.388C314.924 80.588 310.612 80.588 310.78 83.388V99.012C310.612 101.812 314.924 101.812 314.756 99.012V83.388ZM319.148 99.012C319.148 100.328 320.016 101.14 321.136 101.14C322.088 101.14 322.704 100.72 322.984 99.852C323.684 100.72 325.168 101.308 326.652 101.308C328.584 101.308 330.208 100.664 331.524 99.348C332.84 98.032 333.512 96.296 333.512 94.14C333.512 92.012 332.84 90.276 331.524 88.96C330.208 87.616 328.584 86.944 326.652 86.944C325.224 86.944 324.048 87.336 323.124 88.148V83.388C323.292 80.588 318.98 80.588 319.148 83.388V99.012ZM323.964 91.564C324.58 90.892 325.336 90.556 326.26 90.556C327.184 90.556 327.94 90.892 328.528 91.564C329.144 92.236 329.452 93.104 329.452 94.14C329.452 95.176 329.144 96.044 328.528 96.716C327.94 97.388 327.184 97.724 326.26 97.724C325.336 97.724 324.58 97.388 323.964 96.716C323.376 96.044 323.068 95.176 323.068 94.14C323.068 93.104 323.376 92.236 323.964 91.564ZM349.464 92.964C349.464 91.088 348.652 89.24 346.552 87.924C345.516 87.28 344.312 86.944 342.94 86.944C340.952 86.944 339.328 87.644 338.068 89.016C336.808 90.388 336.192 92.124 336.192 94.224C336.192 96.352 336.864 98.06 338.236 99.376C339.608 100.664 341.316 101.308 343.416 101.308C345.236 101.308 346.776 100.86 347.98 99.936C349.016 99.124 349.212 98.004 348.568 97.22C347.868 96.296 346.86 96.044 345.768 96.828C345.068 97.388 344.256 97.668 343.304 97.668C341.596 97.668 340.448 96.632 340.224 95.148H347.252C348.736 95.148 349.464 94.42 349.464 92.964ZM343.024 90.444C344.34 90.444 345.264 91.34 345.348 92.488H340.42C340.672 91.284 341.596 90.444 343.024 90.444ZM361.234 87.196C360.954 87.112 360.59 87.084 360.114 87.084C358.91 87.084 357.566 87.7 356.782 88.792C356.642 87.812 355.886 87.14 354.85 87.14C353.73 87.14 352.862 87.952 352.862 89.268V99.012C352.694 101.812 357.006 101.812 356.838 99.012V95.26C356.838 92.488 358.294 90.948 360.198 90.948C360.45 90.948 360.87 91.004 361.066 91.004C362.046 91.004 362.802 90.248 362.802 89.156C362.802 88.12 362.13 87.42 361.234 87.196ZM374.054 93.832C374.054 95.736 372.71 97.08 371.002 97.08C369.322 97.08 367.978 95.736 367.978 93.832C367.978 91.9 369.322 90.556 371.002 90.556C372.71 90.556 374.054 91.9 374.054 93.832ZM365.57 105.228C366.942 106.236 368.594 106.74 370.554 106.74C372.878 106.74 374.67 106.068 375.986 104.752C377.302 103.436 377.974 101.7 377.974 99.572V89.24C377.974 87.896 377.134 87.112 375.986 87.112C375.034 87.112 374.418 87.532 374.138 88.4C373.27 87.42 372.094 86.944 370.638 86.944C368.762 86.944 367.194 87.56 365.878 88.792C364.562 90.024 363.918 91.704 363.918 93.832C363.918 95.932 364.534 97.612 365.794 98.844C367.054 100.076 368.678 100.692 370.638 100.692C372.066 100.692 373.186 100.356 373.97 99.656V100.02C373.97 101.84 372.626 103.072 370.526 103.072C369.742 103.072 368.958 102.82 368.146 102.344C366.942 101.588 365.99 101.616 365.29 102.372C364.534 103.156 364.534 104.444 365.57 105.228ZM394.134 89.268C394.302 86.468 389.99 86.468 390.158 89.268V94.14C390.158 96.408 389.542 97.64 387.778 97.64C386.378 97.64 385.678 96.744 385.678 94.952V89.268C385.846 86.468 381.534 86.468 381.702 89.268V95.26C381.702 99.152 383.578 101.308 386.938 101.308C388.422 101.308 389.542 100.832 390.326 99.908C390.634 100.72 391.25 101.14 392.146 101.14C393.266 101.14 394.134 100.328 394.134 99.012V89.268ZM410.741 92.964C410.741 91.088 409.929 89.24 407.829 87.924C406.793 87.28 405.589 86.944 404.217 86.944C402.229 86.944 400.605 87.644 399.345 89.016C398.085 90.388 397.469 92.124 397.469 94.224C397.469 96.352 398.141 98.06 399.513 99.376C400.885 100.664 402.593 101.308 404.693 101.308C406.513 101.308 408.053 100.86 409.257 99.936C410.293 99.124 410.489 98.004 409.845 97.22C409.145 96.296 408.137 96.044 407.045 96.828C406.345 97.388 405.533 97.668 404.581 97.668C402.873 97.668 401.725 96.632 401.501 95.148H408.529C410.013 95.148 410.741 94.42 410.741 92.964ZM404.301 90.444C405.617 90.444 406.541 91.34 406.625 92.488H401.697C401.949 91.284 402.873 90.444 404.301 90.444ZM414.476 99.796C415.68 100.804 417.332 101.308 419.432 101.308C422.932 101.308 425.172 99.488 425.172 96.884C425.172 94.336 423.464 93.132 420.664 92.348L418.9 91.872C418.228 91.676 417.92 91.508 417.92 91.088C417.92 90.64 418.424 90.332 419.208 90.332C420.02 90.332 420.804 90.556 421.532 91.032C422.624 91.676 423.576 91.424 424.164 90.528C424.696 89.66 424.444 88.652 423.436 87.98C422.316 87.28 420.972 86.944 419.376 86.944C417.892 86.944 416.632 87.336 415.596 88.148C414.56 88.932 414.056 89.968 414.056 91.284C414.056 93.496 415.484 94.896 418.536 95.764L420.076 96.212C421 96.464 421.308 96.688 421.308 97.136C421.308 97.668 420.636 97.976 419.768 97.976C418.536 97.976 417.528 97.668 416.772 97.08C415.764 96.268 414.896 96.296 414.14 97.136C413.44 97.92 413.552 98.984 414.476 99.796Z" fill="#F9D332"/>
</svg>
