<svg width="588" height="121" viewBox="0 0 588 121" fill="none" xmlns="http://www.w3.org/2000/svg">
<rect width="588" height="121" fill="#930345"/>
<path d="M66.1521 55.528C65.0001 54.6 64.9681 53.192 65.8321 52.264C66.6321 51.272 67.8481 51.176 69.0961 52.104C69.8321 52.712 70.6001 53 71.4001 53C73.2881 53 74.3121 51.752 74.3121 49.48V36.936C74.3121 35.368 75.3041 34.408 76.6801 34.408C78.0561 34.408 79.0481 35.368 79.0481 36.936V49.288C79.0481 54.504 76.2321 57.352 71.3681 57.352C69.3521 57.352 67.6241 56.744 66.1521 55.528ZM97.3319 43.592V54.728C97.3319 56.232 96.3399 57.16 95.0599 57.16C94.0359 57.16 93.3319 56.68 92.9799 55.752C92.0839 56.808 90.8039 57.352 89.1079 57.352C85.2679 57.352 83.1239 54.888 83.1239 50.44V43.592C82.9319 40.392 87.8599 40.392 87.6679 43.592V50.088C87.6679 52.136 88.4679 53.16 90.0679 53.16C92.0839 53.16 92.7879 51.752 92.7879 49.16V43.592C92.5959 40.392 97.5239 40.392 97.3319 43.592ZM102.383 54.728V43.592C102.383 42.088 103.375 41.16 104.655 41.16C105.711 41.16 106.415 41.64 106.767 42.568C107.695 41.48 108.943 40.936 110.575 40.936C114.447 40.936 116.943 43.496 116.943 47.88V54.728C116.943 56.232 115.983 57.16 114.671 57.16C113.359 57.16 112.399 56.232 112.399 54.728V48.232C112.399 46.44 111.567 45.16 109.807 45.16C107.887 45.16 106.927 46.504 106.927 49.16V54.728C107.119 57.928 102.191 57.928 102.383 54.728ZM127.758 52.84C129.198 53 129.966 53.8 129.966 54.984C129.966 56.168 129.102 57.064 127.534 57.064H127.118C123.47 57.064 121.646 55.208 121.646 51.464V45.512H121.07C119.662 45.512 118.798 44.616 118.798 43.432C118.798 42.248 119.662 41.32 121.07 41.32H121.646V39.208C121.454 36.008 126.382 36.008 126.158 39.208V41.32H127.694C129.102 41.32 129.966 42.248 129.966 43.432C129.966 44.616 129.102 45.512 127.694 45.512H126.158V50.92C126.158 52.232 126.702 52.744 127.758 52.84ZM135.042 55.016C133.474 53.448 132.674 51.496 132.674 49.16C132.674 46.824 133.474 44.872 135.042 43.304C136.642 41.736 138.626 40.936 140.962 40.936C143.298 40.936 145.282 41.736 146.85 43.304C148.45 44.872 149.25 46.824 149.25 49.16C149.25 51.496 148.45 53.448 146.882 55.016C145.314 56.584 143.33 57.352 140.962 57.352C138.594 57.352 136.61 56.584 135.042 55.016ZM138.338 46.312C137.666 47.048 137.314 48.008 137.314 49.16C137.314 50.312 137.666 51.272 138.338 52.008C139.01 52.744 139.906 53.128 140.962 53.128C142.018 53.128 142.914 52.744 143.586 52.008C144.258 51.272 144.61 50.312 144.61 49.16C144.61 48.008 144.258 47.048 143.586 46.312C142.914 45.576 142.018 45.192 140.962 45.192C139.906 45.192 139.01 45.576 138.338 46.312ZM153.423 55.624C152.367 54.696 152.239 53.48 153.039 52.584C153.903 51.624 154.895 51.592 156.047 52.52C156.911 53.192 158.063 53.544 159.471 53.544C160.463 53.544 161.231 53.192 161.231 52.584C161.231 52.072 160.879 51.816 159.823 51.528L158.063 51.016C154.575 50.024 152.943 48.424 152.943 45.896C152.943 44.392 153.519 43.208 154.703 42.312C155.887 41.384 157.327 40.936 159.023 40.936C160.847 40.936 162.383 41.32 163.663 42.12C164.815 42.888 165.103 44.04 164.495 45.032C163.823 46.056 162.735 46.344 161.487 45.608C160.655 45.064 159.759 44.808 158.831 44.808C157.935 44.808 157.359 45.16 157.359 45.672C157.359 46.152 157.711 46.344 158.479 46.568L160.495 47.112C163.695 48.008 165.647 49.384 165.647 52.296C165.647 55.272 163.087 57.352 159.087 57.352C156.687 57.352 154.799 56.776 153.423 55.624ZM178.227 60.936V43.56C178.227 42.024 179.219 41.128 180.499 41.128C181.587 41.128 182.291 41.608 182.611 42.6C183.411 41.608 185.107 40.936 186.803 40.936C189.011 40.936 190.867 41.704 192.371 43.208C193.875 44.712 194.643 46.696 194.643 49.16C194.643 51.592 193.875 53.576 192.371 55.08C190.867 56.584 189.011 57.352 186.803 57.352C185.171 57.352 183.827 56.904 182.771 55.976V60.936C182.963 64.136 178.035 64.136 178.227 60.936ZM183.731 46.216C183.059 46.984 182.707 47.976 182.707 49.16C182.707 50.344 183.059 51.336 183.731 52.104C184.435 52.872 185.299 53.256 186.355 53.256C187.411 53.256 188.275 52.872 188.947 52.104C189.651 51.336 190.003 50.344 190.003 49.16C190.003 47.976 189.651 46.984 188.947 46.216C188.275 45.448 187.411 45.064 186.355 45.064C185.299 45.064 184.435 45.448 183.731 46.216ZM200.042 55.016C198.474 53.448 197.674 51.496 197.674 49.16C197.674 46.824 198.474 44.872 200.042 43.304C201.642 41.736 203.626 40.936 205.962 40.936C208.298 40.936 210.282 41.736 211.85 43.304C213.45 44.872 214.25 46.824 214.25 49.16C214.25 51.496 213.45 53.448 211.882 55.016C210.314 56.584 208.33 57.352 205.962 57.352C203.594 57.352 201.61 56.584 200.042 55.016ZM203.338 46.312C202.666 47.048 202.314 48.008 202.314 49.16C202.314 50.312 202.666 51.272 203.338 52.008C204.01 52.744 204.906 53.128 205.962 53.128C207.018 53.128 207.914 52.744 208.586 52.008C209.258 51.272 209.61 50.312 209.61 49.16C209.61 48.008 209.258 47.048 208.586 46.312C207.914 45.576 207.018 45.192 205.962 45.192C204.906 45.192 204.01 45.576 203.338 46.312ZM227.607 41.224C228.631 41.48 229.399 42.28 229.399 43.464C229.399 44.712 228.535 45.576 227.415 45.576C227.191 45.576 226.711 45.512 226.423 45.512C224.247 45.512 222.583 47.272 222.583 50.44V54.728C222.775 57.928 217.847 57.928 218.039 54.728V43.592C218.039 42.088 219.031 41.16 220.311 41.16C221.495 41.16 222.359 41.928 222.519 43.048C223.415 41.8 224.951 41.096 226.327 41.096C226.871 41.096 227.287 41.128 227.607 41.224ZM254.707 43.592V54.728C254.707 56.232 253.715 57.16 252.435 57.16C251.411 57.16 250.707 56.68 250.355 55.752C249.459 56.808 248.179 57.352 246.483 57.352C242.643 57.352 240.499 54.888 240.499 50.44V43.592C240.307 40.392 245.235 40.392 245.043 43.592V50.088C245.043 52.136 245.843 53.16 247.443 53.16C249.459 53.16 250.163 51.752 250.163 49.16V43.592C249.971 40.392 254.899 40.392 254.707 43.592ZM259.758 54.728V43.592C259.758 42.088 260.75 41.16 262.03 41.16C263.086 41.16 263.79 41.64 264.142 42.568C265.07 41.48 266.318 40.936 267.95 40.936C271.822 40.936 274.318 43.496 274.318 47.88V54.728C274.318 56.232 273.358 57.16 272.046 57.16C270.734 57.16 269.774 56.232 269.774 54.728V48.232C269.774 46.44 268.942 45.16 267.182 45.16C265.262 45.16 264.302 46.504 264.302 49.16V54.728C264.494 57.928 259.566 57.928 259.758 54.728ZM287.57 54.728V36.872C287.378 33.672 292.306 33.672 292.114 36.872V42.28C292.978 41.384 294.194 40.936 295.762 40.936C299.634 40.936 302.13 43.496 302.13 47.88V54.728C302.13 56.232 301.17 57.16 299.858 57.16C298.546 57.16 297.586 56.232 297.586 54.728V48.232C297.586 46.44 296.754 45.16 294.994 45.16C293.074 45.16 292.114 46.376 292.114 48.808V54.728C292.306 57.928 287.378 57.928 287.57 54.728ZM307.917 55.016C306.349 53.448 305.549 51.496 305.549 49.16C305.549 46.824 306.349 44.872 307.917 43.304C309.517 41.736 311.501 40.936 313.837 40.936C316.173 40.936 318.157 41.736 319.725 43.304C321.325 44.872 322.125 46.824 322.125 49.16C322.125 51.496 321.325 53.448 319.757 55.016C318.189 56.584 316.205 57.352 313.837 57.352C311.469 57.352 309.485 56.584 307.917 55.016ZM311.213 46.312C310.541 47.048 310.189 48.008 310.189 49.16C310.189 50.312 310.541 51.272 311.213 52.008C311.885 52.744 312.781 53.128 313.837 53.128C314.893 53.128 315.789 52.744 316.461 52.008C317.133 51.272 317.485 50.312 317.485 49.16C317.485 48.008 317.133 47.048 316.461 46.312C315.789 45.576 314.893 45.192 313.837 45.192C312.781 45.192 311.885 45.576 311.213 46.312ZM336.758 48.808C336.758 46.6 335.222 45.064 333.27 45.064C331.35 45.064 329.814 46.6 329.814 48.808C329.814 50.984 331.35 52.52 333.27 52.52C335.222 52.52 336.758 50.984 336.758 48.808ZM327.062 61.832C325.878 60.936 325.878 59.464 326.742 58.568C327.542 57.704 328.63 57.672 330.006 58.536C330.934 59.08 331.83 59.368 332.726 59.368C335.126 59.368 336.662 57.96 336.662 55.88V55.464C335.766 56.264 334.486 56.648 332.854 56.648C330.614 56.648 328.758 55.944 327.318 54.536C325.878 53.128 325.174 51.208 325.174 48.808C325.174 46.376 325.91 44.456 327.414 43.048C328.918 41.64 330.71 40.936 332.854 40.936C334.518 40.936 335.862 41.48 336.854 42.6C337.174 41.608 337.878 41.128 338.966 41.128C340.278 41.128 341.238 42.024 341.238 43.56V55.368C341.238 57.8 340.47 59.784 338.966 61.288C337.462 62.792 335.414 63.56 332.758 63.56C330.518 63.56 328.63 62.984 327.062 61.832ZM346.683 42.568C348.059 41.48 349.883 40.936 352.091 40.936C354.043 40.936 355.643 41.512 356.891 42.632C358.139 43.752 358.747 45.256 358.747 47.208V54.728C358.747 56.232 357.755 57.16 356.475 57.16C355.419 57.16 354.715 56.68 354.363 55.72C353.275 56.808 351.931 57.352 350.363 57.352C348.795 57.352 347.547 56.904 346.555 56.008C345.563 55.08 345.083 53.928 345.083 52.52C345.083 50.888 345.659 49.672 346.843 48.84C348.027 48.008 349.531 47.56 351.291 47.496L354.171 47.368C354.171 45.768 353.371 44.968 351.771 44.968C350.811 44.968 349.947 45.224 349.147 45.768C347.963 46.568 346.811 46.472 346.139 45.576C345.403 44.712 345.627 43.432 346.683 42.568ZM349.659 52.264C349.659 53.032 350.331 53.512 351.483 53.512C352.411 53.512 353.307 53.192 354.171 52.552V50.696L352.155 50.856C350.491 50.952 349.659 51.4 349.659 52.264ZM373.138 41.224C374.162 41.48 374.93 42.28 374.93 43.464C374.93 44.712 374.066 45.576 372.946 45.576C372.722 45.576 372.242 45.512 371.954 45.512C369.778 45.512 368.114 47.272 368.114 50.44V54.728C368.306 57.928 363.378 57.928 363.57 54.728V43.592C363.57 42.088 364.562 41.16 365.842 41.16C367.026 41.16 367.89 41.928 368.05 43.048C368.946 41.8 370.482 41.096 371.858 41.096C372.402 41.096 372.818 41.128 373.138 41.224ZM386.414 60.936V43.56C386.414 42.024 387.406 41.128 388.686 41.128C389.774 41.128 390.478 41.608 390.798 42.6C391.598 41.608 393.294 40.936 394.99 40.936C397.198 40.936 399.054 41.704 400.558 43.208C402.062 44.712 402.83 46.696 402.83 49.16C402.83 51.592 402.062 53.576 400.558 55.08C399.054 56.584 397.198 57.352 394.99 57.352C393.358 57.352 392.014 56.904 390.958 55.976V60.936C391.15 64.136 386.222 64.136 386.414 60.936ZM391.918 46.216C391.246 46.984 390.894 47.976 390.894 49.16C390.894 50.344 391.246 51.336 391.918 52.104C392.622 52.872 393.486 53.256 394.542 53.256C395.598 53.256 396.462 52.872 397.134 52.104C397.838 51.336 398.19 50.344 398.19 49.16C398.19 47.976 397.838 46.984 397.134 46.216C396.462 45.448 395.598 45.064 394.542 45.064C393.486 45.064 392.622 45.448 391.918 46.216ZM407.37 42.568C408.746 41.48 410.57 40.936 412.778 40.936C414.73 40.936 416.33 41.512 417.578 42.632C418.826 43.752 419.434 45.256 419.434 47.208V54.728C419.434 56.232 418.442 57.16 417.162 57.16C416.106 57.16 415.402 56.68 415.05 55.72C413.962 56.808 412.618 57.352 411.05 57.352C409.482 57.352 408.234 56.904 407.242 56.008C406.25 55.08 405.77 53.928 405.77 52.52C405.77 50.888 406.346 49.672 407.53 48.84C408.714 48.008 410.218 47.56 411.978 47.496L414.858 47.368C414.858 45.768 414.058 44.968 412.458 44.968C411.498 44.968 410.634 45.224 409.834 45.768C408.65 46.568 407.498 46.472 406.826 45.576C406.09 44.712 406.314 43.432 407.37 42.568ZM410.346 52.264C410.346 53.032 411.018 53.512 412.17 53.512C413.098 53.512 413.994 53.192 414.858 52.552V50.696L412.842 50.856C411.178 50.952 410.346 51.4 410.346 52.264ZM433.826 41.224C434.85 41.48 435.618 42.28 435.618 43.464C435.618 44.712 434.754 45.576 433.634 45.576C433.41 45.576 432.93 45.512 432.642 45.512C430.466 45.512 428.802 47.272 428.802 50.44V54.728C428.994 57.928 424.066 57.928 424.258 54.728V43.592C424.258 42.088 425.25 41.16 426.53 41.16C427.714 41.16 428.578 41.928 428.738 43.048C429.634 41.8 431.17 41.096 432.546 41.096C433.09 41.096 433.506 41.128 433.826 41.224ZM438.62 42.568C439.996 41.48 441.82 40.936 444.028 40.936C445.98 40.936 447.58 41.512 448.828 42.632C450.076 43.752 450.684 45.256 450.684 47.208V54.728C450.684 56.232 449.692 57.16 448.412 57.16C447.356 57.16 446.652 56.68 446.3 55.72C445.212 56.808 443.868 57.352 442.3 57.352C440.732 57.352 439.484 56.904 438.492 56.008C437.5 55.08 437.02 53.928 437.02 52.52C437.02 50.888 437.596 49.672 438.78 48.84C439.964 48.008 441.468 47.56 443.228 47.496L446.108 47.368C446.108 45.768 445.308 44.968 443.708 44.968C442.748 44.968 441.884 45.224 441.084 45.768C439.9 46.568 438.748 46.472 438.076 45.576C437.34 44.712 437.564 43.432 438.62 42.568ZM441.596 52.264C441.596 53.032 442.268 53.512 443.42 53.512C444.348 53.512 445.244 53.192 446.108 52.552V50.696L444.092 50.856C442.428 50.952 441.596 51.4 441.596 52.264ZM464.102 54.728V43.592C464.102 42.088 465.094 41.16 466.374 41.16C467.43 41.16 468.134 41.64 468.486 42.568C469.414 41.48 470.726 40.936 472.358 40.936C474.182 40.936 475.622 41.576 476.71 42.824C477.958 41.576 479.526 40.936 481.414 40.936C485.606 40.936 487.974 43.432 487.974 47.88V54.728C488.166 57.928 483.238 57.928 483.43 54.728V48.072C483.43 46.312 482.598 45.16 481.03 45.16C479.334 45.16 478.31 46.472 478.31 48.648V54.728C478.502 57.928 473.574 57.928 473.766 54.728V48.072C473.766 46.312 472.934 45.16 471.366 45.16C469.574 45.16 468.646 46.536 468.646 48.968V54.728C468.838 57.928 463.91 57.928 464.102 54.728ZM493.217 42.568C494.593 41.48 496.417 40.936 498.625 40.936C500.577 40.936 502.177 41.512 503.425 42.632C504.673 43.752 505.281 45.256 505.281 47.208V54.728C505.281 56.232 504.289 57.16 503.009 57.16C501.953 57.16 501.249 56.68 500.897 55.72C499.809 56.808 498.465 57.352 496.897 57.352C495.329 57.352 494.081 56.904 493.089 56.008C492.097 55.08 491.617 53.928 491.617 52.52C491.617 50.888 492.193 49.672 493.377 48.84C494.561 48.008 496.065 47.56 497.825 47.496L500.705 47.368C500.705 45.768 499.905 44.968 498.305 44.968C497.345 44.968 496.481 45.224 495.681 45.768C494.497 46.568 493.345 46.472 492.673 45.576C491.937 44.712 492.161 43.432 493.217 42.568ZM496.193 52.264C496.193 53.032 496.865 53.512 498.017 53.512C498.945 53.512 499.841 53.192 500.705 52.552V50.696L498.689 50.856C497.025 50.952 496.193 51.4 496.193 52.264ZM500.577 37.64L497.825 38.92C497.217 39.208 496.641 39.176 496.065 38.824C495.201 38.28 494.977 37.064 495.521 36.264C495.681 36.008 495.905 35.816 496.161 35.656L498.881 33.864C499.617 33.384 500.385 33.416 501.185 33.896C502.113 34.504 502.401 35.816 501.761 36.808C501.473 37.192 501.057 37.48 500.577 37.64ZM510.142 55.624C509.086 54.696 508.958 53.48 509.758 52.584C510.622 51.624 511.614 51.592 512.766 52.52C513.63 53.192 514.782 53.544 516.19 53.544C517.182 53.544 517.95 53.192 517.95 52.584C517.95 52.072 517.598 51.816 516.542 51.528L514.782 51.016C511.294 50.024 509.662 48.424 509.662 45.896C509.662 44.392 510.238 43.208 511.422 42.312C512.606 41.384 514.046 40.936 515.742 40.936C517.566 40.936 519.102 41.32 520.382 42.12C521.534 42.888 521.822 44.04 521.214 45.032C520.542 46.056 519.454 46.344 518.206 45.608C517.374 45.064 516.478 44.808 515.55 44.808C514.654 44.808 514.078 45.16 514.078 45.672C514.078 46.152 514.43 46.344 515.198 46.568L517.214 47.112C520.414 48.008 522.366 49.384 522.366 52.296C522.366 55.272 519.806 57.352 515.806 57.352C513.406 57.352 511.518 56.776 510.142 55.624ZM242.923 75.856C241.739 75.952 241.163 76.624 241.163 77.872V78.32H242.699C244.107 78.32 244.971 79.216 244.971 80.4C244.971 81.584 244.107 82.512 242.699 82.512H241.163V91.728C241.387 94.96 236.459 94.896 236.651 91.728V82.512H236.075C234.667 82.512 233.803 81.584 233.803 80.4C233.803 79.216 234.667 78.32 236.075 78.32H236.651V77.648C236.651 73.584 239.243 71.568 242.699 71.568C244.267 71.568 245.131 72.464 245.131 73.648C245.131 74.832 244.363 75.696 242.923 75.856ZM248.745 79.568C250.121 78.48 251.945 77.936 254.153 77.936C256.105 77.936 257.705 78.512 258.953 79.632C260.201 80.752 260.809 82.256 260.809 84.208V91.728C260.809 93.232 259.817 94.16 258.537 94.16C257.481 94.16 256.777 93.68 256.425 92.72C255.337 93.808 253.993 94.352 252.425 94.352C250.857 94.352 249.609 93.904 248.617 93.008C247.625 92.08 247.145 90.928 247.145 89.52C247.145 87.888 247.721 86.672 248.905 85.84C250.089 85.008 251.593 84.56 253.353 84.496L256.233 84.368C256.233 82.768 255.433 81.968 253.833 81.968C252.873 81.968 252.009 82.224 251.209 82.768C250.025 83.568 248.873 83.472 248.201 82.576C247.465 81.712 247.689 80.432 248.745 79.568ZM251.721 89.264C251.721 90.032 252.393 90.512 253.545 90.512C254.473 90.512 255.369 90.192 256.233 89.552V87.696L254.217 87.856C252.553 87.952 251.721 88.4 251.721 89.264ZM265.633 91.728V80.592C265.633 79.088 266.625 78.16 267.905 78.16C268.961 78.16 269.665 78.64 270.017 79.568C270.945 78.48 272.257 77.936 273.889 77.936C275.713 77.936 277.153 78.576 278.241 79.824C279.489 78.576 281.057 77.936 282.945 77.936C287.137 77.936 289.505 80.432 289.505 84.88V91.728C289.697 94.928 284.769 94.928 284.961 91.728V85.072C284.961 83.312 284.129 82.16 282.561 82.16C280.865 82.16 279.841 83.472 279.841 85.648V91.728C280.033 94.928 275.105 94.928 275.297 91.728V85.072C275.297 83.312 274.465 82.16 272.897 82.16C271.105 82.16 270.177 83.536 270.177 85.968V91.728C270.369 94.928 265.441 94.928 265.633 91.728ZM293.972 73.872C293.972 72.368 295.156 71.216 296.596 71.216C298.1 71.216 299.252 72.368 299.252 73.872C299.252 75.312 298.036 76.496 296.596 76.496C295.156 76.496 293.972 75.312 293.972 73.872ZM298.868 91.728C298.868 93.232 297.908 94.16 296.596 94.16C295.284 94.16 294.324 93.232 294.324 91.728V80.592C294.324 79.088 295.284 78.16 296.596 78.16C297.908 78.16 298.868 79.088 298.868 80.592V91.728ZM308.614 73.872V91.728C308.806 94.928 303.878 94.928 304.07 91.728V73.872C303.878 70.672 308.806 70.672 308.614 73.872ZM313.441 73.872C313.441 72.368 314.625 71.216 316.065 71.216C317.569 71.216 318.721 72.368 318.721 73.872C318.721 75.312 317.505 76.496 316.065 76.496C314.625 76.496 313.441 75.312 313.441 73.872ZM318.337 91.728C318.337 93.232 317.377 94.16 316.065 94.16C314.753 94.16 313.793 93.232 313.793 91.728V80.592C313.793 79.088 314.753 78.16 316.065 78.16C317.377 78.16 318.337 79.088 318.337 80.592V91.728ZM323.995 79.568C325.371 78.48 327.195 77.936 329.403 77.936C331.355 77.936 332.955 78.512 334.203 79.632C335.451 80.752 336.059 82.256 336.059 84.208V91.728C336.059 93.232 335.067 94.16 333.787 94.16C332.731 94.16 332.027 93.68 331.675 92.72C330.587 93.808 329.243 94.352 327.675 94.352C326.107 94.352 324.859 93.904 323.867 93.008C322.875 92.08 322.395 90.928 322.395 89.52C322.395 87.888 322.971 86.672 324.155 85.84C325.339 85.008 326.843 84.56 328.603 84.496L331.483 84.368C331.483 82.768 330.683 81.968 329.083 81.968C328.123 81.968 327.259 82.224 326.459 82.768C325.275 83.568 324.123 83.472 323.451 82.576C322.715 81.712 322.939 80.432 323.995 79.568ZM326.971 89.264C326.971 90.032 327.643 90.512 328.795 90.512C329.723 90.512 330.619 90.192 331.483 89.552V87.696L329.467 87.856C327.803 87.952 326.971 88.4 326.971 89.264ZM340.923 92.624C339.867 91.696 339.739 90.48 340.539 89.584C341.403 88.624 342.395 88.592 343.547 89.52C344.411 90.192 345.563 90.544 346.971 90.544C347.963 90.544 348.731 90.192 348.731 89.584C348.731 89.072 348.379 88.816 347.323 88.528L345.563 88.016C342.075 87.024 340.443 85.424 340.443 82.896C340.443 81.392 341.019 80.208 342.203 79.312C343.387 78.384 344.827 77.936 346.523 77.936C348.347 77.936 349.883 78.32 351.163 79.12C352.315 79.888 352.603 81.04 351.995 82.032C351.323 83.056 350.235 83.344 348.987 82.608C348.155 82.064 347.259 81.808 346.331 81.808C345.435 81.808 344.859 82.16 344.859 82.672C344.859 83.152 345.211 83.344 345.979 83.568L347.995 84.112C351.195 85.008 353.147 86.384 353.147 89.296C353.147 92.272 350.587 94.352 346.587 94.352C344.187 94.352 342.299 93.776 340.923 92.624Z" fill="#F9D332"/>
</svg>
