<svg width="588" height="121" viewBox="0 0 588 121" fill="none" xmlns="http://www.w3.org/2000/svg">
<rect width="588" height="121" fill="#930345"/>
<path d="M61.2146 55.528C60.0626 54.6 60.0306 53.192 60.8946 52.264C61.6946 51.272 62.9106 51.176 64.1586 52.104C64.8946 52.712 65.6626 53 66.4626 53C68.3506 53 69.3746 51.752 69.3746 49.48V36.936C69.3746 35.368 70.3666 34.408 71.7426 34.408C73.1186 34.408 74.1106 35.368 74.1106 36.936V49.288C74.1106 54.504 71.2946 57.352 66.4306 57.352C64.4146 57.352 62.6866 56.744 61.2146 55.528ZM92.3944 43.592V54.728C92.3944 56.232 91.4024 57.16 90.1224 57.16C89.0984 57.16 88.3944 56.68 88.0424 55.752C87.1464 56.808 85.8664 57.352 84.1704 57.352C80.3304 57.352 78.1864 54.888 78.1864 50.44V43.592C77.9944 40.392 82.9224 40.392 82.7304 43.592V50.088C82.7304 52.136 83.5304 53.16 85.1304 53.16C87.1464 53.16 87.8504 51.752 87.8504 49.16V43.592C87.6584 40.392 92.5864 40.392 92.3944 43.592ZM97.4454 54.728V43.592C97.4454 42.088 98.4374 41.16 99.7174 41.16C100.773 41.16 101.477 41.64 101.829 42.568C102.757 41.48 104.005 40.936 105.637 40.936C109.509 40.936 112.005 43.496 112.005 47.88V54.728C112.005 56.232 111.045 57.16 109.733 57.16C108.421 57.16 107.461 56.232 107.461 54.728V48.232C107.461 46.44 106.629 45.16 104.869 45.16C102.949 45.16 101.989 46.504 101.989 49.16V54.728C102.181 57.928 97.2534 57.928 97.4454 54.728ZM122.821 52.84C124.261 53 125.029 53.8 125.029 54.984C125.029 56.168 124.165 57.064 122.597 57.064H122.181C118.533 57.064 116.709 55.208 116.709 51.464V45.512H116.133C114.725 45.512 113.861 44.616 113.861 43.432C113.861 42.248 114.725 41.32 116.133 41.32H116.709V39.208C116.517 36.008 121.445 36.008 121.221 39.208V41.32H122.757C124.165 41.32 125.029 42.248 125.029 43.432C125.029 44.616 124.165 45.512 122.757 45.512H121.221V50.92C121.221 52.232 121.765 52.744 122.821 52.84ZM130.105 55.016C128.537 53.448 127.737 51.496 127.737 49.16C127.737 46.824 128.537 44.872 130.105 43.304C131.705 41.736 133.689 40.936 136.025 40.936C138.361 40.936 140.345 41.736 141.913 43.304C143.513 44.872 144.313 46.824 144.313 49.16C144.313 51.496 143.513 53.448 141.945 55.016C140.377 56.584 138.393 57.352 136.025 57.352C133.657 57.352 131.673 56.584 130.105 55.016ZM133.401 46.312C132.729 47.048 132.377 48.008 132.377 49.16C132.377 50.312 132.729 51.272 133.401 52.008C134.073 52.744 134.969 53.128 136.025 53.128C137.081 53.128 137.977 52.744 138.649 52.008C139.321 51.272 139.673 50.312 139.673 49.16C139.673 48.008 139.321 47.048 138.649 46.312C137.977 45.576 137.081 45.192 136.025 45.192C134.969 45.192 134.073 45.576 133.401 46.312ZM148.486 55.624C147.43 54.696 147.302 53.48 148.102 52.584C148.966 51.624 149.958 51.592 151.11 52.52C151.974 53.192 153.126 53.544 154.534 53.544C155.526 53.544 156.294 53.192 156.294 52.584C156.294 52.072 155.942 51.816 154.886 51.528L153.126 51.016C149.638 50.024 148.006 48.424 148.006 45.896C148.006 44.392 148.582 43.208 149.766 42.312C150.95 41.384 152.39 40.936 154.086 40.936C155.91 40.936 157.446 41.32 158.726 42.12C159.878 42.888 160.166 44.04 159.558 45.032C158.886 46.056 157.798 46.344 156.55 45.608C155.718 45.064 154.822 44.808 153.894 44.808C152.998 44.808 152.422 45.16 152.422 45.672C152.422 46.152 152.774 46.344 153.542 46.568L155.558 47.112C158.758 48.008 160.71 49.384 160.71 52.296C160.71 55.272 158.15 57.352 154.15 57.352C151.75 57.352 149.862 56.776 148.486 55.624ZM182.537 49.896H178.217V54.632C178.217 56.2 177.193 57.16 175.817 57.16C174.441 57.16 173.449 56.2 173.449 54.632V37.64C173.449 35.72 174.569 34.6 176.489 34.6H182.537C185.193 34.6 187.305 35.272 188.905 36.616C190.505 37.96 191.305 39.784 191.305 42.088C191.305 44.424 190.505 46.312 188.873 47.752C187.241 49.192 185.129 49.896 182.537 49.896ZM181.705 38.984H178.217V45.512H181.705C184.937 45.512 186.569 44.392 186.569 42.184C186.569 39.976 185.001 38.984 181.705 38.984ZM195.792 55.016C194.224 53.448 193.424 51.496 193.424 49.16C193.424 46.824 194.224 44.872 195.792 43.304C197.392 41.736 199.376 40.936 201.712 40.936C204.048 40.936 206.032 41.736 207.6 43.304C209.2 44.872 210 46.824 210 49.16C210 51.496 209.2 53.448 207.632 55.016C206.064 56.584 204.08 57.352 201.712 57.352C199.344 57.352 197.36 56.584 195.792 55.016ZM199.088 46.312C198.416 47.048 198.064 48.008 198.064 49.16C198.064 50.312 198.416 51.272 199.088 52.008C199.76 52.744 200.656 53.128 201.712 53.128C202.768 53.128 203.664 52.744 204.336 52.008C205.008 51.272 205.36 50.312 205.36 49.16C205.36 48.008 205.008 47.048 204.336 46.312C203.664 45.576 202.768 45.192 201.712 45.192C200.656 45.192 199.76 45.576 199.088 46.312ZM223.357 41.224C224.381 41.48 225.149 42.28 225.149 43.464C225.149 44.712 224.285 45.576 223.165 45.576C222.941 45.576 222.461 45.512 222.173 45.512C219.997 45.512 218.333 47.272 218.333 50.44V54.728C218.525 57.928 213.597 57.928 213.789 54.728V43.592C213.789 42.088 214.781 41.16 216.061 41.16C217.245 41.16 218.109 41.928 218.269 43.048C219.165 41.8 220.701 41.096 222.077 41.096C222.621 41.096 223.037 41.128 223.357 41.224ZM241.177 36.968V47.272C241.177 50.696 242.777 53 245.849 53C248.953 53 250.521 51.08 250.521 47.208V36.968C250.521 35.4 251.513 34.44 252.889 34.44C254.265 34.44 255.257 35.4 255.257 36.968V47.048C255.257 53.736 251.737 57.352 245.849 57.352C239.961 57.352 236.441 53.736 236.441 47.048V36.968C236.441 35.4 237.433 34.44 238.809 34.44C240.185 34.44 241.177 35.4 241.177 36.968ZM259.727 54.728V43.592C259.727 42.088 260.719 41.16 261.999 41.16C263.055 41.16 263.759 41.64 264.111 42.568C265.039 41.48 266.287 40.936 267.919 40.936C271.791 40.936 274.287 43.496 274.287 47.88V54.728C274.287 56.232 273.327 57.16 272.015 57.16C270.703 57.16 269.743 56.232 269.743 54.728V48.232C269.743 46.44 268.911 45.16 267.151 45.16C265.231 45.16 264.271 46.504 264.271 49.16V54.728C264.463 57.928 259.535 57.928 259.727 54.728ZM287.731 54.632V36.936C287.731 35.368 288.723 34.408 290.099 34.408C291.475 34.408 292.467 35.368 292.467 36.936V43.368H301.875V36.936C301.875 35.368 302.867 34.408 304.243 34.408C305.619 34.408 306.611 35.368 306.611 36.936V54.632C306.611 56.2 305.619 57.16 304.243 57.16C302.867 57.16 301.875 56.2 301.875 54.632V47.72H292.467V54.632C292.467 56.2 291.475 57.16 290.099 57.16C288.723 57.16 287.731 56.2 287.731 54.632ZM312.917 55.016C311.349 53.448 310.549 51.496 310.549 49.16C310.549 46.824 311.349 44.872 312.917 43.304C314.517 41.736 316.501 40.936 318.837 40.936C321.173 40.936 323.157 41.736 324.725 43.304C326.325 44.872 327.125 46.824 327.125 49.16C327.125 51.496 326.325 53.448 324.757 55.016C323.189 56.584 321.205 57.352 318.837 57.352C316.469 57.352 314.485 56.584 312.917 55.016ZM316.213 46.312C315.541 47.048 315.189 48.008 315.189 49.16C315.189 50.312 315.541 51.272 316.213 52.008C316.885 52.744 317.781 53.128 318.837 53.128C319.893 53.128 320.789 52.744 321.461 52.008C322.133 51.272 322.485 50.312 322.485 49.16C322.485 48.008 322.133 47.048 321.461 46.312C320.789 45.576 319.893 45.192 318.837 45.192C317.781 45.192 316.885 45.576 316.213 46.312ZM341.758 48.808C341.758 46.6 340.222 45.064 338.27 45.064C336.35 45.064 334.814 46.6 334.814 48.808C334.814 50.984 336.35 52.52 338.27 52.52C340.222 52.52 341.758 50.984 341.758 48.808ZM332.062 61.832C330.878 60.936 330.878 59.464 331.742 58.568C332.542 57.704 333.63 57.672 335.006 58.536C335.934 59.08 336.83 59.368 337.726 59.368C340.126 59.368 341.662 57.96 341.662 55.88V55.464C340.766 56.264 339.486 56.648 337.854 56.648C335.614 56.648 333.758 55.944 332.318 54.536C330.878 53.128 330.174 51.208 330.174 48.808C330.174 46.376 330.91 44.456 332.414 43.048C333.918 41.64 335.71 40.936 337.854 40.936C339.518 40.936 340.862 41.48 341.854 42.6C342.174 41.608 342.878 41.128 343.966 41.128C345.278 41.128 346.238 42.024 346.238 43.56V55.368C346.238 57.8 345.47 59.784 343.966 61.288C342.462 62.792 340.414 63.56 337.758 63.56C335.518 63.56 333.63 62.984 332.062 61.832ZM351.683 42.568C353.059 41.48 354.883 40.936 357.091 40.936C359.043 40.936 360.643 41.512 361.891 42.632C363.139 43.752 363.747 45.256 363.747 47.208V54.728C363.747 56.232 362.755 57.16 361.475 57.16C360.419 57.16 359.715 56.68 359.363 55.72C358.275 56.808 356.931 57.352 355.363 57.352C353.795 57.352 352.547 56.904 351.555 56.008C350.563 55.08 350.083 53.928 350.083 52.52C350.083 50.888 350.659 49.672 351.843 48.84C353.027 48.008 354.531 47.56 356.291 47.496L359.171 47.368C359.171 45.768 358.371 44.968 356.771 44.968C355.811 44.968 354.947 45.224 354.147 45.768C352.963 46.568 351.811 46.472 351.139 45.576C350.403 44.712 350.627 43.432 351.683 42.568ZM354.659 52.264C354.659 53.032 355.331 53.512 356.483 53.512C357.411 53.512 358.307 53.192 359.171 52.552V50.696L357.155 50.856C355.491 50.952 354.659 51.4 354.659 52.264ZM378.138 41.224C379.162 41.48 379.93 42.28 379.93 43.464C379.93 44.712 379.066 45.576 377.946 45.576C377.722 45.576 377.242 45.512 376.954 45.512C374.778 45.512 373.114 47.272 373.114 50.44V54.728C373.306 57.928 368.378 57.928 368.57 54.728V43.592C368.57 42.088 369.562 41.16 370.842 41.16C372.026 41.16 372.89 41.928 373.05 43.048C373.946 41.8 375.482 41.096 376.858 41.096C377.402 41.096 377.818 41.128 378.138 41.224ZM400.662 49.896H396.342V54.632C396.342 56.2 395.318 57.16 393.942 57.16C392.566 57.16 391.574 56.2 391.574 54.632V37.64C391.574 35.72 392.694 34.6 394.614 34.6H400.662C403.318 34.6 405.43 35.272 407.03 36.616C408.63 37.96 409.43 39.784 409.43 42.088C409.43 44.424 408.63 46.312 406.998 47.752C405.366 49.192 403.254 49.896 400.662 49.896ZM399.83 38.984H396.342V45.512H399.83C403.062 45.512 404.694 44.392 404.694 42.184C404.694 39.976 403.126 38.984 399.83 38.984ZM413.245 42.568C414.621 41.48 416.445 40.936 418.653 40.936C420.605 40.936 422.205 41.512 423.453 42.632C424.701 43.752 425.309 45.256 425.309 47.208V54.728C425.309 56.232 424.317 57.16 423.037 57.16C421.981 57.16 421.277 56.68 420.925 55.72C419.837 56.808 418.493 57.352 416.925 57.352C415.357 57.352 414.109 56.904 413.117 56.008C412.125 55.08 411.645 53.928 411.645 52.52C411.645 50.888 412.221 49.672 413.405 48.84C414.589 48.008 416.093 47.56 417.853 47.496L420.733 47.368C420.733 45.768 419.933 44.968 418.333 44.968C417.373 44.968 416.509 45.224 415.709 45.768C414.525 46.568 413.373 46.472 412.701 45.576C411.965 44.712 412.189 43.432 413.245 42.568ZM416.221 52.264C416.221 53.032 416.893 53.512 418.045 53.512C418.973 53.512 419.869 53.192 420.733 52.552V50.696L418.717 50.856C417.053 50.952 416.221 51.4 416.221 52.264ZM439.701 41.224C440.725 41.48 441.493 42.28 441.493 43.464C441.493 44.712 440.629 45.576 439.509 45.576C439.285 45.576 438.805 45.512 438.517 45.512C436.341 45.512 434.677 47.272 434.677 50.44V54.728C434.869 57.928 429.941 57.928 430.133 54.728V43.592C430.133 42.088 431.125 41.16 432.405 41.16C433.589 41.16 434.453 41.928 434.613 43.048C435.509 41.8 437.045 41.096 438.421 41.096C438.965 41.096 439.381 41.128 439.701 41.224ZM444.495 42.568C445.871 41.48 447.695 40.936 449.903 40.936C451.855 40.936 453.455 41.512 454.703 42.632C455.951 43.752 456.559 45.256 456.559 47.208V54.728C456.559 56.232 455.567 57.16 454.287 57.16C453.231 57.16 452.527 56.68 452.175 55.72C451.087 56.808 449.743 57.352 448.175 57.352C446.607 57.352 445.359 56.904 444.367 56.008C443.375 55.08 442.895 53.928 442.895 52.52C442.895 50.888 443.471 49.672 444.655 48.84C445.839 48.008 447.343 47.56 449.103 47.496L451.983 47.368C451.983 45.768 451.183 44.968 449.583 44.968C448.623 44.968 447.759 45.224 446.959 45.768C445.775 46.568 444.623 46.472 443.951 45.576C443.215 44.712 443.439 43.432 444.495 42.568ZM447.471 52.264C447.471 53.032 448.143 53.512 449.295 53.512C450.223 53.512 451.119 53.192 451.983 52.552V50.696L449.967 50.856C448.303 50.952 447.471 51.4 447.471 52.264ZM475.577 35.912L481.273 47.144L487.001 35.912C487.545 34.824 488.441 34.28 489.721 34.28C491.417 34.28 492.409 35.368 492.409 37.128V54.632C492.409 56.2 491.417 57.16 490.041 57.16C488.665 57.16 487.673 56.2 487.673 54.632V44.264L483.865 51.528C483.289 52.616 482.425 53.16 481.273 53.16C480.121 53.16 479.257 52.616 478.713 51.56L474.905 44.264V54.632C474.905 56.2 473.913 57.16 472.537 57.16C471.161 57.16 470.169 56.2 470.169 54.632V37.128C470.169 35.368 471.161 34.28 472.857 34.28C474.105 34.28 475.033 34.824 475.577 35.912ZM498.155 42.568C499.531 41.48 501.355 40.936 503.563 40.936C505.515 40.936 507.115 41.512 508.363 42.632C509.611 43.752 510.219 45.256 510.219 47.208V54.728C510.219 56.232 509.227 57.16 507.947 57.16C506.891 57.16 506.187 56.68 505.835 55.72C504.747 56.808 503.403 57.352 501.835 57.352C500.267 57.352 499.019 56.904 498.027 56.008C497.035 55.08 496.555 53.928 496.555 52.52C496.555 50.888 497.131 49.672 498.315 48.84C499.499 48.008 501.003 47.56 502.763 47.496L505.643 47.368C505.643 45.768 504.843 44.968 503.243 44.968C502.283 44.968 501.419 45.224 500.619 45.768C499.435 46.568 498.283 46.472 497.611 45.576C496.875 44.712 497.099 43.432 498.155 42.568ZM501.131 52.264C501.131 53.032 501.803 53.512 502.955 53.512C503.883 53.512 504.779 53.192 505.643 52.552V50.696L503.627 50.856C501.963 50.952 501.131 51.4 501.131 52.264ZM505.515 37.64L502.763 38.92C502.155 39.208 501.579 39.176 501.003 38.824C500.139 38.28 499.915 37.064 500.459 36.264C500.619 36.008 500.843 35.816 501.099 35.656L503.819 33.864C504.555 33.384 505.323 33.416 506.123 33.896C507.051 34.504 507.339 35.816 506.699 36.808C506.411 37.192 505.995 37.48 505.515 37.64ZM515.079 55.624C514.023 54.696 513.895 53.48 514.695 52.584C515.559 51.624 516.551 51.592 517.703 52.52C518.567 53.192 519.719 53.544 521.127 53.544C522.119 53.544 522.887 53.192 522.887 52.584C522.887 52.072 522.535 51.816 521.479 51.528L519.719 51.016C516.231 50.024 514.599 48.424 514.599 45.896C514.599 44.392 515.175 43.208 516.359 42.312C517.543 41.384 518.983 40.936 520.679 40.936C522.503 40.936 524.039 41.32 525.319 42.12C526.471 42.888 526.759 44.04 526.151 45.032C525.479 46.056 524.391 46.344 523.143 45.608C522.311 45.064 521.415 44.808 520.487 44.808C519.591 44.808 519.015 45.16 519.015 45.672C519.015 46.152 519.367 46.344 520.135 46.568L522.151 47.112C525.351 48.008 527.303 49.384 527.303 52.296C527.303 55.272 524.743 57.352 520.743 57.352C518.343 57.352 516.455 56.776 515.079 55.624ZM245.404 85.136H237.436V91.632C237.436 93.2 236.412 94.16 235.036 94.16C233.66 94.16 232.668 93.2 232.668 91.632V74.64C232.668 72.72 233.788 71.6 235.708 71.6H246.108C247.548 71.6 248.444 72.528 248.444 73.808C248.444 75.056 247.548 75.984 246.108 75.984H237.436V80.816H245.404C246.812 80.816 247.708 81.744 247.708 82.992C247.708 84.176 246.812 85.136 245.404 85.136ZM252.12 79.568C253.496 78.48 255.32 77.936 257.528 77.936C259.48 77.936 261.08 78.512 262.328 79.632C263.576 80.752 264.184 82.256 264.184 84.208V91.728C264.184 93.232 263.192 94.16 261.912 94.16C260.856 94.16 260.152 93.68 259.8 92.72C258.712 93.808 257.368 94.352 255.8 94.352C254.232 94.352 252.984 93.904 251.992 93.008C251 92.08 250.52 90.928 250.52 89.52C250.52 87.888 251.096 86.672 252.28 85.84C253.464 85.008 254.968 84.56 256.728 84.496L259.608 84.368C259.608 82.768 258.808 81.968 257.208 81.968C256.248 81.968 255.384 82.224 254.584 82.768C253.4 83.568 252.248 83.472 251.576 82.576C250.84 81.712 251.064 80.432 252.12 79.568ZM255.096 89.264C255.096 90.032 255.768 90.512 256.92 90.512C257.848 90.512 258.744 90.192 259.608 89.552V87.696L257.592 87.856C255.928 87.952 255.096 88.4 255.096 89.264ZM269.008 91.728V80.592C269.008 79.088 270 78.16 271.28 78.16C272.336 78.16 273.04 78.64 273.392 79.568C274.32 78.48 275.632 77.936 277.264 77.936C279.088 77.936 280.528 78.576 281.616 79.824C282.864 78.576 284.432 77.936 286.32 77.936C290.512 77.936 292.88 80.432 292.88 84.88V91.728C293.072 94.928 288.144 94.928 288.336 91.728V85.072C288.336 83.312 287.504 82.16 285.936 82.16C284.24 82.16 283.216 83.472 283.216 85.648V91.728C283.408 94.928 278.48 94.928 278.672 91.728V85.072C278.672 83.312 277.84 82.16 276.272 82.16C274.48 82.16 273.552 83.536 273.552 85.968V91.728C273.744 94.928 268.816 94.928 269.008 91.728ZM297.347 73.872C297.347 72.368 298.531 71.216 299.971 71.216C301.475 71.216 302.627 72.368 302.627 73.872C302.627 75.312 301.411 76.496 299.971 76.496C298.531 76.496 297.347 75.312 297.347 73.872ZM302.243 91.728C302.243 93.232 301.283 94.16 299.971 94.16C298.659 94.16 297.699 93.232 297.699 91.728V80.592C297.699 79.088 298.659 78.16 299.971 78.16C301.283 78.16 302.243 79.088 302.243 80.592V91.728ZM311.989 73.872V91.728C312.181 94.928 307.253 94.928 307.445 91.728V73.872C307.253 70.672 312.181 70.672 311.989 73.872ZM316.816 73.872C316.816 72.368 318 71.216 319.44 71.216C320.944 71.216 322.096 72.368 322.096 73.872C322.096 75.312 320.88 76.496 319.44 76.496C318 76.496 316.816 75.312 316.816 73.872ZM321.712 91.728C321.712 93.232 320.752 94.16 319.44 94.16C318.128 94.16 317.168 93.232 317.168 91.728V80.592C317.168 79.088 318.128 78.16 319.44 78.16C320.752 78.16 321.712 79.088 321.712 80.592V91.728ZM327.37 79.568C328.746 78.48 330.57 77.936 332.778 77.936C334.73 77.936 336.33 78.512 337.578 79.632C338.826 80.752 339.434 82.256 339.434 84.208V91.728C339.434 93.232 338.442 94.16 337.162 94.16C336.106 94.16 335.402 93.68 335.05 92.72C333.962 93.808 332.618 94.352 331.05 94.352C329.482 94.352 328.234 93.904 327.242 93.008C326.25 92.08 325.77 90.928 325.77 89.52C325.77 87.888 326.346 86.672 327.53 85.84C328.714 85.008 330.218 84.56 331.978 84.496L334.858 84.368C334.858 82.768 334.058 81.968 332.458 81.968C331.498 81.968 330.634 82.224 329.834 82.768C328.65 83.568 327.498 83.472 326.826 82.576C326.09 81.712 326.314 80.432 327.37 79.568ZM330.346 89.264C330.346 90.032 331.018 90.512 332.17 90.512C333.098 90.512 333.994 90.192 334.858 89.552V87.696L332.842 87.856C331.178 87.952 330.346 88.4 330.346 89.264ZM344.298 92.624C343.242 91.696 343.114 90.48 343.914 89.584C344.778 88.624 345.77 88.592 346.922 89.52C347.786 90.192 348.938 90.544 350.346 90.544C351.338 90.544 352.106 90.192 352.106 89.584C352.106 89.072 351.754 88.816 350.698 88.528L348.938 88.016C345.45 87.024 343.818 85.424 343.818 82.896C343.818 81.392 344.394 80.208 345.578 79.312C346.762 78.384 348.202 77.936 349.898 77.936C351.722 77.936 353.258 78.32 354.538 79.12C355.69 79.888 355.978 81.04 355.37 82.032C354.698 83.056 353.61 83.344 352.362 82.608C351.53 82.064 350.634 81.808 349.706 81.808C348.81 81.808 348.234 82.16 348.234 82.672C348.234 83.152 348.586 83.344 349.354 83.568L351.37 84.112C354.57 85.008 356.522 86.384 356.522 89.296C356.522 92.272 353.962 94.352 349.962 94.352C347.562 94.352 345.674 93.776 344.298 92.624Z" fill="#F9D332"/>
</svg>
