<svg width="245" height="298" viewBox="0 0 245 298" fill="none" xmlns="http://www.w3.org/2000/svg">
<rect width="244.793" height="297.688" fill="#F9D332"/>
<path d="M60.6283 231C63.2743 231 65.9483 229.754 65.9483 226.03C65.9483 222.306 63.2743 221.2 60.6283 221.2H58.5983C58.2483 221.2 57.9683 221.494 57.9683 221.844V230.342C57.9683 230.692 58.2483 230.986 58.5983 231H60.6283ZM60.7543 222.208C62.8683 222.208 64.8423 223.202 64.8423 226.03C64.8423 228.942 62.8683 229.992 60.7683 229.992H59.0323V222.208H60.7543ZM67.8954 222.432C68.2174 222.726 68.7074 222.726 69.0014 222.432C69.3234 222.11 69.3234 221.62 69.0014 221.326C68.7074 221.032 68.2174 221.032 67.8954 221.326C67.6014 221.62 67.6014 222.11 67.8954 222.432ZM68.9734 224.644C68.9734 224.266 68.8054 224.07 68.4554 224.07C68.1614 224.07 67.9374 224.266 67.9374 224.644V230.482C67.9374 230.874 68.1054 231.07 68.4554 231.07C68.8054 231.07 68.9734 230.874 68.9734 230.482V224.644ZM71.6129 230.482C71.6129 230.874 71.7809 231.07 72.1309 231.07C72.4809 231.07 72.6489 230.874 72.6489 230.482V227.598C72.6489 225.96 73.3769 224.938 74.7209 224.938C75.8269 224.938 76.4709 225.652 76.4709 226.926V230.482C76.4709 230.874 76.6389 231.07 76.9889 231.07C77.2829 231.07 77.5209 230.874 77.5209 230.482V227.01C77.5209 225.064 76.5409 223.972 74.7909 223.972C73.9369 223.972 73.0829 224.378 72.6209 224.98V224.644C72.6209 224.266 72.4529 224.07 72.1169 224.07C71.8369 224.07 71.6129 224.266 71.6129 224.644V230.482ZM82.6329 224.952C83.7669 224.952 84.4949 225.75 84.5089 226.968H80.4769C80.6449 225.792 81.4569 224.952 82.6329 224.952ZM85.5589 227.248C85.5589 225.708 84.7329 223.972 82.6049 223.972C81.6669 223.972 80.8969 224.322 80.2809 225.036C79.6789 225.75 79.3709 226.604 79.3709 227.612C79.3709 228.662 79.6789 229.516 80.2809 230.174C80.8969 230.832 81.7229 231.154 82.7449 231.154C83.6549 231.154 84.4389 230.832 85.0969 230.202C85.3489 229.95 85.3769 229.698 85.1669 229.46C84.9289 229.222 84.6769 229.222 84.4109 229.488C83.9489 229.95 83.3889 230.188 82.7449 230.188C81.4009 230.188 80.5329 229.334 80.4349 227.892H84.8449C85.3209 227.892 85.5589 227.682 85.5589 227.248ZM90.8706 225.036C90.9686 225.036 91.0946 225.05 91.2626 225.078C91.6406 225.134 91.8506 224.91 91.8506 224.616C91.8506 224.336 91.6966 224.168 91.3746 224.098L90.8706 224.042C89.9046 224.042 89.1626 224.364 88.6306 225.008V224.644C88.6306 224.266 88.4626 224.07 88.1266 224.07C87.8466 224.07 87.6226 224.266 87.6226 224.644V230.482C87.6226 230.874 87.7906 231.07 88.1406 231.07C88.4906 231.07 88.6586 230.874 88.6586 230.482V228.074C88.6586 225.876 89.3166 225.036 90.8706 225.036ZM96.3638 231.154C97.3578 231.154 98.1838 230.804 98.8418 230.118C99.4998 229.418 99.8358 228.564 99.8358 227.57C99.8358 226.576 99.4998 225.722 98.8278 225.022C98.1698 224.322 97.3438 223.972 96.3638 223.972C95.3838 223.972 94.5578 224.322 93.8998 225.022C93.2418 225.722 92.9198 226.576 92.9198 227.57C92.9198 228.564 93.2418 229.418 93.8998 230.118C94.5578 230.804 95.3838 231.154 96.3638 231.154ZM96.3638 230.188C95.6778 230.188 95.1038 229.936 94.6558 229.446C94.2078 228.942 93.9838 228.312 93.9838 227.57C93.9838 226.828 94.2078 226.198 94.6558 225.708C95.1038 225.204 95.6778 224.952 96.3638 224.952C97.0638 224.952 97.6378 225.204 98.0858 225.708C98.5338 226.198 98.7578 226.828 98.7578 227.57C98.7578 228.312 98.5338 228.942 98.0858 229.446C97.6378 229.936 97.0638 230.188 96.3638 230.188ZM109.451 225.036C109.549 225.036 109.675 225.05 109.843 225.078C110.221 225.134 110.431 224.91 110.431 224.616C110.431 224.336 110.277 224.168 109.955 224.098L109.451 224.042C108.485 224.042 107.743 224.364 107.211 225.008V224.644C107.211 224.266 107.043 224.07 106.707 224.07C106.427 224.07 106.203 224.266 106.203 224.644V230.482C106.203 230.874 106.371 231.07 106.721 231.07C107.071 231.07 107.239 230.874 107.239 230.482V228.074C107.239 225.876 107.897 225.036 109.451 225.036ZM114.762 224.952C115.896 224.952 116.624 225.75 116.638 226.968H112.606C112.774 225.792 113.586 224.952 114.762 224.952ZM117.688 227.248C117.688 225.708 116.862 223.972 114.734 223.972C113.796 223.972 113.026 224.322 112.41 225.036C111.808 225.75 111.5 226.604 111.5 227.612C111.5 228.662 111.808 229.516 112.41 230.174C113.026 230.832 113.852 231.154 114.874 231.154C115.784 231.154 116.568 230.832 117.226 230.202C117.478 229.95 117.506 229.698 117.296 229.46C117.058 229.222 116.806 229.222 116.54 229.488C116.078 229.95 115.518 230.188 114.874 230.188C113.53 230.188 112.662 229.334 112.564 227.892H116.974C117.45 227.892 117.688 227.682 117.688 227.248ZM124.566 225.554C124.86 225.792 125.112 225.792 125.322 225.582C125.532 225.344 125.504 225.092 125.252 224.84C124.678 224.266 123.922 223.972 122.998 223.972C122.032 223.972 121.206 224.322 120.52 225.036C119.848 225.736 119.512 226.576 119.512 227.57C119.512 228.564 119.834 229.418 120.492 230.118C121.15 230.804 121.976 231.154 122.956 231.154C123.922 231.154 124.734 230.832 125.392 230.202C125.644 229.95 125.672 229.698 125.462 229.46C125.224 229.222 124.972 229.222 124.706 229.488C124.244 229.95 123.684 230.188 123.04 230.188C121.514 230.188 120.576 229.096 120.576 227.57C120.576 226.828 120.8 226.198 121.262 225.708C121.724 225.204 122.298 224.952 122.998 224.952C123.572 224.952 124.09 225.148 124.566 225.554ZM128.341 225.666C128.873 225.176 129.419 224.938 129.993 224.938C130.987 224.938 131.589 225.498 131.589 226.548V226.758L129.713 226.982C128.201 227.15 127.179 227.92 127.179 229.138C127.179 230.384 128.131 231.154 129.419 231.154C130.329 231.154 131.155 230.748 131.617 230.23V230.496C131.617 231.252 132.625 231.252 132.625 230.496V226.66C132.625 224.924 131.645 223.972 130.007 223.972C129.125 223.972 128.201 224.42 127.641 225.022C127.403 225.302 127.417 225.568 127.627 225.75C127.837 225.932 128.075 225.904 128.341 225.666ZM128.215 229.166C128.215 228.48 128.733 228.074 129.769 227.948L131.589 227.724V229.138C131.183 229.754 130.329 230.23 129.475 230.23C128.705 230.23 128.215 229.796 128.215 229.166ZM140.608 224.658C140.608 224.266 140.44 224.07 140.09 224.07C139.74 224.07 139.572 224.266 139.572 224.658V227.528C139.572 229.292 138.928 230.174 137.626 230.174C136.52 230.174 135.904 229.488 135.904 228.2V224.658C135.904 224.266 135.736 224.07 135.386 224.07C135.036 224.07 134.868 224.266 134.868 224.658V228.116C134.868 230.076 135.75 231.154 137.486 231.154C138.368 231.154 139.082 230.818 139.614 230.146V230.496C139.614 230.874 139.782 231.07 140.104 231.07C140.398 231.07 140.608 230.874 140.608 230.496V224.658ZM144.338 225.694C144.744 225.204 145.276 224.952 145.962 224.952C146.648 224.952 147.18 225.204 147.586 225.694C147.992 226.184 148.202 226.814 148.202 227.57C148.202 228.326 147.992 228.956 147.586 229.446C147.18 229.936 146.648 230.188 145.962 230.188C145.276 230.188 144.744 229.936 144.338 229.446C143.932 228.956 143.736 228.326 143.736 227.57C143.736 226.814 143.932 226.184 144.338 225.694ZM149.21 221.718C149.21 221.326 149.042 221.13 148.692 221.13C148.342 221.13 148.174 221.326 148.174 221.718V225.05C147.558 224.336 146.788 223.972 145.864 223.972C144.926 223.972 144.17 224.322 143.568 225.022C142.966 225.708 142.672 226.562 142.672 227.57C142.672 228.578 142.966 229.432 143.568 230.118C144.17 230.804 144.926 231.154 145.864 231.154C146.802 231.154 147.572 230.79 148.202 230.062V230.496C148.202 231.252 149.21 231.252 149.21 230.496V221.718ZM152.335 225.666C152.867 225.176 153.413 224.938 153.987 224.938C154.981 224.938 155.583 225.498 155.583 226.548V226.758L153.707 226.982C152.195 227.15 151.173 227.92 151.173 229.138C151.173 230.384 152.125 231.154 153.413 231.154C154.323 231.154 155.149 230.748 155.611 230.23V230.496C155.611 231.252 156.619 231.252 156.619 230.496V226.66C156.619 224.924 155.639 223.972 154.001 223.972C153.119 223.972 152.195 224.42 151.635 225.022C151.397 225.302 151.411 225.568 151.621 225.75C151.831 225.932 152.069 225.904 152.335 225.666ZM152.209 229.166C152.209 228.48 152.727 228.074 153.763 227.948L155.583 227.724V229.138C155.177 229.754 154.323 230.23 153.469 230.23C152.699 230.23 152.209 229.796 152.209 229.166ZM160.265 225.694C160.671 225.204 161.203 224.952 161.889 224.952C162.575 224.952 163.107 225.204 163.513 225.694C163.919 226.184 164.129 226.814 164.129 227.57C164.129 228.326 163.919 228.956 163.513 229.446C163.107 229.936 162.575 230.188 161.889 230.188C161.203 230.188 160.671 229.936 160.265 229.446C159.859 228.956 159.663 228.326 159.663 227.57C159.663 226.814 159.859 226.184 160.265 225.694ZM165.137 221.718C165.137 221.326 164.969 221.13 164.619 221.13C164.269 221.13 164.101 221.326 164.101 221.718V225.05C163.485 224.336 162.715 223.972 161.791 223.972C160.853 223.972 160.097 224.322 159.495 225.022C158.893 225.708 158.599 226.562 158.599 227.57C158.599 228.578 158.893 229.432 159.495 230.118C160.097 230.804 160.853 231.154 161.791 231.154C162.729 231.154 163.499 230.79 164.129 230.062V230.496C164.129 231.252 165.137 231.252 165.137 230.496V221.718ZM170.643 231.154C171.637 231.154 172.463 230.804 173.121 230.118C173.779 229.418 174.115 228.564 174.115 227.57C174.115 226.576 173.779 225.722 173.107 225.022C172.449 224.322 171.623 223.972 170.643 223.972C169.663 223.972 168.837 224.322 168.179 225.022C167.521 225.722 167.199 226.576 167.199 227.57C167.199 228.564 167.521 229.418 168.179 230.118C168.837 230.804 169.663 231.154 170.643 231.154ZM170.643 230.188C169.957 230.188 169.383 229.936 168.935 229.446C168.487 228.942 168.263 228.312 168.263 227.57C168.263 226.828 168.487 226.198 168.935 225.708C169.383 225.204 169.957 224.952 170.643 224.952C171.343 224.952 171.917 225.204 172.365 225.708C172.813 226.198 173.037 226.828 173.037 227.57C173.037 228.312 172.813 228.942 172.365 229.446C171.917 229.936 171.343 230.188 170.643 230.188ZM183.422 224.952C184.556 224.952 185.284 225.75 185.298 226.968H181.266C181.434 225.792 182.246 224.952 183.422 224.952ZM186.348 227.248C186.348 225.708 185.522 223.972 183.394 223.972C182.456 223.972 181.686 224.322 181.07 225.036C180.468 225.75 180.16 226.604 180.16 227.612C180.16 228.662 180.468 229.516 181.07 230.174C181.686 230.832 182.512 231.154 183.534 231.154C184.444 231.154 185.228 230.832 185.886 230.202C186.138 229.95 186.166 229.698 185.956 229.46C185.718 229.222 185.466 229.222 185.2 229.488C184.738 229.95 184.178 230.188 183.534 230.188C182.19 230.188 181.322 229.334 181.224 227.892H185.634C186.11 227.892 186.348 227.682 186.348 227.248ZM48.4403 246.432C48.7623 246.726 49.2523 246.726 49.5463 246.432C49.8683 246.11 49.8683 245.62 49.5463 245.326C49.2523 245.032 48.7623 245.032 48.4403 245.326C48.1463 245.62 48.1463 246.11 48.4403 246.432ZM49.5183 248.644C49.5183 248.266 49.3503 248.07 49.0003 248.07C48.7063 248.07 48.4823 248.266 48.4823 248.644V254.482C48.4823 254.874 48.6503 255.07 49.0003 255.07C49.3503 255.07 49.5183 254.874 49.5183 254.482V248.644ZM52.1578 254.482C52.1578 254.874 52.3258 255.07 52.6758 255.07C53.0258 255.07 53.1938 254.874 53.1938 254.482V251.598C53.1938 249.96 53.9218 248.938 55.2658 248.938C56.3718 248.938 57.0158 249.652 57.0158 250.926V254.482C57.0158 254.874 57.1838 255.07 57.5338 255.07C57.8278 255.07 58.0658 254.874 58.0658 254.482V251.01C58.0658 249.064 57.0858 247.972 55.3358 247.972C54.4818 247.972 53.6278 248.378 53.1658 248.98V248.644C53.1658 248.266 52.9978 248.07 52.6618 248.07C52.3818 248.07 52.1578 248.266 52.1578 248.644V254.482ZM61.9094 254.496C62.0494 254.874 62.2874 255.07 62.6374 255.07C62.9874 255.07 63.2254 254.874 63.3794 254.482L65.5914 248.826C65.7314 248.462 65.6334 248.224 65.2974 248.098C64.9614 248 64.7234 248.126 64.5974 248.49L62.6374 253.74L60.6774 248.49C60.5514 248.126 60.3134 248 59.9774 248.098C59.6414 248.224 59.5434 248.462 59.6834 248.826L61.9094 254.496ZM69.9318 248.952C71.0658 248.952 71.7938 249.75 71.8078 250.968H67.7758C67.9438 249.792 68.7558 248.952 69.9318 248.952ZM72.8578 251.248C72.8578 249.708 72.0318 247.972 69.9038 247.972C68.9658 247.972 68.1958 248.322 67.5798 249.036C66.9778 249.75 66.6698 250.604 66.6698 251.612C66.6698 252.662 66.9778 253.516 67.5798 254.174C68.1958 254.832 69.0218 255.154 70.0438 255.154C70.9538 255.154 71.7378 254.832 72.3958 254.202C72.6478 253.95 72.6758 253.698 72.4658 253.46C72.2278 253.222 71.9758 253.222 71.7098 253.488C71.2478 253.95 70.6878 254.188 70.0438 254.188C68.6998 254.188 67.8318 253.334 67.7338 251.892H72.1438C72.6198 251.892 72.8578 251.682 72.8578 251.248ZM78.1694 249.036C78.2674 249.036 78.3934 249.05 78.5614 249.078C78.9394 249.134 79.1494 248.91 79.1494 248.616C79.1494 248.336 78.9954 248.168 78.6734 248.098L78.1694 248.042C77.2034 248.042 76.4614 248.364 75.9294 249.008V248.644C75.9294 248.266 75.7614 248.07 75.4254 248.07C75.1454 248.07 74.9214 248.266 74.9214 248.644V254.482C74.9214 254.874 75.0894 255.07 75.4394 255.07C75.7894 255.07 75.9574 254.874 75.9574 254.482V252.074C75.9574 249.876 76.6154 249.036 78.1694 249.036ZM83.4854 254.062C82.5194 254.062 82.2814 253.796 82.2814 252.788V249.092H83.4714C83.8354 249.092 84.0174 248.938 84.0174 248.616C84.0174 248.294 83.8354 248.14 83.4714 248.14H82.2814V246.74C82.2814 246.348 82.1134 246.152 81.7634 246.152C81.4134 246.152 81.2454 246.348 81.2454 246.74V248.14H80.5314C80.1674 248.14 79.9854 248.294 79.9854 248.616C79.9854 248.938 80.1674 249.092 80.5314 249.092H81.2454V252.858C81.2454 254.524 81.8894 255.014 83.4014 255.014C83.8074 255.014 84.0174 254.86 84.0174 254.538C84.0174 254.216 83.8354 254.062 83.4854 254.062ZM86.1884 246.432C86.5104 246.726 87.0004 246.726 87.2944 246.432C87.6164 246.11 87.6164 245.62 87.2944 245.326C87.0004 245.032 86.5104 245.032 86.1884 245.326C85.8944 245.62 85.8944 246.11 86.1884 246.432ZM87.2664 248.644C87.2664 248.266 87.0984 248.07 86.7484 248.07C86.4544 248.07 86.2304 248.266 86.2304 248.644V254.482C86.2304 254.874 86.3984 255.07 86.7484 255.07C87.0984 255.07 87.2664 254.874 87.2664 254.482V248.644ZM91.0994 249.694C91.5054 249.204 92.0374 248.952 92.7234 248.952C93.4094 248.952 93.9414 249.204 94.3474 249.694C94.7534 250.184 94.9634 250.814 94.9634 251.57C94.9634 252.326 94.7534 252.956 94.3474 253.446C93.9414 253.936 93.4094 254.188 92.7234 254.188C92.0374 254.188 91.5054 253.936 91.0994 253.446C90.6934 252.956 90.4974 252.326 90.4974 251.57C90.4974 250.814 90.6934 250.184 91.0994 249.694ZM95.9714 245.718C95.9714 245.326 95.8034 245.13 95.4534 245.13C95.1034 245.13 94.9354 245.326 94.9354 245.718V249.05C94.3194 248.336 93.5494 247.972 92.6254 247.972C91.6874 247.972 90.9314 248.322 90.3294 249.022C89.7274 249.708 89.4334 250.562 89.4334 251.57C89.4334 252.578 89.7274 253.432 90.3294 254.118C90.9314 254.804 91.6874 255.154 92.6254 255.154C93.5634 255.154 94.3334 254.79 94.9634 254.062V254.496C94.9634 255.252 95.9714 255.252 95.9714 254.496V245.718ZM101.477 255.154C102.471 255.154 103.297 254.804 103.955 254.118C104.613 253.418 104.949 252.564 104.949 251.57C104.949 250.576 104.613 249.722 103.941 249.022C103.283 248.322 102.457 247.972 101.477 247.972C100.497 247.972 99.671 248.322 99.013 249.022C98.355 249.722 98.033 250.576 98.033 251.57C98.033 252.564 98.355 253.418 99.013 254.118C99.671 254.804 100.497 255.154 101.477 255.154ZM101.477 254.188C100.791 254.188 100.217 253.936 99.769 253.446C99.321 252.942 99.097 252.312 99.097 251.57C99.097 250.828 99.321 250.198 99.769 249.708C100.217 249.204 100.791 248.952 101.477 248.952C102.177 248.952 102.751 249.204 103.199 249.708C103.647 250.198 103.871 250.828 103.871 251.57C103.871 252.312 103.647 252.942 103.199 253.446C102.751 253.936 102.177 254.188 101.477 254.188ZM114.256 248.952C115.39 248.952 116.118 249.75 116.132 250.968H112.1C112.268 249.792 113.08 248.952 114.256 248.952ZM117.182 251.248C117.182 249.708 116.356 247.972 114.228 247.972C113.29 247.972 112.52 248.322 111.904 249.036C111.302 249.75 110.994 250.604 110.994 251.612C110.994 252.662 111.302 253.516 111.904 254.174C112.52 254.832 113.346 255.154 114.368 255.154C115.278 255.154 116.062 254.832 116.72 254.202C116.972 253.95 117 253.698 116.79 253.46C116.552 253.222 116.3 253.222 116.034 253.488C115.572 253.95 115.012 254.188 114.368 254.188C113.024 254.188 112.156 253.334 112.058 251.892H116.468C116.944 251.892 117.182 251.682 117.182 251.248ZM119.246 254.482C119.246 254.874 119.414 255.07 119.764 255.07C120.114 255.07 120.282 254.874 120.282 254.482V251.598C120.282 249.96 121.01 248.938 122.354 248.938C123.46 248.938 124.104 249.652 124.104 250.926V254.482C124.104 254.874 124.272 255.07 124.622 255.07C124.916 255.07 125.154 254.874 125.154 254.482V251.01C125.154 249.064 124.174 247.972 122.424 247.972C121.57 247.972 120.716 248.378 120.254 248.98V248.644C120.254 248.266 120.086 248.07 119.75 248.07C119.47 248.07 119.246 248.266 119.246 248.644V254.482ZM136.504 253.432C136.098 253.922 135.566 254.174 134.88 254.174C134.194 254.174 133.648 253.922 133.242 253.432C132.836 252.942 132.64 252.312 132.64 251.556C132.64 250.8 132.836 250.17 133.242 249.68C133.648 249.19 134.194 248.938 134.88 248.938C135.566 248.938 136.098 249.19 136.504 249.68C136.91 250.17 137.106 250.8 137.106 251.556C137.106 252.312 136.91 252.942 136.504 253.432ZM131.632 257.198C131.632 257.59 131.8 257.786 132.15 257.786C132.5 257.786 132.668 257.59 132.668 257.198V254.076C133.284 254.79 134.054 255.154 134.978 255.154C135.916 255.154 136.672 254.804 137.274 254.118C137.876 253.418 138.17 252.564 138.17 251.556C138.17 250.548 137.876 249.694 137.274 249.008C136.672 248.322 135.916 247.972 134.978 247.972C134.04 247.972 133.27 248.336 132.64 249.064V248.63C132.64 247.86 131.632 247.86 131.632 248.63V257.198ZM143.48 249.036C143.578 249.036 143.704 249.05 143.872 249.078C144.25 249.134 144.46 248.91 144.46 248.616C144.46 248.336 144.306 248.168 143.984 248.098L143.48 248.042C142.514 248.042 141.772 248.364 141.24 249.008V248.644C141.24 248.266 141.072 248.07 140.736 248.07C140.456 248.07 140.232 248.266 140.232 248.644V254.482C140.232 254.874 140.4 255.07 140.75 255.07C141.1 255.07 141.268 254.874 141.268 254.482V252.074C141.268 249.876 141.926 249.036 143.48 249.036ZM148.973 255.154C149.967 255.154 150.793 254.804 151.451 254.118C152.109 253.418 152.445 252.564 152.445 251.57C152.445 250.576 152.109 249.722 151.437 249.022C150.779 248.322 149.953 247.972 148.973 247.972C147.993 247.972 147.167 248.322 146.509 249.022C145.851 249.722 145.529 250.576 145.529 251.57C145.529 252.564 145.851 253.418 146.509 254.118C147.167 254.804 147.993 255.154 148.973 255.154ZM148.973 254.188C148.287 254.188 147.713 253.936 147.265 253.446C146.817 252.942 146.593 252.312 146.593 251.57C146.593 250.828 146.817 250.198 147.265 249.708C147.713 249.204 148.287 248.952 148.973 248.952C149.673 248.952 150.247 249.204 150.695 249.708C151.143 250.198 151.367 250.828 151.367 251.57C151.367 252.312 151.143 252.942 150.695 253.446C150.247 253.936 149.673 254.188 148.973 254.188ZM155.827 257.03C155.687 257.394 155.785 257.632 156.121 257.758C156.457 257.856 156.695 257.73 156.835 257.366L160.251 248.826C160.391 248.462 160.293 248.224 159.957 248.098C159.621 248 159.383 248.126 159.243 248.49L157.171 253.838L155.057 248.49C154.917 248.126 154.679 248 154.343 248.098C153.993 248.224 153.895 248.476 154.035 248.826L156.597 255.084L155.827 257.03ZM164.514 248.952C165.648 248.952 166.376 249.75 166.39 250.968H162.358C162.526 249.792 163.338 248.952 164.514 248.952ZM167.44 251.248C167.44 249.708 166.614 247.972 164.486 247.972C163.548 247.972 162.778 248.322 162.162 249.036C161.56 249.75 161.252 250.604 161.252 251.612C161.252 252.662 161.56 253.516 162.162 254.174C162.778 254.832 163.604 255.154 164.626 255.154C165.536 255.154 166.32 254.832 166.978 254.202C167.23 253.95 167.258 253.698 167.048 253.46C166.81 253.222 166.558 253.222 166.292 253.488C165.83 253.95 165.27 254.188 164.626 254.188C163.282 254.188 162.414 253.334 162.316 251.892H166.726C167.202 251.892 167.44 251.682 167.44 251.248ZM174.318 249.554C174.612 249.792 174.864 249.792 175.074 249.582C175.284 249.344 175.256 249.092 175.004 248.84C174.43 248.266 173.674 247.972 172.75 247.972C171.784 247.972 170.958 248.322 170.272 249.036C169.6 249.736 169.264 250.576 169.264 251.57C169.264 252.564 169.586 253.418 170.244 254.118C170.902 254.804 171.728 255.154 172.708 255.154C173.674 255.154 174.486 254.832 175.144 254.202C175.396 253.95 175.424 253.698 175.214 253.46C174.976 253.222 174.724 253.222 174.458 253.488C173.996 253.95 173.436 254.188 172.792 254.188C171.266 254.188 170.328 253.096 170.328 251.57C170.328 250.828 170.552 250.198 171.014 249.708C171.476 249.204 172.05 248.952 172.75 248.952C173.324 248.952 173.842 249.148 174.318 249.554ZM179.995 254.062C179.029 254.062 178.791 253.796 178.791 252.788V249.092H179.981C180.345 249.092 180.527 248.938 180.527 248.616C180.527 248.294 180.345 248.14 179.981 248.14H178.791V246.74C178.791 246.348 178.623 246.152 178.273 246.152C177.923 246.152 177.755 246.348 177.755 246.74V248.14H177.041C176.677 248.14 176.495 248.294 176.495 248.616C176.495 248.938 176.677 249.092 177.041 249.092H177.755V252.858C177.755 254.524 178.399 255.014 179.911 255.014C180.317 255.014 180.527 254.86 180.527 254.538C180.527 254.216 180.345 254.062 179.995 254.062ZM185.545 255.154C186.539 255.154 187.365 254.804 188.023 254.118C188.681 253.418 189.017 252.564 189.017 251.57C189.017 250.576 188.681 249.722 188.009 249.022C187.351 248.322 186.525 247.972 185.545 247.972C184.565 247.972 183.739 248.322 183.081 249.022C182.423 249.722 182.101 250.576 182.101 251.57C182.101 252.564 182.423 253.418 183.081 254.118C183.739 254.804 184.565 255.154 185.545 255.154ZM185.545 254.188C184.859 254.188 184.285 253.936 183.837 253.446C183.389 252.942 183.165 252.312 183.165 251.57C183.165 250.828 183.389 250.198 183.837 249.708C184.285 249.204 184.859 248.952 185.545 248.952C186.245 248.952 186.819 249.204 187.267 249.708C187.715 250.198 187.939 250.828 187.939 251.57C187.939 252.312 187.715 252.942 187.267 253.446C186.819 253.936 186.245 254.188 185.545 254.188ZM194.928 249.47C195.25 249.736 195.502 249.75 195.712 249.526C195.95 249.274 195.922 249.022 195.642 248.756C195.082 248.238 194.382 247.972 193.556 247.972C192.912 247.972 192.352 248.154 191.89 248.504C191.428 248.854 191.19 249.33 191.19 249.946C191.19 250.954 191.834 251.612 193.136 251.92L194.158 252.158C194.872 252.326 195.236 252.662 195.236 253.152C195.236 253.81 194.662 254.202 193.696 254.202C193.01 254.202 192.422 253.964 191.918 253.474C191.68 253.236 191.428 253.222 191.19 253.46C190.966 253.684 190.98 253.922 191.218 254.188C191.848 254.832 192.674 255.154 193.71 255.154C195.264 255.154 196.272 254.314 196.272 253.096C196.272 252.116 195.628 251.472 194.326 251.164L193.248 250.912C192.562 250.758 192.226 250.422 192.226 249.904C192.226 249.33 192.744 248.938 193.486 248.938C194.032 248.938 194.508 249.12 194.928 249.47Z" fill="#930345"/>
<circle cx="127.5" cy="97.4997" r="77.9997" fill="white" stroke="white" stroke-width="9"/>
<!-- <text x="85" y="100" fill="#930345" class="data-number">S/ 100,000 +</text> -->
<mask id="path-4-inside-1_773_175" fill="white">
<path fill-rule="evenodd" clip-rule="evenodd" d="M157.297 20.5689C144.48 15.6046 130.657 13.9326 117.084 15.6602C113.797 16.0786 111.697 19.2666 112.353 22.5147L112.426 22.875C113.081 26.1207 116.242 28.1948 119.532 27.8226C122.147 27.5268 124.806 27.3749 127.5 27.3749C166.229 27.3749 197.625 58.7708 197.625 97.4997C197.625 136.229 166.229 167.624 127.5 167.624C99.6171 167.624 75.5347 151.351 64.2334 127.783C62.8008 124.795 59.3623 123.216 56.2624 124.386L55.9285 124.512C52.8283 125.682 51.2436 129.155 52.6358 132.162C58.3843 144.578 67.146 155.4 78.1621 163.62C90.7849 173.039 105.84 178.648 121.549 179.785C137.258 180.921 152.963 177.537 166.81 170.032C180.657 162.528 192.067 151.216 199.69 137.435C207.314 123.653 210.834 107.977 209.834 92.2595C208.833 76.5416 203.355 61.4384 194.045 48.7346C184.735 36.0309 171.984 26.2573 157.297 20.5689Z"/>
</mask>
<path fill-rule="evenodd" clip-rule="evenodd" d="M157.297 20.5689C144.48 15.6046 130.657 13.9326 117.084 15.6602C113.797 16.0786 111.697 19.2666 112.353 22.5147L112.426 22.875C113.081 26.1207 116.242 28.1948 119.532 27.8226C122.147 27.5268 124.806 27.3749 127.5 27.3749C166.229 27.3749 197.625 58.7708 197.625 97.4997C197.625 136.229 166.229 167.624 127.5 167.624C99.6171 167.624 75.5347 151.351 64.2334 127.783C62.8008 124.795 59.3623 123.216 56.2624 124.386L55.9285 124.512C52.8283 125.682 51.2436 129.155 52.6358 132.162C58.3843 144.578 67.146 155.4 78.1621 163.62C90.7849 173.039 105.84 178.648 121.549 179.785C137.258 180.921 152.963 177.537 166.81 170.032C180.657 162.528 192.067 151.216 199.69 137.435C207.314 123.653 210.834 107.977 209.834 92.2595C208.833 76.5416 203.355 61.4384 194.045 48.7346C184.735 36.0309 171.984 26.2573 157.297 20.5689Z" fill="white"/>
<path d="M157.297 20.5689L154.047 28.9614H154.047L157.297 20.5689ZM78.1621 163.62L72.7797 170.833L78.1621 163.62ZM166.81 170.032L171.099 177.945H171.099L166.81 170.032ZM199.69 137.435L191.815 133.078L199.69 137.435ZM209.834 92.2595L218.815 91.6879L209.834 92.2595ZM194.045 48.7346L186.786 54.0545L194.045 48.7346ZM64.2334 127.783L56.1182 131.674L64.2334 127.783ZM56.2624 124.386L59.4403 132.806L56.2624 124.386ZM112.426 22.875L103.604 24.6571L112.426 22.875ZM119.532 27.8226L118.521 18.8796L119.532 27.8226ZM112.353 22.5147L103.531 24.2968L112.353 22.5147ZM118.221 24.5882C130.313 23.0491 142.628 24.5387 154.047 28.9614L160.548 12.1764C146.333 6.67055 131.001 4.81619 115.948 6.73224L118.221 24.5882ZM121.247 21.0929L121.175 20.7326L103.531 24.2968L103.604 24.6571L121.247 21.0929ZM120.544 36.7656C122.824 36.5077 125.145 36.3749 127.5 36.3749V18.3749C124.467 18.3749 121.471 18.5459 118.521 18.8796L120.544 36.7656ZM127.5 36.3749C161.259 36.3749 188.625 63.7414 188.625 97.4997H206.625C206.625 53.8003 171.2 18.3749 127.5 18.3749V36.3749ZM188.625 97.4997C188.625 131.258 161.259 158.624 127.5 158.624V176.624C171.2 176.624 206.625 141.199 206.625 97.4997H188.625ZM127.5 158.624C103.209 158.624 82.2096 144.455 72.3487 123.891L56.1182 131.674C68.8598 158.246 96.025 176.624 127.5 176.624V158.624ZM59.1064 132.932L59.4403 132.806L53.0845 115.966L52.7506 116.092L59.1064 132.932ZM83.5445 156.407C73.7302 149.084 65.9243 139.442 60.8029 128.381L44.4687 135.944C50.8443 149.714 60.5618 161.717 72.7797 170.833L83.5445 156.407ZM122.198 170.808C108.203 169.796 94.7903 164.799 83.5445 156.407L72.7797 170.833C86.7796 181.28 103.477 187.501 120.9 188.761L122.198 170.808ZM162.522 162.12C150.186 168.805 136.193 171.82 122.198 170.808L120.9 188.761C138.322 190.021 155.741 186.268 171.099 177.945L162.522 162.12ZM191.815 133.078C185.023 145.356 174.858 155.434 162.522 162.12L171.099 177.945C186.456 169.622 199.11 157.076 207.566 141.791L191.815 133.078ZM200.852 92.8312C201.743 106.834 198.607 120.8 191.815 133.078L207.566 141.791C216.021 126.506 219.925 109.121 218.815 91.6879L200.852 92.8312ZM186.786 54.0545C195.08 65.3724 199.961 78.8279 200.852 92.8312L218.815 91.6879C217.706 74.2552 211.63 57.5045 201.304 43.4148L186.786 54.0545ZM154.047 28.9614C167.131 34.0293 178.492 42.7366 186.786 54.0545L201.304 43.4148C190.979 29.3251 176.837 18.4854 160.548 12.1764L154.047 28.9614ZM72.3487 123.891C69.1104 117.138 61.001 112.978 53.0845 115.966L59.4403 132.806C58.635 133.11 57.8364 133.02 57.2754 132.775C56.745 132.544 56.3469 132.151 56.1182 131.674L72.3487 123.891ZM52.7506 116.092C45.1772 118.95 40.6964 127.796 44.4687 135.944L60.8029 128.381C61.7907 130.515 60.4793 132.414 59.1064 132.932L52.7506 116.092ZM103.604 24.6571C105.278 32.943 113.1 37.6075 120.544 36.7656L118.521 18.8796C119.047 18.82 119.593 18.9494 120.072 19.2767C120.578 19.6228 121.077 20.251 121.247 21.0929L103.604 24.6571ZM115.948 6.73224C107.041 7.86593 101.928 16.3623 103.531 24.2968L121.175 20.7326C121.465 22.1709 120.553 24.2913 118.221 24.5882L115.948 6.73224Z" fill="white" mask="url(#path-4-inside-1_773_175)"/>
</svg>
