<svg width="245" height="298" viewBox="0 0 245 298" fill="none" xmlns="http://www.w3.org/2000/svg">
<rect width="244.793" height="297.688" fill="#F9D332"/>
<path d="M75.3574 242.04L71.3894 235.432V241.816C71.3894 242.6 70.8934 243.08 70.2054 243.08C69.5174 243.08 69.0214 242.6 69.0214 241.816V233.544C69.0214 232.376 69.6774 231.704 70.7654 231.704C71.5814 231.704 72.0134 232.04 72.4454 232.744L76.4134 239.352V232.968C76.4134 232.184 76.9094 231.704 77.5974 231.704C78.2854 231.704 78.7814 232.184 78.7814 232.968V241.24C78.7814 242.408 78.1254 243.08 77.0374 243.08C76.2214 243.08 75.7894 242.744 75.3574 242.04ZM81.1111 232.936C81.1111 232.184 81.7031 231.608 82.4231 231.608C83.1751 231.608 83.7511 232.184 83.7511 232.936C83.7511 233.656 83.1431 234.248 82.4231 234.248C81.7031 234.248 81.1111 233.656 81.1111 232.936ZM83.5591 241.864C83.5591 242.616 83.0791 243.08 82.4231 243.08C81.7671 243.08 81.2871 242.616 81.2871 241.864V236.296C81.2871 235.544 81.7671 235.08 82.4231 235.08C83.0791 235.08 83.5591 235.544 83.5591 236.296V241.864ZM85.9883 236.296C85.9883 235.544 86.4843 235.08 87.1243 235.08C87.6523 235.08 88.0043 235.32 88.1803 235.784C88.6443 235.24 89.2683 234.968 90.0843 234.968C92.0203 234.968 93.2683 236.248 93.2683 238.44V241.864C93.2683 242.616 92.7883 243.08 92.1323 243.08C91.4763 243.08 90.9963 242.616 90.9963 241.864V238.616C90.9963 237.72 90.5803 237.08 89.7003 237.08C88.7403 237.08 88.2603 237.752 88.2603 239.08V241.864C88.3563 243.464 85.8923 243.464 85.9883 241.864V236.296ZM89.1563 231.896L89.8123 232.104C90.0203 232.168 90.1803 232.2 90.2923 232.2C90.4523 232.2 90.5803 232.12 90.6923 231.976C90.8363 231.784 91.0603 231.688 91.3483 231.688C91.8603 231.688 92.1003 232.008 92.1003 232.504C92.1003 233.144 91.4763 233.784 90.6283 233.784C90.5483 233.784 90.3243 233.736 89.9403 233.656L89.2843 233.448C89.0763 233.384 88.9163 233.352 88.8043 233.352C88.6443 233.352 88.5163 233.432 88.4043 233.576C88.2603 233.768 88.0363 233.864 87.7483 233.864C87.2363 233.864 86.9963 233.544 86.9963 233.048C86.9963 232.408 87.6203 231.768 88.4683 231.768C88.5483 231.768 88.7723 231.816 89.1563 231.896ZM96.1618 242.008C95.3778 241.224 94.9778 240.248 94.9778 239.08C94.9778 237.912 95.3778 236.936 96.1618 236.152C96.9618 235.368 97.9538 234.968 99.1218 234.968C100.29 234.968 101.282 235.368 102.066 236.152C102.866 236.936 103.266 237.912 103.266 239.08C103.266 240.248 102.866 241.224 102.082 242.008C101.298 242.792 100.306 243.176 99.1218 243.176C97.9378 243.176 96.9458 242.792 96.1618 242.008ZM97.8098 237.656C97.4738 238.024 97.2978 238.504 97.2978 239.08C97.2978 239.656 97.4738 240.136 97.8098 240.504C98.1458 240.872 98.5938 241.064 99.1218 241.064C99.6498 241.064 100.098 240.872 100.434 240.504C100.77 240.136 100.946 239.656 100.946 239.08C100.946 238.504 100.77 238.024 100.434 237.656C100.098 237.288 99.6498 237.096 99.1218 237.096C98.5938 237.096 98.1458 237.288 97.8098 237.656ZM105.352 242.312C104.824 241.848 104.76 241.24 105.16 240.792C105.592 240.312 106.088 240.296 106.664 240.76C107.096 241.096 107.672 241.272 108.376 241.272C108.872 241.272 109.256 241.096 109.256 240.792C109.256 240.536 109.08 240.408 108.552 240.264L107.672 240.008C105.928 239.512 105.112 238.712 105.112 237.448C105.112 236.696 105.4 236.104 105.992 235.656C106.584 235.192 107.304 234.968 108.152 234.968C109.064 234.968 109.832 235.16 110.472 235.56C111.048 235.944 111.192 236.52 110.888 237.016C110.552 237.528 110.008 237.672 109.384 237.304C108.968 237.032 108.52 236.904 108.056 236.904C107.608 236.904 107.32 237.08 107.32 237.336C107.32 237.576 107.496 237.672 107.88 237.784L108.888 238.056C110.488 238.504 111.464 239.192 111.464 240.648C111.464 242.136 110.184 243.176 108.184 243.176C106.984 243.176 106.04 242.888 105.352 242.312ZM115.644 242.552L114.572 244.84C114.332 245.352 113.868 245.56 113.372 245.432C112.796 245.256 112.46 244.728 112.7 244.104L113.564 241.752C113.82 241.048 114.396 240.76 115.052 240.968C115.676 241.16 115.948 241.864 115.644 242.552ZM122.77 241.864V236.296C122.77 235.544 123.266 235.08 123.906 235.08C124.434 235.08 124.786 235.32 124.962 235.784C125.426 235.24 126.05 234.968 126.866 234.968C128.802 234.968 130.05 236.248 130.05 238.44V241.864C130.05 242.616 129.57 243.08 128.914 243.08C128.258 243.08 127.778 242.616 127.778 241.864V238.616C127.778 237.72 127.362 237.08 126.482 237.08C125.522 237.08 125.042 237.752 125.042 239.08V241.864C125.138 243.464 122.674 243.464 122.77 241.864ZM132.283 232.936C132.283 232.184 132.875 231.608 133.595 231.608C134.347 231.608 134.923 232.184 134.923 232.936C134.923 233.656 134.315 234.248 133.595 234.248C132.875 234.248 132.283 233.656 132.283 232.936ZM134.731 241.864C134.731 242.616 134.251 243.08 133.595 243.08C132.939 243.08 132.459 242.616 132.459 241.864V236.296C132.459 235.544 132.939 235.08 133.595 235.08C134.251 235.08 134.731 235.544 134.731 236.296V241.864ZM137.16 236.296C137.16 235.544 137.656 235.08 138.296 235.08C138.824 235.08 139.176 235.32 139.352 235.784C139.816 235.24 140.44 234.968 141.256 234.968C143.192 234.968 144.44 236.248 144.44 238.44V241.864C144.44 242.616 143.96 243.08 143.304 243.08C142.648 243.08 142.168 242.616 142.168 241.864V238.616C142.168 237.72 141.752 237.08 140.872 237.08C139.912 237.08 139.432 237.752 139.432 239.08V241.864C139.528 243.464 137.064 243.464 137.16 241.864V236.296ZM140.328 231.896L140.984 232.104C141.192 232.168 141.352 232.2 141.464 232.2C141.624 232.2 141.752 232.12 141.864 231.976C142.008 231.784 142.232 231.688 142.52 231.688C143.032 231.688 143.272 232.008 143.272 232.504C143.272 233.144 142.648 233.784 141.8 233.784C141.72 233.784 141.496 233.736 141.112 233.656L140.456 233.448C140.248 233.384 140.088 233.352 139.976 233.352C139.816 233.352 139.688 233.432 139.576 233.576C139.432 233.768 139.208 233.864 138.92 233.864C138.408 233.864 138.168 233.544 138.168 233.048C138.168 232.408 138.792 231.768 139.64 231.768C139.72 231.768 139.944 231.816 140.328 231.896ZM146.998 235.784C147.686 235.24 148.598 234.968 149.702 234.968C150.678 234.968 151.478 235.256 152.102 235.816C152.726 236.376 153.03 237.128 153.03 238.104V241.864C153.03 242.616 152.534 243.08 151.894 243.08C151.366 243.08 151.014 242.84 150.838 242.36C150.294 242.904 149.622 243.176 148.838 243.176C148.054 243.176 147.43 242.952 146.934 242.504C146.438 242.04 146.198 241.464 146.198 240.76C146.198 239.944 146.486 239.336 147.078 238.92C147.67 238.504 148.422 238.28 149.302 238.248L150.742 238.184C150.742 237.384 150.342 236.984 149.542 236.984C149.062 236.984 148.63 237.112 148.23 237.384C147.638 237.784 147.062 237.736 146.726 237.288C146.358 236.856 146.47 236.216 146.998 235.784ZM148.486 240.632C148.486 241.016 148.822 241.256 149.398 241.256C149.862 241.256 150.31 241.096 150.742 240.776V239.848L149.734 239.928C148.902 239.976 148.486 240.2 148.486 240.632ZM155.462 242.312C154.934 241.848 154.87 241.24 155.27 240.792C155.702 240.312 156.198 240.296 156.774 240.76C157.206 241.096 157.782 241.272 158.486 241.272C158.982 241.272 159.366 241.096 159.366 240.792C159.366 240.536 159.19 240.408 158.662 240.264L157.782 240.008C156.038 239.512 155.222 238.712 155.222 237.448C155.222 236.696 155.51 236.104 156.102 235.656C156.694 235.192 157.414 234.968 158.262 234.968C159.174 234.968 159.942 235.16 160.582 235.56C161.158 235.944 161.302 236.52 160.998 237.016C160.662 237.528 160.118 237.672 159.494 237.304C159.078 237.032 158.63 236.904 158.166 236.904C157.718 236.904 157.43 237.08 157.43 237.336C157.43 237.576 157.606 237.672 157.99 237.784L158.998 238.056C160.598 238.504 161.574 239.192 161.574 240.648C161.574 242.136 160.294 243.176 158.294 243.176C157.094 243.176 156.15 242.888 155.462 242.312ZM169.495 244.632L170.199 243L167.783 236.696C167.527 235.992 167.863 235.32 168.503 235.128C169.095 234.952 169.671 235.24 169.927 235.96L171.431 240.008L172.951 235.96C173.207 235.24 173.783 234.952 174.375 235.128C175.015 235.336 175.383 235.928 175.111 236.616L171.655 245.288C171.351 246.04 170.887 246.312 170.231 246.12C169.575 245.912 169.191 245.32 169.495 244.632ZM32.1383 259.784C32.8263 259.24 33.7383 258.968 34.8423 258.968C35.8183 258.968 36.6183 259.256 37.2423 259.816C37.8663 260.376 38.1703 261.128 38.1703 262.104V265.864C38.1703 266.616 37.6743 267.08 37.0343 267.08C36.5063 267.08 36.1543 266.84 35.9783 266.36C35.4343 266.904 34.7623 267.176 33.9783 267.176C33.1943 267.176 32.5703 266.952 32.0743 266.504C31.5783 266.04 31.3383 265.464 31.3383 264.76C31.3383 263.944 31.6263 263.336 32.2183 262.92C32.8103 262.504 33.5623 262.28 34.4423 262.248L35.8823 262.184C35.8823 261.384 35.4823 260.984 34.6823 260.984C34.2023 260.984 33.7703 261.112 33.3703 261.384C32.7783 261.784 32.2023 261.736 31.8663 261.288C31.4983 260.856 31.6103 260.216 32.1383 259.784ZM33.6263 264.632C33.6263 265.016 33.9623 265.256 34.5383 265.256C35.0023 265.256 35.4503 265.096 35.8823 264.776V263.848L34.8743 263.928C34.0423 263.976 33.6263 264.2 33.6263 264.632ZM48.1542 256.936V265.864C48.1542 266.616 47.6582 267.08 47.0182 267.08C46.4742 267.08 46.1222 266.84 45.9622 266.344C45.5622 266.84 44.7142 267.176 43.8662 267.176C42.7622 267.176 41.8182 266.808 41.0662 266.056C40.3142 265.304 39.9462 264.312 39.9462 263.08C39.9462 261.864 40.3142 260.872 41.0662 260.12C41.8182 259.352 42.7622 258.968 43.8662 258.968C44.6822 258.968 45.3542 259.192 45.8822 259.656V256.936C45.7862 255.336 48.2502 255.336 48.1542 256.936ZM45.3862 264.552C45.7382 264.168 45.9142 263.672 45.9142 263.08C45.9142 262.488 45.7382 261.992 45.3862 261.608C45.0502 261.224 44.6182 261.032 44.0902 261.032C43.5622 261.032 43.1302 261.224 42.7782 261.608C42.4422 261.992 42.2662 262.488 42.2662 263.08C42.2662 263.672 42.4422 264.168 42.7782 264.552C43.1302 264.936 43.5622 265.128 44.0902 265.128C44.6182 265.128 45.0502 264.936 45.3862 264.552ZM51.2243 266.008C50.4403 265.224 50.0403 264.248 50.0403 263.08C50.0403 261.912 50.4403 260.936 51.2243 260.152C52.0243 259.368 53.0163 258.968 54.1843 258.968C55.3523 258.968 56.3443 259.368 57.1283 260.152C57.9283 260.936 58.3283 261.912 58.3283 263.08C58.3283 264.248 57.9283 265.224 57.1443 266.008C56.3603 266.792 55.3683 267.176 54.1843 267.176C53.0003 267.176 52.0083 266.792 51.2243 266.008ZM52.8723 261.656C52.5363 262.024 52.3603 262.504 52.3603 263.08C52.3603 263.656 52.5363 264.136 52.8723 264.504C53.2083 264.872 53.6563 265.064 54.1843 265.064C54.7123 265.064 55.1603 264.872 55.4963 264.504C55.8323 264.136 56.0083 263.656 56.0083 263.08C56.0083 262.504 55.8323 262.024 55.4963 261.656C55.1603 261.288 54.7123 261.096 54.1843 261.096C53.6563 261.096 53.2083 261.288 52.8723 261.656ZM62.4947 256.936V265.864C62.5907 267.464 60.1267 267.464 60.2227 265.864V256.936C60.1267 255.336 62.5907 255.336 62.4947 256.936ZM71.9681 262.408C71.9681 263.24 71.5521 263.656 70.7041 263.656H66.6881C66.8161 264.504 67.4721 265.096 68.4481 265.096C68.9921 265.096 69.4561 264.936 69.8561 264.616C70.4801 264.168 71.0561 264.312 71.4561 264.84C71.8241 265.288 71.7121 265.928 71.1201 266.392C70.4321 266.92 69.5521 267.176 68.5121 267.176C67.3121 267.176 66.3361 266.808 65.5521 266.072C64.7681 265.32 64.3841 264.344 64.3841 263.128C64.3841 261.928 64.7361 260.936 65.4561 260.152C66.1761 259.368 67.1041 258.968 68.2401 258.968C69.0241 258.968 69.7121 259.16 70.3041 259.528C71.5041 260.28 71.9681 261.336 71.9681 262.408ZM68.2881 260.968C67.4721 260.968 66.9441 261.448 66.8001 262.136H69.6161C69.5681 261.48 69.0401 260.968 68.2881 260.968ZM74.1022 266.312C73.5742 265.848 73.5102 265.24 73.9102 264.792C74.3422 264.312 74.8382 264.296 75.4142 264.76C75.8462 265.096 76.4222 265.272 77.1262 265.272C77.6222 265.272 78.0062 265.096 78.0062 264.792C78.0062 264.536 77.8302 264.408 77.3022 264.264L76.4222 264.008C74.6782 263.512 73.8622 262.712 73.8622 261.448C73.8622 260.696 74.1502 260.104 74.7422 259.656C75.3342 259.192 76.0542 258.968 76.9022 258.968C77.8142 258.968 78.5822 259.16 79.2222 259.56C79.7982 259.944 79.9422 260.52 79.6382 261.016C79.3022 261.528 78.7582 261.672 78.1342 261.304C77.7182 261.032 77.2702 260.904 76.8062 260.904C76.3582 260.904 76.0702 261.08 76.0702 261.336C76.0702 261.576 76.2462 261.672 76.6302 261.784L77.6382 262.056C79.2382 262.504 80.2142 263.192 80.2142 264.648C80.2142 266.136 78.9342 267.176 76.9342 267.176C75.7342 267.176 74.7902 266.888 74.1022 266.312ZM86.8534 261.496C86.4854 261.224 86.1014 261.08 85.7014 261.08C84.5654 261.08 83.7974 261.912 83.7974 263.08C83.7974 264.248 84.5654 265.08 85.7014 265.08C86.1334 265.08 86.5654 264.904 86.9974 264.568C87.6214 264.12 88.1974 264.264 88.5974 264.792C88.9654 265.24 88.8534 265.88 88.2614 266.344C87.5254 266.904 86.6454 267.176 85.6214 267.176C84.4374 267.176 83.4454 266.792 82.6614 266.008C81.8774 265.224 81.4774 264.248 81.4774 263.08C81.4774 261.912 81.8774 260.936 82.6614 260.152C83.4614 259.368 84.4534 258.968 85.6214 258.968C86.5334 258.968 87.3334 259.208 88.0054 259.704C88.5974 260.168 88.7574 260.84 88.4214 261.288C88.0534 261.8 87.4774 261.928 86.8534 261.496ZM97.7181 262.408C97.7181 263.24 97.3021 263.656 96.4541 263.656H92.4381C92.5661 264.504 93.2221 265.096 94.1981 265.096C94.7421 265.096 95.2061 264.936 95.6061 264.616C96.2301 264.168 96.8061 264.312 97.2061 264.84C97.5741 265.288 97.4621 265.928 96.8701 266.392C96.1821 266.92 95.3021 267.176 94.2621 267.176C93.0621 267.176 92.0861 266.808 91.3021 266.072C90.5181 265.32 90.1341 264.344 90.1341 263.128C90.1341 261.928 90.4861 260.936 91.2061 260.152C91.9261 259.368 92.8541 258.968 93.9901 258.968C94.7741 258.968 95.4621 259.16 96.0541 259.528C97.2541 260.28 97.7181 261.336 97.7181 262.408ZM94.0381 260.968C93.2221 260.968 92.6941 261.448 92.5501 262.136H95.3661C95.3181 261.48 94.7901 260.968 94.0381 260.968ZM99.6602 265.864V260.296C99.6602 259.544 100.156 259.08 100.796 259.08C101.324 259.08 101.676 259.32 101.852 259.784C102.316 259.24 102.94 258.968 103.756 258.968C105.692 258.968 106.94 260.248 106.94 262.44V265.864C106.94 266.616 106.46 267.08 105.804 267.08C105.148 267.08 104.668 266.616 104.668 265.864V262.616C104.668 261.72 104.252 261.08 103.372 261.08C102.412 261.08 101.932 261.752 101.932 263.08V265.864C102.028 267.464 99.5642 267.464 99.6602 265.864ZM112.348 264.92C113.068 265 113.452 265.4 113.452 265.992C113.452 266.584 113.02 267.032 112.236 267.032H112.028C110.204 267.032 109.292 266.104 109.292 264.232V261.256H109.004C108.3 261.256 107.868 260.808 107.868 260.216C107.868 259.624 108.3 259.16 109.004 259.16H109.292V258.104C109.196 256.504 111.66 256.504 111.548 258.104V259.16H112.316C113.02 259.16 113.452 259.624 113.452 260.216C113.452 260.808 113.02 261.256 112.316 261.256H111.548V263.96C111.548 264.616 111.82 264.872 112.348 264.92ZM122.39 262.408C122.39 263.24 121.974 263.656 121.126 263.656H117.11C117.238 264.504 117.894 265.096 118.87 265.096C119.414 265.096 119.878 264.936 120.278 264.616C120.902 264.168 121.478 264.312 121.878 264.84C122.246 265.288 122.134 265.928 121.542 266.392C120.854 266.92 119.974 267.176 118.934 267.176C117.734 267.176 116.758 266.808 115.974 266.072C115.19 265.32 114.806 264.344 114.806 263.128C114.806 261.928 115.158 260.936 115.878 260.152C116.598 259.368 117.526 258.968 118.662 258.968C119.446 258.968 120.134 259.16 120.726 259.528C121.926 260.28 122.39 261.336 122.39 262.408ZM118.71 260.968C117.894 260.968 117.366 261.448 117.222 262.136H120.038C119.99 261.48 119.462 260.968 118.71 260.968ZM124.524 266.312C123.996 265.848 123.932 265.24 124.332 264.792C124.764 264.312 125.26 264.296 125.836 264.76C126.268 265.096 126.844 265.272 127.548 265.272C128.044 265.272 128.428 265.096 128.428 264.792C128.428 264.536 128.252 264.408 127.724 264.264L126.844 264.008C125.1 263.512 124.284 262.712 124.284 261.448C124.284 260.696 124.572 260.104 125.164 259.656C125.756 259.192 126.476 258.968 127.324 258.968C128.236 258.968 129.004 259.16 129.644 259.56C130.22 259.944 130.364 260.52 130.06 261.016C129.724 261.528 129.18 261.672 128.556 261.304C128.14 261.032 127.692 260.904 127.228 260.904C126.78 260.904 126.492 261.08 126.492 261.336C126.492 261.576 126.668 261.672 127.052 261.784L128.06 262.056C129.66 262.504 130.636 263.192 130.636 264.648C130.636 266.136 129.356 267.176 127.356 267.176C126.156 267.176 125.212 266.888 124.524 266.312ZM137.326 259.784C138.014 259.24 138.926 258.968 140.03 258.968C141.006 258.968 141.806 259.256 142.43 259.816C143.054 260.376 143.358 261.128 143.358 262.104V265.864C143.358 266.616 142.862 267.08 142.222 267.08C141.694 267.08 141.342 266.84 141.166 266.36C140.622 266.904 139.95 267.176 139.166 267.176C138.382 267.176 137.758 266.952 137.262 266.504C136.766 266.04 136.526 265.464 136.526 264.76C136.526 263.944 136.814 263.336 137.406 262.92C137.998 262.504 138.75 262.28 139.63 262.248L141.07 262.184C141.07 261.384 140.67 260.984 139.87 260.984C139.39 260.984 138.958 261.112 138.558 261.384C137.966 261.784 137.39 261.736 137.054 261.288C136.686 260.856 136.798 260.216 137.326 259.784ZM138.814 264.632C138.814 265.016 139.15 265.256 139.726 265.256C140.19 265.256 140.638 265.096 141.07 264.776V263.848L140.062 263.928C139.23 263.976 138.814 264.2 138.814 264.632ZM148.848 264.92C149.568 265 149.952 265.4 149.952 265.992C149.952 266.584 149.52 267.032 148.736 267.032H148.528C146.704 267.032 145.792 266.104 145.792 264.232V261.256H145.504C144.8 261.256 144.368 260.808 144.368 260.216C144.368 259.624 144.8 259.16 145.504 259.16H145.792V258.104C145.696 256.504 148.16 256.504 148.048 258.104V259.16H148.816C149.52 259.16 149.952 259.624 149.952 260.216C149.952 260.808 149.52 261.256 148.816 261.256H148.048V263.96C148.048 264.616 148.32 264.872 148.848 264.92ZM158.89 262.408C158.89 263.24 158.474 263.656 157.626 263.656H153.61C153.738 264.504 154.394 265.096 155.37 265.096C155.914 265.096 156.378 264.936 156.778 264.616C157.402 264.168 157.978 264.312 158.378 264.84C158.746 265.288 158.634 265.928 158.042 266.392C157.354 266.92 156.474 267.176 155.434 267.176C154.234 267.176 153.258 266.808 152.474 266.072C151.69 265.32 151.306 264.344 151.306 263.128C151.306 261.928 151.658 260.936 152.378 260.152C153.098 259.368 154.026 258.968 155.162 258.968C155.946 258.968 156.634 259.16 157.226 259.528C158.426 260.28 158.89 261.336 158.89 262.408ZM155.21 260.968C154.394 260.968 153.866 261.448 153.722 262.136H156.538C156.49 261.48 155.962 260.968 155.21 260.968ZM160.832 265.864V260.296C160.832 259.544 161.328 259.08 161.968 259.08C162.496 259.08 162.848 259.32 163.024 259.784C163.488 259.24 164.112 258.968 164.928 258.968C166.864 258.968 168.112 260.248 168.112 262.44V265.864C168.112 266.616 167.632 267.08 166.976 267.08C166.32 267.08 165.84 266.616 165.84 265.864V262.616C165.84 261.72 165.424 261.08 164.544 261.08C163.584 261.08 163.104 261.752 163.104 263.08V265.864C163.2 267.464 160.736 267.464 160.832 265.864ZM178.014 256.936V265.864C178.014 266.616 177.518 267.08 176.878 267.08C176.334 267.08 175.982 266.84 175.822 266.344C175.422 266.84 174.574 267.176 173.726 267.176C172.622 267.176 171.678 266.808 170.926 266.056C170.174 265.304 169.806 264.312 169.806 263.08C169.806 261.864 170.174 260.872 170.926 260.12C171.678 259.352 172.622 258.968 173.726 258.968C174.542 258.968 175.214 259.192 175.742 259.656V256.936C175.646 255.336 178.11 255.336 178.014 256.936ZM175.246 264.552C175.598 264.168 175.774 263.672 175.774 263.08C175.774 262.488 175.598 261.992 175.246 261.608C174.91 261.224 174.478 261.032 173.95 261.032C173.422 261.032 172.99 261.224 172.638 261.608C172.302 261.992 172.126 262.488 172.126 263.08C172.126 263.672 172.302 264.168 172.638 264.552C172.99 264.936 173.422 265.128 173.95 265.128C174.478 265.128 174.91 264.936 175.246 264.552ZM180.424 256.936C180.424 256.184 181.016 255.608 181.736 255.608C182.488 255.608 183.064 256.184 183.064 256.936C183.064 257.656 182.456 258.248 181.736 258.248C181.016 258.248 180.424 257.656 180.424 256.936ZM182.872 265.864C182.872 266.616 182.392 267.08 181.736 267.08C181.08 267.08 180.6 266.616 180.6 265.864V260.296C180.6 259.544 181.08 259.08 181.736 259.08C182.392 259.08 182.872 259.544 182.872 260.296V265.864ZM193.045 256.936V265.864C193.045 266.616 192.549 267.08 191.909 267.08C191.365 267.08 191.013 266.84 190.853 266.344C190.453 266.84 189.605 267.176 188.757 267.176C187.653 267.176 186.709 266.808 185.957 266.056C185.205 265.304 184.837 264.312 184.837 263.08C184.837 261.864 185.205 260.872 185.957 260.12C186.709 259.352 187.653 258.968 188.757 258.968C189.573 258.968 190.245 259.192 190.773 259.656V256.936C190.677 255.336 193.141 255.336 193.045 256.936ZM190.277 264.552C190.629 264.168 190.805 263.672 190.805 263.08C190.805 262.488 190.629 261.992 190.277 261.608C189.941 261.224 189.509 261.032 188.981 261.032C188.453 261.032 188.021 261.224 187.669 261.608C187.333 261.992 187.157 262.488 187.157 263.08C187.157 263.672 187.333 264.168 187.669 264.552C188.021 264.936 188.453 265.128 188.981 265.128C189.509 265.128 189.941 264.936 190.277 264.552ZM196.115 266.008C195.331 265.224 194.931 264.248 194.931 263.08C194.931 261.912 195.331 260.936 196.115 260.152C196.915 259.368 197.907 258.968 199.075 258.968C200.243 258.968 201.235 259.368 202.019 260.152C202.819 260.936 203.219 261.912 203.219 263.08C203.219 264.248 202.819 265.224 202.035 266.008C201.251 266.792 200.259 267.176 199.075 267.176C197.891 267.176 196.899 266.792 196.115 266.008ZM197.763 261.656C197.427 262.024 197.251 262.504 197.251 263.08C197.251 263.656 197.427 264.136 197.763 264.504C198.099 264.872 198.547 265.064 199.075 265.064C199.603 265.064 200.051 264.872 200.387 264.504C200.723 264.136 200.899 263.656 200.899 263.08C200.899 262.504 200.723 262.024 200.387 261.656C200.051 261.288 199.603 261.096 199.075 261.096C198.547 261.096 198.099 261.288 197.763 261.656ZM205.305 266.312C204.777 265.848 204.713 265.24 205.113 264.792C205.545 264.312 206.041 264.296 206.617 264.76C207.049 265.096 207.625 265.272 208.329 265.272C208.825 265.272 209.209 265.096 209.209 264.792C209.209 264.536 209.033 264.408 208.505 264.264L207.625 264.008C205.881 263.512 205.065 262.712 205.065 261.448C205.065 260.696 205.353 260.104 205.945 259.656C206.537 259.192 207.257 258.968 208.105 258.968C209.017 258.968 209.785 259.16 210.425 259.56C211.001 259.944 211.145 260.52 210.841 261.016C210.505 261.528 209.961 261.672 209.337 261.304C208.921 261.032 208.473 260.904 208.009 260.904C207.561 260.904 207.273 261.08 207.273 261.336C207.273 261.576 207.449 261.672 207.833 261.784L208.841 262.056C210.441 262.504 211.417 263.192 211.417 264.648C211.417 266.136 210.137 267.176 208.137 267.176C206.937 267.176 205.993 266.888 205.305 266.312ZM213.629 266.76C213.117 266.232 213.117 265.336 213.629 264.808C214.157 264.28 215.053 264.28 215.581 264.808C216.141 265.336 216.141 266.232 215.581 266.76C215.053 267.288 214.157 267.288 213.629 266.76Z" fill="#930345"/>
<circle cx="123.5" cy="97.4997" r="77.9997" fill="white" stroke="white" stroke-width="9"/>
<path d="M86.5326 89.736L90.6286 87.24C91.5246 86.696 92.2926 86.44 92.9646 86.44C94.4686 86.44 95.4926 87.496 95.4926 89.288V104.616H98.5646C100.005 104.616 100.933 105.544 100.933 106.824C100.933 108.072 100.037 109 98.5966 109H86.9806C85.5406 109 84.6446 108.072 84.6446 106.824C84.6446 105.544 85.5406 104.616 86.9806 104.616H90.7566V92.456L88.5166 93.768C87.5886 94.248 86.7566 94.312 86.0206 93.896C85.3166 93.48 84.9646 92.904 84.9646 92.104C84.9646 91.176 85.4766 90.376 86.5326 89.736ZM116.384 101.672C116.384 99.72 114.944 98.344 113.024 98.344C111.104 98.344 109.664 99.72 109.664 101.672C109.664 103.592 111.104 105 113.024 105C114.944 105 116.384 103.592 116.384 101.672ZM116.32 91.432C115.424 90.856 114.432 90.568 113.344 90.568C112 90.568 110.848 91.08 109.92 92.136C108.992 93.16 108.512 94.504 108.48 96.168C109.664 94.792 111.296 94.12 113.344 94.12C115.488 94.12 117.312 94.824 118.816 96.232C120.352 97.64 121.12 99.464 121.12 101.704C121.12 104.008 120.32 105.864 118.72 107.272C117.152 108.648 115.232 109.352 112.992 109.352C110.208 109.352 108 108.296 106.368 106.216C104.768 104.104 103.968 101.224 103.968 97.576C103.968 94.152 104.832 91.4 106.528 89.32C108.256 87.24 110.592 86.216 113.536 86.216C115.296 86.216 116.992 86.696 118.56 87.624C119.872 88.392 120.192 89.736 119.552 90.792C118.912 91.912 117.632 92.2 116.32 91.432ZM129.606 93.896C129.606 95.848 131.046 97.224 132.966 97.224C134.886 97.224 136.326 95.848 136.326 93.896C136.326 91.976 134.886 90.568 132.966 90.568C131.046 90.568 129.606 91.976 129.606 93.896ZM129.67 104.136C130.566 104.712 131.558 105 132.646 105C133.99 105 135.142 104.488 136.07 103.464C136.998 102.408 137.478 101.064 137.51 99.4C136.326 100.776 134.694 101.448 132.646 101.448C130.502 101.448 128.678 100.744 127.142 99.336C125.638 97.928 124.87 96.104 124.87 93.864C124.87 91.56 125.67 89.704 127.238 88.328C128.838 86.92 130.758 86.216 132.998 86.216C135.782 86.216 137.99 87.272 139.59 89.384C141.222 91.464 142.022 94.344 142.022 97.992C142.022 101.416 141.158 104.168 139.43 106.248C137.734 108.328 135.398 109.352 132.454 109.352C130.694 109.352 128.998 108.872 127.43 107.944C126.118 107.176 125.798 105.832 126.438 104.776C127.078 103.656 128.358 103.368 129.67 104.136ZM147.376 89.736L151.472 87.24C152.368 86.696 153.136 86.44 153.808 86.44C155.312 86.44 156.336 87.496 156.336 89.288V104.616H159.408C160.848 104.616 161.776 105.544 161.776 106.824C161.776 108.072 160.88 109 159.44 109H147.824C146.384 109 145.488 108.072 145.488 106.824C145.488 105.544 146.384 104.616 147.824 104.616H151.6V92.456L149.36 93.768C148.432 94.248 147.6 94.312 146.864 93.896C146.16 93.48 145.808 92.904 145.808 92.104C145.808 91.176 146.32 90.376 147.376 89.736Z" fill="#930345"/>
</svg>
