<svg width="244" height="298" viewBox="0 0 244 298" fill="none" xmlns="http://www.w3.org/2000/svg">
<rect width="243.562" height="297.688" fill="#930345"/>
<path d="M55.4257 213.118H53.8157V215.946H55.4257C56.7837 215.946 57.4697 215.47 57.4697 214.504C57.4697 213.552 56.8397 213.118 55.4257 213.118ZM57.4137 220.468L55.4817 217.85H53.8157V219.964C53.8157 220.65 53.3677 221.07 52.7657 221.07C52.1637 221.07 51.7297 220.65 51.7297 219.964V212.53C51.7297 211.69 52.2197 211.2 53.0597 211.2H55.7897C56.8957 211.2 57.7917 211.48 58.4917 212.054C59.1917 212.614 59.5417 213.398 59.5417 214.392C59.5417 215.778 58.7857 216.898 57.6097 217.458L59.1217 219.39C59.5277 219.95 59.4157 220.58 58.9117 220.902C58.4497 221.196 57.8197 221.028 57.4137 220.468ZM67.6654 216.982C67.6654 217.71 67.3014 218.074 66.5594 218.074H63.0454C63.1574 218.816 63.7314 219.334 64.5854 219.334C65.0614 219.334 65.4674 219.194 65.8174 218.914C66.3634 218.522 66.8674 218.648 67.2174 219.11C67.5394 219.502 67.4414 220.062 66.9234 220.468C66.3214 220.93 65.5514 221.154 64.6414 221.154C63.5914 221.154 62.7374 220.832 62.0514 220.188C61.3654 219.53 61.0294 218.676 61.0294 217.612C61.0294 216.562 61.3374 215.694 61.9674 215.008C62.5974 214.322 63.4094 213.972 64.4034 213.972C65.0894 213.972 65.6914 214.14 66.2094 214.462C67.2594 215.12 67.6654 216.044 67.6654 216.982ZM64.4454 215.722C63.7314 215.722 63.2694 216.142 63.1434 216.744H65.6074C65.5654 216.17 65.1034 215.722 64.4454 215.722ZM73.7448 216.184C73.4228 215.946 73.0868 215.82 72.7368 215.82C71.7428 215.82 71.0708 216.548 71.0708 217.57C71.0708 218.592 71.7428 219.32 72.7368 219.32C73.1148 219.32 73.4928 219.166 73.8708 218.872C74.4168 218.48 74.9208 218.606 75.2708 219.068C75.5928 219.46 75.4948 220.02 74.9768 220.426C74.3328 220.916 73.5628 221.154 72.6668 221.154C71.6308 221.154 70.7628 220.818 70.0768 220.132C69.3908 219.446 69.0408 218.592 69.0408 217.57C69.0408 216.548 69.3908 215.694 70.0768 215.008C70.7768 214.322 71.6448 213.972 72.6668 213.972C73.4648 213.972 74.1648 214.182 74.7528 214.616C75.2708 215.022 75.4108 215.61 75.1168 216.002C74.7948 216.45 74.2908 216.562 73.7448 216.184ZM77.1558 212.194C77.1558 211.536 77.6738 211.032 78.3038 211.032C78.9618 211.032 79.4658 211.536 79.4658 212.194C79.4658 212.824 78.9338 213.342 78.3038 213.342C77.6738 213.342 77.1558 212.824 77.1558 212.194ZM79.2978 220.006C79.2978 220.664 78.8778 221.07 78.3038 221.07C77.7298 221.07 77.3098 220.664 77.3098 220.006V215.134C77.3098 214.476 77.7298 214.07 78.3038 214.07C78.8778 214.07 79.2978 214.476 79.2978 215.134V220.006ZM81.5738 220.006V212.194C81.4898 210.794 83.6458 210.794 83.5618 212.194V214.574C84.0238 214.168 84.6118 213.972 85.3258 213.972C86.2918 213.972 87.1038 214.308 87.7618 214.98C88.4198 215.638 88.7558 216.506 88.7558 217.57C88.7558 218.648 88.4198 219.516 87.7618 220.174C87.1038 220.832 86.2918 221.154 85.3258 221.154C84.5838 221.154 83.8418 220.86 83.4918 220.426C83.3518 220.86 83.0438 221.07 82.5678 221.07C82.0078 221.07 81.5738 220.664 81.5738 220.006ZM83.9818 216.282C83.6878 216.618 83.5338 217.052 83.5338 217.57C83.5338 218.088 83.6878 218.522 83.9818 218.858C84.2898 219.194 84.6678 219.362 85.1298 219.362C85.5918 219.362 85.9698 219.194 86.2638 218.858C86.5718 218.522 86.7258 218.088 86.7258 217.57C86.7258 217.052 86.5718 216.618 86.2638 216.282C85.9698 215.946 85.5918 215.778 85.1298 215.778C84.6678 215.778 84.2898 215.946 83.9818 216.282ZM90.3218 212.194C90.3218 211.536 90.8398 211.032 91.4698 211.032C92.1278 211.032 92.6318 211.536 92.6318 212.194C92.6318 212.824 92.0998 213.342 91.4698 213.342C90.8398 213.342 90.3218 212.824 90.3218 212.194ZM92.4638 220.006C92.4638 220.664 92.0438 221.07 91.4698 221.07C90.8958 221.07 90.4758 220.664 90.4758 220.006V215.134C90.4758 214.476 90.8958 214.07 91.4698 214.07C92.0438 214.07 92.4638 214.476 92.4638 215.134V220.006ZM95.2334 220.132C94.5474 219.446 94.1974 218.592 94.1974 217.57C94.1974 216.548 94.5474 215.694 95.2334 215.008C95.9334 214.322 96.8014 213.972 97.8234 213.972C98.8454 213.972 99.7134 214.322 100.399 215.008C101.099 215.694 101.449 216.548 101.449 217.57C101.449 218.592 101.099 219.446 100.413 220.132C99.7274 220.818 98.8594 221.154 97.8234 221.154C96.7874 221.154 95.9194 220.818 95.2334 220.132ZM96.6754 216.324C96.3814 216.646 96.2274 217.066 96.2274 217.57C96.2274 218.074 96.3814 218.494 96.6754 218.816C96.9694 219.138 97.3614 219.306 97.8234 219.306C98.2854 219.306 98.6774 219.138 98.9714 218.816C99.2654 218.494 99.4194 218.074 99.4194 217.57C99.4194 217.066 99.2654 216.646 98.9714 216.324C98.6774 216.002 98.2854 215.834 97.8234 215.834C97.3614 215.834 96.9694 216.002 96.6754 216.324ZM98.6494 212.53L97.4454 213.09C97.1794 213.216 96.9274 213.202 96.6754 213.048C96.2974 212.81 96.1994 212.278 96.4374 211.928C96.5074 211.816 96.6054 211.732 96.7174 211.662L97.9074 210.878C98.2294 210.668 98.5654 210.682 98.9154 210.892C99.3214 211.158 99.4474 211.732 99.1674 212.166C99.0414 212.334 98.8594 212.46 98.6494 212.53ZM109.005 212.194V220.006C109.089 221.406 106.933 221.406 107.017 220.006V212.194C106.933 210.794 109.089 210.794 109.005 212.194ZM111.4 214.686C112.002 214.21 112.8 213.972 113.766 213.972C114.62 213.972 115.32 214.224 115.866 214.714C116.412 215.204 116.678 215.862 116.678 216.716V220.006C116.678 220.664 116.244 221.07 115.684 221.07C115.222 221.07 114.914 220.86 114.76 220.44C114.284 220.916 113.696 221.154 113.01 221.154C112.324 221.154 111.778 220.958 111.344 220.566C110.91 220.16 110.7 219.656 110.7 219.04C110.7 218.326 110.952 217.794 111.47 217.43C111.988 217.066 112.646 216.87 113.416 216.842L114.676 216.786C114.676 216.086 114.326 215.736 113.626 215.736C113.206 215.736 112.828 215.848 112.478 216.086C111.96 216.436 111.456 216.394 111.162 216.002C110.84 215.624 110.938 215.064 111.4 214.686ZM112.702 218.928C112.702 219.264 112.996 219.474 113.5 219.474C113.906 219.474 114.298 219.334 114.676 219.054V218.242L113.794 218.312C113.066 218.354 112.702 218.55 112.702 218.928ZM130.668 212.208C131.172 212.656 131.214 213.272 130.822 213.678C130.444 214.126 129.884 214.182 129.338 213.734C128.764 213.23 128.078 212.978 127.266 212.978C126.496 212.978 125.824 213.258 125.236 213.818C124.662 214.364 124.368 215.12 124.368 216.072C124.368 217.038 124.662 217.808 125.236 218.368C125.81 218.928 126.524 219.208 127.378 219.208C128.176 219.208 128.876 218.956 129.492 218.438C130.038 218.004 130.598 218.06 130.976 218.494C131.368 218.9 131.326 219.516 130.822 219.964C129.926 220.762 128.792 221.154 127.434 221.154C125.936 221.154 124.69 220.692 123.696 219.768C122.716 218.844 122.226 217.626 122.226 216.114C122.226 214.588 122.716 213.356 123.696 212.432C124.676 211.494 125.894 211.032 127.364 211.032C128.638 211.032 129.744 211.424 130.668 212.208ZM133.412 214.686C134.014 214.21 134.812 213.972 135.778 213.972C136.632 213.972 137.332 214.224 137.878 214.714C138.424 215.204 138.69 215.862 138.69 216.716V220.006C138.69 220.664 138.256 221.07 137.696 221.07C137.234 221.07 136.926 220.86 136.772 220.44C136.296 220.916 135.708 221.154 135.022 221.154C134.336 221.154 133.79 220.958 133.356 220.566C132.922 220.16 132.712 219.656 132.712 219.04C132.712 218.326 132.964 217.794 133.482 217.43C134 217.066 134.658 216.87 135.428 216.842L136.688 216.786C136.688 216.086 136.338 215.736 135.638 215.736C135.218 215.736 134.84 215.848 134.49 216.086C133.972 216.436 133.468 216.394 133.174 216.002C132.852 215.624 132.95 215.064 133.412 214.686ZM134.714 218.928C134.714 219.264 135.008 219.474 135.512 219.474C135.918 219.474 136.31 219.334 136.688 219.054V218.242L135.806 218.312C135.078 218.354 134.714 218.55 134.714 218.928ZM140.818 220.398C140.356 219.992 140.3 219.46 140.65 219.068C141.028 218.648 141.462 218.634 141.966 219.04C142.344 219.334 142.848 219.488 143.464 219.488C143.898 219.488 144.234 219.334 144.234 219.068C144.234 218.844 144.08 218.732 143.618 218.606L142.848 218.382C141.322 217.948 140.608 217.248 140.608 216.142C140.608 215.484 140.86 214.966 141.378 214.574C141.896 214.168 142.526 213.972 143.268 213.972C144.066 213.972 144.738 214.14 145.298 214.49C145.802 214.826 145.928 215.33 145.662 215.764C145.368 216.212 144.892 216.338 144.346 216.016C143.982 215.778 143.59 215.666 143.184 215.666C142.792 215.666 142.54 215.82 142.54 216.044C142.54 216.254 142.694 216.338 143.03 216.436L143.912 216.674C145.312 217.066 146.166 217.668 146.166 218.942C146.166 220.244 145.046 221.154 143.296 221.154C142.246 221.154 141.42 220.902 140.818 220.398ZM148.109 214.686C148.711 214.21 149.509 213.972 150.475 213.972C151.329 213.972 152.029 214.224 152.575 214.714C153.121 215.204 153.387 215.862 153.387 216.716V220.006C153.387 220.664 152.953 221.07 152.393 221.07C151.931 221.07 151.623 220.86 151.469 220.44C150.993 220.916 150.405 221.154 149.719 221.154C149.033 221.154 148.487 220.958 148.053 220.566C147.619 220.16 147.409 219.656 147.409 219.04C147.409 218.326 147.661 217.794 148.179 217.43C148.697 217.066 149.355 216.87 150.125 216.842L151.385 216.786C151.385 216.086 151.035 215.736 150.335 215.736C149.915 215.736 149.537 215.848 149.187 216.086C148.669 216.436 148.165 216.394 147.871 216.002C147.549 215.624 147.647 215.064 148.109 214.686ZM149.411 218.928C149.411 219.264 149.705 219.474 150.209 219.474C150.615 219.474 151.007 219.334 151.385 219.054V218.242L150.503 218.312C149.775 218.354 149.411 218.55 149.411 218.928ZM163.023 213.118H161.413V215.946H163.023C164.381 215.946 165.067 215.47 165.067 214.504C165.067 213.552 164.437 213.118 163.023 213.118ZM165.011 220.468L163.079 217.85H161.413V219.964C161.413 220.65 160.965 221.07 160.363 221.07C159.761 221.07 159.327 220.65 159.327 219.964V212.53C159.327 211.69 159.817 211.2 160.657 211.2H163.387C164.493 211.2 165.389 211.48 166.089 212.054C166.789 212.614 167.139 213.398 167.139 214.392C167.139 215.778 166.383 216.898 165.207 217.458L166.719 219.39C167.125 219.95 167.013 220.58 166.509 220.902C166.047 221.196 165.417 221.028 165.011 220.468ZM169.663 220.132C168.977 219.446 168.627 218.592 168.627 217.57C168.627 216.548 168.977 215.694 169.663 215.008C170.363 214.322 171.231 213.972 172.253 213.972C173.275 213.972 174.143 214.322 174.829 215.008C175.529 215.694 175.879 216.548 175.879 217.57C175.879 218.592 175.529 219.446 174.843 220.132C174.157 220.818 173.289 221.154 172.253 221.154C171.217 221.154 170.349 220.818 169.663 220.132ZM171.105 216.324C170.811 216.646 170.657 217.066 170.657 217.57C170.657 218.074 170.811 218.494 171.105 218.816C171.399 219.138 171.791 219.306 172.253 219.306C172.715 219.306 173.107 219.138 173.401 218.816C173.695 218.494 173.849 218.074 173.849 217.57C173.849 217.066 173.695 216.646 173.401 216.324C173.107 216.002 172.715 215.834 172.253 215.834C171.791 215.834 171.399 216.002 171.105 216.324ZM177.537 220.006V215.134C177.537 214.476 177.971 214.07 178.531 214.07C178.993 214.07 179.301 214.28 179.455 214.686C179.861 214.21 180.407 213.972 181.121 213.972C182.815 213.972 183.907 215.092 183.907 217.01V220.006C183.907 220.664 183.487 221.07 182.913 221.07C182.339 221.07 181.919 220.664 181.919 220.006V217.164C181.919 216.38 181.555 215.82 180.785 215.82C179.945 215.82 179.525 216.408 179.525 217.57V220.006C179.609 221.406 177.453 221.406 177.537 220.006ZM186.144 214.686C186.746 214.21 187.544 213.972 188.51 213.972C189.364 213.972 190.064 214.224 190.61 214.714C191.156 215.204 191.422 215.862 191.422 216.716V220.006C191.422 220.664 190.988 221.07 190.428 221.07C189.966 221.07 189.658 220.86 189.504 220.44C189.028 220.916 188.44 221.154 187.754 221.154C187.068 221.154 186.522 220.958 186.088 220.566C185.654 220.16 185.444 219.656 185.444 219.04C185.444 218.326 185.696 217.794 186.214 217.43C186.732 217.066 187.39 216.87 188.16 216.842L189.42 216.786C189.42 216.086 189.07 215.736 188.37 215.736C187.95 215.736 187.572 215.848 187.222 216.086C186.704 216.436 186.2 216.394 185.906 216.002C185.584 215.624 185.682 215.064 186.144 214.686ZM187.446 218.928C187.446 219.264 187.74 219.474 188.244 219.474C188.65 219.474 189.042 219.334 189.42 219.054V218.242L188.538 218.312C187.81 218.354 187.446 218.55 187.446 218.928ZM195.521 212.194V220.006C195.605 221.406 193.449 221.406 193.533 220.006V212.194C193.449 210.794 195.605 210.794 195.521 212.194ZM204.342 212.194V220.006C204.342 220.664 203.908 221.07 203.348 221.07C202.872 221.07 202.564 220.86 202.424 220.426C202.074 220.86 201.332 221.154 200.59 221.154C199.624 221.154 198.798 220.832 198.14 220.174C197.482 219.516 197.16 218.648 197.16 217.57C197.16 216.506 197.482 215.638 198.14 214.98C198.798 214.308 199.624 213.972 200.59 213.972C201.304 213.972 201.892 214.168 202.354 214.574V212.194C202.27 210.794 204.426 210.794 204.342 212.194ZM201.92 218.858C202.228 218.522 202.382 218.088 202.382 217.57C202.382 217.052 202.228 216.618 201.92 216.282C201.626 215.946 201.248 215.778 200.786 215.778C200.324 215.778 199.946 215.946 199.638 216.282C199.344 216.618 199.19 217.052 199.19 217.57C199.19 218.088 199.344 218.522 199.638 218.858C199.946 219.194 200.324 219.362 200.786 219.362C201.248 219.362 201.626 219.194 201.92 218.858ZM38.5511 235.774L41.0431 240.688L43.5491 235.774C43.7871 235.298 44.1791 235.06 44.7391 235.06C45.4811 235.06 45.9151 235.536 45.9151 236.306V243.964C45.9151 244.65 45.4811 245.07 44.8791 245.07C44.2771 245.07 43.8431 244.65 43.8431 243.964V239.428L42.1771 242.606C41.9251 243.082 41.5471 243.32 41.0431 243.32C40.5391 243.32 40.1611 243.082 39.9231 242.62L38.2571 239.428V243.964C38.2571 244.65 37.8231 245.07 37.2211 245.07C36.6191 245.07 36.1851 244.65 36.1851 243.964V236.306C36.1851 235.536 36.6191 235.06 37.3611 235.06C37.9071 235.06 38.3131 235.298 38.5511 235.774ZM52.321 240.184C51.999 239.946 51.663 239.82 51.313 239.82C50.319 239.82 49.647 240.548 49.647 241.57C49.647 242.592 50.319 243.32 51.313 243.32C51.691 243.32 52.069 243.166 52.447 242.872C52.993 242.48 53.497 242.606 53.847 243.068C54.169 243.46 54.071 244.02 53.553 244.426C52.909 244.916 52.139 245.154 51.243 245.154C50.207 245.154 49.339 244.818 48.653 244.132C47.967 243.446 47.617 242.592 47.617 241.57C47.617 240.548 47.967 239.694 48.653 239.008C49.353 238.322 50.221 237.972 51.243 237.972C52.041 237.972 52.741 238.182 53.329 238.616C53.847 239.022 53.987 239.61 53.693 240.002C53.371 240.45 52.867 240.562 52.321 240.184ZM62.3595 236.194V244.006C62.3595 244.664 61.9255 245.07 61.3655 245.07C60.8895 245.07 60.5815 244.86 60.4415 244.426C60.0915 244.86 59.3495 245.154 58.6075 245.154C57.6415 245.154 56.8155 244.832 56.1575 244.174C55.4995 243.516 55.1775 242.648 55.1775 241.57C55.1775 240.506 55.4995 239.638 56.1575 238.98C56.8155 238.308 57.6415 237.972 58.6075 237.972C59.3215 237.972 59.9095 238.168 60.3715 238.574V236.194C60.2875 234.794 62.4435 234.794 62.3595 236.194ZM59.9375 242.858C60.2455 242.522 60.3995 242.088 60.3995 241.57C60.3995 241.052 60.2455 240.618 59.9375 240.282C59.6435 239.946 59.2655 239.778 58.8035 239.778C58.3415 239.778 57.9635 239.946 57.6555 240.282C57.3615 240.618 57.2075 241.052 57.2075 241.57C57.2075 242.088 57.3615 242.522 57.6555 242.858C57.9635 243.194 58.3415 243.362 58.8035 243.362C59.2655 243.362 59.6435 243.194 59.9375 242.858ZM65.0459 244.132C64.3599 243.446 64.0099 242.592 64.0099 241.57C64.0099 240.548 64.3599 239.694 65.0459 239.008C65.7459 238.322 66.6139 237.972 67.6359 237.972C68.6579 237.972 69.5259 238.322 70.2119 239.008C70.9119 239.694 71.2619 240.548 71.2619 241.57C71.2619 242.592 70.9119 243.446 70.2259 244.132C69.5399 244.818 68.6719 245.154 67.6359 245.154C66.5999 245.154 65.7319 244.818 65.0459 244.132ZM66.4879 240.324C66.1939 240.646 66.0399 241.066 66.0399 241.57C66.0399 242.074 66.1939 242.494 66.4879 242.816C66.7819 243.138 67.1739 243.306 67.6359 243.306C68.0979 243.306 68.4899 243.138 68.7839 242.816C69.0779 242.494 69.2319 242.074 69.2319 241.57C69.2319 241.066 69.0779 240.646 68.7839 240.324C68.4899 240.002 68.0979 239.834 67.6359 239.834C67.1739 239.834 66.7819 240.002 66.4879 240.324ZM72.9195 244.006V239.134C72.9195 238.476 73.3535 238.07 73.9135 238.07C74.3755 238.07 74.6835 238.28 74.8375 238.686C75.2435 238.21 75.7895 237.972 76.5035 237.972C78.1975 237.972 79.2895 239.092 79.2895 241.01V244.006C79.2895 244.664 78.8695 245.07 78.2955 245.07C77.7215 245.07 77.3015 244.664 77.3015 244.006V241.164C77.3015 240.38 76.9375 239.82 76.1675 239.82C75.3275 239.82 74.9075 240.408 74.9075 241.57V244.006C74.9915 245.406 72.8355 245.406 72.9195 244.006ZM81.5273 238.686C82.1293 238.21 82.9273 237.972 83.8933 237.972C84.7473 237.972 85.4473 238.224 85.9933 238.714C86.5393 239.204 86.8053 239.862 86.8053 240.716V244.006C86.8053 244.664 86.3713 245.07 85.8113 245.07C85.3493 245.07 85.0413 244.86 84.8873 244.44C84.4113 244.916 83.8233 245.154 83.1373 245.154C82.4513 245.154 81.9053 244.958 81.4713 244.566C81.0373 244.16 80.8273 243.656 80.8273 243.04C80.8273 242.326 81.0793 241.794 81.5973 241.43C82.1153 241.066 82.7733 240.87 83.5433 240.842L84.8033 240.786C84.8033 240.086 84.4533 239.736 83.7533 239.736C83.3333 239.736 82.9553 239.848 82.6053 240.086C82.0873 240.436 81.5833 240.394 81.2893 240.002C80.9673 239.624 81.0653 239.064 81.5273 238.686ZM82.8293 242.928C82.8293 243.264 83.1233 243.474 83.6273 243.474C84.0333 243.474 84.4253 243.334 84.8033 243.054V242.242L83.9213 242.312C83.1933 242.354 82.8293 242.55 82.8293 242.928ZM90.9036 236.194V244.006C90.9876 245.406 88.8316 245.406 88.9156 244.006V236.194C88.8316 234.794 90.9876 234.794 90.9036 236.194ZM99.7248 236.194V244.006C99.7248 244.664 99.2908 245.07 98.7308 245.07C98.2548 245.07 97.9468 244.86 97.8068 244.426C97.4568 244.86 96.7148 245.154 95.9728 245.154C95.0068 245.154 94.1808 244.832 93.5228 244.174C92.8648 243.516 92.5428 242.648 92.5428 241.57C92.5428 240.506 92.8648 239.638 93.5228 238.98C94.1808 238.308 95.0068 237.972 95.9728 237.972C96.6868 237.972 97.2748 238.168 97.7368 238.574V236.194C97.6528 234.794 99.8088 234.794 99.7248 236.194ZM97.3028 242.858C97.6108 242.522 97.7648 242.088 97.7648 241.57C97.7648 241.052 97.6108 240.618 97.3028 240.282C97.0088 239.946 96.6308 239.778 96.1688 239.778C95.7068 239.778 95.3288 239.946 95.0208 240.282C94.7268 240.618 94.5728 241.052 94.5728 241.57C94.5728 242.088 94.7268 242.522 95.0208 242.858C95.3288 243.194 95.7068 243.362 96.1688 243.362C96.6308 243.362 97.0088 243.194 97.3028 242.858ZM113.797 236.208C114.301 236.656 114.343 237.272 113.951 237.678C113.573 238.126 113.013 238.182 112.467 237.734C111.893 237.23 111.207 236.978 110.395 236.978C109.625 236.978 108.953 237.258 108.365 237.818C107.791 238.364 107.497 239.12 107.497 240.072C107.497 241.038 107.791 241.808 108.365 242.368C108.939 242.928 109.653 243.208 110.507 243.208C111.305 243.208 112.005 242.956 112.621 242.438C113.167 242.004 113.727 242.06 114.105 242.494C114.497 242.9 114.455 243.516 113.951 243.964C113.055 244.762 111.921 245.154 110.563 245.154C109.065 245.154 107.819 244.692 106.825 243.768C105.845 242.844 105.355 241.626 105.355 240.114C105.355 238.588 105.845 237.356 106.825 236.432C107.805 235.494 109.023 235.032 110.493 235.032C111.767 235.032 112.873 235.424 113.797 236.208ZM116.835 244.132C116.149 243.446 115.799 242.592 115.799 241.57C115.799 240.548 116.149 239.694 116.835 239.008C117.535 238.322 118.403 237.972 119.425 237.972C120.447 237.972 121.315 238.322 122.001 239.008C122.701 239.694 123.051 240.548 123.051 241.57C123.051 242.592 122.701 243.446 122.015 244.132C121.329 244.818 120.461 245.154 119.425 245.154C118.389 245.154 117.521 244.818 116.835 244.132ZM118.277 240.324C117.983 240.646 117.829 241.066 117.829 241.57C117.829 242.074 117.983 242.494 118.277 242.816C118.571 243.138 118.963 243.306 119.425 243.306C119.887 243.306 120.279 243.138 120.573 242.816C120.867 242.494 121.021 242.074 121.021 241.57C121.021 241.066 120.867 240.646 120.573 240.324C120.279 240.002 119.887 239.834 119.425 239.834C118.963 239.834 118.571 240.002 118.277 240.324ZM124.709 244.006V239.134C124.709 238.476 125.143 238.07 125.703 238.07C126.165 238.07 126.473 238.28 126.627 238.686C127.033 238.21 127.579 237.972 128.293 237.972C129.987 237.972 131.079 239.092 131.079 241.01V244.006C131.079 244.664 130.659 245.07 130.085 245.07C129.511 245.07 129.091 244.664 129.091 244.006V241.164C129.091 240.38 128.727 239.82 127.957 239.82C127.117 239.82 126.697 240.408 126.697 241.57V244.006C126.781 245.406 124.625 245.406 124.709 244.006ZM132.742 244.356C132.238 243.95 132.224 243.334 132.602 242.928C132.952 242.494 133.484 242.452 134.03 242.858C134.352 243.124 134.688 243.25 135.038 243.25C135.864 243.25 136.312 242.704 136.312 241.71V236.222C136.312 235.536 136.746 235.116 137.348 235.116C137.95 235.116 138.384 235.536 138.384 236.222V241.626C138.384 243.908 137.152 245.154 135.024 245.154C134.142 245.154 133.386 244.888 132.742 244.356ZM146.383 239.134V244.006C146.383 244.664 145.949 245.07 145.389 245.07C144.941 245.07 144.633 244.86 144.479 244.454C144.087 244.916 143.527 245.154 142.785 245.154C141.105 245.154 140.167 244.076 140.167 242.13V239.134C140.083 237.734 142.239 237.734 142.155 239.134V241.976C142.155 242.872 142.505 243.32 143.205 243.32C144.087 243.32 144.395 242.704 144.395 241.57V239.134C144.311 237.734 146.467 237.734 146.383 239.134ZM148.593 244.006V239.134C148.593 238.476 149.027 238.07 149.587 238.07C150.049 238.07 150.357 238.28 150.511 238.686C150.917 238.21 151.463 237.972 152.177 237.972C153.871 237.972 154.963 239.092 154.963 241.01V244.006C154.963 244.664 154.543 245.07 153.969 245.07C153.395 245.07 152.975 244.664 152.975 244.006V241.164C152.975 240.38 152.611 239.82 151.841 239.82C151.001 239.82 150.581 240.408 150.581 241.57V244.006C150.665 245.406 148.509 245.406 148.593 244.006ZM159.695 243.18C160.325 243.25 160.661 243.6 160.661 244.118C160.661 244.636 160.283 245.028 159.597 245.028H159.415C157.819 245.028 157.021 244.216 157.021 242.578V239.974H156.769C156.153 239.974 155.775 239.582 155.775 239.064C155.775 238.546 156.153 238.14 156.769 238.14H157.021V237.216C156.937 235.816 159.093 235.816 158.995 237.216V238.14H159.667C160.283 238.14 160.661 238.546 160.661 239.064C160.661 239.582 160.283 239.974 159.667 239.974H158.995V242.34C158.995 242.914 159.233 243.138 159.695 243.18ZM162.882 244.132C162.196 243.446 161.846 242.592 161.846 241.57C161.846 240.548 162.196 239.694 162.882 239.008C163.582 238.322 164.45 237.972 165.472 237.972C166.494 237.972 167.362 238.322 168.048 239.008C168.748 239.694 169.098 240.548 169.098 241.57C169.098 242.592 168.748 243.446 168.062 244.132C167.376 244.818 166.508 245.154 165.472 245.154C164.436 245.154 163.568 244.818 162.882 244.132ZM164.324 240.324C164.03 240.646 163.876 241.066 163.876 241.57C163.876 242.074 164.03 242.494 164.324 242.816C164.618 243.138 165.01 243.306 165.472 243.306C165.934 243.306 166.326 243.138 166.62 242.816C166.914 242.494 167.068 242.074 167.068 241.57C167.068 241.066 166.914 240.646 166.62 240.324C166.326 240.002 165.934 239.834 165.472 239.834C165.01 239.834 164.618 240.002 164.324 240.324ZM170.923 244.398C170.461 243.992 170.405 243.46 170.755 243.068C171.133 242.648 171.567 242.634 172.071 243.04C172.449 243.334 172.953 243.488 173.569 243.488C174.003 243.488 174.339 243.334 174.339 243.068C174.339 242.844 174.185 242.732 173.723 242.606L172.953 242.382C171.427 241.948 170.713 241.248 170.713 240.142C170.713 239.484 170.965 238.966 171.483 238.574C172.001 238.168 172.631 237.972 173.373 237.972C174.171 237.972 174.843 238.14 175.403 238.49C175.907 238.826 176.033 239.33 175.767 239.764C175.473 240.212 174.997 240.338 174.451 240.016C174.087 239.778 173.695 239.666 173.289 239.666C172.897 239.666 172.645 239.82 172.645 240.044C172.645 240.254 172.799 240.338 173.135 240.436L174.017 240.674C175.417 241.066 176.271 241.668 176.271 242.942C176.271 244.244 175.151 245.154 173.401 245.154C172.351 245.154 171.525 244.902 170.923 244.398ZM178.461 240.044C177.999 239.582 177.999 238.798 178.461 238.336C178.923 237.846 179.707 237.846 180.169 238.336C180.659 238.798 180.659 239.582 180.169 240.044C179.707 240.506 178.923 240.506 178.461 240.044ZM179.917 244.608L178.979 246.61C178.769 247.058 178.363 247.24 177.929 247.128C177.425 246.974 177.131 246.512 177.341 245.966L178.097 243.908C178.321 243.292 178.825 243.04 179.399 243.222C179.945 243.39 180.183 244.006 179.917 244.608ZM192.64 240.982C192.64 241.71 192.276 242.074 191.534 242.074H188.02C188.132 242.816 188.706 243.334 189.56 243.334C190.036 243.334 190.442 243.194 190.792 242.914C191.338 242.522 191.842 242.648 192.192 243.11C192.514 243.502 192.416 244.062 191.898 244.468C191.296 244.93 190.526 245.154 189.616 245.154C188.566 245.154 187.712 244.832 187.026 244.188C186.34 243.53 186.004 242.676 186.004 241.612C186.004 240.562 186.312 239.694 186.942 239.008C187.572 238.322 188.384 237.972 189.378 237.972C190.064 237.972 190.666 238.14 191.184 238.462C192.234 239.12 192.64 240.044 192.64 240.982ZM189.42 239.722C188.706 239.722 188.244 240.142 188.118 240.744H190.582C190.54 240.17 190.078 239.722 189.42 239.722ZM194.339 244.006V239.134C194.339 238.476 194.773 238.07 195.333 238.07C195.795 238.07 196.103 238.28 196.257 238.686C196.663 238.21 197.209 237.972 197.923 237.972C199.617 237.972 200.709 239.092 200.709 241.01V244.006C200.709 244.664 200.289 245.07 199.715 245.07C199.141 245.07 198.721 244.664 198.721 244.006V241.164C198.721 240.38 198.357 239.82 197.587 239.82C196.747 239.82 196.327 240.408 196.327 241.57V244.006C196.411 245.406 194.255 245.406 194.339 244.006ZM205.441 243.18C206.071 243.25 206.407 243.6 206.407 244.118C206.407 244.636 206.029 245.028 205.343 245.028H205.161C203.565 245.028 202.767 244.216 202.767 242.578V239.974H202.515C201.899 239.974 201.521 239.582 201.521 239.064C201.521 238.546 201.899 238.14 202.515 238.14H202.767V237.216C202.683 235.816 204.839 235.816 204.741 237.216V238.14H205.413C206.029 238.14 206.407 238.546 206.407 239.064C206.407 239.582 206.029 239.974 205.413 239.974H204.741V242.34C204.741 242.914 204.979 243.138 205.441 243.18ZM212.252 238.098C212.7 238.21 213.036 238.56 213.036 239.078C213.036 239.624 212.658 240.002 212.168 240.002C212.07 240.002 211.86 239.974 211.734 239.974C210.782 239.974 210.054 240.744 210.054 242.13V244.006C210.138 245.406 207.982 245.406 208.066 244.006V239.134C208.066 238.476 208.5 238.07 209.06 238.07C209.578 238.07 209.956 238.406 210.026 238.896C210.418 238.35 211.09 238.042 211.692 238.042C211.93 238.042 212.112 238.056 212.252 238.098ZM220.244 240.982C220.244 241.71 219.88 242.074 219.138 242.074H215.624C215.736 242.816 216.31 243.334 217.164 243.334C217.64 243.334 218.046 243.194 218.396 242.914C218.942 242.522 219.446 242.648 219.796 243.11C220.118 243.502 220.02 244.062 219.502 244.468C218.9 244.93 218.13 245.154 217.22 245.154C216.17 245.154 215.316 244.832 214.63 244.188C213.944 243.53 213.608 242.676 213.608 241.612C213.608 240.562 213.916 239.694 214.546 239.008C215.176 238.322 215.988 237.972 216.982 237.972C217.668 237.972 218.27 238.14 218.788 238.462C219.838 239.12 220.244 240.044 220.244 240.982ZM217.024 239.722C216.31 239.722 215.848 240.142 215.722 240.744H218.186C218.144 240.17 217.682 239.722 217.024 239.722ZM33.4146 268.006V263.134C33.4146 262.476 33.8486 262.07 34.4086 262.07C34.8706 262.07 35.1786 262.28 35.3326 262.686C35.7386 262.21 36.3126 261.972 37.0266 261.972C37.8246 261.972 38.4546 262.252 38.9306 262.798C39.4766 262.252 40.1626 261.972 40.9886 261.972C42.8226 261.972 43.8586 263.064 43.8586 265.01V268.006C43.9426 269.406 41.7866 269.406 41.8706 268.006V265.094C41.8706 264.324 41.5066 263.82 40.8206 263.82C40.0786 263.82 39.6306 264.394 39.6306 265.346V268.006C39.7146 269.406 37.5586 269.406 37.6426 268.006V265.094C37.6426 264.324 37.2786 263.82 36.5926 263.82C35.8086 263.82 35.4026 264.422 35.4026 265.486V268.006C35.4866 269.406 33.3306 269.406 33.4146 268.006ZM46.0966 262.686C46.6986 262.21 47.4966 261.972 48.4626 261.972C49.3166 261.972 50.0166 262.224 50.5626 262.714C51.1086 263.204 51.3746 263.862 51.3746 264.716V268.006C51.3746 268.664 50.9406 269.07 50.3806 269.07C49.9186 269.07 49.6106 268.86 49.4566 268.44C48.9806 268.916 48.3926 269.154 47.7066 269.154C47.0206 269.154 46.4746 268.958 46.0406 268.566C45.6066 268.16 45.3966 267.656 45.3966 267.04C45.3966 266.326 45.6486 265.794 46.1666 265.43C46.6846 265.066 47.3426 264.87 48.1126 264.842L49.3726 264.786C49.3726 264.086 49.0226 263.736 48.3226 263.736C47.9026 263.736 47.5246 263.848 47.1746 264.086C46.6566 264.436 46.1526 264.394 45.8586 264.002C45.5366 263.624 45.6346 263.064 46.0966 262.686ZM47.3986 266.928C47.3986 267.264 47.6926 267.474 48.1966 267.474C48.6026 267.474 48.9946 267.334 49.3726 267.054V266.242L48.4906 266.312C47.7626 266.354 47.3986 266.55 47.3986 266.928ZM60.1105 260.194V268.006C60.1105 268.664 59.6765 269.07 59.1165 269.07C58.6405 269.07 58.3325 268.86 58.1925 268.426C57.8425 268.86 57.1005 269.154 56.3585 269.154C55.3925 269.154 54.5665 268.832 53.9085 268.174C53.2505 267.516 52.9285 266.648 52.9285 265.57C52.9285 264.506 53.2505 263.638 53.9085 262.98C54.5665 262.308 55.3925 261.972 56.3585 261.972C57.0725 261.972 57.6605 262.168 58.1225 262.574V260.194C58.0385 258.794 60.1945 258.794 60.1105 260.194ZM57.6885 266.858C57.9965 266.522 58.1505 266.088 58.1505 265.57C58.1505 265.052 57.9965 264.618 57.6885 264.282C57.3945 263.946 57.0165 263.778 56.5545 263.778C56.0925 263.778 55.7145 263.946 55.4065 264.282C55.1125 264.618 54.9585 265.052 54.9585 265.57C54.9585 266.088 55.1125 266.522 55.4065 266.858C55.7145 267.194 56.0925 267.362 56.5545 267.362C57.0165 267.362 57.3945 267.194 57.6885 266.858ZM66.4893 262.098C66.9373 262.21 67.2733 262.56 67.2733 263.078C67.2733 263.624 66.8953 264.002 66.4053 264.002C66.3073 264.002 66.0973 263.974 65.9713 263.974C65.0193 263.974 64.2913 264.744 64.2913 266.13V268.006C64.3753 269.406 62.2193 269.406 62.3033 268.006V263.134C62.3033 262.476 62.7373 262.07 63.2973 262.07C63.8153 262.07 64.1933 262.406 64.2633 262.896C64.6553 262.35 65.3273 262.042 65.9293 262.042C66.1673 262.042 66.3493 262.056 66.4893 262.098ZM74.4808 264.982C74.4808 265.71 74.1168 266.074 73.3748 266.074H69.8608C69.9728 266.816 70.5468 267.334 71.4008 267.334C71.8768 267.334 72.2828 267.194 72.6328 266.914C73.1788 266.522 73.6828 266.648 74.0328 267.11C74.3548 267.502 74.2568 268.062 73.7388 268.468C73.1368 268.93 72.3668 269.154 71.4568 269.154C70.4068 269.154 69.5528 268.832 68.8668 268.188C68.1808 267.53 67.8448 266.676 67.8448 265.612C67.8448 264.562 68.1528 263.694 68.7828 263.008C69.4128 262.322 70.2248 261.972 71.2188 261.972C71.9048 261.972 72.5068 262.14 73.0248 262.462C74.0748 263.12 74.4808 264.044 74.4808 264.982ZM71.2608 263.722C70.5468 263.722 70.0848 264.142 69.9588 264.744H72.4228C72.3808 264.17 71.9188 263.722 71.2608 263.722ZM76.3482 268.398C75.8862 267.992 75.8302 267.46 76.1802 267.068C76.5582 266.648 76.9922 266.634 77.4962 267.04C77.8742 267.334 78.3782 267.488 78.9942 267.488C79.4282 267.488 79.7642 267.334 79.7642 267.068C79.7642 266.844 79.6102 266.732 79.1482 266.606L78.3782 266.382C76.8522 265.948 76.1382 265.248 76.1382 264.142C76.1382 263.484 76.3902 262.966 76.9082 262.574C77.4262 262.168 78.0562 261.972 78.7982 261.972C79.5962 261.972 80.2682 262.14 80.8282 262.49C81.3322 262.826 81.4582 263.33 81.1922 263.764C80.8982 264.212 80.4222 264.338 79.8762 264.016C79.5122 263.778 79.1202 263.666 78.7142 263.666C78.3222 263.666 78.0702 263.82 78.0702 264.044C78.0702 264.254 78.2242 264.338 78.5602 264.436L79.4422 264.674C80.8422 265.066 81.6962 265.668 81.6962 266.942C81.6962 268.244 80.5762 269.154 78.8262 269.154C77.7762 269.154 76.9502 268.902 76.3482 268.398ZM85.3532 268.608L84.4152 270.61C84.2052 271.058 83.7992 271.24 83.3652 271.128C82.8612 270.974 82.5672 270.512 82.7772 269.966L83.5332 267.908C83.7572 267.292 84.2612 267.04 84.8352 267.222C85.3812 267.39 85.6192 268.006 85.3532 268.608ZM91.5884 270.722V263.12C91.5884 262.448 92.0224 262.056 92.5824 262.056C93.0584 262.056 93.3664 262.266 93.5064 262.7C93.8564 262.266 94.5984 261.972 95.3404 261.972C96.3064 261.972 97.1184 262.308 97.7764 262.966C98.4344 263.624 98.7704 264.492 98.7704 265.57C98.7704 266.634 98.4344 267.502 97.7764 268.16C97.1184 268.818 96.3064 269.154 95.3404 269.154C94.6264 269.154 94.0384 268.958 93.5764 268.552V270.722C93.6604 272.122 91.5044 272.122 91.5884 270.722ZM93.9964 264.282C93.7024 264.618 93.5484 265.052 93.5484 265.57C93.5484 266.088 93.7024 266.522 93.9964 266.858C94.3044 267.194 94.6824 267.362 95.1444 267.362C95.6064 267.362 95.9844 267.194 96.2784 266.858C96.5864 266.522 96.7404 266.088 96.7404 265.57C96.7404 265.052 96.5864 264.618 96.2784 264.282C95.9844 263.946 95.6064 263.778 95.1444 263.778C94.6824 263.778 94.3044 263.946 93.9964 264.282ZM100.757 262.686C101.359 262.21 102.157 261.972 103.123 261.972C103.977 261.972 104.677 262.224 105.223 262.714C105.769 263.204 106.035 263.862 106.035 264.716V268.006C106.035 268.664 105.601 269.07 105.041 269.07C104.579 269.07 104.271 268.86 104.117 268.44C103.641 268.916 103.053 269.154 102.367 269.154C101.681 269.154 101.135 268.958 100.701 268.566C100.267 268.16 100.057 267.656 100.057 267.04C100.057 266.326 100.309 265.794 100.827 265.43C101.345 265.066 102.003 264.87 102.773 264.842L104.033 264.786C104.033 264.086 103.683 263.736 102.983 263.736C102.563 263.736 102.185 263.848 101.835 264.086C101.317 264.436 100.813 264.394 100.519 264.002C100.197 263.624 100.295 263.064 100.757 262.686ZM102.059 266.928C102.059 267.264 102.353 267.474 102.857 267.474C103.263 267.474 103.655 267.334 104.033 267.054V266.242L103.151 266.312C102.423 266.354 102.059 266.55 102.059 266.928ZM114.771 260.194V268.006C114.771 268.664 114.337 269.07 113.777 269.07C113.301 269.07 112.993 268.86 112.853 268.426C112.503 268.86 111.761 269.154 111.019 269.154C110.053 269.154 109.227 268.832 108.569 268.174C107.911 267.516 107.589 266.648 107.589 265.57C107.589 264.506 107.911 263.638 108.569 262.98C109.227 262.308 110.053 261.972 111.019 261.972C111.733 261.972 112.321 262.168 112.783 262.574V260.194C112.699 258.794 114.855 258.794 114.771 260.194ZM112.349 266.858C112.657 266.522 112.811 266.088 112.811 265.57C112.811 265.052 112.657 264.618 112.349 264.282C112.055 263.946 111.677 263.778 111.215 263.778C110.753 263.778 110.375 263.946 110.067 264.282C109.773 264.618 109.619 265.052 109.619 265.57C109.619 266.088 109.773 266.522 110.067 266.858C110.375 267.194 110.753 267.362 111.215 267.362C111.677 267.362 112.055 267.194 112.349 266.858ZM121.149 262.098C121.597 262.21 121.933 262.56 121.933 263.078C121.933 263.624 121.555 264.002 121.065 264.002C120.967 264.002 120.757 263.974 120.631 263.974C119.679 263.974 118.951 264.744 118.951 266.13V268.006C119.035 269.406 116.879 269.406 116.963 268.006V263.134C116.963 262.476 117.397 262.07 117.957 262.07C118.475 262.07 118.853 262.406 118.923 262.896C119.315 262.35 119.987 262.042 120.589 262.042C120.827 262.042 121.009 262.056 121.149 262.098ZM129.141 264.982C129.141 265.71 128.777 266.074 128.035 266.074H124.521C124.633 266.816 125.207 267.334 126.061 267.334C126.537 267.334 126.943 267.194 127.293 266.914C127.839 266.522 128.343 266.648 128.693 267.11C129.015 267.502 128.917 268.062 128.399 268.468C127.797 268.93 127.027 269.154 126.117 269.154C125.067 269.154 124.213 268.832 123.527 268.188C122.841 267.53 122.505 266.676 122.505 265.612C122.505 264.562 122.813 263.694 123.443 263.008C124.073 262.322 124.885 261.972 125.879 261.972C126.565 261.972 127.167 262.14 127.685 262.462C128.735 263.12 129.141 264.044 129.141 264.982ZM125.921 263.722C125.207 263.722 124.745 264.142 124.619 264.744H127.083C127.041 264.17 126.579 263.722 125.921 263.722ZM131.008 268.398C130.546 267.992 130.49 267.46 130.84 267.068C131.218 266.648 131.652 266.634 132.156 267.04C132.534 267.334 133.038 267.488 133.654 267.488C134.088 267.488 134.424 267.334 134.424 267.068C134.424 266.844 134.27 266.732 133.808 266.606L133.038 266.382C131.512 265.948 130.798 265.248 130.798 264.142C130.798 263.484 131.05 262.966 131.568 262.574C132.086 262.168 132.716 261.972 133.458 261.972C134.256 261.972 134.928 262.14 135.488 262.49C135.992 262.826 136.118 263.33 135.852 263.764C135.558 264.212 135.082 264.338 134.536 264.016C134.172 263.778 133.78 263.666 133.374 263.666C132.982 263.666 132.73 263.82 132.73 264.044C132.73 264.254 132.884 264.338 133.22 264.436L134.102 264.674C135.502 265.066 136.356 265.668 136.356 266.942C136.356 268.244 135.236 269.154 133.486 269.154C132.436 269.154 131.61 268.902 131.008 268.398ZM143.288 270.428L143.904 269L141.79 263.484C141.566 262.868 141.86 262.28 142.42 262.112C142.938 261.958 143.442 262.21 143.666 262.84L144.982 266.382L146.312 262.84C146.536 262.21 147.04 261.958 147.558 262.112C148.118 262.294 148.44 262.812 148.202 263.414L145.178 271.002C144.912 271.66 144.506 271.898 143.932 271.73C143.358 271.548 143.022 271.03 143.288 270.428ZM153.7 268.006V260.194C153.616 258.794 155.772 258.794 155.688 260.194V262.56C156.066 262.168 156.598 261.972 157.284 261.972C158.978 261.972 160.07 263.092 160.07 265.01V268.006C160.07 268.664 159.65 269.07 159.076 269.07C158.502 269.07 158.082 268.664 158.082 268.006V265.164C158.082 264.38 157.718 263.82 156.948 263.82C156.108 263.82 155.688 264.352 155.688 265.416V268.006C155.772 269.406 153.616 269.406 153.7 268.006ZM168.202 264.982C168.202 265.71 167.838 266.074 167.096 266.074H163.582C163.694 266.816 164.268 267.334 165.122 267.334C165.598 267.334 166.004 267.194 166.354 266.914C166.9 266.522 167.404 266.648 167.754 267.11C168.076 267.502 167.978 268.062 167.46 268.468C166.858 268.93 166.088 269.154 165.178 269.154C164.128 269.154 163.274 268.832 162.588 268.188C161.902 267.53 161.566 266.676 161.566 265.612C161.566 264.562 161.874 263.694 162.504 263.008C163.134 262.322 163.946 261.972 164.94 261.972C165.626 261.972 166.228 262.14 166.746 262.462C167.796 263.12 168.202 264.044 168.202 264.982ZM164.982 263.722C164.268 263.722 163.806 264.142 163.68 264.744H166.144C166.102 264.17 165.64 263.722 164.982 263.722ZM174.087 262.098C174.535 262.21 174.871 262.56 174.871 263.078C174.871 263.624 174.493 264.002 174.003 264.002C173.905 264.002 173.695 263.974 173.569 263.974C172.617 263.974 171.889 264.744 171.889 266.13V268.006C171.973 269.406 169.817 269.406 169.901 268.006V263.134C169.901 262.476 170.335 262.07 170.895 262.07C171.413 262.07 171.791 262.406 171.861 262.896C172.253 262.35 172.925 262.042 173.527 262.042C173.765 262.042 173.947 262.056 174.087 262.098ZM175.985 268.006V263.134C175.985 262.476 176.419 262.07 176.979 262.07C177.441 262.07 177.749 262.28 177.903 262.686C178.309 262.21 178.883 261.972 179.597 261.972C180.395 261.972 181.025 262.252 181.501 262.798C182.047 262.252 182.733 261.972 183.559 261.972C185.393 261.972 186.429 263.064 186.429 265.01V268.006C186.513 269.406 184.357 269.406 184.441 268.006V265.094C184.441 264.324 184.077 263.82 183.391 263.82C182.649 263.82 182.201 264.394 182.201 265.346V268.006C182.285 269.406 180.129 269.406 180.213 268.006V265.094C180.213 264.324 179.849 263.82 179.163 263.82C178.379 263.82 177.973 264.422 177.973 265.486V268.006C178.057 269.406 175.901 269.406 175.985 268.006ZM188.667 262.686C189.269 262.21 190.067 261.972 191.033 261.972C191.887 261.972 192.587 262.224 193.133 262.714C193.679 263.204 193.945 263.862 193.945 264.716V268.006C193.945 268.664 193.511 269.07 192.951 269.07C192.489 269.07 192.181 268.86 192.027 268.44C191.551 268.916 190.963 269.154 190.277 269.154C189.591 269.154 189.045 268.958 188.611 268.566C188.177 268.16 187.967 267.656 187.967 267.04C187.967 266.326 188.219 265.794 188.737 265.43C189.255 265.066 189.913 264.87 190.683 264.842L191.943 264.786C191.943 264.086 191.593 263.736 190.893 263.736C190.473 263.736 190.095 263.848 189.745 264.086C189.227 264.436 188.723 264.394 188.429 264.002C188.107 263.624 188.205 263.064 188.667 262.686ZM189.969 266.928C189.969 267.264 190.263 267.474 190.767 267.474C191.173 267.474 191.565 267.334 191.943 267.054V266.242L191.061 266.312C190.333 266.354 189.969 266.55 189.969 266.928ZM196.055 268.006V263.134C196.055 262.476 196.489 262.07 197.049 262.07C197.511 262.07 197.819 262.28 197.973 262.686C198.379 262.21 198.925 261.972 199.639 261.972C201.333 261.972 202.425 263.092 202.425 265.01V268.006C202.425 268.664 202.005 269.07 201.431 269.07C200.857 269.07 200.437 268.664 200.437 268.006V265.164C200.437 264.38 200.073 263.82 199.303 263.82C198.463 263.82 198.043 264.408 198.043 265.57V268.006C198.127 269.406 195.971 269.406 196.055 268.006ZM204.957 268.132C204.271 267.446 203.921 266.592 203.921 265.57C203.921 264.548 204.271 263.694 204.957 263.008C205.657 262.322 206.525 261.972 207.547 261.972C208.569 261.972 209.437 262.322 210.123 263.008C210.823 263.694 211.173 264.548 211.173 265.57C211.173 266.592 210.823 267.446 210.137 268.132C209.451 268.818 208.583 269.154 207.547 269.154C206.511 269.154 205.643 268.818 204.957 268.132ZM206.399 264.324C206.105 264.646 205.951 265.066 205.951 265.57C205.951 266.074 206.105 266.494 206.399 266.816C206.693 267.138 207.085 267.306 207.547 267.306C208.009 267.306 208.401 267.138 208.695 266.816C208.989 266.494 209.143 266.074 209.143 265.57C209.143 265.066 208.989 264.646 208.695 264.324C208.401 264.002 208.009 263.834 207.547 263.834C207.085 263.834 206.693 264.002 206.399 264.324ZM212.999 268.398C212.537 267.992 212.481 267.46 212.831 267.068C213.209 266.648 213.643 266.634 214.147 267.04C214.525 267.334 215.029 267.488 215.645 267.488C216.079 267.488 216.415 267.334 216.415 267.068C216.415 266.844 216.261 266.732 215.799 266.606L215.029 266.382C213.503 265.948 212.789 265.248 212.789 264.142C212.789 263.484 213.041 262.966 213.559 262.574C214.077 262.168 214.707 261.972 215.449 261.972C216.247 261.972 216.919 262.14 217.479 262.49C217.983 262.826 218.109 263.33 217.843 263.764C217.549 264.212 217.073 264.338 216.527 264.016C216.163 263.778 215.771 263.666 215.365 263.666C214.973 263.666 214.721 263.82 214.721 264.044C214.721 264.254 214.875 264.338 215.211 264.436L216.093 264.674C217.493 265.066 218.347 265.668 218.347 266.942C218.347 268.244 217.227 269.154 215.477 269.154C214.427 269.154 213.601 268.902 212.999 268.398ZM220.282 268.79C219.834 268.328 219.834 267.544 220.282 267.082C220.744 266.62 221.528 266.62 221.99 267.082C222.48 267.544 222.48 268.328 221.99 268.79C221.528 269.252 220.744 269.252 220.282 268.79Z" fill="#F9D332"/>
<circle cx="121.5" cy="91.5" r="78" fill="#F9D332" stroke="#930345" stroke-width="9"/>
<path d="M90.5329 93.816C87.3969 94.04 87.3969 89.176 90.5329 89.4C92.7409 89.4 94.0209 88.408 94.0209 86.872C94.0209 85.56 92.8689 84.568 91.0769 84.568C89.7649 84.568 88.6769 84.888 87.8129 85.496C86.6289 86.296 85.4769 86.2 84.7089 85.304C83.9409 84.504 84.0049 83.032 85.1249 82.136C86.7249 80.856 88.6769 80.216 90.9489 80.216C93.1249 80.216 94.9809 80.728 96.4849 81.784C98.0209 82.84 98.7889 84.376 98.7889 86.424C98.7889 88.568 97.9569 90.168 96.2929 91.288C97.9889 92.152 99.3329 94.04 99.3329 96.568C99.3329 98.712 98.5329 100.376 96.9329 101.56C95.3329 102.744 93.3169 103.352 90.8849 103.352C88.5169 103.352 86.4369 102.68 84.6769 101.368C83.4929 100.472 83.4289 98.904 84.2289 98.04C85.1569 97.016 86.2449 96.952 87.4929 97.848C88.5489 98.616 89.7329 99 91.0769 99C93.1569 99 94.5969 98.072 94.5969 96.44C94.5969 94.68 93.2529 93.816 90.5329 93.816ZM104.814 83.736L108.91 81.24C109.806 80.696 110.574 80.44 111.246 80.44C112.75 80.44 113.774 81.496 113.774 83.288V98.616H116.846C118.286 98.616 119.214 99.544 119.214 100.824C119.214 102.072 118.318 103 116.878 103H105.262C103.822 103 102.926 102.072 102.926 100.824C102.926 99.544 103.822 98.616 105.262 98.616H109.038V86.456L106.798 87.768C105.87 88.248 105.038 88.312 104.302 87.896C103.598 87.48 103.246 86.904 103.246 86.104C103.246 85.176 103.758 84.376 104.814 83.736ZM122.441 96.568C122.441 94.232 123.625 92.376 125.257 91.448C123.753 90.2 122.985 88.728 122.985 87C122.985 84.984 123.689 83.352 125.129 82.104C126.569 80.856 128.393 80.216 130.569 80.216C132.745 80.216 134.537 80.856 135.977 82.104C137.417 83.352 138.153 84.984 138.153 87C138.153 88.728 137.417 90.2 135.913 91.448C137.481 92.376 138.697 94.232 138.697 96.568C138.697 98.648 137.929 100.28 136.393 101.528C134.889 102.744 132.937 103.352 130.569 103.352C128.201 103.352 126.249 102.744 124.713 101.528C123.209 100.28 122.441 98.648 122.441 96.568ZM130.569 84.568C129.033 84.568 127.721 85.496 127.721 87C127.721 88.504 129.033 89.432 130.569 89.432C132.137 89.432 133.417 88.504 133.417 87C133.417 85.496 132.137 84.568 130.569 84.568ZM130.569 99C132.617 99 133.961 97.976 133.961 96.312C133.961 94.648 132.617 93.592 130.569 93.592C128.553 93.592 127.177 94.648 127.177 96.312C127.177 97.976 128.553 99 130.569 99ZM154.588 97.08C155.324 95.768 155.676 94.008 155.676 91.768C155.676 89.528 155.324 87.768 154.588 86.488C153.884 85.208 152.86 84.568 151.516 84.568C150.172 84.568 149.148 85.208 148.412 86.488C147.708 87.768 147.356 89.528 147.356 91.768C147.356 94.008 147.708 95.768 148.412 97.08C149.148 98.36 150.172 99 151.516 99C152.86 99 153.884 98.36 154.588 97.08ZM160.412 91.768C160.412 95.224 159.612 98.008 158.044 100.152C156.476 102.296 154.3 103.352 151.516 103.352C148.732 103.352 146.556 102.296 144.988 100.152C143.42 98.008 142.62 95.224 142.62 91.768C142.62 88.312 143.42 85.528 144.988 83.416C146.556 81.272 148.732 80.216 151.516 80.216C154.3 80.216 156.476 81.272 158.044 83.416C159.612 85.56 160.412 88.344 160.412 91.768Z" fill="#930345"/>
</svg>
