<svg width="245" height="298" viewBox="0 0 245 298" fill="none" xmlns="http://www.w3.org/2000/svg">
<rect width="244.793" height="297.688" fill="#F9D332"/>
<path d="M49.819 250H47.643C46.683 250 46.123 249.44 46.123 248.48V240.32C46.123 239.36 46.683 238.8 47.643 238.8H49.819C51.419 238.8 52.843 239.2 54.059 240.032C55.291 240.848 56.075 242.384 56.075 244.32C56.075 246.288 55.291 247.824 54.075 248.704C52.859 249.552 51.403 250 49.819 250ZM49.451 240.992H48.507V247.808H49.467C52.267 247.808 53.659 246.64 53.659 244.32C53.659 242.096 52.251 240.992 49.451 240.992ZM65.179 245.408C65.179 246.24 64.763 246.656 63.915 246.656H59.899C60.027 247.504 60.683 248.096 61.659 248.096C62.203 248.096 62.667 247.936 63.067 247.616C63.691 247.168 64.267 247.312 64.667 247.84C65.035 248.288 64.923 248.928 64.331 249.392C63.643 249.92 62.763 250.176 61.723 250.176C60.523 250.176 59.547 249.808 58.763 249.072C57.979 248.32 57.595 247.344 57.595 246.128C57.595 244.928 57.947 243.936 58.667 243.152C59.387 242.368 60.315 241.968 61.451 241.968C62.235 241.968 62.923 242.16 63.515 242.528C64.715 243.28 65.179 244.336 65.179 245.408ZM61.499 243.968C60.683 243.968 60.155 244.448 60.011 245.136H62.827C62.779 244.48 62.251 243.968 61.499 243.968ZM71.9899 242.784C72.6779 242.24 73.5899 241.968 74.6939 241.968C75.6699 241.968 76.4699 242.256 77.0939 242.816C77.7179 243.376 78.0219 244.128 78.0219 245.104V248.864C78.0219 249.616 77.5259 250.08 76.8859 250.08C76.3579 250.08 76.0059 249.84 75.8299 249.36C75.2859 249.904 74.6139 250.176 73.8299 250.176C73.0459 250.176 72.4219 249.952 71.9259 249.504C71.4299 249.04 71.1899 248.464 71.1899 247.76C71.1899 246.944 71.4779 246.336 72.0699 245.92C72.6619 245.504 73.4139 245.28 74.2939 245.248L75.7339 245.184C75.7339 244.384 75.3339 243.984 74.5339 243.984C74.0539 243.984 73.6219 244.112 73.2219 244.384C72.6299 244.784 72.0539 244.736 71.7179 244.288C71.3499 243.856 71.4619 243.216 71.9899 242.784ZM73.4779 247.632C73.4779 248.016 73.8139 248.256 74.3899 248.256C74.8539 248.256 75.3019 248.096 75.7339 247.776V246.848L74.7259 246.928C73.8939 246.976 73.4779 247.2 73.4779 247.632ZM80.4336 248.864V239.936C80.3376 238.336 82.8016 238.336 82.7056 239.936V242.64C83.1376 242.192 83.7456 241.968 84.5296 241.968C86.4656 241.968 87.7136 243.248 87.7136 245.44V248.864C87.7136 249.616 87.2336 250.08 86.5776 250.08C85.9216 250.08 85.4416 249.616 85.4416 248.864V245.616C85.4416 244.72 85.0256 244.08 84.1456 244.08C83.1856 244.08 82.7056 244.688 82.7056 245.904V248.864C82.8016 250.464 80.3376 250.464 80.4336 248.864ZM90.6071 249.008C89.8231 248.224 89.4231 247.248 89.4231 246.08C89.4231 244.912 89.8231 243.936 90.6071 243.152C91.4071 242.368 92.3991 241.968 93.5671 241.968C94.7351 241.968 95.7271 242.368 96.5111 243.152C97.3111 243.936 97.7111 244.912 97.7111 246.08C97.7111 247.248 97.3111 248.224 96.5271 249.008C95.7431 249.792 94.7511 250.176 93.5671 250.176C92.3831 250.176 91.3911 249.792 90.6071 249.008ZM92.2551 244.656C91.9191 245.024 91.7431 245.504 91.7431 246.08C91.7431 246.656 91.9191 247.136 92.2551 247.504C92.5911 247.872 93.0391 248.064 93.5671 248.064C94.0951 248.064 94.5431 247.872 94.8791 247.504C95.2151 247.136 95.3911 246.656 95.3911 246.08C95.3911 245.504 95.2151 245.024 94.8791 244.656C94.5431 244.288 94.0951 244.096 93.5671 244.096C93.0391 244.096 92.5911 244.288 92.2551 244.656ZM104.39 242.112C104.902 242.24 105.286 242.64 105.286 243.232C105.286 243.856 104.854 244.288 104.294 244.288C104.182 244.288 103.942 244.256 103.798 244.256C102.71 244.256 101.878 245.136 101.878 246.72V248.864C101.974 250.464 99.5095 250.464 99.6055 248.864V243.296C99.6055 242.544 100.102 242.08 100.742 242.08C101.334 242.08 101.766 242.464 101.846 243.024C102.294 242.4 103.062 242.048 103.75 242.048C104.022 242.048 104.23 242.064 104.39 242.112ZM111.343 242.112C111.855 242.24 112.239 242.64 112.239 243.232C112.239 243.856 111.807 244.288 111.247 244.288C111.135 244.288 110.895 244.256 110.751 244.256C109.663 244.256 108.831 245.136 108.831 246.72V248.864C108.927 250.464 106.463 250.464 106.559 248.864V243.296C106.559 242.544 107.055 242.08 107.695 242.08C108.287 242.08 108.719 242.464 108.799 243.024C109.247 242.4 110.015 242.048 110.703 242.048C110.975 242.048 111.183 242.064 111.343 242.112ZM114.076 249.008C113.292 248.224 112.892 247.248 112.892 246.08C112.892 244.912 113.292 243.936 114.076 243.152C114.876 242.368 115.868 241.968 117.036 241.968C118.204 241.968 119.196 242.368 119.98 243.152C120.78 243.936 121.18 244.912 121.18 246.08C121.18 247.248 120.78 248.224 119.996 249.008C119.212 249.792 118.22 250.176 117.036 250.176C115.852 250.176 114.86 249.792 114.076 249.008ZM115.724 244.656C115.388 245.024 115.212 245.504 115.212 246.08C115.212 246.656 115.388 247.136 115.724 247.504C116.06 247.872 116.508 248.064 117.036 248.064C117.564 248.064 118.012 247.872 118.348 247.504C118.684 247.136 118.86 246.656 118.86 246.08C118.86 245.504 118.684 245.024 118.348 244.656C118.012 244.288 117.564 244.096 117.036 244.096C116.508 244.096 116.06 244.288 115.724 244.656ZM132.871 245.904C132.871 244.8 132.103 244.032 131.127 244.032C130.167 244.032 129.399 244.8 129.399 245.904C129.399 246.992 130.167 247.76 131.127 247.76C132.103 247.76 132.871 246.992 132.871 245.904ZM128.023 252.416C127.431 251.968 127.431 251.232 127.863 250.784C128.263 250.352 128.807 250.336 129.495 250.768C129.959 251.04 130.407 251.184 130.855 251.184C132.055 251.184 132.823 250.48 132.823 249.44V249.232C132.375 249.632 131.735 249.824 130.919 249.824C129.799 249.824 128.871 249.472 128.151 248.768C127.431 248.064 127.079 247.104 127.079 245.904C127.079 244.688 127.447 243.728 128.199 243.024C128.951 242.32 129.847 241.968 130.919 241.968C131.751 241.968 132.423 242.24 132.919 242.8C133.079 242.304 133.431 242.064 133.975 242.064C134.631 242.064 135.111 242.512 135.111 243.28V249.184C135.111 250.4 134.727 251.392 133.975 252.144C133.223 252.896 132.199 253.28 130.871 253.28C129.751 253.28 128.807 252.992 128.023 252.416ZM144.57 245.408C144.57 246.24 144.154 246.656 143.306 246.656H139.29C139.418 247.504 140.074 248.096 141.05 248.096C141.594 248.096 142.058 247.936 142.458 247.616C143.082 247.168 143.658 247.312 144.058 247.84C144.426 248.288 144.314 248.928 143.722 249.392C143.034 249.92 142.154 250.176 141.114 250.176C139.914 250.176 138.938 249.808 138.154 249.072C137.37 248.32 136.986 247.344 136.986 246.128C136.986 244.928 137.338 243.936 138.058 243.152C138.778 242.368 139.706 241.968 140.842 241.968C141.626 241.968 142.314 242.16 142.906 242.528C144.106 243.28 144.57 244.336 144.57 245.408ZM140.89 243.968C140.074 243.968 139.546 244.448 139.402 245.136H142.218C142.17 244.48 141.642 243.968 140.89 243.968ZM146.512 248.864V243.296C146.512 242.544 147.008 242.08 147.648 242.08C148.176 242.08 148.528 242.32 148.704 242.784C149.168 242.24 149.792 241.968 150.608 241.968C152.544 241.968 153.792 243.248 153.792 245.44V248.864C153.792 249.616 153.312 250.08 152.656 250.08C152 250.08 151.52 249.616 151.52 248.864V245.616C151.52 244.72 151.104 244.08 150.224 244.08C149.264 244.08 148.784 244.752 148.784 246.08V248.864C148.88 250.464 146.416 250.464 146.512 248.864ZM163.085 245.408C163.085 246.24 162.669 246.656 161.821 246.656H157.805C157.933 247.504 158.589 248.096 159.565 248.096C160.109 248.096 160.573 247.936 160.973 247.616C161.597 247.168 162.173 247.312 162.573 247.84C162.941 248.288 162.829 248.928 162.237 249.392C161.549 249.92 160.669 250.176 159.629 250.176C158.429 250.176 157.453 249.808 156.669 249.072C155.885 248.32 155.501 247.344 155.501 246.128C155.501 244.928 155.853 243.936 156.573 243.152C157.293 242.368 158.221 241.968 159.357 241.968C160.141 241.968 160.829 242.16 161.421 242.528C162.621 243.28 163.085 244.336 163.085 245.408ZM159.405 243.968C158.589 243.968 158.061 244.448 157.917 245.136H160.733C160.685 244.48 160.157 243.968 159.405 243.968ZM169.811 242.112C170.323 242.24 170.707 242.64 170.707 243.232C170.707 243.856 170.275 244.288 169.715 244.288C169.603 244.288 169.363 244.256 169.219 244.256C168.131 244.256 167.299 245.136 167.299 246.72V248.864C167.395 250.464 164.931 250.464 165.027 248.864V243.296C165.027 242.544 165.523 242.08 166.163 242.08C166.755 242.08 167.187 242.464 167.267 243.024C167.715 242.4 168.483 242.048 169.171 242.048C169.443 242.048 169.651 242.064 169.811 242.112ZM172.209 242.784C172.897 242.24 173.809 241.968 174.913 241.968C175.889 241.968 176.689 242.256 177.313 242.816C177.937 243.376 178.241 244.128 178.241 245.104V248.864C178.241 249.616 177.745 250.08 177.105 250.08C176.577 250.08 176.225 249.84 176.049 249.36C175.505 249.904 174.833 250.176 174.049 250.176C173.265 250.176 172.641 249.952 172.145 249.504C171.649 249.04 171.409 248.464 171.409 247.76C171.409 246.944 171.697 246.336 172.289 245.92C172.881 245.504 173.633 245.28 174.513 245.248L175.953 245.184C175.953 244.384 175.553 243.984 174.753 243.984C174.273 243.984 173.841 244.112 173.441 244.384C172.849 244.784 172.273 244.736 171.937 244.288C171.569 243.856 171.681 243.216 172.209 242.784ZM173.697 247.632C173.697 248.016 174.033 248.256 174.609 248.256C175.073 248.256 175.521 248.096 175.953 247.776V246.848L174.945 246.928C174.113 246.976 173.697 247.2 173.697 247.632ZM188.225 239.936V248.864C188.225 249.616 187.729 250.08 187.089 250.08C186.545 250.08 186.193 249.84 186.033 249.344C185.633 249.84 184.785 250.176 183.937 250.176C182.833 250.176 181.889 249.808 181.137 249.056C180.385 248.304 180.017 247.312 180.017 246.08C180.017 244.864 180.385 243.872 181.137 243.12C181.889 242.352 182.833 241.968 183.937 241.968C184.753 241.968 185.425 242.192 185.953 242.656V239.936C185.857 238.336 188.321 238.336 188.225 239.936ZM185.457 247.552C185.809 247.168 185.985 246.672 185.985 246.08C185.985 245.488 185.809 244.992 185.457 244.608C185.121 244.224 184.689 244.032 184.161 244.032C183.633 244.032 183.201 244.224 182.849 244.608C182.513 244.992 182.337 245.488 182.337 246.08C182.337 246.672 182.513 247.168 182.849 247.552C183.201 247.936 183.633 248.128 184.161 248.128C184.689 248.128 185.121 247.936 185.457 247.552ZM191.295 249.008C190.511 248.224 190.111 247.248 190.111 246.08C190.111 244.912 190.511 243.936 191.295 243.152C192.095 242.368 193.087 241.968 194.255 241.968C195.423 241.968 196.415 242.368 197.199 243.152C197.999 243.936 198.399 244.912 198.399 246.08C198.399 247.248 197.999 248.224 197.215 249.008C196.431 249.792 195.439 250.176 194.255 250.176C193.071 250.176 192.079 249.792 191.295 249.008ZM192.943 244.656C192.607 245.024 192.431 245.504 192.431 246.08C192.431 246.656 192.607 247.136 192.943 247.504C193.279 247.872 193.727 248.064 194.255 248.064C194.783 248.064 195.231 247.872 195.567 247.504C195.903 247.136 196.079 246.656 196.079 246.08C196.079 245.504 195.903 245.024 195.567 244.656C195.231 244.288 194.783 244.096 194.255 244.096C193.727 244.096 193.279 244.288 192.943 244.656ZM55.668 275.968V267.28C55.668 266.512 56.164 266.064 56.804 266.064C57.348 266.064 57.7 266.304 57.86 266.8C58.26 266.304 59.108 265.968 59.956 265.968C61.06 265.968 61.988 266.352 62.74 267.104C63.492 267.856 63.876 268.848 63.876 270.08C63.876 271.296 63.492 272.288 62.74 273.04C61.988 273.792 61.06 274.176 59.956 274.176C59.14 274.176 58.468 273.952 57.94 273.488V275.968C58.036 277.568 55.572 277.568 55.668 275.968ZM58.42 268.608C58.084 268.992 57.908 269.488 57.908 270.08C57.908 270.672 58.084 271.168 58.42 271.552C58.772 271.936 59.204 272.128 59.732 272.128C60.26 272.128 60.692 271.936 61.028 271.552C61.38 271.168 61.556 270.672 61.556 270.08C61.556 269.488 61.38 268.992 61.028 268.608C60.692 268.224 60.26 268.032 59.732 268.032C59.204 268.032 58.772 268.224 58.42 268.608ZM66.1461 266.784C66.8341 266.24 67.7461 265.968 68.8501 265.968C69.8261 265.968 70.6261 266.256 71.2501 266.816C71.8741 267.376 72.1781 268.128 72.1781 269.104V272.864C72.1781 273.616 71.6821 274.08 71.0421 274.08C70.5141 274.08 70.1621 273.84 69.9861 273.36C69.4421 273.904 68.7701 274.176 67.9861 274.176C67.2021 274.176 66.5781 273.952 66.0821 273.504C65.5861 273.04 65.3461 272.464 65.3461 271.76C65.3461 270.944 65.6341 270.336 66.2261 269.92C66.8181 269.504 67.5701 269.28 68.4501 269.248L69.8901 269.184C69.8901 268.384 69.4901 267.984 68.6901 267.984C68.2101 267.984 67.7781 268.112 67.3781 268.384C66.7861 268.784 66.2101 268.736 65.8741 268.288C65.5061 267.856 65.6181 267.216 66.1461 266.784ZM67.6341 271.632C67.6341 272.016 67.9701 272.256 68.5461 272.256C69.0101 272.256 69.4581 272.096 69.8901 271.776V270.848L68.8821 270.928C68.0501 270.976 67.6341 271.2 67.6341 271.632ZM79.3739 266.112C79.8859 266.24 80.2699 266.64 80.2699 267.232C80.2699 267.856 79.8379 268.288 79.2779 268.288C79.1659 268.288 78.9259 268.256 78.7819 268.256C77.6939 268.256 76.8619 269.136 76.8619 270.72V272.864C76.9579 274.464 74.4939 274.464 74.5899 272.864V267.296C74.5899 266.544 75.0859 266.08 75.7259 266.08C76.3179 266.08 76.7499 266.464 76.8299 267.024C77.2779 266.4 78.0459 266.048 78.7339 266.048C79.0059 266.048 79.2139 266.064 79.3739 266.112ZM81.7711 266.784C82.4591 266.24 83.3711 265.968 84.4751 265.968C85.4511 265.968 86.2511 266.256 86.8751 266.816C87.4991 267.376 87.8031 268.128 87.8031 269.104V272.864C87.8031 273.616 87.3071 274.08 86.6671 274.08C86.1391 274.08 85.7871 273.84 85.6111 273.36C85.0671 273.904 84.3951 274.176 83.6111 274.176C82.8271 274.176 82.2031 273.952 81.7071 273.504C81.2111 273.04 80.9711 272.464 80.9711 271.76C80.9711 270.944 81.2591 270.336 81.8511 269.92C82.4431 269.504 83.1951 269.28 84.0751 269.248L85.5151 269.184C85.5151 268.384 85.1151 267.984 84.3151 267.984C83.8351 267.984 83.4031 268.112 83.0031 268.384C82.4111 268.784 81.8351 268.736 81.4991 268.288C81.1311 267.856 81.2431 267.216 81.7711 266.784ZM83.2591 271.632C83.2591 272.016 83.5951 272.256 84.1711 272.256C84.6351 272.256 85.0831 272.096 85.5151 271.776V270.848L84.5071 270.928C83.6751 270.976 83.2591 271.2 83.2591 271.632ZM96.7838 263.936V272.864C96.8798 274.464 94.4158 274.464 94.5118 272.864V263.936C94.4158 262.336 96.8798 262.336 96.7838 263.936ZM99.5211 266.784C100.209 266.24 101.121 265.968 102.225 265.968C103.201 265.968 104.001 266.256 104.625 266.816C105.249 267.376 105.553 268.128 105.553 269.104V272.864C105.553 273.616 105.057 274.08 104.417 274.08C103.889 274.08 103.537 273.84 103.361 273.36C102.817 273.904 102.145 274.176 101.361 274.176C100.577 274.176 99.9531 273.952 99.4571 273.504C98.9611 273.04 98.7211 272.464 98.7211 271.76C98.7211 270.944 99.0091 270.336 99.6011 269.92C100.193 269.504 100.945 269.28 101.825 269.248L103.265 269.184C103.265 268.384 102.865 267.984 102.065 267.984C101.585 267.984 101.153 268.112 100.753 268.384C100.161 268.784 99.5851 268.736 99.2491 268.288C98.8811 267.856 98.9931 267.216 99.5211 266.784ZM101.009 271.632C101.009 272.016 101.345 272.256 101.921 272.256C102.385 272.256 102.833 272.096 103.265 271.776V270.848L102.257 270.928C101.425 270.976 101.009 271.2 101.009 271.632ZM107.985 273.312C107.457 272.848 107.393 272.24 107.793 271.792C108.225 271.312 108.721 271.296 109.297 271.76C109.729 272.096 110.305 272.272 111.009 272.272C111.505 272.272 111.889 272.096 111.889 271.792C111.889 271.536 111.713 271.408 111.185 271.264L110.305 271.008C108.561 270.512 107.745 269.712 107.745 268.448C107.745 267.696 108.033 267.104 108.625 266.656C109.217 266.192 109.937 265.968 110.785 265.968C111.697 265.968 112.465 266.16 113.105 266.56C113.681 266.944 113.825 267.52 113.521 268.016C113.185 268.528 112.641 268.672 112.017 268.304C111.601 268.032 111.153 267.904 110.689 267.904C110.241 267.904 109.953 268.08 109.953 268.336C109.953 268.576 110.129 268.672 110.513 268.784L111.521 269.056C113.121 269.504 114.097 270.192 114.097 271.648C114.097 273.136 112.817 274.176 110.817 274.176C109.617 274.176 108.673 273.888 107.985 273.312ZM123.907 264.928C123.315 264.976 123.027 265.312 123.027 265.936V266.16H123.795C124.499 266.16 124.931 266.608 124.931 267.2C124.931 267.792 124.499 268.256 123.795 268.256H123.027V272.864C123.139 274.48 120.675 274.448 120.771 272.864V268.256H120.483C119.779 268.256 119.347 267.792 119.347 267.2C119.347 266.608 119.779 266.16 120.483 266.16H120.771V265.824C120.771 263.792 122.067 262.784 123.795 262.784C124.579 262.784 125.011 263.232 125.011 263.824C125.011 264.416 124.627 264.848 123.907 264.928ZM126.818 266.784C127.506 266.24 128.418 265.968 129.522 265.968C130.498 265.968 131.298 266.256 131.922 266.816C132.546 267.376 132.85 268.128 132.85 269.104V272.864C132.85 273.616 132.354 274.08 131.714 274.08C131.186 274.08 130.834 273.84 130.658 273.36C130.114 273.904 129.442 274.176 128.658 274.176C127.874 274.176 127.25 273.952 126.754 273.504C126.258 273.04 126.018 272.464 126.018 271.76C126.018 270.944 126.306 270.336 126.898 269.92C127.49 269.504 128.242 269.28 129.122 269.248L130.562 269.184C130.562 268.384 130.162 267.984 129.362 267.984C128.882 267.984 128.45 268.112 128.05 268.384C127.458 268.784 126.882 268.736 126.546 268.288C126.178 267.856 126.29 267.216 126.818 266.784ZM128.306 271.632C128.306 272.016 128.642 272.256 129.218 272.256C129.682 272.256 130.13 272.096 130.562 271.776V270.848L129.554 270.928C128.722 270.976 128.306 271.2 128.306 271.632ZM135.262 272.864V267.296C135.262 266.544 135.758 266.08 136.398 266.08C136.926 266.08 137.278 266.32 137.454 266.784C137.918 266.24 138.574 265.968 139.39 265.968C140.302 265.968 141.022 266.288 141.566 266.912C142.19 266.288 142.974 265.968 143.918 265.968C146.014 265.968 147.198 267.216 147.198 269.44V272.864C147.294 274.464 144.83 274.464 144.926 272.864V269.536C144.926 268.656 144.51 268.08 143.726 268.08C142.878 268.08 142.366 268.736 142.366 269.824V272.864C142.462 274.464 139.998 274.464 140.094 272.864V269.536C140.094 268.656 139.678 268.08 138.894 268.08C137.998 268.08 137.534 268.768 137.534 269.984V272.864C137.63 274.464 135.166 274.464 135.262 272.864ZM149.431 263.936C149.431 263.184 150.023 262.608 150.743 262.608C151.495 262.608 152.071 263.184 152.071 263.936C152.071 264.656 151.463 265.248 150.743 265.248C150.023 265.248 149.431 264.656 149.431 263.936ZM151.879 272.864C151.879 273.616 151.399 274.08 150.743 274.08C150.087 274.08 149.607 273.616 149.607 272.864V267.296C149.607 266.544 150.087 266.08 150.743 266.08C151.399 266.08 151.879 266.544 151.879 267.296V272.864ZM156.753 263.936V272.864C156.849 274.464 154.385 274.464 154.481 272.864V263.936C154.385 262.336 156.849 262.336 156.753 263.936ZM159.166 263.936C159.166 263.184 159.758 262.608 160.478 262.608C161.23 262.608 161.806 263.184 161.806 263.936C161.806 264.656 161.198 265.248 160.478 265.248C159.758 265.248 159.166 264.656 159.166 263.936ZM161.614 272.864C161.614 273.616 161.134 274.08 160.478 274.08C159.822 274.08 159.342 273.616 159.342 272.864V267.296C159.342 266.544 159.822 266.08 160.478 266.08C161.134 266.08 161.614 266.544 161.614 267.296V272.864ZM164.443 266.784C165.131 266.24 166.043 265.968 167.147 265.968C168.123 265.968 168.923 266.256 169.547 266.816C170.171 267.376 170.475 268.128 170.475 269.104V272.864C170.475 273.616 169.979 274.08 169.339 274.08C168.811 274.08 168.459 273.84 168.283 273.36C167.739 273.904 167.067 274.176 166.283 274.176C165.499 274.176 164.875 273.952 164.379 273.504C163.883 273.04 163.643 272.464 163.643 271.76C163.643 270.944 163.931 270.336 164.523 269.92C165.115 269.504 165.867 269.28 166.747 269.248L168.187 269.184C168.187 268.384 167.787 267.984 166.987 267.984C166.507 267.984 166.075 268.112 165.675 268.384C165.083 268.784 164.507 268.736 164.171 268.288C163.803 267.856 163.915 267.216 164.443 266.784ZM165.931 271.632C165.931 272.016 166.267 272.256 166.843 272.256C167.307 272.256 167.755 272.096 168.187 271.776V270.848L167.179 270.928C166.347 270.976 165.931 271.2 165.931 271.632ZM172.907 273.312C172.379 272.848 172.315 272.24 172.715 271.792C173.147 271.312 173.643 271.296 174.219 271.76C174.651 272.096 175.227 272.272 175.931 272.272C176.427 272.272 176.811 272.096 176.811 271.792C176.811 271.536 176.635 271.408 176.107 271.264L175.227 271.008C173.483 270.512 172.667 269.712 172.667 268.448C172.667 267.696 172.955 267.104 173.547 266.656C174.139 266.192 174.859 265.968 175.707 265.968C176.619 265.968 177.387 266.16 178.027 266.56C178.603 266.944 178.747 267.52 178.443 268.016C178.107 268.528 177.563 268.672 176.939 268.304C176.523 268.032 176.075 267.904 175.611 267.904C175.163 267.904 174.875 268.08 174.875 268.336C174.875 268.576 175.051 268.672 175.435 268.784L176.443 269.056C178.043 269.504 179.019 270.192 179.019 271.648C179.019 273.136 177.739 274.176 175.739 274.176C174.539 274.176 173.595 273.888 172.907 273.312ZM181.23 273.76C180.718 273.232 180.718 272.336 181.23 271.808C181.758 271.28 182.654 271.28 183.182 271.808C183.742 272.336 183.742 273.232 183.182 273.76C182.654 274.288 181.758 274.288 181.23 273.76Z" fill="#930345"/>
<path d="M199.5 105.5C199.5 148.578 164.578 183.5 121.5 183.5C78.4218 183.5 43.5 148.578 43.5 105.5C43.5 62.4218 78.4218 27.5 121.5 27.5C164.578 27.5 199.5 62.4218 199.5 105.5Z" fill="white" stroke="white" stroke-width="9"/>
<path d="M74.7018 84.464V88.08H78.5417C79.9818 88.08 80.7818 88.944 80.7818 90.128C80.7818 91.376 79.9818 92.176 78.5417 92.176H74.7018V95.856C74.7018 97.296 73.8378 98.16 72.5898 98.16C71.4058 98.16 70.4778 97.264 70.4778 95.856V92.176H66.7018C65.2938 92.176 64.4618 91.376 64.4618 90.128C64.4618 88.976 65.2938 88.08 66.7018 88.08H70.4778V84.464C70.4778 82.96 71.4058 82.16 72.5898 82.16C73.8378 82.16 74.7018 82.96 74.7018 84.464ZM100.884 77.328C102.164 78.224 102.292 79.728 101.428 80.72C100.66 81.776 99.4123 82 98.1003 81.104C96.7243 80.08 95.2203 79.568 93.5883 79.568C91.5723 79.568 90.2923 80.464 90.2923 81.776C90.2923 82.992 91.3483 83.792 93.4923 84.176L95.3803 84.496C100.404 85.296 102.932 87.632 102.932 91.504C102.932 93.552 102.1 95.216 100.468 96.464C98.8363 97.712 96.6923 98.352 94.0043 98.352C91.0923 98.352 88.4683 97.488 86.1003 95.728C84.8523 94.8 84.6923 93.328 85.5563 92.336C86.3243 91.28 87.6043 91.024 88.8843 91.952C90.5803 93.328 92.4043 94 94.2923 94C96.7243 94 98.1963 92.976 98.1963 91.568C98.1963 90.384 97.1403 89.584 95.0603 89.2L92.6283 88.752C88.2443 87.952 85.5563 85.712 85.5563 82C85.5563 79.92 86.3563 78.288 87.9883 77.072C89.6203 75.824 91.5723 75.216 93.8443 75.216C96.5643 75.216 98.9323 75.92 100.884 77.328ZM118.626 78.704L111.138 96.624C110.53 98.032 109.282 98.512 108.13 98C106.946 97.488 106.498 96.336 107.042 94.896L114.562 76.976C115.17 75.568 116.386 75.088 117.538 75.6C118.722 76.112 119.17 77.264 118.626 78.704ZM122.829 94.96C122.829 91.408 125.261 88.272 130.093 85.552L131.341 84.848C133.549 83.6 134.125 82.864 134.125 81.808C134.125 80.432 132.941 79.568 131.021 79.568C129.901 79.568 128.685 80.112 127.437 81.2C126.381 82.096 124.877 82.256 124.013 81.456C123.149 80.656 123.181 79.248 124.205 78.192C125.005 77.328 126.061 76.624 127.341 76.08C128.621 75.504 129.869 75.216 131.117 75.216C133.325 75.216 135.149 75.792 136.653 76.976C138.157 78.128 138.892 79.728 138.892 81.744C138.892 83.376 138.413 84.688 137.357 85.808C136.333 86.864 135.309 87.6 133.549 88.624L131.597 89.744C129.453 90.992 128.397 91.952 128.045 93.616H136.781C138.285 93.616 139.117 94.544 139.117 95.824C139.117 97.072 138.285 98 136.781 98H125.869C123.949 98 122.829 96.88 122.829 94.96ZM144.867 97.52C143.843 96.464 143.843 94.672 144.867 93.616C145.923 92.56 147.715 92.56 148.771 93.616C149.891 94.672 149.891 96.464 148.771 97.52C147.715 98.576 145.923 98.576 144.867 97.52ZM154.965 86.896L155.317 78.64C155.413 76.624 156.437 75.6 158.357 75.6H167.253C168.693 75.6 169.589 76.528 169.589 77.808C169.589 79.056 168.693 79.984 167.253 79.984H159.861L159.669 84.08C160.693 83.408 161.941 83.056 163.413 83.056C165.493 83.056 167.285 83.728 168.789 85.104C170.293 86.448 171.061 88.24 171.061 90.448C171.061 92.816 170.229 94.736 168.565 96.176C166.933 97.616 164.789 98.352 162.197 98.352C159.925 98.352 157.973 97.776 156.309 96.592C155.029 95.696 154.933 94.16 155.733 93.168C156.533 92.048 157.845 91.888 159.157 92.816C160.213 93.616 161.333 94 162.549 94C164.693 94 166.325 92.656 166.325 90.704C166.325 88.688 164.789 87.216 162.645 87.216C161.333 87.216 160.341 87.696 159.637 88.656C159.157 89.328 158.453 89.68 157.557 89.68C156.053 89.68 154.933 88.592 154.965 86.896ZM59.5235 135.728V124.592C59.5235 123.088 60.5155 122.16 61.7955 122.16C62.8515 122.16 63.5555 122.64 63.9075 123.568C64.8355 122.48 66.1475 121.936 67.7795 121.936C69.6035 121.936 71.0435 122.576 72.1315 123.824C73.3795 122.576 74.9475 121.936 76.8355 121.936C81.0275 121.936 83.3955 124.432 83.3955 128.88V135.728C83.5875 138.928 78.6595 138.928 78.8515 135.728V129.072C78.8515 127.312 78.0195 126.16 76.4515 126.16C74.7555 126.16 73.7315 127.472 73.7315 129.648V135.728C73.9235 138.928 68.9955 138.928 69.1875 135.728V129.072C69.1875 127.312 68.3555 126.16 66.7875 126.16C64.9955 126.16 64.0675 127.536 64.0675 129.968V135.728C64.2595 138.928 59.3315 138.928 59.5235 135.728ZM87.519 117.872C87.519 116.368 88.703 115.216 90.143 115.216C91.647 115.216 92.799 116.368 92.799 117.872C92.799 119.312 91.583 120.496 90.143 120.496C88.703 120.496 87.519 119.312 87.519 117.872ZM92.415 135.728C92.415 137.232 91.455 138.16 90.143 138.16C88.831 138.16 87.871 137.232 87.871 135.728V124.592C87.871 123.088 88.831 122.16 90.143 122.16C91.455 122.16 92.415 123.088 92.415 124.592V135.728ZM102.161 117.872V135.728C102.353 138.928 97.4253 138.928 97.6173 135.728V117.872C97.4253 114.672 102.353 114.672 102.161 117.872ZM111.724 117.872V135.728C111.916 138.928 106.988 138.928 107.18 135.728V117.872C106.988 114.672 111.916 114.672 111.724 117.872ZM117.871 136.016C116.303 134.448 115.503 132.496 115.503 130.16C115.503 127.824 116.303 125.872 117.871 124.304C119.471 122.736 121.455 121.936 123.791 121.936C126.127 121.936 128.111 122.736 129.679 124.304C131.279 125.872 132.079 127.824 132.079 130.16C132.079 132.496 131.279 134.448 129.711 136.016C128.143 137.584 126.159 138.352 123.791 138.352C121.423 138.352 119.439 137.584 117.871 136.016ZM121.167 127.312C120.495 128.048 120.143 129.008 120.143 130.16C120.143 131.312 120.495 132.272 121.167 133.008C121.839 133.744 122.735 134.128 123.791 134.128C124.847 134.128 125.743 133.744 126.415 133.008C127.087 132.272 127.439 131.312 127.439 130.16C127.439 129.008 127.087 128.048 126.415 127.312C125.743 126.576 124.847 126.192 123.791 126.192C122.735 126.192 121.839 126.576 121.167 127.312ZM135.867 135.728V124.592C135.867 123.088 136.859 122.16 138.139 122.16C139.195 122.16 139.899 122.64 140.251 123.568C141.179 122.48 142.427 121.936 144.059 121.936C147.931 121.936 150.427 124.496 150.427 128.88V135.728C150.427 137.232 149.467 138.16 148.155 138.16C146.843 138.16 145.883 137.232 145.883 135.728V129.232C145.883 127.44 145.051 126.16 143.291 126.16C141.371 126.16 140.411 127.504 140.411 130.16V135.728C140.603 138.928 135.675 138.928 135.867 135.728ZM169.014 128.816C169.014 130.48 168.182 131.312 166.486 131.312H158.454C158.71 133.008 160.022 134.192 161.974 134.192C163.062 134.192 163.99 133.872 164.79 133.232C166.038 132.336 167.19 132.624 167.99 133.68C168.726 134.576 168.502 135.856 167.318 136.784C165.942 137.84 164.182 138.352 162.102 138.352C159.702 138.352 157.75 137.616 156.182 136.144C154.614 134.64 153.846 132.688 153.846 130.256C153.846 127.856 154.55 125.872 155.99 124.304C157.43 122.736 159.286 121.936 161.558 121.936C163.126 121.936 164.502 122.32 165.686 123.056C168.086 124.56 169.014 126.672 169.014 128.816ZM161.654 125.936C160.022 125.936 158.966 126.896 158.678 128.272H164.31C164.214 126.96 163.158 125.936 161.654 125.936ZM173.283 136.624C172.227 135.696 172.099 134.48 172.899 133.584C173.763 132.624 174.755 132.592 175.907 133.52C176.771 134.192 177.923 134.544 179.331 134.544C180.323 134.544 181.091 134.192 181.091 133.584C181.091 133.072 180.739 132.816 179.683 132.528L177.923 132.016C174.435 131.024 172.803 129.424 172.803 126.896C172.803 125.392 173.379 124.208 174.562 123.312C175.747 122.384 177.187 121.936 178.883 121.936C180.707 121.936 182.243 122.32 183.523 123.12C184.675 123.888 184.963 125.04 184.355 126.032C183.683 127.056 182.595 127.344 181.347 126.608C180.515 126.064 179.619 125.808 178.691 125.808C177.795 125.808 177.219 126.16 177.219 126.672C177.219 127.152 177.571 127.344 178.339 127.568L180.355 128.112C183.555 129.008 185.507 130.384 185.507 133.296C185.507 136.272 182.947 138.352 178.947 138.352C176.547 138.352 174.659 137.776 173.283 136.624Z" fill="#930345"/>
</svg>
