<svg width="244" height="298" viewBox="0 0 244 298" fill="none" xmlns="http://www.w3.org/2000/svg">
<rect width="243.562" height="297.688" fill="#930345"/>
<path d="M85.8937 219.72C86.0477 219.958 86.2577 220.07 86.5097 220.07C86.9157 220.07 87.1957 219.762 87.1957 219.3V210.732C87.1957 210.326 87.0137 210.13 86.6497 210.13C86.2997 210.13 86.1177 210.326 86.1177 210.732V218.166L80.7557 210.48C80.6017 210.242 80.3917 210.13 80.1397 210.13C79.7337 210.13 79.4537 210.438 79.4537 210.9V219.468C79.4537 219.874 79.6357 220.07 79.9857 220.07C80.3357 220.07 80.5177 219.874 80.5177 219.468V212.048L85.8937 219.72ZM89.6132 211.432C89.9352 211.726 90.4252 211.726 90.7192 211.432C91.0412 211.11 91.0412 210.62 90.7192 210.326C90.4252 210.032 89.9352 210.032 89.6132 210.326C89.3192 210.62 89.3192 211.11 89.6132 211.432ZM90.6912 213.644C90.6912 213.266 90.5232 213.07 90.1732 213.07C89.8792 213.07 89.6552 213.266 89.6552 213.644V219.482C89.6552 219.874 89.8232 220.07 90.1732 220.07C90.5232 220.07 90.6912 219.874 90.6912 219.482V213.644ZM95.8262 210.312C95.5882 210.214 95.3922 210.172 95.2382 210.172C94.6222 210.172 94.2022 210.634 94.2022 211.25C94.2022 211.544 94.3422 211.684 94.6222 211.684C94.8042 211.684 94.9442 211.586 95.0282 211.404L95.0562 211.348C95.1122 211.222 95.1542 211.096 95.3502 211.096C95.5182 211.096 95.7842 211.222 95.9382 211.306L96.3582 211.488C96.5962 211.586 96.7922 211.628 96.9462 211.628C97.5622 211.628 97.9822 211.166 97.9822 210.55C97.9822 210.256 97.8422 210.116 97.5622 210.116C97.3802 210.116 97.2402 210.214 97.1562 210.396L97.1282 210.452C97.0722 210.578 97.0302 210.704 96.8342 210.704C96.6662 210.704 96.4002 210.578 96.2462 210.494L95.8262 210.312ZM93.1802 219.482C93.1802 219.874 93.3482 220.07 93.6982 220.07C94.0482 220.07 94.2162 219.874 94.2162 219.482V216.598C94.2162 214.96 94.9442 213.938 96.2882 213.938C97.3942 213.938 98.0382 214.652 98.0382 215.926V219.482C98.0382 219.874 98.2062 220.07 98.5562 220.07C98.8502 220.07 99.0882 219.874 99.0882 219.482V216.01C99.0882 214.064 98.1082 212.972 96.3582 212.972C95.5042 212.972 94.6502 213.378 94.1882 213.98V213.644C94.1882 213.266 94.0202 213.07 93.6842 213.07C93.4042 213.07 93.1802 213.266 93.1802 213.644V219.482ZM104.505 220.154C105.499 220.154 106.325 219.804 106.983 219.118C107.641 218.418 107.977 217.564 107.977 216.57C107.977 215.576 107.641 214.722 106.969 214.022C106.311 213.322 105.485 212.972 104.505 212.972C103.525 212.972 102.699 213.322 102.041 214.022C101.383 214.722 101.061 215.576 101.061 216.57C101.061 217.564 101.383 218.418 102.041 219.118C102.699 219.804 103.525 220.154 104.505 220.154ZM104.505 219.188C103.819 219.188 103.245 218.936 102.797 218.446C102.349 217.942 102.125 217.312 102.125 216.57C102.125 215.828 102.349 215.198 102.797 214.708C103.245 214.204 103.819 213.952 104.505 213.952C105.205 213.952 105.779 214.204 106.227 214.708C106.675 215.198 106.899 215.828 106.899 216.57C106.899 217.312 106.675 217.942 106.227 218.446C105.779 218.936 105.205 219.188 104.505 219.188ZM113.888 214.47C114.21 214.736 114.462 214.75 114.672 214.526C114.91 214.274 114.882 214.022 114.602 213.756C114.042 213.238 113.342 212.972 112.516 212.972C111.872 212.972 111.312 213.154 110.85 213.504C110.388 213.854 110.15 214.33 110.15 214.946C110.15 215.954 110.794 216.612 112.096 216.92L113.118 217.158C113.832 217.326 114.196 217.662 114.196 218.152C114.196 218.81 113.622 219.202 112.656 219.202C111.97 219.202 111.382 218.964 110.878 218.474C110.64 218.236 110.388 218.222 110.15 218.46C109.926 218.684 109.94 218.922 110.178 219.188C110.808 219.832 111.634 220.154 112.67 220.154C114.224 220.154 115.232 219.314 115.232 218.096C115.232 217.116 114.588 216.472 113.286 216.164L112.208 215.912C111.522 215.758 111.186 215.422 111.186 214.904C111.186 214.33 111.704 213.938 112.446 213.938C112.992 213.938 113.468 214.12 113.888 214.47ZM116.513 221.078C116.359 221.442 116.457 221.694 116.793 221.834C117.101 221.96 117.339 221.848 117.507 221.47L118.571 219.132C118.753 218.726 118.655 218.46 118.249 218.306C117.899 218.18 117.633 218.334 117.465 218.74L116.513 221.078ZM124.926 219.482C124.926 219.874 125.094 220.07 125.444 220.07C125.794 220.07 125.962 219.874 125.962 219.482V216.598C125.962 214.96 126.69 213.938 128.034 213.938C129.14 213.938 129.784 214.652 129.784 215.926V219.482C129.784 219.874 129.952 220.07 130.302 220.07C130.596 220.07 130.834 219.874 130.834 219.482V216.01C130.834 214.064 129.854 212.972 128.104 212.972C127.25 212.972 126.396 213.378 125.934 213.98V213.644C125.934 213.266 125.766 213.07 125.43 213.07C125.15 213.07 124.926 213.266 124.926 213.644V219.482ZM133.213 211.432C133.535 211.726 134.025 211.726 134.319 211.432C134.641 211.11 134.641 210.62 134.319 210.326C134.025 210.032 133.535 210.032 133.213 210.326C132.919 210.62 132.919 211.11 133.213 211.432ZM134.291 213.644C134.291 213.266 134.123 213.07 133.773 213.07C133.479 213.07 133.255 213.266 133.255 213.644V219.482C133.255 219.874 133.423 220.07 133.773 220.07C134.123 220.07 134.291 219.874 134.291 219.482V213.644ZM139.426 210.312C139.188 210.214 138.992 210.172 138.838 210.172C138.222 210.172 137.802 210.634 137.802 211.25C137.802 211.544 137.942 211.684 138.222 211.684C138.404 211.684 138.544 211.586 138.628 211.404L138.656 211.348C138.712 211.222 138.754 211.096 138.95 211.096C139.118 211.096 139.384 211.222 139.538 211.306L139.958 211.488C140.196 211.586 140.392 211.628 140.546 211.628C141.162 211.628 141.582 211.166 141.582 210.55C141.582 210.256 141.442 210.116 141.162 210.116C140.98 210.116 140.84 210.214 140.756 210.396L140.728 210.452C140.672 210.578 140.63 210.704 140.434 210.704C140.266 210.704 140 210.578 139.846 210.494L139.426 210.312ZM136.78 219.482C136.78 219.874 136.948 220.07 137.298 220.07C137.648 220.07 137.816 219.874 137.816 219.482V216.598C137.816 214.96 138.544 213.938 139.888 213.938C140.994 213.938 141.638 214.652 141.638 215.926V219.482C141.638 219.874 141.806 220.07 142.156 220.07C142.45 220.07 142.688 219.874 142.688 219.482V216.01C142.688 214.064 141.708 212.972 139.958 212.972C139.104 212.972 138.25 213.378 137.788 213.98V213.644C137.788 213.266 137.62 213.07 137.284 213.07C137.004 213.07 136.78 213.266 136.78 213.644V219.482ZM145.725 214.666C146.257 214.176 146.803 213.938 147.377 213.938C148.371 213.938 148.973 214.498 148.973 215.548V215.758L147.097 215.982C145.585 216.15 144.563 216.92 144.563 218.138C144.563 219.384 145.515 220.154 146.803 220.154C147.713 220.154 148.539 219.748 149.001 219.23V219.496C149.001 220.252 150.009 220.252 150.009 219.496V215.66C150.009 213.924 149.029 212.972 147.391 212.972C146.509 212.972 145.585 213.42 145.025 214.022C144.787 214.302 144.801 214.568 145.011 214.75C145.221 214.932 145.459 214.904 145.725 214.666ZM145.599 218.166C145.599 217.48 146.117 217.074 147.153 216.948L148.973 216.724V218.138C148.567 218.754 147.713 219.23 146.859 219.23C146.089 219.23 145.599 218.796 145.599 218.166ZM156.161 214.47C156.483 214.736 156.735 214.75 156.945 214.526C157.183 214.274 157.155 214.022 156.875 213.756C156.315 213.238 155.615 212.972 154.789 212.972C154.145 212.972 153.585 213.154 153.123 213.504C152.661 213.854 152.423 214.33 152.423 214.946C152.423 215.954 153.067 216.612 154.369 216.92L155.391 217.158C156.105 217.326 156.469 217.662 156.469 218.152C156.469 218.81 155.895 219.202 154.929 219.202C154.243 219.202 153.655 218.964 153.151 218.474C152.913 218.236 152.661 218.222 152.423 218.46C152.199 218.684 152.213 218.922 152.451 219.188C153.081 219.832 153.907 220.154 154.943 220.154C156.497 220.154 157.505 219.314 157.505 218.096C157.505 217.116 156.861 216.472 155.559 216.164L154.481 215.912C153.795 215.758 153.459 215.422 153.459 214.904C153.459 214.33 153.977 213.938 154.719 213.938C155.265 213.938 155.741 214.12 156.161 214.47ZM165.09 222.03C164.95 222.394 165.048 222.632 165.384 222.758C165.72 222.856 165.958 222.73 166.098 222.366L169.514 213.826C169.654 213.462 169.556 213.224 169.22 213.098C168.884 213 168.646 213.126 168.506 213.49L166.434 218.838L164.32 213.49C164.18 213.126 163.942 213 163.606 213.098C163.256 213.224 163.158 213.476 163.298 213.826L165.86 220.084L165.09 222.03ZM80.8998 238.666C81.4318 238.176 81.9778 237.938 82.5518 237.938C83.5458 237.938 84.1478 238.498 84.1478 239.548V239.758L82.2718 239.982C80.7598 240.15 79.7378 240.92 79.7378 242.138C79.7378 243.384 80.6898 244.154 81.9778 244.154C82.8878 244.154 83.7138 243.748 84.1758 243.23V243.496C84.1758 244.252 85.1838 244.252 85.1838 243.496V239.66C85.1838 237.924 84.2038 236.972 82.5658 236.972C81.6838 236.972 80.7598 237.42 80.1998 238.022C79.9618 238.302 79.9758 238.568 80.1858 238.75C80.3958 238.932 80.6338 238.904 80.8998 238.666ZM80.7738 242.166C80.7738 241.48 81.2918 241.074 82.3278 240.948L84.1478 240.724V242.138C83.7418 242.754 82.8878 243.23 82.0338 243.23C81.2638 243.23 80.7738 242.796 80.7738 242.166ZM88.8299 238.694C89.2359 238.204 89.7679 237.952 90.4539 237.952C91.1399 237.952 91.6719 238.204 92.0779 238.694C92.4839 239.184 92.6939 239.814 92.6939 240.57C92.6939 241.326 92.4839 241.956 92.0779 242.446C91.6719 242.936 91.1399 243.188 90.4539 243.188C89.7679 243.188 89.2359 242.936 88.8299 242.446C88.4239 241.956 88.2279 241.326 88.2279 240.57C88.2279 239.814 88.4239 239.184 88.8299 238.694ZM93.7019 234.718C93.7019 234.326 93.5339 234.13 93.1839 234.13C92.8339 234.13 92.6659 234.326 92.6659 234.718V238.05C92.0499 237.336 91.2799 236.972 90.3559 236.972C89.4179 236.972 88.6619 237.322 88.0599 238.022C87.4579 238.708 87.1639 239.562 87.1639 240.57C87.1639 241.578 87.4579 242.432 88.0599 243.118C88.6619 243.804 89.4179 244.154 90.3559 244.154C91.2939 244.154 92.0639 243.79 92.6939 243.062V243.496C92.6939 244.252 93.7019 244.252 93.7019 243.496V234.718ZM99.2075 244.154C100.202 244.154 101.028 243.804 101.686 243.118C102.344 242.418 102.68 241.564 102.68 240.57C102.68 239.576 102.344 238.722 101.672 238.022C101.014 237.322 100.188 236.972 99.2075 236.972C98.2275 236.972 97.4015 237.322 96.7435 238.022C96.0855 238.722 95.7635 239.576 95.7635 240.57C95.7635 241.564 96.0855 242.418 96.7435 243.118C97.4015 243.804 98.2275 244.154 99.2075 244.154ZM99.2075 243.188C98.5215 243.188 97.9475 242.936 97.4995 242.446C97.0515 241.942 96.8275 241.312 96.8275 240.57C96.8275 239.828 97.0515 239.198 97.4995 238.708C97.9475 238.204 98.5215 237.952 99.2075 237.952C99.9075 237.952 100.482 238.204 100.93 238.708C101.378 239.198 101.602 239.828 101.602 240.57C101.602 241.312 101.378 241.942 100.93 242.446C100.482 242.936 99.9075 243.188 99.2075 243.188ZM105.776 234.704C105.776 234.326 105.608 234.13 105.258 234.13C104.964 234.13 104.74 234.326 104.74 234.704V243.482C104.74 243.874 104.908 244.07 105.258 244.07C105.608 244.07 105.776 243.874 105.776 243.482V234.704ZM111.098 237.952C112.232 237.952 112.96 238.75 112.974 239.968H108.942C109.11 238.792 109.922 237.952 111.098 237.952ZM114.024 240.248C114.024 238.708 113.198 236.972 111.07 236.972C110.132 236.972 109.362 237.322 108.746 238.036C108.144 238.75 107.836 239.604 107.836 240.612C107.836 241.662 108.144 242.516 108.746 243.174C109.362 243.832 110.188 244.154 111.21 244.154C112.12 244.154 112.904 243.832 113.562 243.202C113.814 242.95 113.842 242.698 113.632 242.46C113.394 242.222 113.142 242.222 112.876 242.488C112.414 242.95 111.854 243.188 111.21 243.188C109.866 243.188 108.998 242.334 108.9 240.892H113.31C113.786 240.892 114.024 240.682 114.024 240.248ZM119.937 238.47C120.259 238.736 120.511 238.75 120.721 238.526C120.959 238.274 120.931 238.022 120.651 237.756C120.091 237.238 119.391 236.972 118.565 236.972C117.921 236.972 117.361 237.154 116.899 237.504C116.437 237.854 116.199 238.33 116.199 238.946C116.199 239.954 116.843 240.612 118.145 240.92L119.167 241.158C119.881 241.326 120.245 241.662 120.245 242.152C120.245 242.81 119.671 243.202 118.705 243.202C118.019 243.202 117.431 242.964 116.927 242.474C116.689 242.236 116.437 242.222 116.199 242.46C115.975 242.684 115.989 242.922 116.227 243.188C116.857 243.832 117.683 244.154 118.719 244.154C120.273 244.154 121.281 243.314 121.281 242.096C121.281 241.116 120.637 240.472 119.335 240.164L118.257 239.912C117.571 239.758 117.235 239.422 117.235 238.904C117.235 238.33 117.753 237.938 118.495 237.938C119.041 237.938 119.517 238.12 119.937 238.47ZM127.655 238.554C127.949 238.792 128.201 238.792 128.411 238.582C128.621 238.344 128.593 238.092 128.341 237.84C127.767 237.266 127.011 236.972 126.087 236.972C125.121 236.972 124.295 237.322 123.609 238.036C122.937 238.736 122.601 239.576 122.601 240.57C122.601 241.564 122.923 242.418 123.581 243.118C124.239 243.804 125.065 244.154 126.045 244.154C127.011 244.154 127.823 243.832 128.481 243.202C128.733 242.95 128.761 242.698 128.551 242.46C128.313 242.222 128.061 242.222 127.795 242.488C127.333 242.95 126.773 243.188 126.129 243.188C124.603 243.188 123.665 242.096 123.665 240.57C123.665 239.828 123.889 239.198 124.351 238.708C124.813 238.204 125.387 237.952 126.087 237.952C126.661 237.952 127.179 238.148 127.655 238.554ZM133.397 237.952C134.531 237.952 135.259 238.75 135.273 239.968H131.241C131.409 238.792 132.221 237.952 133.397 237.952ZM136.323 240.248C136.323 238.708 135.497 236.972 133.369 236.972C132.431 236.972 131.661 237.322 131.045 238.036C130.443 238.75 130.135 239.604 130.135 240.612C130.135 241.662 130.443 242.516 131.045 243.174C131.661 243.832 132.487 244.154 133.509 244.154C134.419 244.154 135.203 243.832 135.861 243.202C136.113 242.95 136.141 242.698 135.931 242.46C135.693 242.222 135.441 242.222 135.175 242.488C134.713 242.95 134.153 243.188 133.509 243.188C132.165 243.188 131.297 242.334 131.199 240.892H135.609C136.085 240.892 136.323 240.682 136.323 240.248ZM138.386 243.482C138.386 243.874 138.554 244.07 138.904 244.07C139.254 244.07 139.422 243.874 139.422 243.482V240.598C139.422 238.96 140.15 237.938 141.494 237.938C142.6 237.938 143.244 238.652 143.244 239.926V243.482C143.244 243.874 143.412 244.07 143.762 244.07C144.056 244.07 144.294 243.874 144.294 243.482V240.01C144.294 238.064 143.314 236.972 141.564 236.972C140.71 236.972 139.856 237.378 139.394 237.98V237.644C139.394 237.266 139.226 237.07 138.89 237.07C138.61 237.07 138.386 237.266 138.386 237.644V243.482ZM148.946 243.062C147.98 243.062 147.742 242.796 147.742 241.788V238.092H148.932C149.296 238.092 149.478 237.938 149.478 237.616C149.478 237.294 149.296 237.14 148.932 237.14H147.742V235.74C147.742 235.348 147.574 235.152 147.224 235.152C146.874 235.152 146.706 235.348 146.706 235.74V237.14H145.992C145.628 237.14 145.446 237.294 145.446 237.616C145.446 237.938 145.628 238.092 145.992 238.092H146.706V241.858C146.706 243.524 147.35 244.014 148.862 244.014C149.268 244.014 149.478 243.86 149.478 243.538C149.478 243.216 149.296 243.062 148.946 243.062ZM154.315 237.952C155.449 237.952 156.177 238.75 156.191 239.968H152.159C152.327 238.792 153.139 237.952 154.315 237.952ZM157.241 240.248C157.241 238.708 156.415 236.972 154.287 236.972C153.349 236.972 152.579 237.322 151.963 238.036C151.361 238.75 151.053 239.604 151.053 240.612C151.053 241.662 151.361 242.516 151.963 243.174C152.579 243.832 153.405 244.154 154.427 244.154C155.337 244.154 156.121 243.832 156.779 243.202C157.031 242.95 157.059 242.698 156.849 242.46C156.611 242.222 156.359 242.222 156.093 242.488C155.631 242.95 155.071 243.188 154.427 243.188C153.083 243.188 152.215 242.334 152.117 240.892H156.527C157.003 240.892 157.241 240.682 157.241 240.248ZM163.154 238.47C163.476 238.736 163.728 238.75 163.938 238.526C164.176 238.274 164.148 238.022 163.868 237.756C163.308 237.238 162.608 236.972 161.782 236.972C161.138 236.972 160.578 237.154 160.116 237.504C159.654 237.854 159.416 238.33 159.416 238.946C159.416 239.954 160.06 240.612 161.362 240.92L162.384 241.158C163.098 241.326 163.462 241.662 163.462 242.152C163.462 242.81 162.888 243.202 161.922 243.202C161.236 243.202 160.648 242.964 160.144 242.474C159.906 242.236 159.654 242.222 159.416 242.46C159.192 242.684 159.206 242.922 159.444 243.188C160.074 243.832 160.9 244.154 161.936 244.154C163.49 244.154 164.498 243.314 164.498 242.096C164.498 241.116 163.854 240.472 162.552 240.164L161.474 239.912C160.788 239.758 160.452 239.422 160.452 238.904C160.452 238.33 160.97 237.938 161.712 237.938C162.258 237.938 162.734 238.12 163.154 238.47ZM92.1175 262.666C92.6495 262.176 93.1955 261.938 93.7695 261.938C94.7635 261.938 95.3655 262.498 95.3655 263.548V263.758L93.4895 263.982C91.9775 264.15 90.9555 264.92 90.9555 266.138C90.9555 267.384 91.9075 268.154 93.1955 268.154C94.1055 268.154 94.9315 267.748 95.3935 267.23V267.496C95.3935 268.252 96.4015 268.252 96.4015 267.496V263.66C96.4015 261.924 95.4215 260.972 93.7835 260.972C92.9015 260.972 91.9775 261.42 91.4175 262.022C91.1795 262.302 91.1935 262.568 91.4035 262.75C91.6135 262.932 91.8515 262.904 92.1175 262.666ZM91.9915 266.166C91.9915 265.48 92.5095 265.074 93.5455 264.948L95.3655 264.724V266.138C94.9595 266.754 94.1055 267.23 93.2515 267.23C92.4815 267.23 91.9915 266.796 91.9915 266.166ZM103.726 266.432C103.32 266.922 102.788 267.174 102.102 267.174C101.416 267.174 100.87 266.922 100.464 266.432C100.058 265.942 99.8621 265.312 99.8621 264.556C99.8621 263.8 100.058 263.17 100.464 262.68C100.87 262.19 101.416 261.938 102.102 261.938C102.788 261.938 103.32 262.19 103.726 262.68C104.132 263.17 104.328 263.8 104.328 264.556C104.328 265.312 104.132 265.942 103.726 266.432ZM98.8541 270.198C98.8541 270.59 99.0221 270.786 99.3721 270.786C99.7221 270.786 99.8901 270.59 99.8901 270.198V267.076C100.506 267.79 101.276 268.154 102.2 268.154C103.138 268.154 103.894 267.804 104.496 267.118C105.098 266.418 105.392 265.564 105.392 264.556C105.392 263.548 105.098 262.694 104.496 262.008C103.894 261.322 103.138 260.972 102.2 260.972C101.262 260.972 100.492 261.336 99.8621 262.064V261.63C99.8621 260.86 98.8541 260.86 98.8541 261.63V270.198ZM110.658 268.154C111.652 268.154 112.478 267.804 113.136 267.118C113.794 266.418 114.13 265.564 114.13 264.57C114.13 263.576 113.794 262.722 113.122 262.022C112.464 261.322 111.638 260.972 110.658 260.972C109.678 260.972 108.852 261.322 108.194 262.022C107.536 262.722 107.214 263.576 107.214 264.57C107.214 265.564 107.536 266.418 108.194 267.118C108.852 267.804 109.678 268.154 110.658 268.154ZM110.658 267.188C109.972 267.188 109.398 266.936 108.95 266.446C108.502 265.942 108.278 265.312 108.278 264.57C108.278 263.828 108.502 263.198 108.95 262.708C109.398 262.204 109.972 261.952 110.658 261.952C111.358 261.952 111.932 262.204 112.38 262.708C112.828 263.198 113.052 263.828 113.052 264.57C113.052 265.312 112.828 265.942 112.38 266.446C111.932 266.936 111.358 267.188 110.658 267.188ZM117.512 270.03C117.372 270.394 117.47 270.632 117.806 270.758C118.142 270.856 118.38 270.73 118.52 270.366L121.936 261.826C122.076 261.462 121.978 261.224 121.642 261.098C121.306 261 121.068 261.126 120.928 261.49L118.856 266.838L116.742 261.49C116.602 261.126 116.364 261 116.028 261.098C115.678 261.224 115.58 261.476 115.72 261.826L118.282 268.084L117.512 270.03ZM124.246 262.666C124.778 262.176 125.324 261.938 125.898 261.938C126.892 261.938 127.494 262.498 127.494 263.548V263.758L125.618 263.982C124.106 264.15 123.084 264.92 123.084 266.138C123.084 267.384 124.036 268.154 125.324 268.154C126.234 268.154 127.06 267.748 127.522 267.23V267.496C127.522 268.252 128.53 268.252 128.53 267.496V263.66C128.53 261.924 127.55 260.972 125.912 260.972C125.03 260.972 124.106 261.42 123.546 262.022C123.308 262.302 123.322 262.568 123.532 262.75C123.742 262.932 123.98 262.904 124.246 262.666ZM124.12 266.166C124.12 265.48 124.638 265.074 125.674 264.948L127.494 264.724V266.138C127.088 266.754 126.234 267.23 125.38 267.23C124.61 267.23 124.12 266.796 124.12 266.166ZM132.177 262.694C132.583 262.204 133.115 261.952 133.801 261.952C134.487 261.952 135.019 262.204 135.425 262.694C135.831 263.184 136.041 263.814 136.041 264.57C136.041 265.326 135.831 265.956 135.425 266.446C135.019 266.936 134.487 267.188 133.801 267.188C133.115 267.188 132.583 266.936 132.177 266.446C131.771 265.956 131.575 265.326 131.575 264.57C131.575 263.814 131.771 263.184 132.177 262.694ZM137.049 258.718C137.049 258.326 136.881 258.13 136.531 258.13C136.181 258.13 136.013 258.326 136.013 258.718V262.05C135.397 261.336 134.627 260.972 133.703 260.972C132.765 260.972 132.009 261.322 131.407 262.022C130.805 262.708 130.511 263.562 130.511 264.57C130.511 265.578 130.805 266.432 131.407 267.118C132.009 267.804 132.765 268.154 133.703 268.154C134.641 268.154 135.411 267.79 136.041 267.062V267.496C136.041 268.252 137.049 268.252 137.049 267.496V258.718ZM142.554 268.154C143.548 268.154 144.374 267.804 145.032 267.118C145.69 266.418 146.026 265.564 146.026 264.57C146.026 263.576 145.69 262.722 145.018 262.022C144.36 261.322 143.534 260.972 142.554 260.972C141.574 260.972 140.748 261.322 140.09 262.022C139.432 262.722 139.11 263.576 139.11 264.57C139.11 265.564 139.432 266.418 140.09 267.118C140.748 267.804 141.574 268.154 142.554 268.154ZM142.554 267.188C141.868 267.188 141.294 266.936 140.846 266.446C140.398 265.942 140.174 265.312 140.174 264.57C140.174 263.828 140.398 263.198 140.846 262.708C141.294 262.204 141.868 261.952 142.554 261.952C143.254 261.952 143.828 262.204 144.276 262.708C144.724 263.198 144.948 263.828 144.948 264.57C144.948 265.312 144.724 265.942 144.276 266.446C143.828 266.936 143.254 267.188 142.554 267.188ZM151.936 262.47C152.258 262.736 152.51 262.75 152.72 262.526C152.958 262.274 152.93 262.022 152.65 261.756C152.09 261.238 151.39 260.972 150.564 260.972C149.92 260.972 149.36 261.154 148.898 261.504C148.436 261.854 148.198 262.33 148.198 262.946C148.198 263.954 148.842 264.612 150.144 264.92L151.166 265.158C151.88 265.326 152.244 265.662 152.244 266.152C152.244 266.81 151.67 267.202 150.704 267.202C150.018 267.202 149.43 266.964 148.926 266.474C148.688 266.236 148.436 266.222 148.198 266.46C147.974 266.684 147.988 266.922 148.226 267.188C148.856 267.832 149.682 268.154 150.718 268.154C152.272 268.154 153.28 267.314 153.28 266.096C153.28 265.116 152.636 264.472 151.334 264.164L150.256 263.912C149.57 263.758 149.234 263.422 149.234 262.904C149.234 262.33 149.752 261.938 150.494 261.938C151.04 261.938 151.516 262.12 151.936 262.47Z" fill="#F9D332"/>
<circle cx="122.233" cy="96.6153" r="44.9361" fill="#F9D332" stroke="#930345" stroke-width="9"/>
</svg>
