<svg width="225" height="107" viewBox="0 0 225 107" fill="none" xmlns="http://www.w3.org/2000/svg">
<rect width="225" height="107" fill="#F9D332"/>
<path d="M79.652 59C82.424 59 84.972 58.216 87.1 56.732C89.228 55.192 90.6 52.504 90.6 49.06C90.6 45.672 89.228 42.984 87.072 41.556C84.944 40.1 82.452 39.4 79.652 39.4H75.844C74.164 39.4 73.184 40.38 73.184 42.06V56.34C73.184 58.02 74.164 59 75.844 59H79.652ZM79.008 43.236C83.908 43.236 86.372 45.168 86.372 49.06C86.372 53.12 83.936 55.164 79.036 55.164H77.356V43.236H79.008ZM95.332 57.264C96.704 58.636 98.44 59.308 100.512 59.308C102.584 59.308 104.32 58.636 105.692 57.264C107.064 55.892 107.764 54.184 107.764 52.14C107.764 50.096 107.064 48.388 105.664 47.016C104.292 45.644 102.556 44.944 100.512 44.944C98.468 44.944 96.732 45.644 95.332 47.016C93.96 48.388 93.26 50.096 93.26 52.14C93.26 54.184 93.96 55.892 95.332 57.264ZM98.216 49.648C98.804 49.004 99.588 48.668 100.512 48.668C101.436 48.668 102.22 49.004 102.808 49.648C103.396 50.292 103.704 51.132 103.704 52.14C103.704 53.148 103.396 53.988 102.808 54.632C102.22 55.276 101.436 55.612 100.512 55.612C99.588 55.612 98.804 55.276 98.216 54.632C97.628 53.988 97.32 53.148 97.32 52.14C97.32 51.132 97.628 50.292 98.216 49.648ZM111.079 57.012C110.911 59.812 115.223 59.812 115.055 57.012V52.14C115.055 49.816 115.895 48.64 117.575 48.64C119.115 48.64 119.843 49.76 119.843 51.328V57.012C119.843 58.328 120.683 59.14 121.831 59.14C122.979 59.14 123.819 58.328 123.819 57.012V51.02C123.819 47.184 121.635 44.944 118.247 44.944C116.819 44.944 115.727 45.42 114.915 46.372C114.607 45.56 113.991 45.14 113.067 45.14C111.947 45.14 111.079 45.952 111.079 47.268V57.012ZM128.295 46.372C127.371 47.128 127.175 48.248 127.819 49.004C128.407 49.788 129.415 49.872 130.451 49.172C131.151 48.696 131.907 48.472 132.747 48.472C134.147 48.472 134.847 49.172 134.847 50.572L132.327 50.684C130.787 50.74 129.471 51.132 128.435 51.86C127.399 52.588 126.895 53.652 126.895 55.08C126.895 56.312 127.315 57.32 128.183 58.132C129.051 58.916 130.143 59.308 131.515 59.308C132.887 59.308 134.063 58.832 135.015 57.88C135.323 58.72 135.939 59.14 136.863 59.14C137.983 59.14 138.851 58.328 138.851 57.012V50.432C138.851 48.724 138.319 47.408 137.227 46.428C136.135 45.448 134.735 44.944 133.027 44.944C131.095 44.944 129.499 45.42 128.295 46.372ZM130.899 54.856C130.899 54.1 131.627 53.708 133.083 53.624L134.847 53.484V55.108C134.091 55.668 133.307 55.948 132.495 55.948C131.487 55.948 130.899 55.528 130.899 54.856ZM151.443 45.196C151.163 45.112 150.799 45.084 150.323 45.084C149.119 45.084 147.775 45.7 146.991 46.792C146.851 45.812 146.095 45.14 145.059 45.14C143.939 45.14 143.071 45.952 143.071 47.268V57.012C142.903 59.812 147.215 59.812 147.047 57.012V53.26C147.047 50.488 148.503 48.948 150.407 48.948C150.659 48.948 151.079 49.004 151.275 49.004C152.255 49.004 153.011 48.248 153.011 47.156C153.011 46.12 152.339 45.42 151.443 45.196Z" fill="#930345"/>
</svg>
