<svg width="225" height="107" viewBox="0 0 225 107" fill="none" xmlns="http://www.w3.org/2000/svg">
<rect width="225" height="107" fill="#F9D332"/>
<path d="M57.448 50.88C58.68 50.88 59.464 50.04 59.464 49.004C59.464 47.912 58.68 47.1 57.448 47.1H49.356V43.236H57.896C59.156 43.236 59.94 42.424 59.94 41.332C59.94 40.212 59.156 39.4 57.896 39.4H47.844C46.164 39.4 45.184 40.38 45.184 42.06V56.34C45.184 58.02 46.164 59 47.844 59H57.896C59.156 59 59.94 58.188 59.94 57.096C59.94 55.976 59.156 55.164 57.896 55.164H49.356V50.88H57.448ZM63.7471 57.012C63.5791 59.812 67.8911 59.812 67.7231 57.012V51.972C67.7231 49.844 68.5351 48.64 70.1031 48.64C71.4751 48.64 72.2031 49.648 72.2031 51.188V57.012C72.0351 59.812 76.3471 59.812 76.1791 57.012V51.692C76.1791 49.788 77.0751 48.64 78.5591 48.64C79.9311 48.64 80.6591 49.648 80.6591 51.188V57.012C80.4911 59.812 84.8031 59.812 84.6351 57.012V51.02C84.6351 47.128 82.5631 44.944 78.8951 44.944C77.2431 44.944 75.8711 45.504 74.7791 46.596C73.8271 45.504 72.5671 44.944 70.9711 44.944C69.5431 44.944 68.3951 45.42 67.5831 46.372C67.2751 45.56 66.6591 45.14 65.7351 45.14C64.6151 45.14 63.7471 45.952 63.7471 47.268V57.012ZM88.712 62.444C88.544 65.244 92.856 65.244 92.688 62.444V58.104C93.612 58.916 94.788 59.308 96.216 59.308C98.148 59.308 99.772 58.636 101.088 57.32C102.404 56.004 103.076 54.268 103.076 52.14C103.076 49.984 102.404 48.248 101.088 46.932C99.772 45.616 98.148 44.944 96.216 44.944C94.732 44.944 93.248 45.532 92.548 46.4C92.268 45.532 91.652 45.112 90.7 45.112C89.58 45.112 88.712 45.896 88.712 47.24V62.444ZM93.528 49.564C94.144 48.892 94.9 48.556 95.824 48.556C96.748 48.556 97.504 48.892 98.092 49.564C98.708 50.236 99.016 51.104 99.016 52.14C99.016 53.176 98.708 54.044 98.092 54.716C97.504 55.388 96.748 55.724 95.824 55.724C94.9 55.724 94.144 55.388 93.528 54.716C92.94 54.044 92.632 53.176 92.632 52.14C92.632 51.104 92.94 50.236 93.528 49.564ZM114.721 45.196C114.441 45.112 114.077 45.084 113.601 45.084C112.397 45.084 111.053 45.7 110.269 46.792C110.129 45.812 109.373 45.14 108.337 45.14C107.217 45.14 106.349 45.952 106.349 47.268V57.012C106.181 59.812 110.493 59.812 110.325 57.012V53.26C110.325 50.488 111.781 48.948 113.685 48.948C113.937 48.948 114.357 49.004 114.553 49.004C115.533 49.004 116.289 48.248 116.289 47.156C116.289 46.12 115.617 45.42 114.721 45.196ZM130.704 50.964C130.704 49.088 129.892 47.24 127.792 45.924C126.756 45.28 125.552 44.944 124.18 44.944C122.192 44.944 120.568 45.644 119.308 47.016C118.048 48.388 117.432 50.124 117.432 52.224C117.432 54.352 118.104 56.06 119.476 57.376C120.848 58.664 122.556 59.308 124.656 59.308C126.476 59.308 128.016 58.86 129.22 57.936C130.256 57.124 130.452 56.004 129.808 55.22C129.108 54.296 128.1 54.044 127.008 54.828C126.308 55.388 125.496 55.668 124.544 55.668C122.836 55.668 121.688 54.632 121.464 53.148H128.492C129.976 53.148 130.704 52.42 130.704 50.964ZM124.264 48.444C125.58 48.444 126.504 49.34 126.588 50.488H121.66C121.912 49.284 122.836 48.444 124.264 48.444ZM134.439 57.796C135.643 58.804 137.295 59.308 139.395 59.308C142.895 59.308 145.135 57.488 145.135 54.884C145.135 52.336 143.427 51.132 140.627 50.348L138.863 49.872C138.191 49.676 137.883 49.508 137.883 49.088C137.883 48.64 138.387 48.332 139.171 48.332C139.983 48.332 140.767 48.556 141.495 49.032C142.587 49.676 143.539 49.424 144.127 48.528C144.659 47.66 144.407 46.652 143.399 45.98C142.279 45.28 140.935 44.944 139.339 44.944C137.855 44.944 136.595 45.336 135.559 46.148C134.523 46.932 134.019 47.968 134.019 49.284C134.019 51.496 135.447 52.896 138.499 53.764L140.039 54.212C140.963 54.464 141.271 54.688 141.271 55.136C141.271 55.668 140.599 55.976 139.731 55.976C138.499 55.976 137.491 55.668 136.735 55.08C135.727 54.268 134.859 54.296 134.103 55.136C133.403 55.92 133.515 56.984 134.439 57.796ZM149.021 46.372C148.097 47.128 147.901 48.248 148.545 49.004C149.133 49.788 150.141 49.872 151.177 49.172C151.877 48.696 152.633 48.472 153.473 48.472C154.873 48.472 155.573 49.172 155.573 50.572L153.053 50.684C151.513 50.74 150.197 51.132 149.161 51.86C148.125 52.588 147.621 53.652 147.621 55.08C147.621 56.312 148.041 57.32 148.909 58.132C149.777 58.916 150.869 59.308 152.241 59.308C153.613 59.308 154.789 58.832 155.741 57.88C156.049 58.72 156.665 59.14 157.589 59.14C158.709 59.14 159.577 58.328 159.577 57.012V50.432C159.577 48.724 159.045 47.408 157.953 46.428C156.861 45.448 155.461 44.944 153.753 44.944C151.821 44.944 150.225 45.42 149.021 46.372ZM151.625 54.856C151.625 54.1 152.353 53.708 153.809 53.624L155.573 53.484V55.108C154.817 55.668 154.033 55.948 153.221 55.948C152.213 55.948 151.625 55.528 151.625 54.856ZM163.833 57.796C165.037 58.804 166.689 59.308 168.789 59.308C172.289 59.308 174.529 57.488 174.529 54.884C174.529 52.336 172.821 51.132 170.021 50.348L168.257 49.872C167.585 49.676 167.277 49.508 167.277 49.088C167.277 48.64 167.781 48.332 168.565 48.332C169.377 48.332 170.161 48.556 170.889 49.032C171.981 49.676 172.933 49.424 173.521 48.528C174.053 47.66 173.801 46.652 172.793 45.98C171.673 45.28 170.329 44.944 168.733 44.944C167.249 44.944 165.989 45.336 164.953 46.148C163.917 46.932 163.413 47.968 163.413 49.284C163.413 51.496 164.841 52.896 167.893 53.764L169.433 54.212C170.357 54.464 170.665 54.688 170.665 55.136C170.665 55.668 169.993 55.976 169.125 55.976C167.893 55.976 166.885 55.668 166.129 55.08C165.121 54.268 164.253 54.296 163.497 55.136C162.797 55.92 162.909 56.984 163.833 57.796Z" fill="#930345"/>
</svg>
