<svg width="104" height="46" viewBox="0 0 104 46" fill="none" xmlns="http://www.w3.org/2000/svg">
<rect width="104" height="46" fill="#FF3B9D"/>
<path d="M33.3046 22.78C34.0966 22.78 34.6006 22.24 34.6006 21.574C34.6006 20.872 34.0966 20.35 33.3046 20.35H28.1026V17.866H33.5926C34.4026 17.866 34.9066 17.344 34.9066 16.642C34.9066 15.922 34.4026 15.4 33.5926 15.4H27.1306C26.0506 15.4 25.4206 16.03 25.4206 17.11V26.29C25.4206 27.37 26.0506 28 27.1306 28H33.5926C34.4026 28 34.9066 27.478 34.9066 26.776C34.9066 26.056 34.4026 25.534 33.5926 25.534H28.1026V22.78H33.3046ZM37.354 26.722C37.246 28.522 40.018 28.522 39.91 26.722V23.59C39.91 22.096 40.45 21.34 41.53 21.34C42.52 21.34 42.988 22.06 42.988 23.068V26.722C42.988 27.568 43.528 28.09 44.266 28.09C45.004 28.09 45.544 27.568 45.544 26.722V22.87C45.544 20.404 44.14 18.964 41.962 18.964C41.044 18.964 40.342 19.27 39.82 19.882C39.622 19.36 39.226 19.09 38.632 19.09C37.912 19.09 37.354 19.612 37.354 20.458V26.722ZM55.4304 20.89C55.7364 20.08 55.4124 19.36 54.7104 19.144C54.0084 18.928 53.3064 19.306 53.0364 20.116L51.3264 24.634L49.6164 20.116C49.3464 19.306 48.6804 18.928 47.9784 19.144C47.2584 19.36 46.8984 20.098 47.2044 20.89L49.5624 26.74C49.9404 27.658 50.5164 28.108 51.3264 28.108C52.1724 28.108 52.7664 27.658 53.0904 26.74L55.4304 20.89ZM57.039 16.678C57.039 17.488 57.705 18.154 58.515 18.154C59.325 18.154 60.009 17.488 60.009 16.678C60.009 15.832 59.361 15.184 58.515 15.184C57.705 15.184 57.039 15.832 57.039 16.678ZM59.793 26.722V20.458C59.793 19.612 59.253 19.09 58.515 19.09C57.777 19.09 57.237 19.612 57.237 20.458V26.722C57.237 27.568 57.777 28.09 58.515 28.09C59.253 28.09 59.793 27.568 59.793 26.722ZM62.9759 19.882C62.3819 20.368 62.2559 21.088 62.6699 21.574C63.0479 22.078 63.6959 22.132 64.3619 21.682C64.8119 21.376 65.2979 21.232 65.8379 21.232C66.7379 21.232 67.1879 21.682 67.1879 22.582L65.5679 22.654C64.5779 22.69 63.7319 22.942 63.0659 23.41C62.3999 23.878 62.0759 24.562 62.0759 25.48C62.0759 26.272 62.3459 26.92 62.9039 27.442C63.4619 27.946 64.1639 28.198 65.0459 28.198C65.9279 28.198 66.6839 27.892 67.2959 27.28C67.4939 27.82 67.8899 28.09 68.4839 28.09C69.2039 28.09 69.7619 27.568 69.7619 26.722V22.492C69.7619 21.394 69.4199 20.548 68.7179 19.918C68.0159 19.288 67.1159 18.964 66.0179 18.964C64.7759 18.964 63.7499 19.27 62.9759 19.882ZM64.6499 25.336C64.6499 24.85 65.1179 24.598 66.0539 24.544L67.1879 24.454V25.498C66.7019 25.858 66.1979 26.038 65.6759 26.038C65.0279 26.038 64.6499 25.768 64.6499 25.336ZM77.8571 19.126C77.6771 19.072 77.4431 19.054 77.1371 19.054C76.3631 19.054 75.4991 19.45 74.9951 20.152C74.9051 19.522 74.4191 19.09 73.7531 19.09C73.0331 19.09 72.4751 19.612 72.4751 20.458V26.722C72.3671 28.522 75.1391 28.522 75.0311 26.722V24.31C75.0311 22.528 75.9671 21.538 77.1911 21.538C77.3531 21.538 77.6231 21.574 77.7491 21.574C78.3791 21.574 78.8651 21.088 78.8651 20.386C78.8651 19.72 78.4331 19.27 77.8571 19.126Z" fill="white"/>
</svg>
