<svg width="421" height="212" viewBox="0 0 421 212" fill="none" xmlns="http://www.w3.org/2000/svg">
<path d="M421 -2.42845e-06C421 117.013 326.685 212 210.5 212C94.3149 212 -4.15201e-06 117.013 -9.26681e-06 1.5974e-05L421 -2.42845e-06Z" fill="#F9D332"/>
<path d="M152.174 56.08C154.286 56.08 155.63 54.64 155.63 52.864C155.63 50.992 154.286 49.6 152.174 49.6H138.302V42.976H152.942C155.102 42.976 156.446 41.584 156.446 39.712C156.446 37.792 155.102 36.4 152.942 36.4H135.71C132.83 36.4 131.15 38.08 131.15 40.96V65.44C131.15 68.32 132.83 70 135.71 70H152.942C155.102 70 156.446 68.608 156.446 66.736C156.446 64.816 155.102 63.424 152.942 63.424H138.302V56.08H152.174ZM186.205 49.84C186.205 47.536 184.717 46.192 182.797 46.192C181.165 46.192 180.109 46.912 179.629 48.4C178.429 46.912 175.885 45.904 173.341 45.904C170.029 45.904 167.197 47.056 164.941 49.312C162.685 51.568 161.581 54.544 161.581 58.24C161.581 61.888 162.685 64.864 164.941 67.12C167.197 69.376 170.029 70.528 173.341 70.528C175.789 70.528 177.805 69.856 179.389 68.464V75.904C179.101 80.704 186.493 80.704 186.205 75.904V49.84ZM177.901 62.656C176.893 63.808 175.597 64.384 174.013 64.384C172.429 64.384 171.133 63.808 170.077 62.656C169.069 61.504 168.541 60.016 168.541 58.24C168.541 56.464 169.069 54.976 170.077 53.824C171.133 52.672 172.429 52.096 174.013 52.096C175.597 52.096 176.893 52.672 177.901 53.824C178.957 54.976 179.485 56.464 179.485 58.24C179.485 60.016 178.957 61.504 177.901 62.656ZM213.943 49.888C214.231 45.088 206.839 45.088 207.127 49.888V58.24C207.127 62.128 206.071 64.24 203.047 64.24C200.647 64.24 199.447 62.704 199.447 59.632V49.888C199.735 45.088 192.343 45.088 192.631 49.888V60.16C192.631 66.832 195.847 70.528 201.607 70.528C204.151 70.528 206.071 69.712 207.415 68.128C207.943 69.52 208.999 70.24 210.535 70.24C212.455 70.24 213.943 68.848 213.943 66.592V49.888ZM221.232 39.808C221.232 41.968 223.008 43.744 225.168 43.744C227.328 43.744 229.152 41.968 229.152 39.808C229.152 37.552 227.424 35.824 225.168 35.824C223.008 35.824 221.232 37.552 221.232 39.808ZM228.576 66.592V49.888C228.576 47.632 227.136 46.24 225.168 46.24C223.2 46.24 221.76 47.632 221.76 49.888V66.592C221.76 68.848 223.2 70.24 225.168 70.24C227.136 70.24 228.576 68.848 228.576 66.592ZM236.379 75.904C236.091 80.704 243.483 80.704 243.195 75.904V68.464C244.779 69.856 246.795 70.528 249.243 70.528C252.555 70.528 255.339 69.376 257.595 67.12C259.851 64.864 261.003 61.888 261.003 58.24C261.003 54.544 259.851 51.568 257.595 49.312C255.339 47.056 252.555 45.904 249.243 45.904C246.699 45.904 244.155 46.912 242.955 48.4C242.475 46.912 241.419 46.192 239.787 46.192C237.867 46.192 236.379 47.536 236.379 49.84V75.904ZM244.635 53.824C245.691 52.672 246.987 52.096 248.571 52.096C250.155 52.096 251.451 52.672 252.459 53.824C253.515 54.976 254.043 56.464 254.043 58.24C254.043 60.016 253.515 61.504 252.459 62.656C251.451 63.808 250.155 64.384 248.571 64.384C246.987 64.384 245.691 63.808 244.635 62.656C243.627 61.504 243.099 60.016 243.099 58.24C243.099 56.464 243.627 54.976 244.635 53.824ZM269.103 67.024C271.455 69.376 274.431 70.528 277.983 70.528C281.535 70.528 284.511 69.376 286.863 67.024C289.215 64.672 290.415 61.744 290.415 58.24C290.415 54.736 289.215 51.808 286.815 49.456C284.463 47.104 281.487 45.904 277.983 45.904C274.479 45.904 271.503 47.104 269.103 49.456C266.751 51.808 265.551 54.736 265.551 58.24C265.551 61.744 266.751 64.672 269.103 67.024ZM274.047 53.968C275.055 52.864 276.399 52.288 277.983 52.288C279.567 52.288 280.911 52.864 281.919 53.968C282.927 55.072 283.455 56.512 283.455 58.24C283.455 59.968 282.927 61.408 281.919 62.512C280.911 63.616 279.567 64.192 277.983 64.192C276.399 64.192 275.055 63.616 274.047 62.512C273.039 61.408 272.511 59.968 272.511 58.24C272.511 56.512 273.039 55.072 274.047 53.968ZM117.594 94.856C114.426 92.168 110.634 90.824 106.266 90.824C101.226 90.824 97.05 92.408 93.69 95.624C90.33 98.792 88.65 103.016 88.65 108.248C88.65 113.432 90.33 117.608 93.69 120.776C97.098 123.944 101.37 125.528 106.506 125.528C111.162 125.528 115.05 124.184 118.122 121.448C119.85 119.912 119.994 117.8 118.65 116.408C117.354 114.92 115.434 114.728 113.562 116.216C111.45 117.992 109.05 118.856 106.314 118.856C103.386 118.856 100.938 117.896 98.97 115.976C97.002 114.056 95.994 111.416 95.994 108.104C95.994 104.84 97.002 102.248 98.97 100.376C100.986 98.456 103.29 97.496 105.93 97.496C108.714 97.496 111.066 98.36 113.034 100.088C114.906 101.624 116.826 101.432 118.122 99.896C119.466 98.504 119.322 96.392 117.594 94.856ZM128.009 122.024C130.361 124.376 133.337 125.528 136.889 125.528C140.441 125.528 143.417 124.376 145.769 122.024C148.121 119.672 149.321 116.744 149.321 113.24C149.321 109.736 148.121 106.808 145.721 104.456C143.369 102.104 140.393 100.904 136.889 100.904C133.385 100.904 130.409 102.104 128.009 104.456C125.657 106.808 124.457 109.736 124.457 113.24C124.457 116.744 125.657 119.672 128.009 122.024ZM132.953 108.968C133.961 107.864 135.305 107.288 136.889 107.288C138.473 107.288 139.817 107.864 140.825 108.968C141.833 110.072 142.361 111.512 142.361 113.24C142.361 114.968 141.833 116.408 140.825 117.512C139.817 118.616 138.473 119.192 136.889 119.192C135.305 119.192 133.961 118.616 132.953 117.512C131.945 116.408 131.417 114.968 131.417 113.24C131.417 111.512 131.945 110.072 132.953 108.968ZM155.004 121.592C154.716 126.392 162.108 126.392 161.82 121.592V113.24C161.82 109.256 163.26 107.24 166.14 107.24C168.78 107.24 170.028 109.16 170.028 111.848V121.592C170.028 123.848 171.468 125.24 173.436 125.24C175.404 125.24 176.844 123.848 176.844 121.592V111.32C176.844 104.744 173.1 100.904 167.292 100.904C164.844 100.904 162.972 101.72 161.58 103.352C161.052 101.96 159.996 101.24 158.412 101.24C156.492 101.24 155.004 102.632 155.004 104.888V121.592ZM182.549 122.792C184.757 124.616 187.349 125.528 190.373 125.528C197.669 125.528 201.893 121.256 201.893 113.432V94.904C201.893 92.552 200.405 91.112 198.341 91.112C196.277 91.112 194.789 92.552 194.789 94.904V113.72C194.789 117.128 193.253 119 190.421 119C189.221 119 188.069 118.568 186.965 117.656C185.093 116.264 183.269 116.408 182.069 117.896C180.773 119.288 180.821 121.4 182.549 122.792ZM229.318 104.888C229.606 100.088 222.214 100.088 222.502 104.888V113.24C222.502 117.128 221.446 119.24 218.422 119.24C216.022 119.24 214.822 117.704 214.822 114.632V104.888C215.11 100.088 207.718 100.088 208.006 104.888V115.16C208.006 121.832 211.222 125.528 216.982 125.528C219.526 125.528 221.446 124.712 222.79 123.128C223.318 124.52 224.374 125.24 225.91 125.24C227.83 125.24 229.318 123.848 229.318 121.592V104.888ZM236.895 121.592C236.607 126.392 243.999 126.392 243.711 121.592V113.24C243.711 109.256 245.151 107.24 248.031 107.24C250.671 107.24 251.919 109.16 251.919 111.848V121.592C251.919 123.848 253.359 125.24 255.327 125.24C257.295 125.24 258.735 123.848 258.735 121.592V111.32C258.735 104.744 254.991 100.904 249.183 100.904C246.735 100.904 244.863 101.72 243.471 103.352C242.943 101.96 241.887 101.24 240.303 101.24C238.383 101.24 236.895 102.632 236.895 104.888V121.592ZM274.958 118.76C273.374 118.616 272.558 117.848 272.558 115.88V107.768H274.862C276.974 107.768 278.27 106.424 278.27 104.648C278.27 102.872 276.974 101.48 274.862 101.48H272.558V98.312C272.894 93.512 265.502 93.512 265.79 98.312V101.48H264.926C262.814 101.48 261.518 102.872 261.518 104.648C261.518 106.424 262.814 107.768 264.926 107.768H265.79V116.696C265.79 122.312 268.526 125.096 273.998 125.096H274.622C276.974 125.096 278.27 123.752 278.27 121.976C278.27 120.2 277.118 119 274.958 118.76ZM285.884 122.024C288.236 124.376 291.212 125.528 294.764 125.528C298.316 125.528 301.292 124.376 303.644 122.024C305.996 119.672 307.196 116.744 307.196 113.24C307.196 109.736 305.996 106.808 303.596 104.456C301.244 102.104 298.268 100.904 294.764 100.904C291.26 100.904 288.284 102.104 285.884 104.456C283.532 106.808 282.332 109.736 282.332 113.24C282.332 116.744 283.532 119.672 285.884 122.024ZM290.828 108.968C291.836 107.864 293.18 107.288 294.764 107.288C296.348 107.288 297.692 107.864 298.7 108.968C299.708 110.072 300.236 111.512 300.236 113.24C300.236 114.968 299.708 116.408 298.7 117.512C297.692 118.616 296.348 119.192 294.764 119.192C293.18 119.192 291.836 118.616 290.828 117.512C289.82 116.408 289.292 114.968 289.292 113.24C289.292 111.512 289.82 110.072 290.828 108.968ZM313.455 122.936C315.519 124.664 318.351 125.528 321.951 125.528C327.951 125.528 331.791 122.408 331.791 117.944C331.791 113.576 328.863 111.512 324.063 110.168L321.039 109.352C319.887 109.016 319.359 108.728 319.359 108.008C319.359 107.24 320.223 106.712 321.567 106.712C322.959 106.712 324.303 107.096 325.551 107.912C327.423 109.016 329.055 108.584 330.063 107.048C330.975 105.56 330.543 103.832 328.815 102.68C326.895 101.48 324.591 100.904 321.855 100.904C319.311 100.904 317.151 101.576 315.375 102.968C313.599 104.312 312.735 106.088 312.735 108.344C312.735 112.136 315.183 114.536 320.415 116.024L323.055 116.792C324.639 117.224 325.167 117.608 325.167 118.376C325.167 119.288 324.015 119.816 322.527 119.816C320.415 119.816 318.687 119.288 317.391 118.28C315.663 116.888 314.175 116.936 312.879 118.376C311.679 119.72 311.871 121.544 313.455 122.936Z" fill="#930345"/>
</svg>
