<svg width="400" height="400" viewBox="0 0 400 400" fill="none" xmlns="http://www.w3.org/2000/svg">
<circle cx="200" cy="200" r="200" fill="#F9D332"/>
<path d="M116.762 113.72H107.514V118.616H117.274C118.714 118.616 119.61 119.544 119.61 120.824C119.61 122.072 118.714 123 117.274 123H105.786C103.866 123 102.746 121.88 102.746 119.96V103.64C102.746 101.72 103.866 100.6 105.786 100.6H117.274C118.714 100.6 119.61 101.528 119.61 102.808C119.61 104.056 118.714 104.984 117.274 104.984H107.514V109.4H116.762C118.17 109.4 119.066 110.328 119.066 111.576C119.066 112.76 118.17 113.72 116.762 113.72ZM131.857 123H127.505C125.585 123 124.465 121.88 124.465 119.96V103.64C124.465 101.72 125.585 100.6 127.505 100.6H131.857C135.057 100.6 137.905 101.4 140.337 103.064C142.801 104.696 144.369 107.768 144.369 111.64C144.369 115.576 142.801 118.648 140.369 120.408C137.937 122.104 135.025 123 131.857 123ZM131.121 104.984H129.233V118.616H131.153C136.753 118.616 139.537 116.28 139.537 111.64C139.537 107.192 136.721 104.984 131.121 104.984ZM152.849 102.968V113.272C152.849 116.696 154.449 119 157.521 119C160.625 119 162.193 117.08 162.193 113.208V102.968C162.193 101.4 163.185 100.44 164.561 100.44C165.937 100.44 166.929 101.4 166.929 102.968V113.048C166.929 119.736 163.409 123.352 157.521 123.352C151.633 123.352 148.113 119.736 148.113 113.048V102.968C148.113 101.4 149.105 100.44 150.481 100.44C151.857 100.44 152.849 101.4 152.849 102.968ZM189.959 102.904C191.111 103.928 191.207 105.336 190.311 106.264C189.447 107.288 188.167 107.416 186.919 106.392C185.607 105.24 184.039 104.664 182.183 104.664C180.423 104.664 178.887 105.304 177.543 106.584C176.231 107.832 175.559 109.56 175.559 111.736C175.559 113.944 176.231 115.704 177.543 116.984C178.855 118.264 180.487 118.904 182.439 118.904C184.263 118.904 185.863 118.328 187.271 117.144C188.519 116.152 189.799 116.28 190.663 117.272C191.559 118.2 191.463 119.608 190.311 120.632C188.263 122.456 185.671 123.352 182.567 123.352C179.143 123.352 176.295 122.296 174.023 120.184C171.783 118.072 170.663 115.288 170.663 111.832C170.663 108.344 171.783 105.528 174.023 103.416C176.263 101.272 179.047 100.216 182.407 100.216C185.319 100.216 187.847 101.112 189.959 102.904ZM207.475 114.36L204.691 107.032L201.907 114.36H207.475ZM194.803 120.024L201.619 102.584C202.163 101.144 203.187 100.44 204.659 100.44C206.163 100.44 207.187 101.144 207.731 102.552L214.579 120.024C215.123 121.432 214.451 122.616 213.171 123.032C211.795 123.448 210.803 122.936 210.194 121.464L209.01 118.584H200.339L199.187 121.464C198.643 122.904 197.459 123.416 196.211 123.032C194.931 122.616 194.259 121.432 194.803 120.024ZM235.615 102.904C236.767 103.928 236.863 105.336 235.967 106.264C235.103 107.288 233.823 107.416 232.575 106.392C231.263 105.24 229.695 104.664 227.839 104.664C226.079 104.664 224.543 105.304 223.199 106.584C221.887 107.832 221.215 109.56 221.215 111.736C221.215 113.944 221.887 115.704 223.199 116.984C224.511 118.264 226.143 118.904 228.095 118.904C229.919 118.904 231.519 118.328 232.927 117.144C234.175 116.152 235.455 116.28 236.319 117.272C237.215 118.2 237.119 119.608 235.967 120.632C233.919 122.456 231.327 123.352 228.223 123.352C224.799 123.352 221.951 122.296 219.679 120.184C217.439 118.072 216.319 115.288 216.319 111.832C216.319 108.344 217.439 105.528 219.679 103.416C221.919 101.272 224.703 100.216 228.063 100.216C230.975 100.216 233.503 101.112 235.615 102.904ZM241.438 120.632V102.936C241.438 101.368 242.43 100.408 243.806 100.408C245.182 100.408 246.174 101.368 246.174 102.936V120.632C246.174 122.2 245.182 123.16 243.806 123.16C242.43 123.16 241.438 122.2 241.438 120.632ZM250.475 111.768C250.475 108.44 251.595 105.688 253.803 103.512C256.011 101.304 258.763 100.216 261.995 100.216C265.259 100.216 268.011 101.304 270.251 103.512C272.491 105.688 273.611 108.44 273.611 111.768C273.611 115.128 272.491 117.88 270.251 120.088C268.011 122.264 265.259 123.352 261.995 123.352C258.763 123.352 256.011 122.264 253.803 120.088C251.595 117.88 250.475 115.128 250.475 111.768ZM255.371 111.768C255.371 113.784 255.979 115.448 257.195 116.824C258.411 118.2 260.043 118.872 262.123 118.872C264.139 118.872 265.771 118.2 266.955 116.824C268.171 115.448 268.779 113.784 268.779 111.768C268.779 109.816 268.139 108.152 266.891 106.776C265.643 105.4 264.075 104.696 262.123 104.696C260.075 104.696 258.443 105.368 257.195 106.744C255.979 108.12 255.371 109.784 255.371 111.768ZM263.915 97.144L261.163 98.424C260.555 98.712 259.979 98.68 259.403 98.328C258.539 97.784 258.315 96.568 258.859 95.768C259.019 95.512 259.243 95.32 259.499 95.16L262.219 93.368C262.955 92.888 263.723 92.92 264.523 93.4C265.451 94.008 265.739 95.32 265.099 96.312C264.811 96.696 264.395 96.984 263.915 97.144ZM290.387 121.08L282.451 107.864V120.632C282.451 122.2 281.459 123.16 280.083 123.16C278.707 123.16 277.715 122.2 277.715 120.632V104.088C277.715 101.752 279.027 100.408 281.203 100.408C282.835 100.408 283.699 101.08 284.563 102.488L292.499 115.704V102.936C292.499 101.368 293.491 100.408 294.867 100.408C296.243 100.408 297.235 101.368 297.235 102.936V119.48C297.235 121.816 295.923 123.16 293.747 123.16C292.115 123.16 291.251 122.488 290.387 121.08Z" fill="#930345"/>
<path d="M86.7397 185.1V174.9C86.7397 173.7 87.4397 173 88.6397 173H93.0397C95.9997 173 97.8797 174.36 97.8797 176.86C97.8797 178 97.3997 178.96 96.4397 179.7C97.6197 180.54 98.2197 181.6 98.2197 182.9C98.2197 184.12 97.7797 185.12 96.8797 185.88C95.9997 186.62 94.8397 187 93.3797 187H88.6397C87.4397 187 86.7397 186.3 86.7397 185.1ZM89.7197 181.1V184.26H92.6997C94.3597 184.26 95.2197 183.82 95.2197 182.64C95.2197 181.62 94.3997 181.1 92.7797 181.1H89.7197ZM92.4397 175.74H89.7197V178.6H92.5597C94.0997 178.6 94.8797 178.12 94.8797 177.16C94.8797 176.1 94.1797 175.74 92.4397 175.74ZM109.42 178.62V185.58C109.42 186.52 108.8 187.1 108 187.1C107.36 187.1 106.92 186.8 106.7 186.22C106.14 186.88 105.34 187.22 104.28 187.22C101.88 187.22 100.54 185.68 100.54 182.9V178.62C100.42 176.62 103.5 176.62 103.38 178.62V182.68C103.38 183.96 103.88 184.6 104.88 184.6C106.14 184.6 106.58 183.72 106.58 182.1V178.62C106.46 176.62 109.54 176.62 109.42 178.62ZM112.602 186.14C111.942 185.56 111.862 184.8 112.362 184.24C112.902 183.64 113.522 183.62 114.242 184.2C114.782 184.62 115.502 184.84 116.382 184.84C117.002 184.84 117.482 184.62 117.482 184.24C117.482 183.92 117.262 183.76 116.602 183.58L115.502 183.26C113.322 182.64 112.302 181.64 112.302 180.06C112.302 179.12 112.662 178.38 113.402 177.82C114.142 177.24 115.042 176.96 116.102 176.96C117.242 176.96 118.202 177.2 119.002 177.7C119.722 178.18 119.902 178.9 119.522 179.52C119.102 180.16 118.422 180.34 117.642 179.88C117.122 179.54 116.562 179.38 115.982 179.38C115.422 179.38 115.062 179.6 115.062 179.92C115.062 180.22 115.282 180.34 115.762 180.48L117.022 180.82C119.022 181.38 120.242 182.24 120.242 184.06C120.242 185.92 118.642 187.22 116.142 187.22C114.642 187.22 113.462 186.86 112.602 186.14ZM128.541 180.12C128.081 179.78 127.601 179.6 127.101 179.6C125.681 179.6 124.721 180.64 124.721 182.1C124.721 183.56 125.681 184.6 127.101 184.6C127.641 184.6 128.181 184.38 128.721 183.96C129.501 183.4 130.221 183.58 130.721 184.24C131.181 184.8 131.041 185.6 130.301 186.18C129.381 186.88 128.281 187.22 127.001 187.22C125.521 187.22 124.281 186.74 123.301 185.76C122.321 184.78 121.821 183.56 121.821 182.1C121.821 180.64 122.321 179.42 123.301 178.44C124.301 177.46 125.541 176.96 127.001 176.96C128.141 176.96 129.141 177.26 129.981 177.88C130.721 178.46 130.921 179.3 130.501 179.86C130.041 180.5 129.321 180.66 128.541 180.12ZM134.034 177.98C134.894 177.3 136.034 176.96 137.414 176.96C138.634 176.96 139.634 177.32 140.414 178.02C141.194 178.72 141.574 179.66 141.574 180.88V185.58C141.574 186.52 140.954 187.1 140.154 187.1C139.494 187.1 139.054 186.8 138.834 186.2C138.154 186.88 137.314 187.22 136.334 187.22C135.354 187.22 134.574 186.94 133.954 186.38C133.334 185.8 133.034 185.08 133.034 184.2C133.034 183.18 133.394 182.42 134.134 181.9C134.874 181.38 135.814 181.1 136.914 181.06L138.714 180.98C138.714 179.98 138.214 179.48 137.214 179.48C136.614 179.48 136.074 179.64 135.574 179.98C134.834 180.48 134.114 180.42 133.694 179.86C133.234 179.32 133.374 178.52 134.034 177.98ZM135.894 184.04C135.894 184.52 136.314 184.82 137.034 184.82C137.614 184.82 138.174 184.62 138.714 184.22V183.06L137.454 183.16C136.414 183.22 135.894 183.5 135.894 184.04ZM144.589 185.58V178.62C144.589 177.68 145.209 177.1 146.009 177.1C146.669 177.1 147.109 177.4 147.329 177.98C147.909 177.3 148.729 176.96 149.749 176.96C150.889 176.96 151.789 177.36 152.469 178.14C153.249 177.36 154.229 176.96 155.409 176.96C158.029 176.96 159.509 178.52 159.509 181.3V185.58C159.629 187.58 156.549 187.58 156.669 185.58V181.42C156.669 180.32 156.149 179.6 155.169 179.6C154.109 179.6 153.469 180.42 153.469 181.78V185.58C153.589 187.58 150.509 187.58 150.629 185.58V181.42C150.629 180.32 150.109 179.6 149.129 179.6C148.009 179.6 147.429 180.46 147.429 181.98V185.58C147.549 187.58 144.469 187.58 144.589 185.58ZM163.126 185.76C162.146 184.78 161.646 183.56 161.646 182.1C161.646 180.64 162.146 179.42 163.126 178.44C164.126 177.46 165.366 176.96 166.826 176.96C168.286 176.96 169.526 177.46 170.506 178.44C171.506 179.42 172.006 180.64 172.006 182.1C172.006 183.56 171.506 184.78 170.526 185.76C169.546 186.74 168.306 187.22 166.826 187.22C165.346 187.22 164.106 186.74 163.126 185.76ZM165.186 180.32C164.766 180.78 164.546 181.38 164.546 182.1C164.546 182.82 164.766 183.42 165.186 183.88C165.606 184.34 166.166 184.58 166.826 184.58C167.486 184.58 168.046 184.34 168.466 183.88C168.886 183.42 169.106 182.82 169.106 182.1C169.106 181.38 168.886 180.78 168.466 180.32C168.046 179.86 167.486 179.62 166.826 179.62C166.166 179.62 165.606 179.86 165.186 180.32ZM174.614 186.14C173.954 185.56 173.874 184.8 174.374 184.24C174.914 183.64 175.534 183.62 176.254 184.2C176.794 184.62 177.514 184.84 178.394 184.84C179.014 184.84 179.494 184.62 179.494 184.24C179.494 183.92 179.274 183.76 178.614 183.58L177.514 183.26C175.334 182.64 174.314 181.64 174.314 180.06C174.314 179.12 174.674 178.38 175.414 177.82C176.154 177.24 177.054 176.96 178.114 176.96C179.254 176.96 180.214 177.2 181.014 177.7C181.734 178.18 181.914 178.9 181.534 179.52C181.114 180.16 180.434 180.34 179.654 179.88C179.134 179.54 178.574 179.38 177.994 179.38C177.434 179.38 177.074 179.6 177.074 179.92C177.074 180.22 177.294 180.34 177.774 180.48L179.034 180.82C181.034 181.38 182.254 182.24 182.254 184.06C182.254 185.92 180.654 187.22 178.154 187.22C176.654 187.22 175.474 186.86 174.614 186.14ZM199.796 178.6V189.46C199.916 191.46 196.836 191.46 196.956 189.46V186.36C196.296 186.94 195.456 187.22 194.436 187.22C193.056 187.22 191.876 186.74 190.936 185.8C189.996 184.86 189.536 183.62 189.536 182.1C189.536 180.56 189.996 179.32 190.936 178.38C191.876 177.44 193.056 176.96 194.436 176.96C195.496 176.96 196.556 177.38 197.056 178C197.256 177.38 197.696 177.08 198.376 177.08C199.176 177.08 199.796 177.64 199.796 178.6ZM196.336 183.94C196.776 183.46 196.996 182.84 196.996 182.1C196.996 181.36 196.776 180.74 196.336 180.26C195.916 179.78 195.376 179.54 194.716 179.54C194.056 179.54 193.516 179.78 193.076 180.26C192.656 180.74 192.436 181.36 192.436 182.1C192.436 182.84 192.656 183.46 193.076 183.94C193.516 184.42 194.056 184.66 194.716 184.66C195.376 184.66 195.916 184.42 196.336 183.94ZM211.354 178.62V185.58C211.354 186.52 210.734 187.1 209.934 187.1C209.294 187.1 208.854 186.8 208.634 186.22C208.074 186.88 207.274 187.22 206.214 187.22C203.814 187.22 202.474 185.68 202.474 182.9V178.62C202.354 176.62 205.434 176.62 205.314 178.62V182.68C205.314 183.96 205.814 184.6 206.814 184.6C208.074 184.6 208.514 183.72 208.514 182.1V178.62C208.394 176.62 211.474 176.62 211.354 178.62ZM223.216 181.26C223.216 182.3 222.696 182.82 221.636 182.82H216.616C216.776 183.88 217.596 184.62 218.816 184.62C219.496 184.62 220.076 184.42 220.576 184.02C221.356 183.46 222.076 183.64 222.576 184.3C223.036 184.86 222.896 185.66 222.156 186.24C221.296 186.9 220.196 187.22 218.896 187.22C217.396 187.22 216.176 186.76 215.196 185.84C214.216 184.9 213.736 183.68 213.736 182.16C213.736 180.66 214.176 179.42 215.076 178.44C215.976 177.46 217.136 176.96 218.556 176.96C219.536 176.96 220.396 177.2 221.136 177.66C222.636 178.6 223.216 179.92 223.216 181.26ZM218.616 179.46C217.596 179.46 216.936 180.06 216.756 180.92H220.276C220.216 180.1 219.556 179.46 218.616 179.46ZM234.07 174.42V185.58C234.19 187.58 231.11 187.58 231.23 185.58V174.42C231.11 172.42 234.19 172.42 234.07 174.42ZM237.911 185.76C236.931 184.78 236.431 183.56 236.431 182.1C236.431 180.64 236.931 179.42 237.911 178.44C238.911 177.46 240.151 176.96 241.611 176.96C243.071 176.96 244.311 177.46 245.291 178.44C246.291 179.42 246.791 180.64 246.791 182.1C246.791 183.56 246.291 184.78 245.311 185.76C244.331 186.74 243.091 187.22 241.611 187.22C240.131 187.22 238.891 186.74 237.911 185.76ZM239.971 180.32C239.551 180.78 239.331 181.38 239.331 182.1C239.331 182.82 239.551 183.42 239.971 183.88C240.391 184.34 240.951 184.58 241.611 184.58C242.271 184.58 242.831 184.34 243.251 183.88C243.671 183.42 243.891 182.82 243.891 182.1C243.891 181.38 243.671 180.78 243.251 180.32C242.831 179.86 242.271 179.62 241.611 179.62C240.951 179.62 240.391 179.86 239.971 180.32ZM249.399 186.14C248.739 185.56 248.659 184.8 249.159 184.24C249.699 183.64 250.319 183.62 251.039 184.2C251.579 184.62 252.299 184.84 253.179 184.84C253.799 184.84 254.279 184.62 254.279 184.24C254.279 183.92 254.059 183.76 253.399 183.58L252.299 183.26C250.119 182.64 249.099 181.64 249.099 180.06C249.099 179.12 249.459 178.38 250.199 177.82C250.939 177.24 251.839 176.96 252.899 176.96C254.039 176.96 254.999 177.2 255.799 177.7C256.519 178.18 256.699 178.9 256.319 179.52C255.899 180.16 255.219 180.34 254.439 179.88C253.919 179.54 253.359 179.38 252.779 179.38C252.219 179.38 251.859 179.6 251.859 179.92C251.859 180.22 252.079 180.34 252.559 180.48L253.819 180.82C255.819 181.38 257.039 182.24 257.039 184.06C257.039 185.92 255.439 187.22 252.939 187.22C251.439 187.22 250.259 186.86 249.399 186.14ZM264.901 185.58V178.62C264.901 177.68 265.521 177.1 266.321 177.1C266.981 177.1 267.421 177.4 267.641 177.98C268.221 177.3 269.001 176.96 270.021 176.96C272.441 176.96 274.001 178.56 274.001 181.3V185.58C274.001 186.52 273.401 187.1 272.581 187.1C271.761 187.1 271.161 186.52 271.161 185.58V181.52C271.161 180.4 270.641 179.6 269.541 179.6C268.341 179.6 267.741 180.44 267.741 182.1V185.58C267.861 187.58 264.781 187.58 264.901 185.58ZM276.793 174.42C276.793 173.48 277.533 172.76 278.433 172.76C279.373 172.76 280.093 173.48 280.093 174.42C280.093 175.32 279.333 176.06 278.433 176.06C277.533 176.06 276.793 175.32 276.793 174.42ZM279.853 185.58C279.853 186.52 279.253 187.1 278.433 187.1C277.613 187.1 277.013 186.52 277.013 185.58V178.62C277.013 177.68 277.613 177.1 278.433 177.1C279.253 177.1 279.853 177.68 279.853 178.62V185.58ZM282.89 178.62C282.89 177.68 283.51 177.1 284.31 177.1C284.97 177.1 285.41 177.4 285.63 177.98C286.21 177.3 286.99 176.96 288.01 176.96C290.43 176.96 291.99 178.56 291.99 181.3V185.58C291.99 186.52 291.39 187.1 290.57 187.1C289.75 187.1 289.15 186.52 289.15 185.58V181.52C289.15 180.4 288.63 179.6 287.53 179.6C286.33 179.6 285.73 180.44 285.73 182.1V185.58C285.85 187.58 282.77 187.58 282.89 185.58V178.62ZM286.85 173.12L287.67 173.38C287.93 173.46 288.13 173.5 288.27 173.5C288.47 173.5 288.63 173.4 288.77 173.22C288.95 172.98 289.23 172.86 289.59 172.86C290.23 172.86 290.53 173.26 290.53 173.88C290.53 174.68 289.75 175.48 288.69 175.48C288.59 175.48 288.31 175.42 287.83 175.32L287.01 175.06C286.75 174.98 286.55 174.94 286.41 174.94C286.21 174.94 286.05 175.04 285.91 175.22C285.73 175.46 285.45 175.58 285.09 175.58C284.45 175.58 284.15 175.18 284.15 174.56C284.15 173.76 284.93 172.96 285.99 172.96C286.09 172.96 286.37 173.02 286.85 173.12ZM295.607 185.76C294.627 184.78 294.127 183.56 294.127 182.1C294.127 180.64 294.627 179.42 295.607 178.44C296.607 177.46 297.847 176.96 299.307 176.96C300.767 176.96 302.007 177.46 302.987 178.44C303.987 179.42 304.487 180.64 304.487 182.1C304.487 183.56 303.987 184.78 303.007 185.76C302.027 186.74 300.787 187.22 299.307 187.22C297.827 187.22 296.587 186.74 295.607 185.76ZM297.667 180.32C297.247 180.78 297.027 181.38 297.027 182.1C297.027 182.82 297.247 183.42 297.667 183.88C298.087 184.34 298.647 184.58 299.307 184.58C299.967 184.58 300.527 184.34 300.947 183.88C301.367 183.42 301.587 182.82 301.587 182.1C301.587 181.38 301.367 180.78 300.947 180.32C300.527 179.86 299.967 179.62 299.307 179.62C298.647 179.62 298.087 179.86 297.667 180.32ZM307.095 186.14C306.435 185.56 306.355 184.8 306.855 184.24C307.395 183.64 308.015 183.62 308.735 184.2C309.275 184.62 309.995 184.84 310.875 184.84C311.495 184.84 311.975 184.62 311.975 184.24C311.975 183.92 311.755 183.76 311.095 183.58L309.995 183.26C307.815 182.64 306.795 181.64 306.795 180.06C306.795 179.12 307.155 178.38 307.895 177.82C308.635 177.24 309.535 176.96 310.595 176.96C311.735 176.96 312.695 177.2 313.495 177.7C314.215 178.18 314.395 178.9 314.015 179.52C313.595 180.16 312.915 180.34 312.135 179.88C311.615 179.54 311.055 179.38 310.475 179.38C309.915 179.38 309.555 179.6 309.555 179.92C309.555 180.22 309.775 180.34 310.255 180.48L311.515 180.82C313.515 181.38 314.735 182.24 314.735 184.06C314.735 185.92 313.135 187.22 310.635 187.22C309.135 187.22 307.955 186.86 307.095 186.14ZM319.959 186.44L318.619 189.3C318.319 189.94 317.739 190.2 317.119 190.04C316.399 189.82 315.979 189.16 316.279 188.38L317.359 185.44C317.679 184.56 318.399 184.2 319.219 184.46C319.999 184.7 320.339 185.58 319.959 186.44ZM105.37 208.58V201.62C105.37 200.68 105.99 200.1 106.79 200.1C107.45 200.1 107.89 200.4 108.11 200.98C108.69 200.3 109.47 199.96 110.49 199.96C112.91 199.96 114.47 201.56 114.47 204.3V208.58C114.47 209.52 113.87 210.1 113.05 210.1C112.23 210.1 111.63 209.52 111.63 208.58V204.52C111.63 203.4 111.11 202.6 110.01 202.6C108.81 202.6 108.21 203.44 108.21 205.1V208.58C108.33 210.58 105.25 210.58 105.37 208.58ZM117.262 197.42C117.262 196.48 118.002 195.76 118.902 195.76C119.842 195.76 120.562 196.48 120.562 197.42C120.562 198.32 119.802 199.06 118.902 199.06C118.002 199.06 117.262 198.32 117.262 197.42ZM120.322 208.58C120.322 209.52 119.722 210.1 118.902 210.1C118.082 210.1 117.482 209.52 117.482 208.58V201.62C117.482 200.68 118.082 200.1 118.902 200.1C119.722 200.1 120.322 200.68 120.322 201.62V208.58ZM123.358 201.62C123.358 200.68 123.978 200.1 124.778 200.1C125.438 200.1 125.878 200.4 126.098 200.98C126.678 200.3 127.458 199.96 128.478 199.96C130.898 199.96 132.458 201.56 132.458 204.3V208.58C132.458 209.52 131.858 210.1 131.038 210.1C130.218 210.1 129.618 209.52 129.618 208.58V204.52C129.618 203.4 129.098 202.6 127.998 202.6C126.798 202.6 126.198 203.44 126.198 205.1V208.58C126.318 210.58 123.238 210.58 123.358 208.58V201.62ZM127.318 196.12L128.138 196.38C128.398 196.46 128.598 196.5 128.738 196.5C128.938 196.5 129.098 196.4 129.238 196.22C129.418 195.98 129.698 195.86 130.058 195.86C130.698 195.86 130.998 196.26 130.998 196.88C130.998 197.68 130.218 198.48 129.158 198.48C129.058 198.48 128.778 198.42 128.298 198.32L127.478 198.06C127.218 197.98 127.018 197.94 126.878 197.94C126.678 197.94 126.518 198.04 126.378 198.22C126.198 198.46 125.918 198.58 125.558 198.58C124.918 198.58 124.618 198.18 124.618 197.56C124.618 196.76 125.398 195.96 126.458 195.96C126.558 195.96 126.838 196.02 127.318 196.12ZM135.655 200.98C136.515 200.3 137.655 199.96 139.035 199.96C140.255 199.96 141.255 200.32 142.035 201.02C142.815 201.72 143.195 202.66 143.195 203.88V208.58C143.195 209.52 142.575 210.1 141.775 210.1C141.115 210.1 140.675 209.8 140.455 209.2C139.775 209.88 138.935 210.22 137.955 210.22C136.975 210.22 136.195 209.94 135.575 209.38C134.955 208.8 134.655 208.08 134.655 207.2C134.655 206.18 135.015 205.42 135.755 204.9C136.495 204.38 137.435 204.1 138.535 204.06L140.335 203.98C140.335 202.98 139.835 202.48 138.835 202.48C138.235 202.48 137.695 202.64 137.195 202.98C136.455 203.48 135.735 203.42 135.315 202.86C134.855 202.32 134.995 201.52 135.655 200.98ZM137.515 207.04C137.515 207.52 137.935 207.82 138.655 207.82C139.235 207.82 139.795 207.62 140.335 207.22V206.06L139.075 206.16C138.035 206.22 137.515 206.5 137.515 207.04ZM146.235 209.14C145.575 208.56 145.495 207.8 145.995 207.24C146.535 206.64 147.155 206.62 147.875 207.2C148.415 207.62 149.135 207.84 150.015 207.84C150.635 207.84 151.115 207.62 151.115 207.24C151.115 206.92 150.895 206.76 150.235 206.58L149.135 206.26C146.955 205.64 145.935 204.64 145.935 203.06C145.935 202.12 146.295 201.38 147.035 200.82C147.775 200.24 148.675 199.96 149.735 199.96C150.875 199.96 151.835 200.2 152.635 200.7C153.355 201.18 153.535 201.9 153.155 202.52C152.735 203.16 152.055 203.34 151.275 202.88C150.755 202.54 150.195 202.38 149.615 202.38C149.055 202.38 148.695 202.6 148.695 202.92C148.695 203.22 148.915 203.34 149.395 203.48L150.655 203.82C152.655 204.38 153.875 205.24 153.875 207.06C153.875 208.92 152.275 210.22 149.775 210.22C148.275 210.22 147.095 209.86 146.235 209.14ZM163.777 212.04L164.657 210L161.637 202.12C161.317 201.24 161.737 200.4 162.537 200.16C163.277 199.94 163.997 200.3 164.317 201.2L166.197 206.26L168.097 201.2C168.417 200.3 169.137 199.94 169.877 200.16C170.677 200.42 171.137 201.16 170.797 202.02L166.477 212.86C166.097 213.8 165.517 214.14 164.697 213.9C163.877 213.64 163.397 212.9 163.777 212.04ZM179.151 200.98C180.011 200.3 181.151 199.96 182.531 199.96C183.751 199.96 184.751 200.32 185.531 201.02C186.311 201.72 186.691 202.66 186.691 203.88V208.58C186.691 209.52 186.071 210.1 185.271 210.1C184.611 210.1 184.171 209.8 183.951 209.2C183.271 209.88 182.431 210.22 181.451 210.22C180.471 210.22 179.691 209.94 179.071 209.38C178.451 208.8 178.151 208.08 178.151 207.2C178.151 206.18 178.511 205.42 179.251 204.9C179.991 204.38 180.931 204.1 182.031 204.06L183.831 203.98C183.831 202.98 183.331 202.48 182.331 202.48C181.731 202.48 181.191 202.64 180.691 202.98C179.951 203.48 179.231 203.42 178.811 202.86C178.351 202.32 178.491 201.52 179.151 200.98ZM181.011 207.04C181.011 207.52 181.431 207.82 182.151 207.82C182.731 207.82 183.291 207.62 183.831 207.22V206.06L182.571 206.16C181.531 206.22 181.011 206.5 181.011 207.04ZM199.171 197.42V208.58C199.171 209.52 198.551 210.1 197.751 210.1C197.071 210.1 196.631 209.8 196.431 209.18C195.931 209.8 194.871 210.22 193.811 210.22C192.431 210.22 191.251 209.76 190.311 208.82C189.371 207.88 188.911 206.64 188.911 205.1C188.911 203.58 189.371 202.34 190.311 201.4C191.251 200.44 192.431 199.96 193.811 199.96C194.831 199.96 195.671 200.24 196.331 200.82V197.42C196.211 195.42 199.291 195.42 199.171 197.42ZM195.711 206.94C196.151 206.46 196.371 205.84 196.371 205.1C196.371 204.36 196.151 203.74 195.711 203.26C195.291 202.78 194.751 202.54 194.091 202.54C193.431 202.54 192.891 202.78 192.451 203.26C192.031 203.74 191.811 204.36 191.811 205.1C191.811 205.84 192.031 206.46 192.451 206.94C192.891 207.42 193.431 207.66 194.091 207.66C194.751 207.66 195.291 207.42 195.711 206.94ZM203.009 208.76C202.029 207.78 201.529 206.56 201.529 205.1C201.529 203.64 202.029 202.42 203.009 201.44C204.009 200.46 205.249 199.96 206.709 199.96C208.169 199.96 209.409 200.46 210.389 201.44C211.389 202.42 211.889 203.64 211.889 205.1C211.889 206.56 211.389 207.78 210.409 208.76C209.429 209.74 208.189 210.22 206.709 210.22C205.229 210.22 203.989 209.74 203.009 208.76ZM205.069 203.32C204.649 203.78 204.429 204.38 204.429 205.1C204.429 205.82 204.649 206.42 205.069 206.88C205.489 207.34 206.049 207.58 206.709 207.58C207.369 207.58 207.929 207.34 208.349 206.88C208.769 206.42 208.989 205.82 208.989 205.1C208.989 204.38 208.769 203.78 208.349 203.32C207.929 202.86 207.369 202.62 206.709 202.62C206.049 202.62 205.489 202.86 205.069 203.32ZM217.097 197.42V208.58C217.217 210.58 214.137 210.58 214.257 208.58V197.42C214.137 195.42 217.217 195.42 217.097 197.42ZM228.939 204.26C228.939 205.3 228.419 205.82 227.359 205.82H222.339C222.499 206.88 223.319 207.62 224.539 207.62C225.219 207.62 225.799 207.42 226.299 207.02C227.079 206.46 227.799 206.64 228.299 207.3C228.759 207.86 228.619 208.66 227.879 209.24C227.019 209.9 225.919 210.22 224.619 210.22C223.119 210.22 221.899 209.76 220.919 208.84C219.939 207.9 219.459 206.68 219.459 205.16C219.459 203.66 219.899 202.42 220.799 201.44C221.699 200.46 222.859 199.96 224.279 199.96C225.259 199.96 226.119 200.2 226.859 200.66C228.359 201.6 228.939 202.92 228.939 204.26ZM224.339 202.46C223.319 202.46 222.659 203.06 222.479 203.92H225.999C225.939 203.1 225.279 202.46 224.339 202.46ZM231.606 209.14C230.946 208.56 230.866 207.8 231.366 207.24C231.906 206.64 232.526 206.62 233.246 207.2C233.786 207.62 234.506 207.84 235.386 207.84C236.006 207.84 236.486 207.62 236.486 207.24C236.486 206.92 236.266 206.76 235.606 206.58L234.506 206.26C232.326 205.64 231.306 204.64 231.306 203.06C231.306 202.12 231.666 201.38 232.406 200.82C233.146 200.24 234.046 199.96 235.106 199.96C236.246 199.96 237.206 200.2 238.006 200.7C238.726 201.18 238.906 201.9 238.526 202.52C238.106 203.16 237.426 203.34 236.646 202.88C236.126 202.54 235.566 202.38 234.986 202.38C234.426 202.38 234.066 202.6 234.066 202.92C234.066 203.22 234.286 203.34 234.766 203.48L236.026 203.82C238.026 204.38 239.246 205.24 239.246 207.06C239.246 208.92 237.646 210.22 235.146 210.22C233.646 210.22 232.466 209.86 231.606 209.14ZM247.545 203.12C247.085 202.78 246.605 202.6 246.105 202.6C244.685 202.6 243.725 203.64 243.725 205.1C243.725 206.56 244.685 207.6 246.105 207.6C246.645 207.6 247.185 207.38 247.725 206.96C248.505 206.4 249.225 206.58 249.725 207.24C250.185 207.8 250.045 208.6 249.305 209.18C248.385 209.88 247.285 210.22 246.005 210.22C244.525 210.22 243.285 209.74 242.305 208.76C241.325 207.78 240.825 206.56 240.825 205.1C240.825 203.64 241.325 202.42 242.305 201.44C243.305 200.46 244.545 199.96 246.005 199.96C247.145 199.96 248.145 200.26 248.985 200.88C249.725 201.46 249.925 202.3 249.505 202.86C249.045 203.5 248.325 203.66 247.545 203.12ZM261.126 204.26C261.126 205.3 260.606 205.82 259.546 205.82H254.526C254.686 206.88 255.506 207.62 256.726 207.62C257.406 207.62 257.986 207.42 258.486 207.02C259.266 206.46 259.986 206.64 260.486 207.3C260.946 207.86 260.806 208.66 260.066 209.24C259.206 209.9 258.106 210.22 256.806 210.22C255.306 210.22 254.086 209.76 253.106 208.84C252.126 207.9 251.646 206.68 251.646 205.16C251.646 203.66 252.086 202.42 252.986 201.44C253.886 200.46 255.046 199.96 256.466 199.96C257.446 199.96 258.306 200.2 259.046 200.66C260.546 201.6 261.126 202.92 261.126 204.26ZM256.526 202.46C255.506 202.46 254.846 203.06 254.666 203.92H258.186C258.126 203.1 257.466 202.46 256.526 202.46ZM263.554 208.58V201.62C263.554 200.68 264.174 200.1 264.974 200.1C265.634 200.1 266.074 200.4 266.294 200.98C266.874 200.3 267.654 199.96 268.674 199.96C271.094 199.96 272.654 201.56 272.654 204.3V208.58C272.654 209.52 272.054 210.1 271.234 210.1C270.414 210.1 269.814 209.52 269.814 208.58V204.52C269.814 203.4 269.294 202.6 268.194 202.6C266.994 202.6 266.394 203.44 266.394 205.1V208.58C266.514 210.58 263.434 210.58 263.554 208.58ZM279.413 207.4C280.313 207.5 280.793 208 280.793 208.74C280.793 209.48 280.253 210.04 279.273 210.04H279.013C276.733 210.04 275.593 208.88 275.593 206.54V202.82H275.233C274.353 202.82 273.813 202.26 273.813 201.52C273.813 200.78 274.353 200.2 275.233 200.2H275.593V198.88C275.473 196.88 278.553 196.88 278.413 198.88V200.2H279.373C280.253 200.2 280.793 200.78 280.793 201.52C280.793 202.26 280.253 202.82 279.373 202.82H278.413V206.2C278.413 207.02 278.753 207.34 279.413 207.4ZM291.966 204.26C291.966 205.3 291.446 205.82 290.386 205.82H285.366C285.526 206.88 286.346 207.62 287.566 207.62C288.246 207.62 288.826 207.42 289.326 207.02C290.106 206.46 290.826 206.64 291.326 207.3C291.786 207.86 291.646 208.66 290.906 209.24C290.046 209.9 288.946 210.22 287.646 210.22C286.146 210.22 284.926 209.76 283.946 208.84C282.966 207.9 282.486 206.68 282.486 205.16C282.486 203.66 282.926 202.42 283.826 201.44C284.726 200.46 285.886 199.96 287.306 199.96C288.286 199.96 289.146 200.2 289.886 200.66C291.386 201.6 291.966 202.92 291.966 204.26ZM287.366 202.46C286.346 202.46 285.686 203.06 285.506 203.92H289.026C288.966 203.1 288.306 202.46 287.366 202.46ZM294.634 209.14C293.974 208.56 293.894 207.8 294.394 207.24C294.934 206.64 295.554 206.62 296.274 207.2C296.814 207.62 297.534 207.84 298.414 207.84C299.034 207.84 299.514 207.62 299.514 207.24C299.514 206.92 299.294 206.76 298.634 206.58L297.534 206.26C295.354 205.64 294.334 204.64 294.334 203.06C294.334 202.12 294.694 201.38 295.434 200.82C296.174 200.24 297.074 199.96 298.134 199.96C299.274 199.96 300.234 200.2 301.034 200.7C301.754 201.18 301.934 201.9 301.554 202.52C301.134 203.16 300.454 203.34 299.674 202.88C299.154 202.54 298.594 202.38 298.014 202.38C297.454 202.38 297.094 202.6 297.094 202.92C297.094 203.22 297.314 203.34 297.794 203.48L299.054 203.82C301.054 204.38 302.274 205.24 302.274 207.06C302.274 208.92 300.674 210.22 298.174 210.22C296.674 210.22 295.494 209.86 294.634 209.14ZM101.583 220.42V231.58C101.583 232.52 100.963 233.1 100.163 233.1C99.4834 233.1 99.0434 232.8 98.8434 232.18C98.3434 232.8 97.2834 233.22 96.2234 233.22C94.8434 233.22 93.6634 232.76 92.7234 231.82C91.7834 230.88 91.3234 229.64 91.3234 228.1C91.3234 226.58 91.7834 225.34 92.7234 224.4C93.6634 223.44 94.8434 222.96 96.2234 222.96C97.2434 222.96 98.0834 223.24 98.7434 223.82V220.42C98.6234 218.42 101.703 218.42 101.583 220.42ZM98.1234 229.94C98.5634 229.46 98.7834 228.84 98.7834 228.1C98.7834 227.36 98.5634 226.74 98.1234 226.26C97.7034 225.78 97.1634 225.54 96.5034 225.54C95.8434 225.54 95.3034 225.78 94.8634 226.26C94.4434 226.74 94.2234 227.36 94.2234 228.1C94.2234 228.84 94.4434 229.46 94.8634 229.94C95.3034 230.42 95.8434 230.66 96.5034 230.66C97.1634 230.66 97.7034 230.42 98.1234 229.94ZM113.421 227.26C113.421 228.3 112.901 228.82 111.841 228.82H106.821C106.981 229.88 107.801 230.62 109.021 230.62C109.701 230.62 110.281 230.42 110.781 230.02C111.561 229.46 112.281 229.64 112.781 230.3C113.241 230.86 113.101 231.66 112.361 232.24C111.501 232.9 110.401 233.22 109.101 233.22C107.601 233.22 106.381 232.76 105.401 231.84C104.421 230.9 103.941 229.68 103.941 228.16C103.941 226.66 104.381 225.42 105.281 224.44C106.181 223.46 107.341 222.96 108.761 222.96C109.741 222.96 110.601 223.2 111.341 223.66C112.841 224.6 113.421 225.92 113.421 227.26ZM108.821 225.46C107.801 225.46 107.141 226.06 106.961 226.92H110.481C110.421 226.1 109.761 225.46 108.821 225.46ZM116.089 232.14C115.429 231.56 115.349 230.8 115.849 230.24C116.389 229.64 117.009 229.62 117.729 230.2C118.269 230.62 118.989 230.84 119.869 230.84C120.489 230.84 120.969 230.62 120.969 230.24C120.969 229.92 120.749 229.76 120.089 229.58L118.989 229.26C116.809 228.64 115.789 227.64 115.789 226.06C115.789 225.12 116.149 224.38 116.889 223.82C117.629 223.24 118.529 222.96 119.589 222.96C120.729 222.96 121.689 223.2 122.489 223.7C123.209 224.18 123.389 224.9 123.009 225.52C122.589 226.16 121.909 226.34 121.129 225.88C120.609 225.54 120.049 225.38 119.469 225.38C118.909 225.38 118.549 225.6 118.549 225.92C118.549 226.22 118.769 226.34 119.249 226.48L120.509 226.82C122.509 227.38 123.729 228.24 123.729 230.06C123.729 231.92 122.129 233.22 119.629 233.22C118.129 233.22 116.949 232.86 116.089 232.14ZM126.505 223.98C127.365 223.3 128.505 222.96 129.885 222.96C131.105 222.96 132.105 223.32 132.885 224.02C133.665 224.72 134.045 225.66 134.045 226.88V231.58C134.045 232.52 133.425 233.1 132.625 233.1C131.965 233.1 131.525 232.8 131.305 232.2C130.625 232.88 129.785 233.22 128.805 233.22C127.825 233.22 127.045 232.94 126.425 232.38C125.805 231.8 125.505 231.08 125.505 230.2C125.505 229.18 125.865 228.42 126.605 227.9C127.345 227.38 128.285 227.1 129.385 227.06L131.185 226.98C131.185 225.98 130.685 225.48 129.685 225.48C129.085 225.48 128.545 225.64 128.045 225.98C127.305 226.48 126.585 226.42 126.165 225.86C125.705 225.32 125.845 224.52 126.505 223.98ZM128.365 230.04C128.365 230.52 128.785 230.82 129.505 230.82C130.085 230.82 130.645 230.62 131.185 230.22V229.06L129.925 229.16C128.885 229.22 128.365 229.5 128.365 230.04ZM143.04 223.14C143.68 223.3 144.16 223.8 144.16 224.54C144.16 225.32 143.62 225.86 142.92 225.86C142.78 225.86 142.48 225.82 142.3 225.82C140.94 225.82 139.9 226.92 139.9 228.9V231.58C140.02 233.58 136.94 233.58 137.06 231.58V224.62C137.06 223.68 137.68 223.1 138.48 223.1C139.22 223.1 139.76 223.58 139.86 224.28C140.42 223.5 141.38 223.06 142.24 223.06C142.58 223.06 142.84 223.08 143.04 223.14ZM151.731 223.14C152.371 223.3 152.851 223.8 152.851 224.54C152.851 225.32 152.311 225.86 151.611 225.86C151.471 225.86 151.171 225.82 150.991 225.82C149.631 225.82 148.591 226.92 148.591 228.9V231.58C148.711 233.58 145.631 233.58 145.751 231.58V224.62C145.751 223.68 146.371 223.1 147.171 223.1C147.911 223.1 148.451 223.58 148.551 224.28C149.111 223.5 150.071 223.06 150.931 223.06C151.271 223.06 151.531 223.08 151.731 223.14ZM155.148 231.76C154.168 230.78 153.668 229.56 153.668 228.1C153.668 226.64 154.168 225.42 155.148 224.44C156.148 223.46 157.388 222.96 158.848 222.96C160.308 222.96 161.548 223.46 162.528 224.44C163.528 225.42 164.028 226.64 164.028 228.1C164.028 229.56 163.528 230.78 162.548 231.76C161.568 232.74 160.328 233.22 158.848 233.22C157.368 233.22 156.128 232.74 155.148 231.76ZM157.208 226.32C156.788 226.78 156.568 227.38 156.568 228.1C156.568 228.82 156.788 229.42 157.208 229.88C157.628 230.34 158.188 230.58 158.848 230.58C159.508 230.58 160.068 230.34 160.488 229.88C160.908 229.42 161.128 228.82 161.128 228.1C161.128 227.38 160.908 226.78 160.488 226.32C160.068 225.86 159.508 225.62 158.848 225.62C158.188 225.62 157.628 225.86 157.208 226.32ZM169.236 220.42V231.58C169.356 233.58 166.276 233.58 166.396 231.58V220.42C166.276 218.42 169.356 218.42 169.236 220.42ZM175.212 220.42V231.58C175.332 233.58 172.252 233.58 172.372 231.58V220.42C172.252 218.42 175.332 218.42 175.212 220.42ZM187.054 227.26C187.054 228.3 186.534 228.82 185.474 228.82H180.454C180.614 229.88 181.434 230.62 182.654 230.62C183.334 230.62 183.914 230.42 184.414 230.02C185.194 229.46 185.914 229.64 186.414 230.3C186.874 230.86 186.734 231.66 185.994 232.24C185.134 232.9 184.034 233.22 182.734 233.22C181.234 233.22 180.014 232.76 179.034 231.84C178.054 230.9 177.574 229.68 177.574 228.16C177.574 226.66 178.014 225.42 178.914 224.44C179.814 223.46 180.974 222.96 182.394 222.96C183.374 222.96 184.234 223.2 184.974 223.66C186.474 224.6 187.054 225.92 187.054 227.26ZM182.454 225.46C181.434 225.46 180.774 226.06 180.594 226.92H184.114C184.054 226.1 183.394 225.46 182.454 225.46ZM189.481 231.58V224.62C189.481 223.68 190.101 223.1 190.901 223.1C191.561 223.1 192.001 223.4 192.221 223.98C192.801 223.3 193.581 222.96 194.601 222.96C197.021 222.96 198.581 224.56 198.581 227.3V231.58C198.581 232.52 197.981 233.1 197.161 233.1C196.341 233.1 195.741 232.52 195.741 231.58V227.52C195.741 226.4 195.221 225.6 194.121 225.6C192.921 225.6 192.321 226.44 192.321 228.1V231.58C192.441 233.58 189.361 233.58 189.481 231.58ZM206.864 231.58V220.42C206.744 218.42 209.824 218.42 209.704 220.42V223.8C210.244 223.24 211.004 222.96 211.984 222.96C214.404 222.96 215.964 224.56 215.964 227.3V231.58C215.964 232.52 215.364 233.1 214.544 233.1C213.724 233.1 213.124 232.52 213.124 231.58V227.52C213.124 226.4 212.604 225.6 211.504 225.6C210.304 225.6 209.704 226.36 209.704 227.88V231.58C209.824 233.58 206.744 233.58 206.864 231.58ZM219.161 223.98C220.021 223.3 221.161 222.96 222.541 222.96C223.761 222.96 224.761 223.32 225.541 224.02C226.321 224.72 226.701 225.66 226.701 226.88V231.58C226.701 232.52 226.081 233.1 225.281 233.1C224.621 233.1 224.181 232.8 223.961 232.2C223.281 232.88 222.441 233.22 221.461 233.22C220.481 233.22 219.701 232.94 219.081 232.38C218.461 231.8 218.161 231.08 218.161 230.2C218.161 229.18 218.521 228.42 219.261 227.9C220.001 227.38 220.941 227.1 222.041 227.06L223.841 226.98C223.841 225.98 223.341 225.48 222.341 225.48C221.741 225.48 221.201 225.64 220.701 225.98C219.961 226.48 219.241 226.42 218.821 225.86C218.361 225.32 218.501 224.52 219.161 223.98ZM221.021 230.04C221.021 230.52 221.441 230.82 222.161 230.82C222.741 230.82 223.301 230.62 223.841 230.22V229.06L222.581 229.16C221.541 229.22 221.021 229.5 221.021 230.04ZM229.716 231.58V220.42C229.596 218.42 232.676 218.42 232.556 220.42V223.82C233.216 223.24 234.056 222.96 235.076 222.96C236.456 222.96 237.616 223.44 238.556 224.4C239.496 225.34 239.976 226.58 239.976 228.1C239.976 229.64 239.496 230.88 238.556 231.82C237.616 232.76 236.456 233.22 235.076 233.22C234.016 233.22 232.956 232.8 232.456 232.18C232.256 232.8 231.816 233.1 231.136 233.1C230.336 233.1 229.716 232.52 229.716 231.58ZM233.156 226.26C232.736 226.74 232.516 227.36 232.516 228.1C232.516 228.84 232.736 229.46 233.156 229.94C233.596 230.42 234.136 230.66 234.796 230.66C235.456 230.66 235.996 230.42 236.416 229.94C236.856 229.46 237.076 228.84 237.076 228.1C237.076 227.36 236.856 226.74 236.416 226.26C235.996 225.78 235.456 225.54 234.796 225.54C234.136 225.54 233.596 225.78 233.156 226.26ZM242.213 220.42C242.213 219.48 242.953 218.76 243.853 218.76C244.793 218.76 245.513 219.48 245.513 220.42C245.513 221.32 244.753 222.06 243.853 222.06C242.953 222.06 242.213 221.32 242.213 220.42ZM245.273 231.58C245.273 232.52 244.673 233.1 243.853 233.1C243.033 233.1 242.433 232.52 242.433 231.58V224.62C242.433 223.68 243.033 223.1 243.853 223.1C244.673 223.1 245.273 223.68 245.273 224.62V231.58ZM251.364 220.42V231.58C251.484 233.58 248.404 233.58 248.524 231.58V220.42C248.404 218.42 251.484 218.42 251.364 220.42ZM254.381 220.42C254.381 219.48 255.121 218.76 256.021 218.76C256.961 218.76 257.681 219.48 257.681 220.42C257.681 221.32 256.921 222.06 256.021 222.06C255.121 222.06 254.381 221.32 254.381 220.42ZM257.441 231.58C257.441 232.52 256.841 233.1 256.021 233.1C255.201 233.1 254.601 232.52 254.601 231.58V224.62C254.601 223.68 255.201 223.1 256.021 223.1C256.841 223.1 257.441 223.68 257.441 224.62V231.58ZM270.158 220.42V231.58C270.158 232.52 269.538 233.1 268.738 233.1C268.058 233.1 267.618 232.8 267.418 232.18C266.918 232.8 265.858 233.22 264.798 233.22C263.418 233.22 262.238 232.76 261.298 231.82C260.358 230.88 259.898 229.64 259.898 228.1C259.898 226.58 260.358 225.34 261.298 224.4C262.238 223.44 263.418 222.96 264.798 222.96C265.818 222.96 266.658 223.24 267.318 223.82V220.42C267.198 218.42 270.278 218.42 270.158 220.42ZM266.698 229.94C267.138 229.46 267.358 228.84 267.358 228.1C267.358 227.36 267.138 226.74 266.698 226.26C266.278 225.78 265.738 225.54 265.078 225.54C264.418 225.54 263.878 225.78 263.438 226.26C263.018 226.74 262.798 227.36 262.798 228.1C262.798 228.84 263.018 229.46 263.438 229.94C263.878 230.42 264.418 230.66 265.078 230.66C265.738 230.66 266.278 230.42 266.698 229.94ZM273.575 223.98C274.435 223.3 275.575 222.96 276.955 222.96C278.175 222.96 279.175 223.32 279.955 224.02C280.735 224.72 281.115 225.66 281.115 226.88V231.58C281.115 232.52 280.495 233.1 279.695 233.1C279.035 233.1 278.595 232.8 278.375 232.2C277.695 232.88 276.855 233.22 275.875 233.22C274.895 233.22 274.115 232.94 273.495 232.38C272.875 231.8 272.575 231.08 272.575 230.2C272.575 229.18 272.935 228.42 273.675 227.9C274.415 227.38 275.355 227.1 276.455 227.06L278.255 226.98C278.255 225.98 277.755 225.48 276.755 225.48C276.155 225.48 275.615 225.64 275.115 225.98C274.375 226.48 273.655 226.42 273.235 225.86C272.775 225.32 272.915 224.52 273.575 223.98ZM275.435 230.04C275.435 230.52 275.855 230.82 276.575 230.82C277.155 230.82 277.715 230.62 278.255 230.22V229.06L276.995 229.16C275.955 229.22 275.435 229.5 275.435 230.04ZM293.595 220.42V231.58C293.595 232.52 292.975 233.1 292.175 233.1C291.495 233.1 291.055 232.8 290.855 232.18C290.355 232.8 289.295 233.22 288.235 233.22C286.855 233.22 285.675 232.76 284.735 231.82C283.795 230.88 283.335 229.64 283.335 228.1C283.335 226.58 283.795 225.34 284.735 224.4C285.675 223.44 286.855 222.96 288.235 222.96C289.255 222.96 290.095 223.24 290.755 223.82V220.42C290.635 218.42 293.715 218.42 293.595 220.42ZM290.135 229.94C290.575 229.46 290.795 228.84 290.795 228.1C290.795 227.36 290.575 226.74 290.135 226.26C289.715 225.78 289.175 225.54 288.515 225.54C287.855 225.54 287.315 225.78 286.875 226.26C286.455 226.74 286.235 227.36 286.235 228.1C286.235 228.84 286.455 229.46 286.875 229.94C287.315 230.42 287.855 230.66 288.515 230.66C289.175 230.66 289.715 230.42 290.135 229.94ZM305.433 227.26C305.433 228.3 304.913 228.82 303.853 228.82H298.833C298.993 229.88 299.813 230.62 301.033 230.62C301.713 230.62 302.293 230.42 302.793 230.02C303.573 229.46 304.293 229.64 304.793 230.3C305.253 230.86 305.113 231.66 304.373 232.24C303.513 232.9 302.413 233.22 301.113 233.22C299.613 233.22 298.393 232.76 297.413 231.84C296.433 230.9 295.953 229.68 295.953 228.16C295.953 226.66 296.393 225.42 297.293 224.44C298.193 223.46 299.353 222.96 300.773 222.96C301.753 222.96 302.613 223.2 303.353 223.66C304.853 224.6 305.433 225.92 305.433 227.26ZM300.833 225.46C299.813 225.46 299.153 226.06 298.973 226.92H302.493C302.433 226.1 301.773 225.46 300.833 225.46ZM308.1 232.14C307.44 231.56 307.36 230.8 307.86 230.24C308.4 229.64 309.02 229.62 309.74 230.2C310.28 230.62 311 230.84 311.88 230.84C312.5 230.84 312.98 230.62 312.98 230.24C312.98 229.92 312.76 229.76 312.1 229.58L311 229.26C308.82 228.64 307.8 227.64 307.8 226.06C307.8 225.12 308.16 224.38 308.9 223.82C309.64 223.24 310.54 222.96 311.6 222.96C312.74 222.96 313.7 223.2 314.5 223.7C315.22 224.18 315.4 224.9 315.02 225.52C314.6 226.16 313.92 226.34 313.14 225.88C312.62 225.54 312.06 225.38 311.48 225.38C310.92 225.38 310.56 225.6 310.56 225.92C310.56 226.22 310.78 226.34 311.26 226.48L312.52 226.82C314.52 227.38 315.74 228.24 315.74 230.06C315.74 231.92 314.14 233.22 311.64 233.22C310.14 233.22 308.96 232.86 308.1 232.14ZM84.3252 254.58V243.42C84.2052 241.42 87.2852 241.42 87.1652 243.42V246.82C87.8252 246.24 88.6652 245.96 89.6852 245.96C91.0652 245.96 92.2252 246.44 93.1652 247.4C94.1052 248.34 94.5852 249.58 94.5852 251.1C94.5852 252.64 94.1052 253.88 93.1652 254.82C92.2252 255.76 91.0652 256.22 89.6852 256.22C88.6252 256.22 87.5652 255.8 87.0652 255.18C86.8652 255.8 86.4252 256.1 85.7452 256.1C84.9452 256.1 84.3252 255.52 84.3252 254.58ZM87.7652 249.26C87.3452 249.74 87.1252 250.36 87.1252 251.1C87.1252 251.84 87.3452 252.46 87.7652 252.94C88.2052 253.42 88.7452 253.66 89.4052 253.66C90.0652 253.66 90.6052 253.42 91.0252 252.94C91.4652 252.46 91.6852 251.84 91.6852 251.1C91.6852 250.36 91.4652 249.74 91.0252 249.26C90.6052 248.78 90.0652 248.54 89.4052 248.54C88.7452 248.54 88.2052 248.78 87.7652 249.26ZM99.7824 243.42V254.58C99.9024 256.58 96.8224 256.58 96.9424 254.58V243.42C96.8224 241.42 99.9024 241.42 99.7824 243.42ZM103.204 246.98C104.064 246.3 105.204 245.96 106.584 245.96C107.804 245.96 108.804 246.32 109.584 247.02C110.364 247.72 110.744 248.66 110.744 249.88V254.58C110.744 255.52 110.124 256.1 109.324 256.1C108.664 256.1 108.224 255.8 108.004 255.2C107.324 255.88 106.484 256.22 105.504 256.22C104.524 256.22 103.744 255.94 103.124 255.38C102.504 254.8 102.204 254.08 102.204 253.2C102.204 252.18 102.564 251.42 103.304 250.9C104.044 250.38 104.984 250.1 106.084 250.06L107.884 249.98C107.884 248.98 107.384 248.48 106.384 248.48C105.784 248.48 105.244 248.64 104.744 248.98C104.004 249.48 103.284 249.42 102.864 248.86C102.404 248.32 102.544 247.52 103.204 246.98ZM105.064 253.04C105.064 253.52 105.484 253.82 106.204 253.82C106.784 253.82 107.344 253.62 107.884 253.22V252.06L106.624 252.16C105.584 252.22 105.064 252.5 105.064 253.04ZM113.759 254.58V247.62C113.759 246.68 114.379 246.1 115.179 246.1C115.839 246.1 116.279 246.4 116.499 246.98C117.079 246.3 117.859 245.96 118.879 245.96C121.299 245.96 122.859 247.56 122.859 250.3V254.58C122.859 255.52 122.259 256.1 121.439 256.1C120.619 256.1 120.019 255.52 120.019 254.58V250.52C120.019 249.4 119.499 248.6 118.399 248.6C117.199 248.6 116.599 249.44 116.599 251.1V254.58C116.719 256.58 113.639 256.58 113.759 254.58ZM135.236 243.42V254.58C135.236 255.52 134.616 256.1 133.816 256.1C133.136 256.1 132.696 255.8 132.496 255.18C131.996 255.8 130.936 256.22 129.876 256.22C128.496 256.22 127.316 255.76 126.376 254.82C125.436 253.88 124.976 252.64 124.976 251.1C124.976 249.58 125.436 248.34 126.376 247.4C127.316 246.44 128.496 245.96 129.876 245.96C130.896 245.96 131.736 246.24 132.396 246.82V243.42C132.276 241.42 135.356 241.42 135.236 243.42ZM131.776 252.94C132.216 252.46 132.436 251.84 132.436 251.1C132.436 250.36 132.216 249.74 131.776 249.26C131.356 248.78 130.816 248.54 130.156 248.54C129.496 248.54 128.956 248.78 128.516 249.26C128.096 249.74 127.876 250.36 127.876 251.1C127.876 251.84 128.096 252.46 128.516 252.94C128.956 253.42 129.496 253.66 130.156 253.66C130.816 253.66 131.356 253.42 131.776 252.94ZM138.653 246.98C139.513 246.3 140.653 245.96 142.033 245.96C143.253 245.96 144.253 246.32 145.033 247.02C145.813 247.72 146.193 248.66 146.193 249.88V254.58C146.193 255.52 145.573 256.1 144.773 256.1C144.113 256.1 143.673 255.8 143.453 255.2C142.773 255.88 141.933 256.22 140.953 256.22C139.973 256.22 139.193 255.94 138.573 255.38C137.953 254.8 137.653 254.08 137.653 253.2C137.653 252.18 138.013 251.42 138.753 250.9C139.493 250.38 140.433 250.1 141.533 250.06L143.333 249.98C143.333 248.98 142.833 248.48 141.833 248.48C141.233 248.48 140.693 248.64 140.193 248.98C139.453 249.48 138.733 249.42 138.313 248.86C137.853 248.32 137.993 247.52 138.653 246.98ZM140.513 253.04C140.513 253.52 140.933 253.82 141.653 253.82C142.233 253.82 142.793 253.62 143.333 253.22V252.06L142.073 252.16C141.033 252.22 140.513 252.5 140.513 253.04ZM149.233 255.14C148.573 254.56 148.493 253.8 148.993 253.24C149.533 252.64 150.153 252.62 150.873 253.2C151.413 253.62 152.133 253.84 153.013 253.84C153.633 253.84 154.113 253.62 154.113 253.24C154.113 252.92 153.893 252.76 153.233 252.58L152.133 252.26C149.953 251.64 148.933 250.64 148.933 249.06C148.933 248.12 149.293 247.38 150.033 246.82C150.773 246.24 151.673 245.96 152.733 245.96C153.873 245.96 154.833 246.2 155.633 246.7C156.353 247.18 156.533 247.9 156.153 248.52C155.733 249.16 155.053 249.34 154.273 248.88C153.753 248.54 153.193 248.38 152.613 248.38C152.053 248.38 151.693 248.6 151.693 248.92C151.693 249.22 151.913 249.34 152.393 249.48L153.653 249.82C155.653 250.38 156.873 251.24 156.873 253.06C156.873 254.92 155.273 256.22 152.773 256.22C151.273 256.22 150.093 255.86 149.233 255.14ZM162.097 255.44L160.757 258.3C160.457 258.94 159.877 259.2 159.257 259.04C158.537 258.82 158.117 258.16 158.417 257.38L159.497 254.44C159.817 253.56 160.537 253.2 161.357 253.46C162.137 253.7 162.477 254.58 162.097 255.44ZM180.685 243.42V254.58C180.685 255.52 180.065 256.1 179.265 256.1C178.585 256.1 178.145 255.8 177.945 255.18C177.445 255.8 176.385 256.22 175.325 256.22C173.945 256.22 172.765 255.76 171.825 254.82C170.885 253.88 170.425 252.64 170.425 251.1C170.425 249.58 170.885 248.34 171.825 247.4C172.765 246.44 173.945 245.96 175.325 245.96C176.345 245.96 177.185 246.24 177.845 246.82V243.42C177.725 241.42 180.805 241.42 180.685 243.42ZM177.225 252.94C177.665 252.46 177.885 251.84 177.885 251.1C177.885 250.36 177.665 249.74 177.225 249.26C176.805 248.78 176.265 248.54 175.605 248.54C174.945 248.54 174.405 248.78 173.965 249.26C173.545 249.74 173.325 250.36 173.325 251.1C173.325 251.84 173.545 252.46 173.965 252.94C174.405 253.42 174.945 253.66 175.605 253.66C176.265 253.66 176.805 253.42 177.225 252.94ZM192.523 250.26C192.523 251.3 192.003 251.82 190.943 251.82H185.923C186.083 252.88 186.903 253.62 188.123 253.62C188.803 253.62 189.383 253.42 189.883 253.02C190.663 252.46 191.383 252.64 191.883 253.3C192.343 253.86 192.203 254.66 191.463 255.24C190.603 255.9 189.503 256.22 188.203 256.22C186.703 256.22 185.483 255.76 184.503 254.84C183.523 253.9 183.043 252.68 183.043 251.16C183.043 249.66 183.483 248.42 184.383 247.44C185.283 246.46 186.443 245.96 187.863 245.96C188.843 245.96 189.703 246.2 190.443 246.66C191.943 247.6 192.523 248.92 192.523 250.26ZM187.923 248.46C186.903 248.46 186.243 249.06 186.063 249.92H189.583C189.523 249.1 188.863 248.46 187.923 248.46ZM200.776 255.14C200.116 254.56 200.036 253.8 200.536 253.24C201.076 252.64 201.696 252.62 202.416 253.2C202.956 253.62 203.676 253.84 204.556 253.84C205.176 253.84 205.656 253.62 205.656 253.24C205.656 252.92 205.436 252.76 204.776 252.58L203.676 252.26C201.496 251.64 200.476 250.64 200.476 249.06C200.476 248.12 200.836 247.38 201.576 246.82C202.316 246.24 203.216 245.96 204.276 245.96C205.416 245.96 206.376 246.2 207.176 246.7C207.896 247.18 208.076 247.9 207.696 248.52C207.276 249.16 206.596 249.34 205.816 248.88C205.296 248.54 204.736 248.38 204.156 248.38C203.596 248.38 203.236 248.6 203.236 248.92C203.236 249.22 203.456 249.34 203.936 249.48L205.196 249.82C207.196 250.38 208.416 251.24 208.416 253.06C208.416 254.92 206.816 256.22 204.316 256.22C202.816 256.22 201.636 255.86 200.776 255.14ZM211.495 254.76C210.515 253.78 210.015 252.56 210.015 251.1C210.015 249.64 210.515 248.42 211.495 247.44C212.495 246.46 213.735 245.96 215.195 245.96C216.655 245.96 217.895 246.46 218.875 247.44C219.875 248.42 220.375 249.64 220.375 251.1C220.375 252.56 219.875 253.78 218.895 254.76C217.915 255.74 216.675 256.22 215.195 256.22C213.715 256.22 212.475 255.74 211.495 254.76ZM213.555 249.32C213.135 249.78 212.915 250.38 212.915 251.1C212.915 251.82 213.135 252.42 213.555 252.88C213.975 253.34 214.535 253.58 215.195 253.58C215.855 253.58 216.415 253.34 216.835 252.88C217.255 252.42 217.475 251.82 217.475 251.1C217.475 250.38 217.255 249.78 216.835 249.32C216.415 248.86 215.855 248.62 215.195 248.62C214.535 248.62 213.975 248.86 213.555 249.32ZM229 249.12C228.54 248.78 228.06 248.6 227.56 248.6C226.14 248.6 225.18 249.64 225.18 251.1C225.18 252.56 226.14 253.6 227.56 253.6C228.1 253.6 228.64 253.38 229.18 252.96C229.96 252.4 230.68 252.58 231.18 253.24C231.64 253.8 231.5 254.6 230.76 255.18C229.84 255.88 228.74 256.22 227.46 256.22C225.98 256.22 224.74 255.74 223.76 254.76C222.78 253.78 222.28 252.56 222.28 251.1C222.28 249.64 222.78 248.42 223.76 247.44C224.76 246.46 226 245.96 227.46 245.96C228.6 245.96 229.6 246.26 230.44 246.88C231.18 247.46 231.38 248.3 230.96 248.86C230.5 249.5 229.78 249.66 229 249.12ZM233.873 243.42C233.873 242.48 234.613 241.76 235.513 241.76C236.453 241.76 237.173 242.48 237.173 243.42C237.173 244.32 236.413 245.06 235.513 245.06C234.613 245.06 233.873 244.32 233.873 243.42ZM236.933 254.58C236.933 255.52 236.333 256.1 235.513 256.1C234.693 256.1 234.093 255.52 234.093 254.58V247.62C234.093 246.68 234.693 246.1 235.513 246.1C236.333 246.1 236.933 246.68 236.933 247.62V254.58ZM240.47 246.98C241.33 246.3 242.47 245.96 243.85 245.96C245.07 245.96 246.07 246.32 246.85 247.02C247.63 247.72 248.01 248.66 248.01 249.88V254.58C248.01 255.52 247.39 256.1 246.59 256.1C245.93 256.1 245.49 255.8 245.27 255.2C244.59 255.88 243.75 256.22 242.77 256.22C241.79 256.22 241.01 255.94 240.39 255.38C239.77 254.8 239.47 254.08 239.47 253.2C239.47 252.18 239.83 251.42 240.57 250.9C241.31 250.38 242.25 250.1 243.35 250.06L245.15 249.98C245.15 248.98 244.65 248.48 243.65 248.48C243.05 248.48 242.51 248.64 242.01 248.98C241.27 249.48 240.55 249.42 240.13 248.86C239.67 248.32 239.81 247.52 240.47 246.98ZM242.33 253.04C242.33 253.52 242.75 253.82 243.47 253.82C244.05 253.82 244.61 253.62 245.15 253.22V252.06L243.89 252.16C242.85 252.22 242.33 252.5 242.33 253.04ZM253.864 243.42V254.58C253.984 256.58 250.904 256.58 251.024 254.58V243.42C250.904 241.42 253.984 241.42 253.864 243.42ZM256.881 243.42C256.881 242.48 257.621 241.76 258.521 241.76C259.461 241.76 260.181 242.48 260.181 243.42C260.181 244.32 259.421 245.06 258.521 245.06C257.621 245.06 256.881 244.32 256.881 243.42ZM259.941 254.58C259.941 255.52 259.341 256.1 258.521 256.1C257.701 256.1 257.101 255.52 257.101 254.58V247.62C257.101 246.68 257.701 246.1 258.521 246.1C259.341 246.1 259.941 246.68 259.941 247.62V254.58ZM269.818 256H264.038C263.098 256 262.538 255.4 262.538 254.54C262.538 254.16 262.658 253.84 262.898 253.56L266.978 248.76H264.038C262.238 248.9 262.198 246.06 264.038 246.2H269.478C270.418 246.2 270.978 246.8 270.978 247.66C270.978 248.04 270.858 248.36 270.618 248.64L266.458 253.44H269.818C271.638 253.3 271.638 256.14 269.818 256ZM274.181 246.98C275.041 246.3 276.181 245.96 277.561 245.96C278.781 245.96 279.781 246.32 280.561 247.02C281.341 247.72 281.721 248.66 281.721 249.88V254.58C281.721 255.52 281.101 256.1 280.301 256.1C279.641 256.1 279.201 255.8 278.981 255.2C278.301 255.88 277.461 256.22 276.481 256.22C275.501 256.22 274.721 255.94 274.101 255.38C273.481 254.8 273.181 254.08 273.181 253.2C273.181 252.18 273.541 251.42 274.281 250.9C275.021 250.38 275.961 250.1 277.061 250.06L278.861 249.98C278.861 248.98 278.361 248.48 277.361 248.48C276.761 248.48 276.221 248.64 275.721 248.98C274.981 249.48 274.261 249.42 273.841 248.86C273.381 248.32 273.521 247.52 274.181 246.98ZM276.041 253.04C276.041 253.52 276.461 253.82 277.181 253.82C277.761 253.82 278.321 253.62 278.861 253.22V252.06L277.601 252.16C276.561 252.22 276.041 252.5 276.041 253.04ZM290.661 249.12C290.201 248.78 289.721 248.6 289.221 248.6C287.801 248.6 286.841 249.64 286.841 251.1C286.841 252.56 287.801 253.6 289.221 253.6C289.761 253.6 290.301 253.38 290.841 252.96C291.621 252.4 292.341 252.58 292.841 253.24C293.301 253.8 293.161 254.6 292.421 255.18C291.501 255.88 290.401 256.22 289.121 256.22C287.641 256.22 286.401 255.74 285.421 254.76C284.441 253.78 283.941 252.56 283.941 251.1C283.941 249.64 284.441 248.42 285.421 247.44C286.421 246.46 287.661 245.96 289.121 245.96C290.261 245.96 291.261 246.26 292.101 246.88C292.841 247.46 293.041 248.3 292.621 248.86C292.161 249.5 291.441 249.66 290.661 249.12ZM295.533 243.42C295.533 242.48 296.273 241.76 297.173 241.76C298.113 241.76 298.833 242.48 298.833 243.42C298.833 244.32 298.073 245.06 297.173 245.06C296.273 245.06 295.533 244.32 295.533 243.42ZM298.593 254.58C298.593 255.52 297.993 256.1 297.173 256.1C296.353 256.1 295.753 255.52 295.753 254.58V247.62C295.753 246.68 296.353 246.1 297.173 246.1C297.993 246.1 298.593 246.68 298.593 247.62V254.58ZM302.55 254.76C301.57 253.78 301.07 252.56 301.07 251.1C301.07 249.64 301.57 248.42 302.55 247.44C303.55 246.46 304.79 245.96 306.25 245.96C307.71 245.96 308.95 246.46 309.93 247.44C310.93 248.42 311.43 249.64 311.43 251.1C311.43 252.56 310.93 253.78 309.95 254.76C308.97 255.74 307.73 256.22 306.25 256.22C304.77 256.22 303.53 255.74 302.55 254.76ZM304.61 249.32C304.19 249.78 303.97 250.38 303.97 251.1C303.97 251.82 304.19 252.42 304.61 252.88C305.03 253.34 305.59 253.58 306.25 253.58C306.91 253.58 307.47 253.34 307.89 252.88C308.31 252.42 308.53 251.82 308.53 251.1C308.53 250.38 308.31 249.78 307.89 249.32C307.47 248.86 306.91 248.62 306.25 248.62C305.59 248.62 305.03 248.86 304.61 249.32ZM307.43 243.9L305.71 244.7C305.33 244.88 304.97 244.86 304.61 244.64C304.07 244.3 303.93 243.54 304.27 243.04C304.37 242.88 304.51 242.76 304.67 242.66L306.37 241.54C306.83 241.24 307.31 241.26 307.81 241.56C308.39 241.94 308.57 242.76 308.17 243.38C307.99 243.62 307.73 243.8 307.43 243.9ZM313.798 254.58V247.62C313.798 246.68 314.418 246.1 315.218 246.1C315.878 246.1 316.318 246.4 316.538 246.98C317.118 246.3 317.898 245.96 318.918 245.96C321.338 245.96 322.898 247.56 322.898 250.3V254.58C322.898 255.52 322.298 256.1 321.478 256.1C320.658 256.1 320.058 255.52 320.058 254.58V250.52C320.058 249.4 319.538 248.6 318.438 248.6C317.238 248.6 316.638 249.44 316.638 251.1V254.58C316.758 256.58 313.678 256.58 313.798 254.58ZM93.3136 273.26C93.3136 274.3 92.7936 274.82 91.7336 274.82H86.7136C86.8736 275.88 87.6936 276.62 88.9136 276.62C89.5936 276.62 90.1736 276.42 90.6736 276.02C91.4536 275.46 92.1736 275.64 92.6736 276.3C93.1336 276.86 92.9936 277.66 92.2536 278.24C91.3936 278.9 90.2936 279.22 88.9936 279.22C87.4936 279.22 86.2736 278.76 85.2936 277.84C84.3136 276.9 83.8336 275.68 83.8336 274.16C83.8336 272.66 84.2736 271.42 85.1736 270.44C86.0736 269.46 87.2336 268.96 88.6536 268.96C89.6336 268.96 90.4936 269.2 91.2336 269.66C92.7336 270.6 93.3136 271.92 93.3136 273.26ZM88.7136 271.46C87.6936 271.46 87.0336 272.06 86.8536 272.92H90.3736C90.3136 272.1 89.6536 271.46 88.7136 271.46ZM101.207 266.42C101.207 265.48 101.947 264.76 102.847 264.76C103.787 264.76 104.507 265.48 104.507 266.42C104.507 267.32 103.747 268.06 102.847 268.06C101.947 268.06 101.207 267.32 101.207 266.42ZM104.267 277.58C104.267 278.52 103.667 279.1 102.847 279.1C102.027 279.1 101.427 278.52 101.427 277.58V270.62C101.427 269.68 102.027 269.1 102.847 269.1C103.667 269.1 104.267 269.68 104.267 270.62V277.58ZM107.519 277.58V270.62C107.519 269.68 108.139 269.1 108.939 269.1C109.599 269.1 110.039 269.4 110.259 269.98C110.839 269.3 111.619 268.96 112.639 268.96C115.059 268.96 116.619 270.56 116.619 273.3V277.58C116.619 278.52 116.019 279.1 115.199 279.1C114.379 279.1 113.779 278.52 113.779 277.58V273.52C113.779 272.4 113.259 271.6 112.159 271.6C110.959 271.6 110.359 272.44 110.359 274.1V277.58C110.479 279.58 107.399 279.58 107.519 277.58ZM123.378 276.4C124.278 276.5 124.758 277 124.758 277.74C124.758 278.48 124.218 279.04 123.238 279.04H122.978C120.698 279.04 119.558 277.88 119.558 275.54V271.82H119.198C118.318 271.82 117.778 271.26 117.778 270.52C117.778 269.78 118.318 269.2 119.198 269.2H119.558V267.88C119.438 265.88 122.518 265.88 122.378 267.88V269.2H123.338C124.218 269.2 124.758 269.78 124.758 270.52C124.758 271.26 124.218 271.82 123.338 271.82H122.378V275.2C122.378 276.02 122.718 276.34 123.378 276.4ZM135.931 273.26C135.931 274.3 135.411 274.82 134.351 274.82H129.331C129.491 275.88 130.311 276.62 131.531 276.62C132.211 276.62 132.791 276.42 133.291 276.02C134.071 275.46 134.791 275.64 135.291 276.3C135.751 276.86 135.611 277.66 134.871 278.24C134.011 278.9 132.911 279.22 131.611 279.22C130.111 279.22 128.891 278.76 127.911 277.84C126.931 276.9 126.451 275.68 126.451 274.16C126.451 272.66 126.891 271.42 127.791 270.44C128.691 269.46 129.851 268.96 131.271 268.96C132.251 268.96 133.111 269.2 133.851 269.66C135.351 270.6 135.931 271.92 135.931 273.26ZM131.331 271.46C130.311 271.46 129.651 272.06 129.471 272.92H132.991C132.931 272.1 132.271 271.46 131.331 271.46ZM141.198 266.42V277.58C141.318 279.58 138.238 279.58 138.358 277.58V266.42C138.238 264.42 141.318 264.42 141.198 266.42ZM144.215 266.42C144.215 265.48 144.955 264.76 145.855 264.76C146.795 264.76 147.515 265.48 147.515 266.42C147.515 267.32 146.755 268.06 145.855 268.06C144.955 268.06 144.215 267.32 144.215 266.42ZM147.275 277.58C147.275 278.52 146.675 279.1 145.855 279.1C145.035 279.1 144.435 278.52 144.435 277.58V270.62C144.435 269.68 145.035 269.1 145.855 269.1C146.675 269.1 147.275 269.68 147.275 270.62V277.58ZM156.972 273.88C156.972 272.5 156.012 271.54 154.792 271.54C153.592 271.54 152.632 272.5 152.632 273.88C152.632 275.24 153.592 276.2 154.792 276.2C156.012 276.2 156.972 275.24 156.972 273.88ZM150.912 282.02C150.172 281.46 150.172 280.54 150.712 279.98C151.212 279.44 151.892 279.42 152.752 279.96C153.332 280.3 153.892 280.48 154.452 280.48C155.952 280.48 156.912 279.6 156.912 278.3V278.04C156.352 278.54 155.552 278.78 154.532 278.78C153.132 278.78 151.972 278.34 151.072 277.46C150.172 276.58 149.732 275.38 149.732 273.88C149.732 272.36 150.192 271.16 151.132 270.28C152.072 269.4 153.192 268.96 154.532 268.96C155.572 268.96 156.412 269.3 157.032 270C157.232 269.38 157.672 269.08 158.352 269.08C159.172 269.08 159.772 269.64 159.772 270.6V277.98C159.772 279.5 159.292 280.74 158.352 281.68C157.412 282.62 156.132 283.1 154.472 283.1C153.072 283.1 151.892 282.74 150.912 282.02ZM171.595 273.26C171.595 274.3 171.075 274.82 170.015 274.82H164.995C165.155 275.88 165.975 276.62 167.195 276.62C167.875 276.62 168.455 276.42 168.955 276.02C169.735 275.46 170.455 275.64 170.955 276.3C171.415 276.86 171.275 277.66 170.535 278.24C169.675 278.9 168.575 279.22 167.275 279.22C165.775 279.22 164.555 278.76 163.575 277.84C162.595 276.9 162.115 275.68 162.115 274.16C162.115 272.66 162.555 271.42 163.455 270.44C164.355 269.46 165.515 268.96 166.935 268.96C167.915 268.96 168.775 269.2 169.515 269.66C171.015 270.6 171.595 271.92 171.595 273.26ZM166.995 271.46C165.975 271.46 165.315 272.06 165.135 272.92H168.655C168.595 272.1 167.935 271.46 166.995 271.46ZM174.023 277.58V270.62C174.023 269.68 174.643 269.1 175.443 269.1C176.103 269.1 176.543 269.4 176.763 269.98C177.343 269.3 178.123 268.96 179.143 268.96C181.563 268.96 183.122 270.56 183.122 273.3V277.58C183.122 278.52 182.523 279.1 181.703 279.1C180.883 279.1 180.283 278.52 180.283 277.58V273.52C180.283 272.4 179.763 271.6 178.663 271.6C177.463 271.6 176.863 272.44 176.863 274.1V277.58C176.983 279.58 173.903 279.58 174.023 277.58ZM191.959 272.12C191.499 271.78 191.019 271.6 190.519 271.6C189.099 271.6 188.139 272.64 188.139 274.1C188.139 275.56 189.099 276.6 190.519 276.6C191.059 276.6 191.599 276.38 192.139 275.96C192.919 275.4 193.639 275.58 194.139 276.24C194.599 276.8 194.459 277.6 193.719 278.18C192.799 278.88 191.699 279.22 190.419 279.22C188.939 279.22 187.699 278.74 186.719 277.76C185.739 276.78 185.239 275.56 185.239 274.1C185.239 272.64 185.739 271.42 186.719 270.44C187.719 269.46 188.959 268.96 190.419 268.96C191.559 268.96 192.559 269.26 193.399 269.88C194.139 270.46 194.339 271.3 193.919 271.86C193.459 272.5 192.739 272.66 191.959 272.12ZM196.832 266.42C196.832 265.48 197.572 264.76 198.472 264.76C199.412 264.76 200.132 265.48 200.132 266.42C200.132 267.32 199.372 268.06 198.472 268.06C197.572 268.06 196.832 267.32 196.832 266.42ZM199.892 277.58C199.892 278.52 199.292 279.1 198.472 279.1C197.652 279.1 197.052 278.52 197.052 277.58V270.62C197.052 269.68 197.652 269.1 198.472 269.1C199.292 269.1 199.892 269.68 199.892 270.62V277.58ZM203.429 269.98C204.289 269.3 205.429 268.96 206.809 268.96C208.029 268.96 209.029 269.32 209.809 270.02C210.589 270.72 210.969 271.66 210.969 272.88V277.58C210.969 278.52 210.349 279.1 209.549 279.1C208.889 279.1 208.449 278.8 208.229 278.2C207.549 278.88 206.709 279.22 205.729 279.22C204.749 279.22 203.969 278.94 203.349 278.38C202.729 277.8 202.429 277.08 202.429 276.2C202.429 275.18 202.789 274.42 203.529 273.9C204.269 273.38 205.209 273.1 206.309 273.06L208.109 272.98C208.109 271.98 207.609 271.48 206.609 271.48C206.009 271.48 205.469 271.64 204.969 271.98C204.229 272.48 203.509 272.42 203.089 271.86C202.629 271.32 202.769 270.52 203.429 269.98ZM205.289 276.04C205.289 276.52 205.709 276.82 206.429 276.82C207.009 276.82 207.569 276.62 208.109 276.22V275.06L206.849 275.16C205.809 275.22 205.289 275.5 205.289 276.04ZM228.275 273.26C228.275 274.3 227.755 274.82 226.695 274.82H221.675C221.835 275.88 222.655 276.62 223.875 276.62C224.555 276.62 225.135 276.42 225.635 276.02C226.415 275.46 227.135 275.64 227.635 276.3C228.095 276.86 227.955 277.66 227.215 278.24C226.355 278.9 225.255 279.22 223.955 279.22C222.455 279.22 221.235 278.76 220.255 277.84C219.275 276.9 218.795 275.68 218.795 274.16C218.795 272.66 219.235 271.42 220.135 270.44C221.035 269.46 222.195 268.96 223.615 268.96C224.595 268.96 225.455 269.2 226.195 269.66C227.695 270.6 228.275 271.92 228.275 273.26ZM223.675 271.46C222.655 271.46 221.995 272.06 221.815 272.92H225.335C225.275 272.1 224.615 271.46 223.675 271.46ZM230.702 277.58V270.62C230.702 269.68 231.322 269.1 232.122 269.1C232.782 269.1 233.222 269.4 233.442 269.98C234.022 269.3 234.842 268.96 235.862 268.96C237.002 268.96 237.902 269.36 238.582 270.14C239.362 269.36 240.342 268.96 241.522 268.96C244.142 268.96 245.622 270.52 245.622 273.3V277.58C245.742 279.58 242.662 279.58 242.782 277.58V273.42C242.782 272.32 242.262 271.6 241.282 271.6C240.222 271.6 239.582 272.42 239.582 273.78V277.58C239.702 279.58 236.622 279.58 236.742 277.58V273.42C236.742 272.32 236.222 271.6 235.242 271.6C234.122 271.6 233.542 272.46 233.542 273.98V277.58C233.662 279.58 230.582 279.58 230.702 277.58ZM249.239 277.76C248.259 276.78 247.759 275.56 247.759 274.1C247.759 272.64 248.259 271.42 249.239 270.44C250.239 269.46 251.479 268.96 252.939 268.96C254.399 268.96 255.639 269.46 256.619 270.44C257.619 271.42 258.119 272.64 258.119 274.1C258.119 275.56 257.619 276.78 256.639 277.76C255.659 278.74 254.419 279.22 252.939 279.22C251.459 279.22 250.219 278.74 249.239 277.76ZM251.299 272.32C250.879 272.78 250.659 273.38 250.659 274.1C250.659 274.82 250.879 275.42 251.299 275.88C251.719 276.34 252.279 276.58 252.939 276.58C253.599 276.58 254.159 276.34 254.579 275.88C254.999 275.42 255.219 274.82 255.219 274.1C255.219 273.38 254.999 272.78 254.579 272.32C254.159 271.86 253.599 271.62 252.939 271.62C252.279 271.62 251.719 271.86 251.299 272.32ZM266.745 272.12C266.285 271.78 265.805 271.6 265.305 271.6C263.885 271.6 262.925 272.64 262.925 274.1C262.925 275.56 263.885 276.6 265.305 276.6C265.845 276.6 266.385 276.38 266.925 275.96C267.705 275.4 268.425 275.58 268.925 276.24C269.385 276.8 269.245 277.6 268.505 278.18C267.585 278.88 266.485 279.22 265.205 279.22C263.725 279.22 262.485 278.74 261.505 277.76C260.525 276.78 260.025 275.56 260.025 274.1C260.025 272.64 260.525 271.42 261.505 270.44C262.505 269.46 263.745 268.96 265.205 268.96C266.345 268.96 267.345 269.26 268.185 269.88C268.925 270.46 269.125 271.3 268.705 271.86C268.245 272.5 267.525 272.66 266.745 272.12ZM271.617 266.42C271.617 265.48 272.357 264.76 273.257 264.76C274.197 264.76 274.917 265.48 274.917 266.42C274.917 267.32 274.157 268.06 273.257 268.06C272.357 268.06 271.617 267.32 271.617 266.42ZM274.677 277.58C274.677 278.52 274.077 279.1 273.257 279.1C272.437 279.1 271.837 278.52 271.837 277.58V270.62C271.837 269.68 272.437 269.1 273.257 269.1C274.077 269.1 274.677 269.68 274.677 270.62V277.58ZM278.634 277.76C277.654 276.78 277.154 275.56 277.154 274.1C277.154 272.64 277.654 271.42 278.634 270.44C279.634 269.46 280.874 268.96 282.334 268.96C283.794 268.96 285.034 269.46 286.014 270.44C287.014 271.42 287.514 272.64 287.514 274.1C287.514 275.56 287.014 276.78 286.034 277.76C285.054 278.74 283.814 279.22 282.334 279.22C280.854 279.22 279.614 278.74 278.634 277.76ZM280.694 272.32C280.274 272.78 280.054 273.38 280.054 274.1C280.054 274.82 280.274 275.42 280.694 275.88C281.114 276.34 281.674 276.58 282.334 276.58C282.994 276.58 283.554 276.34 283.974 275.88C284.394 275.42 284.614 274.82 284.614 274.1C284.614 273.38 284.394 272.78 283.974 272.32C283.554 271.86 282.994 271.62 282.334 271.62C281.674 271.62 281.114 271.86 280.694 272.32ZM289.882 277.58V270.62C289.882 269.68 290.502 269.1 291.302 269.1C291.962 269.1 292.402 269.4 292.622 269.98C293.202 269.3 293.982 268.96 295.002 268.96C297.422 268.96 298.982 270.56 298.982 273.3V277.58C298.982 278.52 298.382 279.1 297.562 279.1C296.742 279.1 296.142 278.52 296.142 277.58V273.52C296.142 272.4 295.622 271.6 294.522 271.6C293.322 271.6 292.722 272.44 292.722 274.1V277.58C292.842 279.58 289.762 279.58 289.882 277.58ZM302.179 269.98C303.039 269.3 304.179 268.96 305.559 268.96C306.779 268.96 307.779 269.32 308.559 270.02C309.339 270.72 309.719 271.66 309.719 272.88V277.58C309.719 278.52 309.099 279.1 308.299 279.1C307.639 279.1 307.199 278.8 306.979 278.2C306.299 278.88 305.459 279.22 304.479 279.22C303.499 279.22 302.719 278.94 302.099 278.38C301.479 277.8 301.179 277.08 301.179 276.2C301.179 275.18 301.539 274.42 302.279 273.9C303.019 273.38 303.959 273.1 305.059 273.06L306.859 272.98C306.859 271.98 306.359 271.48 305.359 271.48C304.759 271.48 304.219 271.64 303.719 271.98C302.979 272.48 302.259 272.42 301.839 271.86C301.379 271.32 301.519 270.52 302.179 269.98ZM304.039 276.04C304.039 276.52 304.459 276.82 305.179 276.82C305.759 276.82 306.319 276.62 306.859 276.22V275.06L305.599 275.16C304.559 275.22 304.039 275.5 304.039 276.04ZM315.573 266.42V277.58C315.693 279.58 312.613 279.58 312.733 277.58V266.42C312.613 264.42 315.693 264.42 315.573 266.42ZM319.315 278.7C318.675 278.04 318.675 276.92 319.315 276.26C319.975 275.6 321.095 275.6 321.755 276.26C322.455 276.92 322.455 278.04 321.755 278.7C321.095 279.36 319.975 279.36 319.315 278.7Z" fill="#930345"/>
</svg>
