<svg width="400" height="400" viewBox="0 0 400 400" fill="none" xmlns="http://www.w3.org/2000/svg">
<circle cx="200" cy="200" r="200" fill="#930345"/>
<path d="M162.791 102.328C164.071 103.224 164.199 104.728 163.335 105.72C162.567 106.776 161.319 107 160.007 106.104C158.631 105.08 157.127 104.568 155.495 104.568C153.479 104.568 152.199 105.464 152.199 106.776C152.199 107.992 153.255 108.792 155.399 109.176L157.287 109.496C162.311 110.296 164.839 112.632 164.839 116.504C164.839 118.552 164.007 120.216 162.375 121.464C160.743 122.712 158.599 123.352 155.911 123.352C152.999 123.352 150.375 122.488 148.007 120.728C146.759 119.8 146.599 118.328 147.463 117.336C148.231 116.28 149.511 116.024 150.791 116.952C152.487 118.328 154.311 119 156.199 119C158.631 119 160.103 117.976 160.103 116.568C160.103 115.384 159.047 114.584 156.967 114.2L154.535 113.752C150.151 112.952 147.463 110.712 147.463 107C147.463 104.92 148.263 103.288 149.895 102.072C151.527 100.824 153.479 100.216 155.751 100.216C158.471 100.216 160.839 100.92 162.791 102.328ZM180.693 114.36L177.909 107.032L175.125 114.36H180.693ZM168.021 120.024L174.837 102.584C175.381 101.144 176.405 100.44 177.877 100.44C179.381 100.44 180.405 101.144 180.949 102.552L187.797 120.024C188.341 121.432 187.669 122.616 186.389 123.032C185.013 123.448 184.021 122.936 183.413 121.464L182.229 118.584H173.557L172.405 121.464C171.861 122.904 170.677 123.416 169.429 123.032C168.149 122.616 167.477 121.432 168.021 120.024ZM191.747 119.96V102.936C191.747 101.368 192.739 100.408 194.115 100.408C195.491 100.408 196.483 101.368 196.483 102.936V118.616H204.547C205.987 118.616 206.883 119.544 206.883 120.824C206.883 122.072 205.987 123 204.547 123H194.787C192.867 123 191.747 121.88 191.747 119.96ZM213.724 102.968V113.272C213.724 116.696 215.324 119 218.396 119C221.5 119 223.068 117.08 223.068 113.208V102.968C223.068 101.4 224.06 100.44 225.436 100.44C226.812 100.44 227.804 101.4 227.804 102.968V113.048C227.804 119.736 224.284 123.352 218.396 123.352C212.508 123.352 208.988 119.736 208.988 113.048V102.968C208.988 101.4 209.98 100.44 211.356 100.44C212.732 100.44 213.724 101.4 213.724 102.968ZM239.826 123H235.474C233.554 123 232.434 121.88 232.434 119.96V103.64C232.434 101.72 233.554 100.6 235.474 100.6H239.826C243.026 100.6 245.874 101.4 248.306 103.064C250.77 104.696 252.338 107.768 252.338 111.64C252.338 115.576 250.77 118.648 248.338 120.408C245.906 122.104 242.994 123 239.826 123ZM239.09 104.984H237.202V118.616H239.122C244.722 118.616 247.506 116.28 247.506 111.64C247.506 107.192 244.69 104.984 239.09 104.984Z" fill="#F9D332"/>
<path d="M98.4018 174.44C99.1218 175.08 99.1818 175.96 98.6218 176.54C98.0818 177.18 97.2818 177.26 96.5018 176.62C95.6818 175.9 94.7018 175.54 93.5418 175.54C92.4418 175.54 91.4818 175.94 90.6418 176.74C89.8218 177.52 89.4018 178.6 89.4018 179.96C89.4018 181.34 89.8218 182.44 90.6418 183.24C91.4618 184.04 92.4818 184.44 93.7018 184.44C94.8418 184.44 95.8418 184.08 96.7218 183.34C97.5018 182.72 98.3018 182.8 98.8418 183.42C99.4018 184 99.3418 184.88 98.6218 185.52C97.3418 186.66 95.7218 187.22 93.7818 187.22C91.6418 187.22 89.8618 186.56 88.4418 185.24C87.0418 183.92 86.3418 182.18 86.3418 180.02C86.3418 177.84 87.0418 176.08 88.4418 174.76C89.8418 173.42 91.5818 172.76 93.6818 172.76C95.5018 172.76 97.0818 173.32 98.4018 174.44ZM102.741 185.76C101.761 184.78 101.261 183.56 101.261 182.1C101.261 180.64 101.761 179.42 102.741 178.44C103.741 177.46 104.981 176.96 106.441 176.96C107.901 176.96 109.141 177.46 110.121 178.44C111.121 179.42 111.621 180.64 111.621 182.1C111.621 183.56 111.121 184.78 110.141 185.76C109.161 186.74 107.921 187.22 106.441 187.22C104.961 187.22 103.721 186.74 102.741 185.76ZM104.801 180.32C104.381 180.78 104.161 181.38 104.161 182.1C104.161 182.82 104.381 183.42 104.801 183.88C105.221 184.34 105.781 184.58 106.441 184.58C107.101 184.58 107.661 184.34 108.081 183.88C108.501 183.42 108.721 182.82 108.721 182.1C108.721 181.38 108.501 180.78 108.081 180.32C107.661 179.86 107.101 179.62 106.441 179.62C105.781 179.62 105.221 179.86 104.801 180.32ZM113.989 185.58V178.62C113.989 177.68 114.609 177.1 115.409 177.1C116.069 177.1 116.509 177.4 116.729 177.98C117.309 177.3 118.089 176.96 119.109 176.96C121.529 176.96 123.089 178.56 123.089 181.3V185.58C123.089 186.52 122.489 187.1 121.669 187.1C120.849 187.1 120.249 186.52 120.249 185.58V181.52C120.249 180.4 119.729 179.6 118.629 179.6C117.429 179.6 116.829 180.44 116.829 182.1V185.58C116.949 187.58 113.869 187.58 113.989 185.58ZM129.849 184.4C130.749 184.5 131.229 185 131.229 185.74C131.229 186.48 130.689 187.04 129.709 187.04H129.449C127.169 187.04 126.029 185.88 126.029 183.54V179.82H125.669C124.789 179.82 124.249 179.26 124.249 178.52C124.249 177.78 124.789 177.2 125.669 177.2H126.029V175.88C125.909 173.88 128.989 173.88 128.849 175.88V177.2H129.809C130.689 177.2 131.229 177.78 131.229 178.52C131.229 179.26 130.689 179.82 129.809 179.82H128.849V183.2C128.849 184.02 129.189 184.34 129.849 184.4ZM139.579 177.14C140.219 177.3 140.699 177.8 140.699 178.54C140.699 179.32 140.159 179.86 139.459 179.86C139.319 179.86 139.019 179.82 138.839 179.82C137.479 179.82 136.439 180.92 136.439 182.9V185.58C136.559 187.58 133.479 187.58 133.599 185.58V178.62C133.599 177.68 134.219 177.1 135.019 177.1C135.759 177.1 136.299 177.58 136.399 178.28C136.959 177.5 137.919 177.06 138.779 177.06C139.119 177.06 139.379 177.08 139.579 177.14ZM142.17 174.42C142.17 173.48 142.91 172.76 143.81 172.76C144.75 172.76 145.47 173.48 145.47 174.42C145.47 175.32 144.71 176.06 143.81 176.06C142.91 176.06 142.17 175.32 142.17 174.42ZM145.23 185.58C145.23 186.52 144.63 187.1 143.81 187.1C142.99 187.1 142.39 186.52 142.39 185.58V178.62C142.39 177.68 142.99 177.1 143.81 177.1C144.63 177.1 145.23 177.68 145.23 178.62V185.58ZM148.481 185.58V174.42C148.361 172.42 151.441 172.42 151.321 174.42V177.82C151.981 177.24 152.821 176.96 153.841 176.96C155.221 176.96 156.381 177.44 157.321 178.4C158.261 179.34 158.741 180.58 158.741 182.1C158.741 183.64 158.261 184.88 157.321 185.82C156.381 186.76 155.221 187.22 153.841 187.22C152.781 187.22 151.721 186.8 151.221 186.18C151.021 186.8 150.581 187.1 149.901 187.1C149.101 187.1 148.481 186.52 148.481 185.58ZM151.921 180.26C151.501 180.74 151.281 181.36 151.281 182.1C151.281 182.84 151.501 183.46 151.921 183.94C152.361 184.42 152.901 184.66 153.561 184.66C154.221 184.66 154.761 184.42 155.181 183.94C155.621 183.46 155.841 182.84 155.841 182.1C155.841 181.36 155.621 180.74 155.181 180.26C154.761 179.78 154.221 179.54 153.561 179.54C152.901 179.54 152.361 179.78 151.921 180.26ZM169.739 178.62V185.58C169.739 186.52 169.119 187.1 168.319 187.1C167.679 187.1 167.239 186.8 167.019 186.22C166.459 186.88 165.659 187.22 164.599 187.22C162.199 187.22 160.859 185.68 160.859 182.9V178.62C160.739 176.62 163.819 176.62 163.699 178.62V182.68C163.699 183.96 164.199 184.6 165.199 184.6C166.459 184.6 166.899 183.72 166.899 182.1V178.62C166.779 176.62 169.859 176.62 169.739 178.62ZM172.776 174.42C172.776 173.48 173.516 172.76 174.416 172.76C175.356 172.76 176.076 173.48 176.076 174.42C176.076 175.32 175.316 176.06 174.416 176.06C173.516 176.06 172.776 175.32 172.776 174.42ZM175.836 185.58C175.836 186.52 175.236 187.1 174.416 187.1C173.596 187.1 172.996 186.52 172.996 185.58V178.62C172.996 177.68 173.596 177.1 174.416 177.1C175.236 177.1 175.836 177.68 175.836 178.62V185.58ZM179.087 185.58V178.62C179.087 177.68 179.707 177.1 180.507 177.1C181.167 177.1 181.607 177.4 181.827 177.98C182.407 177.3 183.227 176.96 184.247 176.96C185.387 176.96 186.287 177.36 186.967 178.14C187.747 177.36 188.727 176.96 189.907 176.96C192.527 176.96 194.007 178.52 194.007 181.3V185.58C194.127 187.58 191.047 187.58 191.167 185.58V181.42C191.167 180.32 190.647 179.6 189.667 179.6C188.607 179.6 187.967 180.42 187.967 181.78V185.58C188.087 187.58 185.007 187.58 185.127 185.58V181.42C185.127 180.32 184.607 179.6 183.627 179.6C182.507 179.6 181.927 180.46 181.927 181.98V185.58C182.047 187.58 178.967 187.58 179.087 185.58ZM197.624 185.76C196.644 184.78 196.144 183.56 196.144 182.1C196.144 180.64 196.644 179.42 197.624 178.44C198.624 177.46 199.864 176.96 201.324 176.96C202.784 176.96 204.024 177.46 205.004 178.44C206.004 179.42 206.504 180.64 206.504 182.1C206.504 183.56 206.004 184.78 205.024 185.76C204.044 186.74 202.804 187.22 201.324 187.22C199.844 187.22 198.604 186.74 197.624 185.76ZM199.684 180.32C199.264 180.78 199.044 181.38 199.044 182.1C199.044 182.82 199.264 183.42 199.684 183.88C200.104 184.34 200.664 184.58 201.324 184.58C201.984 184.58 202.544 184.34 202.964 183.88C203.384 183.42 203.604 182.82 203.604 182.1C203.604 181.38 203.384 180.78 202.964 180.32C202.544 179.86 201.984 179.62 201.324 179.62C200.664 179.62 200.104 179.86 199.684 180.32ZM209.112 186.14C208.452 185.56 208.372 184.8 208.872 184.24C209.412 183.64 210.032 183.62 210.752 184.2C211.292 184.62 212.012 184.84 212.892 184.84C213.512 184.84 213.992 184.62 213.992 184.24C213.992 183.92 213.772 183.76 213.112 183.58L212.012 183.26C209.832 182.64 208.812 181.64 208.812 180.06C208.812 179.12 209.172 178.38 209.912 177.82C210.652 177.24 211.552 176.96 212.612 176.96C213.752 176.96 214.712 177.2 215.512 177.7C216.232 178.18 216.412 178.9 216.032 179.52C215.612 180.16 214.932 180.34 214.152 179.88C213.632 179.54 213.072 179.38 212.492 179.38C211.932 179.38 211.572 179.6 211.572 179.92C211.572 180.22 211.792 180.34 212.272 180.48L213.532 180.82C215.532 181.38 216.752 182.24 216.752 184.06C216.752 185.92 215.152 187.22 212.652 187.22C211.152 187.22 209.972 186.86 209.112 186.14ZM225.114 177.98C225.974 177.3 227.114 176.96 228.494 176.96C229.714 176.96 230.714 177.32 231.494 178.02C232.274 178.72 232.654 179.66 232.654 180.88V185.58C232.654 186.52 232.034 187.1 231.234 187.1C230.574 187.1 230.134 186.8 229.914 186.2C229.234 186.88 228.394 187.22 227.414 187.22C226.434 187.22 225.654 186.94 225.034 186.38C224.414 185.8 224.114 185.08 224.114 184.2C224.114 183.18 224.474 182.42 225.214 181.9C225.954 181.38 226.894 181.1 227.994 181.06L229.794 180.98C229.794 179.98 229.294 179.48 228.294 179.48C227.694 179.48 227.154 179.64 226.654 179.98C225.914 180.48 225.194 180.42 224.774 179.86C224.314 179.32 224.454 178.52 225.114 177.98ZM226.974 184.04C226.974 184.52 227.394 184.82 228.114 184.82C228.694 184.82 229.254 184.62 229.794 184.22V183.06L228.534 183.16C227.494 183.22 226.974 183.5 226.974 184.04ZM247.7 181.88C247.7 180.5 246.74 179.54 245.52 179.54C244.32 179.54 243.36 180.5 243.36 181.88C243.36 183.24 244.32 184.2 245.52 184.2C246.74 184.2 247.7 183.24 247.7 181.88ZM241.64 190.02C240.9 189.46 240.9 188.54 241.44 187.98C241.94 187.44 242.62 187.42 243.48 187.96C244.06 188.3 244.62 188.48 245.18 188.48C246.68 188.48 247.64 187.6 247.64 186.3V186.04C247.08 186.54 246.28 186.78 245.26 186.78C243.86 186.78 242.7 186.34 241.8 185.46C240.9 184.58 240.46 183.38 240.46 181.88C240.46 180.36 240.92 179.16 241.86 178.28C242.8 177.4 243.92 176.96 245.26 176.96C246.3 176.96 247.14 177.3 247.76 178C247.96 177.38 248.4 177.08 249.08 177.08C249.9 177.08 250.5 177.64 250.5 178.6V185.98C250.5 187.5 250.02 188.74 249.08 189.68C248.14 190.62 246.86 191.1 245.2 191.1C243.8 191.1 242.62 190.74 241.64 190.02ZM262.323 181.26C262.323 182.3 261.803 182.82 260.743 182.82H255.723C255.883 183.88 256.703 184.62 257.923 184.62C258.603 184.62 259.183 184.42 259.683 184.02C260.463 183.46 261.183 183.64 261.683 184.3C262.143 184.86 262.003 185.66 261.263 186.24C260.403 186.9 259.303 187.22 258.003 187.22C256.503 187.22 255.283 186.76 254.303 185.84C253.323 184.9 252.843 183.68 252.843 182.16C252.843 180.66 253.283 179.42 254.183 178.44C255.083 177.46 256.243 176.96 257.663 176.96C258.643 176.96 259.503 177.2 260.243 177.66C261.743 178.6 262.323 179.92 262.323 181.26ZM257.723 179.46C256.703 179.46 256.043 180.06 255.863 180.92H259.383C259.323 180.1 258.663 179.46 257.723 179.46ZM264.751 185.58V178.62C264.751 177.68 265.371 177.1 266.171 177.1C266.831 177.1 267.271 177.4 267.491 177.98C268.071 177.3 268.851 176.96 269.871 176.96C272.291 176.96 273.851 178.56 273.851 181.3V185.58C273.851 186.52 273.251 187.1 272.431 187.1C271.611 187.1 271.011 186.52 271.011 185.58V181.52C271.011 180.4 270.491 179.6 269.391 179.6C268.191 179.6 267.591 180.44 267.591 182.1V185.58C267.711 187.58 264.631 187.58 264.751 185.58ZM285.468 181.26C285.468 182.3 284.948 182.82 283.888 182.82H278.868C279.028 183.88 279.848 184.62 281.068 184.62C281.748 184.62 282.328 184.42 282.828 184.02C283.608 183.46 284.328 183.64 284.828 184.3C285.288 184.86 285.148 185.66 284.408 186.24C283.548 186.9 282.448 187.22 281.148 187.22C279.648 187.22 278.428 186.76 277.448 185.84C276.468 184.9 275.988 183.68 275.988 182.16C275.988 180.66 276.428 179.42 277.328 178.44C278.228 177.46 279.388 176.96 280.808 176.96C281.788 176.96 282.648 177.2 283.388 177.66C284.888 178.6 285.468 179.92 285.468 181.26ZM280.868 179.46C279.848 179.46 279.188 180.06 279.008 180.92H282.528C282.468 180.1 281.808 179.46 280.868 179.46ZM293.876 177.14C294.516 177.3 294.996 177.8 294.996 178.54C294.996 179.32 294.456 179.86 293.756 179.86C293.616 179.86 293.316 179.82 293.136 179.82C291.776 179.82 290.736 180.92 290.736 182.9V185.58C290.856 187.58 287.776 187.58 287.896 185.58V178.62C287.896 177.68 288.516 177.1 289.316 177.1C290.056 177.1 290.596 177.58 290.696 178.28C291.256 177.5 292.216 177.06 293.076 177.06C293.416 177.06 293.676 177.08 293.876 177.14ZM296.872 177.98C297.732 177.3 298.872 176.96 300.252 176.96C301.472 176.96 302.472 177.32 303.252 178.02C304.032 178.72 304.412 179.66 304.412 180.88V185.58C304.412 186.52 303.792 187.1 302.992 187.1C302.332 187.1 301.892 186.8 301.672 186.2C300.992 186.88 300.152 187.22 299.172 187.22C298.192 187.22 297.412 186.94 296.792 186.38C296.172 185.8 295.872 185.08 295.872 184.2C295.872 183.18 296.232 182.42 296.972 181.9C297.712 181.38 298.652 181.1 299.752 181.06L301.552 180.98C301.552 179.98 301.052 179.48 300.052 179.48C299.452 179.48 298.912 179.64 298.412 179.98C297.672 180.48 296.952 180.42 296.532 179.86C296.072 179.32 296.212 178.52 296.872 177.98ZM298.732 184.04C298.732 184.52 299.152 184.82 299.872 184.82C300.452 184.82 301.012 184.62 301.552 184.22V183.06L300.292 183.16C299.252 183.22 298.732 183.5 298.732 184.04ZM313.407 177.14C314.047 177.3 314.527 177.8 314.527 178.54C314.527 179.32 313.987 179.86 313.287 179.86C313.147 179.86 312.847 179.82 312.667 179.82C311.307 179.82 310.267 180.92 310.267 182.9V185.58C310.387 187.58 307.307 187.58 307.427 185.58V178.62C307.427 177.68 308.047 177.1 308.847 177.1C309.587 177.1 310.127 177.58 310.227 178.28C310.787 177.5 311.747 177.06 312.607 177.06C312.947 177.06 313.207 177.08 313.407 177.14ZM81.1593 208.76C80.1793 207.78 79.6793 206.56 79.6793 205.1C79.6793 203.64 80.1793 202.42 81.1593 201.44C82.1593 200.46 83.3993 199.96 84.8593 199.96C86.3193 199.96 87.5593 200.46 88.5393 201.44C89.5393 202.42 90.0393 203.64 90.0393 205.1C90.0393 206.56 89.5393 207.78 88.5593 208.76C87.5793 209.74 86.3393 210.22 84.8593 210.22C83.3793 210.22 82.1393 209.74 81.1593 208.76ZM83.2193 203.32C82.7993 203.78 82.5793 204.38 82.5793 205.1C82.5793 205.82 82.7993 206.42 83.2193 206.88C83.6393 207.34 84.1993 207.58 84.8593 207.58C85.5193 207.58 86.0793 207.34 86.4993 206.88C86.9193 206.42 87.1393 205.82 87.1393 205.1C87.1393 204.38 86.9193 203.78 86.4993 203.32C86.0793 202.86 85.5193 202.62 84.8593 202.62C84.1993 202.62 83.6393 202.86 83.2193 203.32ZM92.4073 212.46V201.6C92.4073 200.64 93.0273 200.08 93.8273 200.08C94.5073 200.08 94.9473 200.38 95.1473 201C95.6473 200.38 96.7073 199.96 97.7673 199.96C99.1473 199.96 100.307 200.44 101.247 201.38C102.187 202.32 102.667 203.56 102.667 205.1C102.667 206.62 102.187 207.86 101.247 208.8C100.307 209.74 99.1473 210.22 97.7673 210.22C96.7473 210.22 95.9073 209.94 95.2473 209.36V212.46C95.3673 214.46 92.2873 214.46 92.4073 212.46ZM95.8473 203.26C95.4273 203.74 95.2073 204.36 95.2073 205.1C95.2073 205.84 95.4273 206.46 95.8473 206.94C96.2873 207.42 96.8273 207.66 97.4873 207.66C98.1473 207.66 98.6873 207.42 99.1073 206.94C99.5473 206.46 99.7673 205.84 99.7673 205.1C99.7673 204.36 99.5473 203.74 99.1073 203.26C98.6873 202.78 98.1473 202.54 97.4873 202.54C96.8273 202.54 96.2873 202.78 95.8473 203.26ZM106.042 208.76C105.062 207.78 104.562 206.56 104.562 205.1C104.562 203.64 105.062 202.42 106.042 201.44C107.042 200.46 108.282 199.96 109.742 199.96C111.202 199.96 112.442 200.46 113.422 201.44C114.422 202.42 114.922 203.64 114.922 205.1C114.922 206.56 114.422 207.78 113.442 208.76C112.462 209.74 111.222 210.22 109.742 210.22C108.262 210.22 107.022 209.74 106.042 208.76ZM108.102 203.32C107.682 203.78 107.462 204.38 107.462 205.1C107.462 205.82 107.682 206.42 108.102 206.88C108.522 207.34 109.082 207.58 109.742 207.58C110.402 207.58 110.962 207.34 111.382 206.88C111.802 206.42 112.022 205.82 112.022 205.1C112.022 204.38 111.802 203.78 111.382 203.32C110.962 202.86 110.402 202.62 109.742 202.62C109.082 202.62 108.522 202.86 108.102 203.32ZM123.27 200.14C123.91 200.3 124.39 200.8 124.39 201.54C124.39 202.32 123.85 202.86 123.15 202.86C123.01 202.86 122.71 202.82 122.53 202.82C121.17 202.82 120.13 203.92 120.13 205.9V208.58C120.25 210.58 117.17 210.58 117.29 208.58V201.62C117.29 200.68 117.91 200.1 118.71 200.1C119.45 200.1 119.99 200.58 120.09 201.28C120.65 200.5 121.61 200.06 122.47 200.06C122.81 200.06 123.07 200.08 123.27 200.14ZM130.494 207.4C131.394 207.5 131.874 208 131.874 208.74C131.874 209.48 131.334 210.04 130.354 210.04H130.094C127.814 210.04 126.674 208.88 126.674 206.54V202.82H126.314C125.434 202.82 124.894 202.26 124.894 201.52C124.894 200.78 125.434 200.2 126.314 200.2H126.674V198.88C126.554 196.88 129.634 196.88 129.494 198.88V200.2H130.454C131.334 200.2 131.874 200.78 131.874 201.52C131.874 202.26 131.334 202.82 130.454 202.82H129.494V206.2C129.494 207.02 129.834 207.34 130.494 207.4ZM142.883 201.62V208.58C142.883 209.52 142.263 210.1 141.463 210.1C140.823 210.1 140.383 209.8 140.163 209.22C139.603 209.88 138.803 210.22 137.743 210.22C135.343 210.22 134.003 208.68 134.003 205.9V201.62C133.883 199.62 136.963 199.62 136.843 201.62V205.68C136.843 206.96 137.343 207.6 138.343 207.6C139.603 207.6 140.043 206.72 140.043 205.1V201.62C139.923 199.62 143.003 199.62 142.883 201.62ZM146.04 208.58V201.62C146.04 200.68 146.66 200.1 147.46 200.1C148.12 200.1 148.56 200.4 148.78 200.98C149.36 200.3 150.14 199.96 151.16 199.96C153.58 199.96 155.14 201.56 155.14 204.3V208.58C155.14 209.52 154.54 210.1 153.72 210.1C152.9 210.1 152.3 209.52 152.3 208.58V204.52C152.3 203.4 151.78 202.6 150.68 202.6C149.48 202.6 148.88 203.44 148.88 205.1V208.58C149 210.58 145.92 210.58 146.04 208.58ZM157.932 197.42C157.932 196.48 158.672 195.76 159.572 195.76C160.512 195.76 161.232 196.48 161.232 197.42C161.232 198.32 160.472 199.06 159.572 199.06C158.672 199.06 157.932 198.32 157.932 197.42ZM160.992 208.58C160.992 209.52 160.392 210.1 159.572 210.1C158.752 210.1 158.152 209.52 158.152 208.58V201.62C158.152 200.68 158.752 200.1 159.572 200.1C160.392 200.1 160.992 200.68 160.992 201.62V208.58ZM173.708 197.42V208.58C173.708 209.52 173.088 210.1 172.288 210.1C171.608 210.1 171.168 209.8 170.968 209.18C170.468 209.8 169.408 210.22 168.348 210.22C166.968 210.22 165.788 209.76 164.848 208.82C163.908 207.88 163.448 206.64 163.448 205.1C163.448 203.58 163.908 202.34 164.848 201.4C165.788 200.44 166.968 199.96 168.348 199.96C169.368 199.96 170.208 200.24 170.868 200.82V197.42C170.748 195.42 173.828 195.42 173.708 197.42ZM170.248 206.94C170.688 206.46 170.908 205.84 170.908 205.1C170.908 204.36 170.688 203.74 170.248 203.26C169.828 202.78 169.288 202.54 168.628 202.54C167.968 202.54 167.428 202.78 166.988 203.26C166.568 203.74 166.348 204.36 166.348 205.1C166.348 205.84 166.568 206.46 166.988 206.94C167.428 207.42 167.968 207.66 168.628 207.66C169.288 207.66 169.828 207.42 170.248 206.94ZM177.126 200.98C177.986 200.3 179.126 199.96 180.506 199.96C181.726 199.96 182.726 200.32 183.506 201.02C184.286 201.72 184.666 202.66 184.666 203.88V208.58C184.666 209.52 184.046 210.1 183.246 210.1C182.586 210.1 182.146 209.8 181.926 209.2C181.246 209.88 180.406 210.22 179.426 210.22C178.446 210.22 177.666 209.94 177.046 209.38C176.426 208.8 176.126 208.08 176.126 207.2C176.126 206.18 176.486 205.42 177.226 204.9C177.966 204.38 178.906 204.1 180.006 204.06L181.806 203.98C181.806 202.98 181.306 202.48 180.306 202.48C179.706 202.48 179.166 202.64 178.666 202.98C177.926 203.48 177.206 203.42 176.786 202.86C176.326 202.32 176.466 201.52 177.126 200.98ZM178.986 207.04C178.986 207.52 179.406 207.82 180.126 207.82C180.706 207.82 181.266 207.62 181.806 207.22V206.06L180.546 206.16C179.506 206.22 178.986 206.5 178.986 207.04ZM197.146 197.42V208.58C197.146 209.52 196.526 210.1 195.726 210.1C195.046 210.1 194.606 209.8 194.406 209.18C193.906 209.8 192.846 210.22 191.786 210.22C190.406 210.22 189.226 209.76 188.286 208.82C187.346 207.88 186.886 206.64 186.886 205.1C186.886 203.58 187.346 202.34 188.286 201.4C189.226 200.44 190.406 199.96 191.786 199.96C192.806 199.96 193.646 200.24 194.306 200.82V197.42C194.186 195.42 197.266 195.42 197.146 197.42ZM193.686 206.94C194.126 206.46 194.346 205.84 194.346 205.1C194.346 204.36 194.126 203.74 193.686 203.26C193.266 202.78 192.726 202.54 192.066 202.54C191.406 202.54 190.866 202.78 190.426 203.26C190.006 203.74 189.786 204.36 189.786 205.1C189.786 205.84 190.006 206.46 190.426 206.94C190.866 207.42 191.406 207.66 192.066 207.66C192.726 207.66 193.266 207.42 193.686 206.94ZM208.984 204.26C208.984 205.3 208.464 205.82 207.404 205.82H202.384C202.544 206.88 203.364 207.62 204.584 207.62C205.264 207.62 205.844 207.42 206.344 207.02C207.124 206.46 207.844 206.64 208.344 207.3C208.804 207.86 208.664 208.66 207.924 209.24C207.064 209.9 205.964 210.22 204.664 210.22C203.164 210.22 201.944 209.76 200.964 208.84C199.984 207.9 199.504 206.68 199.504 205.16C199.504 203.66 199.944 202.42 200.844 201.44C201.744 200.46 202.904 199.96 204.324 199.96C205.304 199.96 206.164 200.2 206.904 200.66C208.404 201.6 208.984 202.92 208.984 204.26ZM204.384 202.46C203.364 202.46 202.704 203.06 202.524 203.92H206.044C205.984 203.1 205.324 202.46 204.384 202.46ZM211.651 209.14C210.991 208.56 210.911 207.8 211.411 207.24C211.951 206.64 212.571 206.62 213.291 207.2C213.831 207.62 214.551 207.84 215.431 207.84C216.051 207.84 216.531 207.62 216.531 207.24C216.531 206.92 216.311 206.76 215.651 206.58L214.551 206.26C212.371 205.64 211.351 204.64 211.351 203.06C211.351 202.12 211.711 201.38 212.451 200.82C213.191 200.24 214.091 199.96 215.151 199.96C216.291 199.96 217.251 200.2 218.051 200.7C218.771 201.18 218.951 201.9 218.571 202.52C218.151 203.16 217.471 203.34 216.691 202.88C216.171 202.54 215.611 202.38 215.031 202.38C214.471 202.38 214.111 202.6 214.111 202.92C214.111 203.22 214.331 203.34 214.811 203.48L216.071 203.82C218.071 204.38 219.291 205.24 219.291 207.06C219.291 208.92 217.691 210.22 215.191 210.22C213.691 210.22 212.511 209.86 211.651 209.14ZM236.833 197.42V208.58C236.833 209.52 236.213 210.1 235.413 210.1C234.733 210.1 234.293 209.8 234.093 209.18C233.593 209.8 232.533 210.22 231.473 210.22C230.093 210.22 228.913 209.76 227.973 208.82C227.033 207.88 226.573 206.64 226.573 205.1C226.573 203.58 227.033 202.34 227.973 201.4C228.913 200.44 230.093 199.96 231.473 199.96C232.493 199.96 233.333 200.24 233.993 200.82V197.42C233.873 195.42 236.953 195.42 236.833 197.42ZM233.373 206.94C233.813 206.46 234.033 205.84 234.033 205.1C234.033 204.36 233.813 203.74 233.373 203.26C232.953 202.78 232.413 202.54 231.753 202.54C231.093 202.54 230.553 202.78 230.113 203.26C229.693 203.74 229.473 204.36 229.473 205.1C229.473 205.84 229.693 206.46 230.113 206.94C230.553 207.42 231.093 207.66 231.753 207.66C232.413 207.66 232.953 207.42 233.373 206.94ZM248.671 204.26C248.671 205.3 248.151 205.82 247.091 205.82H242.071C242.231 206.88 243.051 207.62 244.271 207.62C244.951 207.62 245.531 207.42 246.031 207.02C246.811 206.46 247.531 206.64 248.031 207.3C248.491 207.86 248.351 208.66 247.611 209.24C246.751 209.9 245.651 210.22 244.351 210.22C242.851 210.22 241.631 209.76 240.651 208.84C239.671 207.9 239.191 206.68 239.191 205.16C239.191 203.66 239.631 202.42 240.531 201.44C241.431 200.46 242.591 199.96 244.011 199.96C244.991 199.96 245.851 200.2 246.591 200.66C248.091 201.6 248.671 202.92 248.671 204.26ZM244.071 202.46C243.051 202.46 242.391 203.06 242.211 203.92H245.731C245.671 203.1 245.011 202.46 244.071 202.46ZM257.185 200.98C258.045 200.3 259.185 199.96 260.565 199.96C261.785 199.96 262.785 200.32 263.565 201.02C264.345 201.72 264.725 202.66 264.725 203.88V208.58C264.725 209.52 264.105 210.1 263.305 210.1C262.645 210.1 262.205 209.8 261.985 209.2C261.305 209.88 260.465 210.22 259.485 210.22C258.505 210.22 257.725 209.94 257.105 209.38C256.485 208.8 256.185 208.08 256.185 207.2C256.185 206.18 256.545 205.42 257.285 204.9C258.025 204.38 258.965 204.1 260.065 204.06L261.865 203.98C261.865 202.98 261.365 202.48 260.365 202.48C259.765 202.48 259.225 202.64 258.725 202.98C257.985 203.48 257.265 203.42 256.845 202.86C256.385 202.32 256.525 201.52 257.185 200.98ZM259.045 207.04C259.045 207.52 259.465 207.82 260.185 207.82C260.765 207.82 261.325 207.62 261.865 207.22V206.06L260.605 206.16C259.565 206.22 259.045 206.5 259.045 207.04ZM273.664 203.12C273.204 202.78 272.724 202.6 272.224 202.6C270.804 202.6 269.844 203.64 269.844 205.1C269.844 206.56 270.804 207.6 272.224 207.6C272.764 207.6 273.304 207.38 273.844 206.96C274.624 206.4 275.344 206.58 275.844 207.24C276.304 207.8 276.164 208.6 275.424 209.18C274.504 209.88 273.404 210.22 272.124 210.22C270.644 210.22 269.404 209.74 268.424 208.76C267.444 207.78 266.944 206.56 266.944 205.1C266.944 203.64 267.444 202.42 268.424 201.44C269.424 200.46 270.664 199.96 272.124 199.96C273.264 199.96 274.264 200.26 275.104 200.88C275.844 201.46 276.044 202.3 275.624 202.86C275.164 203.5 274.444 203.66 273.664 203.12ZM284.465 203.12C284.005 202.78 283.525 202.6 283.025 202.6C281.605 202.6 280.645 203.64 280.645 205.1C280.645 206.56 281.605 207.6 283.025 207.6C283.565 207.6 284.105 207.38 284.645 206.96C285.425 206.4 286.145 206.58 286.645 207.24C287.105 207.8 286.965 208.6 286.225 209.18C285.305 209.88 284.205 210.22 282.925 210.22C281.445 210.22 280.205 209.74 279.225 208.76C278.245 207.78 277.745 206.56 277.745 205.1C277.745 203.64 278.245 202.42 279.225 201.44C280.225 200.46 281.465 199.96 282.925 199.96C284.065 199.96 285.065 200.26 285.905 200.88C286.645 201.46 286.845 202.3 286.425 202.86C285.965 203.5 285.245 203.66 284.465 203.12ZM298.046 204.26C298.046 205.3 297.526 205.82 296.466 205.82H291.446C291.606 206.88 292.426 207.62 293.646 207.62C294.326 207.62 294.906 207.42 295.406 207.02C296.186 206.46 296.906 206.64 297.406 207.3C297.866 207.86 297.726 208.66 296.986 209.24C296.126 209.9 295.026 210.22 293.726 210.22C292.226 210.22 291.006 209.76 290.026 208.84C289.046 207.9 288.566 206.68 288.566 205.16C288.566 203.66 289.006 202.42 289.906 201.44C290.806 200.46 291.966 199.96 293.386 199.96C294.366 199.96 295.226 200.2 295.966 200.66C297.466 201.6 298.046 202.92 298.046 204.26ZM293.446 202.46C292.426 202.46 291.766 203.06 291.586 203.92H295.106C295.046 203.1 294.386 202.46 293.446 202.46ZM300.714 209.14C300.054 208.56 299.974 207.8 300.474 207.24C301.014 206.64 301.634 206.62 302.354 207.2C302.894 207.62 303.614 207.84 304.494 207.84C305.114 207.84 305.594 207.62 305.594 207.24C305.594 206.92 305.374 206.76 304.714 206.58L303.614 206.26C301.434 205.64 300.414 204.64 300.414 203.06C300.414 202.12 300.774 201.38 301.514 200.82C302.254 200.24 303.154 199.96 304.214 199.96C305.354 199.96 306.314 200.2 307.114 200.7C307.834 201.18 308.014 201.9 307.634 202.52C307.214 203.16 306.534 203.34 305.754 202.88C305.234 202.54 304.674 202.38 304.094 202.38C303.534 202.38 303.174 202.6 303.174 202.92C303.174 203.22 303.394 203.34 303.874 203.48L305.134 203.82C307.134 204.38 308.354 205.24 308.354 207.06C308.354 208.92 306.754 210.22 304.254 210.22C302.754 210.22 301.574 209.86 300.714 209.14ZM311.433 208.76C310.453 207.78 309.953 206.56 309.953 205.1C309.953 203.64 310.453 202.42 311.433 201.44C312.433 200.46 313.673 199.96 315.133 199.96C316.593 199.96 317.833 200.46 318.813 201.44C319.813 202.42 320.313 203.64 320.313 205.1C320.313 206.56 319.813 207.78 318.833 208.76C317.853 209.74 316.613 210.22 315.133 210.22C313.653 210.22 312.413 209.74 311.433 208.76ZM313.493 203.32C313.073 203.78 312.853 204.38 312.853 205.1C312.853 205.82 313.073 206.42 313.493 206.88C313.913 207.34 314.473 207.58 315.133 207.58C315.793 207.58 316.353 207.34 316.773 206.88C317.193 206.42 317.413 205.82 317.413 205.1C317.413 204.38 317.193 203.78 316.773 203.32C316.353 202.86 315.793 202.62 315.133 202.62C314.473 202.62 313.913 202.86 313.493 203.32ZM80.2413 223.98C81.1013 223.3 82.2413 222.96 83.6213 222.96C84.8413 222.96 85.8413 223.32 86.6213 224.02C87.4013 224.72 87.7813 225.66 87.7813 226.88V231.58C87.7813 232.52 87.1613 233.1 86.3613 233.1C85.7013 233.1 85.2613 232.8 85.0413 232.2C84.3613 232.88 83.5213 233.22 82.5413 233.22C81.5613 233.22 80.7812 232.94 80.1613 232.38C79.5413 231.8 79.2413 231.08 79.2413 230.2C79.2413 229.18 79.6012 228.42 80.3413 227.9C81.0813 227.38 82.0213 227.1 83.1213 227.06L84.9213 226.98C84.9213 225.98 84.4213 225.48 83.4212 225.48C82.8213 225.48 82.2813 225.64 81.7813 225.98C81.0413 226.48 80.3213 226.42 79.9013 225.86C79.4413 225.32 79.5813 224.52 80.2413 223.98ZM82.1013 230.04C82.1013 230.52 82.5213 230.82 83.2413 230.82C83.8213 230.82 84.3813 230.62 84.9213 230.22V229.06L83.6613 229.16C82.6213 229.22 82.1013 229.5 82.1013 230.04ZM99.007 220.42V231.58C99.127 233.58 96.047 233.58 96.167 231.58V220.42C96.047 218.42 99.127 218.42 99.007 220.42ZM102.429 223.98C103.289 223.3 104.429 222.96 105.809 222.96C107.029 222.96 108.029 223.32 108.809 224.02C109.589 224.72 109.969 225.66 109.969 226.88V231.58C109.969 232.52 109.349 233.1 108.549 233.1C107.889 233.1 107.449 232.8 107.229 232.2C106.549 232.88 105.709 233.22 104.729 233.22C103.749 233.22 102.969 232.94 102.349 232.38C101.729 231.8 101.429 231.08 101.429 230.2C101.429 229.18 101.789 228.42 102.529 227.9C103.269 227.38 104.209 227.1 105.309 227.06L107.109 226.98C107.109 225.98 106.609 225.48 105.609 225.48C105.009 225.48 104.469 225.64 103.969 225.98C103.229 226.48 102.509 226.42 102.089 225.86C101.629 225.32 101.769 224.52 102.429 223.98ZM104.289 230.04C104.289 230.52 104.709 230.82 105.429 230.82C106.009 230.82 106.569 230.62 107.109 230.22V229.06L105.849 229.16C104.809 229.22 104.289 229.5 104.289 230.04ZM118.595 232.14C117.935 231.56 117.855 230.8 118.355 230.24C118.895 229.64 119.515 229.62 120.235 230.2C120.775 230.62 121.495 230.84 122.375 230.84C122.995 230.84 123.475 230.62 123.475 230.24C123.475 229.92 123.255 229.76 122.595 229.58L121.495 229.26C119.315 228.64 118.295 227.64 118.295 226.06C118.295 225.12 118.655 224.38 119.395 223.82C120.135 223.24 121.035 222.96 122.095 222.96C123.235 222.96 124.195 223.2 124.995 223.7C125.715 224.18 125.895 224.9 125.515 225.52C125.095 226.16 124.415 226.34 123.635 225.88C123.115 225.54 122.555 225.38 121.975 225.38C121.415 225.38 121.055 225.6 121.055 225.92C121.055 226.22 121.275 226.34 121.755 226.48L123.015 226.82C125.015 227.38 126.235 228.24 126.235 230.06C126.235 231.92 124.635 233.22 122.135 233.22C120.635 233.22 119.455 232.86 118.595 232.14ZM129.011 223.98C129.871 223.3 131.011 222.96 132.391 222.96C133.611 222.96 134.611 223.32 135.391 224.02C136.171 224.72 136.551 225.66 136.551 226.88V231.58C136.551 232.52 135.931 233.1 135.131 233.1C134.471 233.1 134.031 232.8 133.811 232.2C133.131 232.88 132.291 233.22 131.311 233.22C130.331 233.22 129.551 232.94 128.931 232.38C128.311 231.8 128.011 231.08 128.011 230.2C128.011 229.18 128.371 228.42 129.111 227.9C129.851 227.38 130.791 227.1 131.891 227.06L133.691 226.98C133.691 225.98 133.191 225.48 132.191 225.48C131.591 225.48 131.051 225.64 130.551 225.98C129.811 226.48 129.091 226.42 128.671 225.86C128.211 225.32 128.351 224.52 129.011 223.98ZM130.871 230.04C130.871 230.52 131.291 230.82 132.011 230.82C132.591 230.82 133.151 230.62 133.691 230.22V229.06L132.431 229.16C131.391 229.22 130.871 229.5 130.871 230.04ZM142.405 220.42V231.58C142.525 233.58 139.445 233.58 139.565 231.58V220.42C139.445 218.42 142.525 218.42 142.405 220.42ZM153.967 224.62V231.58C153.967 232.52 153.347 233.1 152.547 233.1C151.907 233.1 151.467 232.8 151.247 232.22C150.687 232.88 149.887 233.22 148.827 233.22C146.427 233.22 145.087 231.68 145.087 228.9V224.62C144.967 222.62 148.047 222.62 147.927 224.62V228.68C147.927 229.96 148.427 230.6 149.427 230.6C150.687 230.6 151.127 229.72 151.127 228.1V224.62C151.007 222.62 154.087 222.62 153.967 224.62ZM166.589 220.42V231.58C166.589 232.52 165.969 233.1 165.169 233.1C164.489 233.1 164.049 232.8 163.849 232.18C163.349 232.8 162.289 233.22 161.229 233.22C159.849 233.22 158.669 232.76 157.729 231.82C156.789 230.88 156.329 229.64 156.329 228.1C156.329 226.58 156.789 225.34 157.729 224.4C158.669 223.44 159.849 222.96 161.229 222.96C162.249 222.96 163.089 223.24 163.749 223.82V220.42C163.629 218.42 166.709 218.42 166.589 220.42ZM163.129 229.94C163.569 229.46 163.789 228.84 163.789 228.1C163.789 227.36 163.569 226.74 163.129 226.26C162.709 225.78 162.169 225.54 161.509 225.54C160.849 225.54 160.309 225.78 159.869 226.26C159.449 226.74 159.229 227.36 159.229 228.1C159.229 228.84 159.449 229.46 159.869 229.94C160.309 230.42 160.849 230.66 161.509 230.66C162.169 230.66 162.709 230.42 163.129 229.94ZM175.593 223.98C176.453 223.3 177.593 222.96 178.973 222.96C180.193 222.96 181.193 223.32 181.973 224.02C182.753 224.72 183.133 225.66 183.133 226.88V231.58C183.133 232.52 182.513 233.1 181.713 233.1C181.053 233.1 180.613 232.8 180.393 232.2C179.713 232.88 178.873 233.22 177.893 233.22C176.913 233.22 176.133 232.94 175.513 232.38C174.893 231.8 174.593 231.08 174.593 230.2C174.593 229.18 174.953 228.42 175.693 227.9C176.433 227.38 177.373 227.1 178.473 227.06L180.273 226.98C180.273 225.98 179.773 225.48 178.773 225.48C178.173 225.48 177.633 225.64 177.133 225.98C176.393 226.48 175.673 226.42 175.253 225.86C174.793 225.32 174.933 224.52 175.593 223.98ZM177.453 230.04C177.453 230.52 177.873 230.82 178.593 230.82C179.173 230.82 179.733 230.62 180.273 230.22V229.06L179.013 229.16C177.973 229.22 177.453 229.5 177.453 230.04ZM191.519 231.58V224.62C191.519 223.68 192.139 223.1 192.939 223.1C193.599 223.1 194.039 223.4 194.259 223.98C194.839 223.3 195.619 222.96 196.639 222.96C199.059 222.96 200.619 224.56 200.619 227.3V231.58C200.619 232.52 200.019 233.1 199.199 233.1C198.379 233.1 197.779 232.52 197.779 231.58V227.52C197.779 226.4 197.259 225.6 196.159 225.6C194.959 225.6 194.359 226.44 194.359 228.1V231.58C194.479 233.58 191.399 233.58 191.519 231.58ZM203.41 220.42C203.41 219.48 204.15 218.76 205.05 218.76C205.99 218.76 206.71 219.48 206.71 220.42C206.71 221.32 205.95 222.06 205.05 222.06C204.15 222.06 203.41 221.32 203.41 220.42ZM206.47 231.58C206.47 232.52 205.87 233.1 205.05 233.1C204.23 233.1 203.63 232.52 203.63 231.58V224.62C203.63 223.68 204.23 223.1 205.05 223.1C205.87 223.1 206.47 223.68 206.47 224.62V231.58ZM209.507 224.62C209.507 223.68 210.127 223.1 210.927 223.1C211.587 223.1 212.027 223.4 212.247 223.98C212.827 223.3 213.607 222.96 214.627 222.96C217.047 222.96 218.607 224.56 218.607 227.3V231.58C218.607 232.52 218.007 233.1 217.187 233.1C216.367 233.1 215.767 232.52 215.767 231.58V227.52C215.767 226.4 215.247 225.6 214.147 225.6C212.947 225.6 212.347 226.44 212.347 228.1V231.58C212.467 233.58 209.387 233.58 209.507 231.58V224.62ZM213.467 219.12L214.287 219.38C214.547 219.46 214.747 219.5 214.887 219.5C215.087 219.5 215.247 219.4 215.387 219.22C215.567 218.98 215.847 218.86 216.207 218.86C216.847 218.86 217.147 219.26 217.147 219.88C217.147 220.68 216.367 221.48 215.307 221.48C215.207 221.48 214.927 221.42 214.447 221.32L213.627 221.06C213.367 220.98 213.167 220.94 213.027 220.94C212.827 220.94 212.667 221.04 212.527 221.22C212.347 221.46 212.067 221.58 211.707 221.58C211.067 221.58 210.767 221.18 210.767 220.56C210.767 219.76 211.547 218.96 212.607 218.96C212.707 218.96 212.987 219.02 213.467 219.12ZM222.224 231.76C221.244 230.78 220.744 229.56 220.744 228.1C220.744 226.64 221.244 225.42 222.224 224.44C223.224 223.46 224.464 222.96 225.924 222.96C227.384 222.96 228.624 223.46 229.604 224.44C230.604 225.42 231.104 226.64 231.104 228.1C231.104 229.56 230.604 230.78 229.624 231.76C228.644 232.74 227.404 233.22 225.924 233.22C224.444 233.22 223.204 232.74 222.224 231.76ZM224.284 226.32C223.864 226.78 223.644 227.38 223.644 228.1C223.644 228.82 223.864 229.42 224.284 229.88C224.704 230.34 225.264 230.58 225.924 230.58C226.584 230.58 227.144 230.34 227.564 229.88C227.984 229.42 228.204 228.82 228.204 228.1C228.204 227.38 227.984 226.78 227.564 226.32C227.144 225.86 226.584 225.62 225.924 225.62C225.264 225.62 224.704 225.86 224.284 226.32ZM233.712 232.14C233.052 231.56 232.972 230.8 233.472 230.24C234.012 229.64 234.632 229.62 235.352 230.2C235.892 230.62 236.612 230.84 237.492 230.84C238.112 230.84 238.592 230.62 238.592 230.24C238.592 229.92 238.372 229.76 237.712 229.58L236.612 229.26C234.432 228.64 233.412 227.64 233.412 226.06C233.412 225.12 233.772 224.38 234.512 223.82C235.252 223.24 236.152 222.96 237.212 222.96C238.352 222.96 239.312 223.2 240.112 223.7C240.832 224.18 241.012 224.9 240.632 225.52C240.212 226.16 239.532 226.34 238.752 225.88C238.232 225.54 237.672 225.38 237.092 225.38C236.532 225.38 236.172 225.6 236.172 225.92C236.172 226.22 236.392 226.34 236.872 226.48L238.132 226.82C240.132 227.38 241.352 228.24 241.352 230.06C241.352 231.92 239.752 233.22 237.252 233.22C235.752 233.22 234.572 232.86 233.712 232.14ZM246.576 232.44L245.236 235.3C244.936 235.94 244.356 236.2 243.736 236.04C243.016 235.82 242.596 235.16 242.896 234.38L243.976 231.44C244.296 230.56 245.016 230.2 245.836 230.46C246.616 230.7 246.956 231.58 246.576 232.44ZM255.483 231.58V224.62C255.483 223.68 256.103 223.1 256.903 223.1C257.563 223.1 258.003 223.4 258.223 223.98C258.803 223.3 259.583 222.96 260.603 222.96C263.023 222.96 264.583 224.56 264.583 227.3V231.58C264.583 232.52 263.983 233.1 263.163 233.1C262.343 233.1 261.743 232.52 261.743 231.58V227.52C261.743 226.4 261.223 225.6 260.123 225.6C258.923 225.6 258.323 226.44 258.323 228.1V231.58C258.443 233.58 255.363 233.58 255.483 231.58ZM267.375 220.42C267.375 219.48 268.115 218.76 269.015 218.76C269.955 218.76 270.675 219.48 270.675 220.42C270.675 221.32 269.915 222.06 269.015 222.06C268.115 222.06 267.375 221.32 267.375 220.42ZM270.435 231.58C270.435 232.52 269.835 233.1 269.015 233.1C268.195 233.1 267.595 232.52 267.595 231.58V224.62C267.595 223.68 268.195 223.1 269.015 223.1C269.835 223.1 270.435 223.68 270.435 224.62V231.58ZM273.472 224.62C273.472 223.68 274.092 223.1 274.892 223.1C275.552 223.1 275.992 223.4 276.212 223.98C276.792 223.3 277.572 222.96 278.592 222.96C281.012 222.96 282.572 224.56 282.572 227.3V231.58C282.572 232.52 281.972 233.1 281.152 233.1C280.332 233.1 279.732 232.52 279.732 231.58V227.52C279.732 226.4 279.212 225.6 278.112 225.6C276.912 225.6 276.312 226.44 276.312 228.1V231.58C276.432 233.58 273.352 233.58 273.472 231.58V224.62ZM277.432 219.12L278.252 219.38C278.512 219.46 278.712 219.5 278.852 219.5C279.052 219.5 279.212 219.4 279.352 219.22C279.532 218.98 279.812 218.86 280.172 218.86C280.812 218.86 281.112 219.26 281.112 219.88C281.112 220.68 280.332 221.48 279.272 221.48C279.172 221.48 278.892 221.42 278.412 221.32L277.592 221.06C277.332 220.98 277.132 220.94 276.992 220.94C276.792 220.94 276.632 221.04 276.492 221.22C276.312 221.46 276.032 221.58 275.672 221.58C275.032 221.58 274.732 221.18 274.732 220.56C274.732 219.76 275.512 218.96 276.572 218.96C276.672 218.96 276.952 219.02 277.432 219.12ZM285.769 223.98C286.629 223.3 287.769 222.96 289.149 222.96C290.369 222.96 291.369 223.32 292.149 224.02C292.929 224.72 293.309 225.66 293.309 226.88V231.58C293.309 232.52 292.689 233.1 291.889 233.1C291.229 233.1 290.789 232.8 290.569 232.2C289.889 232.88 289.049 233.22 288.069 233.22C287.089 233.22 286.309 232.94 285.689 232.38C285.069 231.8 284.769 231.08 284.769 230.2C284.769 229.18 285.129 228.42 285.869 227.9C286.609 227.38 287.549 227.1 288.649 227.06L290.449 226.98C290.449 225.98 289.949 225.48 288.949 225.48C288.349 225.48 287.809 225.64 287.309 225.98C286.569 226.48 285.849 226.42 285.429 225.86C284.969 225.32 285.109 224.52 285.769 223.98ZM287.629 230.04C287.629 230.52 288.049 230.82 288.769 230.82C289.349 230.82 289.909 230.62 290.449 230.22V229.06L289.189 229.16C288.149 229.22 287.629 229.5 287.629 230.04ZM296.348 232.14C295.688 231.56 295.608 230.8 296.108 230.24C296.648 229.64 297.268 229.62 297.988 230.2C298.528 230.62 299.248 230.84 300.128 230.84C300.748 230.84 301.228 230.62 301.228 230.24C301.228 229.92 301.008 229.76 300.348 229.58L299.248 229.26C297.068 228.64 296.048 227.64 296.048 226.06C296.048 225.12 296.408 224.38 297.148 223.82C297.888 223.24 298.788 222.96 299.848 222.96C300.988 222.96 301.948 223.2 302.748 223.7C303.468 224.18 303.648 224.9 303.268 225.52C302.848 226.16 302.168 226.34 301.388 225.88C300.868 225.54 300.308 225.38 299.728 225.38C299.168 225.38 298.808 225.6 298.808 225.92C298.808 226.22 299.028 226.34 299.508 226.48L300.768 226.82C302.768 227.38 303.988 228.24 303.988 230.06C303.988 231.92 302.388 233.22 299.888 233.22C298.388 233.22 297.208 232.86 296.348 232.14ZM313.891 235.04L314.771 233L311.751 225.12C311.431 224.24 311.851 223.4 312.651 223.16C313.391 222.94 314.111 223.3 314.431 224.2L316.311 229.26L318.211 224.2C318.531 223.3 319.251 222.94 319.991 223.16C320.791 223.42 321.251 224.16 320.911 225.02L316.591 235.86C316.211 236.8 315.631 237.14 314.811 236.9C313.991 236.64 313.511 235.9 313.891 235.04ZM104.968 246.98C105.828 246.3 106.968 245.96 108.348 245.96C109.568 245.96 110.568 246.32 111.348 247.02C112.128 247.72 112.508 248.66 112.508 249.88V254.58C112.508 255.52 111.888 256.1 111.088 256.1C110.428 256.1 109.988 255.8 109.768 255.2C109.088 255.88 108.248 256.22 107.268 256.22C106.288 256.22 105.508 255.94 104.888 255.38C104.268 254.8 103.968 254.08 103.968 253.2C103.968 252.18 104.328 251.42 105.068 250.9C105.808 250.38 106.748 250.1 107.848 250.06L109.648 249.98C109.648 248.98 109.148 248.48 108.148 248.48C107.548 248.48 107.008 248.64 106.508 248.98C105.768 249.48 105.048 249.42 104.628 248.86C104.168 248.32 104.308 247.52 104.968 246.98ZM106.828 253.04C106.828 253.52 107.248 253.82 107.968 253.82C108.548 253.82 109.108 253.62 109.648 253.22V252.06L108.388 252.16C107.348 252.22 106.828 252.5 106.828 253.04ZM124.988 243.42V254.58C124.988 255.52 124.368 256.1 123.568 256.1C122.888 256.1 122.448 255.8 122.248 255.18C121.748 255.8 120.688 256.22 119.628 256.22C118.248 256.22 117.068 255.76 116.128 254.82C115.188 253.88 114.728 252.64 114.728 251.1C114.728 249.58 115.188 248.34 116.128 247.4C117.068 246.44 118.248 245.96 119.628 245.96C120.648 245.96 121.488 246.24 122.148 246.82V243.42C122.028 241.42 125.108 241.42 124.988 243.42ZM121.528 252.94C121.968 252.46 122.188 251.84 122.188 251.1C122.188 250.36 121.968 249.74 121.528 249.26C121.108 248.78 120.568 248.54 119.908 248.54C119.248 248.54 118.708 248.78 118.268 249.26C117.848 249.74 117.628 250.36 117.628 251.1C117.628 251.84 117.848 252.46 118.268 252.94C118.708 253.42 119.248 253.66 119.908 253.66C120.568 253.66 121.108 253.42 121.528 252.94ZM128.825 254.76C127.845 253.78 127.345 252.56 127.345 251.1C127.345 249.64 127.845 248.42 128.825 247.44C129.825 246.46 131.065 245.96 132.525 245.96C133.985 245.96 135.225 246.46 136.205 247.44C137.205 248.42 137.705 249.64 137.705 251.1C137.705 252.56 137.205 253.78 136.225 254.76C135.245 255.74 134.005 256.22 132.525 256.22C131.045 256.22 129.805 255.74 128.825 254.76ZM130.885 249.32C130.465 249.78 130.245 250.38 130.245 251.1C130.245 251.82 130.465 252.42 130.885 252.88C131.305 253.34 131.865 253.58 132.525 253.58C133.185 253.58 133.745 253.34 134.165 252.88C134.585 252.42 134.805 251.82 134.805 251.1C134.805 250.38 134.585 249.78 134.165 249.32C133.745 248.86 133.185 248.62 132.525 248.62C131.865 248.62 131.305 248.86 130.885 249.32ZM142.913 243.42V254.58C143.033 256.58 139.953 256.58 140.073 254.58V243.42C139.953 241.42 143.033 241.42 142.913 243.42ZM154.755 250.26C154.755 251.3 154.235 251.82 153.175 251.82H148.155C148.315 252.88 149.135 253.62 150.355 253.62C151.035 253.62 151.615 253.42 152.115 253.02C152.895 252.46 153.615 252.64 154.115 253.3C154.575 253.86 154.435 254.66 153.695 255.24C152.835 255.9 151.735 256.22 150.435 256.22C148.935 256.22 147.715 255.76 146.735 254.84C145.755 253.9 145.275 252.68 145.275 251.16C145.275 249.66 145.715 248.42 146.615 247.44C147.515 246.46 148.675 245.96 150.095 245.96C151.075 245.96 151.935 246.2 152.675 246.66C154.175 247.6 154.755 248.92 154.755 250.26ZM150.155 248.46C149.135 248.46 148.475 249.06 148.295 249.92H151.815C151.755 249.1 151.095 248.46 150.155 248.46ZM157.423 255.14C156.763 254.56 156.683 253.8 157.183 253.24C157.723 252.64 158.343 252.62 159.063 253.2C159.603 253.62 160.323 253.84 161.203 253.84C161.823 253.84 162.303 253.62 162.303 253.24C162.303 252.92 162.083 252.76 161.423 252.58L160.323 252.26C158.143 251.64 157.123 250.64 157.123 249.06C157.123 248.12 157.483 247.38 158.223 246.82C158.963 246.24 159.863 245.96 160.923 245.96C162.063 245.96 163.023 246.2 163.823 246.7C164.543 247.18 164.723 247.9 164.343 248.52C163.923 249.16 163.243 249.34 162.463 248.88C161.943 248.54 161.383 248.38 160.803 248.38C160.243 248.38 159.883 248.6 159.883 248.92C159.883 249.22 160.103 249.34 160.583 249.48L161.843 249.82C163.843 250.38 165.063 251.24 165.063 253.06C165.063 254.92 163.463 256.22 160.963 256.22C159.463 256.22 158.283 255.86 157.423 255.14ZM173.362 249.12C172.902 248.78 172.422 248.6 171.922 248.6C170.502 248.6 169.542 249.64 169.542 251.1C169.542 252.56 170.502 253.6 171.922 253.6C172.462 253.6 173.002 253.38 173.542 252.96C174.322 252.4 175.042 252.58 175.542 253.24C176.002 253.8 175.862 254.6 175.122 255.18C174.202 255.88 173.102 256.22 171.822 256.22C170.342 256.22 169.102 255.74 168.122 254.76C167.142 253.78 166.642 252.56 166.642 251.1C166.642 249.64 167.142 248.42 168.122 247.44C169.122 246.46 170.362 245.96 171.822 245.96C172.962 245.96 173.962 246.26 174.802 246.88C175.542 247.46 175.742 248.3 175.322 248.86C174.862 249.5 174.142 249.66 173.362 249.12ZM186.943 250.26C186.943 251.3 186.423 251.82 185.363 251.82H180.343C180.503 252.88 181.323 253.62 182.543 253.62C183.223 253.62 183.803 253.42 184.303 253.02C185.083 252.46 185.803 252.64 186.303 253.3C186.763 253.86 186.623 254.66 185.883 255.24C185.023 255.9 183.923 256.22 182.623 256.22C181.123 256.22 179.903 255.76 178.923 254.84C177.943 253.9 177.463 252.68 177.463 251.16C177.463 249.66 177.903 248.42 178.803 247.44C179.703 246.46 180.863 245.96 182.283 245.96C183.263 245.96 184.123 246.2 184.863 246.66C186.363 247.6 186.943 248.92 186.943 250.26ZM182.343 248.46C181.323 248.46 180.663 249.06 180.483 249.92H184.003C183.943 249.1 183.283 248.46 182.343 248.46ZM189.37 254.58V247.62C189.37 246.68 189.99 246.1 190.79 246.1C191.45 246.1 191.89 246.4 192.11 246.98C192.69 246.3 193.47 245.96 194.49 245.96C196.91 245.96 198.47 247.56 198.47 250.3V254.58C198.47 255.52 197.87 256.1 197.05 256.1C196.23 256.1 195.63 255.52 195.63 254.58V250.52C195.63 249.4 195.11 248.6 194.01 248.6C192.81 248.6 192.21 249.44 192.21 251.1V254.58C192.33 256.58 189.25 256.58 189.37 254.58ZM205.23 253.4C206.13 253.5 206.61 254 206.61 254.74C206.61 255.48 206.07 256.04 205.09 256.04H204.83C202.55 256.04 201.41 254.88 201.41 252.54V248.82H201.05C200.17 248.82 199.63 248.26 199.63 247.52C199.63 246.78 200.17 246.2 201.05 246.2H201.41V244.88C201.29 242.88 204.37 242.88 204.23 244.88V246.2H205.19C206.07 246.2 206.61 246.78 206.61 247.52C206.61 248.26 206.07 248.82 205.19 248.82H204.23V252.2C204.23 253.02 204.57 253.34 205.23 253.4ZM217.782 250.26C217.782 251.3 217.262 251.82 216.202 251.82H211.182C211.342 252.88 212.162 253.62 213.382 253.62C214.062 253.62 214.642 253.42 215.142 253.02C215.922 252.46 216.642 252.64 217.142 253.3C217.602 253.86 217.462 254.66 216.722 255.24C215.862 255.9 214.762 256.22 213.462 256.22C211.962 256.22 210.742 255.76 209.762 254.84C208.782 253.9 208.302 252.68 208.302 251.16C208.302 249.66 208.742 248.42 209.642 247.44C210.542 246.46 211.702 245.96 213.122 245.96C214.102 245.96 214.962 246.2 215.702 246.66C217.202 247.6 217.782 248.92 217.782 250.26ZM213.182 248.46C212.162 248.46 211.502 249.06 211.322 249.92H214.842C214.782 249.1 214.122 248.46 213.182 248.46ZM220.45 255.14C219.79 254.56 219.71 253.8 220.21 253.24C220.75 252.64 221.37 252.62 222.09 253.2C222.63 253.62 223.35 253.84 224.23 253.84C224.85 253.84 225.33 253.62 225.33 253.24C225.33 252.92 225.11 252.76 224.45 252.58L223.35 252.26C221.17 251.64 220.15 250.64 220.15 249.06C220.15 248.12 220.51 247.38 221.25 246.82C221.99 246.24 222.89 245.96 223.95 245.96C225.09 245.96 226.05 246.2 226.85 246.7C227.57 247.18 227.75 247.9 227.37 248.52C226.95 249.16 226.27 249.34 225.49 248.88C224.97 248.54 224.41 248.38 223.83 248.38C223.27 248.38 222.91 248.6 222.91 248.92C222.91 249.22 223.13 249.34 223.61 249.48L224.87 249.82C226.87 250.38 228.09 251.24 228.09 253.06C228.09 254.92 226.49 256.22 223.99 256.22C222.49 256.22 221.31 255.86 220.45 255.14ZM245.632 247.6V258.46C245.752 260.46 242.672 260.46 242.792 258.46V255.36C242.132 255.94 241.292 256.22 240.272 256.22C238.892 256.22 237.712 255.74 236.772 254.8C235.832 253.86 235.372 252.62 235.372 251.1C235.372 249.56 235.832 248.32 236.772 247.38C237.712 246.44 238.892 245.96 240.272 245.96C241.332 245.96 242.392 246.38 242.892 247C243.092 246.38 243.532 246.08 244.212 246.08C245.012 246.08 245.632 246.64 245.632 247.6ZM242.172 252.94C242.612 252.46 242.832 251.84 242.832 251.1C242.832 250.36 242.612 249.74 242.172 249.26C241.752 248.78 241.212 248.54 240.552 248.54C239.892 248.54 239.352 248.78 238.912 249.26C238.492 249.74 238.272 250.36 238.272 251.1C238.272 251.84 238.492 252.46 238.912 252.94C239.352 253.42 239.892 253.66 240.552 253.66C241.212 253.66 241.752 253.42 242.172 252.94ZM257.19 247.62V254.58C257.19 255.52 256.57 256.1 255.77 256.1C255.13 256.1 254.69 255.8 254.47 255.22C253.91 255.88 253.11 256.22 252.05 256.22C249.65 256.22 248.31 254.68 248.31 251.9V247.62C248.19 245.62 251.27 245.62 251.15 247.62V251.68C251.15 252.96 251.65 253.6 252.65 253.6C253.91 253.6 254.35 252.72 254.35 251.1V247.62C254.23 245.62 257.31 245.62 257.19 247.62ZM269.052 250.26C269.052 251.3 268.532 251.82 267.472 251.82H262.452C262.612 252.88 263.432 253.62 264.652 253.62C265.332 253.62 265.912 253.42 266.412 253.02C267.192 252.46 267.912 252.64 268.412 253.3C268.872 253.86 268.732 254.66 267.992 255.24C267.132 255.9 266.032 256.22 264.732 256.22C263.232 256.22 262.012 255.76 261.032 254.84C260.052 253.9 259.572 252.68 259.572 251.16C259.572 249.66 260.012 248.42 260.912 247.44C261.812 246.46 262.972 245.96 264.392 245.96C265.372 245.96 266.232 246.2 266.972 246.66C268.472 247.6 269.052 248.92 269.052 250.26ZM264.452 248.46C263.432 248.46 262.772 249.06 262.592 249.92H266.112C266.052 249.1 265.392 248.46 264.452 248.46ZM277.305 255.14C276.645 254.56 276.565 253.8 277.065 253.24C277.605 252.64 278.225 252.62 278.945 253.2C279.485 253.62 280.205 253.84 281.085 253.84C281.705 253.84 282.185 253.62 282.185 253.24C282.185 252.92 281.965 252.76 281.305 252.58L280.205 252.26C278.025 251.64 277.005 250.64 277.005 249.06C277.005 248.12 277.365 247.38 278.105 246.82C278.845 246.24 279.745 245.96 280.805 245.96C281.945 245.96 282.905 246.2 283.705 246.7C284.425 247.18 284.605 247.9 284.225 248.52C283.805 249.16 283.125 249.34 282.345 248.88C281.825 248.54 281.265 248.38 280.685 248.38C280.125 248.38 279.765 248.6 279.765 248.92C279.765 249.22 279.985 249.34 280.465 249.48L281.725 249.82C283.725 250.38 284.945 251.24 284.945 253.06C284.945 254.92 283.345 256.22 280.845 256.22C279.345 256.22 278.165 255.86 277.305 255.14ZM296.025 250.26C296.025 251.3 295.505 251.82 294.445 251.82H289.425C289.585 252.88 290.405 253.62 291.625 253.62C292.305 253.62 292.885 253.42 293.385 253.02C294.165 252.46 294.885 252.64 295.385 253.3C295.845 253.86 295.705 254.66 294.965 255.24C294.105 255.9 293.005 256.22 291.705 256.22C290.205 256.22 288.985 255.76 288.005 254.84C287.025 253.9 286.545 252.68 286.545 251.16C286.545 249.66 286.985 248.42 287.885 247.44C288.785 246.46 289.945 245.96 291.365 245.96C292.345 245.96 293.205 246.2 293.945 246.66C295.445 247.6 296.025 248.92 296.025 250.26ZM291.425 248.46C290.405 248.46 289.745 249.06 289.565 249.92H293.085C293.025 249.1 292.365 248.46 291.425 248.46ZM95.3702 273.26C95.3702 274.3 94.8502 274.82 93.7902 274.82H88.7702C88.9302 275.88 89.7502 276.62 90.9702 276.62C91.6502 276.62 92.2302 276.42 92.7302 276.02C93.5102 275.46 94.2302 275.64 94.7302 276.3C95.1902 276.86 95.0502 277.66 94.3102 278.24C93.4502 278.9 92.3502 279.22 91.0502 279.22C89.5502 279.22 88.3302 278.76 87.3502 277.84C86.3702 276.9 85.8902 275.68 85.8902 274.16C85.8902 272.66 86.3302 271.42 87.2302 270.44C88.1302 269.46 89.2902 268.96 90.7102 268.96C91.6902 268.96 92.5502 269.2 93.2902 269.66C94.7902 270.6 95.3702 271.92 95.3702 273.26ZM90.7702 271.46C89.7502 271.46 89.0902 272.06 88.9102 272.92H92.4302C92.3702 272.1 91.7102 271.46 90.7702 271.46ZM97.7979 277.58V270.62C97.7979 269.68 98.4179 269.1 99.2179 269.1C99.8779 269.1 100.318 269.4 100.538 269.98C101.118 269.3 101.898 268.96 102.918 268.96C105.338 268.96 106.898 270.56 106.898 273.3V277.58C106.898 278.52 106.298 279.1 105.478 279.1C104.658 279.1 104.058 278.52 104.058 277.58V273.52C104.058 272.4 103.538 271.6 102.438 271.6C101.238 271.6 100.638 272.44 100.638 274.1V277.58C100.758 279.58 97.6779 279.58 97.7979 277.58ZM115.735 272.12C115.275 271.78 114.795 271.6 114.295 271.6C112.875 271.6 111.915 272.64 111.915 274.1C111.915 275.56 112.875 276.6 114.295 276.6C114.835 276.6 115.375 276.38 115.915 275.96C116.695 275.4 117.415 275.58 117.915 276.24C118.375 276.8 118.235 277.6 117.495 278.18C116.575 278.88 115.475 279.22 114.195 279.22C112.715 279.22 111.475 278.74 110.495 277.76C109.515 276.78 109.015 275.56 109.015 274.1C109.015 272.64 109.515 271.42 110.495 270.44C111.495 269.46 112.735 268.96 114.195 268.96C115.335 268.96 116.335 269.26 117.175 269.88C117.915 270.46 118.115 271.3 117.695 271.86C117.235 272.5 116.515 272.66 115.735 272.12ZM129.368 270.62V277.58C129.368 278.52 128.748 279.1 127.948 279.1C127.308 279.1 126.868 278.8 126.648 278.22C126.088 278.88 125.288 279.22 124.228 279.22C121.828 279.22 120.488 277.68 120.488 274.9V270.62C120.368 268.62 123.448 268.62 123.328 270.62V274.68C123.328 275.96 123.828 276.6 124.828 276.6C126.088 276.6 126.528 275.72 126.528 274.1V270.62C126.408 268.62 129.488 268.62 129.368 270.62ZM141.23 273.26C141.23 274.3 140.71 274.82 139.65 274.82H134.63C134.79 275.88 135.61 276.62 136.83 276.62C137.51 276.62 138.09 276.42 138.59 276.02C139.37 275.46 140.09 275.64 140.59 276.3C141.05 276.86 140.91 277.66 140.17 278.24C139.31 278.9 138.21 279.22 136.91 279.22C135.41 279.22 134.19 278.76 133.21 277.84C132.23 276.9 131.75 275.68 131.75 274.16C131.75 272.66 132.19 271.42 133.09 270.44C133.99 269.46 135.15 268.96 136.57 268.96C137.55 268.96 138.41 269.2 139.15 269.66C140.65 270.6 141.23 271.92 141.23 273.26ZM136.63 271.46C135.61 271.46 134.95 272.06 134.77 272.92H138.29C138.23 272.1 137.57 271.46 136.63 271.46ZM143.657 277.58V270.62C143.657 269.68 144.277 269.1 145.077 269.1C145.737 269.1 146.177 269.4 146.397 269.98C146.977 269.3 147.757 268.96 148.777 268.96C151.197 268.96 152.757 270.56 152.757 273.3V277.58C152.757 278.52 152.157 279.1 151.337 279.1C150.517 279.1 149.917 278.52 149.917 277.58V273.52C149.917 272.4 149.397 271.6 148.297 271.6C147.097 271.6 146.497 272.44 146.497 274.1V277.58C146.617 279.58 143.537 279.58 143.657 277.58ZM159.517 276.4C160.417 276.5 160.897 277 160.897 277.74C160.897 278.48 160.357 279.04 159.377 279.04H159.117C156.837 279.04 155.697 277.88 155.697 275.54V271.82H155.337C154.457 271.82 153.917 271.26 153.917 270.52C153.917 269.78 154.457 269.2 155.337 269.2H155.697V267.88C155.577 265.88 158.657 265.88 158.517 267.88V269.2H159.477C160.357 269.2 160.897 269.78 160.897 270.52C160.897 271.26 160.357 271.82 159.477 271.82H158.517V275.2C158.517 276.02 158.857 276.34 159.517 276.4ZM169.247 269.14C169.887 269.3 170.367 269.8 170.367 270.54C170.367 271.32 169.827 271.86 169.127 271.86C168.987 271.86 168.687 271.82 168.507 271.82C167.147 271.82 166.107 272.92 166.107 274.9V277.58C166.227 279.58 163.147 279.58 163.267 277.58V270.62C163.267 269.68 163.887 269.1 164.687 269.1C165.427 269.1 165.967 269.58 166.067 270.28C166.627 269.5 167.587 269.06 168.447 269.06C168.787 269.06 169.047 269.08 169.247 269.14ZM172.243 269.98C173.103 269.3 174.243 268.96 175.623 268.96C176.843 268.96 177.843 269.32 178.623 270.02C179.403 270.72 179.783 271.66 179.783 272.88V277.58C179.783 278.52 179.163 279.1 178.363 279.1C177.703 279.1 177.263 278.8 177.043 278.2C176.363 278.88 175.523 279.22 174.543 279.22C173.563 279.22 172.783 278.94 172.163 278.38C171.543 277.8 171.243 277.08 171.243 276.2C171.243 275.18 171.603 274.42 172.343 273.9C173.083 273.38 174.023 273.1 175.123 273.06L176.923 272.98C176.923 271.98 176.423 271.48 175.423 271.48C174.823 271.48 174.283 271.64 173.783 271.98C173.043 272.48 172.323 272.42 171.903 271.86C171.443 271.32 171.583 270.52 172.243 269.98ZM174.103 276.04C174.103 276.52 174.523 276.82 175.243 276.82C175.823 276.82 176.383 276.62 176.923 276.22V275.06L175.663 275.16C174.623 275.22 174.103 275.5 174.103 276.04ZM182.798 277.58V270.62C182.798 269.68 183.418 269.1 184.218 269.1C184.878 269.1 185.318 269.4 185.538 269.98C186.118 269.3 186.898 268.96 187.918 268.96C190.338 268.96 191.898 270.56 191.898 273.3V277.58C191.898 278.52 191.298 279.1 190.478 279.1C189.658 279.1 189.058 278.52 189.058 277.58V273.52C189.058 272.4 188.538 271.6 187.438 271.6C186.238 271.6 185.638 272.44 185.638 274.1V277.58C185.758 279.58 182.678 279.58 182.798 277.58ZM209.101 273.26C209.101 274.3 208.581 274.82 207.521 274.82H202.501C202.661 275.88 203.481 276.62 204.701 276.62C205.381 276.62 205.961 276.42 206.461 276.02C207.241 275.46 207.961 275.64 208.461 276.3C208.921 276.86 208.781 277.66 208.041 278.24C207.181 278.9 206.081 279.22 204.781 279.22C203.281 279.22 202.061 278.76 201.081 277.84C200.101 276.9 199.621 275.68 199.621 274.16C199.621 272.66 200.061 271.42 200.961 270.44C201.861 269.46 203.021 268.96 204.441 268.96C205.421 268.96 206.281 269.2 207.021 269.66C208.521 270.6 209.101 271.92 209.101 273.26ZM204.501 271.46C203.481 271.46 202.821 272.06 202.641 272.92H206.161C206.101 272.1 205.441 271.46 204.501 271.46ZM211.528 277.58V270.62C211.528 269.68 212.148 269.1 212.948 269.1C213.608 269.1 214.048 269.4 214.268 269.98C214.848 269.3 215.628 268.96 216.648 268.96C219.068 268.96 220.628 270.56 220.628 273.3V277.58C220.628 278.52 220.028 279.1 219.208 279.1C218.388 279.1 217.788 278.52 217.788 277.58V273.52C217.788 272.4 217.268 271.6 216.168 271.6C214.968 271.6 214.368 272.44 214.368 274.1V277.58C214.488 279.58 211.408 279.58 211.528 277.58ZM229.151 278.14C228.491 277.56 228.411 276.8 228.911 276.24C229.451 275.64 230.071 275.62 230.791 276.2C231.331 276.62 232.051 276.84 232.931 276.84C233.551 276.84 234.031 276.62 234.031 276.24C234.031 275.92 233.811 275.76 233.151 275.58L232.051 275.26C229.871 274.64 228.851 273.64 228.851 272.06C228.851 271.12 229.211 270.38 229.951 269.82C230.691 269.24 231.591 268.96 232.651 268.96C233.791 268.96 234.751 269.2 235.551 269.7C236.271 270.18 236.451 270.9 236.071 271.52C235.651 272.16 234.971 272.34 234.191 271.88C233.671 271.54 233.111 271.38 232.531 271.38C231.971 271.38 231.611 271.6 231.611 271.92C231.611 272.22 231.831 272.34 232.311 272.48L233.571 272.82C235.571 273.38 236.791 274.24 236.791 276.06C236.791 277.92 235.191 279.22 232.691 279.22C231.191 279.22 230.011 278.86 229.151 278.14ZM238.947 266.42C238.947 265.48 239.687 264.76 240.587 264.76C241.527 264.76 242.247 265.48 242.247 266.42C242.247 267.32 241.487 268.06 240.587 268.06C239.687 268.06 238.947 267.32 238.947 266.42ZM242.007 277.58C242.007 278.52 241.407 279.1 240.587 279.1C239.767 279.1 239.167 278.52 239.167 277.58V270.62C239.167 269.68 239.767 269.1 240.587 269.1C241.407 269.1 242.007 269.68 242.007 270.62V277.58ZM249.224 276.4C250.124 276.5 250.604 277 250.604 277.74C250.604 278.48 250.064 279.04 249.084 279.04H248.824C246.544 279.04 245.404 277.88 245.404 275.54V271.82H245.044C244.164 271.82 243.624 271.26 243.624 270.52C243.624 269.78 244.164 269.2 245.044 269.2H245.404V267.88C245.284 265.88 248.364 265.88 248.224 267.88V269.2H249.184C250.064 269.2 250.604 269.78 250.604 270.52C250.604 271.26 250.064 271.82 249.184 271.82H248.224V275.2C248.224 276.02 248.564 276.34 249.224 276.4ZM261.614 270.62V277.58C261.614 278.52 260.994 279.1 260.194 279.1C259.554 279.1 259.114 278.8 258.894 278.22C258.334 278.88 257.534 279.22 256.474 279.22C254.074 279.22 252.734 277.68 252.734 274.9V270.62C252.614 268.62 255.694 268.62 255.574 270.62V274.68C255.574 275.96 256.074 276.6 257.074 276.6C258.334 276.6 258.774 275.72 258.774 274.1V270.62C258.654 268.62 261.734 268.62 261.614 270.62ZM265.056 269.98C265.916 269.3 267.056 268.96 268.436 268.96C269.656 268.96 270.656 269.32 271.436 270.02C272.216 270.72 272.596 271.66 272.596 272.88V277.58C272.596 278.52 271.976 279.1 271.176 279.1C270.516 279.1 270.076 278.8 269.856 278.2C269.176 278.88 268.336 279.22 267.356 279.22C266.376 279.22 265.596 278.94 264.976 278.38C264.356 277.8 264.056 277.08 264.056 276.2C264.056 275.18 264.416 274.42 265.156 273.9C265.896 273.38 266.836 273.1 267.936 273.06L269.736 272.98C269.736 271.98 269.236 271.48 268.236 271.48C267.636 271.48 267.096 271.64 266.596 271.98C265.856 272.48 265.136 272.42 264.716 271.86C264.256 271.32 264.396 270.52 265.056 269.98ZM266.916 276.04C266.916 276.52 267.336 276.82 268.056 276.82C268.636 276.82 269.196 276.62 269.736 276.22V275.06L268.476 275.16C267.436 275.22 266.916 275.5 266.916 276.04ZM281.536 272.12C281.076 271.78 280.596 271.6 280.096 271.6C278.676 271.6 277.716 272.64 277.716 274.1C277.716 275.56 278.676 276.6 280.096 276.6C280.636 276.6 281.176 276.38 281.716 275.96C282.496 275.4 283.216 275.58 283.716 276.24C284.176 276.8 284.036 277.6 283.296 278.18C282.376 278.88 281.276 279.22 279.996 279.22C278.516 279.22 277.276 278.74 276.296 277.76C275.316 276.78 274.816 275.56 274.816 274.1C274.816 272.64 275.316 271.42 276.296 270.44C277.296 269.46 278.536 268.96 279.996 268.96C281.136 268.96 282.136 269.26 282.976 269.88C283.716 270.46 283.916 271.3 283.496 271.86C283.036 272.5 282.316 272.66 281.536 272.12ZM286.408 266.42C286.408 265.48 287.148 264.76 288.048 264.76C288.988 264.76 289.708 265.48 289.708 266.42C289.708 267.32 288.948 268.06 288.048 268.06C287.148 268.06 286.408 267.32 286.408 266.42ZM289.468 277.58C289.468 278.52 288.868 279.1 288.048 279.1C287.228 279.1 286.628 278.52 286.628 277.58V270.62C286.628 269.68 287.228 269.1 288.048 269.1C288.868 269.1 289.468 269.68 289.468 270.62V277.58ZM293.425 277.76C292.445 276.78 291.945 275.56 291.945 274.1C291.945 272.64 292.445 271.42 293.425 270.44C294.425 269.46 295.665 268.96 297.125 268.96C298.585 268.96 299.825 269.46 300.805 270.44C301.805 271.42 302.305 272.64 302.305 274.1C302.305 275.56 301.805 276.78 300.825 277.76C299.845 278.74 298.605 279.22 297.125 279.22C295.645 279.22 294.405 278.74 293.425 277.76ZM295.485 272.32C295.065 272.78 294.845 273.38 294.845 274.1C294.845 274.82 295.065 275.42 295.485 275.88C295.905 276.34 296.465 276.58 297.125 276.58C297.785 276.58 298.345 276.34 298.765 275.88C299.185 275.42 299.405 274.82 299.405 274.1C299.405 273.38 299.185 272.78 298.765 272.32C298.345 271.86 297.785 271.62 297.125 271.62C296.465 271.62 295.905 271.86 295.485 272.32ZM298.305 266.9L296.585 267.7C296.205 267.88 295.845 267.86 295.485 267.64C294.945 267.3 294.805 266.54 295.145 266.04C295.245 265.88 295.385 265.76 295.545 265.66L297.245 264.54C297.705 264.24 298.185 264.26 298.685 264.56C299.265 264.94 299.445 265.76 299.045 266.38C298.865 266.62 298.605 266.8 298.305 266.9ZM304.673 277.58V270.62C304.673 269.68 305.293 269.1 306.093 269.1C306.753 269.1 307.193 269.4 307.413 269.98C307.993 269.3 308.773 268.96 309.793 268.96C312.213 268.96 313.773 270.56 313.773 273.3V277.58C313.773 278.52 313.173 279.1 312.353 279.1C311.533 279.1 310.933 278.52 310.933 277.58V273.52C310.933 272.4 310.413 271.6 309.313 271.6C308.113 271.6 307.513 272.44 307.513 274.1V277.58C307.633 279.58 304.553 279.58 304.673 277.58ZM123.913 289.42V300.58C123.913 301.52 123.293 302.1 122.493 302.1C121.813 302.1 121.373 301.8 121.173 301.18C120.673 301.8 119.613 302.22 118.553 302.22C117.173 302.22 115.993 301.76 115.053 300.82C114.113 299.88 113.653 298.64 113.653 297.1C113.653 295.58 114.113 294.34 115.053 293.4C115.993 292.44 117.173 291.96 118.553 291.96C119.573 291.96 120.413 292.24 121.073 292.82V289.42C120.953 287.42 124.033 287.42 123.913 289.42ZM120.453 298.94C120.893 298.46 121.113 297.84 121.113 297.1C121.113 296.36 120.893 295.74 120.453 295.26C120.033 294.78 119.493 294.54 118.833 294.54C118.173 294.54 117.633 294.78 117.193 295.26C116.773 295.74 116.553 296.36 116.553 297.1C116.553 297.84 116.773 298.46 117.193 298.94C117.633 299.42 118.173 299.66 118.833 299.66C119.493 299.66 120.033 299.42 120.453 298.94ZM135.751 296.26C135.751 297.3 135.231 297.82 134.171 297.82H129.151C129.311 298.88 130.131 299.62 131.351 299.62C132.031 299.62 132.611 299.42 133.111 299.02C133.891 298.46 134.611 298.64 135.111 299.3C135.571 299.86 135.431 300.66 134.691 301.24C133.831 301.9 132.731 302.22 131.431 302.22C129.931 302.22 128.711 301.76 127.731 300.84C126.751 299.9 126.271 298.68 126.271 297.16C126.271 295.66 126.711 294.42 127.611 293.44C128.511 292.46 129.671 291.96 131.091 291.96C132.071 291.96 132.931 292.2 133.671 292.66C135.171 293.6 135.751 294.92 135.751 296.26ZM131.151 294.46C130.131 294.46 129.471 295.06 129.291 295.92H132.811C132.751 295.1 132.091 294.46 131.151 294.46ZM152.385 294.1L149.785 300.6C149.425 301.62 148.765 302.12 147.825 302.12C146.925 302.12 146.285 301.62 145.865 300.6L143.245 294.1C142.905 293.22 143.305 292.4 144.105 292.16C144.885 291.92 145.625 292.34 145.925 293.24L147.825 298.26L149.725 293.24C150.025 292.34 150.805 291.92 151.585 292.16C152.365 292.4 152.725 293.2 152.385 294.1ZM163.049 293.62V300.58C163.049 301.52 162.429 302.1 161.629 302.1C160.989 302.1 160.549 301.8 160.329 301.22C159.769 301.88 158.969 302.22 157.909 302.22C155.509 302.22 154.169 300.68 154.169 297.9V293.62C154.049 291.62 157.129 291.62 157.009 293.62V297.68C157.009 298.96 157.509 299.6 158.509 299.6C159.769 299.6 160.209 298.72 160.209 297.1V293.62C160.089 291.62 163.169 291.62 163.049 293.62ZM169.046 289.42V300.58C169.166 302.58 166.086 302.58 166.206 300.58V289.42C166.086 287.42 169.166 287.42 169.046 289.42ZM172.183 300.58V293.62C172.183 292.68 172.803 292.1 173.603 292.1C174.263 292.1 174.703 292.4 174.923 292.98C175.503 292.3 176.283 291.96 177.303 291.96C179.723 291.96 181.283 293.56 181.283 296.3V300.58C181.283 301.52 180.683 302.1 179.863 302.1C179.043 302.1 178.443 301.52 178.443 300.58V296.52C178.443 295.4 177.923 294.6 176.823 294.6C175.623 294.6 175.023 295.44 175.023 297.1V300.58C175.143 302.58 172.063 302.58 172.183 300.58ZM192.9 296.26C192.9 297.3 192.38 297.82 191.32 297.82H186.3C186.46 298.88 187.28 299.62 188.5 299.62C189.18 299.62 189.76 299.42 190.26 299.02C191.04 298.46 191.76 298.64 192.26 299.3C192.72 299.86 192.58 300.66 191.84 301.24C190.98 301.9 189.88 302.22 188.58 302.22C187.08 302.22 185.86 301.76 184.88 300.84C183.9 299.9 183.42 298.68 183.42 297.16C183.42 295.66 183.86 294.42 184.76 293.44C185.66 292.46 186.82 291.96 188.24 291.96C189.22 291.96 190.08 292.2 190.82 292.66C192.32 293.6 192.9 294.92 192.9 296.26ZM188.3 294.46C187.28 294.46 186.62 295.06 186.44 295.92H189.96C189.9 295.1 189.24 294.46 188.3 294.46ZM201.307 292.14C201.947 292.3 202.427 292.8 202.427 293.54C202.427 294.32 201.887 294.86 201.187 294.86C201.047 294.86 200.747 294.82 200.567 294.82C199.207 294.82 198.167 295.92 198.167 297.9V300.58C198.287 302.58 195.207 302.58 195.327 300.58V293.62C195.327 292.68 195.947 292.1 196.747 292.1C197.487 292.1 198.027 292.58 198.127 293.28C198.687 292.5 199.647 292.06 200.507 292.06C200.847 292.06 201.107 292.08 201.307 292.14ZM204.304 292.98C205.164 292.3 206.304 291.96 207.684 291.96C208.904 291.96 209.904 292.32 210.684 293.02C211.464 293.72 211.844 294.66 211.844 295.88V300.58C211.844 301.52 211.224 302.1 210.424 302.1C209.764 302.1 209.324 301.8 209.104 301.2C208.424 301.88 207.584 302.22 206.604 302.22C205.624 302.22 204.844 301.94 204.224 301.38C203.604 300.8 203.304 300.08 203.304 299.2C203.304 298.18 203.664 297.42 204.404 296.9C205.144 296.38 206.084 296.1 207.184 296.06L208.984 295.98C208.984 294.98 208.484 294.48 207.484 294.48C206.884 294.48 206.344 294.64 205.844 294.98C205.104 295.48 204.384 295.42 203.964 294.86C203.504 294.32 203.644 293.52 204.304 292.98ZM206.164 299.04C206.164 299.52 206.584 299.82 207.304 299.82C207.884 299.82 208.444 299.62 208.984 299.22V298.06L207.724 298.16C206.684 298.22 206.164 298.5 206.164 299.04ZM214.858 300.58V289.42C214.738 287.42 217.818 287.42 217.698 289.42V292.82C218.358 292.24 219.198 291.96 220.218 291.96C221.598 291.96 222.758 292.44 223.698 293.4C224.638 294.34 225.118 295.58 225.118 297.1C225.118 298.64 224.638 299.88 223.698 300.82C222.758 301.76 221.598 302.22 220.218 302.22C219.158 302.22 218.098 301.8 217.598 301.18C217.398 301.8 216.958 302.1 216.278 302.1C215.478 302.1 214.858 301.52 214.858 300.58ZM218.298 295.26C217.878 295.74 217.658 296.36 217.658 297.1C217.658 297.84 217.878 298.46 218.298 298.94C218.738 299.42 219.278 299.66 219.938 299.66C220.598 299.66 221.138 299.42 221.558 298.94C221.998 298.46 222.218 297.84 222.218 297.1C222.218 296.36 221.998 295.74 221.558 295.26C221.138 294.78 220.598 294.54 219.938 294.54C219.278 294.54 218.738 294.78 218.298 295.26ZM227.356 289.42C227.356 288.48 228.096 287.76 228.996 287.76C229.936 287.76 230.656 288.48 230.656 289.42C230.656 290.32 229.896 291.06 228.996 291.06C228.096 291.06 227.356 290.32 227.356 289.42ZM230.416 300.58C230.416 301.52 229.816 302.1 228.996 302.1C228.176 302.1 227.576 301.52 227.576 300.58V293.62C227.576 292.68 228.176 292.1 228.996 292.1C229.816 292.1 230.416 292.68 230.416 293.62V300.58ZM236.507 289.42V300.58C236.627 302.58 233.547 302.58 233.667 300.58V289.42C233.547 287.42 236.627 287.42 236.507 289.42ZM239.524 289.42C239.524 288.48 240.264 287.76 241.164 287.76C242.104 287.76 242.824 288.48 242.824 289.42C242.824 290.32 242.064 291.06 241.164 291.06C240.264 291.06 239.524 290.32 239.524 289.42ZM242.584 300.58C242.584 301.52 241.984 302.1 241.164 302.1C240.344 302.1 239.744 301.52 239.744 300.58V293.62C239.744 292.68 240.344 292.1 241.164 292.1C241.984 292.1 242.584 292.68 242.584 293.62V300.58ZM255.3 289.42V300.58C255.3 301.52 254.68 302.1 253.88 302.1C253.2 302.1 252.76 301.8 252.56 301.18C252.06 301.8 251 302.22 249.94 302.22C248.56 302.22 247.38 301.76 246.44 300.82C245.5 299.88 245.04 298.64 245.04 297.1C245.04 295.58 245.5 294.34 246.44 293.4C247.38 292.44 248.56 291.96 249.94 291.96C250.96 291.96 251.8 292.24 252.46 292.82V289.42C252.34 287.42 255.42 287.42 255.3 289.42ZM251.84 298.94C252.28 298.46 252.5 297.84 252.5 297.1C252.5 296.36 252.28 295.74 251.84 295.26C251.42 294.78 250.88 294.54 250.22 294.54C249.56 294.54 249.02 294.78 248.58 295.26C248.16 295.74 247.94 296.36 247.94 297.1C247.94 297.84 248.16 298.46 248.58 298.94C249.02 299.42 249.56 299.66 250.22 299.66C250.88 299.66 251.42 299.42 251.84 298.94ZM258.718 292.98C259.578 292.3 260.718 291.96 262.098 291.96C263.318 291.96 264.318 292.32 265.098 293.02C265.878 293.72 266.258 294.66 266.258 295.88V300.58C266.258 301.52 265.638 302.1 264.838 302.1C264.178 302.1 263.738 301.8 263.518 301.2C262.838 301.88 261.998 302.22 261.018 302.22C260.038 302.22 259.258 301.94 258.638 301.38C258.018 300.8 257.718 300.08 257.718 299.2C257.718 298.18 258.078 297.42 258.818 296.9C259.558 296.38 260.498 296.1 261.598 296.06L263.398 295.98C263.398 294.98 262.898 294.48 261.898 294.48C261.298 294.48 260.758 294.64 260.258 294.98C259.518 295.48 258.798 295.42 258.378 294.86C257.918 294.32 258.058 293.52 258.718 292.98ZM260.578 299.04C260.578 299.52 260.998 299.82 261.718 299.82C262.298 299.82 262.858 299.62 263.398 299.22V298.06L262.138 298.16C261.098 298.22 260.578 298.5 260.578 299.04ZM278.738 289.42V300.58C278.738 301.52 278.118 302.1 277.318 302.1C276.638 302.1 276.198 301.8 275.998 301.18C275.498 301.8 274.438 302.22 273.378 302.22C271.998 302.22 270.818 301.76 269.878 300.82C268.938 299.88 268.478 298.64 268.478 297.1C268.478 295.58 268.938 294.34 269.878 293.4C270.818 292.44 271.998 291.96 273.378 291.96C274.398 291.96 275.238 292.24 275.898 292.82V289.42C275.778 287.42 278.858 287.42 278.738 289.42ZM275.278 298.94C275.718 298.46 275.938 297.84 275.938 297.1C275.938 296.36 275.718 295.74 275.278 295.26C274.858 294.78 274.318 294.54 273.658 294.54C272.998 294.54 272.458 294.78 272.018 295.26C271.598 295.74 271.378 296.36 271.378 297.1C271.378 297.84 271.598 298.46 272.018 298.94C272.458 299.42 272.998 299.66 273.658 299.66C274.318 299.66 274.858 299.42 275.278 298.94ZM282.475 301.7C281.835 301.04 281.835 299.92 282.475 299.26C283.135 298.6 284.255 298.6 284.915 299.26C285.615 299.92 285.615 301.04 284.915 301.7C284.255 302.36 283.135 302.36 282.475 301.7Z" fill="#F9D332"/>
</svg>
