<svg width="400" height="400" viewBox="0 0 400 400" fill="none" xmlns="http://www.w3.org/2000/svg">
<circle cx="200" cy="200" r="200" fill="#930345"/>
<path d="M162.791 84.328C164.071 85.224 164.199 86.728 163.335 87.72C162.567 88.776 161.319 89 160.007 88.104C158.631 87.08 157.127 86.568 155.495 86.568C153.479 86.568 152.199 87.464 152.199 88.776C152.199 89.992 153.255 90.792 155.399 91.176L157.287 91.496C162.311 92.296 164.839 94.632 164.839 98.504C164.839 100.552 164.007 102.216 162.375 103.464C160.743 104.712 158.599 105.352 155.911 105.352C152.999 105.352 150.375 104.488 148.007 102.728C146.759 101.8 146.599 100.328 147.463 99.336C148.231 98.28 149.511 98.024 150.791 98.952C152.487 100.328 154.311 101 156.199 101C158.631 101 160.103 99.976 160.103 98.568C160.103 97.384 159.047 96.584 156.967 96.2L154.535 95.752C150.151 94.952 147.463 92.712 147.463 89C147.463 86.92 148.263 85.288 149.895 84.072C151.527 82.824 153.479 82.216 155.751 82.216C158.471 82.216 160.839 82.92 162.791 84.328ZM180.693 96.36L177.909 89.032L175.125 96.36H180.693ZM168.021 102.024L174.837 84.584C175.381 83.144 176.405 82.44 177.877 82.44C179.381 82.44 180.405 83.144 180.949 84.552L187.797 102.024C188.341 103.432 187.669 104.616 186.389 105.032C185.013 105.448 184.021 104.936 183.413 103.464L182.229 100.584H173.557L172.405 103.464C171.861 104.904 170.677 105.416 169.429 105.032C168.149 104.616 167.477 103.432 168.021 102.024ZM191.747 101.96V84.936C191.747 83.368 192.739 82.408 194.115 82.408C195.491 82.408 196.483 83.368 196.483 84.936V100.616H204.547C205.987 100.616 206.883 101.544 206.883 102.824C206.883 104.072 205.987 105 204.547 105H194.787C192.867 105 191.747 103.88 191.747 101.96ZM213.724 84.968V95.272C213.724 98.696 215.324 101 218.396 101C221.5 101 223.068 99.08 223.068 95.208V84.968C223.068 83.4 224.06 82.44 225.436 82.44C226.812 82.44 227.804 83.4 227.804 84.968V95.048C227.804 101.736 224.284 105.352 218.396 105.352C212.508 105.352 208.988 101.736 208.988 95.048V84.968C208.988 83.4 209.98 82.44 211.356 82.44C212.732 82.44 213.724 83.4 213.724 84.968ZM239.826 105H235.474C233.554 105 232.434 103.88 232.434 101.96V85.64C232.434 83.72 233.554 82.6 235.474 82.6H239.826C243.026 82.6 245.874 83.4 248.306 85.064C250.77 86.696 252.338 89.768 252.338 93.64C252.338 97.576 250.77 100.648 248.338 102.408C245.906 104.104 242.994 105 239.826 105ZM239.09 86.984H237.202V100.616H239.122C244.722 100.616 247.506 98.28 247.506 93.64C247.506 89.192 244.69 86.984 239.09 86.984Z" fill="#F9D332"/>
<path d="M102.592 149.56H99.8916V152.52C99.8916 153.5 99.2516 154.1 98.3916 154.1C97.5316 154.1 96.9116 153.5 96.9116 152.52V141.9C96.9116 140.7 97.6116 140 98.8116 140H102.592C104.252 140 105.572 140.42 106.572 141.26C107.572 142.1 108.072 143.24 108.072 144.68C108.072 146.14 107.572 147.32 106.552 148.22C105.532 149.12 104.212 149.56 102.592 149.56ZM102.072 142.74H99.8916V146.82H102.072C104.092 146.82 105.112 146.12 105.112 144.74C105.112 143.36 104.132 142.74 102.072 142.74ZM116.268 144.14C116.908 144.3 117.388 144.8 117.388 145.54C117.388 146.32 116.848 146.86 116.148 146.86C116.008 146.86 115.708 146.82 115.528 146.82C114.168 146.82 113.128 147.92 113.128 149.9V152.58C113.248 154.58 110.168 154.58 110.288 152.58V145.62C110.288 144.68 110.908 144.1 111.708 144.1C112.448 144.1 112.988 144.58 113.088 145.28C113.648 144.5 114.608 144.06 115.468 144.06C115.808 144.06 116.068 144.08 116.268 144.14ZM119.685 152.76C118.705 151.78 118.205 150.56 118.205 149.1C118.205 147.64 118.705 146.42 119.685 145.44C120.685 144.46 121.925 143.96 123.385 143.96C124.845 143.96 126.085 144.46 127.065 145.44C128.065 146.42 128.565 147.64 128.565 149.1C128.565 150.56 128.065 151.78 127.085 152.76C126.105 153.74 124.865 154.22 123.385 154.22C121.905 154.22 120.665 153.74 119.685 152.76ZM121.745 147.32C121.325 147.78 121.105 148.38 121.105 149.1C121.105 149.82 121.325 150.42 121.745 150.88C122.165 151.34 122.725 151.58 123.385 151.58C124.045 151.58 124.605 151.34 125.025 150.88C125.445 150.42 125.665 149.82 125.665 149.1C125.665 148.38 125.445 147.78 125.025 147.32C124.605 146.86 124.045 146.62 123.385 146.62C122.725 146.62 122.165 146.86 121.745 147.32ZM130.933 152.58V145.62C130.933 144.68 131.553 144.1 132.353 144.1C133.013 144.1 133.453 144.4 133.673 144.98C134.253 144.3 135.073 143.96 136.093 143.96C137.233 143.96 138.133 144.36 138.813 145.14C139.593 144.36 140.573 143.96 141.753 143.96C144.373 143.96 145.853 145.52 145.853 148.3V152.58C145.973 154.58 142.893 154.58 143.013 152.58V148.42C143.013 147.32 142.493 146.6 141.513 146.6C140.453 146.6 139.813 147.42 139.813 148.78V152.58C139.933 154.58 136.853 154.58 136.973 152.58V148.42C136.973 147.32 136.453 146.6 135.473 146.6C134.353 146.6 133.773 147.46 133.773 148.98V152.58C133.893 154.58 130.813 154.58 130.933 152.58ZM149.47 152.76C148.49 151.78 147.99 150.56 147.99 149.1C147.99 147.64 148.49 146.42 149.47 145.44C150.47 144.46 151.71 143.96 153.17 143.96C154.63 143.96 155.87 144.46 156.85 145.44C157.85 146.42 158.35 147.64 158.35 149.1C158.35 150.56 157.85 151.78 156.87 152.76C155.89 153.74 154.65 154.22 153.17 154.22C151.69 154.22 150.45 153.74 149.47 152.76ZM151.53 147.32C151.11 147.78 150.89 148.38 150.89 149.1C150.89 149.82 151.11 150.42 151.53 150.88C151.95 151.34 152.51 151.58 153.17 151.58C153.83 151.58 154.39 151.34 154.81 150.88C155.23 150.42 155.45 149.82 155.45 149.1C155.45 148.38 155.23 147.78 154.81 147.32C154.39 146.86 153.83 146.62 153.17 146.62C152.51 146.62 151.95 146.86 151.53 147.32ZM169.006 146.1L166.406 152.6C166.046 153.62 165.386 154.12 164.446 154.12C163.546 154.12 162.906 153.62 162.486 152.6L159.866 146.1C159.526 145.22 159.926 144.4 160.726 144.16C161.506 143.92 162.246 144.34 162.546 145.24L164.446 150.26L166.346 145.24C166.646 144.34 167.426 143.92 168.206 144.16C168.986 144.4 169.346 145.2 169.006 146.1ZM179.501 148.26C179.501 149.3 178.981 149.82 177.921 149.82H172.901C173.061 150.88 173.881 151.62 175.101 151.62C175.781 151.62 176.361 151.42 176.861 151.02C177.641 150.46 178.361 150.64 178.861 151.3C179.321 151.86 179.181 152.66 178.441 153.24C177.581 153.9 176.481 154.22 175.181 154.22C173.681 154.22 172.461 153.76 171.481 152.84C170.501 151.9 170.021 150.68 170.021 149.16C170.021 147.66 170.461 146.42 171.361 145.44C172.261 144.46 173.421 143.96 174.841 143.96C175.821 143.96 176.681 144.2 177.421 144.66C178.921 145.6 179.501 146.92 179.501 148.26ZM174.901 146.46C173.881 146.46 173.221 147.06 173.041 147.92H176.561C176.501 147.1 175.841 146.46 174.901 146.46ZM187.909 144.14C188.549 144.3 189.029 144.8 189.029 145.54C189.029 146.32 188.489 146.86 187.789 146.86C187.649 146.86 187.349 146.82 187.169 146.82C185.809 146.82 184.769 147.92 184.769 149.9V152.58C184.889 154.58 181.809 154.58 181.929 152.58V145.62C181.929 144.68 182.549 144.1 183.349 144.1C184.089 144.1 184.629 144.58 184.729 145.28C185.289 144.5 186.249 144.06 187.109 144.06C187.449 144.06 187.709 144.08 187.909 144.14ZM202.346 147.12C201.886 146.78 201.406 146.6 200.906 146.6C199.486 146.6 198.526 147.64 198.526 149.1C198.526 150.56 199.486 151.6 200.906 151.6C201.446 151.6 201.986 151.38 202.526 150.96C203.306 150.4 204.026 150.58 204.526 151.24C204.986 151.8 204.846 152.6 204.106 153.18C203.186 153.88 202.086 154.22 200.806 154.22C199.326 154.22 198.086 153.74 197.106 152.76C196.126 151.78 195.626 150.56 195.626 149.1C195.626 147.64 196.126 146.42 197.106 145.44C198.106 144.46 199.346 143.96 200.806 143.96C201.946 143.96 202.946 144.26 203.786 144.88C204.526 145.46 204.726 146.3 204.306 146.86C203.846 147.5 203.126 147.66 202.346 147.12ZM207.219 141.42C207.219 140.48 207.959 139.76 208.859 139.76C209.799 139.76 210.519 140.48 210.519 141.42C210.519 142.32 209.759 143.06 208.859 143.06C207.959 143.06 207.219 142.32 207.219 141.42ZM210.279 152.58C210.279 153.52 209.679 154.1 208.859 154.1C208.039 154.1 207.439 153.52 207.439 152.58V145.62C207.439 144.68 208.039 144.1 208.859 144.1C209.679 144.1 210.279 144.68 210.279 145.62V152.58ZM221.955 145.62V152.58C221.955 153.52 221.335 154.1 220.535 154.1C219.895 154.1 219.455 153.8 219.235 153.22C218.675 153.88 217.875 154.22 216.815 154.22C214.415 154.22 213.075 152.68 213.075 149.9V145.62C212.955 143.62 216.035 143.62 215.915 145.62V149.68C215.915 150.96 216.415 151.6 217.415 151.6C218.675 151.6 219.115 150.72 219.115 149.1V145.62C218.995 143.62 222.075 143.62 221.955 145.62ZM234.578 141.42V152.58C234.578 153.52 233.958 154.1 233.158 154.1C232.478 154.1 232.038 153.8 231.838 153.18C231.338 153.8 230.278 154.22 229.218 154.22C227.838 154.22 226.658 153.76 225.718 152.82C224.778 151.88 224.318 150.64 224.318 149.1C224.318 147.58 224.778 146.34 225.718 145.4C226.658 144.44 227.838 143.96 229.218 143.96C230.238 143.96 231.078 144.24 231.738 144.82V141.42C231.618 139.42 234.698 139.42 234.578 141.42ZM231.118 150.94C231.558 150.46 231.778 149.84 231.778 149.1C231.778 148.36 231.558 147.74 231.118 147.26C230.698 146.78 230.158 146.54 229.498 146.54C228.838 146.54 228.298 146.78 227.858 147.26C227.438 147.74 227.218 148.36 227.218 149.1C227.218 149.84 227.438 150.46 227.858 150.94C228.298 151.42 228.838 151.66 229.498 151.66C230.158 151.66 230.698 151.42 231.118 150.94ZM237.995 144.98C238.855 144.3 239.995 143.96 241.375 143.96C242.595 143.96 243.595 144.32 244.375 145.02C245.155 145.72 245.535 146.66 245.535 147.88V152.58C245.535 153.52 244.915 154.1 244.115 154.1C243.455 154.1 243.015 153.8 242.795 153.2C242.115 153.88 241.275 154.22 240.295 154.22C239.315 154.22 238.535 153.94 237.915 153.38C237.295 152.8 236.995 152.08 236.995 151.2C236.995 150.18 237.355 149.42 238.095 148.9C238.835 148.38 239.775 148.1 240.875 148.06L242.675 147.98C242.675 146.98 242.175 146.48 241.175 146.48C240.575 146.48 240.035 146.64 239.535 146.98C238.795 147.48 238.075 147.42 237.655 146.86C237.195 146.32 237.335 145.52 237.995 144.98ZM239.855 151.04C239.855 151.52 240.275 151.82 240.995 151.82C241.575 151.82 242.135 151.62 242.675 151.22V150.06L241.415 150.16C240.375 150.22 239.855 150.5 239.855 151.04ZM258.015 141.42V152.58C258.015 153.52 257.395 154.1 256.595 154.1C255.915 154.1 255.475 153.8 255.275 153.18C254.775 153.8 253.715 154.22 252.655 154.22C251.275 154.22 250.095 153.76 249.155 152.82C248.215 151.88 247.755 150.64 247.755 149.1C247.755 147.58 248.215 146.34 249.155 145.4C250.095 144.44 251.275 143.96 252.655 143.96C253.675 143.96 254.515 144.24 255.175 144.82V141.42C255.055 139.42 258.135 139.42 258.015 141.42ZM254.555 150.94C254.995 150.46 255.215 149.84 255.215 149.1C255.215 148.36 254.995 147.74 254.555 147.26C254.135 146.78 253.595 146.54 252.935 146.54C252.275 146.54 251.735 146.78 251.295 147.26C250.875 147.74 250.655 148.36 250.655 149.1C250.655 149.84 250.875 150.46 251.295 150.94C251.735 151.42 252.275 151.66 252.935 151.66C253.595 151.66 254.135 151.42 254.555 150.94ZM261.433 144.98C262.293 144.3 263.433 143.96 264.813 143.96C266.033 143.96 267.033 144.32 267.813 145.02C268.593 145.72 268.973 146.66 268.973 147.88V152.58C268.973 153.52 268.353 154.1 267.553 154.1C266.893 154.1 266.453 153.8 266.233 153.2C265.553 153.88 264.713 154.22 263.733 154.22C262.753 154.22 261.973 153.94 261.353 153.38C260.733 152.8 260.433 152.08 260.433 151.2C260.433 150.18 260.793 149.42 261.533 148.9C262.273 148.38 263.213 148.1 264.313 148.06L266.113 147.98C266.113 146.98 265.613 146.48 264.613 146.48C264.013 146.48 263.473 146.64 262.973 146.98C262.233 147.48 261.513 147.42 261.093 146.86C260.633 146.32 260.773 145.52 261.433 144.98ZM263.293 151.04C263.293 151.52 263.713 151.82 264.433 151.82C265.013 151.82 265.573 151.62 266.113 151.22V150.06L264.853 150.16C263.813 150.22 263.293 150.5 263.293 151.04ZM271.987 152.58V145.62C271.987 144.68 272.607 144.1 273.407 144.1C274.067 144.1 274.507 144.4 274.727 144.98C275.307 144.3 276.087 143.96 277.107 143.96C279.527 143.96 281.087 145.56 281.087 148.3V152.58C281.087 153.52 280.487 154.1 279.667 154.1C278.847 154.1 278.247 153.52 278.247 152.58V148.52C278.247 147.4 277.727 146.6 276.627 146.6C275.427 146.6 274.827 147.44 274.827 149.1V152.58C274.947 154.58 271.867 154.58 271.987 152.58ZM284.704 152.76C283.724 151.78 283.224 150.56 283.224 149.1C283.224 147.64 283.724 146.42 284.704 145.44C285.704 144.46 286.944 143.96 288.404 143.96C289.864 143.96 291.104 144.46 292.084 145.44C293.084 146.42 293.584 147.64 293.584 149.1C293.584 150.56 293.084 151.78 292.104 152.76C291.124 153.74 289.884 154.22 288.404 154.22C286.924 154.22 285.684 153.74 284.704 152.76ZM286.764 147.32C286.344 147.78 286.124 148.38 286.124 149.1C286.124 149.82 286.344 150.42 286.764 150.88C287.184 151.34 287.744 151.58 288.404 151.58C289.064 151.58 289.624 151.34 290.044 150.88C290.464 150.42 290.684 149.82 290.684 149.1C290.684 148.38 290.464 147.78 290.044 147.32C289.624 146.86 289.064 146.62 288.404 146.62C287.744 146.62 287.184 146.86 286.764 147.32ZM296.192 153.14C295.532 152.56 295.452 151.8 295.952 151.24C296.492 150.64 297.112 150.62 297.832 151.2C298.372 151.62 299.092 151.84 299.972 151.84C300.592 151.84 301.072 151.62 301.072 151.24C301.072 150.92 300.852 150.76 300.192 150.58L299.092 150.26C296.912 149.64 295.892 148.64 295.892 147.06C295.892 146.12 296.252 145.38 296.992 144.82C297.732 144.24 298.632 143.96 299.692 143.96C300.832 143.96 301.792 144.2 302.592 144.7C303.312 145.18 303.492 145.9 303.112 146.52C302.692 147.16 302.012 147.34 301.232 146.88C300.712 146.54 300.152 146.38 299.572 146.38C299.012 146.38 298.652 146.6 298.652 146.92C298.652 147.22 298.872 147.34 299.352 147.48L300.612 147.82C302.612 148.38 303.832 149.24 303.832 151.06C303.832 152.92 302.232 154.22 299.732 154.22C298.232 154.22 297.052 153.86 296.192 153.14ZM78.4676 176.14C77.8076 175.56 77.7276 174.8 78.2276 174.24C78.7676 173.64 79.3876 173.62 80.1076 174.2C80.6476 174.62 81.3676 174.84 82.2476 174.84C82.8676 174.84 83.3476 174.62 83.3476 174.24C83.3476 173.92 83.1276 173.76 82.4676 173.58L81.3676 173.26C79.1876 172.64 78.1676 171.64 78.1676 170.06C78.1676 169.12 78.5276 168.38 79.2676 167.82C80.0076 167.24 80.9076 166.96 81.9676 166.96C83.1076 166.96 84.0676 167.2 84.8676 167.7C85.5876 168.18 85.7676 168.9 85.3876 169.52C84.9676 170.16 84.2876 170.34 83.5076 169.88C82.9876 169.54 82.4276 169.38 81.8476 169.38C81.2876 169.38 80.9276 169.6 80.9276 169.92C80.9276 170.22 81.1476 170.34 81.6276 170.48L82.8876 170.82C84.8876 171.38 86.1076 172.24 86.1076 174.06C86.1076 175.92 84.5076 177.22 82.0076 177.22C80.5076 177.22 79.3276 176.86 78.4676 176.14ZM88.8838 167.98C89.7438 167.3 90.8838 166.96 92.2638 166.96C93.4838 166.96 94.4838 167.32 95.2638 168.02C96.0438 168.72 96.4238 169.66 96.4238 170.88V175.58C96.4238 176.52 95.8038 177.1 95.0038 177.1C94.3438 177.1 93.9038 176.8 93.6838 176.2C93.0038 176.88 92.1638 177.22 91.1838 177.22C90.2038 177.22 89.4238 176.94 88.8038 176.38C88.1838 175.8 87.8838 175.08 87.8838 174.2C87.8838 173.18 88.2438 172.42 88.9838 171.9C89.7238 171.38 90.6638 171.1 91.7638 171.06L93.5638 170.98C93.5638 169.98 93.0638 169.48 92.0638 169.48C91.4638 169.48 90.9238 169.64 90.4238 169.98C89.6838 170.48 88.9638 170.42 88.5438 169.86C88.0838 169.32 88.2238 168.52 88.8838 167.98ZM90.7438 174.04C90.7438 174.52 91.1638 174.82 91.8838 174.82C92.4638 174.82 93.0238 174.62 93.5638 174.22V173.06L92.3038 173.16C91.2638 173.22 90.7438 173.5 90.7438 174.04ZM102.279 164.42V175.58C102.399 177.58 99.3185 177.58 99.4385 175.58V164.42C99.3185 162.42 102.399 162.42 102.279 164.42ZM113.84 168.62V175.58C113.84 176.52 113.22 177.1 112.42 177.1C111.78 177.1 111.34 176.8 111.12 176.22C110.56 176.88 109.76 177.22 108.7 177.22C106.3 177.22 104.96 175.68 104.96 172.9V168.62C104.84 166.62 107.92 166.62 107.8 168.62V172.68C107.8 173.96 108.3 174.6 109.3 174.6C110.56 174.6 111 173.72 111 172.1V168.62C110.88 166.62 113.96 166.62 113.84 168.62ZM126.462 164.42V175.58C126.462 176.52 125.842 177.1 125.042 177.1C124.362 177.1 123.922 176.8 123.722 176.18C123.222 176.8 122.162 177.22 121.102 177.22C119.722 177.22 118.542 176.76 117.602 175.82C116.662 174.88 116.202 173.64 116.202 172.1C116.202 170.58 116.662 169.34 117.602 168.4C118.542 167.44 119.722 166.96 121.102 166.96C122.122 166.96 122.962 167.24 123.622 167.82V164.42C123.502 162.42 126.582 162.42 126.462 164.42ZM123.002 173.94C123.442 173.46 123.662 172.84 123.662 172.1C123.662 171.36 123.442 170.74 123.002 170.26C122.582 169.78 122.042 169.54 121.382 169.54C120.722 169.54 120.182 169.78 119.742 170.26C119.322 170.74 119.102 171.36 119.102 172.1C119.102 172.84 119.322 173.46 119.742 173.94C120.182 174.42 120.722 174.66 121.382 174.66C122.042 174.66 122.582 174.42 123.002 173.94ZM129.88 167.98C130.74 167.3 131.88 166.96 133.26 166.96C134.48 166.96 135.48 167.32 136.26 168.02C137.04 168.72 137.42 169.66 137.42 170.88V175.58C137.42 176.52 136.8 177.1 136 177.1C135.34 177.1 134.9 176.8 134.68 176.2C134 176.88 133.16 177.22 132.18 177.22C131.2 177.22 130.42 176.94 129.8 176.38C129.18 175.8 128.88 175.08 128.88 174.2C128.88 173.18 129.24 172.42 129.98 171.9C130.72 171.38 131.66 171.1 132.76 171.06L134.56 170.98C134.56 169.98 134.06 169.48 133.06 169.48C132.46 169.48 131.92 169.64 131.42 169.98C130.68 170.48 129.96 170.42 129.54 169.86C129.08 169.32 129.22 168.52 129.88 167.98ZM131.74 174.04C131.74 174.52 132.16 174.82 132.88 174.82C133.46 174.82 134.02 174.62 134.56 174.22V173.06L133.3 173.16C132.26 173.22 131.74 173.5 131.74 174.04ZM140.435 175.58V164.42C140.315 162.42 143.395 162.42 143.275 164.42V167.82C143.935 167.24 144.775 166.96 145.795 166.96C147.175 166.96 148.335 167.44 149.275 168.4C150.215 169.34 150.695 170.58 150.695 172.1C150.695 173.64 150.215 174.88 149.275 175.82C148.335 176.76 147.175 177.22 145.795 177.22C144.735 177.22 143.675 176.8 143.175 176.18C142.975 176.8 142.535 177.1 141.855 177.1C141.055 177.1 140.435 176.52 140.435 175.58ZM143.875 170.26C143.455 170.74 143.235 171.36 143.235 172.1C143.235 172.84 143.455 173.46 143.875 173.94C144.315 174.42 144.855 174.66 145.515 174.66C146.175 174.66 146.715 174.42 147.135 173.94C147.575 173.46 147.795 172.84 147.795 172.1C147.795 171.36 147.575 170.74 147.135 170.26C146.715 169.78 146.175 169.54 145.515 169.54C144.855 169.54 144.315 169.78 143.875 170.26ZM155.892 164.42V175.58C156.012 177.58 152.932 177.58 153.052 175.58V164.42C152.932 162.42 156.012 162.42 155.892 164.42ZM167.734 171.26C167.734 172.3 167.214 172.82 166.154 172.82H161.134C161.294 173.88 162.114 174.62 163.334 174.62C164.014 174.62 164.594 174.42 165.094 174.02C165.874 173.46 166.594 173.64 167.094 174.3C167.554 174.86 167.414 175.66 166.674 176.24C165.814 176.9 164.714 177.22 163.414 177.22C161.914 177.22 160.694 176.76 159.714 175.84C158.734 174.9 158.254 173.68 158.254 172.16C158.254 170.66 158.694 169.42 159.594 168.44C160.494 167.46 161.654 166.96 163.074 166.96C164.054 166.96 164.914 167.2 165.654 167.66C167.154 168.6 167.734 169.92 167.734 171.26ZM163.134 169.46C162.114 169.46 161.454 170.06 161.274 170.92H164.794C164.734 170.1 164.074 169.46 163.134 169.46ZM170.401 176.14C169.741 175.56 169.661 174.8 170.161 174.24C170.701 173.64 171.321 173.62 172.041 174.2C172.581 174.62 173.301 174.84 174.181 174.84C174.801 174.84 175.281 174.62 175.281 174.24C175.281 173.92 175.061 173.76 174.401 173.58L173.301 173.26C171.121 172.64 170.101 171.64 170.101 170.06C170.101 169.12 170.461 168.38 171.201 167.82C171.941 167.24 172.841 166.96 173.901 166.96C175.041 166.96 176.001 167.2 176.801 167.7C177.521 168.18 177.701 168.9 177.321 169.52C176.901 170.16 176.221 170.34 175.441 169.88C174.921 169.54 174.361 169.38 173.781 169.38C173.221 169.38 172.861 169.6 172.861 169.92C172.861 170.22 173.081 170.34 173.561 170.48L174.821 170.82C176.821 171.38 178.041 172.24 178.041 174.06C178.041 175.92 176.441 177.22 173.941 177.22C172.441 177.22 171.261 176.86 170.401 176.14ZM180.669 176.7C180.029 176.04 180.029 174.92 180.669 174.26C181.329 173.6 182.449 173.6 183.109 174.26C183.809 174.92 183.809 176.04 183.109 176.7C182.449 177.36 181.329 177.36 180.669 176.7ZM180.669 170C180.029 169.34 180.029 168.22 180.669 167.56C181.329 166.9 182.449 166.9 183.109 167.56C183.809 168.22 183.809 169.34 183.109 170C182.449 170.66 181.329 170.66 180.669 170ZM204.066 164.44C204.786 165.08 204.846 165.96 204.286 166.54C203.746 167.18 202.946 167.26 202.166 166.62C201.346 165.9 200.366 165.54 199.206 165.54C198.106 165.54 197.146 165.94 196.306 166.74C195.486 167.52 195.066 168.6 195.066 169.96C195.066 171.34 195.486 172.44 196.306 173.24C197.126 174.04 198.146 174.44 199.366 174.44C200.506 174.44 201.506 174.08 202.386 173.34C203.166 172.72 203.966 172.8 204.506 173.42C205.066 174 205.006 174.88 204.286 175.52C203.006 176.66 201.386 177.22 199.446 177.22C197.306 177.22 195.526 176.56 194.106 175.24C192.706 173.92 192.006 172.18 192.006 170.02C192.006 167.84 192.706 166.08 194.106 164.76C195.506 163.42 197.246 162.76 199.346 162.76C201.166 162.76 202.746 163.32 204.066 164.44ZM208.405 175.76C207.425 174.78 206.925 173.56 206.925 172.1C206.925 170.64 207.425 169.42 208.405 168.44C209.405 167.46 210.645 166.96 212.105 166.96C213.565 166.96 214.805 167.46 215.785 168.44C216.785 169.42 217.285 170.64 217.285 172.1C217.285 173.56 216.785 174.78 215.805 175.76C214.825 176.74 213.585 177.22 212.105 177.22C210.625 177.22 209.385 176.74 208.405 175.76ZM210.465 170.32C210.045 170.78 209.825 171.38 209.825 172.1C209.825 172.82 210.045 173.42 210.465 173.88C210.885 174.34 211.445 174.58 212.105 174.58C212.765 174.58 213.325 174.34 213.745 173.88C214.165 173.42 214.385 172.82 214.385 172.1C214.385 171.38 214.165 170.78 213.745 170.32C213.325 169.86 212.765 169.62 212.105 169.62C211.445 169.62 210.885 169.86 210.465 170.32ZM219.653 175.58V168.62C219.653 167.68 220.273 167.1 221.073 167.1C221.733 167.1 222.173 167.4 222.393 167.98C222.973 167.3 223.753 166.96 224.773 166.96C227.193 166.96 228.753 168.56 228.753 171.3V175.58C228.753 176.52 228.153 177.1 227.333 177.1C226.513 177.1 225.913 176.52 225.913 175.58V171.52C225.913 170.4 225.393 169.6 224.293 169.6C223.093 169.6 222.493 170.44 222.493 172.1V175.58C222.613 177.58 219.533 177.58 219.653 175.58ZM235.513 174.4C236.413 174.5 236.893 175 236.893 175.74C236.893 176.48 236.353 177.04 235.373 177.04H235.113C232.833 177.04 231.693 175.88 231.693 173.54V169.82H231.333C230.453 169.82 229.913 169.26 229.913 168.52C229.913 167.78 230.453 167.2 231.333 167.2H231.693V165.88C231.573 163.88 234.653 163.88 234.513 165.88V167.2H235.473C236.353 167.2 236.893 167.78 236.893 168.52C236.893 169.26 236.353 169.82 235.473 169.82H234.513V173.2C234.513 174.02 234.853 174.34 235.513 174.4ZM245.243 167.14C245.883 167.3 246.363 167.8 246.363 168.54C246.363 169.32 245.823 169.86 245.123 169.86C244.983 169.86 244.683 169.82 244.503 169.82C243.143 169.82 242.103 170.92 242.103 172.9V175.58C242.223 177.58 239.143 177.58 239.263 175.58V168.62C239.263 167.68 239.883 167.1 240.683 167.1C241.423 167.1 241.963 167.58 242.063 168.28C242.623 167.5 243.583 167.06 244.443 167.06C244.783 167.06 245.043 167.08 245.243 167.14ZM247.834 164.42C247.834 163.48 248.574 162.76 249.474 162.76C250.414 162.76 251.134 163.48 251.134 164.42C251.134 165.32 250.374 166.06 249.474 166.06C248.574 166.06 247.834 165.32 247.834 164.42ZM250.894 175.58C250.894 176.52 250.294 177.1 249.474 177.1C248.654 177.1 248.054 176.52 248.054 175.58V168.62C248.054 167.68 248.654 167.1 249.474 167.1C250.294 167.1 250.894 167.68 250.894 168.62V175.58ZM254.146 175.58V164.42C254.026 162.42 257.106 162.42 256.986 164.42V167.82C257.646 167.24 258.486 166.96 259.506 166.96C260.886 166.96 262.046 167.44 262.986 168.4C263.926 169.34 264.406 170.58 264.406 172.1C264.406 173.64 263.926 174.88 262.986 175.82C262.046 176.76 260.886 177.22 259.506 177.22C258.446 177.22 257.386 176.8 256.886 176.18C256.686 176.8 256.246 177.1 255.566 177.1C254.766 177.1 254.146 176.52 254.146 175.58ZM257.586 170.26C257.166 170.74 256.946 171.36 256.946 172.1C256.946 172.84 257.166 173.46 257.586 173.94C258.026 174.42 258.566 174.66 259.226 174.66C259.886 174.66 260.426 174.42 260.846 173.94C261.286 173.46 261.506 172.84 261.506 172.1C261.506 171.36 261.286 170.74 260.846 170.26C260.426 169.78 259.886 169.54 259.226 169.54C258.566 169.54 258.026 169.78 257.586 170.26ZM275.403 168.62V175.58C275.403 176.52 274.783 177.1 273.983 177.1C273.343 177.1 272.903 176.8 272.683 176.22C272.123 176.88 271.323 177.22 270.263 177.22C267.863 177.22 266.523 175.68 266.523 172.9V168.62C266.403 166.62 269.483 166.62 269.363 168.62V172.68C269.363 173.96 269.863 174.6 270.863 174.6C272.123 174.6 272.563 173.72 272.563 172.1V168.62C272.443 166.62 275.523 166.62 275.403 168.62ZM278.44 164.42C278.44 163.48 279.18 162.76 280.08 162.76C281.02 162.76 281.74 163.48 281.74 164.42C281.74 165.32 280.98 166.06 280.08 166.06C279.18 166.06 278.44 165.32 278.44 164.42ZM281.5 175.58C281.5 176.52 280.9 177.1 280.08 177.1C279.26 177.1 278.66 176.52 278.66 175.58V168.62C278.66 167.68 279.26 167.1 280.08 167.1C280.9 167.1 281.5 167.68 281.5 168.62V175.58ZM284.751 175.58V168.62C284.751 167.68 285.371 167.1 286.171 167.1C286.831 167.1 287.271 167.4 287.491 167.98C288.071 167.3 288.891 166.96 289.911 166.96C291.051 166.96 291.951 167.36 292.631 168.14C293.411 167.36 294.391 166.96 295.571 166.96C298.191 166.96 299.671 168.52 299.671 171.3V175.58C299.791 177.58 296.711 177.58 296.831 175.58V171.42C296.831 170.32 296.311 169.6 295.331 169.6C294.271 169.6 293.631 170.42 293.631 171.78V175.58C293.751 177.58 290.671 177.58 290.791 175.58V171.42C290.791 170.32 290.271 169.6 289.291 169.6C288.171 169.6 287.591 170.46 287.591 171.98V175.58C287.711 177.58 284.631 177.58 284.751 175.58ZM303.288 175.76C302.308 174.78 301.808 173.56 301.808 172.1C301.808 170.64 302.308 169.42 303.288 168.44C304.288 167.46 305.528 166.96 306.988 166.96C308.448 166.96 309.688 167.46 310.668 168.44C311.668 169.42 312.168 170.64 312.168 172.1C312.168 173.56 311.668 174.78 310.688 175.76C309.708 176.74 308.468 177.22 306.988 177.22C305.508 177.22 304.268 176.74 303.288 175.76ZM305.348 170.32C304.928 170.78 304.708 171.38 304.708 172.1C304.708 172.82 304.928 173.42 305.348 173.88C305.768 174.34 306.328 174.58 306.988 174.58C307.648 174.58 308.208 174.34 308.628 173.88C309.048 173.42 309.268 172.82 309.268 172.1C309.268 171.38 309.048 170.78 308.628 170.32C308.208 169.86 307.648 169.62 306.988 169.62C306.328 169.62 305.768 169.86 305.348 170.32ZM314.776 176.14C314.116 175.56 314.036 174.8 314.536 174.24C315.076 173.64 315.696 173.62 316.416 174.2C316.956 174.62 317.676 174.84 318.556 174.84C319.176 174.84 319.656 174.62 319.656 174.24C319.656 173.92 319.436 173.76 318.776 173.58L317.676 173.26C315.496 172.64 314.476 171.64 314.476 170.06C314.476 169.12 314.836 168.38 315.576 167.82C316.316 167.24 317.216 166.96 318.276 166.96C319.416 166.96 320.376 167.2 321.176 167.7C321.896 168.18 322.076 168.9 321.696 169.52C321.276 170.16 320.596 170.34 319.816 169.88C319.296 169.54 318.736 169.38 318.156 169.38C317.596 169.38 317.236 169.6 317.236 169.92C317.236 170.22 317.456 170.34 317.936 170.48L319.196 170.82C321.196 171.38 322.416 172.24 322.416 174.06C322.416 175.92 320.816 177.22 318.316 177.22C316.816 177.22 315.636 176.86 314.776 176.14ZM82.751 190.98C83.611 190.3 84.751 189.96 86.131 189.96C87.351 189.96 88.351 190.32 89.131 191.02C89.911 191.72 90.291 192.66 90.291 193.88V198.58C90.291 199.52 89.671 200.1 88.871 200.1C88.211 200.1 87.771 199.8 87.551 199.2C86.871 199.88 86.031 200.22 85.051 200.22C84.071 200.22 83.291 199.94 82.671 199.38C82.051 198.8 81.751 198.08 81.751 197.2C81.751 196.18 82.111 195.42 82.851 194.9C83.591 194.38 84.531 194.1 85.631 194.06L87.431 193.98C87.431 192.98 86.931 192.48 85.931 192.48C85.331 192.48 84.791 192.64 84.291 192.98C83.551 193.48 82.831 193.42 82.411 192.86C81.951 192.32 82.091 191.52 82.751 190.98ZM84.611 197.04C84.611 197.52 85.031 197.82 85.751 197.82C86.331 197.82 86.891 197.62 87.431 197.22V196.06L86.171 196.16C85.131 196.22 84.611 196.5 84.611 197.04ZM105.337 194.88C105.337 193.5 104.377 192.54 103.157 192.54C101.957 192.54 100.997 193.5 100.997 194.88C100.997 196.24 101.957 197.2 103.157 197.2C104.377 197.2 105.337 196.24 105.337 194.88ZM99.2768 203.02C98.5368 202.46 98.5368 201.54 99.0768 200.98C99.5768 200.44 100.257 200.42 101.117 200.96C101.697 201.3 102.257 201.48 102.817 201.48C104.317 201.48 105.277 200.6 105.277 199.3V199.04C104.717 199.54 103.917 199.78 102.897 199.78C101.497 199.78 100.337 199.34 99.4368 198.46C98.5368 197.58 98.0968 196.38 98.0968 194.88C98.0968 193.36 98.5568 192.16 99.4968 191.28C100.437 190.4 101.557 189.96 102.897 189.96C103.937 189.96 104.777 190.3 105.397 191C105.597 190.38 106.037 190.08 106.717 190.08C107.537 190.08 108.137 190.64 108.137 191.6V198.98C108.137 200.5 107.657 201.74 106.717 202.68C105.777 203.62 104.497 204.1 102.837 204.1C101.437 204.1 100.257 203.74 99.2768 203.02ZM119.96 194.26C119.96 195.3 119.44 195.82 118.38 195.82H113.36C113.52 196.88 114.34 197.62 115.56 197.62C116.24 197.62 116.82 197.42 117.32 197.02C118.1 196.46 118.82 196.64 119.32 197.3C119.78 197.86 119.64 198.66 118.9 199.24C118.04 199.9 116.94 200.22 115.64 200.22C114.14 200.22 112.92 199.76 111.94 198.84C110.96 197.9 110.48 196.68 110.48 195.16C110.48 193.66 110.92 192.42 111.82 191.44C112.72 190.46 113.88 189.96 115.3 189.96C116.28 189.96 117.14 190.2 117.88 190.66C119.38 191.6 119.96 192.92 119.96 194.26ZM115.36 192.46C114.34 192.46 113.68 193.06 113.5 193.92H117.02C116.96 193.1 116.3 192.46 115.36 192.46ZM122.388 198.58V191.62C122.388 190.68 123.008 190.1 123.808 190.1C124.468 190.1 124.908 190.4 125.128 190.98C125.708 190.3 126.488 189.96 127.508 189.96C129.928 189.96 131.488 191.56 131.488 194.3V198.58C131.488 199.52 130.888 200.1 130.068 200.1C129.248 200.1 128.648 199.52 128.648 198.58V194.52C128.648 193.4 128.128 192.6 127.028 192.6C125.828 192.6 125.228 193.44 125.228 195.1V198.58C125.348 200.58 122.268 200.58 122.388 198.58ZM143.105 194.26C143.105 195.3 142.585 195.82 141.525 195.82H136.505C136.665 196.88 137.485 197.62 138.705 197.62C139.385 197.62 139.965 197.42 140.465 197.02C141.245 196.46 141.965 196.64 142.465 197.3C142.925 197.86 142.785 198.66 142.045 199.24C141.185 199.9 140.085 200.22 138.785 200.22C137.285 200.22 136.065 199.76 135.085 198.84C134.105 197.9 133.625 196.68 133.625 195.16C133.625 193.66 134.065 192.42 134.965 191.44C135.865 190.46 137.025 189.96 138.445 189.96C139.425 189.96 140.285 190.2 141.025 190.66C142.525 191.6 143.105 192.92 143.105 194.26ZM138.505 192.46C137.485 192.46 136.825 193.06 136.645 193.92H140.165C140.105 193.1 139.445 192.46 138.505 192.46ZM151.512 190.14C152.152 190.3 152.632 190.8 152.632 191.54C152.632 192.32 152.092 192.86 151.392 192.86C151.252 192.86 150.952 192.82 150.772 192.82C149.412 192.82 148.372 193.92 148.372 195.9V198.58C148.492 200.58 145.412 200.58 145.532 198.58V191.62C145.532 190.68 146.152 190.1 146.952 190.1C147.692 190.1 148.232 190.58 148.332 191.28C148.892 190.5 149.852 190.06 150.712 190.06C151.052 190.06 151.312 190.08 151.512 190.14ZM154.509 190.98C155.369 190.3 156.509 189.96 157.889 189.96C159.109 189.96 160.109 190.32 160.889 191.02C161.669 191.72 162.049 192.66 162.049 193.88V198.58C162.049 199.52 161.429 200.1 160.629 200.1C159.969 200.1 159.529 199.8 159.309 199.2C158.629 199.88 157.789 200.22 156.809 200.22C155.829 200.22 155.049 199.94 154.429 199.38C153.809 198.8 153.509 198.08 153.509 197.2C153.509 196.18 153.869 195.42 154.609 194.9C155.349 194.38 156.289 194.1 157.389 194.06L159.189 193.98C159.189 192.98 158.689 192.48 157.689 192.48C157.089 192.48 156.549 192.64 156.049 192.98C155.309 193.48 154.589 193.42 154.169 192.86C153.709 192.32 153.849 191.52 154.509 190.98ZM156.369 197.04C156.369 197.52 156.789 197.82 157.509 197.82C158.089 197.82 158.649 197.62 159.189 197.22V196.06L157.929 196.16C156.889 196.22 156.369 196.5 156.369 197.04ZM171.044 190.14C171.684 190.3 172.164 190.8 172.164 191.54C172.164 192.32 171.624 192.86 170.924 192.86C170.784 192.86 170.484 192.82 170.304 192.82C168.944 192.82 167.904 193.92 167.904 195.9V198.58C168.024 200.58 164.944 200.58 165.064 198.58V191.62C165.064 190.68 165.684 190.1 166.484 190.1C167.224 190.1 167.764 190.58 167.864 191.28C168.424 190.5 169.384 190.06 170.244 190.06C170.584 190.06 170.844 190.08 171.044 190.14ZM180.261 198.76C179.281 197.78 178.781 196.56 178.781 195.1C178.781 193.64 179.281 192.42 180.261 191.44C181.261 190.46 182.501 189.96 183.961 189.96C185.421 189.96 186.661 190.46 187.641 191.44C188.641 192.42 189.141 193.64 189.141 195.1C189.141 196.56 188.641 197.78 187.661 198.76C186.681 199.74 185.441 200.22 183.961 200.22C182.481 200.22 181.241 199.74 180.261 198.76ZM182.321 193.32C181.901 193.78 181.681 194.38 181.681 195.1C181.681 195.82 181.901 196.42 182.321 196.88C182.741 197.34 183.301 197.58 183.961 197.58C184.621 197.58 185.181 197.34 185.601 196.88C186.021 196.42 186.241 195.82 186.241 195.1C186.241 194.38 186.021 193.78 185.601 193.32C185.181 192.86 184.621 192.62 183.961 192.62C183.301 192.62 182.741 192.86 182.321 193.32ZM191.509 202.46V191.6C191.509 190.64 192.129 190.08 192.929 190.08C193.609 190.08 194.049 190.38 194.249 191C194.749 190.38 195.809 189.96 196.869 189.96C198.249 189.96 199.409 190.44 200.349 191.38C201.289 192.32 201.769 193.56 201.769 195.1C201.769 196.62 201.289 197.86 200.349 198.8C199.409 199.74 198.249 200.22 196.869 200.22C195.849 200.22 195.009 199.94 194.349 199.36V202.46C194.469 204.46 191.389 204.46 191.509 202.46ZM194.949 193.26C194.529 193.74 194.309 194.36 194.309 195.1C194.309 195.84 194.529 196.46 194.949 196.94C195.389 197.42 195.929 197.66 196.589 197.66C197.249 197.66 197.789 197.42 198.209 196.94C198.649 196.46 198.869 195.84 198.869 195.1C198.869 194.36 198.649 193.74 198.209 193.26C197.789 192.78 197.249 192.54 196.589 192.54C195.929 192.54 195.389 192.78 194.949 193.26ZM205.144 198.76C204.164 197.78 203.664 196.56 203.664 195.1C203.664 193.64 204.164 192.42 205.144 191.44C206.144 190.46 207.384 189.96 208.844 189.96C210.304 189.96 211.544 190.46 212.524 191.44C213.524 192.42 214.024 193.64 214.024 195.1C214.024 196.56 213.524 197.78 212.544 198.76C211.564 199.74 210.324 200.22 208.844 200.22C207.364 200.22 206.124 199.74 205.144 198.76ZM207.204 193.32C206.784 193.78 206.564 194.38 206.564 195.1C206.564 195.82 206.784 196.42 207.204 196.88C207.624 197.34 208.184 197.58 208.844 197.58C209.504 197.58 210.064 197.34 210.484 196.88C210.904 196.42 211.124 195.82 211.124 195.1C211.124 194.38 210.904 193.78 210.484 193.32C210.064 192.86 209.504 192.62 208.844 192.62C208.184 192.62 207.624 192.86 207.204 193.32ZM222.372 190.14C223.012 190.3 223.492 190.8 223.492 191.54C223.492 192.32 222.952 192.86 222.252 192.86C222.112 192.86 221.812 192.82 221.632 192.82C220.272 192.82 219.232 193.92 219.232 195.9V198.58C219.352 200.58 216.272 200.58 216.392 198.58V191.62C216.392 190.68 217.012 190.1 217.812 190.1C218.552 190.1 219.092 190.58 219.192 191.28C219.752 190.5 220.712 190.06 221.572 190.06C221.912 190.06 222.172 190.08 222.372 190.14ZM229.595 197.4C230.495 197.5 230.975 198 230.975 198.74C230.975 199.48 230.435 200.04 229.455 200.04H229.195C226.915 200.04 225.775 198.88 225.775 196.54V192.82H225.415C224.535 192.82 223.995 192.26 223.995 191.52C223.995 190.78 224.535 190.2 225.415 190.2H225.775V188.88C225.655 186.88 228.735 186.88 228.595 188.88V190.2H229.555C230.435 190.2 230.975 190.78 230.975 191.52C230.975 192.26 230.435 192.82 229.555 192.82H228.595V196.2C228.595 197.02 228.935 197.34 229.595 197.4ZM241.985 191.62V198.58C241.985 199.52 241.365 200.1 240.565 200.1C239.925 200.1 239.485 199.8 239.265 199.22C238.705 199.88 237.905 200.22 236.845 200.22C234.445 200.22 233.105 198.68 233.105 195.9V191.62C232.985 189.62 236.065 189.62 235.945 191.62V195.68C235.945 196.96 236.445 197.6 237.445 197.6C238.705 197.6 239.145 196.72 239.145 195.1V191.62C239.025 189.62 242.105 189.62 241.985 191.62ZM245.142 198.58V191.62C245.142 190.68 245.762 190.1 246.562 190.1C247.222 190.1 247.662 190.4 247.882 190.98C248.462 190.3 249.242 189.96 250.262 189.96C252.682 189.96 254.242 191.56 254.242 194.3V198.58C254.242 199.52 253.642 200.1 252.822 200.1C252.002 200.1 251.402 199.52 251.402 198.58V194.52C251.402 193.4 250.882 192.6 249.782 192.6C248.582 192.6 247.982 193.44 247.982 195.1V198.58C248.102 200.58 245.022 200.58 245.142 198.58ZM257.033 187.42C257.033 186.48 257.773 185.76 258.673 185.76C259.613 185.76 260.333 186.48 260.333 187.42C260.333 188.32 259.573 189.06 258.673 189.06C257.773 189.06 257.033 188.32 257.033 187.42ZM260.093 198.58C260.093 199.52 259.493 200.1 258.673 200.1C257.853 200.1 257.253 199.52 257.253 198.58V191.62C257.253 190.68 257.853 190.1 258.673 190.1C259.493 190.1 260.093 190.68 260.093 191.62V198.58ZM272.81 187.42V198.58C272.81 199.52 272.19 200.1 271.39 200.1C270.71 200.1 270.27 199.8 270.07 199.18C269.57 199.8 268.51 200.22 267.45 200.22C266.07 200.22 264.89 199.76 263.95 198.82C263.01 197.88 262.55 196.64 262.55 195.1C262.55 193.58 263.01 192.34 263.95 191.4C264.89 190.44 266.07 189.96 267.45 189.96C268.47 189.96 269.31 190.24 269.97 190.82V187.42C269.85 185.42 272.93 185.42 272.81 187.42ZM269.35 196.94C269.79 196.46 270.01 195.84 270.01 195.1C270.01 194.36 269.79 193.74 269.35 193.26C268.93 192.78 268.39 192.54 267.73 192.54C267.07 192.54 266.53 192.78 266.09 193.26C265.67 193.74 265.45 194.36 265.45 195.1C265.45 195.84 265.67 196.46 266.09 196.94C266.53 197.42 267.07 197.66 267.73 197.66C268.39 197.66 268.93 197.42 269.35 196.94ZM276.228 190.98C277.088 190.3 278.228 189.96 279.608 189.96C280.828 189.96 281.828 190.32 282.608 191.02C283.388 191.72 283.768 192.66 283.768 193.88V198.58C283.768 199.52 283.148 200.1 282.348 200.1C281.688 200.1 281.248 199.8 281.028 199.2C280.348 199.88 279.508 200.22 278.528 200.22C277.548 200.22 276.768 199.94 276.148 199.38C275.528 198.8 275.228 198.08 275.228 197.2C275.228 196.18 275.588 195.42 276.328 194.9C277.068 194.38 278.008 194.1 279.108 194.06L280.908 193.98C280.908 192.98 280.408 192.48 279.408 192.48C278.808 192.48 278.268 192.64 277.768 192.98C277.028 193.48 276.308 193.42 275.888 192.86C275.428 192.32 275.568 191.52 276.228 190.98ZM278.088 197.04C278.088 197.52 278.508 197.82 279.228 197.82C279.808 197.82 280.368 197.62 280.908 197.22V196.06L279.648 196.16C278.608 196.22 278.088 196.5 278.088 197.04ZM296.247 187.42V198.58C296.247 199.52 295.627 200.1 294.827 200.1C294.147 200.1 293.707 199.8 293.507 199.18C293.007 199.8 291.947 200.22 290.887 200.22C289.507 200.22 288.327 199.76 287.387 198.82C286.447 197.88 285.987 196.64 285.987 195.1C285.987 193.58 286.447 192.34 287.387 191.4C288.327 190.44 289.507 189.96 290.887 189.96C291.907 189.96 292.747 190.24 293.407 190.82V187.42C293.287 185.42 296.367 185.42 296.247 187.42ZM292.787 196.94C293.227 196.46 293.447 195.84 293.447 195.1C293.447 194.36 293.227 193.74 292.787 193.26C292.367 192.78 291.827 192.54 291.167 192.54C290.507 192.54 289.967 192.78 289.527 193.26C289.107 193.74 288.887 194.36 288.887 195.1C288.887 195.84 289.107 196.46 289.527 196.94C289.967 197.42 290.507 197.66 291.167 197.66C291.827 197.66 292.367 197.42 292.787 196.94ZM308.085 194.26C308.085 195.3 307.565 195.82 306.505 195.82H301.485C301.645 196.88 302.465 197.62 303.685 197.62C304.365 197.62 304.945 197.42 305.445 197.02C306.225 196.46 306.945 196.64 307.445 197.3C307.905 197.86 307.765 198.66 307.025 199.24C306.165 199.9 305.065 200.22 303.765 200.22C302.265 200.22 301.045 199.76 300.065 198.84C299.085 197.9 298.605 196.68 298.605 195.16C298.605 193.66 299.045 192.42 299.945 191.44C300.845 190.46 302.005 189.96 303.425 189.96C304.405 189.96 305.265 190.2 306.005 190.66C307.505 191.6 308.085 192.92 308.085 194.26ZM303.485 192.46C302.465 192.46 301.805 193.06 301.625 193.92H305.145C305.085 193.1 304.425 192.46 303.485 192.46ZM310.753 199.14C310.093 198.56 310.013 197.8 310.513 197.24C311.053 196.64 311.673 196.62 312.393 197.2C312.933 197.62 313.653 197.84 314.533 197.84C315.153 197.84 315.633 197.62 315.633 197.24C315.633 196.92 315.413 196.76 314.753 196.58L313.653 196.26C311.473 195.64 310.453 194.64 310.453 193.06C310.453 192.12 310.813 191.38 311.553 190.82C312.293 190.24 313.193 189.96 314.253 189.96C315.393 189.96 316.353 190.2 317.153 190.7C317.873 191.18 318.053 191.9 317.673 192.52C317.253 193.16 316.573 193.34 315.793 192.88C315.273 192.54 314.713 192.38 314.133 192.38C313.573 192.38 313.213 192.6 313.213 192.92C313.213 193.22 313.433 193.34 313.913 193.48L315.173 193.82C317.173 194.38 318.393 195.24 318.393 197.06C318.393 198.92 316.793 200.22 314.293 200.22C312.793 200.22 311.613 199.86 310.753 199.14ZM107.488 210.42V221.58C107.488 222.52 106.868 223.1 106.068 223.1C105.388 223.1 104.948 222.8 104.748 222.18C104.248 222.8 103.188 223.22 102.128 223.22C100.748 223.22 99.5677 222.76 98.6277 221.82C97.6877 220.88 97.2277 219.64 97.2277 218.1C97.2277 216.58 97.6877 215.34 98.6277 214.4C99.5677 213.44 100.748 212.96 102.128 212.96C103.148 212.96 103.988 213.24 104.648 213.82V210.42C104.528 208.42 107.608 208.42 107.488 210.42ZM104.028 219.94C104.468 219.46 104.688 218.84 104.688 218.1C104.688 217.36 104.468 216.74 104.028 216.26C103.608 215.78 103.068 215.54 102.408 215.54C101.748 215.54 101.208 215.78 100.768 216.26C100.348 216.74 100.128 217.36 100.128 218.1C100.128 218.84 100.348 219.46 100.768 219.94C101.208 220.42 101.748 220.66 102.408 220.66C103.068 220.66 103.608 220.42 104.028 219.94ZM119.325 217.26C119.325 218.3 118.805 218.82 117.745 218.82H112.725C112.885 219.88 113.705 220.62 114.925 220.62C115.605 220.62 116.185 220.42 116.685 220.02C117.465 219.46 118.185 219.64 118.685 220.3C119.145 220.86 119.005 221.66 118.265 222.24C117.405 222.9 116.305 223.22 115.005 223.22C113.505 223.22 112.285 222.76 111.305 221.84C110.325 220.9 109.845 219.68 109.845 218.16C109.845 216.66 110.285 215.42 111.185 214.44C112.085 213.46 113.245 212.96 114.665 212.96C115.645 212.96 116.505 213.2 117.245 213.66C118.745 214.6 119.325 215.92 119.325 217.26ZM114.725 215.46C113.705 215.46 113.045 216.06 112.865 216.92H116.385C116.325 216.1 115.665 215.46 114.725 215.46ZM127.839 213.98C128.699 213.3 129.839 212.96 131.219 212.96C132.439 212.96 133.439 213.32 134.219 214.02C134.999 214.72 135.379 215.66 135.379 216.88V221.58C135.379 222.52 134.759 223.1 133.959 223.1C133.299 223.1 132.859 222.8 132.639 222.2C131.959 222.88 131.119 223.22 130.139 223.22C129.159 223.22 128.379 222.94 127.759 222.38C127.139 221.8 126.839 221.08 126.839 220.2C126.839 219.18 127.199 218.42 127.939 217.9C128.679 217.38 129.619 217.1 130.719 217.06L132.519 216.98C132.519 215.98 132.019 215.48 131.019 215.48C130.419 215.48 129.879 215.64 129.379 215.98C128.639 216.48 127.919 216.42 127.499 215.86C127.039 215.32 127.179 214.52 127.839 213.98ZM129.699 220.04C129.699 220.52 130.119 220.82 130.839 220.82C131.419 220.82 131.979 220.62 132.519 220.22V219.06L131.259 219.16C130.219 219.22 129.699 219.5 129.699 220.04ZM144.319 216.12C143.859 215.78 143.379 215.6 142.879 215.6C141.459 215.6 140.499 216.64 140.499 218.1C140.499 219.56 141.459 220.6 142.879 220.6C143.419 220.6 143.959 220.38 144.499 219.96C145.279 219.4 145.999 219.58 146.499 220.24C146.959 220.8 146.819 221.6 146.079 222.18C145.159 222.88 144.059 223.22 142.779 223.22C141.299 223.22 140.059 222.74 139.079 221.76C138.099 220.78 137.599 219.56 137.599 218.1C137.599 216.64 138.099 215.42 139.079 214.44C140.079 213.46 141.319 212.96 142.779 212.96C143.919 212.96 144.919 213.26 145.759 213.88C146.499 214.46 146.699 215.3 146.279 215.86C145.819 216.5 145.099 216.66 144.319 216.12ZM155.12 216.12C154.66 215.78 154.18 215.6 153.68 215.6C152.26 215.6 151.3 216.64 151.3 218.1C151.3 219.56 152.26 220.6 153.68 220.6C154.22 220.6 154.76 220.38 155.3 219.96C156.08 219.4 156.8 219.58 157.3 220.24C157.76 220.8 157.62 221.6 156.88 222.18C155.96 222.88 154.86 223.22 153.58 223.22C152.1 223.22 150.86 222.74 149.88 221.76C148.9 220.78 148.4 219.56 148.4 218.1C148.4 216.64 148.9 215.42 149.88 214.44C150.88 213.46 152.12 212.96 153.58 212.96C154.72 212.96 155.72 213.26 156.56 213.88C157.3 214.46 157.5 215.3 157.08 215.86C156.62 216.5 155.9 216.66 155.12 216.12ZM168.7 217.26C168.7 218.3 168.18 218.82 167.12 218.82H162.1C162.26 219.88 163.08 220.62 164.3 220.62C164.98 220.62 165.56 220.42 166.06 220.02C166.84 219.46 167.56 219.64 168.06 220.3C168.52 220.86 168.38 221.66 167.64 222.24C166.78 222.9 165.68 223.22 164.38 223.22C162.88 223.22 161.66 222.76 160.68 221.84C159.7 220.9 159.22 219.68 159.22 218.16C159.22 216.66 159.66 215.42 160.56 214.44C161.46 213.46 162.62 212.96 164.04 212.96C165.02 212.96 165.88 213.2 166.62 213.66C168.12 214.6 168.7 215.92 168.7 217.26ZM164.1 215.46C163.08 215.46 162.42 216.06 162.24 216.92H165.76C165.7 216.1 165.04 215.46 164.1 215.46ZM171.368 222.14C170.708 221.56 170.628 220.8 171.128 220.24C171.668 219.64 172.288 219.62 173.008 220.2C173.548 220.62 174.268 220.84 175.148 220.84C175.768 220.84 176.248 220.62 176.248 220.24C176.248 219.92 176.028 219.76 175.368 219.58L174.268 219.26C172.088 218.64 171.068 217.64 171.068 216.06C171.068 215.12 171.428 214.38 172.168 213.82C172.908 213.24 173.808 212.96 174.868 212.96C176.008 212.96 176.968 213.2 177.768 213.7C178.488 214.18 178.668 214.9 178.288 215.52C177.868 216.16 177.188 216.34 176.408 215.88C175.888 215.54 175.328 215.38 174.748 215.38C174.188 215.38 173.828 215.6 173.828 215.92C173.828 216.22 174.048 216.34 174.528 216.48L175.788 216.82C177.788 217.38 179.008 218.24 179.008 220.06C179.008 221.92 177.408 223.22 174.908 223.22C173.408 223.22 172.228 222.86 171.368 222.14ZM182.087 221.76C181.107 220.78 180.607 219.56 180.607 218.1C180.607 216.64 181.107 215.42 182.087 214.44C183.087 213.46 184.327 212.96 185.787 212.96C187.247 212.96 188.487 213.46 189.467 214.44C190.467 215.42 190.967 216.64 190.967 218.1C190.967 219.56 190.467 220.78 189.487 221.76C188.507 222.74 187.267 223.22 185.787 223.22C184.307 223.22 183.067 222.74 182.087 221.76ZM184.147 216.32C183.727 216.78 183.507 217.38 183.507 218.1C183.507 218.82 183.727 219.42 184.147 219.88C184.567 220.34 185.127 220.58 185.787 220.58C186.447 220.58 187.007 220.34 187.427 219.88C187.847 219.42 188.067 218.82 188.067 218.1C188.067 217.38 187.847 216.78 187.427 216.32C187.007 215.86 186.447 215.62 185.787 215.62C185.127 215.62 184.567 215.86 184.147 216.32ZM199.421 213.98C200.281 213.3 201.421 212.96 202.801 212.96C204.021 212.96 205.021 213.32 205.801 214.02C206.581 214.72 206.961 215.66 206.961 216.88V221.58C206.961 222.52 206.341 223.1 205.541 223.1C204.881 223.1 204.441 222.8 204.221 222.2C203.541 222.88 202.701 223.22 201.721 223.22C200.741 223.22 199.961 222.94 199.341 222.38C198.721 221.8 198.421 221.08 198.421 220.2C198.421 219.18 198.781 218.42 199.521 217.9C200.261 217.38 201.201 217.1 202.301 217.06L204.101 216.98C204.101 215.98 203.601 215.48 202.601 215.48C202.001 215.48 201.461 215.64 200.961 215.98C200.221 216.48 199.501 216.42 199.081 215.86C198.621 215.32 198.761 214.52 199.421 213.98ZM201.281 220.04C201.281 220.52 201.701 220.82 202.421 220.82C203.001 220.82 203.561 220.62 204.101 220.22V219.06L202.841 219.16C201.801 219.22 201.281 219.5 201.281 220.04ZM218.187 210.42V221.58C218.307 223.58 215.227 223.58 215.347 221.58V210.42C215.227 208.42 218.307 208.42 218.187 210.42ZM221.608 213.98C222.468 213.3 223.608 212.96 224.988 212.96C226.208 212.96 227.208 213.32 227.988 214.02C228.768 214.72 229.148 215.66 229.148 216.88V221.58C229.148 222.52 228.528 223.1 227.728 223.1C227.068 223.1 226.628 222.8 226.408 222.2C225.728 222.88 224.888 223.22 223.908 223.22C222.928 223.22 222.148 222.94 221.528 222.38C220.908 221.8 220.608 221.08 220.608 220.2C220.608 219.18 220.968 218.42 221.708 217.9C222.448 217.38 223.388 217.1 224.488 217.06L226.288 216.98C226.288 215.98 225.788 215.48 224.788 215.48C224.188 215.48 223.648 215.64 223.148 215.98C222.408 216.48 221.688 216.42 221.268 215.86C220.808 215.32 220.948 214.52 221.608 213.98ZM223.468 220.04C223.468 220.52 223.888 220.82 224.608 220.82C225.188 220.82 225.748 220.62 226.288 220.22V219.06L225.028 219.16C223.988 219.22 223.468 219.5 223.468 220.04ZM237.774 222.14C237.114 221.56 237.034 220.8 237.534 220.24C238.074 219.64 238.694 219.62 239.414 220.2C239.954 220.62 240.674 220.84 241.554 220.84C242.174 220.84 242.654 220.62 242.654 220.24C242.654 219.92 242.434 219.76 241.774 219.58L240.674 219.26C238.494 218.64 237.474 217.64 237.474 216.06C237.474 215.12 237.834 214.38 238.574 213.82C239.314 213.24 240.214 212.96 241.274 212.96C242.414 212.96 243.374 213.2 244.174 213.7C244.894 214.18 245.074 214.9 244.694 215.52C244.274 216.16 243.594 216.34 242.814 215.88C242.294 215.54 241.734 215.38 241.154 215.38C240.594 215.38 240.234 215.6 240.234 215.92C240.234 216.22 240.454 216.34 240.934 216.48L242.194 216.82C244.194 217.38 245.414 218.24 245.414 220.06C245.414 221.92 243.814 223.22 241.314 223.22C239.814 223.22 238.634 222.86 237.774 222.14ZM248.19 213.98C249.05 213.3 250.19 212.96 251.57 212.96C252.79 212.96 253.79 213.32 254.57 214.02C255.35 214.72 255.73 215.66 255.73 216.88V221.58C255.73 222.52 255.11 223.1 254.31 223.1C253.65 223.1 253.21 222.8 252.99 222.2C252.31 222.88 251.47 223.22 250.49 223.22C249.51 223.22 248.73 222.94 248.11 222.38C247.49 221.8 247.19 221.08 247.19 220.2C247.19 219.18 247.55 218.42 248.29 217.9C249.03 217.38 249.97 217.1 251.07 217.06L252.87 216.98C252.87 215.98 252.37 215.48 251.37 215.48C250.77 215.48 250.23 215.64 249.73 215.98C248.99 216.48 248.27 216.42 247.85 215.86C247.39 215.32 247.53 214.52 248.19 213.98ZM250.05 220.04C250.05 220.52 250.47 220.82 251.19 220.82C251.77 220.82 252.33 220.62 252.87 220.22V219.06L251.61 219.16C250.57 219.22 250.05 219.5 250.05 220.04ZM261.585 210.42V221.58C261.705 223.58 258.625 223.58 258.745 221.58V210.42C258.625 208.42 261.705 208.42 261.585 210.42ZM273.147 214.62V221.58C273.147 222.52 272.527 223.1 271.727 223.1C271.087 223.1 270.647 222.8 270.427 222.22C269.867 222.88 269.067 223.22 268.007 223.22C265.607 223.22 264.267 221.68 264.267 218.9V214.62C264.147 212.62 267.227 212.62 267.107 214.62V218.68C267.107 219.96 267.607 220.6 268.607 220.6C269.867 220.6 270.307 219.72 270.307 218.1V214.62C270.187 212.62 273.267 212.62 273.147 214.62ZM285.769 210.42V221.58C285.769 222.52 285.149 223.1 284.349 223.1C283.669 223.1 283.229 222.8 283.029 222.18C282.529 222.8 281.469 223.22 280.409 223.22C279.029 223.22 277.849 222.76 276.909 221.82C275.969 220.88 275.509 219.64 275.509 218.1C275.509 216.58 275.969 215.34 276.909 214.4C277.849 213.44 279.029 212.96 280.409 212.96C281.429 212.96 282.269 213.24 282.929 213.82V210.42C282.809 208.42 285.889 208.42 285.769 210.42ZM282.309 219.94C282.749 219.46 282.969 218.84 282.969 218.1C282.969 217.36 282.749 216.74 282.309 216.26C281.889 215.78 281.349 215.54 280.689 215.54C280.029 215.54 279.489 215.78 279.049 216.26C278.629 216.74 278.409 217.36 278.409 218.1C278.409 218.84 278.629 219.46 279.049 219.94C279.489 220.42 280.029 220.66 280.689 220.66C281.349 220.66 281.889 220.42 282.309 219.94ZM294.773 213.98C295.633 213.3 296.773 212.96 298.153 212.96C299.373 212.96 300.373 213.32 301.153 214.02C301.933 214.72 302.313 215.66 302.313 216.88V221.58C302.313 222.52 301.693 223.1 300.893 223.1C300.233 223.1 299.793 222.8 299.573 222.2C298.893 222.88 298.053 223.22 297.073 223.22C296.093 223.22 295.312 222.94 294.693 222.38C294.073 221.8 293.773 221.08 293.773 220.2C293.773 219.18 294.132 218.42 294.873 217.9C295.613 217.38 296.553 217.1 297.653 217.06L299.453 216.98C299.453 215.98 298.953 215.48 297.952 215.48C297.353 215.48 296.813 215.64 296.313 215.98C295.573 216.48 294.853 216.42 294.433 215.86C293.973 215.32 294.113 214.52 294.773 213.98ZM296.633 220.04C296.633 220.52 297.053 220.82 297.773 220.82C298.353 220.82 298.913 220.62 299.453 220.22V219.06L298.193 219.16C297.153 219.22 296.633 219.5 296.633 220.04ZM135.63 244.58V237.62C135.63 236.68 136.25 236.1 137.05 236.1C137.71 236.1 138.15 236.4 138.37 236.98C138.95 236.3 139.73 235.96 140.75 235.96C143.17 235.96 144.73 237.56 144.73 240.3V244.58C144.73 245.52 144.13 246.1 143.31 246.1C142.49 246.1 141.89 245.52 141.89 244.58V240.52C141.89 239.4 141.37 238.6 140.27 238.6C139.07 238.6 138.47 239.44 138.47 241.1V244.58C138.59 246.58 135.51 246.58 135.63 244.58ZM147.522 233.42C147.522 232.48 148.262 231.76 149.162 231.76C150.102 231.76 150.822 232.48 150.822 233.42C150.822 234.32 150.062 235.06 149.162 235.06C148.262 235.06 147.522 234.32 147.522 233.42ZM150.582 244.58C150.582 245.52 149.982 246.1 149.162 246.1C148.342 246.1 147.742 245.52 147.742 244.58V237.62C147.742 236.68 148.342 236.1 149.162 236.1C149.982 236.1 150.582 236.68 150.582 237.62V244.58ZM153.618 237.62C153.618 236.68 154.238 236.1 155.038 236.1C155.698 236.1 156.138 236.4 156.358 236.98C156.938 236.3 157.718 235.96 158.738 235.96C161.158 235.96 162.718 237.56 162.718 240.3V244.58C162.718 245.52 162.118 246.1 161.298 246.1C160.478 246.1 159.878 245.52 159.878 244.58V240.52C159.878 239.4 159.358 238.6 158.258 238.6C157.058 238.6 156.458 239.44 156.458 241.1V244.58C156.578 246.58 153.498 246.58 153.618 244.58V237.62ZM157.578 232.12L158.398 232.38C158.658 232.46 158.858 232.5 158.998 232.5C159.198 232.5 159.358 232.4 159.498 232.22C159.678 231.98 159.958 231.86 160.318 231.86C160.958 231.86 161.258 232.26 161.258 232.88C161.258 233.68 160.478 234.48 159.418 234.48C159.318 234.48 159.038 234.42 158.558 234.32L157.738 234.06C157.478 233.98 157.278 233.94 157.138 233.94C156.938 233.94 156.778 234.04 156.638 234.22C156.458 234.46 156.178 234.58 155.818 234.58C155.178 234.58 154.878 234.18 154.878 233.56C154.878 232.76 155.658 231.96 156.718 231.96C156.818 231.96 157.098 232.02 157.578 232.12ZM166.335 244.76C165.355 243.78 164.855 242.56 164.855 241.1C164.855 239.64 165.355 238.42 166.335 237.44C167.335 236.46 168.575 235.96 170.035 235.96C171.495 235.96 172.735 236.46 173.715 237.44C174.715 238.42 175.215 239.64 175.215 241.1C175.215 242.56 174.715 243.78 173.735 244.76C172.755 245.74 171.515 246.22 170.035 246.22C168.555 246.22 167.315 245.74 166.335 244.76ZM168.395 239.32C167.975 239.78 167.755 240.38 167.755 241.1C167.755 241.82 167.975 242.42 168.395 242.88C168.815 243.34 169.375 243.58 170.035 243.58C170.695 243.58 171.255 243.34 171.675 242.88C172.095 242.42 172.315 241.82 172.315 241.1C172.315 240.38 172.095 239.78 171.675 239.32C171.255 238.86 170.695 238.62 170.035 238.62C169.375 238.62 168.815 238.86 168.395 239.32ZM177.823 245.14C177.163 244.56 177.083 243.8 177.583 243.24C178.123 242.64 178.743 242.62 179.463 243.2C180.003 243.62 180.723 243.84 181.603 243.84C182.223 243.84 182.703 243.62 182.703 243.24C182.703 242.92 182.483 242.76 181.823 242.58L180.723 242.26C178.543 241.64 177.523 240.64 177.523 239.06C177.523 238.12 177.883 237.38 178.623 236.82C179.363 236.24 180.263 235.96 181.323 235.96C182.463 235.96 183.423 236.2 184.223 236.7C184.943 237.18 185.123 237.9 184.743 238.52C184.323 239.16 183.643 239.34 182.863 238.88C182.343 238.54 181.783 238.38 181.203 238.38C180.643 238.38 180.283 238.6 180.283 238.92C180.283 239.22 180.503 239.34 180.983 239.48L182.243 239.82C184.243 240.38 185.463 241.24 185.463 243.06C185.463 244.92 183.863 246.22 181.363 246.22C179.863 246.22 178.683 245.86 177.823 245.14ZM190.687 245.44L189.347 248.3C189.047 248.94 188.467 249.2 187.847 249.04C187.127 248.82 186.707 248.16 187.007 247.38L188.087 244.44C188.407 243.56 189.127 243.2 189.947 243.46C190.727 243.7 191.067 244.58 190.687 245.44ZM199.595 244.58V237.62C199.595 236.68 200.215 236.1 201.015 236.1C201.675 236.1 202.115 236.4 202.335 236.98C202.915 236.3 203.695 235.96 204.715 235.96C207.135 235.96 208.695 237.56 208.695 240.3V244.58C208.695 245.52 208.095 246.1 207.275 246.1C206.455 246.1 205.855 245.52 205.855 244.58V240.52C205.855 239.4 205.335 238.6 204.235 238.6C203.035 238.6 202.435 239.44 202.435 241.1V244.58C202.555 246.58 199.475 246.58 199.595 244.58ZM211.486 233.42C211.486 232.48 212.226 231.76 213.126 231.76C214.066 231.76 214.786 232.48 214.786 233.42C214.786 234.32 214.026 235.06 213.126 235.06C212.226 235.06 211.486 234.32 211.486 233.42ZM214.546 244.58C214.546 245.52 213.946 246.1 213.126 246.1C212.306 246.1 211.706 245.52 211.706 244.58V237.62C211.706 236.68 212.306 236.1 213.126 236.1C213.946 236.1 214.546 236.68 214.546 237.62V244.58ZM217.583 237.62C217.583 236.68 218.203 236.1 219.003 236.1C219.663 236.1 220.103 236.4 220.323 236.98C220.903 236.3 221.683 235.96 222.703 235.96C225.123 235.96 226.683 237.56 226.683 240.3V244.58C226.683 245.52 226.083 246.1 225.263 246.1C224.443 246.1 223.843 245.52 223.843 244.58V240.52C223.843 239.4 223.323 238.6 222.223 238.6C221.023 238.6 220.423 239.44 220.423 241.1V244.58C220.543 246.58 217.463 246.58 217.583 244.58V237.62ZM221.543 232.12L222.363 232.38C222.623 232.46 222.823 232.5 222.963 232.5C223.163 232.5 223.323 232.4 223.463 232.22C223.643 231.98 223.923 231.86 224.283 231.86C224.923 231.86 225.223 232.26 225.223 232.88C225.223 233.68 224.443 234.48 223.383 234.48C223.283 234.48 223.003 234.42 222.523 234.32L221.703 234.06C221.443 233.98 221.243 233.94 221.103 233.94C220.903 233.94 220.743 234.04 220.603 234.22C220.423 234.46 220.143 234.58 219.783 234.58C219.143 234.58 218.843 234.18 218.843 233.56C218.843 232.76 219.623 231.96 220.683 231.96C220.783 231.96 221.063 232.02 221.543 232.12ZM229.88 236.98C230.74 236.3 231.88 235.96 233.26 235.96C234.48 235.96 235.48 236.32 236.26 237.02C237.04 237.72 237.42 238.66 237.42 239.88V244.58C237.42 245.52 236.8 246.1 236 246.1C235.34 246.1 234.9 245.8 234.68 245.2C234 245.88 233.16 246.22 232.18 246.22C231.2 246.22 230.42 245.94 229.8 245.38C229.18 244.8 228.88 244.08 228.88 243.2C228.88 242.18 229.24 241.42 229.98 240.9C230.72 240.38 231.66 240.1 232.76 240.06L234.56 239.98C234.56 238.98 234.06 238.48 233.06 238.48C232.46 238.48 231.92 238.64 231.42 238.98C230.68 239.48 229.96 239.42 229.54 238.86C229.08 238.32 229.22 237.52 229.88 236.98ZM231.74 243.04C231.74 243.52 232.16 243.82 232.88 243.82C233.46 243.82 234.02 243.62 234.56 243.22V242.06L233.3 242.16C232.26 242.22 231.74 242.5 231.74 243.04ZM240.46 245.14C239.8 244.56 239.72 243.8 240.22 243.24C240.76 242.64 241.38 242.62 242.1 243.2C242.64 243.62 243.36 243.84 244.24 243.84C244.86 243.84 245.34 243.62 245.34 243.24C245.34 242.92 245.12 242.76 244.46 242.58L243.36 242.26C241.18 241.64 240.16 240.64 240.16 239.06C240.16 238.12 240.52 237.38 241.26 236.82C242 236.24 242.9 235.96 243.96 235.96C245.1 235.96 246.06 236.2 246.86 236.7C247.58 237.18 247.76 237.9 247.38 238.52C246.96 239.16 246.28 239.34 245.5 238.88C244.98 238.54 244.42 238.38 243.84 238.38C243.28 238.38 242.92 238.6 242.92 238.92C242.92 239.22 243.14 239.34 243.62 239.48L244.88 239.82C246.88 240.38 248.1 241.24 248.1 243.06C248.1 244.92 246.5 246.22 244 246.22C242.5 246.22 241.32 245.86 240.46 245.14ZM258.002 248.04L258.882 246L255.862 238.12C255.542 237.24 255.962 236.4 256.762 236.16C257.502 235.94 258.222 236.3 258.542 237.2L260.422 242.26L262.322 237.2C262.642 236.3 263.362 235.94 264.102 236.16C264.902 236.42 265.362 237.16 265.022 238.02L260.702 248.86C260.322 249.8 259.742 250.14 258.922 249.9C258.102 249.64 257.622 248.9 258.002 248.04ZM104.968 259.98C105.828 259.3 106.968 258.96 108.348 258.96C109.568 258.96 110.568 259.32 111.348 260.02C112.128 260.72 112.508 261.66 112.508 262.88V267.58C112.508 268.52 111.888 269.1 111.088 269.1C110.428 269.1 109.988 268.8 109.768 268.2C109.088 268.88 108.248 269.22 107.268 269.22C106.288 269.22 105.508 268.94 104.888 268.38C104.268 267.8 103.968 267.08 103.968 266.2C103.968 265.18 104.328 264.42 105.068 263.9C105.808 263.38 106.748 263.1 107.848 263.06L109.648 262.98C109.648 261.98 109.148 261.48 108.148 261.48C107.548 261.48 107.008 261.64 106.508 261.98C105.768 262.48 105.048 262.42 104.628 261.86C104.168 261.32 104.308 260.52 104.968 259.98ZM106.828 266.04C106.828 266.52 107.248 266.82 107.968 266.82C108.548 266.82 109.108 266.62 109.648 266.22V265.06L108.388 265.16C107.348 265.22 106.828 265.5 106.828 266.04ZM124.988 256.42V267.58C124.988 268.52 124.368 269.1 123.568 269.1C122.888 269.1 122.448 268.8 122.248 268.18C121.748 268.8 120.688 269.22 119.628 269.22C118.248 269.22 117.068 268.76 116.128 267.82C115.188 266.88 114.728 265.64 114.728 264.1C114.728 262.58 115.188 261.34 116.128 260.4C117.068 259.44 118.248 258.96 119.628 258.96C120.648 258.96 121.488 259.24 122.148 259.82V256.42C122.028 254.42 125.108 254.42 124.988 256.42ZM121.528 265.94C121.968 265.46 122.188 264.84 122.188 264.1C122.188 263.36 121.968 262.74 121.528 262.26C121.108 261.78 120.568 261.54 119.908 261.54C119.248 261.54 118.708 261.78 118.268 262.26C117.848 262.74 117.628 263.36 117.628 264.1C117.628 264.84 117.848 265.46 118.268 265.94C118.708 266.42 119.248 266.66 119.908 266.66C120.568 266.66 121.108 266.42 121.528 265.94ZM128.825 267.76C127.845 266.78 127.345 265.56 127.345 264.1C127.345 262.64 127.845 261.42 128.825 260.44C129.825 259.46 131.065 258.96 132.525 258.96C133.985 258.96 135.225 259.46 136.205 260.44C137.205 261.42 137.705 262.64 137.705 264.1C137.705 265.56 137.205 266.78 136.225 267.76C135.245 268.74 134.005 269.22 132.525 269.22C131.045 269.22 129.805 268.74 128.825 267.76ZM130.885 262.32C130.465 262.78 130.245 263.38 130.245 264.1C130.245 264.82 130.465 265.42 130.885 265.88C131.305 266.34 131.865 266.58 132.525 266.58C133.185 266.58 133.745 266.34 134.165 265.88C134.585 265.42 134.805 264.82 134.805 264.1C134.805 263.38 134.585 262.78 134.165 262.32C133.745 261.86 133.185 261.62 132.525 261.62C131.865 261.62 131.305 261.86 130.885 262.32ZM142.913 256.42V267.58C143.033 269.58 139.953 269.58 140.073 267.58V256.42C139.953 254.42 143.033 254.42 142.913 256.42ZM154.755 263.26C154.755 264.3 154.235 264.82 153.175 264.82H148.155C148.315 265.88 149.135 266.62 150.355 266.62C151.035 266.62 151.615 266.42 152.115 266.02C152.895 265.46 153.615 265.64 154.115 266.3C154.575 266.86 154.435 267.66 153.695 268.24C152.835 268.9 151.735 269.22 150.435 269.22C148.935 269.22 147.715 268.76 146.735 267.84C145.755 266.9 145.275 265.68 145.275 264.16C145.275 262.66 145.715 261.42 146.615 260.44C147.515 259.46 148.675 258.96 150.095 258.96C151.075 258.96 151.935 259.2 152.675 259.66C154.175 260.6 154.755 261.92 154.755 263.26ZM150.155 261.46C149.135 261.46 148.475 262.06 148.295 262.92H151.815C151.755 262.1 151.095 261.46 150.155 261.46ZM157.423 268.14C156.763 267.56 156.683 266.8 157.183 266.24C157.723 265.64 158.343 265.62 159.063 266.2C159.603 266.62 160.323 266.84 161.203 266.84C161.823 266.84 162.303 266.62 162.303 266.24C162.303 265.92 162.083 265.76 161.423 265.58L160.323 265.26C158.143 264.64 157.123 263.64 157.123 262.06C157.123 261.12 157.483 260.38 158.223 259.82C158.963 259.24 159.863 258.96 160.923 258.96C162.063 258.96 163.023 259.2 163.823 259.7C164.543 260.18 164.723 260.9 164.343 261.52C163.923 262.16 163.243 262.34 162.463 261.88C161.943 261.54 161.383 261.38 160.803 261.38C160.243 261.38 159.883 261.6 159.883 261.92C159.883 262.22 160.103 262.34 160.583 262.48L161.843 262.82C163.843 263.38 165.063 264.24 165.063 266.06C165.063 267.92 163.463 269.22 160.963 269.22C159.463 269.22 158.283 268.86 157.423 268.14ZM173.362 262.12C172.902 261.78 172.422 261.6 171.922 261.6C170.502 261.6 169.542 262.64 169.542 264.1C169.542 265.56 170.502 266.6 171.922 266.6C172.462 266.6 173.002 266.38 173.542 265.96C174.322 265.4 175.042 265.58 175.542 266.24C176.002 266.8 175.862 267.6 175.122 268.18C174.202 268.88 173.102 269.22 171.822 269.22C170.342 269.22 169.102 268.74 168.122 267.76C167.142 266.78 166.642 265.56 166.642 264.1C166.642 262.64 167.142 261.42 168.122 260.44C169.122 259.46 170.362 258.96 171.822 258.96C172.962 258.96 173.962 259.26 174.802 259.88C175.542 260.46 175.742 261.3 175.322 261.86C174.862 262.5 174.142 262.66 173.362 262.12ZM186.943 263.26C186.943 264.3 186.423 264.82 185.363 264.82H180.343C180.503 265.88 181.323 266.62 182.543 266.62C183.223 266.62 183.803 266.42 184.303 266.02C185.083 265.46 185.803 265.64 186.303 266.3C186.763 266.86 186.623 267.66 185.883 268.24C185.023 268.9 183.923 269.22 182.623 269.22C181.123 269.22 179.903 268.76 178.923 267.84C177.943 266.9 177.463 265.68 177.463 264.16C177.463 262.66 177.903 261.42 178.803 260.44C179.703 259.46 180.863 258.96 182.283 258.96C183.263 258.96 184.123 259.2 184.863 259.66C186.363 260.6 186.943 261.92 186.943 263.26ZM182.343 261.46C181.323 261.46 180.663 262.06 180.483 262.92H184.003C183.943 262.1 183.283 261.46 182.343 261.46ZM189.37 267.58V260.62C189.37 259.68 189.99 259.1 190.79 259.1C191.45 259.1 191.89 259.4 192.11 259.98C192.69 259.3 193.47 258.96 194.49 258.96C196.91 258.96 198.47 260.56 198.47 263.3V267.58C198.47 268.52 197.87 269.1 197.05 269.1C196.23 269.1 195.63 268.52 195.63 267.58V263.52C195.63 262.4 195.11 261.6 194.01 261.6C192.81 261.6 192.21 262.44 192.21 264.1V267.58C192.33 269.58 189.25 269.58 189.37 267.58ZM205.23 266.4C206.13 266.5 206.61 267 206.61 267.74C206.61 268.48 206.07 269.04 205.09 269.04H204.83C202.55 269.04 201.41 267.88 201.41 265.54V261.82H201.05C200.17 261.82 199.63 261.26 199.63 260.52C199.63 259.78 200.17 259.2 201.05 259.2H201.41V257.88C201.29 255.88 204.37 255.88 204.23 257.88V259.2H205.19C206.07 259.2 206.61 259.78 206.61 260.52C206.61 261.26 206.07 261.82 205.19 261.82H204.23V265.2C204.23 266.02 204.57 266.34 205.23 266.4ZM217.782 263.26C217.782 264.3 217.262 264.82 216.202 264.82H211.182C211.342 265.88 212.162 266.62 213.382 266.62C214.062 266.62 214.642 266.42 215.142 266.02C215.922 265.46 216.642 265.64 217.142 266.3C217.602 266.86 217.462 267.66 216.722 268.24C215.862 268.9 214.762 269.22 213.462 269.22C211.962 269.22 210.742 268.76 209.762 267.84C208.782 266.9 208.302 265.68 208.302 264.16C208.302 262.66 208.742 261.42 209.642 260.44C210.542 259.46 211.702 258.96 213.122 258.96C214.102 258.96 214.962 259.2 215.702 259.66C217.202 260.6 217.782 261.92 217.782 263.26ZM213.182 261.46C212.162 261.46 211.502 262.06 211.322 262.92H214.842C214.782 262.1 214.122 261.46 213.182 261.46ZM220.45 268.14C219.79 267.56 219.71 266.8 220.21 266.24C220.75 265.64 221.37 265.62 222.09 266.2C222.63 266.62 223.35 266.84 224.23 266.84C224.85 266.84 225.33 266.62 225.33 266.24C225.33 265.92 225.11 265.76 224.45 265.58L223.35 265.26C221.17 264.64 220.15 263.64 220.15 262.06C220.15 261.12 220.51 260.38 221.25 259.82C221.99 259.24 222.89 258.96 223.95 258.96C225.09 258.96 226.05 259.2 226.85 259.7C227.57 260.18 227.75 260.9 227.37 261.52C226.95 262.16 226.27 262.34 225.49 261.88C224.97 261.54 224.41 261.38 223.83 261.38C223.27 261.38 222.91 261.6 222.91 261.92C222.91 262.22 223.13 262.34 223.61 262.48L224.87 262.82C226.87 263.38 228.09 264.24 228.09 266.06C228.09 267.92 226.49 269.22 223.99 269.22C222.49 269.22 221.31 268.86 220.45 268.14ZM245.632 260.6V271.46C245.752 273.46 242.672 273.46 242.792 271.46V268.36C242.132 268.94 241.292 269.22 240.272 269.22C238.892 269.22 237.712 268.74 236.772 267.8C235.832 266.86 235.372 265.62 235.372 264.1C235.372 262.56 235.832 261.32 236.772 260.38C237.712 259.44 238.892 258.96 240.272 258.96C241.332 258.96 242.392 259.38 242.892 260C243.092 259.38 243.532 259.08 244.212 259.08C245.012 259.08 245.632 259.64 245.632 260.6ZM242.172 265.94C242.612 265.46 242.832 264.84 242.832 264.1C242.832 263.36 242.612 262.74 242.172 262.26C241.752 261.78 241.212 261.54 240.552 261.54C239.892 261.54 239.352 261.78 238.912 262.26C238.492 262.74 238.272 263.36 238.272 264.1C238.272 264.84 238.492 265.46 238.912 265.94C239.352 266.42 239.892 266.66 240.552 266.66C241.212 266.66 241.752 266.42 242.172 265.94ZM257.19 260.62V267.58C257.19 268.52 256.57 269.1 255.77 269.1C255.13 269.1 254.69 268.8 254.47 268.22C253.91 268.88 253.11 269.22 252.05 269.22C249.65 269.22 248.31 267.68 248.31 264.9V260.62C248.19 258.62 251.27 258.62 251.15 260.62V264.68C251.15 265.96 251.65 266.6 252.65 266.6C253.91 266.6 254.35 265.72 254.35 264.1V260.62C254.23 258.62 257.31 258.62 257.19 260.62ZM269.052 263.26C269.052 264.3 268.532 264.82 267.472 264.82H262.452C262.612 265.88 263.432 266.62 264.652 266.62C265.332 266.62 265.912 266.42 266.412 266.02C267.192 265.46 267.912 265.64 268.412 266.3C268.872 266.86 268.732 267.66 267.992 268.24C267.132 268.9 266.032 269.22 264.732 269.22C263.232 269.22 262.012 268.76 261.032 267.84C260.052 266.9 259.572 265.68 259.572 264.16C259.572 262.66 260.012 261.42 260.912 260.44C261.812 259.46 262.972 258.96 264.392 258.96C265.372 258.96 266.232 259.2 266.972 259.66C268.472 260.6 269.052 261.92 269.052 263.26ZM264.452 261.46C263.432 261.46 262.772 262.06 262.592 262.92H266.112C266.052 262.1 265.392 261.46 264.452 261.46ZM277.305 268.14C276.645 267.56 276.565 266.8 277.065 266.24C277.605 265.64 278.225 265.62 278.945 266.2C279.485 266.62 280.205 266.84 281.085 266.84C281.705 266.84 282.185 266.62 282.185 266.24C282.185 265.92 281.965 265.76 281.305 265.58L280.205 265.26C278.025 264.64 277.005 263.64 277.005 262.06C277.005 261.12 277.365 260.38 278.105 259.82C278.845 259.24 279.745 258.96 280.805 258.96C281.945 258.96 282.905 259.2 283.705 259.7C284.425 260.18 284.605 260.9 284.225 261.52C283.805 262.16 283.125 262.34 282.345 261.88C281.825 261.54 281.265 261.38 280.685 261.38C280.125 261.38 279.765 261.6 279.765 261.92C279.765 262.22 279.985 262.34 280.465 262.48L281.725 262.82C283.725 263.38 284.945 264.24 284.945 266.06C284.945 267.92 283.345 269.22 280.845 269.22C279.345 269.22 278.165 268.86 277.305 268.14ZM296.025 263.26C296.025 264.3 295.505 264.82 294.445 264.82H289.425C289.585 265.88 290.405 266.62 291.625 266.62C292.305 266.62 292.885 266.42 293.385 266.02C294.165 265.46 294.885 265.64 295.385 266.3C295.845 266.86 295.705 267.66 294.965 268.24C294.105 268.9 293.005 269.22 291.705 269.22C290.205 269.22 288.985 268.76 288.005 267.84C287.025 266.9 286.545 265.68 286.545 264.16C286.545 262.66 286.985 261.42 287.885 260.44C288.785 259.46 289.945 258.96 291.365 258.96C292.345 258.96 293.205 259.2 293.945 259.66C295.445 260.6 296.025 261.92 296.025 263.26ZM291.425 261.46C290.405 261.46 289.745 262.06 289.565 262.92H293.085C293.025 262.1 292.365 261.46 291.425 261.46ZM95.3702 286.26C95.3702 287.3 94.8502 287.82 93.7902 287.82H88.7702C88.9302 288.88 89.7502 289.62 90.9702 289.62C91.6502 289.62 92.2302 289.42 92.7302 289.02C93.5102 288.46 94.2302 288.64 94.7302 289.3C95.1902 289.86 95.0502 290.66 94.3102 291.24C93.4502 291.9 92.3502 292.22 91.0502 292.22C89.5502 292.22 88.3302 291.76 87.3502 290.84C86.3702 289.9 85.8902 288.68 85.8902 287.16C85.8902 285.66 86.3302 284.42 87.2302 283.44C88.1302 282.46 89.2902 281.96 90.7102 281.96C91.6902 281.96 92.5502 282.2 93.2902 282.66C94.7902 283.6 95.3702 284.92 95.3702 286.26ZM90.7702 284.46C89.7502 284.46 89.0902 285.06 88.9102 285.92H92.4302C92.3702 285.1 91.7102 284.46 90.7702 284.46ZM97.7979 290.58V283.62C97.7979 282.68 98.4179 282.1 99.2179 282.1C99.8779 282.1 100.318 282.4 100.538 282.98C101.118 282.3 101.898 281.96 102.918 281.96C105.338 281.96 106.898 283.56 106.898 286.3V290.58C106.898 291.52 106.298 292.1 105.478 292.1C104.658 292.1 104.058 291.52 104.058 290.58V286.52C104.058 285.4 103.538 284.6 102.438 284.6C101.238 284.6 100.638 285.44 100.638 287.1V290.58C100.758 292.58 97.6779 292.58 97.7979 290.58ZM115.735 285.12C115.275 284.78 114.795 284.6 114.295 284.6C112.875 284.6 111.915 285.64 111.915 287.1C111.915 288.56 112.875 289.6 114.295 289.6C114.835 289.6 115.375 289.38 115.915 288.96C116.695 288.4 117.415 288.58 117.915 289.24C118.375 289.8 118.235 290.6 117.495 291.18C116.575 291.88 115.475 292.22 114.195 292.22C112.715 292.22 111.475 291.74 110.495 290.76C109.515 289.78 109.015 288.56 109.015 287.1C109.015 285.64 109.515 284.42 110.495 283.44C111.495 282.46 112.735 281.96 114.195 281.96C115.335 281.96 116.335 282.26 117.175 282.88C117.915 283.46 118.115 284.3 117.695 284.86C117.235 285.5 116.515 285.66 115.735 285.12ZM129.368 283.62V290.58C129.368 291.52 128.748 292.1 127.948 292.1C127.308 292.1 126.868 291.8 126.648 291.22C126.088 291.88 125.288 292.22 124.228 292.22C121.828 292.22 120.488 290.68 120.488 287.9V283.62C120.368 281.62 123.448 281.62 123.328 283.62V287.68C123.328 288.96 123.828 289.6 124.828 289.6C126.088 289.6 126.528 288.72 126.528 287.1V283.62C126.408 281.62 129.488 281.62 129.368 283.62ZM141.23 286.26C141.23 287.3 140.71 287.82 139.65 287.82H134.63C134.79 288.88 135.61 289.62 136.83 289.62C137.51 289.62 138.09 289.42 138.59 289.02C139.37 288.46 140.09 288.64 140.59 289.3C141.05 289.86 140.91 290.66 140.17 291.24C139.31 291.9 138.21 292.22 136.91 292.22C135.41 292.22 134.19 291.76 133.21 290.84C132.23 289.9 131.75 288.68 131.75 287.16C131.75 285.66 132.19 284.42 133.09 283.44C133.99 282.46 135.15 281.96 136.57 281.96C137.55 281.96 138.41 282.2 139.15 282.66C140.65 283.6 141.23 284.92 141.23 286.26ZM136.63 284.46C135.61 284.46 134.95 285.06 134.77 285.92H138.29C138.23 285.1 137.57 284.46 136.63 284.46ZM143.657 290.58V283.62C143.657 282.68 144.277 282.1 145.077 282.1C145.737 282.1 146.177 282.4 146.397 282.98C146.977 282.3 147.757 281.96 148.777 281.96C151.197 281.96 152.757 283.56 152.757 286.3V290.58C152.757 291.52 152.157 292.1 151.337 292.1C150.517 292.1 149.917 291.52 149.917 290.58V286.52C149.917 285.4 149.397 284.6 148.297 284.6C147.097 284.6 146.497 285.44 146.497 287.1V290.58C146.617 292.58 143.537 292.58 143.657 290.58ZM159.517 289.4C160.417 289.5 160.897 290 160.897 290.74C160.897 291.48 160.357 292.04 159.377 292.04H159.117C156.837 292.04 155.697 290.88 155.697 288.54V284.82H155.337C154.457 284.82 153.917 284.26 153.917 283.52C153.917 282.78 154.457 282.2 155.337 282.2H155.697V280.88C155.577 278.88 158.657 278.88 158.517 280.88V282.2H159.477C160.357 282.2 160.897 282.78 160.897 283.52C160.897 284.26 160.357 284.82 159.477 284.82H158.517V288.2C158.517 289.02 158.857 289.34 159.517 289.4ZM169.247 282.14C169.887 282.3 170.367 282.8 170.367 283.54C170.367 284.32 169.827 284.86 169.127 284.86C168.987 284.86 168.687 284.82 168.507 284.82C167.147 284.82 166.107 285.92 166.107 287.9V290.58C166.227 292.58 163.147 292.58 163.267 290.58V283.62C163.267 282.68 163.887 282.1 164.687 282.1C165.427 282.1 165.967 282.58 166.067 283.28C166.627 282.5 167.587 282.06 168.447 282.06C168.787 282.06 169.047 282.08 169.247 282.14ZM172.243 282.98C173.103 282.3 174.243 281.96 175.623 281.96C176.843 281.96 177.843 282.32 178.623 283.02C179.403 283.72 179.783 284.66 179.783 285.88V290.58C179.783 291.52 179.163 292.1 178.363 292.1C177.703 292.1 177.263 291.8 177.043 291.2C176.363 291.88 175.523 292.22 174.543 292.22C173.563 292.22 172.783 291.94 172.163 291.38C171.543 290.8 171.243 290.08 171.243 289.2C171.243 288.18 171.603 287.42 172.343 286.9C173.083 286.38 174.023 286.1 175.123 286.06L176.923 285.98C176.923 284.98 176.423 284.48 175.423 284.48C174.823 284.48 174.283 284.64 173.783 284.98C173.043 285.48 172.323 285.42 171.903 284.86C171.443 284.32 171.583 283.52 172.243 282.98ZM174.103 289.04C174.103 289.52 174.523 289.82 175.243 289.82C175.823 289.82 176.383 289.62 176.923 289.22V288.06L175.663 288.16C174.623 288.22 174.103 288.5 174.103 289.04ZM182.798 290.58V283.62C182.798 282.68 183.418 282.1 184.218 282.1C184.878 282.1 185.318 282.4 185.538 282.98C186.118 282.3 186.898 281.96 187.918 281.96C190.338 281.96 191.898 283.56 191.898 286.3V290.58C191.898 291.52 191.298 292.1 190.478 292.1C189.658 292.1 189.058 291.52 189.058 290.58V286.52C189.058 285.4 188.538 284.6 187.438 284.6C186.238 284.6 185.638 285.44 185.638 287.1V290.58C185.758 292.58 182.678 292.58 182.798 290.58ZM209.101 286.26C209.101 287.3 208.581 287.82 207.521 287.82H202.501C202.661 288.88 203.481 289.62 204.701 289.62C205.381 289.62 205.961 289.42 206.461 289.02C207.241 288.46 207.961 288.64 208.461 289.3C208.921 289.86 208.781 290.66 208.041 291.24C207.181 291.9 206.081 292.22 204.781 292.22C203.281 292.22 202.061 291.76 201.081 290.84C200.101 289.9 199.621 288.68 199.621 287.16C199.621 285.66 200.061 284.42 200.961 283.44C201.861 282.46 203.021 281.96 204.441 281.96C205.421 281.96 206.281 282.2 207.021 282.66C208.521 283.6 209.101 284.92 209.101 286.26ZM204.501 284.46C203.481 284.46 202.821 285.06 202.641 285.92H206.161C206.101 285.1 205.441 284.46 204.501 284.46ZM211.528 290.58V283.62C211.528 282.68 212.148 282.1 212.948 282.1C213.608 282.1 214.048 282.4 214.268 282.98C214.848 282.3 215.628 281.96 216.648 281.96C219.068 281.96 220.628 283.56 220.628 286.3V290.58C220.628 291.52 220.028 292.1 219.208 292.1C218.388 292.1 217.788 291.52 217.788 290.58V286.52C217.788 285.4 217.268 284.6 216.168 284.6C214.968 284.6 214.368 285.44 214.368 287.1V290.58C214.488 292.58 211.408 292.58 211.528 290.58ZM229.151 291.14C228.491 290.56 228.411 289.8 228.911 289.24C229.451 288.64 230.071 288.62 230.791 289.2C231.331 289.62 232.051 289.84 232.931 289.84C233.551 289.84 234.031 289.62 234.031 289.24C234.031 288.92 233.811 288.76 233.151 288.58L232.051 288.26C229.871 287.64 228.851 286.64 228.851 285.06C228.851 284.12 229.211 283.38 229.951 282.82C230.691 282.24 231.591 281.96 232.651 281.96C233.791 281.96 234.751 282.2 235.551 282.7C236.271 283.18 236.451 283.9 236.071 284.52C235.651 285.16 234.971 285.34 234.191 284.88C233.671 284.54 233.111 284.38 232.531 284.38C231.971 284.38 231.611 284.6 231.611 284.92C231.611 285.22 231.831 285.34 232.311 285.48L233.571 285.82C235.571 286.38 236.791 287.24 236.791 289.06C236.791 290.92 235.191 292.22 232.691 292.22C231.191 292.22 230.011 291.86 229.151 291.14ZM238.947 279.42C238.947 278.48 239.687 277.76 240.587 277.76C241.527 277.76 242.247 278.48 242.247 279.42C242.247 280.32 241.487 281.06 240.587 281.06C239.687 281.06 238.947 280.32 238.947 279.42ZM242.007 290.58C242.007 291.52 241.407 292.1 240.587 292.1C239.767 292.1 239.167 291.52 239.167 290.58V283.62C239.167 282.68 239.767 282.1 240.587 282.1C241.407 282.1 242.007 282.68 242.007 283.62V290.58ZM249.224 289.4C250.124 289.5 250.604 290 250.604 290.74C250.604 291.48 250.064 292.04 249.084 292.04H248.824C246.544 292.04 245.404 290.88 245.404 288.54V284.82H245.044C244.164 284.82 243.624 284.26 243.624 283.52C243.624 282.78 244.164 282.2 245.044 282.2H245.404V280.88C245.284 278.88 248.364 278.88 248.224 280.88V282.2H249.184C250.064 282.2 250.604 282.78 250.604 283.52C250.604 284.26 250.064 284.82 249.184 284.82H248.224V288.2C248.224 289.02 248.564 289.34 249.224 289.4ZM261.614 283.62V290.58C261.614 291.52 260.994 292.1 260.194 292.1C259.554 292.1 259.114 291.8 258.894 291.22C258.334 291.88 257.534 292.22 256.474 292.22C254.074 292.22 252.734 290.68 252.734 287.9V283.62C252.614 281.62 255.694 281.62 255.574 283.62V287.68C255.574 288.96 256.074 289.6 257.074 289.6C258.334 289.6 258.774 288.72 258.774 287.1V283.62C258.654 281.62 261.734 281.62 261.614 283.62ZM265.056 282.98C265.916 282.3 267.056 281.96 268.436 281.96C269.656 281.96 270.656 282.32 271.436 283.02C272.216 283.72 272.596 284.66 272.596 285.88V290.58C272.596 291.52 271.976 292.1 271.176 292.1C270.516 292.1 270.076 291.8 269.856 291.2C269.176 291.88 268.336 292.22 267.356 292.22C266.376 292.22 265.596 291.94 264.976 291.38C264.356 290.8 264.056 290.08 264.056 289.2C264.056 288.18 264.416 287.42 265.156 286.9C265.896 286.38 266.836 286.1 267.936 286.06L269.736 285.98C269.736 284.98 269.236 284.48 268.236 284.48C267.636 284.48 267.096 284.64 266.596 284.98C265.856 285.48 265.136 285.42 264.716 284.86C264.256 284.32 264.396 283.52 265.056 282.98ZM266.916 289.04C266.916 289.52 267.336 289.82 268.056 289.82C268.636 289.82 269.196 289.62 269.736 289.22V288.06L268.476 288.16C267.436 288.22 266.916 288.5 266.916 289.04ZM281.536 285.12C281.076 284.78 280.596 284.6 280.096 284.6C278.676 284.6 277.716 285.64 277.716 287.1C277.716 288.56 278.676 289.6 280.096 289.6C280.636 289.6 281.176 289.38 281.716 288.96C282.496 288.4 283.216 288.58 283.716 289.24C284.176 289.8 284.036 290.6 283.296 291.18C282.376 291.88 281.276 292.22 279.996 292.22C278.516 292.22 277.276 291.74 276.296 290.76C275.316 289.78 274.816 288.56 274.816 287.1C274.816 285.64 275.316 284.42 276.296 283.44C277.296 282.46 278.536 281.96 279.996 281.96C281.136 281.96 282.136 282.26 282.976 282.88C283.716 283.46 283.916 284.3 283.496 284.86C283.036 285.5 282.316 285.66 281.536 285.12ZM286.408 279.42C286.408 278.48 287.148 277.76 288.048 277.76C288.988 277.76 289.708 278.48 289.708 279.42C289.708 280.32 288.948 281.06 288.048 281.06C287.148 281.06 286.408 280.32 286.408 279.42ZM289.468 290.58C289.468 291.52 288.868 292.1 288.048 292.1C287.228 292.1 286.628 291.52 286.628 290.58V283.62C286.628 282.68 287.228 282.1 288.048 282.1C288.868 282.1 289.468 282.68 289.468 283.62V290.58ZM293.425 290.76C292.445 289.78 291.945 288.56 291.945 287.1C291.945 285.64 292.445 284.42 293.425 283.44C294.425 282.46 295.665 281.96 297.125 281.96C298.585 281.96 299.825 282.46 300.805 283.44C301.805 284.42 302.305 285.64 302.305 287.1C302.305 288.56 301.805 289.78 300.825 290.76C299.845 291.74 298.605 292.22 297.125 292.22C295.645 292.22 294.405 291.74 293.425 290.76ZM295.485 285.32C295.065 285.78 294.845 286.38 294.845 287.1C294.845 287.82 295.065 288.42 295.485 288.88C295.905 289.34 296.465 289.58 297.125 289.58C297.785 289.58 298.345 289.34 298.765 288.88C299.185 288.42 299.405 287.82 299.405 287.1C299.405 286.38 299.185 285.78 298.765 285.32C298.345 284.86 297.785 284.62 297.125 284.62C296.465 284.62 295.905 284.86 295.485 285.32ZM298.305 279.9L296.585 280.7C296.205 280.88 295.845 280.86 295.485 280.64C294.945 280.3 294.805 279.54 295.145 279.04C295.245 278.88 295.385 278.76 295.545 278.66L297.245 277.54C297.705 277.24 298.185 277.26 298.685 277.56C299.265 277.94 299.445 278.76 299.045 279.38C298.865 279.62 298.605 279.8 298.305 279.9ZM304.673 290.58V283.62C304.673 282.68 305.293 282.1 306.093 282.1C306.753 282.1 307.193 282.4 307.413 282.98C307.993 282.3 308.773 281.96 309.793 281.96C312.213 281.96 313.773 283.56 313.773 286.3V290.58C313.773 291.52 313.173 292.1 312.353 292.1C311.533 292.1 310.933 291.52 310.933 290.58V286.52C310.933 285.4 310.413 284.6 309.313 284.6C308.113 284.6 307.513 285.44 307.513 287.1V290.58C307.633 292.58 304.553 292.58 304.673 290.58ZM123.913 302.42V313.58C123.913 314.52 123.293 315.1 122.493 315.1C121.813 315.1 121.373 314.8 121.173 314.18C120.673 314.8 119.613 315.22 118.553 315.22C117.173 315.22 115.993 314.76 115.053 313.82C114.113 312.88 113.653 311.64 113.653 310.1C113.653 308.58 114.113 307.34 115.053 306.4C115.993 305.44 117.173 304.96 118.553 304.96C119.573 304.96 120.413 305.24 121.073 305.82V302.42C120.953 300.42 124.033 300.42 123.913 302.42ZM120.453 311.94C120.893 311.46 121.113 310.84 121.113 310.1C121.113 309.36 120.893 308.74 120.453 308.26C120.033 307.78 119.493 307.54 118.833 307.54C118.173 307.54 117.633 307.78 117.193 308.26C116.773 308.74 116.553 309.36 116.553 310.1C116.553 310.84 116.773 311.46 117.193 311.94C117.633 312.42 118.173 312.66 118.833 312.66C119.493 312.66 120.033 312.42 120.453 311.94ZM135.751 309.26C135.751 310.3 135.231 310.82 134.171 310.82H129.151C129.311 311.88 130.131 312.62 131.351 312.62C132.031 312.62 132.611 312.42 133.111 312.02C133.891 311.46 134.611 311.64 135.111 312.3C135.571 312.86 135.431 313.66 134.691 314.24C133.831 314.9 132.731 315.22 131.431 315.22C129.931 315.22 128.711 314.76 127.731 313.84C126.751 312.9 126.271 311.68 126.271 310.16C126.271 308.66 126.711 307.42 127.611 306.44C128.511 305.46 129.671 304.96 131.091 304.96C132.071 304.96 132.931 305.2 133.671 305.66C135.171 306.6 135.751 307.92 135.751 309.26ZM131.151 307.46C130.131 307.46 129.471 308.06 129.291 308.92H132.811C132.751 308.1 132.091 307.46 131.151 307.46ZM152.385 307.1L149.785 313.6C149.425 314.62 148.765 315.12 147.825 315.12C146.925 315.12 146.285 314.62 145.865 313.6L143.245 307.1C142.905 306.22 143.305 305.4 144.105 305.16C144.885 304.92 145.625 305.34 145.925 306.24L147.825 311.26L149.725 306.24C150.025 305.34 150.805 304.92 151.585 305.16C152.365 305.4 152.725 306.2 152.385 307.1ZM163.049 306.62V313.58C163.049 314.52 162.429 315.1 161.629 315.1C160.989 315.1 160.549 314.8 160.329 314.22C159.769 314.88 158.969 315.22 157.909 315.22C155.509 315.22 154.169 313.68 154.169 310.9V306.62C154.049 304.62 157.129 304.62 157.009 306.62V310.68C157.009 311.96 157.509 312.6 158.509 312.6C159.769 312.6 160.209 311.72 160.209 310.1V306.62C160.089 304.62 163.169 304.62 163.049 306.62ZM169.046 302.42V313.58C169.166 315.58 166.086 315.58 166.206 313.58V302.42C166.086 300.42 169.166 300.42 169.046 302.42ZM172.183 313.58V306.62C172.183 305.68 172.803 305.1 173.603 305.1C174.263 305.1 174.703 305.4 174.923 305.98C175.503 305.3 176.283 304.96 177.303 304.96C179.723 304.96 181.283 306.56 181.283 309.3V313.58C181.283 314.52 180.683 315.1 179.863 315.1C179.043 315.1 178.443 314.52 178.443 313.58V309.52C178.443 308.4 177.923 307.6 176.823 307.6C175.623 307.6 175.023 308.44 175.023 310.1V313.58C175.143 315.58 172.063 315.58 172.183 313.58ZM192.9 309.26C192.9 310.3 192.38 310.82 191.32 310.82H186.3C186.46 311.88 187.28 312.62 188.5 312.62C189.18 312.62 189.76 312.42 190.26 312.02C191.04 311.46 191.76 311.64 192.26 312.3C192.72 312.86 192.58 313.66 191.84 314.24C190.98 314.9 189.88 315.22 188.58 315.22C187.08 315.22 185.86 314.76 184.88 313.84C183.9 312.9 183.42 311.68 183.42 310.16C183.42 308.66 183.86 307.42 184.76 306.44C185.66 305.46 186.82 304.96 188.24 304.96C189.22 304.96 190.08 305.2 190.82 305.66C192.32 306.6 192.9 307.92 192.9 309.26ZM188.3 307.46C187.28 307.46 186.62 308.06 186.44 308.92H189.96C189.9 308.1 189.24 307.46 188.3 307.46ZM201.307 305.14C201.947 305.3 202.427 305.8 202.427 306.54C202.427 307.32 201.887 307.86 201.187 307.86C201.047 307.86 200.747 307.82 200.567 307.82C199.207 307.82 198.167 308.92 198.167 310.9V313.58C198.287 315.58 195.207 315.58 195.327 313.58V306.62C195.327 305.68 195.947 305.1 196.747 305.1C197.487 305.1 198.027 305.58 198.127 306.28C198.687 305.5 199.647 305.06 200.507 305.06C200.847 305.06 201.107 305.08 201.307 305.14ZM204.304 305.98C205.164 305.3 206.304 304.96 207.684 304.96C208.904 304.96 209.904 305.32 210.684 306.02C211.464 306.72 211.844 307.66 211.844 308.88V313.58C211.844 314.52 211.224 315.1 210.424 315.1C209.764 315.1 209.324 314.8 209.104 314.2C208.424 314.88 207.584 315.22 206.604 315.22C205.624 315.22 204.844 314.94 204.224 314.38C203.604 313.8 203.304 313.08 203.304 312.2C203.304 311.18 203.664 310.42 204.404 309.9C205.144 309.38 206.084 309.1 207.184 309.06L208.984 308.98C208.984 307.98 208.484 307.48 207.484 307.48C206.884 307.48 206.344 307.64 205.844 307.98C205.104 308.48 204.384 308.42 203.964 307.86C203.504 307.32 203.644 306.52 204.304 305.98ZM206.164 312.04C206.164 312.52 206.584 312.82 207.304 312.82C207.884 312.82 208.444 312.62 208.984 312.22V311.06L207.724 311.16C206.684 311.22 206.164 311.5 206.164 312.04ZM214.858 313.58V302.42C214.738 300.42 217.818 300.42 217.698 302.42V305.82C218.358 305.24 219.198 304.96 220.218 304.96C221.598 304.96 222.758 305.44 223.698 306.4C224.638 307.34 225.118 308.58 225.118 310.1C225.118 311.64 224.638 312.88 223.698 313.82C222.758 314.76 221.598 315.22 220.218 315.22C219.158 315.22 218.098 314.8 217.598 314.18C217.398 314.8 216.958 315.1 216.278 315.1C215.478 315.1 214.858 314.52 214.858 313.58ZM218.298 308.26C217.878 308.74 217.658 309.36 217.658 310.1C217.658 310.84 217.878 311.46 218.298 311.94C218.738 312.42 219.278 312.66 219.938 312.66C220.598 312.66 221.138 312.42 221.558 311.94C221.998 311.46 222.218 310.84 222.218 310.1C222.218 309.36 221.998 308.74 221.558 308.26C221.138 307.78 220.598 307.54 219.938 307.54C219.278 307.54 218.738 307.78 218.298 308.26ZM227.356 302.42C227.356 301.48 228.096 300.76 228.996 300.76C229.936 300.76 230.656 301.48 230.656 302.42C230.656 303.32 229.896 304.06 228.996 304.06C228.096 304.06 227.356 303.32 227.356 302.42ZM230.416 313.58C230.416 314.52 229.816 315.1 228.996 315.1C228.176 315.1 227.576 314.52 227.576 313.58V306.62C227.576 305.68 228.176 305.1 228.996 305.1C229.816 305.1 230.416 305.68 230.416 306.62V313.58ZM236.507 302.42V313.58C236.627 315.58 233.547 315.58 233.667 313.58V302.42C233.547 300.42 236.627 300.42 236.507 302.42ZM239.524 302.42C239.524 301.48 240.264 300.76 241.164 300.76C242.104 300.76 242.824 301.48 242.824 302.42C242.824 303.32 242.064 304.06 241.164 304.06C240.264 304.06 239.524 303.32 239.524 302.42ZM242.584 313.58C242.584 314.52 241.984 315.1 241.164 315.1C240.344 315.1 239.744 314.52 239.744 313.58V306.62C239.744 305.68 240.344 305.1 241.164 305.1C241.984 305.1 242.584 305.68 242.584 306.62V313.58ZM255.3 302.42V313.58C255.3 314.52 254.68 315.1 253.88 315.1C253.2 315.1 252.76 314.8 252.56 314.18C252.06 314.8 251 315.22 249.94 315.22C248.56 315.22 247.38 314.76 246.44 313.82C245.5 312.88 245.04 311.64 245.04 310.1C245.04 308.58 245.5 307.34 246.44 306.4C247.38 305.44 248.56 304.96 249.94 304.96C250.96 304.96 251.8 305.24 252.46 305.82V302.42C252.34 300.42 255.42 300.42 255.3 302.42ZM251.84 311.94C252.28 311.46 252.5 310.84 252.5 310.1C252.5 309.36 252.28 308.74 251.84 308.26C251.42 307.78 250.88 307.54 250.22 307.54C249.56 307.54 249.02 307.78 248.58 308.26C248.16 308.74 247.94 309.36 247.94 310.1C247.94 310.84 248.16 311.46 248.58 311.94C249.02 312.42 249.56 312.66 250.22 312.66C250.88 312.66 251.42 312.42 251.84 311.94ZM258.718 305.98C259.578 305.3 260.718 304.96 262.098 304.96C263.318 304.96 264.318 305.32 265.098 306.02C265.878 306.72 266.258 307.66 266.258 308.88V313.58C266.258 314.52 265.638 315.1 264.838 315.1C264.178 315.1 263.738 314.8 263.518 314.2C262.838 314.88 261.998 315.22 261.018 315.22C260.038 315.22 259.258 314.94 258.638 314.38C258.018 313.8 257.718 313.08 257.718 312.2C257.718 311.18 258.078 310.42 258.818 309.9C259.558 309.38 260.498 309.1 261.598 309.06L263.398 308.98C263.398 307.98 262.898 307.48 261.898 307.48C261.298 307.48 260.758 307.64 260.258 307.98C259.518 308.48 258.798 308.42 258.378 307.86C257.918 307.32 258.058 306.52 258.718 305.98ZM260.578 312.04C260.578 312.52 260.998 312.82 261.718 312.82C262.298 312.82 262.858 312.62 263.398 312.22V311.06L262.138 311.16C261.098 311.22 260.578 311.5 260.578 312.04ZM278.738 302.42V313.58C278.738 314.52 278.118 315.1 277.318 315.1C276.638 315.1 276.198 314.8 275.998 314.18C275.498 314.8 274.438 315.22 273.378 315.22C271.998 315.22 270.818 314.76 269.878 313.82C268.938 312.88 268.478 311.64 268.478 310.1C268.478 308.58 268.938 307.34 269.878 306.4C270.818 305.44 271.998 304.96 273.378 304.96C274.398 304.96 275.238 305.24 275.898 305.82V302.42C275.778 300.42 278.858 300.42 278.738 302.42ZM275.278 311.94C275.718 311.46 275.938 310.84 275.938 310.1C275.938 309.36 275.718 308.74 275.278 308.26C274.858 307.78 274.318 307.54 273.658 307.54C272.998 307.54 272.458 307.78 272.018 308.26C271.598 308.74 271.378 309.36 271.378 310.1C271.378 310.84 271.598 311.46 272.018 311.94C272.458 312.42 272.998 312.66 273.658 312.66C274.318 312.66 274.858 312.42 275.278 311.94ZM282.475 314.7C281.835 314.04 281.835 312.92 282.475 312.26C283.135 311.6 284.255 311.6 284.915 312.26C285.615 312.92 285.615 314.04 284.915 314.7C284.255 315.36 283.135 315.36 282.475 314.7Z" fill="#F9D332"/>
</svg>
