<svg width="400" height="400" viewBox="0 0 400 400" fill="none" xmlns="http://www.w3.org/2000/svg">
<circle cx="200" cy="200" r="200" fill="#F9D332"/>
<path d="M116.762 95.72H107.514V100.616H117.274C118.714 100.616 119.61 101.544 119.61 102.824C119.61 104.072 118.714 105 117.274 105H105.786C103.866 105 102.746 103.88 102.746 101.96V85.64C102.746 83.72 103.866 82.6 105.786 82.6H117.274C118.714 82.6 119.61 83.528 119.61 84.808C119.61 86.056 118.714 86.984 117.274 86.984H107.514V91.4H116.762C118.17 91.4 119.066 92.328 119.066 93.576C119.066 94.76 118.17 95.72 116.762 95.72ZM131.857 105H127.505C125.585 105 124.465 103.88 124.465 101.96V85.64C124.465 83.72 125.585 82.6 127.505 82.6H131.857C135.057 82.6 137.905 83.4 140.337 85.064C142.801 86.696 144.369 89.768 144.369 93.64C144.369 97.576 142.801 100.648 140.369 102.408C137.937 104.104 135.025 105 131.857 105ZM131.121 86.984H129.233V100.616H131.153C136.753 100.616 139.537 98.28 139.537 93.64C139.537 89.192 136.721 86.984 131.121 86.984ZM152.849 84.968V95.272C152.849 98.696 154.449 101 157.521 101C160.625 101 162.193 99.08 162.193 95.208V84.968C162.193 83.4 163.185 82.44 164.561 82.44C165.937 82.44 166.929 83.4 166.929 84.968V95.048C166.929 101.736 163.409 105.352 157.521 105.352C151.633 105.352 148.113 101.736 148.113 95.048V84.968C148.113 83.4 149.105 82.44 150.481 82.44C151.857 82.44 152.849 83.4 152.849 84.968ZM189.959 84.904C191.111 85.928 191.207 87.336 190.311 88.264C189.447 89.288 188.167 89.416 186.919 88.392C185.607 87.24 184.039 86.664 182.183 86.664C180.423 86.664 178.887 87.304 177.543 88.584C176.231 89.832 175.559 91.56 175.559 93.736C175.559 95.944 176.231 97.704 177.543 98.984C178.855 100.264 180.487 100.904 182.439 100.904C184.263 100.904 185.863 100.328 187.271 99.144C188.519 98.152 189.799 98.28 190.663 99.272C191.559 100.2 191.463 101.608 190.311 102.632C188.263 104.456 185.671 105.352 182.567 105.352C179.143 105.352 176.295 104.296 174.023 102.184C171.783 100.072 170.663 97.288 170.663 93.832C170.663 90.344 171.783 87.528 174.023 85.416C176.263 83.272 179.047 82.216 182.407 82.216C185.319 82.216 187.847 83.112 189.959 84.904ZM207.475 96.36L204.691 89.032L201.907 96.36H207.475ZM194.803 102.024L201.619 84.584C202.163 83.144 203.187 82.44 204.659 82.44C206.163 82.44 207.187 83.144 207.731 84.552L214.579 102.024C215.123 103.432 214.451 104.616 213.171 105.032C211.795 105.448 210.803 104.936 210.194 103.464L209.01 100.584H200.339L199.187 103.464C198.643 104.904 197.459 105.416 196.211 105.032C194.931 104.616 194.259 103.432 194.803 102.024ZM235.615 84.904C236.767 85.928 236.863 87.336 235.967 88.264C235.103 89.288 233.823 89.416 232.575 88.392C231.263 87.24 229.695 86.664 227.839 86.664C226.079 86.664 224.543 87.304 223.199 88.584C221.887 89.832 221.215 91.56 221.215 93.736C221.215 95.944 221.887 97.704 223.199 98.984C224.511 100.264 226.143 100.904 228.095 100.904C229.919 100.904 231.519 100.328 232.927 99.144C234.175 98.152 235.455 98.28 236.319 99.272C237.215 100.2 237.119 101.608 235.967 102.632C233.919 104.456 231.327 105.352 228.223 105.352C224.799 105.352 221.951 104.296 219.679 102.184C217.439 100.072 216.319 97.288 216.319 93.832C216.319 90.344 217.439 87.528 219.679 85.416C221.919 83.272 224.703 82.216 228.063 82.216C230.975 82.216 233.503 83.112 235.615 84.904ZM241.438 102.632V84.936C241.438 83.368 242.43 82.408 243.806 82.408C245.182 82.408 246.174 83.368 246.174 84.936V102.632C246.174 104.2 245.182 105.16 243.806 105.16C242.43 105.16 241.438 104.2 241.438 102.632ZM250.475 93.768C250.475 90.44 251.595 87.688 253.803 85.512C256.011 83.304 258.763 82.216 261.995 82.216C265.259 82.216 268.011 83.304 270.251 85.512C272.491 87.688 273.611 90.44 273.611 93.768C273.611 97.128 272.491 99.88 270.251 102.088C268.011 104.264 265.259 105.352 261.995 105.352C258.763 105.352 256.011 104.264 253.803 102.088C251.595 99.88 250.475 97.128 250.475 93.768ZM255.371 93.768C255.371 95.784 255.979 97.448 257.195 98.824C258.411 100.2 260.043 100.872 262.123 100.872C264.139 100.872 265.771 100.2 266.955 98.824C268.171 97.448 268.779 95.784 268.779 93.768C268.779 91.816 268.139 90.152 266.891 88.776C265.643 87.4 264.075 86.696 262.123 86.696C260.075 86.696 258.443 87.368 257.195 88.744C255.979 90.12 255.371 91.784 255.371 93.768ZM263.915 79.144L261.163 80.424C260.555 80.712 259.979 80.68 259.403 80.328C258.539 79.784 258.315 78.568 258.859 77.768C259.019 77.512 259.243 77.32 259.499 77.16L262.219 75.368C262.955 74.888 263.723 74.92 264.523 75.4C265.451 76.008 265.739 77.32 265.099 78.312C264.811 78.696 264.395 78.984 263.915 79.144ZM290.387 103.08L282.451 89.864V102.632C282.451 104.2 281.459 105.16 280.083 105.16C278.707 105.16 277.715 104.2 277.715 102.632V86.088C277.715 83.752 279.027 82.408 281.203 82.408C282.835 82.408 283.699 83.08 284.563 84.488L292.499 97.704V84.936C292.499 83.368 293.491 82.408 294.867 82.408C296.243 82.408 297.235 83.368 297.235 84.936V101.48C297.235 103.816 295.923 105.16 293.747 105.16C292.115 105.16 291.251 104.488 290.387 103.08Z" fill="#930345"/>
<path d="M102.092 149.56H99.3916V152.52C99.3916 153.5 98.7516 154.1 97.8916 154.1C97.0316 154.1 96.4116 153.5 96.4116 152.52V141.9C96.4116 140.7 97.1116 140 98.3116 140H102.092C103.752 140 105.072 140.42 106.072 141.26C107.072 142.1 107.572 143.24 107.572 144.68C107.572 146.14 107.072 147.32 106.052 148.22C105.032 149.12 103.712 149.56 102.092 149.56ZM101.572 142.74H99.3916V146.82H101.572C103.592 146.82 104.612 146.12 104.612 144.74C104.612 143.36 103.632 142.74 101.572 142.74ZM115.768 144.14C116.408 144.3 116.888 144.8 116.888 145.54C116.888 146.32 116.348 146.86 115.648 146.86C115.508 146.86 115.208 146.82 115.028 146.82C113.668 146.82 112.628 147.92 112.628 149.9V152.58C112.748 154.58 109.668 154.58 109.788 152.58V145.62C109.788 144.68 110.408 144.1 111.208 144.1C111.948 144.1 112.488 144.58 112.588 145.28C113.148 144.5 114.108 144.06 114.968 144.06C115.308 144.06 115.568 144.08 115.768 144.14ZM119.185 152.76C118.205 151.78 117.705 150.56 117.705 149.1C117.705 147.64 118.205 146.42 119.185 145.44C120.185 144.46 121.425 143.96 122.885 143.96C124.345 143.96 125.585 144.46 126.565 145.44C127.565 146.42 128.065 147.64 128.065 149.1C128.065 150.56 127.565 151.78 126.585 152.76C125.605 153.74 124.365 154.22 122.885 154.22C121.405 154.22 120.165 153.74 119.185 152.76ZM121.245 147.32C120.825 147.78 120.605 148.38 120.605 149.1C120.605 149.82 120.825 150.42 121.245 150.88C121.665 151.34 122.225 151.58 122.885 151.58C123.545 151.58 124.105 151.34 124.525 150.88C124.945 150.42 125.165 149.82 125.165 149.1C125.165 148.38 124.945 147.78 124.525 147.32C124.105 146.86 123.545 146.62 122.885 146.62C122.225 146.62 121.665 146.86 121.245 147.32ZM130.433 152.58V145.62C130.433 144.68 131.053 144.1 131.853 144.1C132.513 144.1 132.953 144.4 133.173 144.98C133.753 144.3 134.573 143.96 135.593 143.96C136.733 143.96 137.633 144.36 138.313 145.14C139.093 144.36 140.073 143.96 141.253 143.96C143.873 143.96 145.353 145.52 145.353 148.3V152.58C145.473 154.58 142.393 154.58 142.513 152.58V148.42C142.513 147.32 141.993 146.6 141.013 146.6C139.953 146.6 139.313 147.42 139.313 148.78V152.58C139.433 154.58 136.353 154.58 136.473 152.58V148.42C136.473 147.32 135.953 146.6 134.973 146.6C133.853 146.6 133.273 147.46 133.273 148.98V152.58C133.393 154.58 130.313 154.58 130.433 152.58ZM148.97 152.76C147.99 151.78 147.49 150.56 147.49 149.1C147.49 147.64 147.99 146.42 148.97 145.44C149.97 144.46 151.21 143.96 152.67 143.96C154.13 143.96 155.37 144.46 156.35 145.44C157.35 146.42 157.85 147.64 157.85 149.1C157.85 150.56 157.35 151.78 156.37 152.76C155.39 153.74 154.15 154.22 152.67 154.22C151.19 154.22 149.95 153.74 148.97 152.76ZM151.03 147.32C150.61 147.78 150.39 148.38 150.39 149.1C150.39 149.82 150.61 150.42 151.03 150.88C151.45 151.34 152.01 151.58 152.67 151.58C153.33 151.58 153.89 151.34 154.31 150.88C154.73 150.42 154.95 149.82 154.95 149.1C154.95 148.38 154.73 147.78 154.31 147.32C153.89 146.86 153.33 146.62 152.67 146.62C152.01 146.62 151.45 146.86 151.03 147.32ZM168.506 146.1L165.906 152.6C165.546 153.62 164.886 154.12 163.946 154.12C163.046 154.12 162.406 153.62 161.986 152.6L159.366 146.1C159.026 145.22 159.426 144.4 160.226 144.16C161.006 143.92 161.746 144.34 162.046 145.24L163.946 150.26L165.846 145.24C166.146 144.34 166.926 143.92 167.706 144.16C168.486 144.4 168.846 145.2 168.506 146.1ZM179.001 148.26C179.001 149.3 178.481 149.82 177.421 149.82H172.401C172.561 150.88 173.381 151.62 174.601 151.62C175.281 151.62 175.861 151.42 176.361 151.02C177.141 150.46 177.861 150.64 178.361 151.3C178.821 151.86 178.681 152.66 177.941 153.24C177.081 153.9 175.981 154.22 174.681 154.22C173.181 154.22 171.961 153.76 170.981 152.84C170.001 151.9 169.521 150.68 169.521 149.16C169.521 147.66 169.961 146.42 170.861 145.44C171.761 144.46 172.921 143.96 174.341 143.96C175.321 143.96 176.181 144.2 176.921 144.66C178.421 145.6 179.001 146.92 179.001 148.26ZM174.401 146.46C173.381 146.46 172.721 147.06 172.541 147.92H176.061C176.001 147.1 175.341 146.46 174.401 146.46ZM187.409 144.14C188.049 144.3 188.529 144.8 188.529 145.54C188.529 146.32 187.989 146.86 187.289 146.86C187.149 146.86 186.849 146.82 186.669 146.82C185.309 146.82 184.269 147.92 184.269 149.9V152.58C184.389 154.58 181.309 154.58 181.429 152.58V145.62C181.429 144.68 182.049 144.1 182.849 144.1C183.589 144.1 184.129 144.58 184.229 145.28C184.789 144.5 185.749 144.06 186.609 144.06C186.949 144.06 187.209 144.08 187.409 144.14ZM201.846 147.12C201.386 146.78 200.906 146.6 200.406 146.6C198.986 146.6 198.026 147.64 198.026 149.1C198.026 150.56 198.986 151.6 200.406 151.6C200.946 151.6 201.486 151.38 202.026 150.96C202.806 150.4 203.526 150.58 204.026 151.24C204.486 151.8 204.346 152.6 203.606 153.18C202.686 153.88 201.586 154.22 200.306 154.22C198.826 154.22 197.586 153.74 196.606 152.76C195.626 151.78 195.126 150.56 195.126 149.1C195.126 147.64 195.626 146.42 196.606 145.44C197.606 144.46 198.846 143.96 200.306 143.96C201.446 143.96 202.446 144.26 203.286 144.88C204.026 145.46 204.226 146.3 203.806 146.86C203.346 147.5 202.626 147.66 201.846 147.12ZM206.719 141.42C206.719 140.48 207.459 139.76 208.359 139.76C209.299 139.76 210.019 140.48 210.019 141.42C210.019 142.32 209.259 143.06 208.359 143.06C207.459 143.06 206.719 142.32 206.719 141.42ZM209.779 152.58C209.779 153.52 209.179 154.1 208.359 154.1C207.539 154.1 206.939 153.52 206.939 152.58V145.62C206.939 144.68 207.539 144.1 208.359 144.1C209.179 144.1 209.779 144.68 209.779 145.62V152.58ZM221.455 145.62V152.58C221.455 153.52 220.835 154.1 220.035 154.1C219.395 154.1 218.955 153.8 218.735 153.22C218.175 153.88 217.375 154.22 216.315 154.22C213.915 154.22 212.575 152.68 212.575 149.9V145.62C212.455 143.62 215.535 143.62 215.415 145.62V149.68C215.415 150.96 215.915 151.6 216.915 151.6C218.175 151.6 218.615 150.72 218.615 149.1V145.62C218.495 143.62 221.575 143.62 221.455 145.62ZM234.078 141.42V152.58C234.078 153.52 233.458 154.1 232.658 154.1C231.978 154.1 231.538 153.8 231.338 153.18C230.838 153.8 229.778 154.22 228.718 154.22C227.338 154.22 226.158 153.76 225.218 152.82C224.278 151.88 223.818 150.64 223.818 149.1C223.818 147.58 224.278 146.34 225.218 145.4C226.158 144.44 227.338 143.96 228.718 143.96C229.738 143.96 230.578 144.24 231.238 144.82V141.42C231.118 139.42 234.198 139.42 234.078 141.42ZM230.618 150.94C231.058 150.46 231.278 149.84 231.278 149.1C231.278 148.36 231.058 147.74 230.618 147.26C230.198 146.78 229.658 146.54 228.998 146.54C228.338 146.54 227.798 146.78 227.358 147.26C226.938 147.74 226.718 148.36 226.718 149.1C226.718 149.84 226.938 150.46 227.358 150.94C227.798 151.42 228.338 151.66 228.998 151.66C229.658 151.66 230.198 151.42 230.618 150.94ZM237.495 144.98C238.355 144.3 239.495 143.96 240.875 143.96C242.095 143.96 243.095 144.32 243.875 145.02C244.655 145.72 245.035 146.66 245.035 147.88V152.58C245.035 153.52 244.415 154.1 243.615 154.1C242.955 154.1 242.515 153.8 242.295 153.2C241.615 153.88 240.775 154.22 239.795 154.22C238.815 154.22 238.035 153.94 237.415 153.38C236.795 152.8 236.495 152.08 236.495 151.2C236.495 150.18 236.855 149.42 237.595 148.9C238.335 148.38 239.275 148.1 240.375 148.06L242.175 147.98C242.175 146.98 241.675 146.48 240.675 146.48C240.075 146.48 239.535 146.64 239.035 146.98C238.295 147.48 237.575 147.42 237.155 146.86C236.695 146.32 236.835 145.52 237.495 144.98ZM239.355 151.04C239.355 151.52 239.775 151.82 240.495 151.82C241.075 151.82 241.635 151.62 242.175 151.22V150.06L240.915 150.16C239.875 150.22 239.355 150.5 239.355 151.04ZM257.515 141.42V152.58C257.515 153.52 256.895 154.1 256.095 154.1C255.415 154.1 254.975 153.8 254.775 153.18C254.275 153.8 253.215 154.22 252.155 154.22C250.775 154.22 249.595 153.76 248.655 152.82C247.715 151.88 247.255 150.64 247.255 149.1C247.255 147.58 247.715 146.34 248.655 145.4C249.595 144.44 250.775 143.96 252.155 143.96C253.175 143.96 254.015 144.24 254.675 144.82V141.42C254.555 139.42 257.635 139.42 257.515 141.42ZM254.055 150.94C254.495 150.46 254.715 149.84 254.715 149.1C254.715 148.36 254.495 147.74 254.055 147.26C253.635 146.78 253.095 146.54 252.435 146.54C251.775 146.54 251.235 146.78 250.795 147.26C250.375 147.74 250.155 148.36 250.155 149.1C250.155 149.84 250.375 150.46 250.795 150.94C251.235 151.42 251.775 151.66 252.435 151.66C253.095 151.66 253.635 151.42 254.055 150.94ZM260.933 144.98C261.793 144.3 262.933 143.96 264.313 143.96C265.533 143.96 266.533 144.32 267.313 145.02C268.093 145.72 268.473 146.66 268.473 147.88V152.58C268.473 153.52 267.853 154.1 267.053 154.1C266.393 154.1 265.953 153.8 265.733 153.2C265.053 153.88 264.213 154.22 263.233 154.22C262.253 154.22 261.473 153.94 260.853 153.38C260.233 152.8 259.933 152.08 259.933 151.2C259.933 150.18 260.293 149.42 261.033 148.9C261.773 148.38 262.713 148.1 263.813 148.06L265.613 147.98C265.613 146.98 265.113 146.48 264.113 146.48C263.513 146.48 262.973 146.64 262.473 146.98C261.733 147.48 261.013 147.42 260.593 146.86C260.133 146.32 260.273 145.52 260.933 144.98ZM262.793 151.04C262.793 151.52 263.213 151.82 263.933 151.82C264.513 151.82 265.073 151.62 265.613 151.22V150.06L264.353 150.16C263.313 150.22 262.793 150.5 262.793 151.04ZM271.487 152.58V145.62C271.487 144.68 272.107 144.1 272.907 144.1C273.567 144.1 274.007 144.4 274.227 144.98C274.807 144.3 275.587 143.96 276.607 143.96C279.027 143.96 280.587 145.56 280.587 148.3V152.58C280.587 153.52 279.987 154.1 279.167 154.1C278.347 154.1 277.747 153.52 277.747 152.58V148.52C277.747 147.4 277.227 146.6 276.127 146.6C274.927 146.6 274.327 147.44 274.327 149.1V152.58C274.447 154.58 271.367 154.58 271.487 152.58ZM284.204 152.76C283.224 151.78 282.724 150.56 282.724 149.1C282.724 147.64 283.224 146.42 284.204 145.44C285.204 144.46 286.444 143.96 287.904 143.96C289.364 143.96 290.604 144.46 291.584 145.44C292.584 146.42 293.084 147.64 293.084 149.1C293.084 150.56 292.584 151.78 291.604 152.76C290.624 153.74 289.384 154.22 287.904 154.22C286.424 154.22 285.184 153.74 284.204 152.76ZM286.264 147.32C285.844 147.78 285.624 148.38 285.624 149.1C285.624 149.82 285.844 150.42 286.264 150.88C286.684 151.34 287.244 151.58 287.904 151.58C288.564 151.58 289.124 151.34 289.544 150.88C289.964 150.42 290.184 149.82 290.184 149.1C290.184 148.38 289.964 147.78 289.544 147.32C289.124 146.86 288.564 146.62 287.904 146.62C287.244 146.62 286.684 146.86 286.264 147.32ZM295.692 153.14C295.032 152.56 294.952 151.8 295.452 151.24C295.992 150.64 296.612 150.62 297.332 151.2C297.872 151.62 298.592 151.84 299.472 151.84C300.092 151.84 300.572 151.62 300.572 151.24C300.572 150.92 300.352 150.76 299.692 150.58L298.592 150.26C296.412 149.64 295.392 148.64 295.392 147.06C295.392 146.12 295.752 145.38 296.492 144.82C297.232 144.24 298.132 143.96 299.192 143.96C300.332 143.96 301.292 144.2 302.092 144.7C302.812 145.18 302.992 145.9 302.612 146.52C302.192 147.16 301.512 147.34 300.732 146.88C300.212 146.54 299.652 146.38 299.072 146.38C298.512 146.38 298.152 146.6 298.152 146.92C298.152 147.22 298.372 147.34 298.852 147.48L300.112 147.82C302.112 148.38 303.332 149.24 303.332 151.06C303.332 152.92 301.732 154.22 299.232 154.22C297.732 154.22 296.552 153.86 295.692 153.14ZM78.2215 176.14C77.5615 175.56 77.4815 174.8 77.9815 174.24C78.5215 173.64 79.1415 173.62 79.8615 174.2C80.4015 174.62 81.1215 174.84 82.0015 174.84C82.6215 174.84 83.1015 174.62 83.1015 174.24C83.1015 173.92 82.8815 173.76 82.2215 173.58L81.1215 173.26C78.9415 172.64 77.9215 171.64 77.9215 170.06C77.9215 169.12 78.2815 168.38 79.0215 167.82C79.7615 167.24 80.6615 166.96 81.7215 166.96C82.8615 166.96 83.8215 167.2 84.6215 167.7C85.3415 168.18 85.5215 168.9 85.1415 169.52C84.7215 170.16 84.0415 170.34 83.2615 169.88C82.7415 169.54 82.1815 169.38 81.6015 169.38C81.0415 169.38 80.6815 169.6 80.6815 169.92C80.6815 170.22 80.9015 170.34 81.3815 170.48L82.6415 170.82C84.6415 171.38 85.8615 172.24 85.8615 174.06C85.8615 175.92 84.2615 177.22 81.7615 177.22C80.2615 177.22 79.0815 176.86 78.2215 176.14ZM88.9405 175.76C87.9605 174.78 87.4605 173.56 87.4605 172.1C87.4605 170.64 87.9605 169.42 88.9405 168.44C89.9405 167.46 91.1805 166.96 92.6405 166.96C94.1005 166.96 95.3405 167.46 96.3205 168.44C97.3205 169.42 97.8205 170.64 97.8205 172.1C97.8205 173.56 97.3205 174.78 96.3405 175.76C95.3605 176.74 94.1205 177.22 92.6405 177.22C91.1605 177.22 89.9205 176.74 88.9405 175.76ZM91.0005 170.32C90.5805 170.78 90.3605 171.38 90.3605 172.1C90.3605 172.82 90.5805 173.42 91.0005 173.88C91.4205 174.34 91.9805 174.58 92.6405 174.58C93.3005 174.58 93.8605 174.34 94.2805 173.88C94.7005 173.42 94.9205 172.82 94.9205 172.1C94.9205 171.38 94.7005 170.78 94.2805 170.32C93.8605 169.86 93.3005 169.62 92.6405 169.62C91.9805 169.62 91.4205 169.86 91.0005 170.32ZM103.029 164.42V175.58C103.149 177.58 100.069 177.58 100.189 175.58V164.42C100.069 162.42 103.149 162.42 103.029 164.42ZM106.045 164.42C106.045 163.48 106.785 162.76 107.685 162.76C108.625 162.76 109.345 163.48 109.345 164.42C109.345 165.32 108.585 166.06 107.685 166.06C106.785 166.06 106.045 165.32 106.045 164.42ZM109.105 175.58C109.105 176.52 108.505 177.1 107.685 177.1C106.865 177.1 106.265 176.52 106.265 175.58V168.62C106.265 167.68 106.865 167.1 107.685 167.1C108.505 167.1 109.105 167.68 109.105 168.62V175.58ZM121.822 164.42V175.58C121.822 176.52 121.202 177.1 120.402 177.1C119.722 177.1 119.282 176.8 119.082 176.18C118.582 176.8 117.522 177.22 116.462 177.22C115.082 177.22 113.902 176.76 112.962 175.82C112.022 174.88 111.562 173.64 111.562 172.1C111.562 170.58 112.022 169.34 112.962 168.4C113.902 167.44 115.082 166.96 116.462 166.96C117.482 166.96 118.322 167.24 118.982 167.82V164.42C118.862 162.42 121.942 162.42 121.822 164.42ZM118.362 173.94C118.802 173.46 119.022 172.84 119.022 172.1C119.022 171.36 118.802 170.74 118.362 170.26C117.942 169.78 117.402 169.54 116.742 169.54C116.082 169.54 115.542 169.78 115.102 170.26C114.682 170.74 114.462 171.36 114.462 172.1C114.462 172.84 114.682 173.46 115.102 173.94C115.542 174.42 116.082 174.66 116.742 174.66C117.402 174.66 117.942 174.42 118.362 173.94ZM125.239 167.98C126.099 167.3 127.239 166.96 128.619 166.96C129.839 166.96 130.839 167.32 131.619 168.02C132.399 168.72 132.779 169.66 132.779 170.88V175.58C132.779 176.52 132.159 177.1 131.359 177.1C130.699 177.1 130.259 176.8 130.039 176.2C129.359 176.88 128.519 177.22 127.539 177.22C126.559 177.22 125.779 176.94 125.159 176.38C124.539 175.8 124.239 175.08 124.239 174.2C124.239 173.18 124.599 172.42 125.339 171.9C126.079 171.38 127.019 171.1 128.119 171.06L129.919 170.98C129.919 169.98 129.419 169.48 128.419 169.48C127.819 169.48 127.279 169.64 126.779 169.98C126.039 170.48 125.319 170.42 124.899 169.86C124.439 169.32 124.579 168.52 125.239 167.98ZM127.099 174.04C127.099 174.52 127.519 174.82 128.239 174.82C128.819 174.82 129.379 174.62 129.919 174.22V173.06L128.659 173.16C127.619 173.22 127.099 173.5 127.099 174.04ZM141.774 167.14C142.414 167.3 142.894 167.8 142.894 168.54C142.894 169.32 142.354 169.86 141.654 169.86C141.514 169.86 141.214 169.82 141.034 169.82C139.674 169.82 138.634 170.92 138.634 172.9V175.58C138.754 177.58 135.674 177.58 135.794 175.58V168.62C135.794 167.68 136.414 167.1 137.214 167.1C137.954 167.1 138.494 167.58 138.594 168.28C139.154 167.5 140.114 167.06 140.974 167.06C141.314 167.06 141.574 167.08 141.774 167.14ZM144.365 164.42C144.365 163.48 145.105 162.76 146.005 162.76C146.945 162.76 147.665 163.48 147.665 164.42C147.665 165.32 146.905 166.06 146.005 166.06C145.105 166.06 144.365 165.32 144.365 164.42ZM147.425 175.58C147.425 176.52 146.825 177.1 146.005 177.1C145.185 177.1 144.585 176.52 144.585 175.58V168.62C144.585 167.68 145.185 167.1 146.005 167.1C146.825 167.1 147.425 167.68 147.425 168.62V175.58ZM151.382 175.76C150.402 174.78 149.902 173.56 149.902 172.1C149.902 170.64 150.402 169.42 151.382 168.44C152.382 167.46 153.622 166.96 155.082 166.96C156.542 166.96 157.782 167.46 158.762 168.44C159.762 169.42 160.262 170.64 160.262 172.1C160.262 173.56 159.762 174.78 158.782 175.76C157.802 176.74 156.562 177.22 155.082 177.22C153.602 177.22 152.362 176.74 151.382 175.76ZM153.442 170.32C153.022 170.78 152.802 171.38 152.802 172.1C152.802 172.82 153.022 173.42 153.442 173.88C153.862 174.34 154.422 174.58 155.082 174.58C155.742 174.58 156.302 174.34 156.722 173.88C157.142 173.42 157.362 172.82 157.362 172.1C157.362 171.38 157.142 170.78 156.722 170.32C156.302 169.86 155.742 169.62 155.082 169.62C154.422 169.62 153.862 169.86 153.442 170.32ZM162.87 176.14C162.21 175.56 162.13 174.8 162.63 174.24C163.17 173.64 163.79 173.62 164.51 174.2C165.05 174.62 165.77 174.84 166.65 174.84C167.27 174.84 167.75 174.62 167.75 174.24C167.75 173.92 167.53 173.76 166.87 173.58L165.77 173.26C163.59 172.64 162.57 171.64 162.57 170.06C162.57 169.12 162.93 168.38 163.67 167.82C164.41 167.24 165.31 166.96 166.37 166.96C167.51 166.96 168.47 167.2 169.27 167.7C169.99 168.18 170.17 168.9 169.79 169.52C169.37 170.16 168.69 170.34 167.91 169.88C167.39 169.54 166.83 169.38 166.25 169.38C165.69 169.38 165.33 169.6 165.33 169.92C165.33 170.22 165.55 170.34 166.03 170.48L167.29 170.82C169.29 171.38 170.51 172.24 170.51 174.06C170.51 175.92 168.91 177.22 166.41 177.22C164.91 177.22 163.73 176.86 162.87 176.14ZM173.137 176.7C172.497 176.04 172.497 174.92 173.137 174.26C173.797 173.6 174.917 173.6 175.577 174.26C176.277 174.92 176.277 176.04 175.577 176.7C174.917 177.36 173.797 177.36 173.137 176.7ZM173.137 170C172.497 169.34 172.497 168.22 173.137 167.56C173.797 166.9 174.917 166.9 175.577 167.56C176.277 168.22 176.277 169.34 175.577 170C174.917 170.66 173.797 170.66 173.137 170ZM185.035 175.1V164.9C185.035 163.7 185.735 163 186.935 163H191.335C194.295 163 196.175 164.36 196.175 166.86C196.175 168 195.695 168.96 194.735 169.7C195.915 170.54 196.515 171.6 196.515 172.9C196.515 174.12 196.075 175.12 195.175 175.88C194.295 176.62 193.135 177 191.675 177H186.935C185.735 177 185.035 176.3 185.035 175.1ZM188.015 171.1V174.26H190.995C192.655 174.26 193.515 173.82 193.515 172.64C193.515 171.62 192.695 171.1 191.075 171.1H188.015ZM190.735 165.74H188.015V168.6H190.855C192.395 168.6 193.175 168.12 193.175 167.16C193.175 166.1 192.475 165.74 190.735 165.74ZM207.715 168.62V175.58C207.715 176.52 207.095 177.1 206.295 177.1C205.655 177.1 205.215 176.8 204.995 176.22C204.435 176.88 203.635 177.22 202.575 177.22C200.175 177.22 198.835 175.68 198.835 172.9V168.62C198.715 166.62 201.795 166.62 201.675 168.62V172.68C201.675 173.96 202.175 174.6 203.175 174.6C204.435 174.6 204.875 173.72 204.875 172.1V168.62C204.755 166.62 207.835 166.62 207.715 168.62ZM210.897 176.14C210.237 175.56 210.157 174.8 210.657 174.24C211.197 173.64 211.817 173.62 212.537 174.2C213.077 174.62 213.797 174.84 214.677 174.84C215.297 174.84 215.777 174.62 215.777 174.24C215.777 173.92 215.557 173.76 214.897 173.58L213.797 173.26C211.617 172.64 210.597 171.64 210.597 170.06C210.597 169.12 210.957 168.38 211.697 167.82C212.437 167.24 213.337 166.96 214.397 166.96C215.537 166.96 216.497 167.2 217.297 167.7C218.017 168.18 218.197 168.9 217.817 169.52C217.397 170.16 216.717 170.34 215.937 169.88C215.417 169.54 214.857 169.38 214.277 169.38C213.717 169.38 213.357 169.6 213.357 169.92C213.357 170.22 213.577 170.34 214.057 170.48L215.317 170.82C217.317 171.38 218.537 172.24 218.537 174.06C218.537 175.92 216.937 177.22 214.437 177.22C212.937 177.22 211.757 176.86 210.897 176.14ZM226.836 170.12C226.376 169.78 225.896 169.6 225.396 169.6C223.976 169.6 223.016 170.64 223.016 172.1C223.016 173.56 223.976 174.6 225.396 174.6C225.936 174.6 226.476 174.38 227.016 173.96C227.796 173.4 228.516 173.58 229.016 174.24C229.476 174.8 229.336 175.6 228.596 176.18C227.676 176.88 226.576 177.22 225.296 177.22C223.816 177.22 222.576 176.74 221.596 175.76C220.616 174.78 220.116 173.56 220.116 172.1C220.116 170.64 220.616 169.42 221.596 168.44C222.596 167.46 223.836 166.96 225.296 166.96C226.436 166.96 227.436 167.26 228.276 167.88C229.016 168.46 229.216 169.3 228.796 169.86C228.336 170.5 227.616 170.66 226.836 170.12ZM232.329 167.98C233.189 167.3 234.329 166.96 235.709 166.96C236.929 166.96 237.929 167.32 238.709 168.02C239.489 168.72 239.869 169.66 239.869 170.88V175.58C239.869 176.52 239.249 177.1 238.449 177.1C237.789 177.1 237.349 176.8 237.129 176.2C236.449 176.88 235.609 177.22 234.629 177.22C233.649 177.22 232.869 176.94 232.249 176.38C231.629 175.8 231.329 175.08 231.329 174.2C231.329 173.18 231.689 172.42 232.429 171.9C233.169 171.38 234.109 171.1 235.209 171.06L237.009 170.98C237.009 169.98 236.509 169.48 235.509 169.48C234.909 169.48 234.369 169.64 233.869 169.98C233.129 170.48 232.409 170.42 231.989 169.86C231.529 169.32 231.669 168.52 232.329 167.98ZM234.189 174.04C234.189 174.52 234.609 174.82 235.329 174.82C235.909 174.82 236.469 174.62 237.009 174.22V173.06L235.749 173.16C234.709 173.22 234.189 173.5 234.189 174.04ZM242.884 175.58V168.62C242.884 167.68 243.504 167.1 244.304 167.1C244.964 167.1 245.404 167.4 245.624 167.98C246.204 167.3 247.024 166.96 248.044 166.96C249.184 166.96 250.084 167.36 250.764 168.14C251.544 167.36 252.524 166.96 253.704 166.96C256.324 166.96 257.804 168.52 257.804 171.3V175.58C257.924 177.58 254.844 177.58 254.964 175.58V171.42C254.964 170.32 254.444 169.6 253.464 169.6C252.404 169.6 251.764 170.42 251.764 171.78V175.58C251.884 177.58 248.804 177.58 248.924 175.58V171.42C248.924 170.32 248.404 169.6 247.424 169.6C246.304 169.6 245.724 170.46 245.724 171.98V175.58C245.844 177.58 242.764 177.58 242.884 175.58ZM261.421 175.76C260.441 174.78 259.941 173.56 259.941 172.1C259.941 170.64 260.441 169.42 261.421 168.44C262.421 167.46 263.661 166.96 265.121 166.96C266.581 166.96 267.821 167.46 268.801 168.44C269.801 169.42 270.301 170.64 270.301 172.1C270.301 173.56 269.801 174.78 268.821 175.76C267.841 176.74 266.601 177.22 265.121 177.22C263.641 177.22 262.401 176.74 261.421 175.76ZM263.481 170.32C263.061 170.78 262.841 171.38 262.841 172.1C262.841 172.82 263.061 173.42 263.481 173.88C263.901 174.34 264.461 174.58 265.121 174.58C265.781 174.58 266.341 174.34 266.761 173.88C267.181 173.42 267.401 172.82 267.401 172.1C267.401 171.38 267.181 170.78 266.761 170.32C266.341 169.86 265.781 169.62 265.121 169.62C264.461 169.62 263.901 169.86 263.481 170.32ZM272.909 176.14C272.249 175.56 272.169 174.8 272.669 174.24C273.209 173.64 273.829 173.62 274.549 174.2C275.089 174.62 275.809 174.84 276.689 174.84C277.309 174.84 277.789 174.62 277.789 174.24C277.789 173.92 277.569 173.76 276.909 173.58L275.809 173.26C273.629 172.64 272.609 171.64 272.609 170.06C272.609 169.12 272.969 168.38 273.709 167.82C274.449 167.24 275.349 166.96 276.409 166.96C277.549 166.96 278.509 167.2 279.309 167.7C280.029 168.18 280.209 168.9 279.829 169.52C279.409 170.16 278.729 170.34 277.949 169.88C277.429 169.54 276.869 169.38 276.289 169.38C275.729 169.38 275.369 169.6 275.369 169.92C275.369 170.22 275.589 170.34 276.069 170.48L277.329 170.82C279.329 171.38 280.549 172.24 280.549 174.06C280.549 175.92 278.949 177.22 276.449 177.22C274.949 177.22 273.769 176.86 272.909 176.14ZM298.091 168.6V179.46C298.211 181.46 295.131 181.46 295.251 179.46V176.36C294.591 176.94 293.751 177.22 292.731 177.22C291.351 177.22 290.171 176.74 289.231 175.8C288.291 174.86 287.831 173.62 287.831 172.1C287.831 170.56 288.291 169.32 289.231 168.38C290.171 167.44 291.351 166.96 292.731 166.96C293.791 166.96 294.851 167.38 295.351 168C295.551 167.38 295.991 167.08 296.671 167.08C297.471 167.08 298.091 167.64 298.091 168.6ZM294.631 173.94C295.071 173.46 295.291 172.84 295.291 172.1C295.291 171.36 295.071 170.74 294.631 170.26C294.211 169.78 293.671 169.54 293.011 169.54C292.351 169.54 291.811 169.78 291.371 170.26C290.951 170.74 290.731 171.36 290.731 172.1C290.731 172.84 290.951 173.46 291.371 173.94C291.811 174.42 292.351 174.66 293.011 174.66C293.671 174.66 294.211 174.42 294.631 173.94ZM309.649 168.62V175.58C309.649 176.52 309.029 177.1 308.229 177.1C307.589 177.1 307.149 176.8 306.929 176.22C306.369 176.88 305.569 177.22 304.509 177.22C302.109 177.22 300.769 175.68 300.769 172.9V168.62C300.649 166.62 303.729 166.62 303.609 168.62V172.68C303.609 173.96 304.109 174.6 305.109 174.6C306.369 174.6 306.809 173.72 306.809 172.1V168.62C306.689 166.62 309.769 166.62 309.649 168.62ZM321.511 171.26C321.511 172.3 320.991 172.82 319.931 172.82H314.911C315.071 173.88 315.891 174.62 317.111 174.62C317.791 174.62 318.371 174.42 318.871 174.02C319.651 173.46 320.371 173.64 320.871 174.3C321.331 174.86 321.191 175.66 320.451 176.24C319.591 176.9 318.491 177.22 317.191 177.22C315.691 177.22 314.471 176.76 313.491 175.84C312.511 174.9 312.031 173.68 312.031 172.16C312.031 170.66 312.471 169.42 313.371 168.44C314.271 167.46 315.431 166.96 316.851 166.96C317.831 166.96 318.691 167.2 319.431 167.66C320.931 168.6 321.511 169.92 321.511 171.26ZM316.911 169.46C315.891 169.46 315.231 170.06 315.051 170.92H318.571C318.511 170.1 317.851 169.46 316.911 169.46ZM121.134 187.42V198.58C121.254 200.58 118.174 200.58 118.294 198.58V187.42C118.174 185.42 121.254 185.42 121.134 187.42ZM124.976 198.76C123.996 197.78 123.496 196.56 123.496 195.1C123.496 193.64 123.996 192.42 124.976 191.44C125.976 190.46 127.216 189.96 128.676 189.96C130.136 189.96 131.376 190.46 132.356 191.44C133.356 192.42 133.856 193.64 133.856 195.1C133.856 196.56 133.356 197.78 132.376 198.76C131.396 199.74 130.156 200.22 128.676 200.22C127.196 200.22 125.956 199.74 124.976 198.76ZM127.036 193.32C126.616 193.78 126.396 194.38 126.396 195.1C126.396 195.82 126.616 196.42 127.036 196.88C127.456 197.34 128.016 197.58 128.676 197.58C129.336 197.58 129.896 197.34 130.316 196.88C130.736 196.42 130.956 195.82 130.956 195.1C130.956 194.38 130.736 193.78 130.316 193.32C129.896 192.86 129.336 192.62 128.676 192.62C128.016 192.62 127.456 192.86 127.036 193.32ZM136.464 199.14C135.804 198.56 135.724 197.8 136.224 197.24C136.764 196.64 137.384 196.62 138.104 197.2C138.644 197.62 139.364 197.84 140.244 197.84C140.864 197.84 141.344 197.62 141.344 197.24C141.344 196.92 141.124 196.76 140.464 196.58L139.364 196.26C137.184 195.64 136.164 194.64 136.164 193.06C136.164 192.12 136.524 191.38 137.264 190.82C138.004 190.24 138.904 189.96 139.964 189.96C141.104 189.96 142.064 190.2 142.864 190.7C143.584 191.18 143.764 191.9 143.384 192.52C142.964 193.16 142.284 193.34 141.504 192.88C140.984 192.54 140.424 192.38 139.844 192.38C139.284 192.38 138.924 192.6 138.924 192.92C138.924 193.22 139.144 193.34 139.624 193.48L140.884 193.82C142.884 194.38 144.104 195.24 144.104 197.06C144.104 198.92 142.504 200.22 140.004 200.22C138.504 200.22 137.324 199.86 136.464 199.14ZM151.966 198.58V191.62C151.966 190.68 152.586 190.1 153.386 190.1C154.046 190.1 154.486 190.4 154.706 190.98C155.286 190.3 156.066 189.96 157.086 189.96C159.506 189.96 161.066 191.56 161.066 194.3V198.58C161.066 199.52 160.466 200.1 159.646 200.1C158.826 200.1 158.226 199.52 158.226 198.58V194.52C158.226 193.4 157.706 192.6 156.606 192.6C155.406 192.6 154.806 193.44 154.806 195.1V198.58C154.926 200.58 151.846 200.58 151.966 198.58ZM163.858 187.42C163.858 186.48 164.598 185.76 165.498 185.76C166.438 185.76 167.158 186.48 167.158 187.42C167.158 188.32 166.398 189.06 165.498 189.06C164.598 189.06 163.858 188.32 163.858 187.42ZM166.918 198.58C166.918 199.52 166.318 200.1 165.498 200.1C164.678 200.1 164.078 199.52 164.078 198.58V191.62C164.078 190.68 164.678 190.1 165.498 190.1C166.318 190.1 166.918 190.68 166.918 191.62V198.58ZM169.954 191.62C169.954 190.68 170.574 190.1 171.374 190.1C172.034 190.1 172.474 190.4 172.694 190.98C173.274 190.3 174.054 189.96 175.074 189.96C177.494 189.96 179.054 191.56 179.054 194.3V198.58C179.054 199.52 178.454 200.1 177.634 200.1C176.814 200.1 176.214 199.52 176.214 198.58V194.52C176.214 193.4 175.694 192.6 174.594 192.6C173.394 192.6 172.794 193.44 172.794 195.1V198.58C172.914 200.58 169.834 200.58 169.954 198.58V191.62ZM173.914 186.12L174.734 186.38C174.994 186.46 175.194 186.5 175.334 186.5C175.534 186.5 175.694 186.4 175.834 186.22C176.014 185.98 176.294 185.86 176.654 185.86C177.294 185.86 177.594 186.26 177.594 186.88C177.594 187.68 176.814 188.48 175.754 188.48C175.654 188.48 175.374 188.42 174.894 188.32L174.074 188.06C173.814 187.98 173.614 187.94 173.474 187.94C173.274 187.94 173.114 188.04 172.974 188.22C172.794 188.46 172.514 188.58 172.154 188.58C171.514 188.58 171.214 188.18 171.214 187.56C171.214 186.76 171.994 185.96 173.054 185.96C173.154 185.96 173.434 186.02 173.914 186.12ZM182.671 198.76C181.691 197.78 181.191 196.56 181.191 195.1C181.191 193.64 181.691 192.42 182.671 191.44C183.671 190.46 184.911 189.96 186.371 189.96C187.831 189.96 189.071 190.46 190.051 191.44C191.051 192.42 191.551 193.64 191.551 195.1C191.551 196.56 191.051 197.78 190.071 198.76C189.091 199.74 187.851 200.22 186.371 200.22C184.891 200.22 183.651 199.74 182.671 198.76ZM184.731 193.32C184.311 193.78 184.091 194.38 184.091 195.1C184.091 195.82 184.311 196.42 184.731 196.88C185.151 197.34 185.711 197.58 186.371 197.58C187.031 197.58 187.591 197.34 188.011 196.88C188.431 196.42 188.651 195.82 188.651 195.1C188.651 194.38 188.431 193.78 188.011 193.32C187.591 192.86 187.031 192.62 186.371 192.62C185.711 192.62 185.151 192.86 184.731 193.32ZM194.159 199.14C193.499 198.56 193.419 197.8 193.919 197.24C194.459 196.64 195.079 196.62 195.799 197.2C196.339 197.62 197.059 197.84 197.939 197.84C198.559 197.84 199.039 197.62 199.039 197.24C199.039 196.92 198.819 196.76 198.159 196.58L197.059 196.26C194.879 195.64 193.859 194.64 193.859 193.06C193.859 192.12 194.219 191.38 194.959 190.82C195.699 190.24 196.599 189.96 197.659 189.96C198.799 189.96 199.759 190.2 200.559 190.7C201.279 191.18 201.459 191.9 201.079 192.52C200.659 193.16 199.979 193.34 199.199 192.88C198.679 192.54 198.119 192.38 197.539 192.38C196.979 192.38 196.619 192.6 196.619 192.92C196.619 193.22 196.839 193.34 197.319 193.48L198.579 193.82C200.579 194.38 201.799 195.24 201.799 197.06C201.799 198.92 200.199 200.22 197.699 200.22C196.199 200.22 195.019 199.86 194.159 199.14ZM207.023 199.44L205.683 202.3C205.383 202.94 204.803 203.2 204.183 203.04C203.463 202.82 203.043 202.16 203.343 201.38L204.423 198.44C204.743 197.56 205.463 197.2 206.283 197.46C207.063 197.7 207.403 198.58 207.023 199.44ZM215.931 198.58V191.62C215.931 190.68 216.551 190.1 217.351 190.1C218.011 190.1 218.451 190.4 218.671 190.98C219.251 190.3 220.031 189.96 221.051 189.96C223.471 189.96 225.031 191.56 225.031 194.3V198.58C225.031 199.52 224.431 200.1 223.611 200.1C222.791 200.1 222.191 199.52 222.191 198.58V194.52C222.191 193.4 221.671 192.6 220.571 192.6C219.371 192.6 218.771 193.44 218.771 195.1V198.58C218.891 200.58 215.811 200.58 215.931 198.58ZM227.822 187.42C227.822 186.48 228.562 185.76 229.462 185.76C230.402 185.76 231.122 186.48 231.122 187.42C231.122 188.32 230.362 189.06 229.462 189.06C228.562 189.06 227.822 188.32 227.822 187.42ZM230.882 198.58C230.882 199.52 230.282 200.1 229.462 200.1C228.642 200.1 228.042 199.52 228.042 198.58V191.62C228.042 190.68 228.642 190.1 229.462 190.1C230.282 190.1 230.882 190.68 230.882 191.62V198.58ZM233.919 191.62C233.919 190.68 234.539 190.1 235.339 190.1C235.999 190.1 236.439 190.4 236.659 190.98C237.239 190.3 238.019 189.96 239.039 189.96C241.459 189.96 243.019 191.56 243.019 194.3V198.58C243.019 199.52 242.419 200.1 241.599 200.1C240.779 200.1 240.179 199.52 240.179 198.58V194.52C240.179 193.4 239.659 192.6 238.559 192.6C237.359 192.6 236.759 193.44 236.759 195.1V198.58C236.879 200.58 233.799 200.58 233.919 198.58V191.62ZM237.879 186.12L238.699 186.38C238.959 186.46 239.159 186.5 239.299 186.5C239.499 186.5 239.659 186.4 239.799 186.22C239.979 185.98 240.259 185.86 240.619 185.86C241.259 185.86 241.559 186.26 241.559 186.88C241.559 187.68 240.779 188.48 239.719 188.48C239.619 188.48 239.339 188.42 238.859 188.32L238.039 188.06C237.779 187.98 237.579 187.94 237.439 187.94C237.239 187.94 237.079 188.04 236.939 188.22C236.759 188.46 236.479 188.58 236.119 188.58C235.479 188.58 235.179 188.18 235.179 187.56C235.179 186.76 235.959 185.96 237.019 185.96C237.119 185.96 237.399 186.02 237.879 186.12ZM246.216 190.98C247.076 190.3 248.216 189.96 249.596 189.96C250.816 189.96 251.816 190.32 252.596 191.02C253.376 191.72 253.756 192.66 253.756 193.88V198.58C253.756 199.52 253.136 200.1 252.336 200.1C251.676 200.1 251.236 199.8 251.016 199.2C250.336 199.88 249.496 200.22 248.516 200.22C247.536 200.22 246.756 199.94 246.136 199.38C245.516 198.8 245.216 198.08 245.216 197.2C245.216 196.18 245.576 195.42 246.316 194.9C247.056 194.38 247.996 194.1 249.096 194.06L250.896 193.98C250.896 192.98 250.396 192.48 249.396 192.48C248.796 192.48 248.256 192.64 247.756 192.98C247.016 193.48 246.296 193.42 245.876 192.86C245.416 192.32 245.556 191.52 246.216 190.98ZM248.076 197.04C248.076 197.52 248.496 197.82 249.216 197.82C249.796 197.82 250.356 197.62 250.896 197.22V196.06L249.636 196.16C248.596 196.22 248.076 196.5 248.076 197.04ZM256.796 199.14C256.136 198.56 256.056 197.8 256.556 197.24C257.096 196.64 257.716 196.62 258.436 197.2C258.976 197.62 259.696 197.84 260.576 197.84C261.196 197.84 261.676 197.62 261.676 197.24C261.676 196.92 261.456 196.76 260.796 196.58L259.696 196.26C257.516 195.64 256.496 194.64 256.496 193.06C256.496 192.12 256.856 191.38 257.596 190.82C258.336 190.24 259.236 189.96 260.296 189.96C261.436 189.96 262.396 190.2 263.196 190.7C263.916 191.18 264.096 191.9 263.716 192.52C263.296 193.16 262.616 193.34 261.836 192.88C261.316 192.54 260.756 192.38 260.176 192.38C259.616 192.38 259.256 192.6 259.256 192.92C259.256 193.22 259.476 193.34 259.956 193.48L261.216 193.82C263.216 194.38 264.436 195.24 264.436 197.06C264.436 198.92 262.836 200.22 260.336 200.22C258.836 200.22 257.656 199.86 256.796 199.14ZM274.338 202.04L275.218 200L272.198 192.12C271.878 191.24 272.298 190.4 273.098 190.16C273.838 189.94 274.558 190.3 274.878 191.2L276.758 196.26L278.658 191.2C278.978 190.3 279.698 189.94 280.438 190.16C281.238 190.42 281.698 191.16 281.358 192.02L277.038 202.86C276.658 203.8 276.078 204.14 275.258 203.9C274.438 203.64 273.958 202.9 274.338 202.04ZM81.0303 213.98C81.8903 213.3 83.0303 212.96 84.4103 212.96C85.6303 212.96 86.6303 213.32 87.4103 214.02C88.1903 214.72 88.5703 215.66 88.5703 216.88V221.58C88.5703 222.52 87.9503 223.1 87.1503 223.1C86.4903 223.1 86.0503 222.8 85.8303 222.2C85.1503 222.88 84.3103 223.22 83.3303 223.22C82.3503 223.22 81.5703 222.94 80.9503 222.38C80.3303 221.8 80.0303 221.08 80.0303 220.2C80.0303 219.18 80.3903 218.42 81.1303 217.9C81.8703 217.38 82.8103 217.1 83.9103 217.06L85.7103 216.98C85.7103 215.98 85.2103 215.48 84.2103 215.48C83.6103 215.48 83.0703 215.64 82.5703 215.98C81.8303 216.48 81.1103 216.42 80.6903 215.86C80.2303 215.32 80.3703 214.52 81.0303 213.98ZM82.8903 220.04C82.8903 220.52 83.3103 220.82 84.0303 220.82C84.6103 220.82 85.1703 220.62 85.7103 220.22V219.06L84.4503 219.16C83.4103 219.22 82.8903 219.5 82.8903 220.04ZM101.05 210.42V221.58C101.05 222.52 100.43 223.1 99.6302 223.1C98.9502 223.1 98.5102 222.8 98.3102 222.18C97.8102 222.8 96.7502 223.22 95.6902 223.22C94.3102 223.22 93.1302 222.76 92.1902 221.82C91.2502 220.88 90.7902 219.64 90.7902 218.1C90.7902 216.58 91.2502 215.34 92.1902 214.4C93.1302 213.44 94.3102 212.96 95.6902 212.96C96.7102 212.96 97.5502 213.24 98.2102 213.82V210.42C98.0902 208.42 101.17 208.42 101.05 210.42ZM97.5902 219.94C98.0302 219.46 98.2502 218.84 98.2502 218.1C98.2502 217.36 98.0302 216.74 97.5902 216.26C97.1702 215.78 96.6302 215.54 95.9702 215.54C95.3102 215.54 94.7702 215.78 94.3302 216.26C93.9102 216.74 93.6902 217.36 93.6902 218.1C93.6902 218.84 93.9102 219.46 94.3302 219.94C94.7702 220.42 95.3102 220.66 95.9702 220.66C96.6302 220.66 97.1702 220.42 97.5902 219.94ZM104.888 221.76C103.908 220.78 103.408 219.56 103.408 218.1C103.408 216.64 103.908 215.42 104.888 214.44C105.888 213.46 107.128 212.96 108.588 212.96C110.048 212.96 111.288 213.46 112.268 214.44C113.268 215.42 113.768 216.64 113.768 218.1C113.768 219.56 113.268 220.78 112.288 221.76C111.308 222.74 110.068 223.22 108.588 223.22C107.108 223.22 105.868 222.74 104.888 221.76ZM106.948 216.32C106.528 216.78 106.308 217.38 106.308 218.1C106.308 218.82 106.528 219.42 106.948 219.88C107.368 220.34 107.928 220.58 108.588 220.58C109.248 220.58 109.808 220.34 110.228 219.88C110.648 219.42 110.868 218.82 110.868 218.1C110.868 217.38 110.648 216.78 110.228 216.32C109.808 215.86 109.248 215.62 108.588 215.62C107.928 215.62 107.368 215.86 106.948 216.32ZM118.976 210.42V221.58C119.096 223.58 116.016 223.58 116.136 221.58V210.42C116.016 208.42 119.096 208.42 118.976 210.42ZM130.818 217.26C130.818 218.3 130.298 218.82 129.238 218.82H124.218C124.378 219.88 125.198 220.62 126.418 220.62C127.098 220.62 127.678 220.42 128.178 220.02C128.958 219.46 129.678 219.64 130.178 220.3C130.638 220.86 130.498 221.66 129.758 222.24C128.898 222.9 127.798 223.22 126.498 223.22C124.998 223.22 123.778 222.76 122.798 221.84C121.818 220.9 121.338 219.68 121.338 218.16C121.338 216.66 121.778 215.42 122.678 214.44C123.578 213.46 124.738 212.96 126.158 212.96C127.138 212.96 127.998 213.2 128.738 213.66C130.238 214.6 130.818 215.92 130.818 217.26ZM126.218 215.46C125.198 215.46 124.538 216.06 124.358 216.92H127.878C127.818 216.1 127.158 215.46 126.218 215.46ZM133.485 222.14C132.825 221.56 132.745 220.8 133.245 220.24C133.785 219.64 134.405 219.62 135.125 220.2C135.665 220.62 136.385 220.84 137.265 220.84C137.885 220.84 138.365 220.62 138.365 220.24C138.365 219.92 138.145 219.76 137.485 219.58L136.385 219.26C134.205 218.64 133.185 217.64 133.185 216.06C133.185 215.12 133.545 214.38 134.285 213.82C135.025 213.24 135.925 212.96 136.985 212.96C138.125 212.96 139.085 213.2 139.885 213.7C140.605 214.18 140.785 214.9 140.405 215.52C139.985 216.16 139.305 216.34 138.525 215.88C138.005 215.54 137.445 215.38 136.865 215.38C136.305 215.38 135.945 215.6 135.945 215.92C135.945 216.22 136.165 216.34 136.645 216.48L137.905 216.82C139.905 217.38 141.125 218.24 141.125 220.06C141.125 221.92 139.525 223.22 137.025 223.22C135.525 223.22 134.345 222.86 133.485 222.14ZM149.424 216.12C148.964 215.78 148.484 215.6 147.984 215.6C146.564 215.6 145.604 216.64 145.604 218.1C145.604 219.56 146.564 220.6 147.984 220.6C148.524 220.6 149.064 220.38 149.604 219.96C150.384 219.4 151.104 219.58 151.604 220.24C152.064 220.8 151.924 221.6 151.184 222.18C150.264 222.88 149.164 223.22 147.884 223.22C146.404 223.22 145.164 222.74 144.184 221.76C143.204 220.78 142.704 219.56 142.704 218.1C142.704 216.64 143.204 215.42 144.184 214.44C145.184 213.46 146.424 212.96 147.884 212.96C149.024 212.96 150.024 213.26 150.864 213.88C151.604 214.46 151.804 215.3 151.384 215.86C150.924 216.5 150.204 216.66 149.424 216.12ZM163.005 217.26C163.005 218.3 162.485 218.82 161.425 218.82H156.405C156.565 219.88 157.385 220.62 158.605 220.62C159.285 220.62 159.865 220.42 160.365 220.02C161.145 219.46 161.865 219.64 162.365 220.3C162.825 220.86 162.685 221.66 161.945 222.24C161.085 222.9 159.985 223.22 158.685 223.22C157.185 223.22 155.965 222.76 154.985 221.84C154.005 220.9 153.525 219.68 153.525 218.16C153.525 216.66 153.965 215.42 154.865 214.44C155.765 213.46 156.925 212.96 158.345 212.96C159.325 212.96 160.185 213.2 160.925 213.66C162.425 214.6 163.005 215.92 163.005 217.26ZM158.405 215.46C157.385 215.46 156.725 216.06 156.545 216.92H160.065C160.005 216.1 159.345 215.46 158.405 215.46ZM165.433 221.58V214.62C165.433 213.68 166.053 213.1 166.853 213.1C167.513 213.1 167.953 213.4 168.173 213.98C168.753 213.3 169.533 212.96 170.553 212.96C172.973 212.96 174.533 214.56 174.533 217.3V221.58C174.533 222.52 173.933 223.1 173.113 223.1C172.293 223.1 171.693 222.52 171.693 221.58V217.52C171.693 216.4 171.173 215.6 170.073 215.6C168.873 215.6 168.273 216.44 168.273 218.1V221.58C168.393 223.58 165.313 223.58 165.433 221.58ZM181.292 220.4C182.192 220.5 182.672 221 182.672 221.74C182.672 222.48 182.132 223.04 181.152 223.04H180.892C178.612 223.04 177.472 221.88 177.472 219.54V215.82H177.112C176.232 215.82 175.692 215.26 175.692 214.52C175.692 213.78 176.232 213.2 177.112 213.2H177.472V211.88C177.352 209.88 180.432 209.88 180.292 211.88V213.2H181.252C182.132 213.2 182.672 213.78 182.672 214.52C182.672 215.26 182.132 215.82 181.252 215.82H180.292V219.2C180.292 220.02 180.632 220.34 181.292 220.4ZM193.845 217.26C193.845 218.3 193.325 218.82 192.265 218.82H187.245C187.405 219.88 188.225 220.62 189.445 220.62C190.125 220.62 190.705 220.42 191.205 220.02C191.985 219.46 192.705 219.64 193.205 220.3C193.665 220.86 193.525 221.66 192.785 222.24C191.925 222.9 190.825 223.22 189.525 223.22C188.025 223.22 186.805 222.76 185.825 221.84C184.845 220.9 184.365 219.68 184.365 218.16C184.365 216.66 184.805 215.42 185.705 214.44C186.605 213.46 187.765 212.96 189.185 212.96C190.165 212.96 191.025 213.2 191.765 213.66C193.265 214.6 193.845 215.92 193.845 217.26ZM189.245 215.46C188.225 215.46 187.565 216.06 187.385 216.92H190.905C190.845 216.1 190.185 215.46 189.245 215.46ZM196.513 222.14C195.853 221.56 195.773 220.8 196.273 220.24C196.813 219.64 197.433 219.62 198.153 220.2C198.693 220.62 199.413 220.84 200.293 220.84C200.913 220.84 201.393 220.62 201.393 220.24C201.393 219.92 201.173 219.76 200.513 219.58L199.413 219.26C197.233 218.64 196.213 217.64 196.213 216.06C196.213 215.12 196.573 214.38 197.312 213.82C198.053 213.24 198.953 212.96 200.013 212.96C201.153 212.96 202.113 213.2 202.913 213.7C203.633 214.18 203.813 214.9 203.433 215.52C203.013 216.16 202.333 216.34 201.553 215.88C201.033 215.54 200.473 215.38 199.893 215.38C199.333 215.38 198.973 215.6 198.973 215.92C198.973 216.22 199.193 216.34 199.673 216.48L200.933 216.82C202.933 217.38 204.153 218.24 204.153 220.06C204.153 221.92 202.553 223.22 200.053 223.22C198.553 223.22 197.373 222.86 196.513 222.14ZM221.695 210.42V221.58C221.695 222.52 221.075 223.1 220.275 223.1C219.595 223.1 219.155 222.8 218.955 222.18C218.455 222.8 217.395 223.22 216.335 223.22C214.955 223.22 213.775 222.76 212.835 221.82C211.895 220.88 211.435 219.64 211.435 218.1C211.435 216.58 211.895 215.34 212.835 214.4C213.775 213.44 214.955 212.96 216.335 212.96C217.355 212.96 218.195 213.24 218.855 213.82V210.42C218.735 208.42 221.815 208.42 221.695 210.42ZM218.235 219.94C218.675 219.46 218.895 218.84 218.895 218.1C218.895 217.36 218.675 216.74 218.235 216.26C217.815 215.78 217.275 215.54 216.615 215.54C215.955 215.54 215.415 215.78 214.975 216.26C214.555 216.74 214.335 217.36 214.335 218.1C214.335 218.84 214.555 219.46 214.975 219.94C215.415 220.42 215.955 220.66 216.615 220.66C217.275 220.66 217.815 220.42 218.235 219.94ZM233.532 217.26C233.532 218.3 233.012 218.82 231.952 218.82H226.932C227.092 219.88 227.912 220.62 229.132 220.62C229.812 220.62 230.392 220.42 230.892 220.02C231.672 219.46 232.392 219.64 232.892 220.3C233.352 220.86 233.212 221.66 232.472 222.24C231.612 222.9 230.512 223.22 229.212 223.22C227.712 223.22 226.492 222.76 225.512 221.84C224.532 220.9 224.052 219.68 224.052 218.16C224.052 216.66 224.492 215.42 225.392 214.44C226.292 213.46 227.452 212.96 228.872 212.96C229.852 212.96 230.712 213.2 231.452 213.66C232.952 214.6 233.532 215.92 233.532 217.26ZM228.932 215.46C227.912 215.46 227.252 216.06 227.072 216.92H230.592C230.532 216.1 229.872 215.46 228.932 215.46ZM236.2 222.14C235.54 221.56 235.46 220.8 235.96 220.24C236.5 219.64 237.12 219.62 237.84 220.2C238.38 220.62 239.1 220.84 239.98 220.84C240.6 220.84 241.08 220.62 241.08 220.24C241.08 219.92 240.86 219.76 240.2 219.58L239.1 219.26C236.92 218.64 235.9 217.64 235.9 216.06C235.9 215.12 236.26 214.38 237 213.82C237.74 213.24 238.64 212.96 239.7 212.96C240.84 212.96 241.8 213.2 242.6 213.7C243.32 214.18 243.5 214.9 243.12 215.52C242.7 216.16 242.02 216.34 241.24 215.88C240.72 215.54 240.16 215.38 239.58 215.38C239.02 215.38 238.66 215.6 238.66 215.92C238.66 216.22 238.88 216.34 239.36 216.48L240.62 216.82C242.62 217.38 243.84 218.24 243.84 220.06C243.84 221.92 242.24 223.22 239.74 223.22C238.24 223.22 237.06 222.86 236.2 222.14ZM246.616 213.98C247.476 213.3 248.616 212.96 249.996 212.96C251.216 212.96 252.216 213.32 252.996 214.02C253.776 214.72 254.156 215.66 254.156 216.88V221.58C254.156 222.52 253.536 223.1 252.736 223.1C252.076 223.1 251.636 222.8 251.416 222.2C250.736 222.88 249.896 223.22 248.916 223.22C247.936 223.22 247.156 222.94 246.536 222.38C245.916 221.8 245.616 221.08 245.616 220.2C245.616 219.18 245.976 218.42 246.716 217.9C247.456 217.38 248.396 217.1 249.496 217.06L251.296 216.98C251.296 215.98 250.796 215.48 249.796 215.48C249.196 215.48 248.656 215.64 248.156 215.98C247.416 216.48 246.696 216.42 246.276 215.86C245.816 215.32 245.956 214.52 246.616 213.98ZM248.476 220.04C248.476 220.52 248.896 220.82 249.616 220.82C250.196 220.82 250.756 220.62 251.296 220.22V219.06L250.036 219.16C248.996 219.22 248.476 219.5 248.476 220.04ZM263.151 213.14C263.791 213.3 264.271 213.8 264.271 214.54C264.271 215.32 263.731 215.86 263.031 215.86C262.891 215.86 262.591 215.82 262.411 215.82C261.051 215.82 260.011 216.92 260.011 218.9V221.58C260.131 223.58 257.051 223.58 257.171 221.58V214.62C257.171 213.68 257.791 213.1 258.591 213.1C259.331 213.1 259.871 213.58 259.971 214.28C260.531 213.5 261.491 213.06 262.351 213.06C262.691 213.06 262.951 213.08 263.151 213.14ZM271.842 213.14C272.482 213.3 272.962 213.8 272.962 214.54C272.962 215.32 272.422 215.86 271.722 215.86C271.582 215.86 271.282 215.82 271.102 215.82C269.742 215.82 268.702 216.92 268.702 218.9V221.58C268.822 223.58 265.742 223.58 265.862 221.58V214.62C265.862 213.68 266.482 213.1 267.282 213.1C268.022 213.1 268.562 213.58 268.662 214.28C269.222 213.5 270.182 213.06 271.042 213.06C271.382 213.06 271.642 213.08 271.842 213.14ZM275.259 221.76C274.279 220.78 273.779 219.56 273.779 218.1C273.779 216.64 274.279 215.42 275.259 214.44C276.259 213.46 277.499 212.96 278.959 212.96C280.419 212.96 281.659 213.46 282.639 214.44C283.639 215.42 284.139 216.64 284.139 218.1C284.139 219.56 283.639 220.78 282.659 221.76C281.679 222.74 280.439 223.22 278.959 223.22C277.479 223.22 276.239 222.74 275.259 221.76ZM277.319 216.32C276.899 216.78 276.679 217.38 276.679 218.1C276.679 218.82 276.899 219.42 277.319 219.88C277.739 220.34 278.299 220.58 278.959 220.58C279.619 220.58 280.179 220.34 280.599 219.88C281.019 219.42 281.239 218.82 281.239 218.1C281.239 217.38 281.019 216.78 280.599 216.32C280.179 215.86 279.619 215.62 278.959 215.62C278.299 215.62 277.739 215.86 277.319 216.32ZM289.347 210.42V221.58C289.467 223.58 286.387 223.58 286.507 221.58V210.42C286.387 208.42 289.467 208.42 289.347 210.42ZM295.323 210.42V221.58C295.443 223.58 292.363 223.58 292.483 221.58V210.42C292.363 208.42 295.443 208.42 295.323 210.42ZM307.165 217.26C307.165 218.3 306.645 218.82 305.585 218.82H300.565C300.725 219.88 301.545 220.62 302.765 220.62C303.445 220.62 304.025 220.42 304.525 220.02C305.305 219.46 306.025 219.64 306.525 220.3C306.985 220.86 306.845 221.66 306.105 222.24C305.245 222.9 304.145 223.22 302.845 223.22C301.345 223.22 300.125 222.76 299.145 221.84C298.165 220.9 297.685 219.68 297.685 218.16C297.685 216.66 298.125 215.42 299.025 214.44C299.925 213.46 301.085 212.96 302.505 212.96C303.485 212.96 304.345 213.2 305.085 213.66C306.585 214.6 307.165 215.92 307.165 217.26ZM302.565 215.46C301.545 215.46 300.885 216.06 300.705 216.92H304.225C304.165 216.1 303.505 215.46 302.565 215.46ZM309.593 221.58V214.62C309.593 213.68 310.213 213.1 311.013 213.1C311.673 213.1 312.113 213.4 312.333 213.98C312.913 213.3 313.693 212.96 314.713 212.96C317.133 212.96 318.693 214.56 318.693 217.3V221.58C318.693 222.52 318.093 223.1 317.273 223.1C316.453 223.1 315.853 222.52 315.853 221.58V217.52C315.853 216.4 315.333 215.6 314.233 215.6C313.033 215.6 312.433 216.44 312.433 218.1V221.58C312.553 223.58 309.473 223.58 309.593 221.58ZM87.2784 244.58V233.42C87.1584 231.42 90.2384 231.42 90.1184 233.42V236.8C90.6584 236.24 91.4184 235.96 92.3984 235.96C94.8184 235.96 96.3784 237.56 96.3784 240.3V244.58C96.3784 245.52 95.7784 246.1 94.9584 246.1C94.1384 246.1 93.5384 245.52 93.5384 244.58V240.52C93.5384 239.4 93.0184 238.6 91.9184 238.6C90.7184 238.6 90.1184 239.36 90.1184 240.88V244.58C90.2384 246.58 87.1584 246.58 87.2784 244.58ZM99.5752 236.98C100.435 236.3 101.575 235.96 102.955 235.96C104.175 235.96 105.175 236.32 105.955 237.02C106.735 237.72 107.115 238.66 107.115 239.88V244.58C107.115 245.52 106.495 246.1 105.695 246.1C105.035 246.1 104.595 245.8 104.375 245.2C103.695 245.88 102.855 246.22 101.875 246.22C100.895 246.22 100.115 245.94 99.4952 245.38C98.8752 244.8 98.5752 244.08 98.5752 243.2C98.5752 242.18 98.9352 241.42 99.6752 240.9C100.415 240.38 101.355 240.1 102.455 240.06L104.255 239.98C104.255 238.98 103.755 238.48 102.755 238.48C102.155 238.48 101.615 238.64 101.115 238.98C100.375 239.48 99.6552 239.42 99.2352 238.86C98.7752 238.32 98.9152 237.52 99.5752 236.98ZM101.435 243.04C101.435 243.52 101.855 243.82 102.575 243.82C103.155 243.82 103.715 243.62 104.255 243.22V242.06L102.995 242.16C101.955 242.22 101.435 242.5 101.435 243.04ZM110.13 244.58V233.42C110.01 231.42 113.09 231.42 112.97 233.42V236.82C113.63 236.24 114.47 235.96 115.49 235.96C116.87 235.96 118.03 236.44 118.97 237.4C119.91 238.34 120.39 239.58 120.39 241.1C120.39 242.64 119.91 243.88 118.97 244.82C118.03 245.76 116.87 246.22 115.49 246.22C114.43 246.22 113.37 245.8 112.87 245.18C112.67 245.8 112.23 246.1 111.55 246.1C110.75 246.1 110.13 245.52 110.13 244.58ZM113.57 239.26C113.15 239.74 112.93 240.36 112.93 241.1C112.93 241.84 113.15 242.46 113.57 242.94C114.01 243.42 114.55 243.66 115.21 243.66C115.87 243.66 116.41 243.42 116.83 242.94C117.27 242.46 117.49 241.84 117.49 241.1C117.49 240.36 117.27 239.74 116.83 239.26C116.41 238.78 115.87 238.54 115.21 238.54C114.55 238.54 114.01 238.78 113.57 239.26ZM122.627 233.42C122.627 232.48 123.367 231.76 124.267 231.76C125.207 231.76 125.927 232.48 125.927 233.42C125.927 234.32 125.167 235.06 124.267 235.06C123.367 235.06 122.627 234.32 122.627 233.42ZM125.687 244.58C125.687 245.52 125.087 246.1 124.267 246.1C123.447 246.1 122.847 245.52 122.847 244.58V237.62C122.847 236.68 123.447 236.1 124.267 236.1C125.087 236.1 125.687 236.68 125.687 237.62V244.58ZM131.779 233.42V244.58C131.899 246.58 128.819 246.58 128.939 244.58V233.42C128.819 231.42 131.899 231.42 131.779 233.42ZM134.795 233.42C134.795 232.48 135.535 231.76 136.435 231.76C137.375 231.76 138.095 232.48 138.095 233.42C138.095 234.32 137.335 235.06 136.435 235.06C135.535 235.06 134.795 234.32 134.795 233.42ZM137.855 244.58C137.855 245.52 137.255 246.1 136.435 246.1C135.615 246.1 135.015 245.52 135.015 244.58V237.62C135.015 236.68 135.615 236.1 136.435 236.1C137.255 236.1 137.855 236.68 137.855 237.62V244.58ZM150.572 233.42V244.58C150.572 245.52 149.952 246.1 149.152 246.1C148.472 246.1 148.032 245.8 147.832 245.18C147.332 245.8 146.272 246.22 145.212 246.22C143.832 246.22 142.652 245.76 141.712 244.82C140.772 243.88 140.312 242.64 140.312 241.1C140.312 239.58 140.772 238.34 141.712 237.4C142.652 236.44 143.832 235.96 145.212 235.96C146.232 235.96 147.072 236.24 147.732 236.82V233.42C147.612 231.42 150.692 231.42 150.572 233.42ZM147.112 242.94C147.552 242.46 147.772 241.84 147.772 241.1C147.772 240.36 147.552 239.74 147.112 239.26C146.692 238.78 146.152 238.54 145.492 238.54C144.832 238.54 144.292 238.78 143.852 239.26C143.432 239.74 143.212 240.36 143.212 241.1C143.212 241.84 143.432 242.46 143.852 242.94C144.292 243.42 144.832 243.66 145.492 243.66C146.152 243.66 146.692 243.42 147.112 242.94ZM153.989 236.98C154.849 236.3 155.989 235.96 157.369 235.96C158.589 235.96 159.589 236.32 160.369 237.02C161.149 237.72 161.529 238.66 161.529 239.88V244.58C161.529 245.52 160.909 246.1 160.109 246.1C159.449 246.1 159.009 245.8 158.789 245.2C158.109 245.88 157.269 246.22 156.289 246.22C155.309 246.22 154.529 245.94 153.909 245.38C153.289 244.8 152.989 244.08 152.989 243.2C152.989 242.18 153.349 241.42 154.089 240.9C154.829 240.38 155.769 240.1 156.869 240.06L158.669 239.98C158.669 238.98 158.169 238.48 157.169 238.48C156.569 238.48 156.029 238.64 155.529 238.98C154.789 239.48 154.069 239.42 153.649 238.86C153.189 238.32 153.329 237.52 153.989 236.98ZM155.849 243.04C155.849 243.52 156.269 243.82 156.989 243.82C157.569 243.82 158.129 243.62 158.669 243.22V242.06L157.409 242.16C156.369 242.22 155.849 242.5 155.849 243.04ZM174.009 233.42V244.58C174.009 245.52 173.389 246.1 172.589 246.1C171.909 246.1 171.469 245.8 171.269 245.18C170.769 245.8 169.709 246.22 168.649 246.22C167.269 246.22 166.089 245.76 165.149 244.82C164.209 243.88 163.749 242.64 163.749 241.1C163.749 239.58 164.209 238.34 165.149 237.4C166.089 236.44 167.269 235.96 168.649 235.96C169.669 235.96 170.509 236.24 171.169 236.82V233.42C171.049 231.42 174.129 231.42 174.009 233.42ZM170.549 242.94C170.989 242.46 171.209 241.84 171.209 241.1C171.209 240.36 170.989 239.74 170.549 239.26C170.129 238.78 169.589 238.54 168.929 238.54C168.269 238.54 167.729 238.78 167.289 239.26C166.869 239.74 166.649 240.36 166.649 241.1C166.649 241.84 166.869 242.46 167.289 242.94C167.729 243.42 168.269 243.66 168.929 243.66C169.589 243.66 170.129 243.42 170.549 242.94ZM185.847 240.26C185.847 241.3 185.327 241.82 184.267 241.82H179.247C179.407 242.88 180.227 243.62 181.447 243.62C182.127 243.62 182.707 243.42 183.207 243.02C183.987 242.46 184.707 242.64 185.207 243.3C185.667 243.86 185.527 244.66 184.787 245.24C183.927 245.9 182.827 246.22 181.527 246.22C180.027 246.22 178.807 245.76 177.827 244.84C176.847 243.9 176.367 242.68 176.367 241.16C176.367 239.66 176.807 238.42 177.707 237.44C178.607 236.46 179.767 235.96 181.187 235.96C182.167 235.96 183.027 236.2 183.767 236.66C185.267 237.6 185.847 238.92 185.847 240.26ZM181.247 238.46C180.227 238.46 179.567 239.06 179.387 239.92H182.907C182.847 239.1 182.187 238.46 181.247 238.46ZM188.514 245.14C187.854 244.56 187.774 243.8 188.274 243.24C188.814 242.64 189.434 242.62 190.154 243.2C190.694 243.62 191.414 243.84 192.294 243.84C192.914 243.84 193.394 243.62 193.394 243.24C193.394 242.92 193.174 242.76 192.514 242.58L191.414 242.26C189.234 241.64 188.214 240.64 188.214 239.06C188.214 238.12 188.574 237.38 189.314 236.82C190.054 236.24 190.954 235.96 192.014 235.96C193.154 235.96 194.114 236.2 194.914 236.7C195.634 237.18 195.814 237.9 195.434 238.52C195.014 239.16 194.334 239.34 193.554 238.88C193.034 238.54 192.474 238.38 191.894 238.38C191.334 238.38 190.974 238.6 190.974 238.92C190.974 239.22 191.194 239.34 191.674 239.48L192.934 239.82C194.934 240.38 196.154 241.24 196.154 243.06C196.154 244.92 194.554 246.22 192.054 246.22C190.554 246.22 189.374 245.86 188.514 245.14ZM204.017 244.58V233.42C203.897 231.42 206.977 231.42 206.857 233.42V236.82C207.517 236.24 208.357 235.96 209.377 235.96C210.757 235.96 211.917 236.44 212.857 237.4C213.797 238.34 214.277 239.58 214.277 241.1C214.277 242.64 213.797 243.88 212.857 244.82C211.917 245.76 210.757 246.22 209.377 246.22C208.317 246.22 207.257 245.8 206.757 245.18C206.557 245.8 206.117 246.1 205.437 246.1C204.637 246.1 204.017 245.52 204.017 244.58ZM207.457 239.26C207.037 239.74 206.817 240.36 206.817 241.1C206.817 241.84 207.037 242.46 207.457 242.94C207.897 243.42 208.437 243.66 209.097 243.66C209.757 243.66 210.297 243.42 210.717 242.94C211.157 242.46 211.377 241.84 211.377 241.1C211.377 240.36 211.157 239.74 210.717 239.26C210.297 238.78 209.757 238.54 209.097 238.54C208.437 238.54 207.897 238.78 207.457 239.26ZM219.474 233.42V244.58C219.594 246.58 216.514 246.58 216.634 244.58V233.42C216.514 231.42 219.594 231.42 219.474 233.42ZM222.896 236.98C223.756 236.3 224.896 235.96 226.276 235.96C227.496 235.96 228.496 236.32 229.276 237.02C230.056 237.72 230.436 238.66 230.436 239.88V244.58C230.436 245.52 229.816 246.1 229.016 246.1C228.356 246.1 227.916 245.8 227.696 245.2C227.016 245.88 226.176 246.22 225.196 246.22C224.216 246.22 223.436 245.94 222.816 245.38C222.196 244.8 221.896 244.08 221.896 243.2C221.896 242.18 222.256 241.42 222.996 240.9C223.736 240.38 224.676 240.1 225.776 240.06L227.576 239.98C227.576 238.98 227.076 238.48 226.076 238.48C225.476 238.48 224.936 238.64 224.436 238.98C223.696 239.48 222.976 239.42 222.556 238.86C222.096 238.32 222.236 237.52 222.896 236.98ZM224.756 243.04C224.756 243.52 225.176 243.82 225.896 243.82C226.476 243.82 227.036 243.62 227.576 243.22V242.06L226.316 242.16C225.276 242.22 224.756 242.5 224.756 243.04ZM233.45 244.58V237.62C233.45 236.68 234.07 236.1 234.87 236.1C235.53 236.1 235.97 236.4 236.19 236.98C236.77 236.3 237.55 235.96 238.57 235.96C240.99 235.96 242.55 237.56 242.55 240.3V244.58C242.55 245.52 241.95 246.1 241.13 246.1C240.31 246.1 239.71 245.52 239.71 244.58V240.52C239.71 239.4 239.19 238.6 238.09 238.6C236.89 238.6 236.29 239.44 236.29 241.1V244.58C236.41 246.58 233.33 246.58 233.45 244.58ZM254.927 233.42V244.58C254.927 245.52 254.307 246.1 253.507 246.1C252.827 246.1 252.387 245.8 252.187 245.18C251.687 245.8 250.627 246.22 249.567 246.22C248.187 246.22 247.007 245.76 246.067 244.82C245.127 243.88 244.667 242.64 244.667 241.1C244.667 239.58 245.127 238.34 246.067 237.4C247.007 236.44 248.187 235.96 249.567 235.96C250.587 235.96 251.427 236.24 252.087 236.82V233.42C251.967 231.42 255.047 231.42 254.927 233.42ZM251.467 242.94C251.907 242.46 252.127 241.84 252.127 241.1C252.127 240.36 251.907 239.74 251.467 239.26C251.047 238.78 250.507 238.54 249.847 238.54C249.187 238.54 248.647 238.78 248.207 239.26C247.787 239.74 247.567 240.36 247.567 241.1C247.567 241.84 247.787 242.46 248.207 242.94C248.647 243.42 249.187 243.66 249.847 243.66C250.507 243.66 251.047 243.42 251.467 242.94ZM258.345 236.98C259.205 236.3 260.345 235.96 261.725 235.96C262.945 235.96 263.945 236.32 264.725 237.02C265.505 237.72 265.885 238.66 265.885 239.88V244.58C265.885 245.52 265.265 246.1 264.465 246.1C263.805 246.1 263.365 245.8 263.145 245.2C262.465 245.88 261.625 246.22 260.645 246.22C259.665 246.22 258.885 245.94 258.265 245.38C257.645 244.8 257.345 244.08 257.345 243.2C257.345 242.18 257.705 241.42 258.445 240.9C259.185 240.38 260.125 240.1 261.225 240.06L263.025 239.98C263.025 238.98 262.525 238.48 261.525 238.48C260.925 238.48 260.385 238.64 259.885 238.98C259.145 239.48 258.425 239.42 258.005 238.86C257.545 238.32 257.685 237.52 258.345 236.98ZM260.205 243.04C260.205 243.52 260.625 243.82 261.345 243.82C261.925 243.82 262.485 243.62 263.025 243.22V242.06L261.765 242.16C260.725 242.22 260.205 242.5 260.205 243.04ZM268.925 245.14C268.265 244.56 268.185 243.8 268.685 243.24C269.225 242.64 269.845 242.62 270.565 243.2C271.105 243.62 271.825 243.84 272.705 243.84C273.325 243.84 273.805 243.62 273.805 243.24C273.805 242.92 273.585 242.76 272.925 242.58L271.825 242.26C269.645 241.64 268.625 240.64 268.625 239.06C268.625 238.12 268.985 237.38 269.725 236.82C270.465 236.24 271.365 235.96 272.425 235.96C273.565 235.96 274.525 236.2 275.325 236.7C276.045 237.18 276.225 237.9 275.845 238.52C275.425 239.16 274.745 239.34 273.965 238.88C273.445 238.54 272.885 238.38 272.305 238.38C271.745 238.38 271.385 238.6 271.385 238.92C271.385 239.22 271.605 239.34 272.085 239.48L273.345 239.82C275.345 240.38 276.565 241.24 276.565 243.06C276.565 244.92 274.965 246.22 272.465 246.22C270.965 246.22 269.785 245.86 268.925 245.14ZM281.789 245.44L280.449 248.3C280.149 248.94 279.569 249.2 278.949 249.04C278.229 248.82 277.809 248.16 278.109 247.38L279.189 244.44C279.509 243.56 280.229 243.2 281.049 243.46C281.829 243.7 282.169 244.58 281.789 245.44ZM300.376 233.42V244.58C300.376 245.52 299.756 246.1 298.956 246.1C298.276 246.1 297.836 245.8 297.636 245.18C297.136 245.8 296.076 246.22 295.016 246.22C293.636 246.22 292.456 245.76 291.516 244.82C290.576 243.88 290.116 242.64 290.116 241.1C290.116 239.58 290.576 238.34 291.516 237.4C292.456 236.44 293.636 235.96 295.016 235.96C296.036 235.96 296.876 236.24 297.536 236.82V233.42C297.416 231.42 300.496 231.42 300.376 233.42ZM296.916 242.94C297.356 242.46 297.576 241.84 297.576 241.1C297.576 240.36 297.356 239.74 296.916 239.26C296.496 238.78 295.956 238.54 295.296 238.54C294.636 238.54 294.096 238.78 293.656 239.26C293.236 239.74 293.016 240.36 293.016 241.1C293.016 241.84 293.236 242.46 293.656 242.94C294.096 243.42 294.636 243.66 295.296 243.66C295.956 243.66 296.496 243.42 296.916 242.94ZM312.214 240.26C312.214 241.3 311.694 241.82 310.634 241.82H305.614C305.774 242.88 306.594 243.62 307.814 243.62C308.494 243.62 309.074 243.42 309.574 243.02C310.354 242.46 311.074 242.64 311.574 243.3C312.034 243.86 311.894 244.66 311.154 245.24C310.294 245.9 309.194 246.22 307.894 246.22C306.394 246.22 305.174 245.76 304.194 244.84C303.214 243.9 302.734 242.68 302.734 241.16C302.734 239.66 303.174 238.42 304.074 237.44C304.974 236.46 306.134 235.96 307.554 235.96C308.534 235.96 309.394 236.2 310.134 236.66C311.634 237.6 312.214 238.92 312.214 240.26ZM307.614 238.46C306.594 238.46 305.934 239.06 305.754 239.92H309.274C309.214 239.1 308.554 238.46 307.614 238.46ZM130.204 268.14C129.544 267.56 129.464 266.8 129.964 266.24C130.504 265.64 131.124 265.62 131.844 266.2C132.384 266.62 133.104 266.84 133.984 266.84C134.604 266.84 135.084 266.62 135.084 266.24C135.084 265.92 134.864 265.76 134.204 265.58L133.104 265.26C130.924 264.64 129.904 263.64 129.904 262.06C129.904 261.12 130.264 260.38 131.004 259.82C131.744 259.24 132.644 258.96 133.704 258.96C134.844 258.96 135.804 259.2 136.604 259.7C137.324 260.18 137.504 260.9 137.124 261.52C136.704 262.16 136.024 262.34 135.244 261.88C134.724 261.54 134.164 261.38 133.584 261.38C133.024 261.38 132.664 261.6 132.664 261.92C132.664 262.22 132.884 262.34 133.364 262.48L134.624 262.82C136.624 263.38 137.844 264.24 137.844 266.06C137.844 267.92 136.244 269.22 133.744 269.22C132.244 269.22 131.064 268.86 130.204 268.14ZM140.923 267.76C139.943 266.78 139.443 265.56 139.443 264.1C139.443 262.64 139.943 261.42 140.923 260.44C141.923 259.46 143.163 258.96 144.623 258.96C146.083 258.96 147.323 259.46 148.303 260.44C149.303 261.42 149.803 262.64 149.803 264.1C149.803 265.56 149.303 266.78 148.323 267.76C147.343 268.74 146.103 269.22 144.623 269.22C143.143 269.22 141.903 268.74 140.923 267.76ZM142.983 262.32C142.563 262.78 142.343 263.38 142.343 264.1C142.343 264.82 142.563 265.42 142.983 265.88C143.403 266.34 143.963 266.58 144.623 266.58C145.283 266.58 145.843 266.34 146.263 265.88C146.683 265.42 146.903 264.82 146.903 264.1C146.903 263.38 146.683 262.78 146.263 262.32C145.843 261.86 145.283 261.62 144.623 261.62C143.963 261.62 143.403 261.86 142.983 262.32ZM158.428 262.12C157.968 261.78 157.488 261.6 156.988 261.6C155.568 261.6 154.608 262.64 154.608 264.1C154.608 265.56 155.568 266.6 156.988 266.6C157.528 266.6 158.068 266.38 158.608 265.96C159.388 265.4 160.108 265.58 160.608 266.24C161.068 266.8 160.928 267.6 160.188 268.18C159.268 268.88 158.168 269.22 156.888 269.22C155.408 269.22 154.168 268.74 153.188 267.76C152.208 266.78 151.708 265.56 151.708 264.1C151.708 262.64 152.208 261.42 153.188 260.44C154.188 259.46 155.428 258.96 156.888 258.96C158.028 258.96 159.028 259.26 159.868 259.88C160.608 260.46 160.808 261.3 160.388 261.86C159.928 262.5 159.208 262.66 158.428 262.12ZM163.301 256.42C163.301 255.48 164.041 254.76 164.941 254.76C165.881 254.76 166.601 255.48 166.601 256.42C166.601 257.32 165.841 258.06 164.941 258.06C164.041 258.06 163.301 257.32 163.301 256.42ZM166.361 267.58C166.361 268.52 165.761 269.1 164.941 269.1C164.121 269.1 163.521 268.52 163.521 267.58V260.62C163.521 259.68 164.121 259.1 164.941 259.1C165.761 259.1 166.361 259.68 166.361 260.62V267.58ZM169.898 259.98C170.758 259.3 171.898 258.96 173.278 258.96C174.498 258.96 175.498 259.32 176.278 260.02C177.058 260.72 177.438 261.66 177.438 262.88V267.58C177.438 268.52 176.818 269.1 176.018 269.1C175.358 269.1 174.918 268.8 174.698 268.2C174.018 268.88 173.178 269.22 172.198 269.22C171.218 269.22 170.438 268.94 169.818 268.38C169.198 267.8 168.898 267.08 168.898 266.2C168.898 265.18 169.257 264.42 169.998 263.9C170.738 263.38 171.678 263.1 172.778 263.06L174.578 262.98C174.578 261.98 174.078 261.48 173.077 261.48C172.478 261.48 171.938 261.64 171.438 261.98C170.698 262.48 169.978 262.42 169.558 261.86C169.098 261.32 169.238 260.52 169.898 259.98ZM171.758 266.04C171.758 266.52 172.178 266.82 172.898 266.82C173.478 266.82 174.038 266.62 174.578 266.22V265.06L173.318 265.16C172.278 265.22 171.758 265.5 171.758 266.04ZM183.292 256.42V267.58C183.412 269.58 180.332 269.58 180.452 267.58V256.42C180.332 254.42 183.412 254.42 183.292 256.42ZM186.309 256.42C186.309 255.48 187.049 254.76 187.949 254.76C188.889 254.76 189.609 255.48 189.609 256.42C189.609 257.32 188.849 258.06 187.949 258.06C187.049 258.06 186.309 257.32 186.309 256.42ZM189.369 267.58C189.369 268.52 188.769 269.1 187.949 269.1C187.129 269.1 186.529 268.52 186.529 267.58V260.62C186.529 259.68 187.129 259.1 187.949 259.1C188.769 259.1 189.369 259.68 189.369 260.62V267.58ZM199.245 269H193.465C192.525 269 191.965 268.4 191.965 267.54C191.965 267.16 192.085 266.84 192.325 266.56L196.405 261.76H193.465C191.665 261.9 191.625 259.06 193.465 259.2H198.905C199.845 259.2 200.405 259.8 200.405 260.66C200.405 261.04 200.285 261.36 200.045 261.64L195.885 266.44H199.245C201.065 266.3 201.065 269.14 199.245 269ZM203.608 259.98C204.468 259.3 205.608 258.96 206.988 258.96C208.208 258.96 209.208 259.32 209.988 260.02C210.768 260.72 211.148 261.66 211.148 262.88V267.58C211.148 268.52 210.528 269.1 209.728 269.1C209.068 269.1 208.628 268.8 208.408 268.2C207.728 268.88 206.888 269.22 205.908 269.22C204.928 269.22 204.148 268.94 203.528 268.38C202.908 267.8 202.608 267.08 202.608 266.2C202.608 265.18 202.968 264.42 203.708 263.9C204.448 263.38 205.388 263.1 206.488 263.06L208.288 262.98C208.288 261.98 207.788 261.48 206.788 261.48C206.188 261.48 205.648 261.64 205.148 261.98C204.408 262.48 203.688 262.42 203.268 261.86C202.808 261.32 202.948 260.52 203.608 259.98ZM205.468 266.04C205.468 266.52 205.888 266.82 206.608 266.82C207.188 266.82 207.748 266.62 208.288 266.22V265.06L207.028 265.16C205.988 265.22 205.468 265.5 205.468 266.04ZM220.088 262.12C219.628 261.78 219.148 261.6 218.648 261.6C217.228 261.6 216.268 262.64 216.268 264.1C216.268 265.56 217.228 266.6 218.648 266.6C219.188 266.6 219.728 266.38 220.268 265.96C221.048 265.4 221.768 265.58 222.268 266.24C222.728 266.8 222.588 267.6 221.848 268.18C220.928 268.88 219.828 269.22 218.548 269.22C217.068 269.22 215.828 268.74 214.848 267.76C213.868 266.78 213.368 265.56 213.368 264.1C213.368 262.64 213.868 261.42 214.848 260.44C215.848 259.46 217.088 258.96 218.548 258.96C219.688 258.96 220.688 259.26 221.528 259.88C222.268 260.46 222.468 261.3 222.048 261.86C221.588 262.5 220.868 262.66 220.088 262.12ZM224.961 256.42C224.961 255.48 225.701 254.76 226.601 254.76C227.541 254.76 228.261 255.48 228.261 256.42C228.261 257.32 227.501 258.06 226.601 258.06C225.701 258.06 224.961 257.32 224.961 256.42ZM228.021 267.58C228.021 268.52 227.421 269.1 226.601 269.1C225.781 269.1 225.181 268.52 225.181 267.58V260.62C225.181 259.68 225.781 259.1 226.601 259.1C227.421 259.1 228.021 259.68 228.021 260.62V267.58ZM231.978 267.76C230.998 266.78 230.498 265.56 230.498 264.1C230.498 262.64 230.998 261.42 231.978 260.44C232.978 259.46 234.218 258.96 235.678 258.96C237.138 258.96 238.378 259.46 239.358 260.44C240.358 261.42 240.858 262.64 240.858 264.1C240.858 265.56 240.358 266.78 239.378 267.76C238.398 268.74 237.158 269.22 235.678 269.22C234.198 269.22 232.958 268.74 231.978 267.76ZM234.038 262.32C233.618 262.78 233.398 263.38 233.398 264.1C233.398 264.82 233.618 265.42 234.038 265.88C234.458 266.34 235.018 266.58 235.678 266.58C236.338 266.58 236.898 266.34 237.318 265.88C237.738 265.42 237.958 264.82 237.958 264.1C237.958 263.38 237.738 262.78 237.318 262.32C236.898 261.86 236.338 261.62 235.678 261.62C235.018 261.62 234.458 261.86 234.038 262.32ZM236.858 256.9L235.138 257.7C234.758 257.88 234.398 257.86 234.038 257.64C233.498 257.3 233.358 256.54 233.698 256.04C233.798 255.88 233.938 255.76 234.098 255.66L235.798 254.54C236.258 254.24 236.738 254.26 237.238 254.56C237.818 254.94 237.998 255.76 237.598 256.38C237.418 256.62 237.158 256.8 236.858 256.9ZM243.226 267.58V260.62C243.226 259.68 243.846 259.1 244.646 259.1C245.306 259.1 245.746 259.4 245.966 259.98C246.546 259.3 247.326 258.96 248.346 258.96C250.766 258.96 252.326 260.56 252.326 263.3V267.58C252.326 268.52 251.726 269.1 250.906 269.1C250.086 269.1 249.486 268.52 249.486 267.58V263.52C249.486 262.4 248.966 261.6 247.866 261.6C246.666 261.6 246.066 262.44 246.066 264.1V267.58C246.186 269.58 243.106 269.58 243.226 267.58ZM269.528 263.26C269.528 264.3 269.008 264.82 267.948 264.82H262.928C263.088 265.88 263.908 266.62 265.128 266.62C265.808 266.62 266.388 266.42 266.888 266.02C267.668 265.46 268.388 265.64 268.888 266.3C269.348 266.86 269.208 267.66 268.468 268.24C267.608 268.9 266.508 269.22 265.208 269.22C263.708 269.22 262.488 268.76 261.508 267.84C260.528 266.9 260.048 265.68 260.048 264.16C260.048 262.66 260.488 261.42 261.388 260.44C262.288 259.46 263.448 258.96 264.868 258.96C265.848 258.96 266.708 259.2 267.448 259.66C268.948 260.6 269.528 261.92 269.528 263.26ZM264.928 261.46C263.908 261.46 263.248 262.06 263.068 262.92H266.588C266.528 262.1 265.868 261.46 264.928 261.46ZM88.7404 279.42C88.7404 278.48 89.4804 277.76 90.3804 277.76C91.3204 277.76 92.0404 278.48 92.0404 279.42C92.0404 280.32 91.2804 281.06 90.3804 281.06C89.4804 281.06 88.7404 280.32 88.7404 279.42ZM91.8004 290.58C91.8004 291.52 91.2004 292.1 90.3804 292.1C89.5604 292.1 88.9604 291.52 88.9604 290.58V283.62C88.9604 282.68 89.5604 282.1 90.3804 282.1C91.2004 282.1 91.8004 282.68 91.8004 283.62V290.58ZM95.0518 290.58V283.62C95.0518 282.68 95.6718 282.1 96.4718 282.1C97.1318 282.1 97.5718 282.4 97.7918 282.98C98.3718 282.3 99.1518 281.96 100.172 281.96C102.592 281.96 104.152 283.56 104.152 286.3V290.58C104.152 291.52 103.552 292.1 102.732 292.1C101.912 292.1 101.312 291.52 101.312 290.58V286.52C101.312 285.4 100.792 284.6 99.6918 284.6C98.4918 284.6 97.8918 285.44 97.8918 287.1V290.58C98.0118 292.58 94.9318 292.58 95.0518 290.58ZM110.911 289.4C111.811 289.5 112.291 290 112.291 290.74C112.291 291.48 111.751 292.04 110.771 292.04H110.511C108.231 292.04 107.091 290.88 107.091 288.54V284.82H106.731C105.851 284.82 105.311 284.26 105.311 283.52C105.311 282.78 105.851 282.2 106.731 282.2H107.091V280.88C106.971 278.88 110.051 278.88 109.911 280.88V282.2H110.871C111.751 282.2 112.291 282.78 112.291 283.52C112.291 284.26 111.751 284.82 110.871 284.82H109.911V288.2C109.911 289.02 110.251 289.34 110.911 289.4ZM123.464 286.26C123.464 287.3 122.944 287.82 121.884 287.82H116.864C117.024 288.88 117.844 289.62 119.064 289.62C119.744 289.62 120.324 289.42 120.824 289.02C121.604 288.46 122.324 288.64 122.824 289.3C123.284 289.86 123.144 290.66 122.404 291.24C121.544 291.9 120.444 292.22 119.144 292.22C117.644 292.22 116.424 291.76 115.444 290.84C114.464 289.9 113.984 288.68 113.984 287.16C113.984 285.66 114.424 284.42 115.324 283.44C116.224 282.46 117.384 281.96 118.804 281.96C119.784 281.96 120.644 282.2 121.384 282.66C122.884 283.6 123.464 284.92 123.464 286.26ZM118.864 284.46C117.844 284.46 117.184 285.06 117.004 285.92H120.524C120.464 285.1 119.804 284.46 118.864 284.46ZM128.732 279.42V290.58C128.852 292.58 125.772 292.58 125.892 290.58V279.42C125.772 277.42 128.852 277.42 128.732 279.42ZM131.748 279.42C131.748 278.48 132.488 277.76 133.388 277.76C134.328 277.76 135.048 278.48 135.048 279.42C135.048 280.32 134.288 281.06 133.388 281.06C132.488 281.06 131.748 280.32 131.748 279.42ZM134.808 290.58C134.808 291.52 134.208 292.1 133.388 292.1C132.568 292.1 131.968 291.52 131.968 290.58V283.62C131.968 282.68 132.568 282.1 133.388 282.1C134.208 282.1 134.808 282.68 134.808 283.62V290.58ZM144.505 286.88C144.505 285.5 143.545 284.54 142.325 284.54C141.125 284.54 140.165 285.5 140.165 286.88C140.165 288.24 141.125 289.2 142.325 289.2C143.545 289.2 144.505 288.24 144.505 286.88ZM138.445 295.02C137.705 294.46 137.705 293.54 138.245 292.98C138.745 292.44 139.425 292.42 140.285 292.96C140.865 293.3 141.425 293.48 141.985 293.48C143.485 293.48 144.445 292.6 144.445 291.3V291.04C143.885 291.54 143.085 291.78 142.065 291.78C140.665 291.78 139.505 291.34 138.605 290.46C137.705 289.58 137.265 288.38 137.265 286.88C137.265 285.36 137.725 284.16 138.665 283.28C139.605 282.4 140.725 281.96 142.065 281.96C143.105 281.96 143.945 282.3 144.565 283C144.765 282.38 145.205 282.08 145.885 282.08C146.705 282.08 147.305 282.64 147.305 283.6V290.98C147.305 292.5 146.825 293.74 145.885 294.68C144.945 295.62 143.665 296.1 142.005 296.1C140.605 296.1 139.425 295.74 138.445 295.02ZM159.128 286.26C159.128 287.3 158.608 287.82 157.548 287.82H152.528C152.688 288.88 153.508 289.62 154.728 289.62C155.408 289.62 155.988 289.42 156.488 289.02C157.268 288.46 157.988 288.64 158.488 289.3C158.948 289.86 158.808 290.66 158.068 291.24C157.208 291.9 156.108 292.22 154.808 292.22C153.308 292.22 152.088 291.76 151.108 290.84C150.128 289.9 149.648 288.68 149.648 287.16C149.648 285.66 150.088 284.42 150.988 283.44C151.888 282.46 153.048 281.96 154.468 281.96C155.448 281.96 156.308 282.2 157.048 282.66C158.548 283.6 159.128 284.92 159.128 286.26ZM154.528 284.46C153.508 284.46 152.848 285.06 152.668 285.92H156.188C156.128 285.1 155.468 284.46 154.528 284.46ZM161.556 290.58V283.62C161.556 282.68 162.176 282.1 162.976 282.1C163.636 282.1 164.076 282.4 164.296 282.98C164.876 282.3 165.656 281.96 166.676 281.96C169.096 281.96 170.656 283.56 170.656 286.3V290.58C170.656 291.52 170.056 292.1 169.236 292.1C168.416 292.1 167.816 291.52 167.816 290.58V286.52C167.816 285.4 167.296 284.6 166.196 284.6C164.996 284.6 164.396 285.44 164.396 287.1V290.58C164.516 292.58 161.436 292.58 161.556 290.58ZM179.493 285.12C179.033 284.78 178.553 284.6 178.053 284.6C176.633 284.6 175.673 285.64 175.673 287.1C175.673 288.56 176.633 289.6 178.053 289.6C178.593 289.6 179.133 289.38 179.673 288.96C180.453 288.4 181.173 288.58 181.673 289.24C182.133 289.8 181.993 290.6 181.253 291.18C180.333 291.88 179.233 292.22 177.953 292.22C176.473 292.22 175.233 291.74 174.253 290.76C173.273 289.78 172.773 288.56 172.773 287.1C172.773 285.64 173.273 284.42 174.253 283.44C175.253 282.46 176.493 281.96 177.953 281.96C179.093 281.96 180.093 282.26 180.933 282.88C181.673 283.46 181.873 284.3 181.453 284.86C180.993 285.5 180.273 285.66 179.493 285.12ZM184.365 279.42C184.365 278.48 185.105 277.76 186.005 277.76C186.945 277.76 187.665 278.48 187.665 279.42C187.665 280.32 186.905 281.06 186.005 281.06C185.105 281.06 184.365 280.32 184.365 279.42ZM187.425 290.58C187.425 291.52 186.825 292.1 186.005 292.1C185.185 292.1 184.585 291.52 184.585 290.58V283.62C184.585 282.68 185.185 282.1 186.005 282.1C186.825 282.1 187.425 282.68 187.425 283.62V290.58ZM190.962 282.98C191.822 282.3 192.962 281.96 194.342 281.96C195.562 281.96 196.562 282.32 197.342 283.02C198.122 283.72 198.502 284.66 198.502 285.88V290.58C198.502 291.52 197.882 292.1 197.082 292.1C196.422 292.1 195.982 291.8 195.762 291.2C195.082 291.88 194.242 292.22 193.262 292.22C192.282 292.22 191.502 291.94 190.882 291.38C190.262 290.8 189.962 290.08 189.962 289.2C189.962 288.18 190.322 287.42 191.062 286.9C191.802 286.38 192.742 286.1 193.842 286.06L195.642 285.98C195.642 284.98 195.142 284.48 194.142 284.48C193.542 284.48 193.002 284.64 192.502 284.98C191.762 285.48 191.042 285.42 190.622 284.86C190.162 284.32 190.302 283.52 190.962 282.98ZM192.822 289.04C192.822 289.52 193.242 289.82 193.962 289.82C194.542 289.82 195.102 289.62 195.642 289.22V288.06L194.382 288.16C193.342 288.22 192.822 288.5 192.822 289.04ZM215.808 286.26C215.808 287.3 215.288 287.82 214.228 287.82H209.208C209.368 288.88 210.188 289.62 211.408 289.62C212.088 289.62 212.668 289.42 213.168 289.02C213.948 288.46 214.668 288.64 215.168 289.3C215.628 289.86 215.488 290.66 214.748 291.24C213.888 291.9 212.788 292.22 211.488 292.22C209.988 292.22 208.768 291.76 207.788 290.84C206.808 289.9 206.328 288.68 206.328 287.16C206.328 285.66 206.768 284.42 207.668 283.44C208.568 282.46 209.728 281.96 211.148 281.96C212.128 281.96 212.988 282.2 213.728 282.66C215.228 283.6 215.808 284.92 215.808 286.26ZM211.208 284.46C210.188 284.46 209.528 285.06 209.348 285.92H212.868C212.808 285.1 212.148 284.46 211.208 284.46ZM218.235 290.58V283.62C218.235 282.68 218.855 282.1 219.655 282.1C220.315 282.1 220.755 282.4 220.975 282.98C221.555 282.3 222.375 281.96 223.395 281.96C224.535 281.96 225.435 282.36 226.115 283.14C226.895 282.36 227.875 281.96 229.055 281.96C231.675 281.96 233.155 283.52 233.155 286.3V290.58C233.275 292.58 230.195 292.58 230.315 290.58V286.42C230.315 285.32 229.795 284.6 228.815 284.6C227.755 284.6 227.115 285.42 227.115 286.78V290.58C227.235 292.58 224.155 292.58 224.275 290.58V286.42C224.275 285.32 223.755 284.6 222.775 284.6C221.655 284.6 221.075 285.46 221.075 286.98V290.58C221.195 292.58 218.115 292.58 218.235 290.58ZM236.773 290.76C235.793 289.78 235.293 288.56 235.293 287.1C235.293 285.64 235.793 284.42 236.773 283.44C237.773 282.46 239.013 281.96 240.473 281.96C241.933 281.96 243.173 282.46 244.153 283.44C245.153 284.42 245.653 285.64 245.653 287.1C245.653 288.56 245.153 289.78 244.173 290.76C243.193 291.74 241.953 292.22 240.473 292.22C238.993 292.22 237.753 291.74 236.773 290.76ZM238.833 285.32C238.413 285.78 238.193 286.38 238.193 287.1C238.193 287.82 238.413 288.42 238.833 288.88C239.253 289.34 239.813 289.58 240.473 289.58C241.133 289.58 241.693 289.34 242.113 288.88C242.533 288.42 242.753 287.82 242.753 287.1C242.753 286.38 242.533 285.78 242.113 285.32C241.693 284.86 241.133 284.62 240.473 284.62C239.813 284.62 239.253 284.86 238.833 285.32ZM254.278 285.12C253.818 284.78 253.338 284.6 252.838 284.6C251.418 284.6 250.458 285.64 250.458 287.1C250.458 288.56 251.418 289.6 252.838 289.6C253.378 289.6 253.918 289.38 254.458 288.96C255.238 288.4 255.958 288.58 256.458 289.24C256.918 289.8 256.778 290.6 256.038 291.18C255.118 291.88 254.018 292.22 252.738 292.22C251.258 292.22 250.018 291.74 249.038 290.76C248.058 289.78 247.558 288.56 247.558 287.1C247.558 285.64 248.058 284.42 249.038 283.44C250.038 282.46 251.278 281.96 252.738 281.96C253.878 281.96 254.878 282.26 255.718 282.88C256.458 283.46 256.658 284.3 256.238 284.86C255.778 285.5 255.058 285.66 254.278 285.12ZM259.151 279.42C259.151 278.48 259.891 277.76 260.791 277.76C261.731 277.76 262.451 278.48 262.451 279.42C262.451 280.32 261.691 281.06 260.791 281.06C259.891 281.06 259.151 280.32 259.151 279.42ZM262.211 290.58C262.211 291.52 261.611 292.1 260.791 292.1C259.971 292.1 259.371 291.52 259.371 290.58V283.62C259.371 282.68 259.971 282.1 260.791 282.1C261.611 282.1 262.211 282.68 262.211 283.62V290.58ZM266.167 290.76C265.187 289.78 264.687 288.56 264.687 287.1C264.687 285.64 265.187 284.42 266.167 283.44C267.167 282.46 268.407 281.96 269.867 281.96C271.327 281.96 272.567 282.46 273.547 283.44C274.547 284.42 275.047 285.64 275.047 287.1C275.047 288.56 274.547 289.78 273.567 290.76C272.587 291.74 271.347 292.22 269.867 292.22C268.387 292.22 267.147 291.74 266.167 290.76ZM268.227 285.32C267.807 285.78 267.587 286.38 267.587 287.1C267.587 287.82 267.807 288.42 268.227 288.88C268.647 289.34 269.207 289.58 269.867 289.58C270.527 289.58 271.087 289.34 271.507 288.88C271.927 288.42 272.147 287.82 272.147 287.1C272.147 286.38 271.927 285.78 271.507 285.32C271.087 284.86 270.527 284.62 269.867 284.62C269.207 284.62 268.647 284.86 268.227 285.32ZM277.415 290.58V283.62C277.415 282.68 278.035 282.1 278.835 282.1C279.495 282.1 279.935 282.4 280.155 282.98C280.735 282.3 281.515 281.96 282.535 281.96C284.955 281.96 286.515 283.56 286.515 286.3V290.58C286.515 291.52 285.915 292.1 285.095 292.1C284.275 292.1 283.675 291.52 283.675 290.58V286.52C283.675 285.4 283.155 284.6 282.055 284.6C280.855 284.6 280.255 285.44 280.255 287.1V290.58C280.375 292.58 277.295 292.58 277.415 290.58ZM289.712 282.98C290.572 282.3 291.712 281.96 293.092 281.96C294.312 281.96 295.312 282.32 296.092 283.02C296.872 283.72 297.252 284.66 297.252 285.88V290.58C297.252 291.52 296.632 292.1 295.832 292.1C295.172 292.1 294.732 291.8 294.512 291.2C293.832 291.88 292.992 292.22 292.012 292.22C291.032 292.22 290.252 291.94 289.632 291.38C289.012 290.8 288.712 290.08 288.712 289.2C288.712 288.18 289.072 287.42 289.812 286.9C290.552 286.38 291.492 286.1 292.592 286.06L294.392 285.98C294.392 284.98 293.892 284.48 292.892 284.48C292.292 284.48 291.752 284.64 291.252 284.98C290.512 285.48 289.792 285.42 289.372 284.86C288.912 284.32 289.052 283.52 289.712 282.98ZM291.572 289.04C291.572 289.52 291.992 289.82 292.712 289.82C293.292 289.82 293.852 289.62 294.392 289.22V288.06L293.132 288.16C292.092 288.22 291.572 288.5 291.572 289.04ZM303.107 279.42V290.58C303.227 292.58 300.147 292.58 300.267 290.58V279.42C300.147 277.42 303.227 277.42 303.107 279.42ZM306.848 291.7C306.208 291.04 306.208 289.92 306.848 289.26C307.508 288.6 308.628 288.6 309.288 289.26C309.988 289.92 309.988 291.04 309.288 291.7C308.628 292.36 307.508 292.36 306.848 291.7Z" fill="#930345"/>
</svg>
