<svg width="244" height="300" viewBox="0 0 244 300" fill="none" xmlns="http://www.w3.org/2000/svg">
<rect width="243.562" height="297.688" fill="#930345"/>
<path d="M39.0102 217.46H34.0302V221.52C34.0302 222.5 33.3902 223.1 32.5302 223.1C31.6702 223.1 31.0502 222.5 31.0502 221.52V210.9C31.0502 209.7 31.7502 209 32.9502 209H39.4502C40.3502 209 40.9102 209.58 40.9102 210.38C40.9102 211.16 40.3502 211.74 39.4502 211.74H34.0302V214.76H39.0102C39.8902 214.76 40.4502 215.34 40.4502 216.12C40.4502 216.86 39.8902 217.46 39.0102 217.46ZM43.208 213.98C44.068 213.3 45.208 212.96 46.588 212.96C47.808 212.96 48.808 213.32 49.588 214.02C50.368 214.72 50.748 215.66 50.748 216.88V221.58C50.748 222.52 50.128 223.1 49.328 223.1C48.668 223.1 48.228 222.8 48.008 222.2C47.328 222.88 46.488 223.22 45.508 223.22C44.528 223.22 43.748 222.94 43.128 222.38C42.508 221.8 42.208 221.08 42.208 220.2C42.208 219.18 42.568 218.42 43.308 217.9C44.048 217.38 44.988 217.1 46.088 217.06L47.888 216.98C47.888 215.98 47.388 215.48 46.388 215.48C45.788 215.48 45.248 215.64 44.748 215.98C44.008 216.48 43.288 216.42 42.868 215.86C42.408 215.32 42.548 214.52 43.208 213.98ZM45.068 220.04C45.068 220.52 45.488 220.82 46.208 220.82C46.788 220.82 47.348 220.62 47.888 220.22V219.06L46.628 219.16C45.588 219.22 45.068 219.5 45.068 220.04ZM53.7627 221.58V214.62C53.7627 213.68 54.3827 213.1 55.1827 213.1C55.8427 213.1 56.2827 213.4 56.5027 213.98C57.0827 213.3 57.9027 212.96 58.9227 212.96C60.0627 212.96 60.9627 213.36 61.6427 214.14C62.4227 213.36 63.4027 212.96 64.5827 212.96C67.2027 212.96 68.6827 214.52 68.6827 217.3V221.58C68.8027 223.58 65.7227 223.58 65.8427 221.58V217.42C65.8427 216.32 65.3227 215.6 64.3427 215.6C63.2827 215.6 62.6427 216.42 62.6427 217.78V221.58C62.7627 223.58 59.6827 223.58 59.8027 221.58V217.42C59.8027 216.32 59.2827 215.6 58.3027 215.6C57.1827 215.6 56.6027 216.46 56.6027 217.98V221.58C56.7227 223.58 53.6427 223.58 53.7627 221.58ZM71.4748 210.42C71.4748 209.48 72.2148 208.76 73.1148 208.76C74.0548 208.76 74.7748 209.48 74.7748 210.42C74.7748 211.32 74.0148 212.06 73.1148 212.06C72.2148 212.06 71.4748 211.32 71.4748 210.42ZM74.5348 221.58C74.5348 222.52 73.9348 223.1 73.1148 223.1C72.2948 223.1 71.6948 222.52 71.6948 221.58V214.62C71.6948 213.68 72.2948 213.1 73.1148 213.1C73.9348 213.1 74.5348 213.68 74.5348 214.62V221.58ZM80.6262 210.42V221.58C80.7462 223.58 77.6662 223.58 77.7862 221.58V210.42C77.6662 208.42 80.7462 208.42 80.6262 210.42ZM83.6427 210.42C83.6427 209.48 84.3827 208.76 85.2827 208.76C86.2227 208.76 86.9427 209.48 86.9427 210.42C86.9427 211.32 86.1827 212.06 85.2827 212.06C84.3827 212.06 83.6427 211.32 83.6427 210.42ZM86.7027 221.58C86.7027 222.52 86.1027 223.1 85.2827 223.1C84.4627 223.1 83.8627 222.52 83.8627 221.58V214.62C83.8627 213.68 84.4627 213.1 85.2827 213.1C86.1027 213.1 86.7027 213.68 86.7027 214.62V221.58ZM90.2393 213.98C91.0993 213.3 92.2393 212.96 93.6193 212.96C94.8393 212.96 95.8393 213.32 96.6193 214.02C97.3993 214.72 97.7793 215.66 97.7793 216.88V221.58C97.7793 222.52 97.1593 223.1 96.3593 223.1C95.6993 223.1 95.2593 222.8 95.0393 222.2C94.3593 222.88 93.5193 223.22 92.5393 223.22C91.5593 223.22 90.7793 222.94 90.1593 222.38C89.5393 221.8 89.2393 221.08 89.2393 220.2C89.2393 219.18 89.5993 218.42 90.3393 217.9C91.0793 217.38 92.0193 217.1 93.1193 217.06L94.9193 216.98C94.9193 215.98 94.4193 215.48 93.4193 215.48C92.8193 215.48 92.2793 215.64 91.7793 215.98C91.0393 216.48 90.3193 216.42 89.8993 215.86C89.4393 215.32 89.5793 214.52 90.2393 213.98ZM92.0993 220.04C92.0993 220.52 92.5193 220.82 93.2393 220.82C93.8193 220.82 94.3793 220.62 94.9193 220.22V219.06L93.6593 219.16C92.6193 219.22 92.0993 219.5 92.0993 220.04ZM100.819 222.14C100.159 221.56 100.079 220.8 100.579 220.24C101.119 219.64 101.739 219.62 102.459 220.2C102.999 220.62 103.719 220.84 104.599 220.84C105.219 220.84 105.699 220.62 105.699 220.24C105.699 219.92 105.479 219.76 104.819 219.58L103.719 219.26C101.539 218.64 100.519 217.64 100.519 216.06C100.519 215.12 100.879 214.38 101.619 213.82C102.359 213.24 103.259 212.96 104.319 212.96C105.459 212.96 106.419 213.2 107.219 213.7C107.939 214.18 108.119 214.9 107.739 215.52C107.319 216.16 106.639 216.34 105.859 215.88C105.339 215.54 104.779 215.38 104.199 215.38C103.639 215.38 103.279 215.6 103.279 215.92C103.279 216.22 103.499 216.34 103.979 216.48L105.239 216.82C107.239 217.38 108.459 218.24 108.459 220.06C108.459 221.92 106.859 223.22 104.359 223.22C102.859 223.22 101.679 222.86 100.819 222.14ZM122.301 213.14C122.941 213.3 123.421 213.8 123.421 214.54C123.421 215.32 122.881 215.86 122.181 215.86C122.041 215.86 121.741 215.82 121.561 215.82C120.201 215.82 119.161 216.92 119.161 218.9V221.58C119.281 223.58 116.201 223.58 116.321 221.58V214.62C116.321 213.68 116.941 213.1 117.741 213.1C118.481 213.1 119.021 213.58 119.121 214.28C119.681 213.5 120.641 213.06 121.501 213.06C121.841 213.06 122.101 213.08 122.301 213.14ZM133.718 217.26C133.718 218.3 133.198 218.82 132.138 218.82H127.118C127.278 219.88 128.098 220.62 129.318 220.62C129.998 220.62 130.578 220.42 131.078 220.02C131.858 219.46 132.578 219.64 133.078 220.3C133.538 220.86 133.398 221.66 132.658 222.24C131.798 222.9 130.698 223.22 129.398 223.22C127.898 223.22 126.678 222.76 125.698 221.84C124.718 220.9 124.238 219.68 124.238 218.16C124.238 216.66 124.678 215.42 125.578 214.44C126.478 213.46 127.638 212.96 129.058 212.96C130.038 212.96 130.898 213.2 131.638 213.66C133.138 214.6 133.718 215.92 133.718 217.26ZM129.118 215.46C128.098 215.46 127.438 216.06 127.258 216.92H130.778C130.718 216.1 130.058 215.46 129.118 215.46ZM142.403 216.12C141.943 215.78 141.463 215.6 140.963 215.6C139.543 215.6 138.583 216.64 138.583 218.1C138.583 219.56 139.543 220.6 140.963 220.6C141.503 220.6 142.043 220.38 142.583 219.96C143.363 219.4 144.083 219.58 144.583 220.24C145.043 220.8 144.903 221.6 144.163 222.18C143.243 222.88 142.143 223.22 140.863 223.22C139.383 223.22 138.143 222.74 137.163 221.76C136.183 220.78 135.683 219.56 135.683 218.1C135.683 216.64 136.183 215.42 137.163 214.44C138.163 213.46 139.403 212.96 140.863 212.96C142.003 212.96 143.003 213.26 143.843 213.88C144.583 214.46 144.783 215.3 144.363 215.86C143.903 216.5 143.183 216.66 142.403 216.12ZM147.276 210.42C147.276 209.48 148.016 208.76 148.916 208.76C149.856 208.76 150.576 209.48 150.576 210.42C150.576 211.32 149.816 212.06 148.916 212.06C148.016 212.06 147.276 211.32 147.276 210.42ZM150.336 221.58C150.336 222.52 149.736 223.1 148.916 223.1C148.096 223.1 147.496 222.52 147.496 221.58V214.62C147.496 213.68 148.096 213.1 148.916 213.1C149.736 213.1 150.336 213.68 150.336 214.62V221.58ZM153.587 221.58V210.42C153.467 208.42 156.547 208.42 156.427 210.42V213.82C157.087 213.24 157.927 212.96 158.947 212.96C160.327 212.96 161.487 213.44 162.427 214.4C163.367 215.34 163.847 216.58 163.847 218.1C163.847 219.64 163.367 220.88 162.427 221.82C161.487 222.76 160.327 223.22 158.947 223.22C157.887 223.22 156.827 222.8 156.327 222.18C156.127 222.8 155.687 223.1 155.007 223.1C154.207 223.1 153.587 222.52 153.587 221.58ZM157.027 216.26C156.607 216.74 156.387 217.36 156.387 218.1C156.387 218.84 156.607 219.46 157.027 219.94C157.467 220.42 158.007 220.66 158.667 220.66C159.327 220.66 159.867 220.42 160.287 219.94C160.727 219.46 160.947 218.84 160.947 218.1C160.947 217.36 160.727 216.74 160.287 216.26C159.867 215.78 159.327 215.54 158.667 215.54C158.007 215.54 157.467 215.78 157.027 216.26ZM166.084 210.42C166.084 209.48 166.824 208.76 167.724 208.76C168.664 208.76 169.384 209.48 169.384 210.42C169.384 211.32 168.624 212.06 167.724 212.06C166.824 212.06 166.084 211.32 166.084 210.42ZM169.144 221.58C169.144 222.52 168.544 223.1 167.724 223.1C166.904 223.1 166.304 222.52 166.304 221.58V214.62C166.304 213.68 166.904 213.1 167.724 213.1C168.544 213.1 169.144 213.68 169.144 214.62V221.58ZM181.101 217.26C181.101 218.3 180.581 218.82 179.521 218.82H174.501C174.661 219.88 175.481 220.62 176.701 220.62C177.381 220.62 177.961 220.42 178.461 220.02C179.241 219.46 179.961 219.64 180.461 220.3C180.921 220.86 180.781 221.66 180.041 222.24C179.181 222.9 178.081 223.22 176.781 223.22C175.281 223.22 174.061 222.76 173.081 221.84C172.101 220.9 171.621 219.68 171.621 218.16C171.621 216.66 172.061 215.42 172.961 214.44C173.861 213.46 175.021 212.96 176.441 212.96C177.421 212.96 178.281 213.2 179.021 213.66C180.521 214.6 181.101 215.92 181.101 217.26ZM176.501 215.46C175.481 215.46 174.821 216.06 174.641 216.92H178.161C178.101 216.1 177.441 215.46 176.501 215.46ZM189.508 213.14C190.148 213.3 190.628 213.8 190.628 214.54C190.628 215.32 190.088 215.86 189.388 215.86C189.248 215.86 188.948 215.82 188.768 215.82C187.408 215.82 186.368 216.92 186.368 218.9V221.58C186.488 223.58 183.408 223.58 183.528 221.58V214.62C183.528 213.68 184.148 213.1 184.948 213.1C185.688 213.1 186.228 213.58 186.328 214.28C186.888 213.5 187.848 213.06 188.708 213.06C189.048 213.06 189.308 213.08 189.508 213.14ZM192.925 221.76C191.945 220.78 191.445 219.56 191.445 218.1C191.445 216.64 191.945 215.42 192.925 214.44C193.925 213.46 195.165 212.96 196.625 212.96C198.085 212.96 199.325 213.46 200.305 214.44C201.305 215.42 201.805 216.64 201.805 218.1C201.805 219.56 201.305 220.78 200.325 221.76C199.345 222.74 198.105 223.22 196.625 223.22C195.145 223.22 193.905 222.74 192.925 221.76ZM194.985 216.32C194.565 216.78 194.345 217.38 194.345 218.1C194.345 218.82 194.565 219.42 194.985 219.88C195.405 220.34 195.965 220.58 196.625 220.58C197.285 220.58 197.845 220.34 198.265 219.88C198.685 219.42 198.905 218.82 198.905 218.1C198.905 217.38 198.685 216.78 198.265 216.32C197.845 215.86 197.285 215.62 196.625 215.62C195.965 215.62 195.405 215.86 194.985 216.32ZM204.173 221.58V214.62C204.173 213.68 204.793 213.1 205.593 213.1C206.253 213.1 206.693 213.4 206.913 213.98C207.493 213.3 208.273 212.96 209.293 212.96C211.713 212.96 213.273 214.56 213.273 217.3V221.58C213.273 222.52 212.673 223.1 211.853 223.1C211.033 223.1 210.433 222.52 210.433 221.58V217.52C210.433 216.4 209.913 215.6 208.813 215.6C207.613 215.6 207.013 216.44 207.013 218.1V221.58C207.133 223.58 204.053 223.58 204.173 221.58ZM41.587 237.98C42.447 237.3 43.587 236.96 44.967 236.96C46.187 236.96 47.187 237.32 47.967 238.02C48.747 238.72 49.127 239.66 49.127 240.88V245.58C49.127 246.52 48.507 247.1 47.707 247.1C47.047 247.1 46.607 246.8 46.387 246.2C45.707 246.88 44.867 247.22 43.887 247.22C42.907 247.22 42.127 246.94 41.507 246.38C40.887 245.8 40.587 245.08 40.587 244.2C40.587 243.18 40.947 242.42 41.687 241.9C42.427 241.38 43.367 241.1 44.467 241.06L46.267 240.98C46.267 239.98 45.767 239.48 44.767 239.48C44.167 239.48 43.627 239.64 43.127 239.98C42.387 240.48 41.667 240.42 41.247 239.86C40.787 239.32 40.927 238.52 41.587 237.98ZM43.447 244.04C43.447 244.52 43.867 244.82 44.587 244.82C45.167 244.82 45.727 244.62 46.267 244.22V243.06L45.007 243.16C43.967 243.22 43.447 243.5 43.447 244.04ZM58.0668 240.12C57.6068 239.78 57.1268 239.6 56.6268 239.6C55.2068 239.6 54.2468 240.64 54.2468 242.1C54.2468 243.56 55.2068 244.6 56.6268 244.6C57.1668 244.6 57.7068 244.38 58.2468 243.96C59.0268 243.4 59.7468 243.58 60.2468 244.24C60.7068 244.8 60.5668 245.6 59.8268 246.18C58.9068 246.88 57.8068 247.22 56.5268 247.22C55.0468 247.22 53.8068 246.74 52.8268 245.76C51.8468 244.78 51.3468 243.56 51.3468 242.1C51.3468 240.64 51.8468 239.42 52.8268 238.44C53.8268 237.46 55.0668 236.96 56.5268 236.96C57.6668 236.96 58.6668 237.26 59.5068 237.88C60.2468 238.46 60.4468 239.3 60.0268 239.86C59.5668 240.5 58.8468 240.66 58.0668 240.12ZM63.6476 245.76C62.6676 244.78 62.1676 243.56 62.1676 242.1C62.1676 240.64 62.6676 239.42 63.6476 238.44C64.6476 237.46 65.8876 236.96 67.3476 236.96C68.8076 236.96 70.0476 237.46 71.0276 238.44C72.0276 239.42 72.5276 240.64 72.5276 242.1C72.5276 243.56 72.0276 244.78 71.0476 245.76C70.0676 246.74 68.8276 247.22 67.3476 247.22C65.8676 247.22 64.6276 246.74 63.6476 245.76ZM65.7076 240.32C65.2876 240.78 65.0676 241.38 65.0676 242.1C65.0676 242.82 65.2876 243.42 65.7076 243.88C66.1276 244.34 66.6876 244.58 67.3476 244.58C68.0076 244.58 68.5676 244.34 68.9876 243.88C69.4076 243.42 69.6276 242.82 69.6276 242.1C69.6276 241.38 69.4076 240.78 68.9876 240.32C68.5676 239.86 68.0076 239.62 67.3476 239.62C66.6876 239.62 66.1276 239.86 65.7076 240.32ZM74.8955 245.58V238.62C74.8955 237.68 75.5155 237.1 76.3155 237.1C76.9755 237.1 77.4155 237.4 77.6355 237.98C78.2155 237.3 79.0355 236.96 80.0555 236.96C81.1955 236.96 82.0955 237.36 82.7755 238.14C83.5555 237.36 84.5355 236.96 85.7155 236.96C88.3355 236.96 89.8155 238.52 89.8155 241.3V245.58C89.9355 247.58 86.8555 247.58 86.9755 245.58V241.42C86.9755 240.32 86.4555 239.6 85.4755 239.6C84.4155 239.6 83.7755 240.42 83.7755 241.78V245.58C83.8955 247.58 80.8155 247.58 80.9355 245.58V241.42C80.9355 240.32 80.4155 239.6 79.4355 239.6C78.3155 239.6 77.7355 240.46 77.7355 241.98V245.58C77.8555 247.58 74.7755 247.58 74.8955 245.58ZM92.7276 249.46V238.6C92.7276 237.64 93.3476 237.08 94.1476 237.08C94.8276 237.08 95.2676 237.38 95.4676 238C95.9676 237.38 97.0276 236.96 98.0876 236.96C99.4676 236.96 100.628 237.44 101.568 238.38C102.508 239.32 102.988 240.56 102.988 242.1C102.988 243.62 102.508 244.86 101.568 245.8C100.628 246.74 99.4676 247.22 98.0876 247.22C97.0676 247.22 96.2276 246.94 95.5676 246.36V249.46C95.6876 251.46 92.6076 251.46 92.7276 249.46ZM96.1676 240.26C95.7476 240.74 95.5276 241.36 95.5276 242.1C95.5276 242.84 95.7476 243.46 96.1676 243.94C96.6076 244.42 97.1476 244.66 97.8076 244.66C98.4676 244.66 99.0076 244.42 99.4276 243.94C99.8676 243.46 100.088 242.84 100.088 242.1C100.088 241.36 99.8676 240.74 99.4276 240.26C99.0076 239.78 98.4676 239.54 97.8076 239.54C97.1476 239.54 96.6076 239.78 96.1676 240.26ZM105.825 237.98C106.685 237.3 107.825 236.96 109.205 236.96C110.425 236.96 111.425 237.32 112.205 238.02C112.985 238.72 113.365 239.66 113.365 240.88V245.58C113.365 246.52 112.745 247.1 111.945 247.1C111.285 247.1 110.845 246.8 110.625 246.2C109.945 246.88 109.105 247.22 108.125 247.22C107.145 247.22 106.365 246.94 105.745 246.38C105.125 245.8 104.825 245.08 104.825 244.2C104.825 243.18 105.185 242.42 105.925 241.9C106.665 241.38 107.605 241.1 108.705 241.06L110.505 240.98C110.505 239.98 110.005 239.48 109.005 239.48C108.405 239.48 107.865 239.64 107.365 239.98C106.625 240.48 105.905 240.42 105.485 239.86C105.025 239.32 105.165 238.52 105.825 237.98ZM107.685 244.04C107.685 244.52 108.105 244.82 108.825 244.82C109.405 244.82 109.965 244.62 110.505 244.22V243.06L109.245 243.16C108.205 243.22 107.685 243.5 107.685 244.04ZM116.165 238.62C116.165 237.68 116.785 237.1 117.585 237.1C118.245 237.1 118.685 237.4 118.905 237.98C119.485 237.3 120.265 236.96 121.285 236.96C123.705 236.96 125.265 238.56 125.265 241.3V245.58C125.265 246.52 124.665 247.1 123.845 247.1C123.025 247.1 122.425 246.52 122.425 245.58V241.52C122.425 240.4 121.905 239.6 120.805 239.6C119.605 239.6 119.005 240.44 119.005 242.1V245.58C119.125 247.58 116.045 247.58 116.165 245.58V238.62ZM120.125 233.12L120.945 233.38C121.205 233.46 121.405 233.5 121.545 233.5C121.745 233.5 121.905 233.4 122.045 233.22C122.225 232.98 122.505 232.86 122.865 232.86C123.505 232.86 123.805 233.26 123.805 233.88C123.805 234.68 123.025 235.48 121.965 235.48C121.865 235.48 121.585 235.42 121.105 235.32L120.285 235.06C120.025 234.98 119.825 234.94 119.685 234.94C119.485 234.94 119.325 235.04 119.185 235.22C119.005 235.46 118.725 235.58 118.365 235.58C117.725 235.58 117.425 235.18 117.425 234.56C117.425 233.76 118.205 232.96 119.265 232.96C119.365 232.96 119.645 233.02 120.125 233.12ZM128.462 237.98C129.322 237.3 130.462 236.96 131.842 236.96C133.062 236.96 134.062 237.32 134.842 238.02C135.622 238.72 136.002 239.66 136.002 240.88V245.58C136.002 246.52 135.382 247.1 134.582 247.1C133.922 247.1 133.482 246.8 133.262 246.2C132.582 246.88 131.742 247.22 130.762 247.22C129.782 247.22 129.002 246.94 128.382 246.38C127.762 245.8 127.462 245.08 127.462 244.2C127.462 243.18 127.822 242.42 128.562 241.9C129.302 241.38 130.242 241.1 131.342 241.06L133.142 240.98C133.142 239.98 132.642 239.48 131.642 239.48C131.042 239.48 130.502 239.64 130.002 239.98C129.262 240.48 128.542 240.42 128.122 239.86C127.662 239.32 127.802 238.52 128.462 237.98ZM130.322 244.04C130.322 244.52 130.742 244.82 131.462 244.82C132.042 244.82 132.602 244.62 133.142 244.22V243.06L131.882 243.16C130.842 243.22 130.322 243.5 130.322 244.04ZM139.017 245.58V238.62C139.017 237.68 139.637 237.1 140.437 237.1C141.097 237.1 141.537 237.4 141.757 237.98C142.337 237.3 143.157 236.96 144.177 236.96C145.317 236.96 146.217 237.36 146.897 238.14C147.677 237.36 148.657 236.96 149.837 236.96C152.457 236.96 153.937 238.52 153.937 241.3V245.58C154.057 247.58 150.977 247.58 151.097 245.58V241.42C151.097 240.32 150.577 239.6 149.597 239.6C148.537 239.6 147.897 240.42 147.897 241.78V245.58C148.017 247.58 144.937 247.58 145.057 245.58V241.42C145.057 240.32 144.537 239.6 143.557 239.6C142.437 239.6 141.857 240.46 141.857 241.98V245.58C141.977 247.58 138.897 247.58 139.017 245.58ZM156.729 234.42C156.729 233.48 157.469 232.76 158.369 232.76C159.309 232.76 160.029 233.48 160.029 234.42C160.029 235.32 159.269 236.06 158.369 236.06C157.469 236.06 156.729 235.32 156.729 234.42ZM159.789 245.58C159.789 246.52 159.189 247.1 158.369 247.1C157.549 247.1 156.949 246.52 156.949 245.58V238.62C156.949 237.68 157.549 237.1 158.369 237.1C159.189 237.1 159.789 237.68 159.789 238.62V245.58ZM171.745 241.26C171.745 242.3 171.225 242.82 170.165 242.82H165.145C165.305 243.88 166.125 244.62 167.345 244.62C168.025 244.62 168.605 244.42 169.105 244.02C169.885 243.46 170.605 243.64 171.105 244.3C171.565 244.86 171.425 245.66 170.685 246.24C169.825 246.9 168.725 247.22 167.425 247.22C165.925 247.22 164.705 246.76 163.725 245.84C162.745 244.9 162.265 243.68 162.265 242.16C162.265 240.66 162.705 239.42 163.605 238.44C164.505 237.46 165.665 236.96 167.085 236.96C168.065 236.96 168.925 237.2 169.665 237.66C171.165 238.6 171.745 239.92 171.745 241.26ZM167.145 239.46C166.125 239.46 165.465 240.06 165.285 240.92H168.805C168.745 240.1 168.085 239.46 167.145 239.46ZM174.173 245.58V238.62C174.173 237.68 174.793 237.1 175.593 237.1C176.253 237.1 176.693 237.4 176.913 237.98C177.493 237.3 178.273 236.96 179.293 236.96C181.713 236.96 183.273 238.56 183.273 241.3V245.58C183.273 246.52 182.673 247.1 181.853 247.1C181.033 247.1 180.433 246.52 180.433 245.58V241.52C180.433 240.4 179.913 239.6 178.813 239.6C177.613 239.6 177.013 240.44 177.013 242.1V245.58C177.133 247.58 174.053 247.58 174.173 245.58ZM190.033 244.4C190.933 244.5 191.413 245 191.413 245.74C191.413 246.48 190.873 247.04 189.893 247.04H189.633C187.353 247.04 186.213 245.88 186.213 243.54V239.82H185.853C184.973 239.82 184.433 239.26 184.433 238.52C184.433 237.78 184.973 237.2 185.853 237.2H186.213V235.88C186.093 233.88 189.173 233.88 189.033 235.88V237.2H189.993C190.873 237.2 191.413 237.78 191.413 238.52C191.413 239.26 190.873 239.82 189.993 239.82H189.033V243.2C189.033 244.02 189.373 244.34 190.033 244.4ZM194.585 245.76C193.605 244.78 193.105 243.56 193.105 242.1C193.105 240.64 193.605 239.42 194.585 238.44C195.585 237.46 196.825 236.96 198.285 236.96C199.745 236.96 200.985 237.46 201.965 238.44C202.965 239.42 203.465 240.64 203.465 242.1C203.465 243.56 202.965 244.78 201.985 245.76C201.005 246.74 199.765 247.22 198.285 247.22C196.805 247.22 195.565 246.74 194.585 245.76ZM196.645 240.32C196.225 240.78 196.005 241.38 196.005 242.1C196.005 242.82 196.225 243.42 196.645 243.88C197.065 244.34 197.625 244.58 198.285 244.58C198.945 244.58 199.505 244.34 199.925 243.88C200.345 243.42 200.565 242.82 200.565 242.1C200.565 241.38 200.345 240.78 199.925 240.32C199.505 239.86 198.945 239.62 198.285 239.62C197.625 239.62 197.065 239.86 196.645 240.32ZM64.544 273.46V262.6C64.544 261.64 65.164 261.08 65.964 261.08C66.644 261.08 67.084 261.38 67.284 262C67.784 261.38 68.844 260.96 69.904 260.96C71.284 260.96 72.444 261.44 73.384 262.38C74.324 263.32 74.804 264.56 74.804 266.1C74.804 267.62 74.324 268.86 73.384 269.8C72.444 270.74 71.284 271.22 69.904 271.22C68.884 271.22 68.044 270.94 67.384 270.36V273.46C67.504 275.46 64.424 275.46 64.544 273.46ZM67.984 264.26C67.564 264.74 67.344 265.36 67.344 266.1C67.344 266.84 67.564 267.46 67.984 267.94C68.424 268.42 68.964 268.66 69.624 268.66C70.284 268.66 70.824 268.42 71.244 267.94C71.684 267.46 71.904 266.84 71.904 266.1C71.904 265.36 71.684 264.74 71.244 264.26C70.824 263.78 70.284 263.54 69.624 263.54C68.964 263.54 68.424 263.78 67.984 264.26ZM77.3816 270.14C76.7216 269.56 76.6416 268.8 77.1416 268.24C77.6816 267.64 78.3016 267.62 79.0216 268.2C79.5616 268.62 80.2816 268.84 81.1616 268.84C81.7816 268.84 82.2616 268.62 82.2616 268.24C82.2616 267.92 82.0416 267.76 81.3816 267.58L80.2816 267.26C78.1016 266.64 77.0816 265.64 77.0816 264.06C77.0816 263.12 77.4416 262.38 78.1816 261.82C78.9216 261.24 79.8216 260.96 80.8816 260.96C82.0216 260.96 82.9816 261.2 83.7816 261.7C84.5016 262.18 84.6816 262.9 84.3016 263.52C83.8816 264.16 83.2016 264.34 82.4216 263.88C81.9016 263.54 81.3416 263.38 80.7616 263.38C80.2016 263.38 79.8416 263.6 79.8416 263.92C79.8416 264.22 80.0616 264.34 80.5416 264.48L81.8016 264.82C83.8016 265.38 85.0216 266.24 85.0216 268.06C85.0216 269.92 83.4216 271.22 80.9216 271.22C79.4216 271.22 78.2416 270.86 77.3816 270.14ZM87.1779 258.42C87.1779 257.48 87.9179 256.76 88.8179 256.76C89.7579 256.76 90.4779 257.48 90.4779 258.42C90.4779 259.32 89.7179 260.06 88.8179 260.06C87.9179 260.06 87.1779 259.32 87.1779 258.42ZM90.2379 269.58C90.2379 270.52 89.6379 271.1 88.8179 271.1C87.9979 271.1 87.3979 270.52 87.3979 269.58V262.62C87.3979 261.68 87.9979 261.1 88.8179 261.1C89.6379 261.1 90.2379 261.68 90.2379 262.62V269.58ZM99.4145 264.12C98.9545 263.78 98.4745 263.6 97.9745 263.6C96.5545 263.6 95.5945 264.64 95.5945 266.1C95.5945 267.56 96.5545 268.6 97.9745 268.6C98.5145 268.6 99.0545 268.38 99.5945 267.96C100.374 267.4 101.094 267.58 101.594 268.24C102.054 268.8 101.914 269.6 101.174 270.18C100.254 270.88 99.1545 271.22 97.8745 271.22C96.3945 271.22 95.1545 270.74 94.1745 269.76C93.1945 268.78 92.6945 267.56 92.6945 266.1C92.6945 264.64 93.1945 263.42 94.1745 262.44C95.1745 261.46 96.4145 260.96 97.8745 260.96C99.0145 260.96 100.014 261.26 100.854 261.88C101.594 262.46 101.794 263.3 101.374 263.86C100.914 264.5 100.194 264.66 99.4145 264.12ZM104.995 269.76C104.015 268.78 103.515 267.56 103.515 266.1C103.515 264.64 104.015 263.42 104.995 262.44C105.995 261.46 107.235 260.96 108.695 260.96C110.155 260.96 111.395 261.46 112.375 262.44C113.375 263.42 113.875 264.64 113.875 266.1C113.875 267.56 113.375 268.78 112.395 269.76C111.415 270.74 110.175 271.22 108.695 271.22C107.215 271.22 105.975 270.74 104.995 269.76ZM107.055 264.32C106.635 264.78 106.415 265.38 106.415 266.1C106.415 266.82 106.635 267.42 107.055 267.88C107.475 268.34 108.035 268.58 108.695 268.58C109.355 268.58 109.915 268.34 110.335 267.88C110.755 267.42 110.975 266.82 110.975 266.1C110.975 265.38 110.755 264.78 110.335 264.32C109.915 263.86 109.355 263.62 108.695 263.62C108.035 263.62 107.475 263.86 107.055 264.32ZM119.083 258.42V269.58C119.203 271.58 116.123 271.58 116.243 269.58V258.42C116.123 256.42 119.203 256.42 119.083 258.42ZM122.925 269.76C121.945 268.78 121.445 267.56 121.445 266.1C121.445 264.64 121.945 263.42 122.925 262.44C123.925 261.46 125.165 260.96 126.625 260.96C128.085 260.96 129.325 261.46 130.305 262.44C131.305 263.42 131.805 264.64 131.805 266.1C131.805 267.56 131.305 268.78 130.325 269.76C129.345 270.74 128.105 271.22 126.625 271.22C125.145 271.22 123.905 270.74 122.925 269.76ZM124.985 264.32C124.565 264.78 124.345 265.38 124.345 266.1C124.345 266.82 124.565 267.42 124.985 267.88C125.405 268.34 125.965 268.58 126.625 268.58C127.285 268.58 127.845 268.34 128.265 267.88C128.685 267.42 128.905 266.82 128.905 266.1C128.905 265.38 128.685 264.78 128.265 264.32C127.845 263.86 127.285 263.62 126.625 263.62C125.965 263.62 125.405 263.86 124.985 264.32ZM127.805 258.9L126.085 259.7C125.705 259.88 125.345 259.86 124.985 259.64C124.445 259.3 124.305 258.54 124.645 258.04C124.745 257.88 124.885 257.76 125.045 257.66L126.745 256.54C127.205 256.24 127.685 256.26 128.185 256.56C128.765 256.94 128.945 257.76 128.545 258.38C128.365 258.62 128.105 258.8 127.805 258.9ZM140.95 265.88C140.95 264.5 139.99 263.54 138.77 263.54C137.57 263.54 136.61 264.5 136.61 265.88C136.61 267.24 137.57 268.2 138.77 268.2C139.99 268.2 140.95 267.24 140.95 265.88ZM134.89 274.02C134.15 273.46 134.15 272.54 134.69 271.98C135.19 271.44 135.87 271.42 136.73 271.96C137.31 272.3 137.87 272.48 138.43 272.48C139.93 272.48 140.89 271.6 140.89 270.3V270.04C140.33 270.54 139.53 270.78 138.51 270.78C137.11 270.78 135.95 270.34 135.05 269.46C134.15 268.58 133.71 267.38 133.71 265.88C133.71 264.36 134.17 263.16 135.11 262.28C136.05 261.4 137.17 260.96 138.51 260.96C139.55 260.96 140.39 261.3 141.01 262C141.21 261.38 141.65 261.08 142.33 261.08C143.15 261.08 143.75 261.64 143.75 262.6V269.98C143.75 271.5 143.27 272.74 142.33 273.68C141.39 274.62 140.11 275.1 138.45 275.1C137.05 275.1 135.87 274.74 134.89 274.02ZM146.748 258.42C146.748 257.48 147.488 256.76 148.388 256.76C149.328 256.76 150.048 257.48 150.048 258.42C150.048 259.32 149.288 260.06 148.388 260.06C147.488 260.06 146.748 259.32 146.748 258.42ZM149.808 269.58C149.808 270.52 149.208 271.1 148.388 271.1C147.568 271.1 146.968 270.52 146.968 269.58V262.62C146.968 261.68 147.568 261.1 148.388 261.1C149.208 261.1 149.808 261.68 149.808 262.62V269.58ZM158.985 264.12C158.525 263.78 158.045 263.6 157.545 263.6C156.125 263.6 155.165 264.64 155.165 266.1C155.165 267.56 156.125 268.6 157.545 268.6C158.085 268.6 158.625 268.38 159.165 267.96C159.945 267.4 160.665 267.58 161.165 268.24C161.625 268.8 161.485 269.6 160.745 270.18C159.825 270.88 158.725 271.22 157.445 271.22C155.965 271.22 154.725 270.74 153.745 269.76C152.765 268.78 152.265 267.56 152.265 266.1C152.265 264.64 152.765 263.42 153.745 262.44C154.745 261.46 155.985 260.96 157.445 260.96C158.585 260.96 159.585 261.26 160.425 261.88C161.165 262.46 161.365 263.3 160.945 263.86C160.485 264.5 159.765 264.66 158.985 264.12ZM164.566 269.76C163.586 268.78 163.086 267.56 163.086 266.1C163.086 264.64 163.586 263.42 164.566 262.44C165.566 261.46 166.806 260.96 168.266 260.96C169.726 260.96 170.966 261.46 171.946 262.44C172.946 263.42 173.446 264.64 173.446 266.1C173.446 267.56 172.946 268.78 171.966 269.76C170.986 270.74 169.746 271.22 168.266 271.22C166.786 271.22 165.546 270.74 164.566 269.76ZM166.626 264.32C166.206 264.78 165.986 265.38 165.986 266.1C165.986 266.82 166.206 267.42 166.626 267.88C167.046 268.34 167.606 268.58 168.266 268.58C168.926 268.58 169.486 268.34 169.906 267.88C170.326 267.42 170.546 266.82 170.546 266.1C170.546 265.38 170.326 264.78 169.906 264.32C169.486 263.86 168.926 263.62 168.266 263.62C167.606 263.62 167.046 263.86 166.626 264.32ZM176.165 270.7C175.525 270.04 175.525 268.92 176.165 268.26C176.825 267.6 177.945 267.6 178.605 268.26C179.305 268.92 179.305 270.04 178.605 270.7C177.945 271.36 176.825 271.36 176.165 270.7Z" fill="#F9D332"/>
<circle cx="121.5" cy="91.5" r="78" fill="#F9D332" stroke="#930345" stroke-width="9"/>
<path d="M79.2643 90.464V94.08H83.1042C84.5443 94.08 85.3443 94.944 85.3443 96.128C85.3443 97.376 84.5443 98.176 83.1042 98.176H79.2643V101.856C79.2643 103.296 78.4003 104.16 77.1523 104.16C75.9683 104.16 75.0403 103.264 75.0403 101.856V98.176H71.2643C69.8563 98.176 69.0243 97.376 69.0243 96.128C69.0243 94.976 69.8563 94.08 71.2643 94.08H75.0403V90.464C75.0403 88.96 75.9683 88.16 77.1523 88.16C78.4003 88.16 79.2643 88.96 79.2643 90.464ZM90.2045 84.736L94.3005 82.24C95.1965 81.696 95.9645 81.44 96.6365 81.44C98.1405 81.44 99.1645 82.496 99.1645 84.288V99.616H102.237C103.677 99.616 104.605 100.544 104.605 101.824C104.605 103.072 103.708 104 102.269 104H90.6525C89.2125 104 88.3165 103.072 88.3165 101.824C88.3165 100.544 89.2125 99.616 90.6525 99.616H94.4285V87.456L92.1885 88.768C91.2605 89.248 90.4285 89.312 89.6925 88.896C88.9885 88.48 88.6365 87.904 88.6365 87.104C88.6365 86.176 89.1485 85.376 90.2045 84.736ZM112.216 88.896C112.216 90.848 113.656 92.224 115.576 92.224C117.496 92.224 118.936 90.848 118.936 88.896C118.936 86.976 117.496 85.568 115.576 85.568C113.656 85.568 112.216 86.976 112.216 88.896ZM112.28 99.136C113.176 99.712 114.168 100 115.256 100C116.6 100 117.752 99.488 118.68 98.464C119.608 97.408 120.088 96.064 120.12 94.4C118.936 95.776 117.304 96.448 115.256 96.448C113.112 96.448 111.288 95.744 109.752 94.336C108.248 92.928 107.48 91.104 107.48 88.864C107.48 86.56 108.28 84.704 109.848 83.328C111.448 81.92 113.368 81.216 115.608 81.216C118.392 81.216 120.6 82.272 122.2 84.384C123.832 86.464 124.632 89.344 124.632 92.992C124.632 96.416 123.767 99.168 122.04 101.248C120.344 103.328 118.008 104.352 115.064 104.352C113.304 104.352 111.608 103.872 110.04 102.944C108.728 102.176 108.408 100.832 109.048 99.776C109.688 98.656 110.968 98.368 112.28 99.136ZM140.354 98.08C141.09 96.768 141.442 95.008 141.442 92.768C141.442 90.528 141.09 88.768 140.354 87.488C139.65 86.208 138.626 85.568 137.282 85.568C135.938 85.568 134.914 86.208 134.178 87.488C133.474 88.768 133.122 90.528 133.122 92.768C133.122 95.008 133.474 96.768 134.178 98.08C134.914 99.36 135.938 100 137.282 100C138.626 100 139.65 99.36 140.354 98.08ZM146.178 92.768C146.178 96.224 145.378 99.008 143.81 101.152C142.242 103.296 140.066 104.352 137.282 104.352C134.498 104.352 132.322 103.296 130.754 101.152C129.186 99.008 128.386 96.224 128.386 92.768C128.386 89.312 129.186 86.528 130.754 84.416C132.322 82.272 134.498 81.216 137.282 81.216C140.066 81.216 142.242 82.272 143.81 84.416C145.378 86.56 146.178 89.344 146.178 92.768ZM161.729 98.08C162.465 96.768 162.817 95.008 162.817 92.768C162.817 90.528 162.465 88.768 161.729 87.488C161.025 86.208 160.001 85.568 158.657 85.568C157.313 85.568 156.289 86.208 155.553 87.488C154.849 88.768 154.497 90.528 154.497 92.768C154.497 95.008 154.849 96.768 155.553 98.08C156.289 99.36 157.313 100 158.657 100C160.001 100 161.025 99.36 161.729 98.08ZM167.553 92.768C167.553 96.224 166.753 99.008 165.185 101.152C163.617 103.296 161.441 104.352 158.657 104.352C155.873 104.352 153.697 103.296 152.129 101.152C150.561 99.008 149.761 96.224 149.761 92.768C149.761 89.312 150.561 86.528 152.129 84.416C153.697 82.272 155.873 81.216 158.657 81.216C161.441 81.216 163.617 82.272 165.185 84.416C166.753 86.56 167.553 89.344 167.553 92.768Z" fill="#930345"/>
</svg>
