<svg width="245" height="298" viewBox="0 0 245 298" fill="none" xmlns="http://www.w3.org/2000/svg">
<rect width="244.793" height="297.688" fill="#F9D332"/>
<path d="M61.1968 228.8L56.2368 220.54V228.52C56.2368 229.5 55.6168 230.1 54.7568 230.1C53.8968 230.1 53.2768 229.5 53.2768 228.52V218.18C53.2768 216.72 54.0968 215.88 55.4568 215.88C56.4768 215.88 57.0168 216.3 57.5568 217.18L62.5168 225.44V217.46C62.5168 216.48 63.1368 215.88 63.9968 215.88C64.8568 215.88 65.4768 216.48 65.4768 217.46V227.8C65.4768 229.26 64.6568 230.1 63.2968 230.1C62.2768 230.1 61.7368 229.68 61.1968 228.8ZM68.3888 217.42C68.3888 216.48 69.1288 215.76 70.0288 215.76C70.9688 215.76 71.6888 216.48 71.6888 217.42C71.6888 218.32 70.9288 219.06 70.0288 219.06C69.1288 219.06 68.3888 218.32 68.3888 217.42ZM71.4488 228.58C71.4488 229.52 70.8488 230.1 70.0288 230.1C69.2088 230.1 68.6088 229.52 68.6088 228.58V221.62C68.6088 220.68 69.2088 220.1 70.0288 220.1C70.8488 220.1 71.4488 220.68 71.4488 221.62V228.58ZM74.4854 221.62C74.4854 220.68 75.1054 220.1 75.9054 220.1C76.5654 220.1 77.0054 220.4 77.2254 220.98C77.8054 220.3 78.5854 219.96 79.6054 219.96C82.0254 219.96 83.5854 221.56 83.5854 224.3V228.58C83.5854 229.52 82.9854 230.1 82.1654 230.1C81.3454 230.1 80.7454 229.52 80.7454 228.58V224.52C80.7454 223.4 80.2254 222.6 79.1254 222.6C77.9254 222.6 77.3254 223.44 77.3254 225.1V228.58C77.4454 230.58 74.3654 230.58 74.4854 228.58V221.62ZM78.4454 216.12L79.2654 216.38C79.5254 216.46 79.7254 216.5 79.8654 216.5C80.0654 216.5 80.2254 216.4 80.3654 216.22C80.5454 215.98 80.8254 215.86 81.1854 215.86C81.8254 215.86 82.1254 216.26 82.1254 216.88C82.1254 217.68 81.3454 218.48 80.2854 218.48C80.1854 218.48 79.9054 218.42 79.4254 218.32L78.6054 218.06C78.3454 217.98 78.1454 217.94 78.0054 217.94C77.8054 217.94 77.6454 218.04 77.5054 218.22C77.3254 218.46 77.0454 218.58 76.6854 218.58C76.0454 218.58 75.7454 218.18 75.7454 217.56C75.7454 216.76 76.5254 215.96 77.5854 215.96C77.6854 215.96 77.9654 216.02 78.4454 216.12ZM87.2023 228.76C86.2223 227.78 85.7223 226.56 85.7223 225.1C85.7223 223.64 86.2223 222.42 87.2023 221.44C88.2023 220.46 89.4423 219.96 90.9023 219.96C92.3623 219.96 93.6023 220.46 94.5823 221.44C95.5823 222.42 96.0823 223.64 96.0823 225.1C96.0823 226.56 95.5823 227.78 94.6023 228.76C93.6223 229.74 92.3823 230.22 90.9023 230.22C89.4223 230.22 88.1823 229.74 87.2023 228.76ZM89.2623 223.32C88.8423 223.78 88.6223 224.38 88.6223 225.1C88.6223 225.82 88.8423 226.42 89.2623 226.88C89.6823 227.34 90.2423 227.58 90.9023 227.58C91.5623 227.58 92.1223 227.34 92.5423 226.88C92.9623 226.42 93.1823 225.82 93.1823 225.1C93.1823 224.38 92.9623 223.78 92.5423 223.32C92.1223 222.86 91.5623 222.62 90.9023 222.62C90.2423 222.62 89.6823 222.86 89.2623 223.32ZM98.6902 229.14C98.0302 228.56 97.9502 227.8 98.4502 227.24C98.9902 226.64 99.6102 226.62 100.33 227.2C100.87 227.62 101.59 227.84 102.47 227.84C103.09 227.84 103.57 227.62 103.57 227.24C103.57 226.92 103.35 226.76 102.69 226.58L101.59 226.26C99.4102 225.64 98.3902 224.64 98.3902 223.06C98.3902 222.12 98.7502 221.38 99.4902 220.82C100.23 220.24 101.13 219.96 102.19 219.96C103.33 219.96 104.29 220.2 105.09 220.7C105.81 221.18 105.99 221.9 105.61 222.52C105.19 223.16 104.51 223.34 103.73 222.88C103.21 222.54 102.65 222.38 102.07 222.38C101.51 222.38 101.15 222.6 101.15 222.92C101.15 223.22 101.37 223.34 101.85 223.48L103.11 223.82C105.11 224.38 106.33 225.24 106.33 227.06C106.33 228.92 104.73 230.22 102.23 230.22C100.73 230.22 99.5502 229.86 98.6902 229.14ZM111.554 229.44L110.214 232.3C109.914 232.94 109.334 233.2 108.714 233.04C107.994 232.82 107.574 232.16 107.874 231.38L108.954 228.44C109.274 227.56 109.994 227.2 110.814 227.46C111.594 227.7 111.934 228.58 111.554 229.44ZM120.462 228.58V221.62C120.462 220.68 121.082 220.1 121.882 220.1C122.542 220.1 122.982 220.4 123.202 220.98C123.782 220.3 124.562 219.96 125.582 219.96C128.002 219.96 129.562 221.56 129.562 224.3V228.58C129.562 229.52 128.962 230.1 128.142 230.1C127.322 230.1 126.722 229.52 126.722 228.58V224.52C126.722 223.4 126.202 222.6 125.102 222.6C123.902 222.6 123.302 223.44 123.302 225.1V228.58C123.422 230.58 120.342 230.58 120.462 228.58ZM132.354 217.42C132.354 216.48 133.094 215.76 133.994 215.76C134.934 215.76 135.654 216.48 135.654 217.42C135.654 218.32 134.894 219.06 133.994 219.06C133.094 219.06 132.354 218.32 132.354 217.42ZM135.414 228.58C135.414 229.52 134.814 230.1 133.994 230.1C133.174 230.1 132.574 229.52 132.574 228.58V221.62C132.574 220.68 133.174 220.1 133.994 220.1C134.814 220.1 135.414 220.68 135.414 221.62V228.58ZM138.45 221.62C138.45 220.68 139.07 220.1 139.87 220.1C140.53 220.1 140.97 220.4 141.19 220.98C141.77 220.3 142.55 219.96 143.57 219.96C145.99 219.96 147.55 221.56 147.55 224.3V228.58C147.55 229.52 146.95 230.1 146.13 230.1C145.31 230.1 144.71 229.52 144.71 228.58V224.52C144.71 223.4 144.19 222.6 143.09 222.6C141.89 222.6 141.29 223.44 141.29 225.1V228.58C141.41 230.58 138.33 230.58 138.45 228.58V221.62ZM142.41 216.12L143.23 216.38C143.49 216.46 143.69 216.5 143.83 216.5C144.03 216.5 144.19 216.4 144.33 216.22C144.51 215.98 144.79 215.86 145.15 215.86C145.79 215.86 146.09 216.26 146.09 216.88C146.09 217.68 145.31 218.48 144.25 218.48C144.15 218.48 143.87 218.42 143.39 218.32L142.57 218.06C142.31 217.98 142.11 217.94 141.97 217.94C141.77 217.94 141.61 218.04 141.47 218.22C141.29 218.46 141.01 218.58 140.65 218.58C140.01 218.58 139.71 218.18 139.71 217.56C139.71 216.76 140.49 215.96 141.55 215.96C141.65 215.96 141.93 216.02 142.41 216.12ZM150.747 220.98C151.607 220.3 152.747 219.96 154.127 219.96C155.347 219.96 156.347 220.32 157.127 221.02C157.907 221.72 158.287 222.66 158.287 223.88V228.58C158.287 229.52 157.667 230.1 156.867 230.1C156.207 230.1 155.767 229.8 155.547 229.2C154.867 229.88 154.027 230.22 153.047 230.22C152.067 230.22 151.287 229.94 150.667 229.38C150.047 228.8 149.747 228.08 149.747 227.2C149.747 226.18 150.107 225.42 150.847 224.9C151.587 224.38 152.527 224.1 153.627 224.06L155.427 223.98C155.427 222.98 154.927 222.48 153.927 222.48C153.327 222.48 152.787 222.64 152.287 222.98C151.547 223.48 150.827 223.42 150.407 222.86C149.947 222.32 150.087 221.52 150.747 220.98ZM152.607 227.04C152.607 227.52 153.027 227.82 153.747 227.82C154.327 227.82 154.887 227.62 155.427 227.22V226.06L154.167 226.16C153.127 226.22 152.607 226.5 152.607 227.04ZM161.327 229.14C160.667 228.56 160.587 227.8 161.087 227.24C161.627 226.64 162.247 226.62 162.967 227.2C163.507 227.62 164.227 227.84 165.107 227.84C165.727 227.84 166.207 227.62 166.207 227.24C166.207 226.92 165.987 226.76 165.327 226.58L164.227 226.26C162.047 225.64 161.027 224.64 161.027 223.06C161.027 222.12 161.387 221.38 162.127 220.82C162.867 220.24 163.767 219.96 164.827 219.96C165.967 219.96 166.927 220.2 167.727 220.7C168.447 221.18 168.627 221.9 168.247 222.52C167.827 223.16 167.147 223.34 166.367 222.88C165.847 222.54 165.287 222.38 164.707 222.38C164.147 222.38 163.787 222.6 163.787 222.92C163.787 223.22 164.007 223.34 164.487 223.48L165.747 223.82C167.747 224.38 168.967 225.24 168.967 227.06C168.967 228.92 167.367 230.22 164.867 230.22C163.367 230.22 162.187 229.86 161.327 229.14ZM178.869 232.04L179.749 230L176.729 222.12C176.409 221.24 176.829 220.4 177.629 220.16C178.369 219.94 179.089 220.3 179.409 221.2L181.289 226.26L183.189 221.2C183.509 220.3 184.229 219.94 184.969 220.16C185.769 220.42 186.229 221.16 185.889 222.02L181.569 232.86C181.189 233.8 180.609 234.14 179.789 233.9C178.969 233.64 178.489 232.9 178.869 232.04ZM61.0108 244.98C61.8708 244.3 63.0108 243.96 64.3908 243.96C65.6108 243.96 66.6108 244.32 67.3908 245.02C68.1708 245.72 68.5508 246.66 68.5508 247.88V252.58C68.5508 253.52 67.9308 254.1 67.1308 254.1C66.4708 254.1 66.0308 253.8 65.8108 253.2C65.1308 253.88 64.2908 254.22 63.3108 254.22C62.3308 254.22 61.5508 253.94 60.9308 253.38C60.3108 252.8 60.0108 252.08 60.0108 251.2C60.0108 250.18 60.3708 249.42 61.1108 248.9C61.8508 248.38 62.7908 248.1 63.8908 248.06L65.6908 247.98C65.6908 246.98 65.1908 246.48 64.1908 246.48C63.5908 246.48 63.0508 246.64 62.5508 246.98C61.8108 247.48 61.0908 247.42 60.6708 246.86C60.2108 246.32 60.3508 245.52 61.0108 244.98ZM62.8708 251.04C62.8708 251.52 63.2908 251.82 64.0108 251.82C64.5908 251.82 65.1508 251.62 65.6908 251.22V250.06L64.4308 250.16C63.3908 250.22 62.8708 250.5 62.8708 251.04ZM81.0306 241.42V252.58C81.0306 253.52 80.4106 254.1 79.6106 254.1C78.9306 254.1 78.4906 253.8 78.2906 253.18C77.7906 253.8 76.7306 254.22 75.6706 254.22C74.2906 254.22 73.1106 253.76 72.1706 252.82C71.2306 251.88 70.7706 250.64 70.7706 249.1C70.7706 247.58 71.2306 246.34 72.1706 245.4C73.1106 244.44 74.2906 243.96 75.6706 243.96C76.6906 243.96 77.5306 244.24 78.1906 244.82V241.42C78.0706 239.42 81.1506 239.42 81.0306 241.42ZM77.5706 250.94C78.0106 250.46 78.2306 249.84 78.2306 249.1C78.2306 248.36 78.0106 247.74 77.5706 247.26C77.1506 246.78 76.6106 246.54 75.9506 246.54C75.2906 246.54 74.7506 246.78 74.3106 247.26C73.8906 247.74 73.6706 248.36 73.6706 249.1C73.6706 249.84 73.8906 250.46 74.3106 250.94C74.7506 251.42 75.2906 251.66 75.9506 251.66C76.6106 251.66 77.1506 251.42 77.5706 250.94ZM84.8683 252.76C83.8883 251.78 83.3883 250.56 83.3883 249.1C83.3883 247.64 83.8883 246.42 84.8683 245.44C85.8683 244.46 87.1083 243.96 88.5683 243.96C90.0283 243.96 91.2683 244.46 92.2483 245.44C93.2483 246.42 93.7483 247.64 93.7483 249.1C93.7483 250.56 93.2483 251.78 92.2683 252.76C91.2883 253.74 90.0483 254.22 88.5683 254.22C87.0883 254.22 85.8483 253.74 84.8683 252.76ZM86.9283 247.32C86.5083 247.78 86.2883 248.38 86.2883 249.1C86.2883 249.82 86.5083 250.42 86.9283 250.88C87.3483 251.34 87.9083 251.58 88.5683 251.58C89.2283 251.58 89.7883 251.34 90.2083 250.88C90.6283 250.42 90.8483 249.82 90.8483 249.1C90.8483 248.38 90.6283 247.78 90.2083 247.32C89.7883 246.86 89.2283 246.62 88.5683 246.62C87.9083 246.62 87.3483 246.86 86.9283 247.32ZM98.9563 241.42V252.58C99.0763 254.58 95.9963 254.58 96.1163 252.58V241.42C95.9963 239.42 99.0763 239.42 98.9563 241.42ZM110.798 248.26C110.798 249.3 110.278 249.82 109.218 249.82H104.198C104.358 250.88 105.178 251.62 106.398 251.62C107.078 251.62 107.658 251.42 108.158 251.02C108.938 250.46 109.658 250.64 110.158 251.3C110.618 251.86 110.478 252.66 109.738 253.24C108.878 253.9 107.778 254.22 106.478 254.22C104.978 254.22 103.758 253.76 102.778 252.84C101.798 251.9 101.318 250.68 101.318 249.16C101.318 247.66 101.758 246.42 102.658 245.44C103.558 244.46 104.718 243.96 106.138 243.96C107.118 243.96 107.978 244.2 108.718 244.66C110.218 245.6 110.798 246.92 110.798 248.26ZM106.198 246.46C105.178 246.46 104.518 247.06 104.338 247.92H107.858C107.798 247.1 107.138 246.46 106.198 246.46ZM113.466 253.14C112.806 252.56 112.726 251.8 113.226 251.24C113.766 250.64 114.386 250.62 115.106 251.2C115.646 251.62 116.366 251.84 117.246 251.84C117.866 251.84 118.346 251.62 118.346 251.24C118.346 250.92 118.126 250.76 117.466 250.58L116.366 250.26C114.186 249.64 113.166 248.64 113.166 247.06C113.166 246.12 113.526 245.38 114.266 244.82C115.006 244.24 115.906 243.96 116.966 243.96C118.106 243.96 119.066 244.2 119.866 244.7C120.586 245.18 120.766 245.9 120.386 246.52C119.966 247.16 119.286 247.34 118.506 246.88C117.986 246.54 117.426 246.38 116.846 246.38C116.286 246.38 115.926 246.6 115.926 246.92C115.926 247.22 116.146 247.34 116.626 247.48L117.886 247.82C119.886 248.38 121.106 249.24 121.106 251.06C121.106 252.92 119.506 254.22 117.006 254.22C115.506 254.22 114.326 253.86 113.466 253.14ZM129.405 247.12C128.945 246.78 128.465 246.6 127.965 246.6C126.545 246.6 125.585 247.64 125.585 249.1C125.585 250.56 126.545 251.6 127.965 251.6C128.505 251.6 129.045 251.38 129.585 250.96C130.365 250.4 131.085 250.58 131.585 251.24C132.045 251.8 131.905 252.6 131.165 253.18C130.245 253.88 129.145 254.22 127.865 254.22C126.385 254.22 125.145 253.74 124.165 252.76C123.185 251.78 122.685 250.56 122.685 249.1C122.685 247.64 123.185 246.42 124.165 245.44C125.165 244.46 126.405 243.96 127.865 243.96C129.005 243.96 130.005 244.26 130.845 244.88C131.585 245.46 131.785 246.3 131.365 246.86C130.905 247.5 130.185 247.66 129.405 247.12ZM142.985 248.26C142.985 249.3 142.465 249.82 141.405 249.82H136.385C136.545 250.88 137.365 251.62 138.585 251.62C139.265 251.62 139.845 251.42 140.345 251.02C141.125 250.46 141.845 250.64 142.345 251.3C142.805 251.86 142.665 252.66 141.925 253.24C141.065 253.9 139.965 254.22 138.665 254.22C137.165 254.22 135.945 253.76 134.965 252.84C133.985 251.9 133.505 250.68 133.505 249.16C133.505 247.66 133.945 246.42 134.845 245.44C135.745 244.46 136.905 243.96 138.325 243.96C139.305 243.96 140.165 244.2 140.905 244.66C142.405 245.6 142.985 246.92 142.985 248.26ZM138.385 246.46C137.365 246.46 136.705 247.06 136.525 247.92H140.045C139.985 247.1 139.325 246.46 138.385 246.46ZM145.413 252.58V245.62C145.413 244.68 146.033 244.1 146.833 244.1C147.493 244.1 147.933 244.4 148.153 244.98C148.733 244.3 149.513 243.96 150.533 243.96C152.953 243.96 154.513 245.56 154.513 248.3V252.58C154.513 253.52 153.913 254.1 153.093 254.1C152.273 254.1 151.673 253.52 151.673 252.58V248.52C151.673 247.4 151.153 246.6 150.053 246.6C148.853 246.6 148.253 247.44 148.253 249.1V252.58C148.373 254.58 145.293 254.58 145.413 252.58ZM161.273 251.4C162.173 251.5 162.653 252 162.653 252.74C162.653 253.48 162.113 254.04 161.133 254.04H160.873C158.593 254.04 157.453 252.88 157.453 250.54V246.82H157.093C156.213 246.82 155.673 246.26 155.673 245.52C155.673 244.78 156.213 244.2 157.093 244.2H157.453V242.88C157.333 240.88 160.413 240.88 160.273 242.88V244.2H161.233C162.113 244.2 162.653 244.78 162.653 245.52C162.653 246.26 162.113 246.82 161.233 246.82H160.273V250.2C160.273 251.02 160.613 251.34 161.273 251.4ZM173.825 248.26C173.825 249.3 173.305 249.82 172.245 249.82H167.225C167.385 250.88 168.205 251.62 169.425 251.62C170.105 251.62 170.685 251.42 171.185 251.02C171.965 250.46 172.685 250.64 173.185 251.3C173.645 251.86 173.505 252.66 172.765 253.24C171.905 253.9 170.805 254.22 169.505 254.22C168.005 254.22 166.785 253.76 165.805 252.84C164.825 251.9 164.345 250.68 164.345 249.16C164.345 247.66 164.785 246.42 165.685 245.44C166.585 244.46 167.745 243.96 169.165 243.96C170.145 243.96 171.005 244.2 171.745 244.66C173.245 245.6 173.825 246.92 173.825 248.26ZM169.225 246.46C168.205 246.46 167.545 247.06 167.365 247.92H170.885C170.825 247.1 170.165 246.46 169.225 246.46ZM176.493 253.14C175.833 252.56 175.753 251.8 176.253 251.24C176.793 250.64 177.413 250.62 178.133 251.2C178.673 251.62 179.393 251.84 180.273 251.84C180.893 251.84 181.373 251.62 181.373 251.24C181.373 250.92 181.153 250.76 180.493 250.58L179.393 250.26C177.213 249.64 176.193 248.64 176.193 247.06C176.193 246.12 176.553 245.38 177.293 244.82C178.033 244.24 178.933 243.96 179.993 243.96C181.133 243.96 182.093 244.2 182.893 244.7C183.613 245.18 183.793 245.9 183.413 246.52C182.993 247.16 182.313 247.34 181.533 246.88C181.013 246.54 180.453 246.38 179.873 246.38C179.313 246.38 178.953 246.6 178.953 246.92C178.953 247.22 179.173 247.34 179.653 247.48L180.913 247.82C182.913 248.38 184.133 249.24 184.133 251.06C184.133 252.92 182.533 254.22 180.033 254.22C178.533 254.22 177.353 253.86 176.493 253.14ZM72.9151 268.98C73.7751 268.3 74.9151 267.96 76.2951 267.96C77.5151 267.96 78.5151 268.32 79.2951 269.02C80.0751 269.72 80.4551 270.66 80.4551 271.88V276.58C80.4551 277.52 79.8351 278.1 79.0351 278.1C78.3751 278.1 77.9351 277.8 77.7151 277.2C77.0351 277.88 76.1951 278.22 75.2151 278.22C74.2351 278.22 73.4551 277.94 72.8351 277.38C72.2151 276.8 71.9151 276.08 71.9151 275.2C71.9151 274.18 72.2751 273.42 73.0151 272.9C73.7551 272.38 74.6951 272.1 75.7951 272.06L77.5951 271.98C77.5951 270.98 77.0951 270.48 76.0951 270.48C75.4951 270.48 74.9551 270.64 74.4551 270.98C73.7151 271.48 72.9951 271.42 72.5751 270.86C72.1151 270.32 72.2551 269.52 72.9151 268.98ZM74.7751 275.04C74.7751 275.52 75.1951 275.82 75.9151 275.82C76.4951 275.82 77.0551 275.62 77.5951 275.22V274.06L76.3351 274.16C75.2951 274.22 74.7751 274.5 74.7751 275.04ZM87.3177 275.4C88.2177 275.5 88.6977 276 88.6977 276.74C88.6977 277.48 88.1577 278.04 87.1777 278.04H86.9177C84.6377 278.04 83.4977 276.88 83.4977 274.54V270.82H83.1377C82.2577 270.82 81.7177 270.26 81.7177 269.52C81.7177 268.78 82.2577 268.2 83.1377 268.2H83.4977V266.88C83.3777 264.88 86.4577 264.88 86.3177 266.88V268.2H87.2777C88.1577 268.2 88.6977 268.78 88.6977 269.52C88.6977 270.26 88.1577 270.82 87.2777 270.82H86.3177V274.2C86.3177 275.02 86.6577 275.34 87.3177 275.4ZM99.8702 272.26C99.8702 273.3 99.3502 273.82 98.2902 273.82H93.2702C93.4302 274.88 94.2502 275.62 95.4702 275.62C96.1502 275.62 96.7302 275.42 97.2302 275.02C98.0102 274.46 98.7302 274.64 99.2302 275.3C99.6902 275.86 99.5502 276.66 98.8102 277.24C97.9502 277.9 96.8502 278.22 95.5502 278.22C94.0502 278.22 92.8302 277.76 91.8502 276.84C90.8702 275.9 90.3902 274.68 90.3902 273.16C90.3902 271.66 90.8302 270.42 91.7302 269.44C92.6302 268.46 93.7902 267.96 95.2102 267.96C96.1902 267.96 97.0502 268.2 97.7902 268.66C99.2902 269.6 99.8702 270.92 99.8702 272.26ZM95.2702 270.46C94.2502 270.46 93.5902 271.06 93.4102 271.92H96.9302C96.8702 271.1 96.2102 270.46 95.2702 270.46ZM102.298 276.58V269.62C102.298 268.68 102.918 268.1 103.718 268.1C104.378 268.1 104.818 268.4 105.038 268.98C105.618 268.3 106.398 267.96 107.418 267.96C109.838 267.96 111.398 269.56 111.398 272.3V276.58C111.398 277.52 110.798 278.1 109.978 278.1C109.158 278.1 108.558 277.52 108.558 276.58V272.52C108.558 271.4 108.038 270.6 106.938 270.6C105.738 270.6 105.138 271.44 105.138 273.1V276.58C105.258 278.58 102.178 278.58 102.298 276.58ZM123.775 265.42V276.58C123.775 277.52 123.155 278.1 122.355 278.1C121.675 278.1 121.235 277.8 121.035 277.18C120.535 277.8 119.475 278.22 118.415 278.22C117.035 278.22 115.855 277.76 114.915 276.82C113.975 275.88 113.515 274.64 113.515 273.1C113.515 271.58 113.975 270.34 114.915 269.4C115.855 268.44 117.035 267.96 118.415 267.96C119.435 267.96 120.275 268.24 120.935 268.82V265.42C120.815 263.42 123.895 263.42 123.775 265.42ZM120.315 274.94C120.755 274.46 120.975 273.84 120.975 273.1C120.975 272.36 120.755 271.74 120.315 271.26C119.895 270.78 119.355 270.54 118.695 270.54C118.035 270.54 117.495 270.78 117.055 271.26C116.635 271.74 116.415 272.36 116.415 273.1C116.415 273.84 116.635 274.46 117.055 274.94C117.495 275.42 118.035 275.66 118.695 275.66C119.355 275.66 119.895 275.42 120.315 274.94ZM126.787 265.42C126.787 264.48 127.527 263.76 128.427 263.76C129.367 263.76 130.087 264.48 130.087 265.42C130.087 266.32 129.327 267.06 128.427 267.06C127.527 267.06 126.787 266.32 126.787 265.42ZM129.847 276.58C129.847 277.52 129.247 278.1 128.427 278.1C127.607 278.1 127.007 277.52 127.007 276.58V269.62C127.007 268.68 127.607 268.1 128.427 268.1C129.247 268.1 129.847 268.68 129.847 269.62V276.58ZM142.564 265.42V276.58C142.564 277.52 141.944 278.1 141.144 278.1C140.464 278.1 140.024 277.8 139.824 277.18C139.324 277.8 138.264 278.22 137.204 278.22C135.824 278.22 134.644 277.76 133.704 276.82C132.764 275.88 132.304 274.64 132.304 273.1C132.304 271.58 132.764 270.34 133.704 269.4C134.644 268.44 135.824 267.96 137.204 267.96C138.224 267.96 139.064 268.24 139.724 268.82V265.42C139.604 263.42 142.684 263.42 142.564 265.42ZM139.104 274.94C139.544 274.46 139.764 273.84 139.764 273.1C139.764 272.36 139.544 271.74 139.104 271.26C138.684 270.78 138.144 270.54 137.484 270.54C136.824 270.54 136.284 270.78 135.844 271.26C135.424 271.74 135.204 272.36 135.204 273.1C135.204 273.84 135.424 274.46 135.844 274.94C136.284 275.42 136.824 275.66 137.484 275.66C138.144 275.66 138.684 275.42 139.104 274.94ZM146.401 276.76C145.421 275.78 144.921 274.56 144.921 273.1C144.921 271.64 145.421 270.42 146.401 269.44C147.401 268.46 148.641 267.96 150.101 267.96C151.561 267.96 152.801 268.46 153.781 269.44C154.781 270.42 155.281 271.64 155.281 273.1C155.281 274.56 154.781 275.78 153.801 276.76C152.821 277.74 151.581 278.22 150.101 278.22C148.621 278.22 147.381 277.74 146.401 276.76ZM148.461 271.32C148.041 271.78 147.821 272.38 147.821 273.1C147.821 273.82 148.041 274.42 148.461 274.88C148.881 275.34 149.441 275.58 150.101 275.58C150.761 275.58 151.321 275.34 151.741 274.88C152.161 274.42 152.381 273.82 152.381 273.1C152.381 272.38 152.161 271.78 151.741 271.32C151.321 270.86 150.761 270.62 150.101 270.62C149.441 270.62 148.881 270.86 148.461 271.32ZM157.889 277.14C157.229 276.56 157.149 275.8 157.649 275.24C158.189 274.64 158.809 274.62 159.529 275.2C160.069 275.62 160.789 275.84 161.669 275.84C162.289 275.84 162.769 275.62 162.769 275.24C162.769 274.92 162.549 274.76 161.889 274.58L160.789 274.26C158.609 273.64 157.589 272.64 157.589 271.06C157.589 270.12 157.949 269.38 158.689 268.82C159.429 268.24 160.329 267.96 161.389 267.96C162.529 267.96 163.489 268.2 164.289 268.7C165.009 269.18 165.189 269.9 164.809 270.52C164.389 271.16 163.709 271.34 162.929 270.88C162.409 270.54 161.849 270.38 161.269 270.38C160.709 270.38 160.349 270.6 160.349 270.92C160.349 271.22 160.569 271.34 161.049 271.48L162.309 271.82C164.309 272.38 165.529 273.24 165.529 275.06C165.529 276.92 163.929 278.22 161.429 278.22C159.929 278.22 158.749 277.86 157.889 277.14ZM168.294 277.7C167.654 277.04 167.654 275.92 168.294 275.26C168.954 274.6 170.074 274.6 170.734 275.26C171.434 275.92 171.434 277.04 170.734 277.7C170.074 278.36 168.954 278.36 168.294 277.7Z" fill="#930345"/>
<circle cx="123.5" cy="97.4997" r="77.9997" fill="white" stroke="white" stroke-width="9"/>
<path d="M87.4389 89.736L91.5349 87.24C92.4309 86.696 93.1989 86.44 93.8709 86.44C95.3749 86.44 96.3989 87.496 96.3989 89.288V104.616H99.4709C100.911 104.616 101.839 105.544 101.839 106.824C101.839 108.072 100.943 109 99.5029 109H87.8869C86.4469 109 85.5509 108.072 85.5509 106.824C85.5509 105.544 86.4469 104.616 87.8869 104.616H91.6629V92.456L89.4229 93.768C88.4949 94.248 87.6629 94.312 86.9269 93.896C86.2229 93.48 85.8709 92.904 85.8709 92.104C85.8709 91.176 86.3829 90.376 87.4389 89.736ZM105.066 102.568C105.066 100.232 106.25 98.376 107.882 97.448C106.378 96.2 105.61 94.728 105.61 93C105.61 90.984 106.314 89.352 107.754 88.104C109.194 86.856 111.018 86.216 113.194 86.216C115.37 86.216 117.162 86.856 118.602 88.104C120.042 89.352 120.778 90.984 120.778 93C120.778 94.728 120.042 96.2 118.538 97.448C120.106 98.376 121.322 100.232 121.322 102.568C121.322 104.648 120.554 106.28 119.018 107.528C117.514 108.744 115.562 109.352 113.194 109.352C110.826 109.352 108.874 108.744 107.338 107.528C105.834 106.28 105.066 104.648 105.066 102.568ZM113.194 90.568C111.658 90.568 110.346 91.496 110.346 93C110.346 94.504 111.658 95.432 113.194 95.432C114.762 95.432 116.042 94.504 116.042 93C116.042 91.496 114.762 90.568 113.194 90.568ZM113.194 105C115.242 105 116.586 103.976 116.586 102.312C116.586 100.648 115.242 99.592 113.194 99.592C111.178 99.592 109.802 100.648 109.802 102.312C109.802 103.976 111.178 105 113.194 105ZM132.189 99.816C129.053 100.04 129.053 95.176 132.189 95.4C134.397 95.4 135.677 94.408 135.677 92.872C135.677 91.56 134.525 90.568 132.733 90.568C131.421 90.568 130.333 90.888 129.469 91.496C128.285 92.296 127.133 92.2 126.365 91.304C125.597 90.504 125.661 89.032 126.781 88.136C128.381 86.856 130.333 86.216 132.605 86.216C134.781 86.216 136.637 86.728 138.141 87.784C139.677 88.84 140.445 90.376 140.445 92.424C140.445 94.568 139.613 96.168 137.949 97.288C139.645 98.152 140.989 100.04 140.989 102.568C140.989 104.712 140.189 106.376 138.589 107.56C136.989 108.744 134.973 109.352 132.541 109.352C130.173 109.352 128.093 108.68 126.333 107.368C125.149 106.472 125.085 104.904 125.885 104.04C126.813 103.016 127.901 102.952 129.149 103.848C130.205 104.616 131.389 105 132.733 105C134.813 105 136.253 104.072 136.253 102.44C136.253 100.68 134.909 99.816 132.189 99.816ZM146.47 89.736L150.566 87.24C151.462 86.696 152.23 86.44 152.902 86.44C154.406 86.44 155.43 87.496 155.43 89.288V104.616H158.502C159.942 104.616 160.87 105.544 160.87 106.824C160.87 108.072 159.974 109 158.534 109H146.918C145.478 109 144.582 108.072 144.582 106.824C144.582 105.544 145.478 104.616 146.918 104.616H150.694V92.456L148.454 93.768C147.526 94.248 146.694 94.312 145.958 93.896C145.254 93.48 144.902 92.904 144.902 92.104C144.902 91.176 145.414 90.376 146.47 89.736Z" fill="#930345"/>
</svg>
