<svg width="244" height="298" viewBox="0 0 244 298" fill="none" xmlns="http://www.w3.org/2000/svg">
<rect width="243.562" height="297.688" fill="#930345"/>
<path d="M8.87415 205.668V195.714C8.87415 194.832 9.43215 194.292 10.2061 194.292C10.9801 194.292 11.5381 194.832 11.5381 195.714V199.332H16.8301V195.714C16.8301 194.832 17.3881 194.292 18.1621 194.292C18.9361 194.292 19.4941 194.832 19.4941 195.714V205.668C19.4941 206.55 18.9361 207.09 18.1621 207.09C17.3881 207.09 16.8301 206.55 16.8301 205.668V201.78H11.5381V205.668C11.5381 206.55 10.9801 207.09 10.2061 207.09C9.43215 207.09 8.87415 206.55 8.87415 205.668ZM29.9894 199.458V205.722C29.9894 206.568 29.4314 207.09 28.7114 207.09C28.1354 207.09 27.7394 206.82 27.5414 206.298C27.0374 206.892 26.3174 207.198 25.3634 207.198C23.2034 207.198 21.9974 205.812 21.9974 203.31V199.458C21.8894 197.658 24.6614 197.658 24.5534 199.458V203.112C24.5534 204.264 25.0034 204.84 25.9034 204.84C27.0374 204.84 27.4334 204.048 27.4334 202.59V199.458C27.3254 197.658 30.0974 197.658 29.9894 199.458ZM40.6652 201.834C40.6652 202.77 40.1972 203.238 39.2432 203.238H34.7252C34.8692 204.192 35.6072 204.858 36.7052 204.858C37.3172 204.858 37.8392 204.678 38.2892 204.318C38.9912 203.814 39.6392 203.976 40.0892 204.57C40.5032 205.074 40.3772 205.794 39.7112 206.316C38.9372 206.91 37.9472 207.198 36.7772 207.198C35.4272 207.198 34.3292 206.784 33.4472 205.956C32.5652 205.11 32.1332 204.012 32.1332 202.644C32.1332 201.294 32.5292 200.178 33.3392 199.296C34.1492 198.414 35.1932 197.964 36.4712 197.964C37.3532 197.964 38.1272 198.18 38.7932 198.594C40.1432 199.44 40.6652 200.628 40.6652 201.834ZM36.5252 200.214C35.6072 200.214 35.0132 200.754 34.8512 201.528H38.0192C37.9652 200.79 37.3712 200.214 36.5252 200.214ZM37.4972 196.11L35.9492 196.83C35.6072 196.992 35.2832 196.974 34.9592 196.776C34.4732 196.47 34.3472 195.786 34.6532 195.336C34.7432 195.192 34.8692 195.084 35.0132 194.994L36.5432 193.986C36.9572 193.716 37.3892 193.734 37.8392 194.004C38.3612 194.346 38.5232 195.084 38.1632 195.642C38.0012 195.858 37.7672 196.02 37.4972 196.11ZM43.0661 206.226C42.4721 205.704 42.4001 205.02 42.8501 204.516C43.3361 203.976 43.8941 203.958 44.5421 204.48C45.0281 204.858 45.6761 205.056 46.4681 205.056C47.0261 205.056 47.4581 204.858 47.4581 204.516C47.4581 204.228 47.2601 204.084 46.6661 203.922L45.6761 203.634C43.7141 203.076 42.7961 202.176 42.7961 200.754C42.7961 199.908 43.1201 199.242 43.7861 198.738C44.4521 198.216 45.2621 197.964 46.2161 197.964C47.2421 197.964 48.1061 198.18 48.8261 198.63C49.4741 199.062 49.6361 199.71 49.2941 200.268C48.9161 200.844 48.3041 201.006 47.6021 200.592C47.1341 200.286 46.6301 200.142 46.1081 200.142C45.6041 200.142 45.2801 200.34 45.2801 200.628C45.2801 200.898 45.4781 201.006 45.9101 201.132L47.0441 201.438C48.8441 201.942 49.9421 202.716 49.9421 204.354C49.9421 206.028 48.5021 207.198 46.2521 207.198C44.9021 207.198 43.8401 206.874 43.0661 206.226ZM51.9908 209.214V199.44C51.9908 198.576 52.5488 198.072 53.2688 198.072C53.8808 198.072 54.2768 198.342 54.4568 198.9C54.9068 198.342 55.8608 197.964 56.8148 197.964C58.0568 197.964 59.1008 198.396 59.9468 199.242C60.7928 200.088 61.2248 201.204 61.2248 202.59C61.2248 203.958 60.7928 205.074 59.9468 205.92C59.1008 206.766 58.0568 207.198 56.8148 207.198C55.8968 207.198 55.1408 206.946 54.5468 206.424V209.214C54.6548 211.014 51.8828 211.014 51.9908 209.214ZM55.0868 200.934C54.7088 201.366 54.5108 201.924 54.5108 202.59C54.5108 203.256 54.7088 203.814 55.0868 204.246C55.4828 204.678 55.9688 204.894 56.5628 204.894C57.1568 204.894 57.6428 204.678 58.0208 204.246C58.4168 203.814 58.6148 203.256 58.6148 202.59C58.6148 201.924 58.4168 201.366 58.0208 200.934C57.6428 200.502 57.1568 200.286 56.5628 200.286C55.9688 200.286 55.4828 200.502 55.0868 200.934ZM71.4621 201.834C71.4621 202.77 70.9941 203.238 70.0401 203.238H65.5221C65.6661 204.192 66.4041 204.858 67.5021 204.858C68.1141 204.858 68.6361 204.678 69.0861 204.318C69.7881 203.814 70.4361 203.976 70.8861 204.57C71.3001 205.074 71.1741 205.794 70.5081 206.316C69.7341 206.91 68.7441 207.198 67.5741 207.198C66.2241 207.198 65.1261 206.784 64.2441 205.956C63.3621 205.11 62.9301 204.012 62.9301 202.644C62.9301 201.294 63.3261 200.178 64.1361 199.296C64.9461 198.414 65.9901 197.964 67.2681 197.964C68.1501 197.964 68.9241 198.18 69.5901 198.594C70.9401 199.44 71.4621 200.628 71.4621 201.834ZM67.3221 200.214C66.4041 200.214 65.8101 200.754 65.6481 201.528H68.8161C68.7621 200.79 68.1681 200.214 67.3221 200.214ZM82.4645 195.678V205.722C82.4645 206.568 81.9065 207.09 81.1865 207.09C80.5745 207.09 80.1785 206.82 79.9985 206.262C79.5485 206.82 78.5945 207.198 77.6405 207.198C76.3985 207.198 75.3365 206.784 74.4905 205.938C73.6445 205.092 73.2305 203.976 73.2305 202.59C73.2305 201.222 73.6445 200.106 74.4905 199.26C75.3365 198.396 76.3985 197.964 77.6405 197.964C78.5585 197.964 79.3145 198.216 79.9085 198.738V195.678C79.8005 193.878 82.5725 193.878 82.4645 195.678ZM79.3505 204.246C79.7465 203.814 79.9445 203.256 79.9445 202.59C79.9445 201.924 79.7465 201.366 79.3505 200.934C78.9725 200.502 78.4865 200.286 77.8925 200.286C77.2985 200.286 76.8125 200.502 76.4165 200.934C76.0385 201.366 75.8405 201.924 75.8405 202.59C75.8405 203.256 76.0385 203.814 76.4165 204.246C76.8125 204.678 77.2985 204.894 77.8925 204.894C78.4865 204.894 78.9725 204.678 79.3505 204.246ZM93.1184 201.834C93.1184 202.77 92.6504 203.238 91.6964 203.238H87.1784C87.3224 204.192 88.0604 204.858 89.1584 204.858C89.7704 204.858 90.2924 204.678 90.7424 204.318C91.4444 203.814 92.0924 203.976 92.5424 204.57C92.9564 205.074 92.8304 205.794 92.1644 206.316C91.3904 206.91 90.4004 207.198 89.2304 207.198C87.8804 207.198 86.7824 206.784 85.9004 205.956C85.0184 205.11 84.5864 204.012 84.5864 202.644C84.5864 201.294 84.9824 200.178 85.7924 199.296C86.6024 198.414 87.6464 197.964 88.9244 197.964C89.8064 197.964 90.5804 198.18 91.2464 198.594C92.5964 199.44 93.1184 200.628 93.1184 201.834ZM88.9784 200.214C88.0604 200.214 87.4664 200.754 87.3044 201.528H90.4724C90.4184 200.79 89.8244 200.214 88.9784 200.214ZM95.5193 206.226C94.9253 205.704 94.8533 205.02 95.3033 204.516C95.7893 203.976 96.3473 203.958 96.9953 204.48C97.4813 204.858 98.1293 205.056 98.9213 205.056C99.4793 205.056 99.9113 204.858 99.9113 204.516C99.9113 204.228 99.7133 204.084 99.1193 203.922L98.1293 203.634C96.1673 203.076 95.2493 202.176 95.2493 200.754C95.2493 199.908 95.5733 199.242 96.2393 198.738C96.9053 198.216 97.7153 197.964 98.6693 197.964C99.6953 197.964 100.559 198.18 101.279 198.63C101.927 199.062 102.089 199.71 101.747 200.268C101.369 200.844 100.757 201.006 100.055 200.592C99.5873 200.286 99.0833 200.142 98.5613 200.142C98.0573 200.142 97.7333 200.34 97.7333 200.628C97.7333 200.898 97.9313 201.006 98.3633 201.132L99.4973 201.438C101.297 201.942 102.395 202.716 102.395 204.354C102.395 206.028 100.955 207.198 98.7053 207.198C97.3553 207.198 96.2933 206.874 95.5193 206.226ZM114.853 198.126C115.429 198.27 115.861 198.72 115.861 199.386C115.861 200.088 115.375 200.574 114.745 200.574C114.619 200.574 114.349 200.538 114.187 200.538C112.963 200.538 112.027 201.528 112.027 203.31V205.722C112.135 207.522 109.363 207.522 109.471 205.722V199.458C109.471 198.612 110.029 198.09 110.749 198.09C111.415 198.09 111.901 198.522 111.991 199.152C112.495 198.45 113.359 198.054 114.133 198.054C114.439 198.054 114.673 198.072 114.853 198.126ZM125.128 201.834C125.128 202.77 124.66 203.238 123.706 203.238H119.188C119.332 204.192 120.07 204.858 121.168 204.858C121.78 204.858 122.302 204.678 122.752 204.318C123.454 203.814 124.102 203.976 124.552 204.57C124.966 205.074 124.84 205.794 124.174 206.316C123.4 206.91 122.41 207.198 121.24 207.198C119.89 207.198 118.792 206.784 117.91 205.956C117.028 205.11 116.596 204.012 116.596 202.644C116.596 201.294 116.992 200.178 117.802 199.296C118.612 198.414 119.656 197.964 120.934 197.964C121.816 197.964 122.59 198.18 123.256 198.594C124.606 199.44 125.128 200.628 125.128 201.834ZM120.988 200.214C120.07 200.214 119.476 200.754 119.314 201.528H122.482C122.428 200.79 121.834 200.214 120.988 200.214ZM132.944 200.808C132.53 200.502 132.098 200.34 131.648 200.34C130.37 200.34 129.506 201.276 129.506 202.59C129.506 203.904 130.37 204.84 131.648 204.84C132.134 204.84 132.62 204.642 133.106 204.264C133.808 203.76 134.456 203.922 134.906 204.516C135.32 205.02 135.194 205.74 134.528 206.262C133.7 206.892 132.71 207.198 131.558 207.198C130.226 207.198 129.11 206.766 128.228 205.884C127.346 205.002 126.896 203.904 126.896 202.59C126.896 201.276 127.346 200.178 128.228 199.296C129.128 198.414 130.244 197.964 131.558 197.964C132.584 197.964 133.484 198.234 134.24 198.792C134.906 199.314 135.086 200.07 134.708 200.574C134.294 201.15 133.646 201.294 132.944 200.808ZM137.33 195.678C137.33 194.832 137.996 194.184 138.806 194.184C139.652 194.184 140.3 194.832 140.3 195.678C140.3 196.488 139.616 197.154 138.806 197.154C137.996 197.154 137.33 196.488 137.33 195.678ZM140.084 205.722C140.084 206.568 139.544 207.09 138.806 207.09C138.068 207.09 137.528 206.568 137.528 205.722V199.458C137.528 198.612 138.068 198.09 138.806 198.09C139.544 198.09 140.084 198.612 140.084 199.458V205.722ZM143.01 205.722V195.678C142.902 193.878 145.674 193.878 145.566 195.678V198.738C146.16 198.216 146.916 197.964 147.834 197.964C149.076 197.964 150.12 198.396 150.966 199.26C151.812 200.106 152.244 201.222 152.244 202.59C152.244 203.976 151.812 205.092 150.966 205.938C150.12 206.784 149.076 207.198 147.834 207.198C146.88 207.198 145.926 206.82 145.476 206.262C145.296 206.82 144.9 207.09 144.288 207.09C143.568 207.09 143.01 206.568 143.01 205.722ZM146.106 200.934C145.728 201.366 145.53 201.924 145.53 202.59C145.53 203.256 145.728 203.814 146.106 204.246C146.502 204.678 146.988 204.894 147.582 204.894C148.176 204.894 148.662 204.678 149.04 204.246C149.436 203.814 149.634 203.256 149.634 202.59C149.634 201.924 149.436 201.366 149.04 200.934C148.662 200.502 148.176 200.286 147.582 200.286C146.988 200.286 146.502 200.502 146.106 200.934ZM154.258 195.678C154.258 194.832 154.924 194.184 155.734 194.184C156.58 194.184 157.228 194.832 157.228 195.678C157.228 196.488 156.544 197.154 155.734 197.154C154.924 197.154 154.258 196.488 154.258 195.678ZM157.012 205.722C157.012 206.568 156.472 207.09 155.734 207.09C154.996 207.09 154.456 206.568 154.456 205.722V199.458C154.456 198.612 154.996 198.09 155.734 198.09C156.472 198.09 157.012 198.612 157.012 199.458V205.722ZM160.573 205.884C159.691 205.002 159.241 203.904 159.241 202.59C159.241 201.276 159.691 200.178 160.573 199.296C161.473 198.414 162.589 197.964 163.903 197.964C165.217 197.964 166.333 198.414 167.215 199.296C168.115 200.178 168.565 201.276 168.565 202.59C168.565 203.904 168.115 205.002 167.233 205.884C166.351 206.766 165.235 207.198 163.903 207.198C162.571 207.198 161.455 206.766 160.573 205.884ZM162.427 200.988C162.049 201.402 161.851 201.942 161.851 202.59C161.851 203.238 162.049 203.778 162.427 204.192C162.805 204.606 163.309 204.822 163.903 204.822C164.497 204.822 165.001 204.606 165.379 204.192C165.757 203.778 165.955 203.238 165.955 202.59C165.955 201.942 165.757 201.402 165.379 200.988C165.001 200.574 164.497 200.358 163.903 200.358C163.309 200.358 162.805 200.574 162.427 200.988ZM164.965 196.11L163.417 196.83C163.075 196.992 162.751 196.974 162.427 196.776C161.941 196.47 161.815 195.786 162.121 195.336C162.211 195.192 162.337 195.084 162.481 194.994L164.011 193.986C164.425 193.716 164.857 193.734 165.307 194.004C165.829 194.346 165.991 195.084 165.631 195.642C165.469 195.858 165.235 196.02 164.965 196.11ZM178.279 195.678V205.722C178.387 207.522 175.615 207.522 175.723 205.722V195.678C175.615 193.878 178.387 193.878 178.279 195.678ZM181.359 198.882C182.133 198.27 183.159 197.964 184.401 197.964C185.499 197.964 186.399 198.288 187.101 198.918C187.803 199.548 188.145 200.394 188.145 201.492V205.722C188.145 206.568 187.587 207.09 186.867 207.09C186.273 207.09 185.877 206.82 185.679 206.28C185.067 206.892 184.311 207.198 183.429 207.198C182.547 207.198 181.845 206.946 181.287 206.442C180.729 205.92 180.459 205.272 180.459 204.48C180.459 203.562 180.783 202.878 181.449 202.41C182.115 201.942 182.961 201.69 183.951 201.654L185.571 201.582C185.571 200.682 185.121 200.232 184.221 200.232C183.681 200.232 183.195 200.376 182.745 200.682C182.079 201.132 181.431 201.078 181.053 200.574C180.639 200.088 180.765 199.368 181.359 198.882ZM183.033 204.336C183.033 204.768 183.411 205.038 184.059 205.038C184.581 205.038 185.085 204.858 185.571 204.498V203.454L184.437 203.544C183.501 203.598 183.033 203.85 183.033 204.336ZM206.132 195.696C206.78 196.272 206.834 197.064 206.33 197.586C205.844 198.162 205.124 198.234 204.422 197.658C203.684 197.01 202.802 196.686 201.758 196.686C200.768 196.686 199.904 197.046 199.148 197.766C198.41 198.468 198.032 199.44 198.032 200.664C198.032 201.906 198.41 202.896 199.148 203.616C199.886 204.336 200.804 204.696 201.902 204.696C202.928 204.696 203.828 204.372 204.62 203.706C205.322 203.148 206.042 203.22 206.528 203.778C207.032 204.3 206.978 205.092 206.33 205.668C205.178 206.694 203.72 207.198 201.974 207.198C200.048 207.198 198.446 206.604 197.168 205.416C195.908 204.228 195.278 202.662 195.278 200.718C195.278 198.756 195.908 197.172 197.168 195.984C198.428 194.778 199.994 194.184 201.884 194.184C203.522 194.184 204.944 194.688 206.132 195.696ZM209.66 198.882C210.434 198.27 211.46 197.964 212.702 197.964C213.8 197.964 214.7 198.288 215.402 198.918C216.104 199.548 216.446 200.394 216.446 201.492V205.722C216.446 206.568 215.888 207.09 215.168 207.09C214.574 207.09 214.178 206.82 213.98 206.28C213.368 206.892 212.612 207.198 211.73 207.198C210.848 207.198 210.146 206.946 209.588 206.442C209.03 205.92 208.76 205.272 208.76 204.48C208.76 203.562 209.084 202.878 209.75 202.41C210.416 201.942 211.262 201.69 212.252 201.654L213.872 201.582C213.872 200.682 213.422 200.232 212.522 200.232C211.982 200.232 211.496 200.376 211.046 200.682C210.38 201.132 209.732 201.078 209.354 200.574C208.94 200.088 209.066 199.368 209.66 198.882ZM211.334 204.336C211.334 204.768 211.712 205.038 212.36 205.038C212.882 205.038 213.386 204.858 213.872 204.498V203.454L212.738 203.544C211.802 203.598 211.334 203.85 211.334 204.336ZM219.181 206.226C218.587 205.704 218.515 205.02 218.965 204.516C219.451 203.976 220.009 203.958 220.657 204.48C221.143 204.858 221.791 205.056 222.583 205.056C223.141 205.056 223.573 204.858 223.573 204.516C223.573 204.228 223.375 204.084 222.781 203.922L221.791 203.634C219.829 203.076 218.911 202.176 218.911 200.754C218.911 199.908 219.235 199.242 219.901 198.738C220.567 198.216 221.377 197.964 222.331 197.964C223.357 197.964 224.221 198.18 224.941 198.63C225.589 199.062 225.751 199.71 225.409 200.268C225.031 200.844 224.419 201.006 223.717 200.592C223.249 200.286 222.745 200.142 222.223 200.142C221.719 200.142 221.395 200.34 221.395 200.628C221.395 200.898 221.593 201.006 222.025 201.132L223.159 201.438C224.959 201.942 226.057 202.716 226.057 204.354C226.057 206.028 224.617 207.198 222.367 207.198C221.017 207.198 219.955 206.874 219.181 206.226ZM228.556 198.882C229.33 198.27 230.356 197.964 231.598 197.964C232.696 197.964 233.596 198.288 234.298 198.918C235 199.548 235.342 200.394 235.342 201.492V205.722C235.342 206.568 234.784 207.09 234.064 207.09C233.47 207.09 233.074 206.82 232.876 206.28C232.264 206.892 231.508 207.198 230.626 207.198C229.744 207.198 229.042 206.946 228.484 206.442C227.926 205.92 227.656 205.272 227.656 204.48C227.656 203.562 227.98 202.878 228.646 202.41C229.312 201.942 230.158 201.69 231.148 201.654L232.768 201.582C232.768 200.682 232.318 200.232 231.418 200.232C230.878 200.232 230.392 200.376 229.942 200.682C229.276 201.132 228.628 201.078 228.25 200.574C227.836 200.088 227.962 199.368 228.556 198.882ZM230.23 204.336C230.23 204.768 230.608 205.038 231.256 205.038C231.778 205.038 232.282 204.858 232.768 204.498V203.454L231.634 203.544C230.698 203.598 230.23 203.85 230.23 204.336ZM52.113 220.866H50.043V224.502H52.113C53.859 224.502 54.741 223.89 54.741 222.648C54.741 221.424 53.931 220.866 52.113 220.866ZM54.669 230.316L52.185 226.95H50.043V229.668C50.043 230.55 49.467 231.09 48.693 231.09C47.919 231.09 47.361 230.55 47.361 229.668V220.11C47.361 219.03 47.991 218.4 49.071 218.4H52.581C54.003 218.4 55.155 218.76 56.055 219.498C56.955 220.218 57.405 221.226 57.405 222.504C57.405 224.286 56.433 225.726 54.921 226.446L56.865 228.93C57.387 229.65 57.243 230.46 56.595 230.874C56.001 231.252 55.191 231.036 54.669 230.316ZM60.2279 229.884C59.3459 229.002 58.8959 227.904 58.8959 226.59C58.8959 225.276 59.3459 224.178 60.2279 223.296C61.1279 222.414 62.2439 221.964 63.5579 221.964C64.8719 221.964 65.9879 222.414 66.8699 223.296C67.7699 224.178 68.2199 225.276 68.2199 226.59C68.2199 227.904 67.7699 229.002 66.8879 229.884C66.0059 230.766 64.8899 231.198 63.5579 231.198C62.2259 231.198 61.1099 230.766 60.2279 229.884ZM62.0819 224.988C61.7039 225.402 61.5059 225.942 61.5059 226.59C61.5059 227.238 61.7039 227.778 62.0819 228.192C62.4599 228.606 62.9639 228.822 63.5579 228.822C64.1519 228.822 64.6559 228.606 65.0339 228.192C65.4119 227.778 65.6099 227.238 65.6099 226.59C65.6099 225.942 65.4119 225.402 65.0339 224.988C64.6559 224.574 64.1519 224.358 63.5579 224.358C62.9639 224.358 62.4599 224.574 62.0819 224.988ZM70.3511 229.722V223.458C70.3511 222.612 70.9091 222.09 71.6291 222.09C72.2231 222.09 72.6191 222.36 72.8171 222.882C73.3391 222.27 74.0411 221.964 74.9591 221.964C77.1371 221.964 78.5411 223.404 78.5411 225.87V229.722C78.5411 230.568 78.0011 231.09 77.2631 231.09C76.5251 231.09 75.9851 230.568 75.9851 229.722V226.068C75.9851 225.06 75.5171 224.34 74.5271 224.34C73.4471 224.34 72.9071 225.096 72.9071 226.59V229.722C73.0151 231.522 70.2431 231.522 70.3511 229.722ZM81.4183 222.882C82.1923 222.27 83.2183 221.964 84.4603 221.964C85.5583 221.964 86.4583 222.288 87.1603 222.918C87.8623 223.548 88.2043 224.394 88.2043 225.492V229.722C88.2043 230.568 87.6463 231.09 86.9263 231.09C86.3323 231.09 85.9363 230.82 85.7383 230.28C85.1263 230.892 84.3703 231.198 83.4883 231.198C82.6063 231.198 81.9043 230.946 81.3463 230.442C80.7883 229.92 80.5183 229.272 80.5183 228.48C80.5183 227.562 80.8423 226.878 81.5083 226.41C82.1743 225.942 83.0203 225.69 84.0103 225.654L85.6303 225.582C85.6303 224.682 85.1803 224.232 84.2803 224.232C83.7403 224.232 83.2543 224.376 82.8043 224.682C82.1383 225.132 81.4903 225.078 81.1123 224.574C80.6983 224.088 80.8243 223.368 81.4183 222.882ZM83.0923 228.336C83.0923 228.768 83.4703 229.038 84.1183 229.038C84.6403 229.038 85.1443 228.858 85.6303 228.498V227.454L84.4963 227.544C83.5603 227.598 83.0923 227.85 83.0923 228.336ZM93.4735 219.678V229.722C93.5815 231.522 90.8095 231.522 90.9175 229.722V219.678C90.8095 217.878 93.5815 217.878 93.4735 219.678ZM104.815 219.678V229.722C104.815 230.568 104.257 231.09 103.537 231.09C102.925 231.09 102.529 230.82 102.349 230.262C101.899 230.82 100.945 231.198 99.9911 231.198C98.7491 231.198 97.6871 230.784 96.8411 229.938C95.9951 229.092 95.5811 227.976 95.5811 226.59C95.5811 225.222 95.9951 224.106 96.8411 223.26C97.6871 222.396 98.7491 221.964 99.9911 221.964C100.909 221.964 101.665 222.216 102.259 222.738V219.678C102.151 217.878 104.923 217.878 104.815 219.678ZM101.701 228.246C102.097 227.814 102.295 227.256 102.295 226.59C102.295 225.924 102.097 225.366 101.701 224.934C101.323 224.502 100.837 224.286 100.243 224.286C99.6491 224.286 99.1631 224.502 98.7671 224.934C98.3891 225.366 98.1911 225.924 98.1911 226.59C98.1911 227.256 98.3891 227.814 98.7671 228.246C99.1631 228.678 99.6491 228.894 100.243 228.894C100.837 228.894 101.323 228.678 101.701 228.246ZM115.618 219.138L118.822 225.456L122.044 219.138C122.35 218.526 122.854 218.22 123.574 218.22C124.528 218.22 125.086 218.832 125.086 219.822V229.668C125.086 230.55 124.528 231.09 123.754 231.09C122.98 231.09 122.422 230.55 122.422 229.668V223.836L120.28 227.922C119.956 228.534 119.47 228.84 118.822 228.84C118.174 228.84 117.688 228.534 117.382 227.94L115.24 223.836V229.668C115.24 230.55 114.682 231.09 113.908 231.09C113.134 231.09 112.576 230.55 112.576 229.668V219.822C112.576 218.832 113.134 218.22 114.088 218.22C114.79 218.22 115.312 218.526 115.618 219.138ZM133.322 224.808C132.908 224.502 132.476 224.34 132.026 224.34C130.748 224.34 129.884 225.276 129.884 226.59C129.884 227.904 130.748 228.84 132.026 228.84C132.512 228.84 132.998 228.642 133.484 228.264C134.186 227.76 134.834 227.922 135.284 228.516C135.698 229.02 135.572 229.74 134.906 230.262C134.078 230.892 133.088 231.198 131.936 231.198C130.604 231.198 129.488 230.766 128.606 229.884C127.724 229.002 127.274 227.904 127.274 226.59C127.274 225.276 127.724 224.178 128.606 223.296C129.506 222.414 130.622 221.964 131.936 221.964C132.962 221.964 133.862 222.234 134.618 222.792C135.284 223.314 135.464 224.07 135.086 224.574C134.672 225.15 134.024 225.294 133.322 224.808ZM142.064 231H139.616C138.536 231 137.906 230.37 137.906 229.29V220.11C137.906 219.03 138.536 218.4 139.616 218.4H142.064C143.864 218.4 145.466 218.85 146.834 219.786C148.22 220.704 149.102 222.432 149.102 224.61C149.102 226.824 148.22 228.552 146.852 229.542C145.484 230.496 143.846 231 142.064 231ZM141.65 220.866H140.588V228.534H141.668C144.818 228.534 146.384 227.22 146.384 224.61C146.384 222.108 144.8 220.866 141.65 220.866ZM152.144 229.884C151.262 229.002 150.812 227.904 150.812 226.59C150.812 225.276 151.262 224.178 152.144 223.296C153.044 222.414 154.16 221.964 155.474 221.964C156.788 221.964 157.904 222.414 158.786 223.296C159.686 224.178 160.136 225.276 160.136 226.59C160.136 227.904 159.686 229.002 158.804 229.884C157.922 230.766 156.806 231.198 155.474 231.198C154.142 231.198 153.026 230.766 152.144 229.884ZM153.998 224.988C153.62 225.402 153.422 225.942 153.422 226.59C153.422 227.238 153.62 227.778 153.998 228.192C154.376 228.606 154.88 228.822 155.474 228.822C156.068 228.822 156.572 228.606 156.95 228.192C157.328 227.778 157.526 227.238 157.526 226.59C157.526 225.942 157.328 225.402 156.95 224.988C156.572 224.574 156.068 224.358 155.474 224.358C154.88 224.358 154.376 224.574 153.998 224.988ZM162.267 229.722V223.458C162.267 222.612 162.825 222.09 163.545 222.09C164.139 222.09 164.535 222.36 164.733 222.882C165.255 222.27 165.957 221.964 166.875 221.964C169.053 221.964 170.457 223.404 170.457 225.87V229.722C170.457 230.568 169.917 231.09 169.179 231.09C168.441 231.09 167.901 230.568 167.901 229.722V226.068C167.901 225.06 167.433 224.34 166.443 224.34C165.363 224.34 164.823 225.096 164.823 226.59V229.722C164.931 231.522 162.159 231.522 162.267 229.722ZM173.334 222.882C174.108 222.27 175.134 221.964 176.376 221.964C177.474 221.964 178.374 222.288 179.076 222.918C179.778 223.548 180.12 224.394 180.12 225.492V229.722C180.12 230.568 179.562 231.09 178.842 231.09C178.248 231.09 177.852 230.82 177.654 230.28C177.042 230.892 176.286 231.198 175.404 231.198C174.522 231.198 173.82 230.946 173.262 230.442C172.704 229.92 172.434 229.272 172.434 228.48C172.434 227.562 172.758 226.878 173.424 226.41C174.09 225.942 174.936 225.69 175.926 225.654L177.546 225.582C177.546 224.682 177.096 224.232 176.196 224.232C175.656 224.232 175.17 224.376 174.72 224.682C174.054 225.132 173.406 225.078 173.028 224.574C172.614 224.088 172.74 223.368 173.334 222.882ZM175.008 228.336C175.008 228.768 175.386 229.038 176.034 229.038C176.556 229.038 177.06 228.858 177.546 228.498V227.454L176.412 227.544C175.476 227.598 175.008 227.85 175.008 228.336ZM185.39 219.678V229.722C185.498 231.522 182.726 231.522 182.834 229.722V219.678C182.726 217.878 185.498 217.878 185.39 219.678ZM196.731 219.678V229.722C196.731 230.568 196.173 231.09 195.453 231.09C194.841 231.09 194.445 230.82 194.265 230.262C193.815 230.82 192.861 231.198 191.907 231.198C190.665 231.198 189.603 230.784 188.757 229.938C187.911 229.092 187.497 227.976 187.497 226.59C187.497 225.222 187.911 224.106 188.757 223.26C189.603 222.396 190.665 221.964 191.907 221.964C192.825 221.964 193.581 222.216 194.175 222.738V219.678C194.067 217.878 196.839 217.878 196.731 219.678ZM193.617 228.246C194.013 227.814 194.211 227.256 194.211 226.59C194.211 225.924 194.013 225.366 193.617 224.934C193.239 224.502 192.753 224.286 192.159 224.286C191.565 224.286 191.079 224.502 190.683 224.934C190.305 225.366 190.107 225.924 190.107 226.59C190.107 227.256 190.305 227.814 190.683 228.246C191.079 228.678 191.565 228.894 192.159 228.894C192.753 228.894 193.239 228.678 193.617 228.246ZM21.6144 243.696C22.2624 244.272 22.3164 245.064 21.8124 245.586C21.3264 246.162 20.6064 246.234 19.9044 245.658C19.1664 245.01 18.2844 244.686 17.2404 244.686C16.2504 244.686 15.3864 245.046 14.6304 245.766C13.8924 246.468 13.5144 247.44 13.5144 248.664C13.5144 249.906 13.8924 250.896 14.6304 251.616C15.3684 252.336 16.2864 252.696 17.3844 252.696C18.4104 252.696 19.3104 252.372 20.1024 251.706C20.8044 251.148 21.5244 251.22 22.0104 251.778C22.5144 252.3 22.4604 253.092 21.8124 253.668C20.6604 254.694 19.2024 255.198 17.4564 255.198C15.5304 255.198 13.9284 254.604 12.6504 253.416C11.3904 252.228 10.7604 250.662 10.7604 248.718C10.7604 246.756 11.3904 245.172 12.6504 243.984C13.9104 242.778 15.4764 242.184 17.3664 242.184C19.0044 242.184 20.4264 242.688 21.6144 243.696ZM25.5199 253.884C24.6379 253.002 24.1879 251.904 24.1879 250.59C24.1879 249.276 24.6379 248.178 25.5199 247.296C26.4199 246.414 27.5359 245.964 28.8499 245.964C30.1639 245.964 31.2799 246.414 32.1619 247.296C33.0619 248.178 33.5119 249.276 33.5119 250.59C33.5119 251.904 33.0619 253.002 32.1799 253.884C31.2979 254.766 30.1819 255.198 28.8499 255.198C27.5179 255.198 26.4019 254.766 25.5199 253.884ZM27.3739 248.988C26.9959 249.402 26.7979 249.942 26.7979 250.59C26.7979 251.238 26.9959 251.778 27.3739 252.192C27.7519 252.606 28.2559 252.822 28.8499 252.822C29.4439 252.822 29.9479 252.606 30.3259 252.192C30.7039 251.778 30.9019 251.238 30.9019 250.59C30.9019 249.942 30.7039 249.402 30.3259 248.988C29.9479 248.574 29.4439 248.358 28.8499 248.358C28.2559 248.358 27.7519 248.574 27.3739 248.988ZM35.6431 253.722V247.458C35.6431 246.612 36.2011 246.09 36.9211 246.09C37.5151 246.09 37.9111 246.36 38.1091 246.882C38.6311 246.27 39.3331 245.964 40.2511 245.964C42.4291 245.964 43.8331 247.404 43.8331 249.87V253.722C43.8331 254.568 43.2931 255.09 42.5551 255.09C41.8171 255.09 41.2771 254.568 41.2771 253.722V250.068C41.2771 249.06 40.8091 248.34 39.8191 248.34C38.7391 248.34 38.1991 249.096 38.1991 250.59V253.722C38.3071 255.522 35.5351 255.522 35.6431 253.722ZM45.9723 254.172C45.3243 253.65 45.3063 252.858 45.7923 252.336C46.2423 251.778 46.9263 251.724 47.6283 252.246C48.0423 252.588 48.4743 252.75 48.9243 252.75C49.9863 252.75 50.5623 252.048 50.5623 250.77V243.714C50.5623 242.832 51.1203 242.292 51.8943 242.292C52.6683 242.292 53.2263 242.832 53.2263 243.714V250.662C53.2263 253.596 51.6423 255.198 48.9063 255.198C47.7723 255.198 46.8003 254.856 45.9723 254.172ZM63.5109 247.458V253.722C63.5109 254.568 62.9529 255.09 62.2329 255.09C61.6569 255.09 61.2609 254.82 61.0629 254.298C60.5589 254.892 59.8389 255.198 58.8849 255.198C56.7249 255.198 55.5189 253.812 55.5189 251.31V247.458C55.4109 245.658 58.1829 245.658 58.0749 247.458V251.112C58.0749 252.264 58.5249 252.84 59.4249 252.84C60.5589 252.84 60.9549 252.048 60.9549 250.59V247.458C60.8469 245.658 63.6189 245.658 63.5109 247.458ZM66.3521 253.722V247.458C66.3521 246.612 66.9101 246.09 67.6301 246.09C68.2241 246.09 68.6201 246.36 68.8181 246.882C69.3401 246.27 70.0421 245.964 70.9601 245.964C73.1381 245.964 74.5421 247.404 74.5421 249.87V253.722C74.5421 254.568 74.0021 255.09 73.2641 255.09C72.5261 255.09 71.9861 254.568 71.9861 253.722V250.068C71.9861 249.06 71.5181 248.34 70.5281 248.34C69.4481 248.34 68.9081 249.096 68.9081 250.59V253.722C69.0161 255.522 66.2441 255.522 66.3521 253.722ZM80.6258 252.66C81.4358 252.75 81.8678 253.2 81.8678 253.866C81.8678 254.532 81.3818 255.036 80.4998 255.036H80.2658C78.2138 255.036 77.1878 253.992 77.1878 251.886V248.538H76.8638C76.0718 248.538 75.5858 248.034 75.5858 247.368C75.5858 246.702 76.0718 246.18 76.8638 246.18H77.1878V244.992C77.0798 243.192 79.8518 243.192 79.7258 244.992V246.18H80.5898C81.3818 246.18 81.8678 246.702 81.8678 247.368C81.8678 248.034 81.3818 248.538 80.5898 248.538H79.7258V251.58C79.7258 252.318 80.0318 252.606 80.6258 252.66ZM84.7231 253.884C83.8411 253.002 83.3911 251.904 83.3911 250.59C83.3911 249.276 83.8411 248.178 84.7231 247.296C85.6231 246.414 86.7391 245.964 88.0531 245.964C89.3671 245.964 90.4831 246.414 91.3651 247.296C92.2651 248.178 92.7151 249.276 92.7151 250.59C92.7151 251.904 92.2651 253.002 91.3831 253.884C90.5011 254.766 89.3851 255.198 88.0531 255.198C86.7211 255.198 85.6051 254.766 84.7231 253.884ZM86.5771 248.988C86.1991 249.402 86.0011 249.942 86.0011 250.59C86.0011 251.238 86.1991 251.778 86.5771 252.192C86.9551 252.606 87.4591 252.822 88.0531 252.822C88.6471 252.822 89.1511 252.606 89.5291 252.192C89.9071 251.778 90.1051 251.238 90.1051 250.59C90.1051 249.942 89.9071 249.402 89.5291 248.988C89.1511 248.574 88.6471 248.358 88.0531 248.358C87.4591 248.358 86.9551 248.574 86.5771 248.988ZM95.0622 254.226C94.4682 253.704 94.3962 253.02 94.8462 252.516C95.3322 251.976 95.8902 251.958 96.5382 252.48C97.0242 252.858 97.6722 253.056 98.4642 253.056C99.0222 253.056 99.4542 252.858 99.4542 252.516C99.4542 252.228 99.2562 252.084 98.6622 251.922L97.6722 251.634C95.7102 251.076 94.7922 250.176 94.7922 248.754C94.7922 247.908 95.1162 247.242 95.7822 246.738C96.4482 246.216 97.2582 245.964 98.2122 245.964C99.2382 245.964 100.102 246.18 100.822 246.63C101.47 247.062 101.632 247.71 101.29 248.268C100.912 248.844 100.3 249.006 99.5982 248.592C99.1302 248.286 98.6262 248.142 98.1042 248.142C97.6002 248.142 97.2762 248.34 97.2762 248.628C97.2762 248.898 97.4742 249.006 97.9062 249.132L99.0402 249.438C100.84 249.942 101.938 250.716 101.938 252.354C101.938 254.028 100.498 255.198 98.2482 255.198C96.8982 255.198 95.8362 254.874 95.0622 254.226ZM104.753 248.628C104.159 248.034 104.159 247.026 104.753 246.432C105.347 245.802 106.355 245.802 106.949 246.432C107.579 247.026 107.579 248.034 106.949 248.628C106.355 249.222 105.347 249.222 104.753 248.628ZM106.625 254.496L105.419 257.07C105.149 257.646 104.627 257.88 104.069 257.736C103.421 257.538 103.043 256.944 103.313 256.242L104.285 253.596C104.573 252.804 105.221 252.48 105.959 252.714C106.661 252.93 106.967 253.722 106.625 254.496ZM122.984 249.834C122.984 250.77 122.516 251.238 121.562 251.238H117.044C117.188 252.192 117.926 252.858 119.024 252.858C119.636 252.858 120.158 252.678 120.608 252.318C121.31 251.814 121.958 251.976 122.408 252.57C122.822 253.074 122.696 253.794 122.03 254.316C121.256 254.91 120.266 255.198 119.096 255.198C117.746 255.198 116.648 254.784 115.766 253.956C114.884 253.11 114.452 252.012 114.452 250.644C114.452 249.294 114.848 248.178 115.658 247.296C116.468 246.414 117.512 245.964 118.79 245.964C119.672 245.964 120.446 246.18 121.112 246.594C122.462 247.44 122.984 248.628 122.984 249.834ZM118.844 248.214C117.926 248.214 117.332 248.754 117.17 249.528H120.338C120.284 248.79 119.69 248.214 118.844 248.214ZM125.168 253.722V247.458C125.168 246.612 125.726 246.09 126.446 246.09C127.04 246.09 127.436 246.36 127.634 246.882C128.156 246.27 128.858 245.964 129.776 245.964C131.954 245.964 133.358 247.404 133.358 249.87V253.722C133.358 254.568 132.818 255.09 132.08 255.09C131.342 255.09 130.802 254.568 130.802 253.722V250.068C130.802 249.06 130.334 248.34 129.344 248.34C128.264 248.34 127.724 249.096 127.724 250.59V253.722C127.832 255.522 125.06 255.522 125.168 253.722ZM139.442 252.66C140.252 252.75 140.684 253.2 140.684 253.866C140.684 254.532 140.198 255.036 139.316 255.036H139.082C137.03 255.036 136.004 253.992 136.004 251.886V248.538H135.68C134.888 248.538 134.402 248.034 134.402 247.368C134.402 246.702 134.888 246.18 135.68 246.18H136.004V244.992C135.896 243.192 138.668 243.192 138.542 244.992V246.18H139.406C140.198 246.18 140.684 246.702 140.684 247.368C140.684 248.034 140.198 248.538 139.406 248.538H138.542V251.58C138.542 252.318 138.848 252.606 139.442 252.66ZM148.199 246.126C148.775 246.27 149.207 246.72 149.207 247.386C149.207 248.088 148.721 248.574 148.091 248.574C147.965 248.574 147.695 248.538 147.533 248.538C146.309 248.538 145.373 249.528 145.373 251.31V253.722C145.481 255.522 142.709 255.522 142.817 253.722V247.458C142.817 246.612 143.375 246.09 144.095 246.09C144.761 246.09 145.247 246.522 145.337 247.152C145.841 246.45 146.705 246.054 147.479 246.054C147.785 246.054 148.019 246.072 148.199 246.126ZM158.474 249.834C158.474 250.77 158.006 251.238 157.052 251.238H152.534C152.678 252.192 153.416 252.858 154.514 252.858C155.126 252.858 155.648 252.678 156.098 252.318C156.8 251.814 157.448 251.976 157.898 252.57C158.312 253.074 158.186 253.794 157.52 254.316C156.746 254.91 155.756 255.198 154.586 255.198C153.236 255.198 152.138 254.784 151.256 253.956C150.374 253.11 149.942 252.012 149.942 250.644C149.942 249.294 150.338 248.178 151.148 247.296C151.958 246.414 153.002 245.964 154.28 245.964C155.162 245.964 155.936 246.18 156.602 246.594C157.952 247.44 158.474 248.628 158.474 249.834ZM154.334 248.214C153.416 248.214 152.822 248.754 152.66 249.528H155.828C155.774 248.79 155.18 248.214 154.334 248.214ZM165.686 253.722V247.458C165.686 246.612 166.244 246.09 166.964 246.09C167.558 246.09 167.954 246.36 168.152 246.882C168.674 246.27 169.412 245.964 170.33 245.964C171.356 245.964 172.166 246.324 172.778 247.026C173.48 246.324 174.362 245.964 175.424 245.964C177.782 245.964 179.114 247.368 179.114 249.87V253.722C179.222 255.522 176.45 255.522 176.558 253.722V249.978C176.558 248.988 176.09 248.34 175.208 248.34C174.254 248.34 173.678 249.078 173.678 250.302V253.722C173.786 255.522 171.014 255.522 171.122 253.722V249.978C171.122 248.988 170.654 248.34 169.772 248.34C168.764 248.34 168.242 249.114 168.242 250.482V253.722C168.35 255.522 165.578 255.522 165.686 253.722ZM181.992 246.882C182.766 246.27 183.792 245.964 185.034 245.964C186.132 245.964 187.032 246.288 187.734 246.918C188.436 247.548 188.778 248.394 188.778 249.492V253.722C188.778 254.568 188.22 255.09 187.5 255.09C186.906 255.09 186.51 254.82 186.312 254.28C185.7 254.892 184.944 255.198 184.062 255.198C183.18 255.198 182.478 254.946 181.92 254.442C181.362 253.92 181.092 253.272 181.092 252.48C181.092 251.562 181.416 250.878 182.082 250.41C182.748 249.942 183.594 249.69 184.584 249.654L186.204 249.582C186.204 248.682 185.754 248.232 184.854 248.232C184.314 248.232 183.828 248.376 183.378 248.682C182.712 249.132 182.064 249.078 181.686 248.574C181.272 248.088 181.398 247.368 181.992 246.882ZM183.666 252.336C183.666 252.768 184.044 253.038 184.692 253.038C185.214 253.038 185.718 252.858 186.204 252.498V251.454L185.07 251.544C184.134 251.598 183.666 251.85 183.666 252.336ZM200.009 243.678V253.722C200.009 254.568 199.451 255.09 198.731 255.09C198.119 255.09 197.723 254.82 197.543 254.262C197.093 254.82 196.139 255.198 195.185 255.198C193.943 255.198 192.881 254.784 192.035 253.938C191.189 253.092 190.775 251.976 190.775 250.59C190.775 249.222 191.189 248.106 192.035 247.26C192.881 246.396 193.943 245.964 195.185 245.964C196.103 245.964 196.859 246.216 197.453 246.738V243.678C197.345 241.878 200.117 241.878 200.009 243.678ZM196.895 252.246C197.291 251.814 197.489 251.256 197.489 250.59C197.489 249.924 197.291 249.366 196.895 248.934C196.517 248.502 196.031 248.286 195.437 248.286C194.843 248.286 194.357 248.502 193.961 248.934C193.583 249.366 193.385 249.924 193.385 250.59C193.385 251.256 193.583 251.814 193.961 252.246C194.357 252.678 194.843 252.894 195.437 252.894C196.031 252.894 196.517 252.678 196.895 252.246ZM208.211 246.126C208.787 246.27 209.219 246.72 209.219 247.386C209.219 248.088 208.733 248.574 208.103 248.574C207.977 248.574 207.707 248.538 207.545 248.538C206.321 248.538 205.385 249.528 205.385 251.31V253.722C205.493 255.522 202.721 255.522 202.829 253.722V247.458C202.829 246.612 203.387 246.09 204.107 246.09C204.773 246.09 205.259 246.522 205.349 247.152C205.853 246.45 206.717 246.054 207.491 246.054C207.797 246.054 208.031 246.072 208.211 246.126ZM218.486 249.834C218.486 250.77 218.018 251.238 217.064 251.238H212.546C212.69 252.192 213.428 252.858 214.526 252.858C215.138 252.858 215.66 252.678 216.11 252.318C216.812 251.814 217.46 251.976 217.91 252.57C218.324 253.074 218.198 253.794 217.532 254.316C216.758 254.91 215.768 255.198 214.598 255.198C213.248 255.198 212.15 254.784 211.268 253.956C210.386 253.11 209.954 252.012 209.954 250.644C209.954 249.294 210.35 248.178 211.16 247.296C211.97 246.414 213.014 245.964 214.292 245.964C215.174 245.964 215.948 246.18 216.614 246.594C217.964 247.44 218.486 248.628 218.486 249.834ZM214.346 248.214C213.428 248.214 212.834 248.754 212.672 249.528H215.84C215.786 248.79 215.192 248.214 214.346 248.214ZM220.886 254.226C220.292 253.704 220.22 253.02 220.67 252.516C221.156 251.976 221.714 251.958 222.362 252.48C222.848 252.858 223.496 253.056 224.288 253.056C224.846 253.056 225.278 252.858 225.278 252.516C225.278 252.228 225.08 252.084 224.486 251.922L223.496 251.634C221.534 251.076 220.616 250.176 220.616 248.754C220.616 247.908 220.94 247.242 221.606 246.738C222.272 246.216 223.082 245.964 224.036 245.964C225.062 245.964 225.926 246.18 226.646 246.63C227.294 247.062 227.456 247.71 227.114 248.268C226.736 248.844 226.124 249.006 225.422 248.592C224.954 248.286 224.45 248.142 223.928 248.142C223.424 248.142 223.1 248.34 223.1 248.628C223.1 248.898 223.298 249.006 223.73 249.132L224.864 249.438C226.664 249.942 227.762 250.716 227.762 252.354C227.762 254.028 226.322 255.198 224.072 255.198C222.722 255.198 221.66 254.874 220.886 254.226ZM232.464 254.496L231.258 257.07C230.988 257.646 230.466 257.88 229.908 257.736C229.26 257.538 228.882 256.944 229.152 256.242L230.124 253.596C230.412 252.804 231.06 252.48 231.798 252.714C232.5 252.93 232.806 253.722 232.464 254.496ZM37.7876 281.214V271.44C37.7876 270.576 38.3456 270.072 39.0656 270.072C39.6776 270.072 40.0736 270.342 40.2536 270.9C40.7036 270.342 41.6576 269.964 42.6116 269.964C43.8536 269.964 44.8976 270.396 45.7436 271.242C46.5896 272.088 47.0216 273.204 47.0216 274.59C47.0216 275.958 46.5896 277.074 45.7436 277.92C44.8976 278.766 43.8536 279.198 42.6116 279.198C41.6936 279.198 40.9376 278.946 40.3436 278.424V281.214C40.4516 283.014 37.6796 283.014 37.7876 281.214ZM40.8836 272.934C40.5056 273.366 40.3076 273.924 40.3076 274.59C40.3076 275.256 40.5056 275.814 40.8836 276.246C41.2796 276.678 41.7656 276.894 42.3596 276.894C42.9536 276.894 43.4396 276.678 43.8176 276.246C44.2136 275.814 44.4116 275.256 44.4116 274.59C44.4116 273.924 44.2136 273.366 43.8176 272.934C43.4396 272.502 42.9536 272.286 42.3596 272.286C41.7656 272.286 41.2796 272.502 40.8836 272.934ZM49.5755 270.882C50.3495 270.27 51.3755 269.964 52.6175 269.964C53.7155 269.964 54.6155 270.288 55.3175 270.918C56.0195 271.548 56.3615 272.394 56.3615 273.492V277.722C56.3615 278.568 55.8035 279.09 55.0835 279.09C54.4895 279.09 54.0935 278.82 53.8955 278.28C53.2835 278.892 52.5275 279.198 51.6455 279.198C50.7635 279.198 50.0615 278.946 49.5035 278.442C48.9455 277.92 48.6755 277.272 48.6755 276.48C48.6755 275.562 48.9995 274.878 49.6655 274.41C50.3315 273.942 51.1775 273.69 52.1675 273.654L53.7875 273.582C53.7875 272.682 53.3375 272.232 52.4375 272.232C51.8975 272.232 51.4115 272.376 50.9615 272.682C50.2955 273.132 49.6475 273.078 49.2695 272.574C48.8555 272.088 48.9815 271.368 49.5755 270.882ZM51.2495 276.336C51.2495 276.768 51.6275 277.038 52.2755 277.038C52.7975 277.038 53.3015 276.858 53.7875 276.498V275.454L52.6535 275.544C51.7175 275.598 51.2495 275.85 51.2495 276.336ZM67.5934 267.678V277.722C67.5934 278.568 67.0354 279.09 66.3154 279.09C65.7034 279.09 65.3074 278.82 65.1274 278.262C64.6774 278.82 63.7234 279.198 62.7694 279.198C61.5274 279.198 60.4654 278.784 59.6194 277.938C58.7734 277.092 58.3594 275.976 58.3594 274.59C58.3594 273.222 58.7734 272.106 59.6194 271.26C60.4654 270.396 61.5274 269.964 62.7694 269.964C63.6874 269.964 64.4434 270.216 65.0374 270.738V267.678C64.9294 265.878 67.7014 265.878 67.5934 267.678ZM64.4794 276.246C64.8754 275.814 65.0734 275.256 65.0734 274.59C65.0734 273.924 64.8754 273.366 64.4794 272.934C64.1014 272.502 63.6154 272.286 63.0214 272.286C62.4274 272.286 61.9414 272.502 61.5454 272.934C61.1674 273.366 60.9694 273.924 60.9694 274.59C60.9694 275.256 61.1674 275.814 61.5454 276.246C61.9414 276.678 62.4274 276.894 63.0214 276.894C63.6154 276.894 64.1014 276.678 64.4794 276.246ZM75.7946 270.126C76.3706 270.27 76.8026 270.72 76.8026 271.386C76.8026 272.088 76.3166 272.574 75.6866 272.574C75.5606 272.574 75.2906 272.538 75.1286 272.538C73.9046 272.538 72.9686 273.528 72.9686 275.31V277.722C73.0766 279.522 70.3046 279.522 70.4126 277.722V271.458C70.4126 270.612 70.9706 270.09 71.6906 270.09C72.3566 270.09 72.8426 270.522 72.9326 271.152C73.4366 270.45 74.3006 270.054 75.0746 270.054C75.3806 270.054 75.6146 270.072 75.7946 270.126ZM86.0695 273.834C86.0695 274.77 85.6015 275.238 84.6475 275.238H80.1295C80.2735 276.192 81.0115 276.858 82.1095 276.858C82.7215 276.858 83.2435 276.678 83.6935 276.318C84.3955 275.814 85.0435 275.976 85.4935 276.57C85.9075 277.074 85.7815 277.794 85.1155 278.316C84.3415 278.91 83.3515 279.198 82.1815 279.198C80.8315 279.198 79.7335 278.784 78.8515 277.956C77.9695 277.11 77.5375 276.012 77.5375 274.644C77.5375 273.294 77.9335 272.178 78.7435 271.296C79.5535 270.414 80.5975 269.964 81.8755 269.964C82.7575 269.964 83.5315 270.18 84.1975 270.594C85.5475 271.44 86.0695 272.628 86.0695 273.834ZM81.9295 272.214C81.0115 272.214 80.4175 272.754 80.2555 273.528H83.4235C83.3695 272.79 82.7755 272.214 81.9295 272.214ZM88.4704 278.226C87.8764 277.704 87.8044 277.02 88.2544 276.516C88.7404 275.976 89.2984 275.958 89.9464 276.48C90.4324 276.858 91.0804 277.056 91.8724 277.056C92.4304 277.056 92.8624 276.858 92.8624 276.516C92.8624 276.228 92.6644 276.084 92.0704 275.922L91.0804 275.634C89.1184 275.076 88.2004 274.176 88.2004 272.754C88.2004 271.908 88.5244 271.242 89.1904 270.738C89.8564 270.216 90.6664 269.964 91.6204 269.964C92.6464 269.964 93.5104 270.18 94.2304 270.63C94.8784 271.062 95.0404 271.71 94.6984 272.268C94.3204 272.844 93.7084 273.006 93.0064 272.592C92.5384 272.286 92.0344 272.142 91.5124 272.142C91.0084 272.142 90.6844 272.34 90.6844 272.628C90.6844 272.898 90.8824 273.006 91.3144 273.132L92.4484 273.438C94.2484 273.942 95.3464 274.716 95.3464 276.354C95.3464 278.028 93.9064 279.198 91.6564 279.198C90.3064 279.198 89.2444 278.874 88.4704 278.226ZM104.258 280.836L105.05 279L102.332 271.908C102.044 271.116 102.422 270.36 103.142 270.144C103.808 269.946 104.456 270.27 104.744 271.08L106.436 275.634L108.146 271.08C108.434 270.27 109.082 269.946 109.748 270.144C110.468 270.378 110.882 271.044 110.576 271.818L106.688 281.574C106.346 282.42 105.824 282.726 105.086 282.51C104.348 282.276 103.916 281.61 104.258 280.836ZM117.645 277.722V267.678C117.537 265.878 120.309 265.878 120.201 267.678V270.72C120.687 270.216 121.371 269.964 122.253 269.964C124.431 269.964 125.835 271.404 125.835 273.87V277.722C125.835 278.568 125.295 279.09 124.557 279.09C123.819 279.09 123.279 278.568 123.279 277.722V274.068C123.279 273.06 122.811 272.34 121.821 272.34C120.741 272.34 120.201 273.024 120.201 274.392V277.722C120.309 279.522 117.537 279.522 117.645 277.722ZM136.29 273.834C136.29 274.77 135.822 275.238 134.868 275.238H130.35C130.494 276.192 131.232 276.858 132.33 276.858C132.942 276.858 133.464 276.678 133.914 276.318C134.616 275.814 135.264 275.976 135.714 276.57C136.128 277.074 136.002 277.794 135.336 278.316C134.562 278.91 133.572 279.198 132.402 279.198C131.052 279.198 129.954 278.784 129.072 277.956C128.19 277.11 127.758 276.012 127.758 274.644C127.758 273.294 128.154 272.178 128.964 271.296C129.774 270.414 130.818 269.964 132.096 269.964C132.978 269.964 133.752 270.18 134.418 270.594C135.768 271.44 136.29 272.628 136.29 273.834ZM132.15 272.214C131.232 272.214 130.638 272.754 130.476 273.528H133.644C133.59 272.79 132.996 272.214 132.15 272.214ZM143.857 270.126C144.433 270.27 144.865 270.72 144.865 271.386C144.865 272.088 144.379 272.574 143.749 272.574C143.623 272.574 143.353 272.538 143.191 272.538C141.967 272.538 141.031 273.528 141.031 275.31V277.722C141.139 279.522 138.367 279.522 138.475 277.722V271.458C138.475 270.612 139.033 270.09 139.753 270.09C140.419 270.09 140.905 270.522 140.995 271.152C141.499 270.45 142.363 270.054 143.137 270.054C143.443 270.054 143.677 270.072 143.857 270.126ZM146.297 277.722V271.458C146.297 270.612 146.855 270.09 147.575 270.09C148.169 270.09 148.565 270.36 148.763 270.882C149.285 270.27 150.023 269.964 150.941 269.964C151.967 269.964 152.777 270.324 153.389 271.026C154.091 270.324 154.973 269.964 156.035 269.964C158.393 269.964 159.725 271.368 159.725 273.87V277.722C159.833 279.522 157.061 279.522 157.169 277.722V273.978C157.169 272.988 156.701 272.34 155.819 272.34C154.865 272.34 154.289 273.078 154.289 274.302V277.722C154.397 279.522 151.625 279.522 151.733 277.722V273.978C151.733 272.988 151.265 272.34 150.383 272.34C149.375 272.34 148.853 273.114 148.853 274.482V277.722C148.961 279.522 146.189 279.522 146.297 277.722ZM162.603 270.882C163.377 270.27 164.403 269.964 165.645 269.964C166.743 269.964 167.643 270.288 168.345 270.918C169.047 271.548 169.389 272.394 169.389 273.492V277.722C169.389 278.568 168.831 279.09 168.111 279.09C167.517 279.09 167.121 278.82 166.923 278.28C166.311 278.892 165.555 279.198 164.673 279.198C163.791 279.198 163.089 278.946 162.531 278.442C161.973 277.92 161.703 277.272 161.703 276.48C161.703 275.562 162.027 274.878 162.693 274.41C163.359 273.942 164.205 273.69 165.195 273.654L166.815 273.582C166.815 272.682 166.365 272.232 165.465 272.232C164.925 272.232 164.439 272.376 163.989 272.682C163.323 273.132 162.675 273.078 162.297 272.574C161.883 272.088 162.009 271.368 162.603 270.882ZM164.277 276.336C164.277 276.768 164.655 277.038 165.303 277.038C165.825 277.038 166.329 276.858 166.815 276.498V275.454L165.681 275.544C164.745 275.598 164.277 275.85 164.277 276.336ZM172.102 277.722V271.458C172.102 270.612 172.66 270.09 173.38 270.09C173.974 270.09 174.37 270.36 174.568 270.882C175.09 270.27 175.792 269.964 176.71 269.964C178.888 269.964 180.292 271.404 180.292 273.87V277.722C180.292 278.568 179.752 279.09 179.014 279.09C178.276 279.09 177.736 278.568 177.736 277.722V274.068C177.736 273.06 177.268 272.34 176.278 272.34C175.198 272.34 174.658 273.096 174.658 274.59V277.722C174.766 279.522 171.994 279.522 172.102 277.722ZM183.547 277.884C182.665 277.002 182.215 275.904 182.215 274.59C182.215 273.276 182.665 272.178 183.547 271.296C184.447 270.414 185.563 269.964 186.877 269.964C188.191 269.964 189.307 270.414 190.189 271.296C191.089 272.178 191.539 273.276 191.539 274.59C191.539 275.904 191.089 277.002 190.207 277.884C189.325 278.766 188.209 279.198 186.877 279.198C185.545 279.198 184.429 278.766 183.547 277.884ZM185.401 272.988C185.023 273.402 184.825 273.942 184.825 274.59C184.825 275.238 185.023 275.778 185.401 276.192C185.779 276.606 186.283 276.822 186.877 276.822C187.471 276.822 187.975 276.606 188.353 276.192C188.731 275.778 188.929 275.238 188.929 274.59C188.929 273.942 188.731 273.402 188.353 272.988C187.975 272.574 187.471 272.358 186.877 272.358C186.283 272.358 185.779 272.574 185.401 272.988ZM193.886 278.226C193.292 277.704 193.22 277.02 193.67 276.516C194.156 275.976 194.714 275.958 195.362 276.48C195.848 276.858 196.496 277.056 197.288 277.056C197.846 277.056 198.278 276.858 198.278 276.516C198.278 276.228 198.08 276.084 197.486 275.922L196.496 275.634C194.534 275.076 193.616 274.176 193.616 272.754C193.616 271.908 193.94 271.242 194.606 270.738C195.272 270.216 196.082 269.964 197.036 269.964C198.062 269.964 198.926 270.18 199.646 270.63C200.294 271.062 200.456 271.71 200.114 272.268C199.736 272.844 199.124 273.006 198.422 272.592C197.954 272.286 197.45 272.142 196.928 272.142C196.424 272.142 196.1 272.34 196.1 272.628C196.1 272.898 196.298 273.006 196.73 273.132L197.864 273.438C199.664 273.942 200.762 274.716 200.762 276.354C200.762 278.028 199.322 279.198 197.072 279.198C195.722 279.198 194.66 278.874 193.886 278.226ZM203.25 278.73C202.674 278.136 202.674 277.128 203.25 276.534C203.844 275.94 204.852 275.94 205.446 276.534C206.076 277.128 206.076 278.136 205.446 278.73C204.852 279.324 203.844 279.324 203.25 278.73Z" fill="#F9D332"/>
<circle cx="121.5" cy="91.5" r="78" fill="#F9D332" stroke="#930345" stroke-width="9"/>
<path d="M90.6891 94.816C87.5531 95.04 87.5531 90.176 90.6891 90.4C92.8971 90.4 94.1771 89.408 94.1771 87.872C94.1771 86.56 93.0251 85.568 91.2331 85.568C89.9211 85.568 88.8331 85.888 87.9691 86.496C86.7851 87.296 85.6331 87.2 84.8651 86.304C84.0971 85.504 84.1611 84.032 85.2811 83.136C86.8811 81.856 88.8331 81.216 91.1051 81.216C93.2811 81.216 95.1371 81.728 96.6411 82.784C98.1771 83.84 98.9451 85.376 98.9451 87.424C98.9451 89.568 98.1131 91.168 96.4491 92.288C98.1451 93.152 99.4891 95.04 99.4891 97.568C99.4891 99.712 98.6891 101.376 97.0891 102.56C95.4891 103.744 93.4731 104.352 91.0411 104.352C88.6731 104.352 86.5931 103.68 84.8331 102.368C83.6491 101.472 83.5851 99.904 84.3851 99.04C85.3131 98.016 86.4011 97.952 87.6491 98.848C88.7051 99.616 89.8891 100 91.2331 100C93.3131 100 94.7531 99.072 94.7531 97.44C94.7531 95.68 93.4091 94.816 90.6891 94.816ZM104.074 92.896L104.426 84.64C104.522 82.624 105.546 81.6 107.466 81.6H116.362C117.802 81.6 118.698 82.528 118.698 83.808C118.698 85.056 117.802 85.984 116.362 85.984H108.97L108.778 90.08C109.802 89.408 111.05 89.056 112.522 89.056C114.602 89.056 116.394 89.728 117.898 91.104C119.402 92.448 120.17 94.24 120.17 96.448C120.17 98.816 119.338 100.736 117.674 102.176C116.042 103.616 113.898 104.352 111.306 104.352C109.034 104.352 107.082 103.776 105.418 102.592C104.138 101.696 104.042 100.16 104.842 99.168C105.642 98.048 106.954 97.888 108.266 98.816C109.322 99.616 110.442 100 111.658 100C113.802 100 115.434 98.656 115.434 96.704C115.434 94.688 113.898 93.216 111.754 93.216C110.442 93.216 109.45 93.696 108.746 94.656C108.266 95.328 107.562 95.68 106.666 95.68C105.162 95.68 104.042 94.592 104.074 92.896ZM128.606 88.896C128.606 90.848 130.046 92.224 131.966 92.224C133.886 92.224 135.326 90.848 135.326 88.896C135.326 86.976 133.886 85.568 131.966 85.568C130.046 85.568 128.606 86.976 128.606 88.896ZM128.67 99.136C129.566 99.712 130.558 100 131.646 100C132.99 100 134.142 99.488 135.07 98.464C135.998 97.408 136.478 96.064 136.51 94.4C135.326 95.776 133.694 96.448 131.646 96.448C129.502 96.448 127.678 95.744 126.142 94.336C124.638 92.928 123.87 91.104 123.87 88.864C123.87 86.56 124.67 84.704 126.238 83.328C127.838 81.92 129.758 81.216 131.998 81.216C134.782 81.216 136.99 82.272 138.59 84.384C140.222 86.464 141.022 89.344 141.022 92.992C141.022 96.416 140.158 99.168 138.43 101.248C136.734 103.328 134.398 104.352 131.454 104.352C129.694 104.352 127.998 103.872 126.43 102.944C125.118 102.176 124.798 100.832 125.438 99.776C126.078 98.656 127.358 98.368 128.67 99.136ZM157.352 96.672C157.352 94.72 155.912 93.344 153.992 93.344C152.072 93.344 150.632 94.72 150.632 96.672C150.632 98.592 152.072 100 153.992 100C155.912 100 157.352 98.592 157.352 96.672ZM157.288 86.432C156.392 85.856 155.4 85.568 154.312 85.568C152.968 85.568 151.816 86.08 150.888 87.136C149.96 88.16 149.48 89.504 149.448 91.168C150.632 89.792 152.264 89.12 154.312 89.12C156.456 89.12 158.28 89.824 159.784 91.232C161.32 92.64 162.088 94.464 162.088 96.704C162.088 99.008 161.288 100.864 159.688 102.272C158.12 103.648 156.2 104.352 153.96 104.352C151.176 104.352 148.968 103.296 147.336 101.216C145.736 99.104 144.936 96.224 144.936 92.576C144.936 89.152 145.8 86.4 147.496 84.32C149.224 82.24 151.56 81.216 154.504 81.216C156.264 81.216 157.96 81.696 159.528 82.624C160.84 83.392 161.16 84.736 160.52 85.792C159.88 86.912 158.6 87.2 157.288 86.432Z" fill="#930345"/>
</svg>
