<svg width="250" height="124" viewBox="0 0 250 124" fill="none" xmlns="http://www.w3.org/2000/svg">
<path d="M-5.42021e-06 124C-2.42854e-06 55.5584 56.0065 -8.47973e-06 125 -5.46392e-06C193.994 -2.44812e-06 250 55.5584 250 124L-5.42021e-06 124Z" fill="#FF3B9D"/>
<path d="M85.1053 50.528C86.5773 51.744 88.3053 52.352 90.3213 52.352C95.1853 52.352 98.0013 49.504 98.0013 44.288V31.936C98.0013 30.368 97.0093 29.408 95.6333 29.408C94.2573 29.408 93.2653 30.368 93.2653 31.936V44.48C93.2653 46.752 92.2413 48 90.3533 48C89.5533 48 88.7853 47.712 88.0493 47.104C86.8013 46.176 85.5853 46.272 84.7853 47.264C83.9213 48.192 83.9533 49.6 85.1053 50.528ZM116.285 38.592C116.477 35.392 111.549 35.392 111.741 38.592V44.16C111.741 46.752 111.037 48.16 109.021 48.16C107.421 48.16 106.621 47.136 106.621 45.088V38.592C106.813 35.392 101.885 35.392 102.077 38.592V45.44C102.077 49.888 104.221 52.352 108.061 52.352C109.757 52.352 111.037 51.808 111.933 50.752C112.285 51.68 112.989 52.16 114.013 52.16C115.293 52.16 116.285 51.232 116.285 49.728V38.592ZM121.336 49.728C121.144 52.928 126.072 52.928 125.88 49.728V44.16C125.88 41.504 126.84 40.16 128.76 40.16C130.52 40.16 131.352 41.44 131.352 43.232V49.728C131.352 51.232 132.312 52.16 133.624 52.16C134.936 52.16 135.896 51.232 135.896 49.728V42.88C135.896 38.496 133.4 35.936 129.528 35.936C127.896 35.936 126.648 36.48 125.72 37.568C125.368 36.64 124.664 36.16 123.608 36.16C122.328 36.16 121.336 37.088 121.336 38.592V49.728ZM146.712 47.84C145.656 47.744 145.112 47.232 145.112 45.92V40.512H146.648C148.056 40.512 148.92 39.616 148.92 38.432C148.92 37.248 148.056 36.32 146.648 36.32H145.112V34.208C145.336 31.008 140.408 31.008 140.6 34.208V36.32H140.024C138.616 36.32 137.752 37.248 137.752 38.432C137.752 39.616 138.616 40.512 140.024 40.512H140.6V46.464C140.6 50.208 142.424 52.064 146.072 52.064H146.488C148.056 52.064 148.92 51.168 148.92 49.984C148.92 48.8 148.152 48 146.712 47.84ZM153.511 37.568C152.455 38.432 152.231 39.712 152.967 40.576C153.639 41.472 154.791 41.568 155.975 40.768C156.775 40.224 157.639 39.968 158.599 39.968C160.199 39.968 160.999 40.768 160.999 42.368L158.119 42.496C156.359 42.56 154.855 43.008 153.671 43.84C152.487 44.672 151.911 45.888 151.911 47.52C151.911 48.928 152.391 50.08 153.383 51.008C154.375 51.904 155.623 52.352 157.191 52.352C158.759 52.352 160.103 51.808 161.191 50.72C161.543 51.68 162.247 52.16 163.303 52.16C164.583 52.16 165.575 51.232 165.575 49.728V42.208C165.575 40.256 164.967 38.752 163.719 37.632C162.471 36.512 160.871 35.936 158.919 35.936C156.711 35.936 154.887 36.48 153.511 37.568ZM156.487 47.264C156.487 46.4 157.319 45.952 158.983 45.856L160.999 45.696V47.552C160.135 48.192 159.239 48.512 158.311 48.512C157.159 48.512 156.487 48.032 156.487 47.264ZM75.1209 68.872C75.3129 65.672 70.3849 65.672 70.5769 68.872V74.312C69.5209 73.384 68.1769 72.936 66.5449 72.936C64.3369 72.936 62.4489 73.704 60.9449 75.24C59.4409 76.744 58.7049 78.728 58.7049 81.16C58.7049 83.624 59.4409 85.608 60.9449 87.112C62.4489 88.616 64.3369 89.352 66.5449 89.352C68.2409 89.352 69.9369 88.68 70.7369 87.688C71.0569 88.68 71.7609 89.16 72.8489 89.16C74.1289 89.16 75.1209 88.232 75.1209 86.728V68.872ZM69.5849 84.104C68.9129 84.872 68.0489 85.256 66.9929 85.256C65.9369 85.256 65.0729 84.872 64.3689 84.104C63.6969 83.336 63.3449 82.344 63.3449 81.16C63.3449 79.976 63.6969 78.984 64.3689 78.216C65.0729 77.448 65.9369 77.064 66.9929 77.064C68.0489 77.064 68.9129 77.448 69.5849 78.216C70.2889 78.984 70.6409 79.976 70.6409 81.16C70.6409 82.344 70.2889 83.336 69.5849 84.104ZM79.9409 68.872C79.9409 70.312 81.1249 71.496 82.5649 71.496C84.0049 71.496 85.2209 70.312 85.2209 68.872C85.2209 67.368 84.0689 66.216 82.5649 66.216C81.1249 66.216 79.9409 67.368 79.9409 68.872ZM84.8369 86.728V75.592C84.8369 74.088 83.8769 73.16 82.5649 73.16C81.2529 73.16 80.2929 74.088 80.2929 75.592V86.728C80.2929 88.232 81.2529 89.16 82.5649 89.16C83.8769 89.16 84.8369 88.232 84.8369 86.728ZM99.6071 73.224C99.2871 73.128 98.8711 73.096 98.3271 73.096C96.9511 73.096 95.4151 73.8 94.5191 75.048C94.3591 73.928 93.4951 73.16 92.3111 73.16C91.0311 73.16 90.0391 74.088 90.0391 75.592V86.728C89.8471 89.928 94.7751 89.928 94.5831 86.728V82.44C94.5831 79.272 96.2471 77.512 98.4231 77.512C98.7111 77.512 99.1911 77.576 99.4151 77.576C100.535 77.576 101.399 76.712 101.399 75.464C101.399 74.28 100.631 73.48 99.6071 73.224ZM117.874 79.816C117.874 77.672 116.946 75.56 114.546 74.056C113.362 73.32 111.986 72.936 110.418 72.936C108.146 72.936 106.29 73.736 104.85 75.304C103.41 76.872 102.706 78.856 102.706 81.256C102.706 83.688 103.474 85.64 105.042 87.144C106.61 88.616 108.562 89.352 110.962 89.352C113.042 89.352 114.802 88.84 116.178 87.784C117.362 86.856 117.586 85.576 116.85 84.68C116.05 83.624 114.898 83.336 113.65 84.232C112.85 84.872 111.922 85.192 110.834 85.192C108.882 85.192 107.57 84.008 107.314 82.312H115.346C117.042 82.312 117.874 81.48 117.874 79.816ZM110.514 76.936C112.018 76.936 113.074 77.96 113.17 79.272H107.538C107.826 77.896 108.882 76.936 110.514 76.936ZM131.769 77.992C133.017 78.856 134.169 78.6 134.905 77.576C135.577 76.68 135.257 75.336 134.073 74.408C132.729 73.416 131.129 72.936 129.305 72.936C126.969 72.936 124.985 73.736 123.385 75.304C121.817 76.872 121.017 78.824 121.017 81.16C121.017 83.496 121.817 85.448 123.385 87.016C124.953 88.584 126.937 89.352 129.305 89.352C131.353 89.352 133.113 88.808 134.585 87.688C135.769 86.76 135.993 85.48 135.257 84.584C134.457 83.528 133.305 83.24 132.057 84.136C131.193 84.808 130.329 85.16 129.465 85.16C127.193 85.16 125.657 83.496 125.657 81.16C125.657 78.824 127.193 77.16 129.465 77.16C130.265 77.16 131.033 77.448 131.769 77.992ZM146.633 84.84C145.577 84.744 145.033 84.232 145.033 82.92V77.512H146.569C147.977 77.512 148.841 76.616 148.841 75.432C148.841 74.248 147.977 73.32 146.569 73.32H145.033V71.208C145.257 68.008 140.329 68.008 140.521 71.208V73.32H139.945C138.537 73.32 137.673 74.248 137.673 75.432C137.673 76.616 138.537 77.512 139.945 77.512H140.521V83.464C140.521 87.208 142.345 89.064 145.993 89.064H146.409C147.977 89.064 148.841 88.168 148.841 86.984C148.841 85.8 148.073 85 146.633 84.84ZM152.441 68.872C152.441 70.312 153.625 71.496 155.065 71.496C156.505 71.496 157.721 70.312 157.721 68.872C157.721 67.368 156.569 66.216 155.065 66.216C153.625 66.216 152.441 67.368 152.441 68.872ZM157.337 86.728V75.592C157.337 74.088 156.377 73.16 155.065 73.16C153.753 73.16 152.793 74.088 152.793 75.592V86.728C152.793 88.232 153.753 89.16 155.065 89.16C156.377 89.16 157.337 88.232 157.337 86.728ZM175.987 76.36C176.531 74.92 175.955 73.64 174.707 73.256C173.459 72.872 172.211 73.544 171.731 74.984L168.691 83.016L165.651 74.984C165.171 73.544 163.987 72.872 162.739 73.256C161.459 73.64 160.819 74.952 161.363 76.36L165.555 86.76C166.227 88.392 167.251 89.192 168.691 89.192C170.195 89.192 171.251 88.392 171.827 86.76L175.987 76.36ZM179.495 74.568C178.439 75.432 178.215 76.712 178.951 77.576C179.623 78.472 180.775 78.568 181.959 77.768C182.759 77.224 183.623 76.968 184.583 76.968C186.183 76.968 186.983 77.768 186.983 79.368L184.103 79.496C182.343 79.56 180.839 80.008 179.655 80.84C178.471 81.672 177.895 82.888 177.895 84.52C177.895 85.928 178.375 87.08 179.367 88.008C180.359 88.904 181.607 89.352 183.175 89.352C184.743 89.352 186.087 88.808 187.175 87.72C187.527 88.68 188.231 89.16 189.287 89.16C190.567 89.16 191.559 88.232 191.559 86.728V79.208C191.559 77.256 190.951 75.752 189.703 74.632C188.455 73.512 186.855 72.936 184.903 72.936C182.695 72.936 180.871 73.48 179.495 74.568ZM182.471 84.264C182.471 83.4 183.303 82.952 184.967 82.856L186.983 82.696V84.552C186.119 85.192 185.223 85.512 184.295 85.512C183.143 85.512 182.471 85.032 182.471 84.264Z" fill="white"/>
</svg>
