<svg width="245" height="298" viewBox="0 0 245 298" fill="none" xmlns="http://www.w3.org/2000/svg">
<rect width="244.793" height="297.688" fill="#F9D332"/>
<path d="M61.1968 228.8L56.2368 220.54V228.52C56.2368 229.5 55.6168 230.1 54.7568 230.1C53.8968 230.1 53.2768 229.5 53.2768 228.52V218.18C53.2768 216.72 54.0968 215.88 55.4568 215.88C56.4768 215.88 57.0168 216.3 57.5568 217.18L62.5168 225.44V217.46C62.5168 216.48 63.1368 215.88 63.9968 215.88C64.8568 215.88 65.4768 216.48 65.4768 217.46V227.8C65.4768 229.26 64.6568 230.1 63.2968 230.1C62.2768 230.1 61.7368 229.68 61.1968 228.8ZM68.3888 217.42C68.3888 216.48 69.1288 215.76 70.0288 215.76C70.9688 215.76 71.6888 216.48 71.6888 217.42C71.6888 218.32 70.9288 219.06 70.0288 219.06C69.1288 219.06 68.3888 218.32 68.3888 217.42ZM71.4488 228.58C71.4488 229.52 70.8488 230.1 70.0288 230.1C69.2088 230.1 68.6088 229.52 68.6088 228.58V221.62C68.6088 220.68 69.2088 220.1 70.0288 220.1C70.8488 220.1 71.4488 220.68 71.4488 221.62V228.58ZM74.4854 221.62C74.4854 220.68 75.1054 220.1 75.9054 220.1C76.5654 220.1 77.0054 220.4 77.2254 220.98C77.8054 220.3 78.5854 219.96 79.6054 219.96C82.0254 219.96 83.5854 221.56 83.5854 224.3V228.58C83.5854 229.52 82.9854 230.1 82.1654 230.1C81.3454 230.1 80.7454 229.52 80.7454 228.58V224.52C80.7454 223.4 80.2254 222.6 79.1254 222.6C77.9254 222.6 77.3254 223.44 77.3254 225.1V228.58C77.4454 230.58 74.3654 230.58 74.4854 228.58V221.62ZM78.4454 216.12L79.2654 216.38C79.5254 216.46 79.7254 216.5 79.8654 216.5C80.0654 216.5 80.2254 216.4 80.3654 216.22C80.5454 215.98 80.8254 215.86 81.1854 215.86C81.8254 215.86 82.1254 216.26 82.1254 216.88C82.1254 217.68 81.3454 218.48 80.2854 218.48C80.1854 218.48 79.9054 218.42 79.4254 218.32L78.6054 218.06C78.3454 217.98 78.1454 217.94 78.0054 217.94C77.8054 217.94 77.6454 218.04 77.5054 218.22C77.3254 218.46 77.0454 218.58 76.6854 218.58C76.0454 218.58 75.7454 218.18 75.7454 217.56C75.7454 216.76 76.5254 215.96 77.5854 215.96C77.6854 215.96 77.9654 216.02 78.4454 216.12ZM87.2023 228.76C86.2223 227.78 85.7223 226.56 85.7223 225.1C85.7223 223.64 86.2223 222.42 87.2023 221.44C88.2023 220.46 89.4423 219.96 90.9023 219.96C92.3623 219.96 93.6023 220.46 94.5823 221.44C95.5823 222.42 96.0823 223.64 96.0823 225.1C96.0823 226.56 95.5823 227.78 94.6023 228.76C93.6223 229.74 92.3823 230.22 90.9023 230.22C89.4223 230.22 88.1823 229.74 87.2023 228.76ZM89.2623 223.32C88.8423 223.78 88.6223 224.38 88.6223 225.1C88.6223 225.82 88.8423 226.42 89.2623 226.88C89.6823 227.34 90.2423 227.58 90.9023 227.58C91.5623 227.58 92.1223 227.34 92.5423 226.88C92.9623 226.42 93.1823 225.82 93.1823 225.1C93.1823 224.38 92.9623 223.78 92.5423 223.32C92.1223 222.86 91.5623 222.62 90.9023 222.62C90.2423 222.62 89.6823 222.86 89.2623 223.32ZM98.6902 229.14C98.0302 228.56 97.9502 227.8 98.4502 227.24C98.9902 226.64 99.6102 226.62 100.33 227.2C100.87 227.62 101.59 227.84 102.47 227.84C103.09 227.84 103.57 227.62 103.57 227.24C103.57 226.92 103.35 226.76 102.69 226.58L101.59 226.26C99.4102 225.64 98.3902 224.64 98.3902 223.06C98.3902 222.12 98.7502 221.38 99.4902 220.82C100.23 220.24 101.13 219.96 102.19 219.96C103.33 219.96 104.29 220.2 105.09 220.7C105.81 221.18 105.99 221.9 105.61 222.52C105.19 223.16 104.51 223.34 103.73 222.88C103.21 222.54 102.65 222.38 102.07 222.38C101.51 222.38 101.15 222.6 101.15 222.92C101.15 223.22 101.37 223.34 101.85 223.48L103.11 223.82C105.11 224.38 106.33 225.24 106.33 227.06C106.33 228.92 104.73 230.22 102.23 230.22C100.73 230.22 99.5502 229.86 98.6902 229.14ZM111.554 229.44L110.214 232.3C109.914 232.94 109.334 233.2 108.714 233.04C107.994 232.82 107.574 232.16 107.874 231.38L108.954 228.44C109.274 227.56 109.994 227.2 110.814 227.46C111.594 227.7 111.934 228.58 111.554 229.44ZM120.462 228.58V221.62C120.462 220.68 121.082 220.1 121.882 220.1C122.542 220.1 122.982 220.4 123.202 220.98C123.782 220.3 124.562 219.96 125.582 219.96C128.002 219.96 129.562 221.56 129.562 224.3V228.58C129.562 229.52 128.962 230.1 128.142 230.1C127.322 230.1 126.722 229.52 126.722 228.58V224.52C126.722 223.4 126.202 222.6 125.102 222.6C123.902 222.6 123.302 223.44 123.302 225.1V228.58C123.422 230.58 120.342 230.58 120.462 228.58ZM132.354 217.42C132.354 216.48 133.094 215.76 133.994 215.76C134.934 215.76 135.654 216.48 135.654 217.42C135.654 218.32 134.894 219.06 133.994 219.06C133.094 219.06 132.354 218.32 132.354 217.42ZM135.414 228.58C135.414 229.52 134.814 230.1 133.994 230.1C133.174 230.1 132.574 229.52 132.574 228.58V221.62C132.574 220.68 133.174 220.1 133.994 220.1C134.814 220.1 135.414 220.68 135.414 221.62V228.58ZM138.45 221.62C138.45 220.68 139.07 220.1 139.87 220.1C140.53 220.1 140.97 220.4 141.19 220.98C141.77 220.3 142.55 219.96 143.57 219.96C145.99 219.96 147.55 221.56 147.55 224.3V228.58C147.55 229.52 146.95 230.1 146.13 230.1C145.31 230.1 144.71 229.52 144.71 228.58V224.52C144.71 223.4 144.19 222.6 143.09 222.6C141.89 222.6 141.29 223.44 141.29 225.1V228.58C141.41 230.58 138.33 230.58 138.45 228.58V221.62ZM142.41 216.12L143.23 216.38C143.49 216.46 143.69 216.5 143.83 216.5C144.03 216.5 144.19 216.4 144.33 216.22C144.51 215.98 144.79 215.86 145.15 215.86C145.79 215.86 146.09 216.26 146.09 216.88C146.09 217.68 145.31 218.48 144.25 218.48C144.15 218.48 143.87 218.42 143.39 218.32L142.57 218.06C142.31 217.98 142.11 217.94 141.97 217.94C141.77 217.94 141.61 218.04 141.47 218.22C141.29 218.46 141.01 218.58 140.65 218.58C140.01 218.58 139.71 218.18 139.71 217.56C139.71 216.76 140.49 215.96 141.55 215.96C141.65 215.96 141.93 216.02 142.41 216.12ZM150.747 220.98C151.607 220.3 152.747 219.96 154.127 219.96C155.347 219.96 156.347 220.32 157.127 221.02C157.907 221.72 158.287 222.66 158.287 223.88V228.58C158.287 229.52 157.667 230.1 156.867 230.1C156.207 230.1 155.767 229.8 155.547 229.2C154.867 229.88 154.027 230.22 153.047 230.22C152.067 230.22 151.287 229.94 150.667 229.38C150.047 228.8 149.747 228.08 149.747 227.2C149.747 226.18 150.107 225.42 150.847 224.9C151.587 224.38 152.527 224.1 153.627 224.06L155.427 223.98C155.427 222.98 154.927 222.48 153.927 222.48C153.327 222.48 152.787 222.64 152.287 222.98C151.547 223.48 150.827 223.42 150.407 222.86C149.947 222.32 150.087 221.52 150.747 220.98ZM152.607 227.04C152.607 227.52 153.027 227.82 153.747 227.82C154.327 227.82 154.887 227.62 155.427 227.22V226.06L154.167 226.16C153.127 226.22 152.607 226.5 152.607 227.04ZM161.327 229.14C160.667 228.56 160.587 227.8 161.087 227.24C161.627 226.64 162.247 226.62 162.967 227.2C163.507 227.62 164.227 227.84 165.107 227.84C165.727 227.84 166.207 227.62 166.207 227.24C166.207 226.92 165.987 226.76 165.327 226.58L164.227 226.26C162.047 225.64 161.027 224.64 161.027 223.06C161.027 222.12 161.387 221.38 162.127 220.82C162.867 220.24 163.767 219.96 164.827 219.96C165.967 219.96 166.927 220.2 167.727 220.7C168.447 221.18 168.627 221.9 168.247 222.52C167.827 223.16 167.147 223.34 166.367 222.88C165.847 222.54 165.287 222.38 164.707 222.38C164.147 222.38 163.787 222.6 163.787 222.92C163.787 223.22 164.007 223.34 164.487 223.48L165.747 223.82C167.747 224.38 168.967 225.24 168.967 227.06C168.967 228.92 167.367 230.22 164.867 230.22C163.367 230.22 162.187 229.86 161.327 229.14ZM178.869 232.04L179.749 230L176.729 222.12C176.409 221.24 176.829 220.4 177.629 220.16C178.369 219.94 179.089 220.3 179.409 221.2L181.289 226.26L183.189 221.2C183.509 220.3 184.229 219.94 184.969 220.16C185.769 220.42 186.229 221.16 185.889 222.02L181.569 232.86C181.189 233.8 180.609 234.14 179.789 233.9C178.969 233.64 178.489 232.9 178.869 232.04ZM61.0108 244.98C61.8708 244.3 63.0108 243.96 64.3908 243.96C65.6108 243.96 66.6108 244.32 67.3908 245.02C68.1708 245.72 68.5508 246.66 68.5508 247.88V252.58C68.5508 253.52 67.9308 254.1 67.1308 254.1C66.4708 254.1 66.0308 253.8 65.8108 253.2C65.1308 253.88 64.2908 254.22 63.3108 254.22C62.3308 254.22 61.5508 253.94 60.9308 253.38C60.3108 252.8 60.0108 252.08 60.0108 251.2C60.0108 250.18 60.3708 249.42 61.1108 248.9C61.8508 248.38 62.7908 248.1 63.8908 248.06L65.6908 247.98C65.6908 246.98 65.1908 246.48 64.1908 246.48C63.5908 246.48 63.0508 246.64 62.5508 246.98C61.8108 247.48 61.0908 247.42 60.6708 246.86C60.2108 246.32 60.3508 245.52 61.0108 244.98ZM62.8708 251.04C62.8708 251.52 63.2908 251.82 64.0108 251.82C64.5908 251.82 65.1508 251.62 65.6908 251.22V250.06L64.4308 250.16C63.3908 250.22 62.8708 250.5 62.8708 251.04ZM81.0306 241.42V252.58C81.0306 253.52 80.4106 254.1 79.6106 254.1C78.9306 254.1 78.4906 253.8 78.2906 253.18C77.7906 253.8 76.7306 254.22 75.6706 254.22C74.2906 254.22 73.1106 253.76 72.1706 252.82C71.2306 251.88 70.7706 250.64 70.7706 249.1C70.7706 247.58 71.2306 246.34 72.1706 245.4C73.1106 244.44 74.2906 243.96 75.6706 243.96C76.6906 243.96 77.5306 244.24 78.1906 244.82V241.42C78.0706 239.42 81.1506 239.42 81.0306 241.42ZM77.5706 250.94C78.0106 250.46 78.2306 249.84 78.2306 249.1C78.2306 248.36 78.0106 247.74 77.5706 247.26C77.1506 246.78 76.6106 246.54 75.9506 246.54C75.2906 246.54 74.7506 246.78 74.3106 247.26C73.8906 247.74 73.6706 248.36 73.6706 249.1C73.6706 249.84 73.8906 250.46 74.3106 250.94C74.7506 251.42 75.2906 251.66 75.9506 251.66C76.6106 251.66 77.1506 251.42 77.5706 250.94ZM84.8683 252.76C83.8883 251.78 83.3883 250.56 83.3883 249.1C83.3883 247.64 83.8883 246.42 84.8683 245.44C85.8683 244.46 87.1083 243.96 88.5683 243.96C90.0283 243.96 91.2683 244.46 92.2483 245.44C93.2483 246.42 93.7483 247.64 93.7483 249.1C93.7483 250.56 93.2483 251.78 92.2683 252.76C91.2883 253.74 90.0483 254.22 88.5683 254.22C87.0883 254.22 85.8483 253.74 84.8683 252.76ZM86.9283 247.32C86.5083 247.78 86.2883 248.38 86.2883 249.1C86.2883 249.82 86.5083 250.42 86.9283 250.88C87.3483 251.34 87.9083 251.58 88.5683 251.58C89.2283 251.58 89.7883 251.34 90.2083 250.88C90.6283 250.42 90.8483 249.82 90.8483 249.1C90.8483 248.38 90.6283 247.78 90.2083 247.32C89.7883 246.86 89.2283 246.62 88.5683 246.62C87.9083 246.62 87.3483 246.86 86.9283 247.32ZM98.9563 241.42V252.58C99.0763 254.58 95.9963 254.58 96.1163 252.58V241.42C95.9963 239.42 99.0763 239.42 98.9563 241.42ZM110.798 248.26C110.798 249.3 110.278 249.82 109.218 249.82H104.198C104.358 250.88 105.178 251.62 106.398 251.62C107.078 251.62 107.658 251.42 108.158 251.02C108.938 250.46 109.658 250.64 110.158 251.3C110.618 251.86 110.478 252.66 109.738 253.24C108.878 253.9 107.778 254.22 106.478 254.22C104.978 254.22 103.758 253.76 102.778 252.84C101.798 251.9 101.318 250.68 101.318 249.16C101.318 247.66 101.758 246.42 102.658 245.44C103.558 244.46 104.718 243.96 106.138 243.96C107.118 243.96 107.978 244.2 108.718 244.66C110.218 245.6 110.798 246.92 110.798 248.26ZM106.198 246.46C105.178 246.46 104.518 247.06 104.338 247.92H107.858C107.798 247.1 107.138 246.46 106.198 246.46ZM113.466 253.14C112.806 252.56 112.726 251.8 113.226 251.24C113.766 250.64 114.386 250.62 115.106 251.2C115.646 251.62 116.366 251.84 117.246 251.84C117.866 251.84 118.346 251.62 118.346 251.24C118.346 250.92 118.126 250.76 117.466 250.58L116.366 250.26C114.186 249.64 113.166 248.64 113.166 247.06C113.166 246.12 113.526 245.38 114.266 244.82C115.006 244.24 115.906 243.96 116.966 243.96C118.106 243.96 119.066 244.2 119.866 244.7C120.586 245.18 120.766 245.9 120.386 246.52C119.966 247.16 119.286 247.34 118.506 246.88C117.986 246.54 117.426 246.38 116.846 246.38C116.286 246.38 115.926 246.6 115.926 246.92C115.926 247.22 116.146 247.34 116.626 247.48L117.886 247.82C119.886 248.38 121.106 249.24 121.106 251.06C121.106 252.92 119.506 254.22 117.006 254.22C115.506 254.22 114.326 253.86 113.466 253.14ZM129.405 247.12C128.945 246.78 128.465 246.6 127.965 246.6C126.545 246.6 125.585 247.64 125.585 249.1C125.585 250.56 126.545 251.6 127.965 251.6C128.505 251.6 129.045 251.38 129.585 250.96C130.365 250.4 131.085 250.58 131.585 251.24C132.045 251.8 131.905 252.6 131.165 253.18C130.245 253.88 129.145 254.22 127.865 254.22C126.385 254.22 125.145 253.74 124.165 252.76C123.185 251.78 122.685 250.56 122.685 249.1C122.685 247.64 123.185 246.42 124.165 245.44C125.165 244.46 126.405 243.96 127.865 243.96C129.005 243.96 130.005 244.26 130.845 244.88C131.585 245.46 131.785 246.3 131.365 246.86C130.905 247.5 130.185 247.66 129.405 247.12ZM142.985 248.26C142.985 249.3 142.465 249.82 141.405 249.82H136.385C136.545 250.88 137.365 251.62 138.585 251.62C139.265 251.62 139.845 251.42 140.345 251.02C141.125 250.46 141.845 250.64 142.345 251.3C142.805 251.86 142.665 252.66 141.925 253.24C141.065 253.9 139.965 254.22 138.665 254.22C137.165 254.22 135.945 253.76 134.965 252.84C133.985 251.9 133.505 250.68 133.505 249.16C133.505 247.66 133.945 246.42 134.845 245.44C135.745 244.46 136.905 243.96 138.325 243.96C139.305 243.96 140.165 244.2 140.905 244.66C142.405 245.6 142.985 246.92 142.985 248.26ZM138.385 246.46C137.365 246.46 136.705 247.06 136.525 247.92H140.045C139.985 247.1 139.325 246.46 138.385 246.46ZM145.413 252.58V245.62C145.413 244.68 146.033 244.1 146.833 244.1C147.493 244.1 147.933 244.4 148.153 244.98C148.733 244.3 149.513 243.96 150.533 243.96C152.953 243.96 154.513 245.56 154.513 248.3V252.58C154.513 253.52 153.913 254.1 153.093 254.1C152.273 254.1 151.673 253.52 151.673 252.58V248.52C151.673 247.4 151.153 246.6 150.053 246.6C148.853 246.6 148.253 247.44 148.253 249.1V252.58C148.373 254.58 145.293 254.58 145.413 252.58ZM161.273 251.4C162.173 251.5 162.653 252 162.653 252.74C162.653 253.48 162.113 254.04 161.133 254.04H160.873C158.593 254.04 157.453 252.88 157.453 250.54V246.82H157.093C156.213 246.82 155.673 246.26 155.673 245.52C155.673 244.78 156.213 244.2 157.093 244.2H157.453V242.88C157.333 240.88 160.413 240.88 160.273 242.88V244.2H161.233C162.113 244.2 162.653 244.78 162.653 245.52C162.653 246.26 162.113 246.82 161.233 246.82H160.273V250.2C160.273 251.02 160.613 251.34 161.273 251.4ZM173.825 248.26C173.825 249.3 173.305 249.82 172.245 249.82H167.225C167.385 250.88 168.205 251.62 169.425 251.62C170.105 251.62 170.685 251.42 171.185 251.02C171.965 250.46 172.685 250.64 173.185 251.3C173.645 251.86 173.505 252.66 172.765 253.24C171.905 253.9 170.805 254.22 169.505 254.22C168.005 254.22 166.785 253.76 165.805 252.84C164.825 251.9 164.345 250.68 164.345 249.16C164.345 247.66 164.785 246.42 165.685 245.44C166.585 244.46 167.745 243.96 169.165 243.96C170.145 243.96 171.005 244.2 171.745 244.66C173.245 245.6 173.825 246.92 173.825 248.26ZM169.225 246.46C168.205 246.46 167.545 247.06 167.365 247.92H170.885C170.825 247.1 170.165 246.46 169.225 246.46ZM176.493 253.14C175.833 252.56 175.753 251.8 176.253 251.24C176.793 250.64 177.413 250.62 178.133 251.2C178.673 251.62 179.393 251.84 180.273 251.84C180.893 251.84 181.373 251.62 181.373 251.24C181.373 250.92 181.153 250.76 180.493 250.58L179.393 250.26C177.213 249.64 176.193 248.64 176.193 247.06C176.193 246.12 176.553 245.38 177.293 244.82C178.033 244.24 178.933 243.96 179.993 243.96C181.133 243.96 182.093 244.2 182.893 244.7C183.613 245.18 183.793 245.9 183.413 246.52C182.993 247.16 182.313 247.34 181.533 246.88C181.013 246.54 180.453 246.38 179.873 246.38C179.313 246.38 178.953 246.6 178.953 246.92C178.953 247.22 179.173 247.34 179.653 247.48L180.913 247.82C182.913 248.38 184.133 249.24 184.133 251.06C184.133 252.92 182.533 254.22 180.033 254.22C178.533 254.22 177.353 253.86 176.493 253.14ZM66.753 268.98C67.613 268.3 68.753 267.96 70.133 267.96C71.353 267.96 72.353 268.32 73.133 269.02C73.913 269.72 74.293 270.66 74.293 271.88V276.58C74.293 277.52 73.673 278.1 72.873 278.1C72.213 278.1 71.773 277.8 71.553 277.2C70.873 277.88 70.033 278.22 69.053 278.22C68.073 278.22 67.293 277.94 66.673 277.38C66.053 276.8 65.753 276.08 65.753 275.2C65.753 274.18 66.113 273.42 66.853 272.9C67.593 272.38 68.533 272.1 69.633 272.06L71.433 271.98C71.433 270.98 70.933 270.48 69.933 270.48C69.333 270.48 68.793 270.64 68.293 270.98C67.553 271.48 66.833 271.42 66.413 270.86C65.953 270.32 66.093 269.52 66.753 268.98ZM68.613 275.04C68.613 275.52 69.033 275.82 69.753 275.82C70.333 275.82 70.893 275.62 71.433 275.22V274.06L70.173 274.16C69.133 274.22 68.613 274.5 68.613 275.04ZM80.1477 265.42V276.58C80.2677 278.58 77.1877 278.58 77.3077 276.58V265.42C77.1877 263.42 80.2677 263.42 80.1477 265.42ZM83.2842 276.58V265.42C83.1642 263.42 86.2442 263.42 86.1242 265.42V268.82C86.7842 268.24 87.6242 267.96 88.6442 267.96C90.0242 267.96 91.1842 268.44 92.1242 269.4C93.0642 270.34 93.5442 271.58 93.5442 273.1C93.5442 274.64 93.0642 275.88 92.1242 276.82C91.1842 277.76 90.0242 278.22 88.6442 278.22C87.5842 278.22 86.5242 277.8 86.0242 277.18C85.8242 277.8 85.3842 278.1 84.7042 278.1C83.9042 278.1 83.2842 277.52 83.2842 276.58ZM86.7242 271.26C86.3042 271.74 86.0842 272.36 86.0842 273.1C86.0842 273.84 86.3042 274.46 86.7242 274.94C87.1642 275.42 87.7042 275.66 88.3642 275.66C89.0242 275.66 89.5642 275.42 89.9842 274.94C90.4242 274.46 90.6442 273.84 90.6442 273.1C90.6442 272.36 90.4242 271.74 89.9842 271.26C89.5642 270.78 89.0242 270.54 88.3642 270.54C87.7042 270.54 87.1642 270.78 86.7242 271.26ZM104.939 272.26C104.939 273.3 104.419 273.82 103.359 273.82H98.3386C98.4986 274.88 99.3186 275.62 100.539 275.62C101.219 275.62 101.799 275.42 102.299 275.02C103.079 274.46 103.799 274.64 104.299 275.3C104.759 275.86 104.619 276.66 103.879 277.24C103.019 277.9 101.919 278.22 100.619 278.22C99.1186 278.22 97.8986 277.76 96.9186 276.84C95.9386 275.9 95.4586 274.68 95.4586 273.16C95.4586 271.66 95.8986 270.42 96.7986 269.44C97.6986 268.46 98.8586 267.96 100.279 267.96C101.259 267.96 102.119 268.2 102.859 268.66C104.359 269.6 104.939 270.92 104.939 272.26ZM100.339 270.46C99.3186 270.46 98.6586 271.06 98.4786 271.92H101.999C101.939 271.1 101.279 270.46 100.339 270.46ZM113.346 268.14C113.986 268.3 114.466 268.8 114.466 269.54C114.466 270.32 113.926 270.86 113.226 270.86C113.086 270.86 112.786 270.82 112.606 270.82C111.246 270.82 110.206 271.92 110.206 273.9V276.58C110.326 278.58 107.246 278.58 107.366 276.58V269.62C107.366 268.68 107.986 268.1 108.786 268.1C109.526 268.1 110.066 268.58 110.166 269.28C110.726 268.5 111.686 268.06 112.546 268.06C112.886 268.06 113.146 268.08 113.346 268.14ZM122.503 272.88C122.503 271.5 121.543 270.54 120.323 270.54C119.123 270.54 118.163 271.5 118.163 272.88C118.163 274.24 119.123 275.2 120.323 275.2C121.543 275.2 122.503 274.24 122.503 272.88ZM116.443 281.02C115.703 280.46 115.703 279.54 116.243 278.98C116.743 278.44 117.423 278.42 118.283 278.96C118.863 279.3 119.423 279.48 119.983 279.48C121.483 279.48 122.443 278.6 122.443 277.3V277.04C121.883 277.54 121.083 277.78 120.063 277.78C118.663 277.78 117.503 277.34 116.603 276.46C115.703 275.58 115.263 274.38 115.263 272.88C115.263 271.36 115.723 270.16 116.663 269.28C117.603 268.4 118.723 267.96 120.063 267.96C121.103 267.96 121.943 268.3 122.563 269C122.763 268.38 123.203 268.08 123.883 268.08C124.703 268.08 125.303 268.64 125.303 269.6V276.98C125.303 278.5 124.823 279.74 123.883 280.68C122.943 281.62 121.663 282.1 120.003 282.1C118.603 282.1 117.423 281.74 116.443 281.02ZM128.706 268.98C129.566 268.3 130.706 267.96 132.086 267.96C133.306 267.96 134.306 268.32 135.086 269.02C135.866 269.72 136.246 270.66 136.246 271.88V276.58C136.246 277.52 135.626 278.1 134.826 278.1C134.166 278.1 133.726 277.8 133.506 277.2C132.826 277.88 131.986 278.22 131.006 278.22C130.026 278.22 129.246 277.94 128.626 277.38C128.006 276.8 127.706 276.08 127.706 275.2C127.706 274.18 128.066 273.42 128.806 272.9C129.546 272.38 130.486 272.1 131.586 272.06L133.386 271.98C133.386 270.98 132.886 270.48 131.886 270.48C131.286 270.48 130.746 270.64 130.246 270.98C129.506 271.48 128.786 271.42 128.366 270.86C127.906 270.32 128.046 269.52 128.706 268.98ZM130.566 275.04C130.566 275.52 130.986 275.82 131.706 275.82C132.286 275.82 132.846 275.62 133.386 275.22V274.06L132.126 274.16C131.086 274.22 130.566 274.5 130.566 275.04ZM148.726 265.42V276.58C148.726 277.52 148.106 278.1 147.306 278.1C146.626 278.1 146.186 277.8 145.986 277.18C145.486 277.8 144.426 278.22 143.366 278.22C141.986 278.22 140.806 277.76 139.866 276.82C138.926 275.88 138.466 274.64 138.466 273.1C138.466 271.58 138.926 270.34 139.866 269.4C140.806 268.44 141.986 267.96 143.366 267.96C144.386 267.96 145.226 268.24 145.886 268.82V265.42C145.766 263.42 148.846 263.42 148.726 265.42ZM145.266 274.94C145.706 274.46 145.926 273.84 145.926 273.1C145.926 272.36 145.706 271.74 145.266 271.26C144.846 270.78 144.306 270.54 143.646 270.54C142.986 270.54 142.446 270.78 142.006 271.26C141.586 271.74 141.366 272.36 141.366 273.1C141.366 273.84 141.586 274.46 142.006 274.94C142.446 275.42 142.986 275.66 143.646 275.66C144.306 275.66 144.846 275.42 145.266 274.94ZM152.564 276.76C151.584 275.78 151.084 274.56 151.084 273.1C151.084 271.64 151.584 270.42 152.564 269.44C153.564 268.46 154.804 267.96 156.264 267.96C157.724 267.96 158.964 268.46 159.944 269.44C160.944 270.42 161.444 271.64 161.444 273.1C161.444 274.56 160.944 275.78 159.964 276.76C158.984 277.74 157.744 278.22 156.264 278.22C154.784 278.22 153.544 277.74 152.564 276.76ZM154.624 271.32C154.204 271.78 153.984 272.38 153.984 273.1C153.984 273.82 154.204 274.42 154.624 274.88C155.044 275.34 155.604 275.58 156.264 275.58C156.924 275.58 157.484 275.34 157.904 274.88C158.324 274.42 158.544 273.82 158.544 273.1C158.544 272.38 158.324 271.78 157.904 271.32C157.484 270.86 156.924 270.62 156.264 270.62C155.604 270.62 155.044 270.86 154.624 271.32ZM164.052 277.14C163.392 276.56 163.312 275.8 163.812 275.24C164.352 274.64 164.972 274.62 165.692 275.2C166.232 275.62 166.952 275.84 167.832 275.84C168.452 275.84 168.932 275.62 168.932 275.24C168.932 274.92 168.712 274.76 168.052 274.58L166.952 274.26C164.772 273.64 163.752 272.64 163.752 271.06C163.752 270.12 164.112 269.38 164.852 268.82C165.592 268.24 166.492 267.96 167.552 267.96C168.692 267.96 169.652 268.2 170.452 268.7C171.172 269.18 171.352 269.9 170.972 270.52C170.552 271.16 169.872 271.34 169.092 270.88C168.572 270.54 168.012 270.38 167.432 270.38C166.872 270.38 166.512 270.6 166.512 270.92C166.512 271.22 166.732 271.34 167.212 271.48L168.472 271.82C170.472 272.38 171.692 273.24 171.692 275.06C171.692 276.92 170.092 278.22 167.592 278.22C166.092 278.22 164.912 277.86 164.052 277.14ZM174.456 277.7C173.816 277.04 173.816 275.92 174.456 275.26C175.116 274.6 176.236 274.6 176.896 275.26C177.596 275.92 177.596 277.04 176.896 277.7C176.236 278.36 175.116 278.36 174.456 277.7Z" fill="#930345"/>
<circle cx="123.5" cy="97.4997" r="77.9997" fill="white" stroke="white" stroke-width="9"/>
<path d="M85.4389 89.736L89.5349 87.24C90.4309 86.696 91.1989 86.44 91.8709 86.44C93.3749 86.44 94.3989 87.496 94.3989 89.288V104.616H97.4709C98.9109 104.616 99.8389 105.544 99.8389 106.824C99.8389 108.072 98.9429 109 97.5029 109H85.8869C84.4469 109 83.5509 108.072 83.5509 106.824C83.5509 105.544 84.4469 104.616 85.8869 104.616H89.6629V92.456L87.4229 93.768C86.4949 94.248 85.6629 94.312 84.9269 93.896C84.2229 93.48 83.8709 92.904 83.8709 92.104C83.8709 91.176 84.3829 90.376 85.4389 89.736ZM107.45 93.896C107.45 95.848 108.89 97.224 110.81 97.224C112.73 97.224 114.17 95.848 114.17 93.896C114.17 91.976 112.73 90.568 110.81 90.568C108.89 90.568 107.45 91.976 107.45 93.896ZM107.514 104.136C108.41 104.712 109.402 105 110.49 105C111.834 105 112.986 104.488 113.914 103.464C114.842 102.408 115.322 101.064 115.354 99.4C114.17 100.776 112.538 101.448 110.49 101.448C108.346 101.448 106.522 100.744 104.986 99.336C103.482 97.928 102.714 96.104 102.714 93.864C102.714 91.56 103.514 89.704 105.082 88.328C106.682 86.92 108.602 86.216 110.842 86.216C113.626 86.216 115.834 87.272 117.434 89.384C119.066 91.464 119.866 94.344 119.866 97.992C119.866 101.416 119.002 104.168 117.274 106.248C115.578 108.328 113.242 109.352 110.298 109.352C108.538 109.352 106.842 108.872 105.274 107.944C103.962 107.176 103.642 105.832 104.282 104.776C104.922 103.656 106.202 103.368 107.514 104.136ZM135.588 103.08C136.324 101.768 136.676 100.008 136.676 97.768C136.676 95.528 136.324 93.768 135.588 92.488C134.884 91.208 133.86 90.568 132.516 90.568C131.172 90.568 130.148 91.208 129.412 92.488C128.708 93.768 128.356 95.528 128.356 97.768C128.356 100.008 128.708 101.768 129.412 103.08C130.148 104.36 131.172 105 132.516 105C133.86 105 134.884 104.36 135.588 103.08ZM141.412 97.768C141.412 101.224 140.612 104.008 139.044 106.152C137.476 108.296 135.3 109.352 132.516 109.352C129.732 109.352 127.556 108.296 125.988 106.152C124.42 104.008 123.62 101.224 123.62 97.768C123.62 94.312 124.42 91.528 125.988 89.416C127.556 87.272 129.732 86.216 132.516 86.216C135.3 86.216 137.476 87.272 139.044 89.416C140.612 91.56 141.412 94.344 141.412 97.768ZM154.499 92.552L149.347 100.072H154.499V92.552ZM159.235 90.024V100.072H160.419C163.363 99.88 163.363 104.488 160.419 104.264H159.235V106.632C159.235 108.2 158.179 109.16 156.867 109.16C155.491 109.16 154.499 108.2 154.499 106.632V104.264H147.171C145.347 104.264 144.259 103.08 144.259 101.544C144.259 100.968 144.451 100.392 144.803 99.848L153.155 87.816C153.763 86.888 154.691 86.44 155.875 86.44C157.795 86.44 159.235 87.816 159.235 90.024Z" fill="#930345"/>
</svg>
