<svg width="245" height="298" viewBox="0 0 245 298" fill="none" xmlns="http://www.w3.org/2000/svg">
<rect width="244.793" height="297.688" fill="#F9D332"/>
<path d="M73.6426 234H70.3786C68.9386 234 68.0986 233.16 68.0986 231.72V219.48C68.0986 218.04 68.9386 217.2 70.3786 217.2H73.6426C76.0426 217.2 78.1786 217.8 80.0026 219.048C81.8506 220.272 83.0266 222.576 83.0266 225.48C83.0266 228.432 81.8506 230.736 80.0266 232.056C78.2026 233.328 76.0186 234 73.6426 234ZM73.0906 220.488H71.6746V230.712H73.1146C77.3146 230.712 79.4026 228.96 79.4026 225.48C79.4026 222.144 77.2906 220.488 73.0906 220.488ZM96.6826 227.112C96.6826 228.36 96.0586 228.984 94.7866 228.984H88.7626C88.9546 230.256 89.9386 231.144 91.4026 231.144C92.2186 231.144 92.9146 230.904 93.5146 230.424C94.4506 229.752 95.3146 229.968 95.9146 230.76C96.4666 231.432 96.2986 232.392 95.4106 233.088C94.3786 233.88 93.0586 234.264 91.4986 234.264C89.6986 234.264 88.2346 233.712 87.0586 232.608C85.8826 231.48 85.3066 230.016 85.3066 228.192C85.3066 226.392 85.8346 224.904 86.9146 223.728C87.9946 222.552 89.3866 221.952 91.0906 221.952C92.2666 221.952 93.2986 222.24 94.1866 222.792C95.9866 223.92 96.6826 225.504 96.6826 227.112ZM91.1626 224.952C89.9386 224.952 89.1466 225.672 88.9306 226.704H93.1546C93.0826 225.72 92.2906 224.952 91.1626 224.952ZM106.899 223.176C107.931 222.36 109.299 221.952 110.955 221.952C112.419 221.952 113.619 222.384 114.555 223.224C115.491 224.064 115.947 225.192 115.947 226.656V232.296C115.947 233.424 115.203 234.12 114.243 234.12C113.451 234.12 112.923 233.76 112.659 233.04C111.843 233.856 110.835 234.264 109.659 234.264C108.483 234.264 107.547 233.928 106.803 233.256C106.059 232.56 105.699 231.696 105.699 230.64C105.699 229.416 106.131 228.504 107.019 227.88C107.907 227.256 109.035 226.92 110.355 226.872L112.515 226.776C112.515 225.576 111.915 224.976 110.715 224.976C109.995 224.976 109.347 225.168 108.747 225.576C107.859 226.176 106.995 226.104 106.491 225.432C105.939 224.784 106.107 223.824 106.899 223.176ZM109.131 230.448C109.131 231.024 109.635 231.384 110.499 231.384C111.195 231.384 111.867 231.144 112.515 230.664V229.272L111.003 229.392C109.755 229.464 109.131 229.8 109.131 230.448ZM119.565 232.296V218.904C119.421 216.504 123.117 216.504 122.973 218.904V222.96C123.621 222.288 124.533 221.952 125.709 221.952C128.613 221.952 130.484 223.872 130.484 227.16V232.296C130.484 233.424 129.765 234.12 128.781 234.12C127.797 234.12 127.077 233.424 127.077 232.296V227.424C127.077 226.08 126.453 225.12 125.133 225.12C123.693 225.12 122.973 226.032 122.973 227.856V232.296C123.117 234.696 119.421 234.696 119.565 232.296ZM134.825 232.512C133.649 231.336 133.049 229.872 133.049 228.12C133.049 226.368 133.649 224.904 134.825 223.728C136.025 222.552 137.513 221.952 139.265 221.952C141.017 221.952 142.505 222.552 143.681 223.728C144.881 224.904 145.481 226.368 145.481 228.12C145.481 229.872 144.881 231.336 143.705 232.512C142.529 233.688 141.041 234.264 139.265 234.264C137.489 234.264 136.001 233.688 134.825 232.512ZM137.297 225.984C136.793 226.536 136.529 227.256 136.529 228.12C136.529 228.984 136.793 229.704 137.297 230.256C137.801 230.808 138.473 231.096 139.265 231.096C140.057 231.096 140.729 230.808 141.233 230.256C141.737 229.704 142.001 228.984 142.001 228.12C142.001 227.256 141.737 226.536 141.233 225.984C140.729 225.432 140.057 225.144 139.265 225.144C138.473 225.144 137.801 225.432 137.297 225.984ZM155.498 222.168C156.266 222.36 156.842 222.96 156.842 223.848C156.842 224.784 156.194 225.432 155.354 225.432C155.186 225.432 154.826 225.384 154.61 225.384C152.978 225.384 151.73 226.704 151.73 229.08V232.296C151.874 234.696 148.178 234.696 148.322 232.296V223.944C148.322 222.816 149.066 222.12 150.026 222.12C150.914 222.12 151.562 222.696 151.682 223.536C152.354 222.6 153.506 222.072 154.538 222.072C154.946 222.072 155.258 222.096 155.498 222.168ZM165.928 222.168C166.696 222.36 167.272 222.96 167.272 223.848C167.272 224.784 166.624 225.432 165.784 225.432C165.616 225.432 165.256 225.384 165.04 225.384C163.408 225.384 162.16 226.704 162.16 229.08V232.296C162.304 234.696 158.608 234.696 158.752 232.296V223.944C158.752 222.816 159.496 222.12 160.456 222.12C161.344 222.12 161.992 222.696 162.112 223.536C162.784 222.6 163.936 222.072 164.968 222.072C165.376 222.072 165.688 222.096 165.928 222.168ZM170.028 232.512C168.852 231.336 168.252 229.872 168.252 228.12C168.252 226.368 168.852 224.904 170.028 223.728C171.228 222.552 172.716 221.952 174.468 221.952C176.22 221.952 177.708 222.552 178.884 223.728C180.084 224.904 180.684 226.368 180.684 228.12C180.684 229.872 180.084 231.336 178.908 232.512C177.732 233.688 176.244 234.264 174.468 234.264C172.692 234.264 171.204 233.688 170.028 232.512ZM172.5 225.984C171.996 226.536 171.732 227.256 171.732 228.12C171.732 228.984 171.996 229.704 172.5 230.256C173.004 230.808 173.676 231.096 174.468 231.096C175.26 231.096 175.932 230.808 176.436 230.256C176.94 229.704 177.204 228.984 177.204 228.12C177.204 227.256 176.94 226.536 176.436 225.984C175.932 225.432 175.26 225.144 174.468 225.144C173.676 225.144 173.004 225.432 172.5 225.984ZM50.0487 251.856C50.0487 250.2 48.8967 249.048 47.4327 249.048C45.9927 249.048 44.8407 250.2 44.8407 251.856C44.8407 253.488 45.9927 254.64 47.4327 254.64C48.8967 254.64 50.0487 253.488 50.0487 251.856ZM42.7767 261.624C41.8887 260.952 41.8887 259.848 42.5367 259.176C43.1367 258.528 43.9527 258.504 44.9847 259.152C45.6807 259.56 46.3527 259.776 47.0247 259.776C48.8247 259.776 49.9767 258.72 49.9767 257.16V256.848C49.3047 257.448 48.3447 257.736 47.1207 257.736C45.4407 257.736 44.0487 257.208 42.9687 256.152C41.8887 255.096 41.3607 253.656 41.3607 251.856C41.3607 250.032 41.9127 248.592 43.0407 247.536C44.1687 246.48 45.5127 245.952 47.1207 245.952C48.3687 245.952 49.3767 246.36 50.1207 247.2C50.3607 246.456 50.8887 246.096 51.7047 246.096C52.6887 246.096 53.4087 246.768 53.4087 247.92V256.776C53.4087 258.6 52.8327 260.088 51.7047 261.216C50.5767 262.344 49.0407 262.92 47.0487 262.92C45.3687 262.92 43.9527 262.488 42.7767 261.624ZM67.5966 251.112C67.5966 252.36 66.9726 252.984 65.7006 252.984H59.6766C59.8686 254.256 60.8526 255.144 62.3166 255.144C63.1326 255.144 63.8286 254.904 64.4286 254.424C65.3646 253.752 66.2286 253.968 66.8286 254.76C67.3806 255.432 67.2126 256.392 66.3246 257.088C65.2926 257.88 63.9726 258.264 62.4126 258.264C60.6126 258.264 59.1486 257.712 57.9726 256.608C56.7966 255.48 56.2206 254.016 56.2206 252.192C56.2206 250.392 56.7486 248.904 57.8286 247.728C58.9086 246.552 60.3006 245.952 62.0046 245.952C63.1806 245.952 64.2126 246.24 65.1006 246.792C66.9006 247.92 67.5966 249.504 67.5966 251.112ZM62.0766 248.952C60.8526 248.952 60.0606 249.672 59.8446 250.704H64.0686C63.9966 249.72 63.2046 248.952 62.0766 248.952ZM70.5098 256.296V247.944C70.5098 246.816 71.2538 246.12 72.2138 246.12C73.0058 246.12 73.5338 246.48 73.7978 247.176C74.4938 246.36 75.4298 245.952 76.6538 245.952C79.5578 245.952 81.4298 247.872 81.4298 251.16V256.296C81.4298 257.424 80.7098 258.12 79.7258 258.12C78.7418 258.12 78.0218 257.424 78.0218 256.296V251.424C78.0218 250.08 77.3978 249.12 76.0778 249.12C74.6378 249.12 73.9178 250.128 73.9178 252.12V256.296C74.0618 258.696 70.3658 258.696 70.5098 256.296ZM95.3701 251.112C95.3701 252.36 94.7461 252.984 93.4741 252.984H87.4501C87.6421 254.256 88.6261 255.144 90.0901 255.144C90.9061 255.144 91.6021 254.904 92.2021 254.424C93.1381 253.752 94.0021 253.968 94.6021 254.76C95.1541 255.432 94.9861 256.392 94.0981 257.088C93.0661 257.88 91.7461 258.264 90.1861 258.264C88.3861 258.264 86.9221 257.712 85.7461 256.608C84.5701 255.48 83.9941 254.016 83.9941 252.192C83.9941 250.392 84.5221 248.904 85.6021 247.728C86.6821 246.552 88.0741 245.952 89.7781 245.952C90.9541 245.952 91.9861 246.24 92.8741 246.792C94.6741 247.92 95.3701 249.504 95.3701 251.112ZM89.8501 248.952C88.6261 248.952 87.8341 249.672 87.6181 250.704H91.8421C91.7701 249.72 90.9781 248.952 89.8501 248.952ZM105.459 246.168C106.227 246.36 106.803 246.96 106.803 247.848C106.803 248.784 106.155 249.432 105.315 249.432C105.147 249.432 104.787 249.384 104.571 249.384C102.939 249.384 101.691 250.704 101.691 253.08V256.296C101.835 258.696 98.1393 258.696 98.2833 256.296V247.944C98.2833 246.816 99.0273 246.12 99.9873 246.12C100.875 246.12 101.523 246.696 101.643 247.536C102.315 246.6 103.467 246.072 104.499 246.072C104.907 246.072 105.219 246.096 105.459 246.168ZM109.055 247.176C110.087 246.36 111.455 245.952 113.111 245.952C114.575 245.952 115.775 246.384 116.711 247.224C117.647 248.064 118.103 249.192 118.103 250.656V256.296C118.103 257.424 117.359 258.12 116.399 258.12C115.607 258.12 115.079 257.76 114.815 257.04C113.999 257.856 112.991 258.264 111.815 258.264C110.639 258.264 109.703 257.928 108.959 257.256C108.215 256.56 107.855 255.696 107.855 254.64C107.855 253.416 108.287 252.504 109.175 251.88C110.063 251.256 111.191 250.92 112.511 250.872L114.671 250.776C114.671 249.576 114.071 248.976 112.871 248.976C112.151 248.976 111.503 249.168 110.903 249.576C110.015 250.176 109.151 250.104 108.647 249.432C108.095 248.784 108.263 247.824 109.055 247.176ZM111.287 254.448C111.287 255.024 111.791 255.384 112.655 255.384C113.351 255.384 114.023 255.144 114.671 254.664V253.272L113.159 253.392C111.911 253.464 111.287 253.8 111.287 254.448ZM133.079 242.904V256.296C133.079 257.424 132.335 258.12 131.375 258.12C130.559 258.12 130.031 257.76 129.791 257.016C129.191 257.76 127.919 258.264 126.647 258.264C124.991 258.264 123.575 257.712 122.447 256.584C121.319 255.456 120.767 253.968 120.767 252.12C120.767 250.296 121.319 248.808 122.447 247.68C123.575 246.528 124.991 245.952 126.647 245.952C127.871 245.952 128.879 246.288 129.671 246.984V242.904C129.527 240.504 133.223 240.504 133.079 242.904ZM128.927 254.328C129.455 253.752 129.719 253.008 129.719 252.12C129.719 251.232 129.455 250.488 128.927 249.912C128.423 249.336 127.775 249.048 126.983 249.048C126.191 249.048 125.543 249.336 125.015 249.912C124.511 250.488 124.247 251.232 124.247 252.12C124.247 253.008 124.511 253.752 125.015 254.328C125.543 254.904 126.191 255.192 126.983 255.192C127.775 255.192 128.423 254.904 128.927 254.328ZM137.684 256.512C136.508 255.336 135.908 253.872 135.908 252.12C135.908 250.368 136.508 248.904 137.684 247.728C138.884 246.552 140.372 245.952 142.124 245.952C143.876 245.952 145.364 246.552 146.54 247.728C147.74 248.904 148.34 250.368 148.34 252.12C148.34 253.872 147.74 255.336 146.564 256.512C145.388 257.688 143.9 258.264 142.124 258.264C140.348 258.264 138.86 257.688 137.684 256.512ZM140.156 249.984C139.652 250.536 139.388 251.256 139.388 252.12C139.388 252.984 139.652 253.704 140.156 254.256C140.66 254.808 141.332 255.096 142.124 255.096C142.916 255.096 143.588 254.808 144.092 254.256C144.596 253.704 144.86 252.984 144.86 252.12C144.86 251.256 144.596 250.536 144.092 249.984C143.588 249.432 142.916 249.144 142.124 249.144C141.332 249.144 140.66 249.432 140.156 249.984ZM157.885 260.952V247.92C157.885 246.768 158.629 246.096 159.589 246.096C160.405 246.096 160.933 246.456 161.173 247.2C161.773 246.456 163.045 245.952 164.317 245.952C165.973 245.952 167.365 246.528 168.493 247.656C169.621 248.784 170.197 250.272 170.197 252.12C170.197 253.944 169.621 255.432 168.493 256.56C167.365 257.688 165.973 258.264 164.317 258.264C163.093 258.264 162.085 257.928 161.293 257.232V260.952C161.437 263.352 157.741 263.352 157.885 260.952ZM162.013 249.912C161.509 250.488 161.245 251.232 161.245 252.12C161.245 253.008 161.509 253.752 162.013 254.328C162.541 254.904 163.189 255.192 163.981 255.192C164.773 255.192 165.421 254.904 165.925 254.328C166.453 253.752 166.717 253.008 166.717 252.12C166.717 251.232 166.453 250.488 165.925 249.912C165.421 249.336 164.773 249.048 163.981 249.048C163.189 249.048 162.541 249.336 162.013 249.912ZM173.602 247.176C174.634 246.36 176.002 245.952 177.658 245.952C179.122 245.952 180.322 246.384 181.258 247.224C182.194 248.064 182.65 249.192 182.65 250.656V256.296C182.65 257.424 181.906 258.12 180.946 258.12C180.154 258.12 179.626 257.76 179.362 257.04C178.546 257.856 177.538 258.264 176.362 258.264C175.186 258.264 174.25 257.928 173.506 257.256C172.762 256.56 172.402 255.696 172.402 254.64C172.402 253.416 172.834 252.504 173.722 251.88C174.61 251.256 175.738 250.92 177.058 250.872L179.218 250.776C179.218 249.576 178.618 248.976 177.418 248.976C176.698 248.976 176.05 249.168 175.45 249.576C174.562 250.176 173.698 250.104 173.194 249.432C172.642 248.784 172.81 247.824 173.602 247.176ZM175.834 254.448C175.834 255.024 176.338 255.384 177.202 255.384C177.898 255.384 178.57 255.144 179.218 254.664V253.272L177.706 253.392C176.458 253.464 175.834 253.8 175.834 254.448ZM193.444 246.168C194.212 246.36 194.788 246.96 194.788 247.848C194.788 248.784 194.14 249.432 193.3 249.432C193.132 249.432 192.772 249.384 192.556 249.384C190.924 249.384 189.676 250.704 189.676 253.08V256.296C189.82 258.696 186.124 258.696 186.268 256.296V247.944C186.268 246.816 187.012 246.12 187.972 246.12C188.86 246.12 189.508 246.696 189.628 247.536C190.3 246.6 191.452 246.072 192.484 246.072C192.892 246.072 193.204 246.096 193.444 246.168ZM197.04 247.176C198.072 246.36 199.44 245.952 201.096 245.952C202.56 245.952 203.76 246.384 204.696 247.224C205.632 248.064 206.088 249.192 206.088 250.656V256.296C206.088 257.424 205.344 258.12 204.384 258.12C203.592 258.12 203.064 257.76 202.8 257.04C201.984 257.856 200.976 258.264 199.8 258.264C198.624 258.264 197.688 257.928 196.944 257.256C196.2 256.56 195.84 255.696 195.84 254.64C195.84 253.416 196.271 252.504 197.16 251.88C198.048 251.256 199.176 250.92 200.496 250.872L202.656 250.776C202.656 249.576 202.056 248.976 200.855 248.976C200.136 248.976 199.488 249.168 198.888 249.576C198 250.176 197.136 250.104 196.632 249.432C196.08 248.784 196.248 247.824 197.04 247.176ZM199.272 254.448C199.272 255.024 199.776 255.384 200.64 255.384C201.336 255.384 202.008 255.144 202.656 254.664V253.272L201.144 253.392C199.896 253.464 199.272 253.8 199.272 254.448ZM57.0428 266.904V280.296C57.1868 282.696 53.4908 282.696 53.6348 280.296V266.904C53.4908 264.504 57.1868 264.504 57.0428 266.904ZM61.1489 271.176C62.1809 270.36 63.5489 269.952 65.2049 269.952C66.6689 269.952 67.8689 270.384 68.8049 271.224C69.7409 272.064 70.1969 273.192 70.1969 274.656V280.296C70.1969 281.424 69.4529 282.12 68.4929 282.12C67.7009 282.12 67.1729 281.76 66.9089 281.04C66.0929 281.856 65.0849 282.264 63.9089 282.264C62.7329 282.264 61.7969 281.928 61.0529 281.256C60.3089 280.56 59.9489 279.696 59.9489 278.64C59.9489 277.416 60.3809 276.504 61.2689 275.88C62.1569 275.256 63.2849 274.92 64.6049 274.872L66.7649 274.776C66.7649 273.576 66.1649 272.976 64.9649 272.976C64.2449 272.976 63.5969 273.168 62.9969 273.576C62.1089 274.176 61.2449 274.104 60.7409 273.432C60.1889 272.784 60.3569 271.824 61.1489 271.176ZM63.3809 278.448C63.3809 279.024 63.8849 279.384 64.7489 279.384C65.4449 279.384 66.1169 279.144 66.7649 278.664V277.272L65.2529 277.392C64.0049 277.464 63.3809 277.8 63.3809 278.448ZM73.8447 280.968C73.0527 280.272 72.9567 279.36 73.5567 278.688C74.2047 277.968 74.9487 277.944 75.8127 278.64C76.4607 279.144 77.3247 279.408 78.3807 279.408C79.1247 279.408 79.7007 279.144 79.7007 278.688C79.7007 278.304 79.4367 278.112 78.6447 277.896L77.3247 277.512C74.7087 276.768 73.4847 275.568 73.4847 273.672C73.4847 272.544 73.9167 271.656 74.8047 270.984C75.6927 270.288 76.7727 269.952 78.0447 269.952C79.4127 269.952 80.5647 270.24 81.5247 270.84C82.3887 271.416 82.6047 272.28 82.1487 273.024C81.6447 273.792 80.8287 274.008 79.8927 273.456C79.2687 273.048 78.5967 272.856 77.9007 272.856C77.2287 272.856 76.7967 273.12 76.7967 273.504C76.7967 273.864 77.0607 274.008 77.6367 274.176L79.1487 274.584C81.5487 275.256 83.0127 276.288 83.0127 278.472C83.0127 280.704 81.0927 282.264 78.0927 282.264C76.2927 282.264 74.8767 281.832 73.8447 280.968ZM97.7273 268.392C96.8393 268.464 96.4073 268.968 96.4073 269.904V270.24H97.5593C98.6153 270.24 99.2633 270.912 99.2633 271.8C99.2633 272.688 98.6153 273.384 97.5593 273.384H96.4073V280.296C96.5753 282.72 92.8793 282.672 93.0233 280.296V273.384H92.5913C91.5353 273.384 90.8873 272.688 90.8873 271.8C90.8873 270.912 91.5353 270.24 92.5913 270.24H93.0233V269.736C93.0233 266.688 94.9673 265.176 97.5593 265.176C98.7353 265.176 99.3833 265.848 99.3833 266.736C99.3833 267.624 98.8073 268.272 97.7273 268.392ZM102.094 271.176C103.126 270.36 104.494 269.952 106.15 269.952C107.614 269.952 108.814 270.384 109.75 271.224C110.686 272.064 111.142 273.192 111.142 274.656V280.296C111.142 281.424 110.398 282.12 109.438 282.12C108.646 282.12 108.118 281.76 107.854 281.04C107.038 281.856 106.03 282.264 104.854 282.264C103.678 282.264 102.742 281.928 101.998 281.256C101.254 280.56 100.894 279.696 100.894 278.64C100.894 277.416 101.326 276.504 102.214 275.88C103.102 275.256 104.23 274.92 105.55 274.872L107.71 274.776C107.71 273.576 107.11 272.976 105.91 272.976C105.19 272.976 104.542 273.168 103.942 273.576C103.054 274.176 102.19 274.104 101.686 273.432C101.134 272.784 101.302 271.824 102.094 271.176ZM104.326 278.448C104.326 279.024 104.83 279.384 105.694 279.384C106.39 279.384 107.062 279.144 107.71 278.664V277.272L106.198 277.392C104.95 277.464 104.326 277.8 104.326 278.448ZM114.76 280.296V271.944C114.76 270.816 115.504 270.12 116.464 270.12C117.256 270.12 117.784 270.48 118.048 271.176C118.744 270.36 119.728 269.952 120.952 269.952C122.32 269.952 123.4 270.432 124.216 271.368C125.152 270.432 126.328 269.952 127.744 269.952C130.888 269.952 132.664 271.824 132.664 275.16V280.296C132.808 282.696 129.112 282.696 129.256 280.296V275.304C129.256 273.984 128.632 273.12 127.456 273.12C126.184 273.12 125.416 274.104 125.416 275.736V280.296C125.56 282.696 121.864 282.696 122.008 280.296V275.304C122.008 273.984 121.384 273.12 120.208 273.12C118.864 273.12 118.168 274.152 118.168 275.976V280.296C118.312 282.696 114.616 282.696 114.76 280.296ZM136.014 266.904C136.014 265.776 136.902 264.912 137.982 264.912C139.11 264.912 139.974 265.776 139.974 266.904C139.974 267.984 139.062 268.872 137.982 268.872C136.902 268.872 136.014 267.984 136.014 266.904ZM139.686 280.296C139.686 281.424 138.966 282.12 137.982 282.12C136.998 282.12 136.278 281.424 136.278 280.296V271.944C136.278 270.816 136.998 270.12 137.982 270.12C138.966 270.12 139.686 270.816 139.686 271.944V280.296ZM146.996 266.904V280.296C147.14 282.696 143.444 282.696 143.588 280.296V266.904C143.444 264.504 147.14 264.504 146.996 266.904ZM150.616 266.904C150.616 265.776 151.504 264.912 152.584 264.912C153.712 264.912 154.576 265.776 154.576 266.904C154.576 267.984 153.664 268.872 152.584 268.872C151.504 268.872 150.616 267.984 150.616 266.904ZM154.288 280.296C154.288 281.424 153.568 282.12 152.584 282.12C151.6 282.12 150.88 281.424 150.88 280.296V271.944C150.88 270.816 151.6 270.12 152.584 270.12C153.568 270.12 154.288 270.816 154.288 271.944V280.296ZM158.532 271.176C159.564 270.36 160.932 269.952 162.588 269.952C164.052 269.952 165.252 270.384 166.188 271.224C167.124 272.064 167.58 273.192 167.58 274.656V280.296C167.58 281.424 166.836 282.12 165.876 282.12C165.084 282.12 164.556 281.76 164.292 281.04C163.476 281.856 162.468 282.264 161.292 282.264C160.116 282.264 159.18 281.928 158.436 281.256C157.692 280.56 157.332 279.696 157.332 278.64C157.332 277.416 157.764 276.504 158.652 275.88C159.54 275.256 160.668 274.92 161.988 274.872L164.148 274.776C164.148 273.576 163.548 272.976 162.348 272.976C161.628 272.976 160.98 273.168 160.38 273.576C159.492 274.176 158.628 274.104 158.124 273.432C157.572 272.784 157.74 271.824 158.532 271.176ZM160.764 278.448C160.764 279.024 161.268 279.384 162.132 279.384C162.828 279.384 163.5 279.144 164.148 278.664V277.272L162.636 277.392C161.388 277.464 160.764 277.8 160.764 278.448ZM171.228 280.968C170.436 280.272 170.34 279.36 170.94 278.688C171.588 277.968 172.332 277.944 173.196 278.64C173.844 279.144 174.708 279.408 175.764 279.408C176.508 279.408 177.084 279.144 177.084 278.688C177.084 278.304 176.82 278.112 176.028 277.896L174.708 277.512C172.092 276.768 170.868 275.568 170.868 273.672C170.868 272.544 171.3 271.656 172.188 270.984C173.076 270.288 174.156 269.952 175.428 269.952C176.796 269.952 177.948 270.24 178.908 270.84C179.772 271.416 179.988 272.28 179.532 273.024C179.028 273.792 178.212 274.008 177.276 273.456C176.652 273.048 175.98 272.856 175.284 272.856C174.612 272.856 174.18 273.12 174.18 273.504C174.18 273.864 174.444 274.008 175.02 274.176L176.532 274.584C178.932 275.256 180.396 276.288 180.396 278.472C180.396 280.704 178.476 282.264 175.476 282.264C173.676 282.264 172.26 281.832 171.228 280.968ZM183.713 281.64C182.945 280.848 182.945 279.504 183.713 278.712C184.505 277.92 185.849 277.92 186.641 278.712C187.481 279.504 187.481 280.848 186.641 281.64C185.849 282.432 184.505 282.432 183.713 281.64Z" fill="#930345"/>
<path d="M199.5 105.5C199.5 148.578 164.578 183.5 121.5 183.5C78.4218 183.5 43.5 148.578 43.5 105.5C43.5 62.4218 78.4218 27.5 121.5 27.5C164.578 27.5 199.5 62.4218 199.5 105.5Z" fill="white" stroke="white" stroke-width="9"/>
<path d="M74.6861 84.464V88.08H78.5261C79.9661 88.08 80.7661 88.944 80.7661 90.128C80.7661 91.376 79.9661 92.176 78.5261 92.176H74.6861V95.856C74.6861 97.296 73.8221 98.16 72.5741 98.16C71.3901 98.16 70.4621 97.264 70.4621 95.856V92.176H66.6861C65.2781 92.176 64.4461 91.376 64.4461 90.128C64.4461 88.976 65.2781 88.08 66.6861 88.08H70.4621V84.464C70.4621 82.96 71.3901 82.16 72.5741 82.16C73.8221 82.16 74.6861 82.96 74.6861 84.464ZM100.869 77.328C102.149 78.224 102.277 79.728 101.413 80.72C100.645 81.776 99.3966 82 98.0846 81.104C96.7086 80.08 95.2046 79.568 93.5726 79.568C91.5566 79.568 90.2766 80.464 90.2766 81.776C90.2766 82.992 91.3326 83.792 93.4766 84.176L95.3646 84.496C100.389 85.296 102.917 87.632 102.917 91.504C102.917 93.552 102.085 95.216 100.453 96.464C98.8206 97.712 96.6766 98.352 93.9886 98.352C91.0766 98.352 88.4526 97.488 86.0846 95.728C84.8366 94.8 84.6766 93.328 85.5406 92.336C86.3086 91.28 87.5886 91.024 88.8686 91.952C90.5646 93.328 92.3886 94 94.2766 94C96.7086 94 98.1806 92.976 98.1806 91.568C98.1806 90.384 97.1246 89.584 95.0446 89.2L92.6126 88.752C88.2286 87.952 85.5406 85.712 85.5406 82C85.5406 79.92 86.3406 78.288 87.9726 77.072C89.6046 75.824 91.5566 75.216 93.8286 75.216C96.5486 75.216 98.9166 75.92 100.869 77.328ZM118.61 78.704L111.122 96.624C110.514 98.032 109.266 98.512 108.114 98C106.93 97.488 106.482 96.336 107.026 94.896L114.546 76.976C115.154 75.568 116.37 75.088 117.522 75.6C118.706 76.112 119.154 77.264 118.61 78.704ZM122.813 94.96C122.813 91.408 125.245 88.272 130.077 85.552L131.325 84.848C133.533 83.6 134.109 82.864 134.109 81.808C134.109 80.432 132.925 79.568 131.005 79.568C129.885 79.568 128.669 80.112 127.421 81.2C126.365 82.096 124.861 82.256 123.997 81.456C123.133 80.656 123.165 79.248 124.189 78.192C124.989 77.328 126.045 76.624 127.325 76.08C128.605 75.504 129.853 75.216 131.101 75.216C133.309 75.216 135.133 75.792 136.637 76.976C138.141 78.128 138.877 79.728 138.877 81.744C138.877 83.376 138.397 84.688 137.341 85.808C136.317 86.864 135.293 87.6 133.533 88.624L131.581 89.744C129.437 90.992 128.381 91.952 128.029 93.616H136.765C138.269 93.616 139.101 94.544 139.101 95.824C139.101 97.072 138.269 98 136.765 98H125.853C123.933 98 122.813 96.88 122.813 94.96ZM144.851 97.52C143.827 96.464 143.827 94.672 144.851 93.616C145.907 92.56 147.699 92.56 148.755 93.616C149.875 94.672 149.875 96.464 148.755 97.52C147.699 98.576 145.907 98.576 144.851 97.52ZM154.597 91.568C154.597 89.232 155.781 87.376 157.413 86.448C155.909 85.2 155.141 83.728 155.141 82C155.141 79.984 155.845 78.352 157.285 77.104C158.725 75.856 160.549 75.216 162.725 75.216C164.901 75.216 166.693 75.856 168.133 77.104C169.573 78.352 170.309 79.984 170.309 82C170.309 83.728 169.573 85.2 168.069 86.448C169.637 87.376 170.853 89.232 170.853 91.568C170.853 93.648 170.085 95.28 168.549 96.528C167.045 97.744 165.093 98.352 162.725 98.352C160.357 98.352 158.405 97.744 156.869 96.528C155.365 95.28 154.597 93.648 154.597 91.568ZM162.725 79.568C161.189 79.568 159.877 80.496 159.877 82C159.877 83.504 161.189 84.432 162.725 84.432C164.293 84.432 165.573 83.504 165.573 82C165.573 80.496 164.293 79.568 162.725 79.568ZM162.725 94C164.773 94 166.117 92.976 166.117 91.312C166.117 89.648 164.773 88.592 162.725 88.592C160.709 88.592 159.333 89.648 159.333 91.312C159.333 92.976 160.709 94 162.725 94ZM59.3516 135.728V124.592C59.3516 123.088 60.3436 122.16 61.6236 122.16C62.6796 122.16 63.3836 122.64 63.7356 123.568C64.6636 122.48 65.9756 121.936 67.6076 121.936C69.4316 121.936 70.8716 122.576 71.9596 123.824C73.2076 122.576 74.7756 121.936 76.6636 121.936C80.8556 121.936 83.2236 124.432 83.2236 128.88V135.728C83.4156 138.928 78.4876 138.928 78.6796 135.728V129.072C78.6796 127.312 77.8476 126.16 76.2796 126.16C74.5836 126.16 73.5596 127.472 73.5596 129.648V135.728C73.7516 138.928 68.8236 138.928 69.0156 135.728V129.072C69.0156 127.312 68.1836 126.16 66.6156 126.16C64.8236 126.16 63.8956 127.536 63.8956 129.968V135.728C64.0876 138.928 59.1596 138.928 59.3516 135.728ZM87.6909 117.872C87.6909 116.368 88.8749 115.216 90.3149 115.216C91.8189 115.216 92.9709 116.368 92.9709 117.872C92.9709 119.312 91.7549 120.496 90.3149 120.496C88.8749 120.496 87.6909 119.312 87.6909 117.872ZM92.5869 135.728C92.5869 137.232 91.6269 138.16 90.3149 138.16C89.0029 138.16 88.0429 137.232 88.0429 135.728V124.592C88.0429 123.088 89.0029 122.16 90.3149 122.16C91.6269 122.16 92.5869 123.088 92.5869 124.592V135.728ZM102.333 117.872V135.728C102.525 138.928 97.5971 138.928 97.7891 135.728V117.872C97.5971 114.672 102.525 114.672 102.333 117.872ZM111.896 117.872V135.728C112.088 138.928 107.16 138.928 107.352 135.728V117.872C107.16 114.672 112.088 114.672 111.896 117.872ZM118.042 136.016C116.474 134.448 115.674 132.496 115.674 130.16C115.674 127.824 116.474 125.872 118.042 124.304C119.642 122.736 121.626 121.936 123.962 121.936C126.298 121.936 128.282 122.736 129.85 124.304C131.45 125.872 132.25 127.824 132.25 130.16C132.25 132.496 131.45 134.448 129.882 136.016C128.314 137.584 126.33 138.352 123.962 138.352C121.594 138.352 119.61 137.584 118.042 136.016ZM121.338 127.312C120.666 128.048 120.314 129.008 120.314 130.16C120.314 131.312 120.666 132.272 121.338 133.008C122.01 133.744 122.906 134.128 123.962 134.128C125.018 134.128 125.914 133.744 126.586 133.008C127.258 132.272 127.61 131.312 127.61 130.16C127.61 129.008 127.258 128.048 126.586 127.312C125.914 126.576 125.018 126.192 123.962 126.192C122.906 126.192 122.01 126.576 121.338 127.312ZM136.039 135.728V124.592C136.039 123.088 137.031 122.16 138.311 122.16C139.367 122.16 140.071 122.64 140.423 123.568C141.351 122.48 142.599 121.936 144.231 121.936C148.103 121.936 150.599 124.496 150.599 128.88V135.728C150.599 137.232 149.639 138.16 148.327 138.16C147.015 138.16 146.055 137.232 146.055 135.728V129.232C146.055 127.44 145.223 126.16 143.463 126.16C141.543 126.16 140.583 127.504 140.583 130.16V135.728C140.775 138.928 135.847 138.928 136.039 135.728ZM169.186 128.816C169.186 130.48 168.354 131.312 166.658 131.312H158.626C158.882 133.008 160.194 134.192 162.146 134.192C163.234 134.192 164.162 133.872 164.962 133.232C166.21 132.336 167.362 132.624 168.162 133.68C168.898 134.576 168.674 135.856 167.49 136.784C166.114 137.84 164.354 138.352 162.274 138.352C159.874 138.352 157.922 137.616 156.354 136.144C154.786 134.64 154.018 132.688 154.018 130.256C154.018 127.856 154.722 125.872 156.162 124.304C157.602 122.736 159.458 121.936 161.73 121.936C163.298 121.936 164.674 122.32 165.858 123.056C168.258 124.56 169.186 126.672 169.186 128.816ZM161.826 125.936C160.194 125.936 159.138 126.896 158.85 128.272H164.482C164.386 126.96 163.33 125.936 161.826 125.936ZM173.454 136.624C172.398 135.696 172.27 134.48 173.07 133.584C173.934 132.624 174.926 132.592 176.078 133.52C176.942 134.192 178.094 134.544 179.502 134.544C180.494 134.544 181.262 134.192 181.262 133.584C181.262 133.072 180.91 132.816 179.854 132.528L178.094 132.016C174.606 131.024 172.974 129.424 172.974 126.896C172.974 125.392 173.55 124.208 174.734 123.312C175.918 122.384 177.358 121.936 179.054 121.936C180.878 121.936 182.414 122.32 183.694 123.12C184.846 123.888 185.134 125.04 184.526 126.032C183.854 127.056 182.766 127.344 181.518 126.608C180.686 126.064 179.79 125.808 178.862 125.808C177.966 125.808 177.39 126.16 177.39 126.672C177.39 127.152 177.742 127.344 178.51 127.568L180.526 128.112C183.726 129.008 185.678 130.384 185.678 133.296C185.678 136.272 183.118 138.352 179.118 138.352C176.718 138.352 174.83 137.776 173.454 136.624Z" fill="#930345"/>
</svg>
