<svg width="244" height="298" viewBox="0 0 244 298" fill="none" xmlns="http://www.w3.org/2000/svg">
<rect width="243.562" height="297.688" fill="#930345"/>
<path d="M11.0845 208.722V198.678C10.9765 196.878 13.7485 196.878 13.6405 198.678V201.72C14.1265 201.216 14.8105 200.964 15.6925 200.964C17.8705 200.964 19.2745 202.404 19.2745 204.87V208.722C19.2745 209.568 18.7345 210.09 17.9965 210.09C17.2585 210.09 16.7185 209.568 16.7185 208.722V205.068C16.7185 204.06 16.2505 203.34 15.2605 203.34C14.1805 203.34 13.6405 204.024 13.6405 205.392V208.722C13.7485 210.522 10.9765 210.522 11.0845 208.722ZM29.6711 202.458V208.722C29.6711 209.568 29.1131 210.09 28.3931 210.09C27.8171 210.09 27.4211 209.82 27.2231 209.298C26.7191 209.892 25.9991 210.198 25.0451 210.198C22.8851 210.198 21.6791 208.812 21.6791 206.31V202.458C21.5711 200.658 24.3431 200.658 24.2351 202.458V206.112C24.2351 207.264 24.6851 207.84 25.5851 207.84C26.7191 207.84 27.1151 207.048 27.1151 205.59V202.458C27.0071 200.658 29.7791 200.658 29.6711 202.458ZM40.3469 204.834C40.3469 205.77 39.8789 206.238 38.9249 206.238H34.4069C34.5509 207.192 35.2889 207.858 36.3869 207.858C36.9989 207.858 37.5209 207.678 37.9709 207.318C38.6729 206.814 39.3209 206.976 39.7709 207.57C40.1849 208.074 40.0589 208.794 39.3929 209.316C38.6189 209.91 37.6289 210.198 36.4589 210.198C35.1089 210.198 34.0109 209.784 33.1289 208.956C32.2469 208.11 31.8149 207.012 31.8149 205.644C31.8149 204.294 32.2109 203.178 33.0209 202.296C33.8309 201.414 34.8749 200.964 36.1529 200.964C37.0349 200.964 37.8089 201.18 38.4749 201.594C39.8249 202.44 40.3469 203.628 40.3469 204.834ZM36.2069 203.214C35.2889 203.214 34.6949 203.754 34.5329 204.528H37.7009C37.6469 203.79 37.0529 203.214 36.2069 203.214ZM37.1789 199.11L35.6309 199.83C35.2889 199.992 34.9649 199.974 34.6409 199.776C34.1549 199.47 34.0289 198.786 34.3349 198.336C34.4249 198.192 34.5509 198.084 34.6949 197.994L36.2249 196.986C36.6389 196.716 37.0709 196.734 37.5209 197.004C38.0429 197.346 38.2049 198.084 37.8449 198.642C37.6829 198.858 37.4489 199.02 37.1789 199.11ZM42.7478 209.226C42.1538 208.704 42.0818 208.02 42.5318 207.516C43.0178 206.976 43.5758 206.958 44.2238 207.48C44.7098 207.858 45.3578 208.056 46.1498 208.056C46.7078 208.056 47.1398 207.858 47.1398 207.516C47.1398 207.228 46.9418 207.084 46.3478 206.922L45.3578 206.634C43.3958 206.076 42.4778 205.176 42.4778 203.754C42.4778 202.908 42.8018 202.242 43.4678 201.738C44.1338 201.216 44.9438 200.964 45.8978 200.964C46.9238 200.964 47.7878 201.18 48.5078 201.63C49.1558 202.062 49.3178 202.71 48.9758 203.268C48.5978 203.844 47.9858 204.006 47.2838 203.592C46.8158 203.286 46.3118 203.142 45.7898 203.142C45.2858 203.142 44.9618 203.34 44.9618 203.628C44.9618 203.898 45.1598 204.006 45.5918 204.132L46.7258 204.438C48.5258 204.942 49.6238 205.716 49.6238 207.354C49.6238 209.028 48.1838 210.198 45.9338 210.198C44.5838 210.198 43.5218 209.874 42.7478 209.226ZM51.6724 212.214V202.44C51.6724 201.576 52.2304 201.072 52.9504 201.072C53.5624 201.072 53.9584 201.342 54.1384 201.9C54.5884 201.342 55.5424 200.964 56.4964 200.964C57.7384 200.964 58.7824 201.396 59.6284 202.242C60.4744 203.088 60.9064 204.204 60.9064 205.59C60.9064 206.958 60.4744 208.074 59.6284 208.92C58.7824 209.766 57.7384 210.198 56.4964 210.198C55.5784 210.198 54.8224 209.946 54.2284 209.424V212.214C54.3364 214.014 51.5644 214.014 51.6724 212.214ZM54.7684 203.934C54.3904 204.366 54.1924 204.924 54.1924 205.59C54.1924 206.256 54.3904 206.814 54.7684 207.246C55.1644 207.678 55.6504 207.894 56.2444 207.894C56.8384 207.894 57.3244 207.678 57.7024 207.246C58.0984 206.814 58.2964 206.256 58.2964 205.59C58.2964 204.924 58.0984 204.366 57.7024 203.934C57.3244 203.502 56.8384 203.286 56.2444 203.286C55.6504 203.286 55.1644 203.502 54.7684 203.934ZM71.1438 204.834C71.1438 205.77 70.6758 206.238 69.7218 206.238H65.2038C65.3478 207.192 66.0858 207.858 67.1838 207.858C67.7958 207.858 68.3178 207.678 68.7678 207.318C69.4698 206.814 70.1178 206.976 70.5678 207.57C70.9818 208.074 70.8558 208.794 70.1898 209.316C69.4158 209.91 68.4258 210.198 67.2558 210.198C65.9058 210.198 64.8078 209.784 63.9258 208.956C63.0438 208.11 62.6118 207.012 62.6118 205.644C62.6118 204.294 63.0078 203.178 63.8178 202.296C64.6278 201.414 65.6718 200.964 66.9498 200.964C67.8318 200.964 68.6058 201.18 69.2718 201.594C70.6218 202.44 71.1438 203.628 71.1438 204.834ZM67.0038 203.214C66.0858 203.214 65.4918 203.754 65.3298 204.528H68.4978C68.4438 203.79 67.8498 203.214 67.0038 203.214ZM82.1461 198.678V208.722C82.1461 209.568 81.5881 210.09 80.8681 210.09C80.2561 210.09 79.8601 209.82 79.6801 209.262C79.2301 209.82 78.2761 210.198 77.3221 210.198C76.0801 210.198 75.0181 209.784 74.1721 208.938C73.3261 208.092 72.9121 206.976 72.9121 205.59C72.9121 204.222 73.3261 203.106 74.1721 202.26C75.0181 201.396 76.0801 200.964 77.3221 200.964C78.2401 200.964 78.9961 201.216 79.5901 201.738V198.678C79.4821 196.878 82.2541 196.878 82.1461 198.678ZM79.0321 207.246C79.4281 206.814 79.6261 206.256 79.6261 205.59C79.6261 204.924 79.4281 204.366 79.0321 203.934C78.6541 203.502 78.1681 203.286 77.5741 203.286C76.9801 203.286 76.4941 203.502 76.0981 203.934C75.7201 204.366 75.5221 204.924 75.5221 205.59C75.5221 206.256 75.7201 206.814 76.0981 207.246C76.4941 207.678 76.9801 207.894 77.5741 207.894C78.1681 207.894 78.6541 207.678 79.0321 207.246ZM92.8 204.834C92.8 205.77 92.332 206.238 91.378 206.238H86.86C87.004 207.192 87.742 207.858 88.84 207.858C89.452 207.858 89.974 207.678 90.424 207.318C91.126 206.814 91.774 206.976 92.224 207.57C92.638 208.074 92.512 208.794 91.846 209.316C91.072 209.91 90.082 210.198 88.912 210.198C87.562 210.198 86.464 209.784 85.582 208.956C84.7 208.11 84.268 207.012 84.268 205.644C84.268 204.294 84.664 203.178 85.474 202.296C86.284 201.414 87.328 200.964 88.606 200.964C89.488 200.964 90.262 201.18 90.928 201.594C92.278 202.44 92.8 203.628 92.8 204.834ZM88.66 203.214C87.742 203.214 87.148 203.754 86.986 204.528H90.154C90.1 203.79 89.506 203.214 88.66 203.214ZM95.2009 209.226C94.6069 208.704 94.5349 208.02 94.9849 207.516C95.4709 206.976 96.0289 206.958 96.6769 207.48C97.1629 207.858 97.8109 208.056 98.6029 208.056C99.1609 208.056 99.5929 207.858 99.5929 207.516C99.5929 207.228 99.3949 207.084 98.8009 206.922L97.8109 206.634C95.8489 206.076 94.9309 205.176 94.9309 203.754C94.9309 202.908 95.2549 202.242 95.9209 201.738C96.5869 201.216 97.3969 200.964 98.3509 200.964C99.3769 200.964 100.241 201.18 100.961 201.63C101.609 202.062 101.771 202.71 101.429 203.268C101.051 203.844 100.439 204.006 99.7369 203.592C99.2689 203.286 98.7649 203.142 98.2429 203.142C97.7389 203.142 97.4149 203.34 97.4149 203.628C97.4149 203.898 97.6129 204.006 98.0449 204.132L99.1789 204.438C100.979 204.942 102.077 205.716 102.077 207.354C102.077 209.028 100.637 210.198 98.3869 210.198C97.0369 210.198 95.9749 209.874 95.2009 209.226ZM114.535 201.126C115.111 201.27 115.543 201.72 115.543 202.386C115.543 203.088 115.057 203.574 114.427 203.574C114.301 203.574 114.031 203.538 113.869 203.538C112.645 203.538 111.709 204.528 111.709 206.31V208.722C111.817 210.522 109.045 210.522 109.153 208.722V202.458C109.153 201.612 109.711 201.09 110.431 201.09C111.097 201.09 111.583 201.522 111.673 202.152C112.177 201.45 113.041 201.054 113.815 201.054C114.121 201.054 114.355 201.072 114.535 201.126ZM124.81 204.834C124.81 205.77 124.342 206.238 123.388 206.238H118.87C119.014 207.192 119.752 207.858 120.85 207.858C121.462 207.858 121.984 207.678 122.434 207.318C123.136 206.814 123.784 206.976 124.234 207.57C124.648 208.074 124.522 208.794 123.856 209.316C123.082 209.91 122.092 210.198 120.922 210.198C119.572 210.198 118.474 209.784 117.592 208.956C116.71 208.11 116.278 207.012 116.278 205.644C116.278 204.294 116.674 203.178 117.484 202.296C118.294 201.414 119.338 200.964 120.616 200.964C121.498 200.964 122.272 201.18 122.938 201.594C124.288 202.44 124.81 203.628 124.81 204.834ZM120.67 203.214C119.752 203.214 119.158 203.754 118.996 204.528H122.164C122.11 203.79 121.516 203.214 120.67 203.214ZM132.626 203.808C132.212 203.502 131.78 203.34 131.33 203.34C130.052 203.34 129.188 204.276 129.188 205.59C129.188 206.904 130.052 207.84 131.33 207.84C131.816 207.84 132.302 207.642 132.788 207.264C133.49 206.76 134.138 206.922 134.588 207.516C135.002 208.02 134.876 208.74 134.21 209.262C133.382 209.892 132.392 210.198 131.24 210.198C129.908 210.198 128.792 209.766 127.91 208.884C127.028 208.002 126.578 206.904 126.578 205.59C126.578 204.276 127.028 203.178 127.91 202.296C128.81 201.414 129.926 200.964 131.24 200.964C132.266 200.964 133.166 201.234 133.922 201.792C134.588 202.314 134.768 203.07 134.39 203.574C133.976 204.15 133.328 204.294 132.626 203.808ZM137.012 198.678C137.012 197.832 137.678 197.184 138.488 197.184C139.334 197.184 139.982 197.832 139.982 198.678C139.982 199.488 139.298 200.154 138.488 200.154C137.678 200.154 137.012 199.488 137.012 198.678ZM139.766 208.722C139.766 209.568 139.226 210.09 138.488 210.09C137.75 210.09 137.21 209.568 137.21 208.722V202.458C137.21 201.612 137.75 201.09 138.488 201.09C139.226 201.09 139.766 201.612 139.766 202.458V208.722ZM142.692 208.722V198.678C142.584 196.878 145.356 196.878 145.248 198.678V201.738C145.842 201.216 146.598 200.964 147.516 200.964C148.758 200.964 149.802 201.396 150.648 202.26C151.494 203.106 151.926 204.222 151.926 205.59C151.926 206.976 151.494 208.092 150.648 208.938C149.802 209.784 148.758 210.198 147.516 210.198C146.562 210.198 145.608 209.82 145.158 209.262C144.978 209.82 144.582 210.09 143.97 210.09C143.25 210.09 142.692 209.568 142.692 208.722ZM145.788 203.934C145.41 204.366 145.212 204.924 145.212 205.59C145.212 206.256 145.41 206.814 145.788 207.246C146.184 207.678 146.67 207.894 147.264 207.894C147.858 207.894 148.344 207.678 148.722 207.246C149.118 206.814 149.316 206.256 149.316 205.59C149.316 204.924 149.118 204.366 148.722 203.934C148.344 203.502 147.858 203.286 147.264 203.286C146.67 203.286 146.184 203.502 145.788 203.934ZM153.939 198.678C153.939 197.832 154.605 197.184 155.415 197.184C156.261 197.184 156.909 197.832 156.909 198.678C156.909 199.488 156.225 200.154 155.415 200.154C154.605 200.154 153.939 199.488 153.939 198.678ZM156.693 208.722C156.693 209.568 156.153 210.09 155.415 210.09C154.677 210.09 154.137 209.568 154.137 208.722V202.458C154.137 201.612 154.677 201.09 155.415 201.09C156.153 201.09 156.693 201.612 156.693 202.458V208.722ZM160.254 208.884C159.372 208.002 158.922 206.904 158.922 205.59C158.922 204.276 159.372 203.178 160.254 202.296C161.154 201.414 162.27 200.964 163.584 200.964C164.898 200.964 166.014 201.414 166.896 202.296C167.796 203.178 168.246 204.276 168.246 205.59C168.246 206.904 167.796 208.002 166.914 208.884C166.032 209.766 164.916 210.198 163.584 210.198C162.252 210.198 161.136 209.766 160.254 208.884ZM162.108 203.988C161.73 204.402 161.532 204.942 161.532 205.59C161.532 206.238 161.73 206.778 162.108 207.192C162.486 207.606 162.99 207.822 163.584 207.822C164.178 207.822 164.682 207.606 165.06 207.192C165.438 206.778 165.636 206.238 165.636 205.59C165.636 204.942 165.438 204.402 165.06 203.988C164.682 203.574 164.178 203.358 163.584 203.358C162.99 203.358 162.486 203.574 162.108 203.988ZM164.646 199.11L163.098 199.83C162.756 199.992 162.432 199.974 162.108 199.776C161.622 199.47 161.496 198.786 161.802 198.336C161.892 198.192 162.018 198.084 162.162 197.994L163.692 196.986C164.106 196.716 164.538 196.734 164.988 197.004C165.51 197.346 165.672 198.084 165.312 198.642C165.15 198.858 164.916 199.02 164.646 199.11ZM177.961 198.678V208.722C178.069 210.522 175.297 210.522 175.405 208.722V198.678C175.297 196.878 178.069 196.878 177.961 198.678ZM181.04 201.882C181.814 201.27 182.84 200.964 184.082 200.964C185.18 200.964 186.08 201.288 186.782 201.918C187.484 202.548 187.826 203.394 187.826 204.492V208.722C187.826 209.568 187.268 210.09 186.548 210.09C185.954 210.09 185.558 209.82 185.36 209.28C184.748 209.892 183.992 210.198 183.11 210.198C182.228 210.198 181.526 209.946 180.968 209.442C180.41 208.92 180.14 208.272 180.14 207.48C180.14 206.562 180.464 205.878 181.13 205.41C181.796 204.942 182.642 204.69 183.632 204.654L185.252 204.582C185.252 203.682 184.802 203.232 183.902 203.232C183.362 203.232 182.876 203.376 182.426 203.682C181.76 204.132 181.112 204.078 180.734 203.574C180.32 203.088 180.446 202.368 181.04 201.882ZM182.714 207.336C182.714 207.768 183.092 208.038 183.74 208.038C184.262 208.038 184.766 207.858 185.252 207.498V206.454L184.118 206.544C183.182 206.598 182.714 206.85 182.714 207.336ZM205.814 198.696C206.462 199.272 206.516 200.064 206.012 200.586C205.526 201.162 204.806 201.234 204.104 200.658C203.366 200.01 202.484 199.686 201.44 199.686C200.45 199.686 199.586 200.046 198.83 200.766C198.092 201.468 197.714 202.44 197.714 203.664C197.714 204.906 198.092 205.896 198.83 206.616C199.568 207.336 200.486 207.696 201.584 207.696C202.61 207.696 203.51 207.372 204.302 206.706C205.004 206.148 205.724 206.22 206.21 206.778C206.714 207.3 206.66 208.092 206.012 208.668C204.86 209.694 203.402 210.198 201.656 210.198C199.73 210.198 198.128 209.604 196.85 208.416C195.59 207.228 194.96 205.662 194.96 203.718C194.96 201.756 195.59 200.172 196.85 198.984C198.11 197.778 199.676 197.184 201.566 197.184C203.204 197.184 204.626 197.688 205.814 198.696ZM209.341 201.882C210.115 201.27 211.141 200.964 212.383 200.964C213.481 200.964 214.381 201.288 215.083 201.918C215.785 202.548 216.127 203.394 216.127 204.492V208.722C216.127 209.568 215.569 210.09 214.849 210.09C214.255 210.09 213.859 209.82 213.661 209.28C213.049 209.892 212.293 210.198 211.411 210.198C210.529 210.198 209.827 209.946 209.269 209.442C208.711 208.92 208.441 208.272 208.441 207.48C208.441 206.562 208.765 205.878 209.431 205.41C210.097 204.942 210.943 204.69 211.933 204.654L213.553 204.582C213.553 203.682 213.103 203.232 212.203 203.232C211.663 203.232 211.177 203.376 210.727 203.682C210.061 204.132 209.413 204.078 209.035 203.574C208.621 203.088 208.747 202.368 209.341 201.882ZM211.015 207.336C211.015 207.768 211.393 208.038 212.041 208.038C212.563 208.038 213.067 207.858 213.553 207.498V206.454L212.419 206.544C211.483 206.598 211.015 206.85 211.015 207.336ZM218.863 209.226C218.269 208.704 218.197 208.02 218.647 207.516C219.133 206.976 219.691 206.958 220.339 207.48C220.825 207.858 221.473 208.056 222.265 208.056C222.823 208.056 223.255 207.858 223.255 207.516C223.255 207.228 223.057 207.084 222.463 206.922L221.473 206.634C219.511 206.076 218.593 205.176 218.593 203.754C218.593 202.908 218.917 202.242 219.583 201.738C220.249 201.216 221.059 200.964 222.013 200.964C223.039 200.964 223.903 201.18 224.623 201.63C225.271 202.062 225.433 202.71 225.091 203.268C224.713 203.844 224.101 204.006 223.399 203.592C222.931 203.286 222.427 203.142 221.905 203.142C221.401 203.142 221.077 203.34 221.077 203.628C221.077 203.898 221.275 204.006 221.707 204.132L222.841 204.438C224.641 204.942 225.739 205.716 225.739 207.354C225.739 209.028 224.299 210.198 222.049 210.198C220.699 210.198 219.637 209.874 218.863 209.226ZM228.238 201.882C229.012 201.27 230.038 200.964 231.28 200.964C232.378 200.964 233.278 201.288 233.98 201.918C234.682 202.548 235.024 203.394 235.024 204.492V208.722C235.024 209.568 234.466 210.09 233.746 210.09C233.152 210.09 232.756 209.82 232.558 209.28C231.946 209.892 231.19 210.198 230.308 210.198C229.426 210.198 228.724 209.946 228.166 209.442C227.608 208.92 227.338 208.272 227.338 207.48C227.338 206.562 227.662 205.878 228.328 205.41C228.994 204.942 229.84 204.69 230.83 204.654L232.45 204.582C232.45 203.682 232 203.232 231.1 203.232C230.56 203.232 230.074 203.376 229.624 203.682C228.958 204.132 228.31 204.078 227.932 203.574C227.518 203.088 227.644 202.368 228.238 201.882ZM229.912 207.336C229.912 207.768 230.29 208.038 230.938 208.038C231.46 208.038 231.964 207.858 232.45 207.498V206.454L231.316 206.544C230.38 206.598 229.912 206.85 229.912 207.336ZM53.113 223.866H51.043V227.502H53.113C54.859 227.502 55.741 226.89 55.741 225.648C55.741 224.424 54.931 223.866 53.113 223.866ZM55.669 233.316L53.185 229.95H51.043V232.668C51.043 233.55 50.467 234.09 49.693 234.09C48.919 234.09 48.361 233.55 48.361 232.668V223.11C48.361 222.03 48.991 221.4 50.071 221.4H53.581C55.003 221.4 56.155 221.76 57.055 222.498C57.955 223.218 58.405 224.226 58.405 225.504C58.405 227.286 57.433 228.726 55.921 229.446L57.865 231.93C58.387 232.65 58.243 233.46 57.595 233.874C57.001 234.252 56.191 234.036 55.669 233.316ZM61.2279 232.884C60.3459 232.002 59.8959 230.904 59.8959 229.59C59.8959 228.276 60.3459 227.178 61.2279 226.296C62.1279 225.414 63.2439 224.964 64.5579 224.964C65.8719 224.964 66.9879 225.414 67.8699 226.296C68.7699 227.178 69.2199 228.276 69.2199 229.59C69.2199 230.904 68.7699 232.002 67.8879 232.884C67.0059 233.766 65.8899 234.198 64.5579 234.198C63.2259 234.198 62.1099 233.766 61.2279 232.884ZM63.0819 227.988C62.7039 228.402 62.5059 228.942 62.5059 229.59C62.5059 230.238 62.7039 230.778 63.0819 231.192C63.4599 231.606 63.9639 231.822 64.5579 231.822C65.1519 231.822 65.6559 231.606 66.0339 231.192C66.4119 230.778 66.6099 230.238 66.6099 229.59C66.6099 228.942 66.4119 228.402 66.0339 227.988C65.6559 227.574 65.1519 227.358 64.5579 227.358C63.9639 227.358 63.4599 227.574 63.0819 227.988ZM71.3511 232.722V226.458C71.3511 225.612 71.9091 225.09 72.6291 225.09C73.2231 225.09 73.6191 225.36 73.8171 225.882C74.3391 225.27 75.0411 224.964 75.9591 224.964C78.1371 224.964 79.5411 226.404 79.5411 228.87V232.722C79.5411 233.568 79.0011 234.09 78.2631 234.09C77.5251 234.09 76.9851 233.568 76.9851 232.722V229.068C76.9851 228.06 76.5171 227.34 75.5271 227.34C74.4471 227.34 73.9071 228.096 73.9071 229.59V232.722C74.0151 234.522 71.2431 234.522 71.3511 232.722ZM82.4183 225.882C83.1923 225.27 84.2183 224.964 85.4603 224.964C86.5583 224.964 87.4583 225.288 88.1603 225.918C88.8623 226.548 89.2043 227.394 89.2043 228.492V232.722C89.2043 233.568 88.6463 234.09 87.9263 234.09C87.3323 234.09 86.9363 233.82 86.7383 233.28C86.1263 233.892 85.3703 234.198 84.4883 234.198C83.6063 234.198 82.9043 233.946 82.3463 233.442C81.7883 232.92 81.5183 232.272 81.5183 231.48C81.5183 230.562 81.8423 229.878 82.5083 229.41C83.1743 228.942 84.0203 228.69 85.0103 228.654L86.6303 228.582C86.6303 227.682 86.1803 227.232 85.2803 227.232C84.7403 227.232 84.2543 227.376 83.8043 227.682C83.1383 228.132 82.4903 228.078 82.1123 227.574C81.6983 227.088 81.8243 226.368 82.4183 225.882ZM84.0923 231.336C84.0923 231.768 84.4703 232.038 85.1183 232.038C85.6403 232.038 86.1443 231.858 86.6303 231.498V230.454L85.4963 230.544C84.5603 230.598 84.0923 230.85 84.0923 231.336ZM94.4735 222.678V232.722C94.5815 234.522 91.8095 234.522 91.9175 232.722V222.678C91.8095 220.878 94.5815 220.878 94.4735 222.678ZM105.815 222.678V232.722C105.815 233.568 105.257 234.09 104.537 234.09C103.925 234.09 103.529 233.82 103.349 233.262C102.899 233.82 101.945 234.198 100.991 234.198C99.7491 234.198 98.6871 233.784 97.8411 232.938C96.9951 232.092 96.5811 230.976 96.5811 229.59C96.5811 228.222 96.9951 227.106 97.8411 226.26C98.6871 225.396 99.7491 224.964 100.991 224.964C101.909 224.964 102.665 225.216 103.259 225.738V222.678C103.151 220.878 105.923 220.878 105.815 222.678ZM102.701 231.246C103.097 230.814 103.295 230.256 103.295 229.59C103.295 228.924 103.097 228.366 102.701 227.934C102.323 227.502 101.837 227.286 101.243 227.286C100.649 227.286 100.163 227.502 99.7671 227.934C99.3891 228.366 99.1911 228.924 99.1911 229.59C99.1911 230.256 99.3891 230.814 99.7671 231.246C100.163 231.678 100.649 231.894 101.243 231.894C101.837 231.894 102.323 231.678 102.701 231.246ZM116.618 222.138L119.822 228.456L123.044 222.138C123.35 221.526 123.854 221.22 124.574 221.22C125.528 221.22 126.086 221.832 126.086 222.822V232.668C126.086 233.55 125.528 234.09 124.754 234.09C123.98 234.09 123.422 233.55 123.422 232.668V226.836L121.28 230.922C120.956 231.534 120.47 231.84 119.822 231.84C119.174 231.84 118.688 231.534 118.382 230.94L116.24 226.836V232.668C116.24 233.55 115.682 234.09 114.908 234.09C114.134 234.09 113.576 233.55 113.576 232.668V222.822C113.576 221.832 114.134 221.22 115.088 221.22C115.79 221.22 116.312 221.526 116.618 222.138ZM134.322 227.808C133.908 227.502 133.476 227.34 133.026 227.34C131.748 227.34 130.884 228.276 130.884 229.59C130.884 230.904 131.748 231.84 133.026 231.84C133.512 231.84 133.998 231.642 134.484 231.264C135.186 230.76 135.834 230.922 136.284 231.516C136.698 232.02 136.572 232.74 135.906 233.262C135.078 233.892 134.088 234.198 132.936 234.198C131.604 234.198 130.488 233.766 129.606 232.884C128.724 232.002 128.274 230.904 128.274 229.59C128.274 228.276 128.724 227.178 129.606 226.296C130.506 225.414 131.622 224.964 132.936 224.964C133.962 224.964 134.862 225.234 135.618 225.792C136.284 226.314 136.464 227.07 136.086 227.574C135.672 228.15 135.024 228.294 134.322 227.808ZM143.064 234H140.616C139.536 234 138.906 233.37 138.906 232.29V223.11C138.906 222.03 139.536 221.4 140.616 221.4H143.064C144.864 221.4 146.466 221.85 147.834 222.786C149.22 223.704 150.102 225.432 150.102 227.61C150.102 229.824 149.22 231.552 147.852 232.542C146.484 233.496 144.846 234 143.064 234ZM142.65 223.866H141.588V231.534H142.668C145.818 231.534 147.384 230.22 147.384 227.61C147.384 225.108 145.8 223.866 142.65 223.866ZM153.144 232.884C152.262 232.002 151.812 230.904 151.812 229.59C151.812 228.276 152.262 227.178 153.144 226.296C154.044 225.414 155.16 224.964 156.474 224.964C157.788 224.964 158.904 225.414 159.786 226.296C160.686 227.178 161.136 228.276 161.136 229.59C161.136 230.904 160.686 232.002 159.804 232.884C158.922 233.766 157.806 234.198 156.474 234.198C155.142 234.198 154.026 233.766 153.144 232.884ZM154.998 227.988C154.62 228.402 154.422 228.942 154.422 229.59C154.422 230.238 154.62 230.778 154.998 231.192C155.376 231.606 155.88 231.822 156.474 231.822C157.068 231.822 157.572 231.606 157.95 231.192C158.328 230.778 158.526 230.238 158.526 229.59C158.526 228.942 158.328 228.402 157.95 227.988C157.572 227.574 157.068 227.358 156.474 227.358C155.88 227.358 155.376 227.574 154.998 227.988ZM163.267 232.722V226.458C163.267 225.612 163.825 225.09 164.545 225.09C165.139 225.09 165.535 225.36 165.733 225.882C166.255 225.27 166.957 224.964 167.875 224.964C170.053 224.964 171.457 226.404 171.457 228.87V232.722C171.457 233.568 170.917 234.09 170.179 234.09C169.441 234.09 168.901 233.568 168.901 232.722V229.068C168.901 228.06 168.433 227.34 167.443 227.34C166.363 227.34 165.823 228.096 165.823 229.59V232.722C165.931 234.522 163.159 234.522 163.267 232.722ZM174.334 225.882C175.108 225.27 176.134 224.964 177.376 224.964C178.474 224.964 179.374 225.288 180.076 225.918C180.778 226.548 181.12 227.394 181.12 228.492V232.722C181.12 233.568 180.562 234.09 179.842 234.09C179.248 234.09 178.852 233.82 178.654 233.28C178.042 233.892 177.286 234.198 176.404 234.198C175.522 234.198 174.82 233.946 174.262 233.442C173.704 232.92 173.434 232.272 173.434 231.48C173.434 230.562 173.758 229.878 174.424 229.41C175.09 228.942 175.936 228.69 176.926 228.654L178.546 228.582C178.546 227.682 178.096 227.232 177.196 227.232C176.656 227.232 176.17 227.376 175.72 227.682C175.054 228.132 174.406 228.078 174.028 227.574C173.614 227.088 173.74 226.368 174.334 225.882ZM176.008 231.336C176.008 231.768 176.386 232.038 177.034 232.038C177.556 232.038 178.06 231.858 178.546 231.498V230.454L177.412 230.544C176.476 230.598 176.008 230.85 176.008 231.336ZM186.39 222.678V232.722C186.498 234.522 183.726 234.522 183.834 232.722V222.678C183.726 220.878 186.498 220.878 186.39 222.678ZM197.731 222.678V232.722C197.731 233.568 197.173 234.09 196.453 234.09C195.841 234.09 195.445 233.82 195.265 233.262C194.815 233.82 193.861 234.198 192.907 234.198C191.665 234.198 190.603 233.784 189.757 232.938C188.911 232.092 188.497 230.976 188.497 229.59C188.497 228.222 188.911 227.106 189.757 226.26C190.603 225.396 191.665 224.964 192.907 224.964C193.825 224.964 194.581 225.216 195.175 225.738V222.678C195.067 220.878 197.839 220.878 197.731 222.678ZM194.617 231.246C195.013 230.814 195.211 230.256 195.211 229.59C195.211 228.924 195.013 228.366 194.617 227.934C194.239 227.502 193.753 227.286 193.159 227.286C192.565 227.286 192.079 227.502 191.683 227.934C191.305 228.366 191.107 228.924 191.107 229.59C191.107 230.256 191.305 230.814 191.683 231.246C192.079 231.678 192.565 231.894 193.159 231.894C193.753 231.894 194.239 231.678 194.617 231.246ZM22.6144 246.696C23.2624 247.272 23.3164 248.064 22.8124 248.586C22.3264 249.162 21.6064 249.234 20.9044 248.658C20.1664 248.01 19.2844 247.686 18.2404 247.686C17.2504 247.686 16.3864 248.046 15.6304 248.766C14.8924 249.468 14.5144 250.44 14.5144 251.664C14.5144 252.906 14.8924 253.896 15.6304 254.616C16.3684 255.336 17.2864 255.696 18.3844 255.696C19.4104 255.696 20.3104 255.372 21.1024 254.706C21.8044 254.148 22.5244 254.22 23.0104 254.778C23.5144 255.3 23.4604 256.092 22.8124 256.668C21.6604 257.694 20.2024 258.198 18.4564 258.198C16.5304 258.198 14.9284 257.604 13.6504 256.416C12.3904 255.228 11.7604 253.662 11.7604 251.718C11.7604 249.756 12.3904 248.172 13.6504 246.984C14.9104 245.778 16.4764 245.184 18.3664 245.184C20.0044 245.184 21.4264 245.688 22.6144 246.696ZM26.5199 256.884C25.6379 256.002 25.1879 254.904 25.1879 253.59C25.1879 252.276 25.6379 251.178 26.5199 250.296C27.4199 249.414 28.5359 248.964 29.8499 248.964C31.1639 248.964 32.2799 249.414 33.1619 250.296C34.0619 251.178 34.5119 252.276 34.5119 253.59C34.5119 254.904 34.0619 256.002 33.1799 256.884C32.2979 257.766 31.1819 258.198 29.8499 258.198C28.5179 258.198 27.4019 257.766 26.5199 256.884ZM28.3739 251.988C27.9959 252.402 27.7979 252.942 27.7979 253.59C27.7979 254.238 27.9959 254.778 28.3739 255.192C28.7519 255.606 29.2559 255.822 29.8499 255.822C30.4439 255.822 30.9479 255.606 31.3259 255.192C31.7039 254.778 31.9019 254.238 31.9019 253.59C31.9019 252.942 31.7039 252.402 31.3259 251.988C30.9479 251.574 30.4439 251.358 29.8499 251.358C29.2559 251.358 28.7519 251.574 28.3739 251.988ZM36.6431 256.722V250.458C36.6431 249.612 37.2011 249.09 37.9211 249.09C38.5151 249.09 38.9111 249.36 39.1091 249.882C39.6311 249.27 40.3331 248.964 41.2511 248.964C43.4291 248.964 44.8331 250.404 44.8331 252.87V256.722C44.8331 257.568 44.2931 258.09 43.5551 258.09C42.8171 258.09 42.2771 257.568 42.2771 256.722V253.068C42.2771 252.06 41.8091 251.34 40.8191 251.34C39.7391 251.34 39.1991 252.096 39.1991 253.59V256.722C39.3071 258.522 36.5351 258.522 36.6431 256.722ZM46.9723 257.172C46.3243 256.65 46.3063 255.858 46.7923 255.336C47.2423 254.778 47.9263 254.724 48.6283 255.246C49.0423 255.588 49.4743 255.75 49.9243 255.75C50.9863 255.75 51.5623 255.048 51.5623 253.77V246.714C51.5623 245.832 52.1203 245.292 52.8943 245.292C53.6683 245.292 54.2263 245.832 54.2263 246.714V253.662C54.2263 256.596 52.6423 258.198 49.9063 258.198C48.7723 258.198 47.8003 257.856 46.9723 257.172ZM64.5109 250.458V256.722C64.5109 257.568 63.9529 258.09 63.2329 258.09C62.6569 258.09 62.2609 257.82 62.0629 257.298C61.5589 257.892 60.8389 258.198 59.8849 258.198C57.7249 258.198 56.5189 256.812 56.5189 254.31V250.458C56.4109 248.658 59.1829 248.658 59.0749 250.458V254.112C59.0749 255.264 59.5249 255.84 60.4249 255.84C61.5589 255.84 61.9549 255.048 61.9549 253.59V250.458C61.8469 248.658 64.6189 248.658 64.5109 250.458ZM67.3521 256.722V250.458C67.3521 249.612 67.9101 249.09 68.6301 249.09C69.2241 249.09 69.6201 249.36 69.8181 249.882C70.3401 249.27 71.0421 248.964 71.9601 248.964C74.1381 248.964 75.5421 250.404 75.5421 252.87V256.722C75.5421 257.568 75.0021 258.09 74.2641 258.09C73.5261 258.09 72.9861 257.568 72.9861 256.722V253.068C72.9861 252.06 72.5181 251.34 71.5281 251.34C70.4481 251.34 69.9081 252.096 69.9081 253.59V256.722C70.0161 258.522 67.2441 258.522 67.3521 256.722ZM81.6258 255.66C82.4358 255.75 82.8678 256.2 82.8678 256.866C82.8678 257.532 82.3818 258.036 81.4998 258.036H81.2658C79.2138 258.036 78.1878 256.992 78.1878 254.886V251.538H77.8638C77.0718 251.538 76.5858 251.034 76.5858 250.368C76.5858 249.702 77.0718 249.18 77.8638 249.18H78.1878V247.992C78.0798 246.192 80.8518 246.192 80.7258 247.992V249.18H81.5898C82.3818 249.18 82.8678 249.702 82.8678 250.368C82.8678 251.034 82.3818 251.538 81.5898 251.538H80.7258V254.58C80.7258 255.318 81.0318 255.606 81.6258 255.66ZM85.7231 256.884C84.8411 256.002 84.3911 254.904 84.3911 253.59C84.3911 252.276 84.8411 251.178 85.7231 250.296C86.6231 249.414 87.7391 248.964 89.0531 248.964C90.3671 248.964 91.4831 249.414 92.3651 250.296C93.2651 251.178 93.7151 252.276 93.7151 253.59C93.7151 254.904 93.2651 256.002 92.3831 256.884C91.5011 257.766 90.3851 258.198 89.0531 258.198C87.7211 258.198 86.6051 257.766 85.7231 256.884ZM87.5771 251.988C87.1991 252.402 87.0011 252.942 87.0011 253.59C87.0011 254.238 87.1991 254.778 87.5771 255.192C87.9551 255.606 88.4591 255.822 89.0531 255.822C89.6471 255.822 90.1511 255.606 90.5291 255.192C90.9071 254.778 91.1051 254.238 91.1051 253.59C91.1051 252.942 90.9071 252.402 90.5291 251.988C90.1511 251.574 89.6471 251.358 89.0531 251.358C88.4591 251.358 87.9551 251.574 87.5771 251.988ZM96.0622 257.226C95.4682 256.704 95.3962 256.02 95.8462 255.516C96.3322 254.976 96.8902 254.958 97.5382 255.48C98.0242 255.858 98.6722 256.056 99.4642 256.056C100.022 256.056 100.454 255.858 100.454 255.516C100.454 255.228 100.256 255.084 99.6622 254.922L98.6722 254.634C96.7102 254.076 95.7922 253.176 95.7922 251.754C95.7922 250.908 96.1162 250.242 96.7822 249.738C97.4482 249.216 98.2582 248.964 99.2122 248.964C100.238 248.964 101.102 249.18 101.822 249.63C102.47 250.062 102.632 250.71 102.29 251.268C101.912 251.844 101.3 252.006 100.598 251.592C100.13 251.286 99.6262 251.142 99.1042 251.142C98.6002 251.142 98.2762 251.34 98.2762 251.628C98.2762 251.898 98.4742 252.006 98.9062 252.132L100.04 252.438C101.84 252.942 102.938 253.716 102.938 255.354C102.938 257.028 101.498 258.198 99.2482 258.198C97.8982 258.198 96.8362 257.874 96.0622 257.226ZM105.753 251.628C105.159 251.034 105.159 250.026 105.753 249.432C106.347 248.802 107.355 248.802 107.949 249.432C108.579 250.026 108.579 251.034 107.949 251.628C107.355 252.222 106.347 252.222 105.753 251.628ZM107.625 257.496L106.419 260.07C106.149 260.646 105.627 260.88 105.069 260.736C104.421 260.538 104.043 259.944 104.313 259.242L105.285 256.596C105.573 255.804 106.221 255.48 106.959 255.714C107.661 255.93 107.967 256.722 107.625 257.496ZM123.984 252.834C123.984 253.77 123.516 254.238 122.562 254.238H118.044C118.188 255.192 118.926 255.858 120.024 255.858C120.636 255.858 121.158 255.678 121.608 255.318C122.31 254.814 122.958 254.976 123.408 255.57C123.822 256.074 123.696 256.794 123.03 257.316C122.256 257.91 121.266 258.198 120.096 258.198C118.746 258.198 117.648 257.784 116.766 256.956C115.884 256.11 115.452 255.012 115.452 253.644C115.452 252.294 115.848 251.178 116.658 250.296C117.468 249.414 118.512 248.964 119.79 248.964C120.672 248.964 121.446 249.18 122.112 249.594C123.462 250.44 123.984 251.628 123.984 252.834ZM119.844 251.214C118.926 251.214 118.332 251.754 118.17 252.528H121.338C121.284 251.79 120.69 251.214 119.844 251.214ZM126.168 256.722V250.458C126.168 249.612 126.726 249.09 127.446 249.09C128.04 249.09 128.436 249.36 128.634 249.882C129.156 249.27 129.858 248.964 130.776 248.964C132.954 248.964 134.358 250.404 134.358 252.87V256.722C134.358 257.568 133.818 258.09 133.08 258.09C132.342 258.09 131.802 257.568 131.802 256.722V253.068C131.802 252.06 131.334 251.34 130.344 251.34C129.264 251.34 128.724 252.096 128.724 253.59V256.722C128.832 258.522 126.06 258.522 126.168 256.722ZM140.442 255.66C141.252 255.75 141.684 256.2 141.684 256.866C141.684 257.532 141.198 258.036 140.316 258.036H140.082C138.03 258.036 137.004 256.992 137.004 254.886V251.538H136.68C135.888 251.538 135.402 251.034 135.402 250.368C135.402 249.702 135.888 249.18 136.68 249.18H137.004V247.992C136.896 246.192 139.668 246.192 139.542 247.992V249.18H140.406C141.198 249.18 141.684 249.702 141.684 250.368C141.684 251.034 141.198 251.538 140.406 251.538H139.542V254.58C139.542 255.318 139.848 255.606 140.442 255.66ZM149.199 249.126C149.775 249.27 150.207 249.72 150.207 250.386C150.207 251.088 149.721 251.574 149.091 251.574C148.965 251.574 148.695 251.538 148.533 251.538C147.309 251.538 146.373 252.528 146.373 254.31V256.722C146.481 258.522 143.709 258.522 143.817 256.722V250.458C143.817 249.612 144.375 249.09 145.095 249.09C145.761 249.09 146.247 249.522 146.337 250.152C146.841 249.45 147.705 249.054 148.479 249.054C148.785 249.054 149.019 249.072 149.199 249.126ZM159.474 252.834C159.474 253.77 159.006 254.238 158.052 254.238H153.534C153.678 255.192 154.416 255.858 155.514 255.858C156.126 255.858 156.648 255.678 157.098 255.318C157.8 254.814 158.448 254.976 158.898 255.57C159.312 256.074 159.186 256.794 158.52 257.316C157.746 257.91 156.756 258.198 155.586 258.198C154.236 258.198 153.138 257.784 152.256 256.956C151.374 256.11 150.942 255.012 150.942 253.644C150.942 252.294 151.338 251.178 152.148 250.296C152.958 249.414 154.002 248.964 155.28 248.964C156.162 248.964 156.936 249.18 157.602 249.594C158.952 250.44 159.474 251.628 159.474 252.834ZM155.334 251.214C154.416 251.214 153.822 251.754 153.66 252.528H156.828C156.774 251.79 156.18 251.214 155.334 251.214ZM166.686 256.722V250.458C166.686 249.612 167.244 249.09 167.964 249.09C168.558 249.09 168.954 249.36 169.152 249.882C169.674 249.27 170.412 248.964 171.33 248.964C172.356 248.964 173.166 249.324 173.778 250.026C174.48 249.324 175.362 248.964 176.424 248.964C178.782 248.964 180.114 250.368 180.114 252.87V256.722C180.222 258.522 177.45 258.522 177.558 256.722V252.978C177.558 251.988 177.09 251.34 176.208 251.34C175.254 251.34 174.678 252.078 174.678 253.302V256.722C174.786 258.522 172.014 258.522 172.122 256.722V252.978C172.122 251.988 171.654 251.34 170.772 251.34C169.764 251.34 169.242 252.114 169.242 253.482V256.722C169.35 258.522 166.578 258.522 166.686 256.722ZM182.992 249.882C183.766 249.27 184.792 248.964 186.034 248.964C187.132 248.964 188.032 249.288 188.734 249.918C189.436 250.548 189.778 251.394 189.778 252.492V256.722C189.778 257.568 189.22 258.09 188.5 258.09C187.906 258.09 187.51 257.82 187.312 257.28C186.7 257.892 185.944 258.198 185.062 258.198C184.18 258.198 183.478 257.946 182.92 257.442C182.362 256.92 182.092 256.272 182.092 255.48C182.092 254.562 182.416 253.878 183.082 253.41C183.748 252.942 184.594 252.69 185.584 252.654L187.204 252.582C187.204 251.682 186.754 251.232 185.854 251.232C185.314 251.232 184.828 251.376 184.378 251.682C183.712 252.132 183.064 252.078 182.686 251.574C182.272 251.088 182.398 250.368 182.992 249.882ZM184.666 255.336C184.666 255.768 185.044 256.038 185.692 256.038C186.214 256.038 186.718 255.858 187.204 255.498V254.454L186.07 254.544C185.134 254.598 184.666 254.85 184.666 255.336ZM201.009 246.678V256.722C201.009 257.568 200.451 258.09 199.731 258.09C199.119 258.09 198.723 257.82 198.543 257.262C198.093 257.82 197.139 258.198 196.185 258.198C194.943 258.198 193.881 257.784 193.035 256.938C192.189 256.092 191.775 254.976 191.775 253.59C191.775 252.222 192.189 251.106 193.035 250.26C193.881 249.396 194.943 248.964 196.185 248.964C197.103 248.964 197.859 249.216 198.453 249.738V246.678C198.345 244.878 201.117 244.878 201.009 246.678ZM197.895 255.246C198.291 254.814 198.489 254.256 198.489 253.59C198.489 252.924 198.291 252.366 197.895 251.934C197.517 251.502 197.031 251.286 196.437 251.286C195.843 251.286 195.357 251.502 194.961 251.934C194.583 252.366 194.385 252.924 194.385 253.59C194.385 254.256 194.583 254.814 194.961 255.246C195.357 255.678 195.843 255.894 196.437 255.894C197.031 255.894 197.517 255.678 197.895 255.246ZM209.211 249.126C209.787 249.27 210.219 249.72 210.219 250.386C210.219 251.088 209.733 251.574 209.103 251.574C208.977 251.574 208.707 251.538 208.545 251.538C207.321 251.538 206.385 252.528 206.385 254.31V256.722C206.493 258.522 203.721 258.522 203.829 256.722V250.458C203.829 249.612 204.387 249.09 205.107 249.09C205.773 249.09 206.259 249.522 206.349 250.152C206.853 249.45 207.717 249.054 208.491 249.054C208.797 249.054 209.031 249.072 209.211 249.126ZM219.486 252.834C219.486 253.77 219.018 254.238 218.064 254.238H213.546C213.69 255.192 214.428 255.858 215.526 255.858C216.138 255.858 216.66 255.678 217.11 255.318C217.812 254.814 218.46 254.976 218.91 255.57C219.324 256.074 219.198 256.794 218.532 257.316C217.758 257.91 216.768 258.198 215.598 258.198C214.248 258.198 213.15 257.784 212.268 256.956C211.386 256.11 210.954 255.012 210.954 253.644C210.954 252.294 211.35 251.178 212.16 250.296C212.97 249.414 214.014 248.964 215.292 248.964C216.174 248.964 216.948 249.18 217.614 249.594C218.964 250.44 219.486 251.628 219.486 252.834ZM215.346 251.214C214.428 251.214 213.834 251.754 213.672 252.528H216.84C216.786 251.79 216.192 251.214 215.346 251.214ZM221.886 257.226C221.292 256.704 221.22 256.02 221.67 255.516C222.156 254.976 222.714 254.958 223.362 255.48C223.848 255.858 224.496 256.056 225.288 256.056C225.846 256.056 226.278 255.858 226.278 255.516C226.278 255.228 226.08 255.084 225.486 254.922L224.496 254.634C222.534 254.076 221.616 253.176 221.616 251.754C221.616 250.908 221.94 250.242 222.606 249.738C223.272 249.216 224.082 248.964 225.036 248.964C226.062 248.964 226.926 249.18 227.646 249.63C228.294 250.062 228.456 250.71 228.114 251.268C227.736 251.844 227.124 252.006 226.422 251.592C225.954 251.286 225.45 251.142 224.928 251.142C224.424 251.142 224.1 251.34 224.1 251.628C224.1 251.898 224.298 252.006 224.73 252.132L225.864 252.438C227.664 252.942 228.762 253.716 228.762 255.354C228.762 257.028 227.322 258.198 225.072 258.198C223.722 258.198 222.66 257.874 221.886 257.226ZM233.464 257.496L232.258 260.07C231.988 260.646 231.466 260.88 230.908 260.736C230.26 260.538 229.882 259.944 230.152 259.242L231.124 256.596C231.412 255.804 232.06 255.48 232.798 255.714C233.5 255.93 233.806 256.722 233.464 257.496ZM38.7876 284.214V274.44C38.7876 273.576 39.3456 273.072 40.0656 273.072C40.6776 273.072 41.0736 273.342 41.2536 273.9C41.7036 273.342 42.6576 272.964 43.6116 272.964C44.8536 272.964 45.8976 273.396 46.7436 274.242C47.5896 275.088 48.0216 276.204 48.0216 277.59C48.0216 278.958 47.5896 280.074 46.7436 280.92C45.8976 281.766 44.8536 282.198 43.6116 282.198C42.6936 282.198 41.9376 281.946 41.3436 281.424V284.214C41.4516 286.014 38.6796 286.014 38.7876 284.214ZM41.8836 275.934C41.5056 276.366 41.3076 276.924 41.3076 277.59C41.3076 278.256 41.5056 278.814 41.8836 279.246C42.2796 279.678 42.7656 279.894 43.3596 279.894C43.9536 279.894 44.4396 279.678 44.8176 279.246C45.2136 278.814 45.4116 278.256 45.4116 277.59C45.4116 276.924 45.2136 276.366 44.8176 275.934C44.4396 275.502 43.9536 275.286 43.3596 275.286C42.7656 275.286 42.2796 275.502 41.8836 275.934ZM50.5755 273.882C51.3495 273.27 52.3755 272.964 53.6175 272.964C54.7155 272.964 55.6155 273.288 56.3175 273.918C57.0195 274.548 57.3615 275.394 57.3615 276.492V280.722C57.3615 281.568 56.8035 282.09 56.0835 282.09C55.4895 282.09 55.0935 281.82 54.8955 281.28C54.2835 281.892 53.5275 282.198 52.6455 282.198C51.7635 282.198 51.0615 281.946 50.5035 281.442C49.9455 280.92 49.6755 280.272 49.6755 279.48C49.6755 278.562 49.9995 277.878 50.6655 277.41C51.3315 276.942 52.1775 276.69 53.1675 276.654L54.7875 276.582C54.7875 275.682 54.3375 275.232 53.4375 275.232C52.8975 275.232 52.4115 275.376 51.9615 275.682C51.2955 276.132 50.6475 276.078 50.2695 275.574C49.8555 275.088 49.9815 274.368 50.5755 273.882ZM52.2495 279.336C52.2495 279.768 52.6275 280.038 53.2755 280.038C53.7975 280.038 54.3015 279.858 54.7875 279.498V278.454L53.6535 278.544C52.7175 278.598 52.2495 278.85 52.2495 279.336ZM68.5934 270.678V280.722C68.5934 281.568 68.0354 282.09 67.3154 282.09C66.7034 282.09 66.3074 281.82 66.1274 281.262C65.6774 281.82 64.7234 282.198 63.7694 282.198C62.5274 282.198 61.4654 281.784 60.6194 280.938C59.7734 280.092 59.3594 278.976 59.3594 277.59C59.3594 276.222 59.7734 275.106 60.6194 274.26C61.4654 273.396 62.5274 272.964 63.7694 272.964C64.6874 272.964 65.4434 273.216 66.0374 273.738V270.678C65.9294 268.878 68.7014 268.878 68.5934 270.678ZM65.4794 279.246C65.8754 278.814 66.0734 278.256 66.0734 277.59C66.0734 276.924 65.8754 276.366 65.4794 275.934C65.1014 275.502 64.6154 275.286 64.0214 275.286C63.4274 275.286 62.9414 275.502 62.5454 275.934C62.1674 276.366 61.9694 276.924 61.9694 277.59C61.9694 278.256 62.1674 278.814 62.5454 279.246C62.9414 279.678 63.4274 279.894 64.0214 279.894C64.6154 279.894 65.1014 279.678 65.4794 279.246ZM76.7946 273.126C77.3706 273.27 77.8026 273.72 77.8026 274.386C77.8026 275.088 77.3166 275.574 76.6866 275.574C76.5606 275.574 76.2906 275.538 76.1286 275.538C74.9046 275.538 73.9686 276.528 73.9686 278.31V280.722C74.0766 282.522 71.3046 282.522 71.4126 280.722V274.458C71.4126 273.612 71.9706 273.09 72.6906 273.09C73.3566 273.09 73.8426 273.522 73.9326 274.152C74.4366 273.45 75.3006 273.054 76.0746 273.054C76.3806 273.054 76.6146 273.072 76.7946 273.126ZM87.0695 276.834C87.0695 277.77 86.6015 278.238 85.6475 278.238H81.1295C81.2735 279.192 82.0115 279.858 83.1095 279.858C83.7215 279.858 84.2435 279.678 84.6935 279.318C85.3955 278.814 86.0435 278.976 86.4935 279.57C86.9075 280.074 86.7815 280.794 86.1155 281.316C85.3415 281.91 84.3515 282.198 83.1815 282.198C81.8315 282.198 80.7335 281.784 79.8515 280.956C78.9695 280.11 78.5375 279.012 78.5375 277.644C78.5375 276.294 78.9335 275.178 79.7435 274.296C80.5535 273.414 81.5975 272.964 82.8755 272.964C83.7575 272.964 84.5315 273.18 85.1975 273.594C86.5475 274.44 87.0695 275.628 87.0695 276.834ZM82.9295 275.214C82.0115 275.214 81.4175 275.754 81.2555 276.528H84.4235C84.3695 275.79 83.7755 275.214 82.9295 275.214ZM89.4704 281.226C88.8764 280.704 88.8044 280.02 89.2544 279.516C89.7404 278.976 90.2984 278.958 90.9464 279.48C91.4324 279.858 92.0804 280.056 92.8724 280.056C93.4304 280.056 93.8624 279.858 93.8624 279.516C93.8624 279.228 93.6644 279.084 93.0704 278.922L92.0804 278.634C90.1184 278.076 89.2004 277.176 89.2004 275.754C89.2004 274.908 89.5244 274.242 90.1904 273.738C90.8564 273.216 91.6664 272.964 92.6204 272.964C93.6464 272.964 94.5104 273.18 95.2304 273.63C95.8784 274.062 96.0404 274.71 95.6984 275.268C95.3204 275.844 94.7084 276.006 94.0064 275.592C93.5384 275.286 93.0344 275.142 92.5124 275.142C92.0084 275.142 91.6844 275.34 91.6844 275.628C91.6844 275.898 91.8824 276.006 92.3144 276.132L93.4484 276.438C95.2484 276.942 96.3464 277.716 96.3464 279.354C96.3464 281.028 94.9064 282.198 92.6564 282.198C91.3064 282.198 90.2444 281.874 89.4704 281.226ZM105.258 283.836L106.05 282L103.332 274.908C103.044 274.116 103.422 273.36 104.142 273.144C104.808 272.946 105.456 273.27 105.744 274.08L107.436 278.634L109.146 274.08C109.434 273.27 110.082 272.946 110.748 273.144C111.468 273.378 111.882 274.044 111.576 274.818L107.688 284.574C107.346 285.42 106.824 285.726 106.086 285.51C105.348 285.276 104.916 284.61 105.258 283.836ZM118.645 280.722V270.678C118.537 268.878 121.309 268.878 121.201 270.678V273.72C121.687 273.216 122.371 272.964 123.253 272.964C125.431 272.964 126.835 274.404 126.835 276.87V280.722C126.835 281.568 126.295 282.09 125.557 282.09C124.819 282.09 124.279 281.568 124.279 280.722V277.068C124.279 276.06 123.811 275.34 122.821 275.34C121.741 275.34 121.201 276.024 121.201 277.392V280.722C121.309 282.522 118.537 282.522 118.645 280.722ZM137.29 276.834C137.29 277.77 136.822 278.238 135.868 278.238H131.35C131.494 279.192 132.232 279.858 133.33 279.858C133.942 279.858 134.464 279.678 134.914 279.318C135.616 278.814 136.264 278.976 136.714 279.57C137.128 280.074 137.002 280.794 136.336 281.316C135.562 281.91 134.572 282.198 133.402 282.198C132.052 282.198 130.954 281.784 130.072 280.956C129.19 280.11 128.758 279.012 128.758 277.644C128.758 276.294 129.154 275.178 129.964 274.296C130.774 273.414 131.818 272.964 133.096 272.964C133.978 272.964 134.752 273.18 135.418 273.594C136.768 274.44 137.29 275.628 137.29 276.834ZM133.15 275.214C132.232 275.214 131.638 275.754 131.476 276.528H134.644C134.59 275.79 133.996 275.214 133.15 275.214ZM144.857 273.126C145.433 273.27 145.865 273.72 145.865 274.386C145.865 275.088 145.379 275.574 144.749 275.574C144.623 275.574 144.353 275.538 144.191 275.538C142.967 275.538 142.031 276.528 142.031 278.31V280.722C142.139 282.522 139.367 282.522 139.475 280.722V274.458C139.475 273.612 140.033 273.09 140.753 273.09C141.419 273.09 141.905 273.522 141.995 274.152C142.499 273.45 143.363 273.054 144.137 273.054C144.443 273.054 144.677 273.072 144.857 273.126ZM147.297 280.722V274.458C147.297 273.612 147.855 273.09 148.575 273.09C149.169 273.09 149.565 273.36 149.763 273.882C150.285 273.27 151.023 272.964 151.941 272.964C152.967 272.964 153.777 273.324 154.389 274.026C155.091 273.324 155.973 272.964 157.035 272.964C159.393 272.964 160.725 274.368 160.725 276.87V280.722C160.833 282.522 158.061 282.522 158.169 280.722V276.978C158.169 275.988 157.701 275.34 156.819 275.34C155.865 275.34 155.289 276.078 155.289 277.302V280.722C155.397 282.522 152.625 282.522 152.733 280.722V276.978C152.733 275.988 152.265 275.34 151.383 275.34C150.375 275.34 149.853 276.114 149.853 277.482V280.722C149.961 282.522 147.189 282.522 147.297 280.722ZM163.603 273.882C164.377 273.27 165.403 272.964 166.645 272.964C167.743 272.964 168.643 273.288 169.345 273.918C170.047 274.548 170.389 275.394 170.389 276.492V280.722C170.389 281.568 169.831 282.09 169.111 282.09C168.517 282.09 168.121 281.82 167.923 281.28C167.311 281.892 166.555 282.198 165.673 282.198C164.791 282.198 164.089 281.946 163.531 281.442C162.973 280.92 162.703 280.272 162.703 279.48C162.703 278.562 163.027 277.878 163.693 277.41C164.359 276.942 165.205 276.69 166.195 276.654L167.815 276.582C167.815 275.682 167.365 275.232 166.465 275.232C165.925 275.232 165.439 275.376 164.989 275.682C164.323 276.132 163.675 276.078 163.297 275.574C162.883 275.088 163.009 274.368 163.603 273.882ZM165.277 279.336C165.277 279.768 165.655 280.038 166.303 280.038C166.825 280.038 167.329 279.858 167.815 279.498V278.454L166.681 278.544C165.745 278.598 165.277 278.85 165.277 279.336ZM173.102 280.722V274.458C173.102 273.612 173.66 273.09 174.38 273.09C174.974 273.09 175.37 273.36 175.568 273.882C176.09 273.27 176.792 272.964 177.71 272.964C179.888 272.964 181.292 274.404 181.292 276.87V280.722C181.292 281.568 180.752 282.09 180.014 282.09C179.276 282.09 178.736 281.568 178.736 280.722V277.068C178.736 276.06 178.268 275.34 177.278 275.34C176.198 275.34 175.658 276.096 175.658 277.59V280.722C175.766 282.522 172.994 282.522 173.102 280.722ZM184.547 280.884C183.665 280.002 183.215 278.904 183.215 277.59C183.215 276.276 183.665 275.178 184.547 274.296C185.447 273.414 186.563 272.964 187.877 272.964C189.191 272.964 190.307 273.414 191.189 274.296C192.089 275.178 192.539 276.276 192.539 277.59C192.539 278.904 192.089 280.002 191.207 280.884C190.325 281.766 189.209 282.198 187.877 282.198C186.545 282.198 185.429 281.766 184.547 280.884ZM186.401 275.988C186.023 276.402 185.825 276.942 185.825 277.59C185.825 278.238 186.023 278.778 186.401 279.192C186.779 279.606 187.283 279.822 187.877 279.822C188.471 279.822 188.975 279.606 189.353 279.192C189.731 278.778 189.929 278.238 189.929 277.59C189.929 276.942 189.731 276.402 189.353 275.988C188.975 275.574 188.471 275.358 187.877 275.358C187.283 275.358 186.779 275.574 186.401 275.988ZM194.886 281.226C194.292 280.704 194.22 280.02 194.67 279.516C195.156 278.976 195.714 278.958 196.362 279.48C196.848 279.858 197.496 280.056 198.288 280.056C198.846 280.056 199.278 279.858 199.278 279.516C199.278 279.228 199.08 279.084 198.486 278.922L197.496 278.634C195.534 278.076 194.616 277.176 194.616 275.754C194.616 274.908 194.94 274.242 195.606 273.738C196.272 273.216 197.082 272.964 198.036 272.964C199.062 272.964 199.926 273.18 200.646 273.63C201.294 274.062 201.456 274.71 201.114 275.268C200.736 275.844 200.124 276.006 199.422 275.592C198.954 275.286 198.45 275.142 197.928 275.142C197.424 275.142 197.1 275.34 197.1 275.628C197.1 275.898 197.298 276.006 197.73 276.132L198.864 276.438C200.664 276.942 201.762 277.716 201.762 279.354C201.762 281.028 200.322 282.198 198.072 282.198C196.722 282.198 195.66 281.874 194.886 281.226ZM204.25 281.73C203.674 281.136 203.674 280.128 204.25 279.534C204.844 278.94 205.852 278.94 206.446 279.534C207.076 280.128 207.076 281.136 206.446 281.73C205.852 282.324 204.844 282.324 204.25 281.73Z" fill="#F9D332"/>
<circle cx="121.5" cy="91.5" r="78" fill="#F9D332" stroke="#930345" stroke-width="9"/>
<path d="M90.6891 94.816C87.5531 95.04 87.5531 90.176 90.6891 90.4C92.8971 90.4 94.1771 89.408 94.1771 87.872C94.1771 86.56 93.0251 85.568 91.2331 85.568C89.9211 85.568 88.8331 85.888 87.9691 86.496C86.7851 87.296 85.6331 87.2 84.8651 86.304C84.0971 85.504 84.1611 84.032 85.2811 83.136C86.8811 81.856 88.8331 81.216 91.1051 81.216C93.2811 81.216 95.1371 81.728 96.6411 82.784C98.1771 83.84 98.9451 85.376 98.9451 87.424C98.9451 89.568 98.1131 91.168 96.4491 92.288C98.1451 93.152 99.4891 95.04 99.4891 97.568C99.4891 99.712 98.6891 101.376 97.0891 102.56C95.4891 103.744 93.4731 104.352 91.0411 104.352C88.6731 104.352 86.5931 103.68 84.8331 102.368C83.6491 101.472 83.5851 99.904 84.3851 99.04C85.3131 98.016 86.4011 97.952 87.6491 98.848C88.7051 99.616 89.8891 100 91.2331 100C93.3131 100 94.7531 99.072 94.7531 97.44C94.7531 95.68 93.4091 94.816 90.6891 94.816ZM104.074 92.896L104.426 84.64C104.522 82.624 105.546 81.6 107.466 81.6H116.362C117.802 81.6 118.698 82.528 118.698 83.808C118.698 85.056 117.802 85.984 116.362 85.984H108.97L108.778 90.08C109.802 89.408 111.05 89.056 112.522 89.056C114.602 89.056 116.394 89.728 117.898 91.104C119.402 92.448 120.17 94.24 120.17 96.448C120.17 98.816 119.338 100.736 117.674 102.176C116.042 103.616 113.898 104.352 111.306 104.352C109.034 104.352 107.082 103.776 105.418 102.592C104.138 101.696 104.042 100.16 104.842 99.168C105.642 98.048 106.954 97.888 108.266 98.816C109.322 99.616 110.442 100 111.658 100C113.802 100 115.434 98.656 115.434 96.704C115.434 94.688 113.898 93.216 111.754 93.216C110.442 93.216 109.45 93.696 108.746 94.656C108.266 95.328 107.562 95.68 106.666 95.68C105.162 95.68 104.042 94.592 104.074 92.896ZM128.606 88.896C128.606 90.848 130.046 92.224 131.966 92.224C133.886 92.224 135.326 90.848 135.326 88.896C135.326 86.976 133.886 85.568 131.966 85.568C130.046 85.568 128.606 86.976 128.606 88.896ZM128.67 99.136C129.566 99.712 130.558 100 131.646 100C132.99 100 134.142 99.488 135.07 98.464C135.998 97.408 136.478 96.064 136.51 94.4C135.326 95.776 133.694 96.448 131.646 96.448C129.502 96.448 127.678 95.744 126.142 94.336C124.638 92.928 123.87 91.104 123.87 88.864C123.87 86.56 124.67 84.704 126.238 83.328C127.838 81.92 129.758 81.216 131.998 81.216C134.782 81.216 136.99 82.272 138.59 84.384C140.222 86.464 141.022 89.344 141.022 92.992C141.022 96.416 140.158 99.168 138.43 101.248C136.734 103.328 134.398 104.352 131.454 104.352C129.694 104.352 127.998 103.872 126.43 102.944C125.118 102.176 124.798 100.832 125.438 99.776C126.078 98.656 127.358 98.368 128.67 99.136ZM157.352 96.672C157.352 94.72 155.912 93.344 153.992 93.344C152.072 93.344 150.632 94.72 150.632 96.672C150.632 98.592 152.072 100 153.992 100C155.912 100 157.352 98.592 157.352 96.672ZM157.288 86.432C156.392 85.856 155.4 85.568 154.312 85.568C152.968 85.568 151.816 86.08 150.888 87.136C149.96 88.16 149.48 89.504 149.448 91.168C150.632 89.792 152.264 89.12 154.312 89.12C156.456 89.12 158.28 89.824 159.784 91.232C161.32 92.64 162.088 94.464 162.088 96.704C162.088 99.008 161.288 100.864 159.688 102.272C158.12 103.648 156.2 104.352 153.96 104.352C151.176 104.352 148.968 103.296 147.336 101.216C145.736 99.104 144.936 96.224 144.936 92.576C144.936 89.152 145.8 86.4 147.496 84.32C149.224 82.24 151.56 81.216 154.504 81.216C156.264 81.216 157.96 81.696 159.528 82.624C160.84 83.392 161.16 84.736 160.52 85.792C159.88 86.912 158.6 87.2 157.288 86.432Z" fill="#930345"/>
</svg>
