<svg width="978" height="75" viewBox="0 0 978 75" fill="none" xmlns="http://www.w3.org/2000/svg">
<ellipse cx="38" cy="37.5" rx="38" ry="37.5" fill="#930345"/>
<circle cx="149.5" cy="37.5" r="37.5" fill="#930345"/>
<circle cx="261.5" cy="37.5" r="37.5" fill="#930345"/>
<ellipse cx="512" cy="37.5" rx="38" ry="37.5" fill="#930345"/>
<circle cx="663.5" cy="37.5" r="37.5" fill="#930345"/>
<circle cx="808.5" cy="37.5" r="37.5" fill="#930345"/>
<ellipse cx="940" cy="37.5" rx="38" ry="37.5" fill="#930345"/>
<line x1="43" y1="34.5" x2="915" y2="34.5" stroke="#930345" stroke-width="3" stroke-dasharray="10 10"/>
<path d="M17.1795 36.164C16.5855 36.524 16.2975 36.974 16.2975 37.496C16.2975 37.946 16.4955 38.27 16.8915 38.504C17.3055 38.738 17.7735 38.702 18.2955 38.432L19.5555 37.694V44.534H17.4315C16.6215 44.534 16.1175 45.056 16.1175 45.776C16.1175 46.478 16.6215 47 17.4315 47H23.9655C24.7755 47 25.2795 46.478 25.2795 45.776C25.2795 45.056 24.7575 44.534 23.9475 44.534H22.2195V35.912C22.2195 34.904 21.6435 34.31 20.7975 34.31C20.4195 34.31 19.9875 34.454 19.4835 34.76L17.1795 36.164ZM29.5607 38.504C29.5607 37.424 30.3707 36.632 31.4507 36.632C32.5307 36.632 33.3407 37.424 33.3407 38.504C33.3407 39.602 32.5307 40.376 31.4507 40.376C30.3707 40.376 29.5607 39.602 29.5607 38.504ZM29.5967 44.264C28.8587 43.832 28.1387 43.994 27.7787 44.624C27.4187 45.218 27.5987 45.974 28.3367 46.406C29.2187 46.928 30.1727 47.198 31.1627 47.198C32.8187 47.198 34.1327 46.622 35.0867 45.452C36.0587 44.282 36.5447 42.734 36.5447 40.808C36.5447 38.756 36.0947 37.136 35.1767 35.966C34.2767 34.778 33.0347 34.184 31.4687 34.184C30.2087 34.184 29.1287 34.58 28.2287 35.372C27.3467 36.146 26.8967 37.19 26.8967 38.486C26.8967 39.746 27.3287 40.772 28.1747 41.564C29.0387 42.356 30.0647 42.752 31.2707 42.752C32.4227 42.752 33.3407 42.374 34.0067 41.6C33.9887 42.536 33.7187 43.292 33.1967 43.886C32.6747 44.462 32.0267 44.75 31.2707 44.75C30.6587 44.75 30.1007 44.588 29.5967 44.264ZM39.0524 40.754C39.0344 41.708 39.6644 42.32 40.5104 42.32C41.0144 42.32 41.4104 42.122 41.6804 41.744C42.0764 41.204 42.6344 40.934 43.3724 40.934C44.5784 40.934 45.4424 41.762 45.4424 42.896C45.4424 43.994 44.5244 44.75 43.3184 44.75C42.6344 44.75 42.0044 44.534 41.4104 44.084C40.6724 43.562 39.9344 43.652 39.4844 44.282C39.0344 44.84 39.0884 45.704 39.8084 46.208C40.7444 46.874 41.8424 47.198 43.1204 47.198C44.5784 47.198 45.7844 46.784 46.7024 45.974C47.6384 45.164 48.1064 44.084 48.1064 42.752C48.1064 41.51 47.6744 40.502 46.8284 39.746C45.9824 38.972 44.9744 38.594 43.8044 38.594C42.9764 38.594 42.2744 38.792 41.6984 39.17L41.8064 36.866H45.9644C46.7744 36.866 47.2784 36.344 47.2784 35.642C47.2784 34.922 46.7744 34.4 45.9644 34.4H40.9604C39.8804 34.4 39.3044 34.976 39.2504 36.11L39.0524 40.754ZM50.3857 43.382C50.3857 44.552 50.8177 45.47 51.6637 46.172C52.5277 46.856 53.6257 47.198 54.9577 47.198C56.2897 47.198 57.3877 46.856 58.2337 46.172C59.0977 45.47 59.5297 44.552 59.5297 43.382C59.5297 42.068 58.8457 41.024 57.9637 40.502C58.8097 39.8 59.2237 38.972 59.2237 38C59.2237 36.866 58.8097 35.948 57.9997 35.246C57.1897 34.544 56.1817 34.184 54.9577 34.184C53.7337 34.184 52.7077 34.544 51.8977 35.246C51.0877 35.948 50.6917 36.866 50.6917 38C50.6917 38.972 51.1237 39.8 51.9697 40.502C51.0517 41.024 50.3857 42.068 50.3857 43.382ZM54.9577 36.632C55.8397 36.632 56.5597 37.154 56.5597 38C56.5597 38.846 55.8397 39.368 54.9577 39.368C54.0937 39.368 53.3557 38.846 53.3557 38C53.3557 37.154 54.0937 36.632 54.9577 36.632ZM54.9577 44.75C53.8237 44.75 53.0497 44.174 53.0497 43.238C53.0497 42.302 53.8237 41.708 54.9577 41.708C56.1097 41.708 56.8657 42.302 56.8657 43.238C56.8657 44.174 56.1097 44.75 54.9577 44.75Z" fill="#F9D332"/>
<path d="M128.276 36.164C127.682 36.524 127.394 36.974 127.394 37.496C127.394 37.946 127.592 38.27 127.988 38.504C128.402 38.738 128.87 38.702 129.392 38.432L130.652 37.694V44.534H128.528C127.718 44.534 127.214 45.056 127.214 45.776C127.214 46.478 127.718 47 128.528 47H135.062C135.872 47 136.376 46.478 136.376 45.776C136.376 45.056 135.854 44.534 135.044 44.534H133.316V35.912C133.316 34.904 132.74 34.31 131.894 34.31C131.516 34.31 131.084 34.454 130.58 34.76L128.276 36.164ZM140.657 38.504C140.657 37.424 141.467 36.632 142.547 36.632C143.627 36.632 144.437 37.424 144.437 38.504C144.437 39.602 143.627 40.376 142.547 40.376C141.467 40.376 140.657 39.602 140.657 38.504ZM140.693 44.264C139.955 43.832 139.235 43.994 138.875 44.624C138.515 45.218 138.695 45.974 139.433 46.406C140.315 46.928 141.269 47.198 142.259 47.198C143.915 47.198 145.229 46.622 146.183 45.452C147.155 44.282 147.641 42.734 147.641 40.808C147.641 38.756 147.191 37.136 146.273 35.966C145.373 34.778 144.131 34.184 142.565 34.184C141.305 34.184 140.225 34.58 139.325 35.372C138.443 36.146 137.993 37.19 137.993 38.486C137.993 39.746 138.425 40.772 139.271 41.564C140.135 42.356 141.161 42.752 142.367 42.752C143.519 42.752 144.437 42.374 145.103 41.6C145.085 42.536 144.815 43.292 144.293 43.886C143.771 44.462 143.123 44.75 142.367 44.75C141.755 44.75 141.197 44.588 140.693 44.264ZM156.827 42.878C156.827 43.958 156.017 44.75 154.937 44.75C153.857 44.75 153.047 43.958 153.047 42.878C153.047 41.78 153.857 41.006 154.937 41.006C156.017 41.006 156.827 41.78 156.827 42.878ZM156.791 37.118C157.529 37.55 158.249 37.388 158.609 36.758C158.969 36.164 158.789 35.408 158.051 34.976C157.169 34.454 156.215 34.184 155.225 34.184C153.569 34.184 152.255 34.76 151.283 35.93C150.329 37.1 149.843 38.648 149.843 40.574C149.843 42.626 150.293 44.246 151.193 45.434C152.111 46.604 153.353 47.198 154.919 47.198C156.179 47.198 157.259 46.802 158.141 46.028C159.041 45.236 159.491 44.192 159.491 42.896C159.491 41.636 159.059 40.61 158.195 39.818C157.349 39.026 156.323 38.63 155.117 38.63C153.965 38.63 153.047 39.008 152.381 39.782C152.399 38.846 152.669 38.09 153.191 37.514C153.713 36.92 154.361 36.632 155.117 36.632C155.729 36.632 156.287 36.794 156.791 37.118ZM165.507 41.834C167.037 41.834 167.793 42.32 167.793 43.31C167.793 44.228 166.983 44.75 165.813 44.75C165.057 44.75 164.391 44.534 163.797 44.102C163.095 43.598 162.483 43.634 161.961 44.21C161.511 44.696 161.547 45.578 162.213 46.082C163.203 46.82 164.373 47.198 165.705 47.198C167.073 47.198 168.207 46.856 169.107 46.19C170.007 45.524 170.457 44.588 170.457 43.382C170.457 41.96 169.701 40.898 168.747 40.412C169.683 39.782 170.151 38.882 170.151 37.676C170.151 36.524 169.719 35.66 168.855 35.066C168.009 34.472 166.965 34.184 165.741 34.184C164.463 34.184 163.365 34.544 162.465 35.264C161.835 35.768 161.799 36.596 162.231 37.046C162.663 37.55 163.311 37.604 163.977 37.154C164.463 36.812 165.075 36.632 165.813 36.632C166.821 36.632 167.469 37.19 167.469 37.928C167.469 38.792 166.749 39.35 165.507 39.35C163.743 39.224 163.743 41.96 165.507 41.834Z" fill="#F9D332"/>
<path d="M242.531 36.164C241.937 36.524 241.649 36.974 241.649 37.496C241.649 37.946 241.847 38.27 242.243 38.504C242.657 38.738 243.125 38.702 243.647 38.432L244.907 37.694V44.534H242.783C241.973 44.534 241.469 45.056 241.469 45.776C241.469 46.478 241.973 47 242.783 47H249.317C250.127 47 250.631 46.478 250.631 45.776C250.631 45.056 250.109 44.534 249.299 44.534H247.571V35.912C247.571 34.904 246.995 34.31 246.149 34.31C245.771 34.31 245.339 34.454 244.835 34.76L242.531 36.164ZM254.912 38.504C254.912 37.424 255.722 36.632 256.802 36.632C257.882 36.632 258.692 37.424 258.692 38.504C258.692 39.602 257.882 40.376 256.802 40.376C255.722 40.376 254.912 39.602 254.912 38.504ZM254.948 44.264C254.21 43.832 253.49 43.994 253.13 44.624C252.77 45.218 252.95 45.974 253.688 46.406C254.57 46.928 255.524 47.198 256.514 47.198C258.17 47.198 259.484 46.622 260.438 45.452C261.41 44.282 261.896 42.734 261.896 40.808C261.896 38.756 261.446 37.136 260.528 35.966C259.628 34.778 258.386 34.184 256.82 34.184C255.56 34.184 254.48 34.58 253.58 35.372C252.698 36.146 252.248 37.19 252.248 38.486C252.248 39.746 252.68 40.772 253.526 41.564C254.39 42.356 255.416 42.752 256.622 42.752C257.774 42.752 258.692 42.374 259.358 41.6C259.34 42.536 259.07 43.292 258.548 43.886C258.026 44.462 257.378 44.75 256.622 44.75C256.01 44.75 255.452 44.588 254.948 44.264ZM263.792 37.748C263.792 38.612 264.35 39.134 265.088 39.134C265.826 39.134 266.384 38.612 266.384 37.748V36.866H269.768C267.608 39.494 266.402 42.428 266.132 45.668C266.06 46.532 266.672 47.09 267.464 47.09C268.22 47.09 268.67 46.622 268.796 45.668C269.282 42.266 270.596 39.368 272.756 36.974C273.044 36.668 273.188 36.308 273.188 35.912C273.188 35.048 272.576 34.4 271.586 34.4H265.502C264.422 34.4 263.792 35.03 263.792 36.11V37.748ZM280.059 37.748V41.978H277.161L280.059 37.748ZM282.723 36.326C282.723 35.084 281.913 34.31 280.833 34.31C280.167 34.31 279.645 34.562 279.303 35.084L274.605 41.852C274.407 42.158 274.299 42.482 274.299 42.806C274.299 43.67 274.911 44.336 275.937 44.336H280.059V45.668C280.059 46.55 280.617 47.09 281.391 47.09C282.129 47.09 282.723 46.55 282.723 45.668V44.336H283.389C285.045 44.462 285.045 41.87 283.389 41.978H282.723V36.326Z" fill="#F9D332"/>
<path d="M490.266 45.29C490.266 46.37 490.896 47 491.976 47H498.114C498.96 47 499.428 46.478 499.428 45.776C499.428 45.056 498.96 44.534 498.114 44.534H493.2C493.398 43.598 493.992 43.058 495.198 42.356L496.296 41.726C497.286 41.15 497.862 40.736 498.438 40.142C499.032 39.512 499.302 38.774 499.302 37.856C499.302 36.722 498.888 35.822 498.042 35.174C497.196 34.508 496.17 34.184 494.928 34.184C494.226 34.184 493.524 34.346 492.804 34.67C492.084 34.976 491.49 35.372 491.04 35.858C490.464 36.452 490.446 37.244 490.932 37.694C491.418 38.144 492.264 38.054 492.858 37.55C493.56 36.938 494.244 36.632 494.874 36.632C495.954 36.632 496.62 37.118 496.62 37.892C496.62 38.486 496.296 38.9 495.054 39.602L494.352 39.998C491.634 41.528 490.266 43.292 490.266 45.29ZM508.35 43.67C507.954 44.39 507.378 44.75 506.622 44.75C505.866 44.75 505.29 44.39 504.876 43.67C504.48 42.932 504.282 41.942 504.282 40.682C504.282 39.422 504.48 38.432 504.876 37.712C505.29 36.992 505.866 36.632 506.622 36.632C507.378 36.632 507.954 36.992 508.35 37.712C508.764 38.432 508.962 39.422 508.962 40.682C508.962 41.942 508.764 42.932 508.35 43.67ZM511.626 40.682C511.626 38.756 511.176 37.19 510.294 35.984C509.412 34.778 508.188 34.184 506.622 34.184C505.056 34.184 503.832 34.778 502.95 35.984C502.068 37.172 501.618 38.738 501.618 40.682C501.618 42.626 502.068 44.192 502.95 45.398C503.832 46.604 505.056 47.198 506.622 47.198C508.188 47.198 509.412 46.604 510.294 45.398C511.176 44.192 511.626 42.626 511.626 40.682ZM514.542 36.164C513.948 36.524 513.66 36.974 513.66 37.496C513.66 37.946 513.858 38.27 514.254 38.504C514.668 38.738 515.136 38.702 515.658 38.432L516.918 37.694V44.534H514.794C513.984 44.534 513.48 45.056 513.48 45.776C513.48 46.478 513.984 47 514.794 47H521.328C522.138 47 522.642 46.478 522.642 45.776C522.642 45.056 522.12 44.534 521.31 44.534H519.582V35.912C519.582 34.904 519.006 34.31 518.16 34.31C517.782 34.31 517.35 34.454 516.846 34.76L514.542 36.164ZM525.159 36.164C524.565 36.524 524.277 36.974 524.277 37.496C524.277 37.946 524.475 38.27 524.871 38.504C525.285 38.738 525.753 38.702 526.275 38.432L527.535 37.694V44.534H525.411C524.601 44.534 524.097 45.056 524.097 45.776C524.097 46.478 524.601 47 525.411 47H531.945C532.755 47 533.259 46.478 533.259 45.776C533.259 45.056 532.737 44.534 531.927 44.534H530.199V35.912C530.199 34.904 529.623 34.31 528.777 34.31C528.399 34.31 527.967 34.454 527.463 34.76L525.159 36.164Z" fill="#F9D332"/>
<path d="M641.651 45.29C641.651 46.37 642.281 47 643.361 47H649.499C650.345 47 650.813 46.478 650.813 45.776C650.813 45.056 650.345 44.534 649.499 44.534H644.585C644.783 43.598 645.377 43.058 646.583 42.356L647.681 41.726C648.671 41.15 649.247 40.736 649.823 40.142C650.417 39.512 650.687 38.774 650.687 37.856C650.687 36.722 650.273 35.822 649.427 35.174C648.581 34.508 647.555 34.184 646.313 34.184C645.611 34.184 644.909 34.346 644.189 34.67C643.469 34.976 642.875 35.372 642.425 35.858C641.849 36.452 641.831 37.244 642.317 37.694C642.803 38.144 643.649 38.054 644.243 37.55C644.945 36.938 645.629 36.632 646.259 36.632C647.339 36.632 648.005 37.118 648.005 37.892C648.005 38.486 647.681 38.9 646.439 39.602L645.737 39.998C643.019 41.528 641.651 43.292 641.651 45.29ZM659.735 43.67C659.339 44.39 658.763 44.75 658.007 44.75C657.251 44.75 656.675 44.39 656.261 43.67C655.865 42.932 655.667 41.942 655.667 40.682C655.667 39.422 655.865 38.432 656.261 37.712C656.675 36.992 657.251 36.632 658.007 36.632C658.763 36.632 659.339 36.992 659.735 37.712C660.149 38.432 660.347 39.422 660.347 40.682C660.347 41.942 660.149 42.932 659.735 43.67ZM663.011 40.682C663.011 38.756 662.561 37.19 661.679 35.984C660.797 34.778 659.573 34.184 658.007 34.184C656.441 34.184 655.217 34.778 654.335 35.984C653.453 37.172 653.003 38.738 653.003 40.682C653.003 42.626 653.453 44.192 654.335 45.398C655.217 46.604 656.441 47.198 658.007 47.198C659.573 47.198 660.797 46.604 661.679 45.398C662.561 44.192 663.011 42.626 663.011 40.682ZM665.927 36.164C665.333 36.524 665.045 36.974 665.045 37.496C665.045 37.946 665.243 38.27 665.639 38.504C666.053 38.738 666.521 38.702 667.043 38.432L668.303 37.694V44.534H666.179C665.369 44.534 664.865 45.056 664.865 45.776C664.865 46.478 665.369 47 666.179 47H672.713C673.523 47 674.027 46.478 674.027 45.776C674.027 45.056 673.505 44.534 672.695 44.534H670.967V35.912C670.967 34.904 670.391 34.31 669.545 34.31C669.167 34.31 668.735 34.454 668.231 34.76L665.927 36.164ZM682.718 42.878C682.718 43.958 681.908 44.75 680.828 44.75C679.748 44.75 678.938 43.958 678.938 42.878C678.938 41.78 679.748 41.006 680.828 41.006C681.908 41.006 682.718 41.78 682.718 42.878ZM682.682 37.118C683.42 37.55 684.14 37.388 684.5 36.758C684.86 36.164 684.68 35.408 683.942 34.976C683.06 34.454 682.106 34.184 681.116 34.184C679.46 34.184 678.146 34.76 677.174 35.93C676.22 37.1 675.734 38.648 675.734 40.574C675.734 42.626 676.184 44.246 677.084 45.434C678.002 46.604 679.244 47.198 680.81 47.198C682.07 47.198 683.15 46.802 684.032 46.028C684.932 45.236 685.382 44.192 685.382 42.896C685.382 41.636 684.95 40.61 684.086 39.818C683.24 39.026 682.214 38.63 681.008 38.63C679.856 38.63 678.938 39.008 678.272 39.782C678.29 38.846 678.56 38.09 679.082 37.514C679.604 36.92 680.252 36.632 681.008 36.632C681.62 36.632 682.178 36.794 682.682 37.118Z" fill="#F9D332"/>
<path d="M786.132 45.29C786.132 46.37 786.762 47 787.842 47H793.98C794.826 47 795.294 46.478 795.294 45.776C795.294 45.056 794.826 44.534 793.98 44.534H789.066C789.264 43.598 789.858 43.058 791.064 42.356L792.162 41.726C793.152 41.15 793.728 40.736 794.304 40.142C794.898 39.512 795.168 38.774 795.168 37.856C795.168 36.722 794.754 35.822 793.908 35.174C793.062 34.508 792.036 34.184 790.794 34.184C790.092 34.184 789.39 34.346 788.67 34.67C787.95 34.976 787.356 35.372 786.906 35.858C786.33 36.452 786.312 37.244 786.798 37.694C787.284 38.144 788.13 38.054 788.724 37.55C789.426 36.938 790.11 36.632 790.74 36.632C791.82 36.632 792.486 37.118 792.486 37.892C792.486 38.486 792.162 38.9 790.92 39.602L790.218 39.998C787.5 41.528 786.132 43.292 786.132 45.29ZM804.217 43.67C803.821 44.39 803.245 44.75 802.489 44.75C801.733 44.75 801.157 44.39 800.743 43.67C800.347 42.932 800.149 41.942 800.149 40.682C800.149 39.422 800.347 38.432 800.743 37.712C801.157 36.992 801.733 36.632 802.489 36.632C803.245 36.632 803.821 36.992 804.217 37.712C804.631 38.432 804.829 39.422 804.829 40.682C804.829 41.942 804.631 42.932 804.217 43.67ZM807.493 40.682C807.493 38.756 807.043 37.19 806.161 35.984C805.279 34.778 804.055 34.184 802.489 34.184C800.923 34.184 799.699 34.778 798.817 35.984C797.935 37.172 797.485 38.738 797.485 40.682C797.485 42.626 797.935 44.192 798.817 45.398C799.699 46.604 800.923 47.198 802.489 47.198C804.055 47.198 805.279 46.604 806.161 45.398C807.043 44.192 807.493 42.626 807.493 40.682ZM809.634 45.29C809.634 46.37 810.264 47 811.344 47H817.482C818.328 47 818.796 46.478 818.796 45.776C818.796 45.056 818.328 44.534 817.482 44.534H812.568C812.766 43.598 813.36 43.058 814.566 42.356L815.664 41.726C816.654 41.15 817.23 40.736 817.806 40.142C818.4 39.512 818.67 38.774 818.67 37.856C818.67 36.722 818.256 35.822 817.41 35.174C816.564 34.508 815.538 34.184 814.296 34.184C813.594 34.184 812.892 34.346 812.172 34.67C811.452 34.976 810.858 35.372 810.408 35.858C809.832 36.452 809.814 37.244 810.3 37.694C810.786 38.144 811.632 38.054 812.226 37.55C812.928 36.938 813.612 36.632 814.242 36.632C815.322 36.632 815.988 37.118 815.988 37.892C815.988 38.486 815.664 38.9 814.422 39.602L813.72 39.998C811.002 41.528 809.634 43.292 809.634 45.29ZM827.719 43.67C827.323 44.39 826.747 44.75 825.991 44.75C825.235 44.75 824.659 44.39 824.245 43.67C823.849 42.932 823.651 41.942 823.651 40.682C823.651 39.422 823.849 38.432 824.245 37.712C824.659 36.992 825.235 36.632 825.991 36.632C826.747 36.632 827.323 36.992 827.719 37.712C828.133 38.432 828.331 39.422 828.331 40.682C828.331 41.942 828.133 42.932 827.719 43.67ZM830.995 40.682C830.995 38.756 830.545 37.19 829.663 35.984C828.781 34.778 827.557 34.184 825.991 34.184C824.425 34.184 823.201 34.778 822.319 35.984C821.437 37.172 820.987 38.738 820.987 40.682C820.987 42.626 821.437 44.192 822.319 45.398C823.201 46.604 824.425 47.198 825.991 47.198C827.557 47.198 828.781 46.604 829.663 45.398C830.545 44.192 830.995 42.626 830.995 40.682Z" fill="#F9D332"/>
<path d="M917.835 45.29C917.835 46.37 918.465 47 919.545 47H925.683C926.529 47 926.997 46.478 926.997 45.776C926.997 45.056 926.529 44.534 925.683 44.534H920.769C920.967 43.598 921.561 43.058 922.767 42.356L923.865 41.726C924.855 41.15 925.431 40.736 926.007 40.142C926.601 39.512 926.871 38.774 926.871 37.856C926.871 36.722 926.457 35.822 925.611 35.174C924.765 34.508 923.739 34.184 922.497 34.184C921.795 34.184 921.093 34.346 920.373 34.67C919.653 34.976 919.059 35.372 918.609 35.858C918.033 36.452 918.015 37.244 918.501 37.694C918.987 38.144 919.833 38.054 920.427 37.55C921.129 36.938 921.813 36.632 922.443 36.632C923.523 36.632 924.189 37.118 924.189 37.892C924.189 38.486 923.865 38.9 922.623 39.602L921.921 39.998C919.203 41.528 917.835 43.292 917.835 45.29ZM935.92 43.67C935.524 44.39 934.948 44.75 934.192 44.75C933.436 44.75 932.86 44.39 932.446 43.67C932.05 42.932 931.852 41.942 931.852 40.682C931.852 39.422 932.05 38.432 932.446 37.712C932.86 36.992 933.436 36.632 934.192 36.632C934.948 36.632 935.524 36.992 935.92 37.712C936.334 38.432 936.532 39.422 936.532 40.682C936.532 41.942 936.334 42.932 935.92 43.67ZM939.196 40.682C939.196 38.756 938.746 37.19 937.864 35.984C936.982 34.778 935.758 34.184 934.192 34.184C932.626 34.184 931.402 34.778 930.52 35.984C929.638 37.172 929.188 38.738 929.188 40.682C929.188 42.626 929.638 44.192 930.52 45.398C931.402 46.604 932.626 47.198 934.192 47.198C935.758 47.198 936.982 46.604 937.864 45.398C938.746 44.192 939.196 42.626 939.196 40.682ZM941.337 45.29C941.337 46.37 941.967 47 943.047 47H949.185C950.031 47 950.499 46.478 950.499 45.776C950.499 45.056 950.031 44.534 949.185 44.534H944.271C944.469 43.598 945.063 43.058 946.269 42.356L947.367 41.726C948.357 41.15 948.933 40.736 949.509 40.142C950.103 39.512 950.373 38.774 950.373 37.856C950.373 36.722 949.959 35.822 949.113 35.174C948.267 34.508 947.241 34.184 945.999 34.184C945.297 34.184 944.595 34.346 943.875 34.67C943.155 34.976 942.561 35.372 942.111 35.858C941.535 36.452 941.517 37.244 942.003 37.694C942.489 38.144 943.335 38.054 943.929 37.55C944.631 36.938 945.315 36.632 945.945 36.632C947.025 36.632 947.691 37.118 947.691 37.892C947.691 38.486 947.367 38.9 946.125 39.602L945.423 39.998C942.705 41.528 941.337 43.292 941.337 45.29ZM953.59 36.164C952.996 36.524 952.708 36.974 952.708 37.496C952.708 37.946 952.906 38.27 953.302 38.504C953.716 38.738 954.184 38.702 954.706 38.432L955.966 37.694V44.534H953.842C953.032 44.534 952.528 45.056 952.528 45.776C952.528 46.478 953.032 47 953.842 47H960.376C961.186 47 961.69 46.478 961.69 45.776C961.69 45.056 961.168 44.534 960.358 44.534H958.63V35.912C958.63 34.904 958.054 34.31 957.208 34.31C956.83 34.31 956.398 34.454 955.894 34.76L953.59 36.164Z" fill="#F9D332"/>
</svg>
