<svg width="245" height="298" viewBox="0 0 245 298" fill="none" xmlns="http://www.w3.org/2000/svg">
<rect width="244.793" height="297.688" fill="#F9D332"/>
<path d="M61.1968 228.8L56.2368 220.54V228.52C56.2368 229.5 55.6168 230.1 54.7568 230.1C53.8968 230.1 53.2768 229.5 53.2768 228.52V218.18C53.2768 216.72 54.0968 215.88 55.4568 215.88C56.4768 215.88 57.0168 216.3 57.5568 217.18L62.5168 225.44V217.46C62.5168 216.48 63.1368 215.88 63.9968 215.88C64.8568 215.88 65.4768 216.48 65.4768 217.46V227.8C65.4768 229.26 64.6568 230.1 63.2968 230.1C62.2768 230.1 61.7368 229.68 61.1968 228.8ZM68.3888 217.42C68.3888 216.48 69.1288 215.76 70.0288 215.76C70.9688 215.76 71.6888 216.48 71.6888 217.42C71.6888 218.32 70.9288 219.06 70.0288 219.06C69.1288 219.06 68.3888 218.32 68.3888 217.42ZM71.4488 228.58C71.4488 229.52 70.8488 230.1 70.0288 230.1C69.2088 230.1 68.6088 229.52 68.6088 228.58V221.62C68.6088 220.68 69.2088 220.1 70.0288 220.1C70.8488 220.1 71.4488 220.68 71.4488 221.62V228.58ZM74.4854 221.62C74.4854 220.68 75.1054 220.1 75.9054 220.1C76.5654 220.1 77.0054 220.4 77.2254 220.98C77.8054 220.3 78.5854 219.96 79.6054 219.96C82.0254 219.96 83.5854 221.56 83.5854 224.3V228.58C83.5854 229.52 82.9854 230.1 82.1654 230.1C81.3454 230.1 80.7454 229.52 80.7454 228.58V224.52C80.7454 223.4 80.2254 222.6 79.1254 222.6C77.9254 222.6 77.3254 223.44 77.3254 225.1V228.58C77.4454 230.58 74.3654 230.58 74.4854 228.58V221.62ZM78.4454 216.12L79.2654 216.38C79.5254 216.46 79.7254 216.5 79.8654 216.5C80.0654 216.5 80.2254 216.4 80.3654 216.22C80.5454 215.98 80.8254 215.86 81.1854 215.86C81.8254 215.86 82.1254 216.26 82.1254 216.88C82.1254 217.68 81.3454 218.48 80.2854 218.48C80.1854 218.48 79.9054 218.42 79.4254 218.32L78.6054 218.06C78.3454 217.98 78.1454 217.94 78.0054 217.94C77.8054 217.94 77.6454 218.04 77.5054 218.22C77.3254 218.46 77.0454 218.58 76.6854 218.58C76.0454 218.58 75.7454 218.18 75.7454 217.56C75.7454 216.76 76.5254 215.96 77.5854 215.96C77.6854 215.96 77.9654 216.02 78.4454 216.12ZM87.2023 228.76C86.2223 227.78 85.7223 226.56 85.7223 225.1C85.7223 223.64 86.2223 222.42 87.2023 221.44C88.2023 220.46 89.4423 219.96 90.9023 219.96C92.3623 219.96 93.6023 220.46 94.5823 221.44C95.5823 222.42 96.0823 223.64 96.0823 225.1C96.0823 226.56 95.5823 227.78 94.6023 228.76C93.6223 229.74 92.3823 230.22 90.9023 230.22C89.4223 230.22 88.1823 229.74 87.2023 228.76ZM89.2623 223.32C88.8423 223.78 88.6223 224.38 88.6223 225.1C88.6223 225.82 88.8423 226.42 89.2623 226.88C89.6823 227.34 90.2423 227.58 90.9023 227.58C91.5623 227.58 92.1223 227.34 92.5423 226.88C92.9623 226.42 93.1823 225.82 93.1823 225.1C93.1823 224.38 92.9623 223.78 92.5423 223.32C92.1223 222.86 91.5623 222.62 90.9023 222.62C90.2423 222.62 89.6823 222.86 89.2623 223.32ZM98.6902 229.14C98.0302 228.56 97.9502 227.8 98.4502 227.24C98.9902 226.64 99.6102 226.62 100.33 227.2C100.87 227.62 101.59 227.84 102.47 227.84C103.09 227.84 103.57 227.62 103.57 227.24C103.57 226.92 103.35 226.76 102.69 226.58L101.59 226.26C99.4102 225.64 98.3902 224.64 98.3902 223.06C98.3902 222.12 98.7502 221.38 99.4902 220.82C100.23 220.24 101.13 219.96 102.19 219.96C103.33 219.96 104.29 220.2 105.09 220.7C105.81 221.18 105.99 221.9 105.61 222.52C105.19 223.16 104.51 223.34 103.73 222.88C103.21 222.54 102.65 222.38 102.07 222.38C101.51 222.38 101.15 222.6 101.15 222.92C101.15 223.22 101.37 223.34 101.85 223.48L103.11 223.82C105.11 224.38 106.33 225.24 106.33 227.06C106.33 228.92 104.73 230.22 102.23 230.22C100.73 230.22 99.5502 229.86 98.6902 229.14ZM111.554 229.44L110.214 232.3C109.914 232.94 109.334 233.2 108.714 233.04C107.994 232.82 107.574 232.16 107.874 231.38L108.954 228.44C109.274 227.56 109.994 227.2 110.814 227.46C111.594 227.7 111.934 228.58 111.554 229.44ZM120.462 228.58V221.62C120.462 220.68 121.082 220.1 121.882 220.1C122.542 220.1 122.982 220.4 123.202 220.98C123.782 220.3 124.562 219.96 125.582 219.96C128.002 219.96 129.562 221.56 129.562 224.3V228.58C129.562 229.52 128.962 230.1 128.142 230.1C127.322 230.1 126.722 229.52 126.722 228.58V224.52C126.722 223.4 126.202 222.6 125.102 222.6C123.902 222.6 123.302 223.44 123.302 225.1V228.58C123.422 230.58 120.342 230.58 120.462 228.58ZM132.354 217.42C132.354 216.48 133.094 215.76 133.994 215.76C134.934 215.76 135.654 216.48 135.654 217.42C135.654 218.32 134.894 219.06 133.994 219.06C133.094 219.06 132.354 218.32 132.354 217.42ZM135.414 228.58C135.414 229.52 134.814 230.1 133.994 230.1C133.174 230.1 132.574 229.52 132.574 228.58V221.62C132.574 220.68 133.174 220.1 133.994 220.1C134.814 220.1 135.414 220.68 135.414 221.62V228.58ZM138.45 221.62C138.45 220.68 139.07 220.1 139.87 220.1C140.53 220.1 140.97 220.4 141.19 220.98C141.77 220.3 142.55 219.96 143.57 219.96C145.99 219.96 147.55 221.56 147.55 224.3V228.58C147.55 229.52 146.95 230.1 146.13 230.1C145.31 230.1 144.71 229.52 144.71 228.58V224.52C144.71 223.4 144.19 222.6 143.09 222.6C141.89 222.6 141.29 223.44 141.29 225.1V228.58C141.41 230.58 138.33 230.58 138.45 228.58V221.62ZM142.41 216.12L143.23 216.38C143.49 216.46 143.69 216.5 143.83 216.5C144.03 216.5 144.19 216.4 144.33 216.22C144.51 215.98 144.79 215.86 145.15 215.86C145.79 215.86 146.09 216.26 146.09 216.88C146.09 217.68 145.31 218.48 144.25 218.48C144.15 218.48 143.87 218.42 143.39 218.32L142.57 218.06C142.31 217.98 142.11 217.94 141.97 217.94C141.77 217.94 141.61 218.04 141.47 218.22C141.29 218.46 141.01 218.58 140.65 218.58C140.01 218.58 139.71 218.18 139.71 217.56C139.71 216.76 140.49 215.96 141.55 215.96C141.65 215.96 141.93 216.02 142.41 216.12ZM150.747 220.98C151.607 220.3 152.747 219.96 154.127 219.96C155.347 219.96 156.347 220.32 157.127 221.02C157.907 221.72 158.287 222.66 158.287 223.88V228.58C158.287 229.52 157.667 230.1 156.867 230.1C156.207 230.1 155.767 229.8 155.547 229.2C154.867 229.88 154.027 230.22 153.047 230.22C152.067 230.22 151.287 229.94 150.667 229.38C150.047 228.8 149.747 228.08 149.747 227.2C149.747 226.18 150.107 225.42 150.847 224.9C151.587 224.38 152.527 224.1 153.627 224.06L155.427 223.98C155.427 222.98 154.927 222.48 153.927 222.48C153.327 222.48 152.787 222.64 152.287 222.98C151.547 223.48 150.827 223.42 150.407 222.86C149.947 222.32 150.087 221.52 150.747 220.98ZM152.607 227.04C152.607 227.52 153.027 227.82 153.747 227.82C154.327 227.82 154.887 227.62 155.427 227.22V226.06L154.167 226.16C153.127 226.22 152.607 226.5 152.607 227.04ZM161.327 229.14C160.667 228.56 160.587 227.8 161.087 227.24C161.627 226.64 162.247 226.62 162.967 227.2C163.507 227.62 164.227 227.84 165.107 227.84C165.727 227.84 166.207 227.62 166.207 227.24C166.207 226.92 165.987 226.76 165.327 226.58L164.227 226.26C162.047 225.64 161.027 224.64 161.027 223.06C161.027 222.12 161.387 221.38 162.127 220.82C162.867 220.24 163.767 219.96 164.827 219.96C165.967 219.96 166.927 220.2 167.727 220.7C168.447 221.18 168.627 221.9 168.247 222.52C167.827 223.16 167.147 223.34 166.367 222.88C165.847 222.54 165.287 222.38 164.707 222.38C164.147 222.38 163.787 222.6 163.787 222.92C163.787 223.22 164.007 223.34 164.487 223.48L165.747 223.82C167.747 224.38 168.967 225.24 168.967 227.06C168.967 228.92 167.367 230.22 164.867 230.22C163.367 230.22 162.187 229.86 161.327 229.14ZM178.869 232.04L179.749 230L176.729 222.12C176.409 221.24 176.829 220.4 177.629 220.16C178.369 219.94 179.089 220.3 179.409 221.2L181.289 226.26L183.189 221.2C183.509 220.3 184.229 219.94 184.969 220.16C185.769 220.42 186.229 221.16 185.889 222.02L181.569 232.86C181.189 233.8 180.609 234.14 179.789 233.9C178.969 233.64 178.489 232.9 178.869 232.04ZM61.0108 244.98C61.8708 244.3 63.0108 243.96 64.3908 243.96C65.6108 243.96 66.6108 244.32 67.3908 245.02C68.1708 245.72 68.5508 246.66 68.5508 247.88V252.58C68.5508 253.52 67.9308 254.1 67.1308 254.1C66.4708 254.1 66.0308 253.8 65.8108 253.2C65.1308 253.88 64.2908 254.22 63.3108 254.22C62.3308 254.22 61.5508 253.94 60.9308 253.38C60.3108 252.8 60.0108 252.08 60.0108 251.2C60.0108 250.18 60.3708 249.42 61.1108 248.9C61.8508 248.38 62.7908 248.1 63.8908 248.06L65.6908 247.98C65.6908 246.98 65.1908 246.48 64.1908 246.48C63.5908 246.48 63.0508 246.64 62.5508 246.98C61.8108 247.48 61.0908 247.42 60.6708 246.86C60.2108 246.32 60.3508 245.52 61.0108 244.98ZM62.8708 251.04C62.8708 251.52 63.2908 251.82 64.0108 251.82C64.5908 251.82 65.1508 251.62 65.6908 251.22V250.06L64.4308 250.16C63.3908 250.22 62.8708 250.5 62.8708 251.04ZM81.0306 241.42V252.58C81.0306 253.52 80.4106 254.1 79.6106 254.1C78.9306 254.1 78.4906 253.8 78.2906 253.18C77.7906 253.8 76.7306 254.22 75.6706 254.22C74.2906 254.22 73.1106 253.76 72.1706 252.82C71.2306 251.88 70.7706 250.64 70.7706 249.1C70.7706 247.58 71.2306 246.34 72.1706 245.4C73.1106 244.44 74.2906 243.96 75.6706 243.96C76.6906 243.96 77.5306 244.24 78.1906 244.82V241.42C78.0706 239.42 81.1506 239.42 81.0306 241.42ZM77.5706 250.94C78.0106 250.46 78.2306 249.84 78.2306 249.1C78.2306 248.36 78.0106 247.74 77.5706 247.26C77.1506 246.78 76.6106 246.54 75.9506 246.54C75.2906 246.54 74.7506 246.78 74.3106 247.26C73.8906 247.74 73.6706 248.36 73.6706 249.1C73.6706 249.84 73.8906 250.46 74.3106 250.94C74.7506 251.42 75.2906 251.66 75.9506 251.66C76.6106 251.66 77.1506 251.42 77.5706 250.94ZM84.8683 252.76C83.8883 251.78 83.3883 250.56 83.3883 249.1C83.3883 247.64 83.8883 246.42 84.8683 245.44C85.8683 244.46 87.1083 243.96 88.5683 243.96C90.0283 243.96 91.2683 244.46 92.2483 245.44C93.2483 246.42 93.7483 247.64 93.7483 249.1C93.7483 250.56 93.2483 251.78 92.2683 252.76C91.2883 253.74 90.0483 254.22 88.5683 254.22C87.0883 254.22 85.8483 253.74 84.8683 252.76ZM86.9283 247.32C86.5083 247.78 86.2883 248.38 86.2883 249.1C86.2883 249.82 86.5083 250.42 86.9283 250.88C87.3483 251.34 87.9083 251.58 88.5683 251.58C89.2283 251.58 89.7883 251.34 90.2083 250.88C90.6283 250.42 90.8483 249.82 90.8483 249.1C90.8483 248.38 90.6283 247.78 90.2083 247.32C89.7883 246.86 89.2283 246.62 88.5683 246.62C87.9083 246.62 87.3483 246.86 86.9283 247.32ZM98.9563 241.42V252.58C99.0763 254.58 95.9963 254.58 96.1163 252.58V241.42C95.9963 239.42 99.0763 239.42 98.9563 241.42ZM110.798 248.26C110.798 249.3 110.278 249.82 109.218 249.82H104.198C104.358 250.88 105.178 251.62 106.398 251.62C107.078 251.62 107.658 251.42 108.158 251.02C108.938 250.46 109.658 250.64 110.158 251.3C110.618 251.86 110.478 252.66 109.738 253.24C108.878 253.9 107.778 254.22 106.478 254.22C104.978 254.22 103.758 253.76 102.778 252.84C101.798 251.9 101.318 250.68 101.318 249.16C101.318 247.66 101.758 246.42 102.658 245.44C103.558 244.46 104.718 243.96 106.138 243.96C107.118 243.96 107.978 244.2 108.718 244.66C110.218 245.6 110.798 246.92 110.798 248.26ZM106.198 246.46C105.178 246.46 104.518 247.06 104.338 247.92H107.858C107.798 247.1 107.138 246.46 106.198 246.46ZM113.466 253.14C112.806 252.56 112.726 251.8 113.226 251.24C113.766 250.64 114.386 250.62 115.106 251.2C115.646 251.62 116.366 251.84 117.246 251.84C117.866 251.84 118.346 251.62 118.346 251.24C118.346 250.92 118.126 250.76 117.466 250.58L116.366 250.26C114.186 249.64 113.166 248.64 113.166 247.06C113.166 246.12 113.526 245.38 114.266 244.82C115.006 244.24 115.906 243.96 116.966 243.96C118.106 243.96 119.066 244.2 119.866 244.7C120.586 245.18 120.766 245.9 120.386 246.52C119.966 247.16 119.286 247.34 118.506 246.88C117.986 246.54 117.426 246.38 116.846 246.38C116.286 246.38 115.926 246.6 115.926 246.92C115.926 247.22 116.146 247.34 116.626 247.48L117.886 247.82C119.886 248.38 121.106 249.24 121.106 251.06C121.106 252.92 119.506 254.22 117.006 254.22C115.506 254.22 114.326 253.86 113.466 253.14ZM129.405 247.12C128.945 246.78 128.465 246.6 127.965 246.6C126.545 246.6 125.585 247.64 125.585 249.1C125.585 250.56 126.545 251.6 127.965 251.6C128.505 251.6 129.045 251.38 129.585 250.96C130.365 250.4 131.085 250.58 131.585 251.24C132.045 251.8 131.905 252.6 131.165 253.18C130.245 253.88 129.145 254.22 127.865 254.22C126.385 254.22 125.145 253.74 124.165 252.76C123.185 251.78 122.685 250.56 122.685 249.1C122.685 247.64 123.185 246.42 124.165 245.44C125.165 244.46 126.405 243.96 127.865 243.96C129.005 243.96 130.005 244.26 130.845 244.88C131.585 245.46 131.785 246.3 131.365 246.86C130.905 247.5 130.185 247.66 129.405 247.12ZM142.985 248.26C142.985 249.3 142.465 249.82 141.405 249.82H136.385C136.545 250.88 137.365 251.62 138.585 251.62C139.265 251.62 139.845 251.42 140.345 251.02C141.125 250.46 141.845 250.64 142.345 251.3C142.805 251.86 142.665 252.66 141.925 253.24C141.065 253.9 139.965 254.22 138.665 254.22C137.165 254.22 135.945 253.76 134.965 252.84C133.985 251.9 133.505 250.68 133.505 249.16C133.505 247.66 133.945 246.42 134.845 245.44C135.745 244.46 136.905 243.96 138.325 243.96C139.305 243.96 140.165 244.2 140.905 244.66C142.405 245.6 142.985 246.92 142.985 248.26ZM138.385 246.46C137.365 246.46 136.705 247.06 136.525 247.92H140.045C139.985 247.1 139.325 246.46 138.385 246.46ZM145.413 252.58V245.62C145.413 244.68 146.033 244.1 146.833 244.1C147.493 244.1 147.933 244.4 148.153 244.98C148.733 244.3 149.513 243.96 150.533 243.96C152.953 243.96 154.513 245.56 154.513 248.3V252.58C154.513 253.52 153.913 254.1 153.093 254.1C152.273 254.1 151.673 253.52 151.673 252.58V248.52C151.673 247.4 151.153 246.6 150.053 246.6C148.853 246.6 148.253 247.44 148.253 249.1V252.58C148.373 254.58 145.293 254.58 145.413 252.58ZM161.273 251.4C162.173 251.5 162.653 252 162.653 252.74C162.653 253.48 162.113 254.04 161.133 254.04H160.873C158.593 254.04 157.453 252.88 157.453 250.54V246.82H157.093C156.213 246.82 155.673 246.26 155.673 245.52C155.673 244.78 156.213 244.2 157.093 244.2H157.453V242.88C157.333 240.88 160.413 240.88 160.273 242.88V244.2H161.233C162.113 244.2 162.653 244.78 162.653 245.52C162.653 246.26 162.113 246.82 161.233 246.82H160.273V250.2C160.273 251.02 160.613 251.34 161.273 251.4ZM173.825 248.26C173.825 249.3 173.305 249.82 172.245 249.82H167.225C167.385 250.88 168.205 251.62 169.425 251.62C170.105 251.62 170.685 251.42 171.185 251.02C171.965 250.46 172.685 250.64 173.185 251.3C173.645 251.86 173.505 252.66 172.765 253.24C171.905 253.9 170.805 254.22 169.505 254.22C168.005 254.22 166.785 253.76 165.805 252.84C164.825 251.9 164.345 250.68 164.345 249.16C164.345 247.66 164.785 246.42 165.685 245.44C166.585 244.46 167.745 243.96 169.165 243.96C170.145 243.96 171.005 244.2 171.745 244.66C173.245 245.6 173.825 246.92 173.825 248.26ZM169.225 246.46C168.205 246.46 167.545 247.06 167.365 247.92H170.885C170.825 247.1 170.165 246.46 169.225 246.46ZM176.493 253.14C175.833 252.56 175.753 251.8 176.253 251.24C176.793 250.64 177.413 250.62 178.133 251.2C178.673 251.62 179.393 251.84 180.273 251.84C180.893 251.84 181.373 251.62 181.373 251.24C181.373 250.92 181.153 250.76 180.493 250.58L179.393 250.26C177.213 249.64 176.193 248.64 176.193 247.06C176.193 246.12 176.553 245.38 177.293 244.82C178.033 244.24 178.933 243.96 179.993 243.96C181.133 243.96 182.093 244.2 182.893 244.7C183.613 245.18 183.793 245.9 183.413 246.52C182.993 247.16 182.313 247.34 181.533 246.88C181.013 246.54 180.453 246.38 179.873 246.38C179.313 246.38 178.953 246.6 178.953 246.92C178.953 247.22 179.173 247.34 179.653 247.48L180.913 247.82C182.913 248.38 184.133 249.24 184.133 251.06C184.133 252.92 182.533 254.22 180.033 254.22C178.533 254.22 177.353 253.86 176.493 253.14ZM79.5512 271.12C79.0912 270.78 78.6112 270.6 78.1112 270.6C76.6912 270.6 75.7312 271.64 75.7312 273.1C75.7312 274.56 76.6912 275.6 78.1112 275.6C78.6512 275.6 79.1912 275.38 79.7312 274.96C80.5112 274.4 81.2312 274.58 81.7312 275.24C82.1912 275.8 82.0512 276.6 81.3112 277.18C80.3912 277.88 79.2912 278.22 78.0112 278.22C76.5312 278.22 75.2912 277.74 74.3112 276.76C73.3312 275.78 72.8312 274.56 72.8312 273.1C72.8312 271.64 73.3312 270.42 74.3112 269.44C75.3112 268.46 76.5512 267.96 78.0112 267.96C79.1512 267.96 80.1512 268.26 80.9912 268.88C81.7312 269.46 81.9312 270.3 81.5112 270.86C81.0512 271.5 80.3312 271.66 79.5512 271.12ZM85.132 276.76C84.152 275.78 83.652 274.56 83.652 273.1C83.652 271.64 84.152 270.42 85.132 269.44C86.132 268.46 87.372 267.96 88.832 267.96C90.292 267.96 91.532 268.46 92.512 269.44C93.512 270.42 94.012 271.64 94.012 273.1C94.012 274.56 93.512 275.78 92.532 276.76C91.552 277.74 90.312 278.22 88.832 278.22C87.352 278.22 86.112 277.74 85.132 276.76ZM87.192 271.32C86.772 271.78 86.552 272.38 86.552 273.1C86.552 273.82 86.772 274.42 87.192 274.88C87.612 275.34 88.172 275.58 88.832 275.58C89.492 275.58 90.052 275.34 90.472 274.88C90.892 274.42 91.112 273.82 91.112 273.1C91.112 272.38 90.892 271.78 90.472 271.32C90.052 270.86 89.492 270.62 88.832 270.62C88.172 270.62 87.612 270.86 87.192 271.32ZM96.3799 276.58V265.42C96.2599 263.42 99.3399 263.42 99.2199 265.42V268.82C99.8799 268.24 100.72 267.96 101.74 267.96C103.12 267.96 104.28 268.44 105.22 269.4C106.16 270.34 106.64 271.58 106.64 273.1C106.64 274.64 106.16 275.88 105.22 276.82C104.28 277.76 103.12 278.22 101.74 278.22C100.68 278.22 99.6199 277.8 99.1199 277.18C98.9199 277.8 98.4799 278.1 97.7999 278.1C96.9999 278.1 96.3799 277.52 96.3799 276.58ZM99.8199 271.26C99.3999 271.74 99.1799 272.36 99.1799 273.1C99.1799 273.84 99.3999 274.46 99.8199 274.94C100.26 275.42 100.8 275.66 101.46 275.66C102.12 275.66 102.66 275.42 103.08 274.94C103.52 274.46 103.74 273.84 103.74 273.1C103.74 272.36 103.52 271.74 103.08 271.26C102.66 270.78 102.12 270.54 101.46 270.54C100.8 270.54 100.26 270.78 99.8199 271.26ZM108.877 265.42C108.877 264.48 109.617 263.76 110.517 263.76C111.457 263.76 112.177 264.48 112.177 265.42C112.177 266.32 111.417 267.06 110.517 267.06C109.617 267.06 108.877 266.32 108.877 265.42ZM111.937 276.58C111.937 277.52 111.337 278.1 110.517 278.1C109.697 278.1 109.097 277.52 109.097 276.58V269.62C109.097 268.68 109.697 268.1 110.517 268.1C111.337 268.1 111.937 268.68 111.937 269.62V276.58ZM114.274 279.32C114.814 279.32 115.174 278.9 115.174 278.24V269.62C115.054 267.62 118.134 267.62 118.014 269.62V278.48C118.014 280.82 116.874 281.98 114.574 281.98C113.514 281.98 112.954 281.4 112.954 280.62C112.954 279.88 113.474 279.32 114.274 279.32ZM114.954 265.42C114.954 264.48 115.694 263.76 116.594 263.76C117.494 263.76 118.254 264.52 118.254 265.42C118.254 266.32 117.494 267.06 116.594 267.06C115.694 267.06 114.954 266.32 114.954 265.42ZM121.548 268.98C122.408 268.3 123.548 267.96 124.928 267.96C126.148 267.96 127.148 268.32 127.928 269.02C128.708 269.72 129.088 270.66 129.088 271.88V276.58C129.088 277.52 128.468 278.1 127.668 278.1C127.008 278.1 126.568 277.8 126.348 277.2C125.668 277.88 124.828 278.22 123.848 278.22C122.868 278.22 122.088 277.94 121.468 277.38C120.848 276.8 120.548 276.08 120.548 275.2C120.548 274.18 120.908 273.42 121.648 272.9C122.388 272.38 123.328 272.1 124.428 272.06L126.228 271.98C126.228 270.98 125.728 270.48 124.728 270.48C124.128 270.48 123.588 270.64 123.088 270.98C122.348 271.48 121.628 271.42 121.208 270.86C120.748 270.32 120.888 269.52 121.548 268.98ZM123.408 275.04C123.408 275.52 123.828 275.82 124.548 275.82C125.128 275.82 125.688 275.62 126.228 275.22V274.06L124.968 274.16C123.928 274.22 123.408 274.5 123.408 275.04ZM141.568 265.42V276.58C141.568 277.52 140.948 278.1 140.148 278.1C139.468 278.1 139.028 277.8 138.828 277.18C138.328 277.8 137.268 278.22 136.208 278.22C134.828 278.22 133.648 277.76 132.708 276.82C131.768 275.88 131.308 274.64 131.308 273.1C131.308 271.58 131.768 270.34 132.708 269.4C133.648 268.44 134.828 267.96 136.208 267.96C137.228 267.96 138.068 268.24 138.728 268.82V265.42C138.608 263.42 141.688 263.42 141.568 265.42ZM138.108 274.94C138.548 274.46 138.768 273.84 138.768 273.1C138.768 272.36 138.548 271.74 138.108 271.26C137.688 270.78 137.148 270.54 136.488 270.54C135.828 270.54 135.288 270.78 134.848 271.26C134.428 271.74 134.208 272.36 134.208 273.1C134.208 273.84 134.428 274.46 134.848 274.94C135.288 275.42 135.828 275.66 136.488 275.66C137.148 275.66 137.688 275.42 138.108 274.94ZM145.405 276.76C144.425 275.78 143.925 274.56 143.925 273.1C143.925 271.64 144.425 270.42 145.405 269.44C146.405 268.46 147.645 267.96 149.105 267.96C150.565 267.96 151.805 268.46 152.785 269.44C153.785 270.42 154.285 271.64 154.285 273.1C154.285 274.56 153.785 275.78 152.805 276.76C151.825 277.74 150.585 278.22 149.105 278.22C147.625 278.22 146.385 277.74 145.405 276.76ZM147.465 271.32C147.045 271.78 146.825 272.38 146.825 273.1C146.825 273.82 147.045 274.42 147.465 274.88C147.885 275.34 148.445 275.58 149.105 275.58C149.765 275.58 150.325 275.34 150.745 274.88C151.165 274.42 151.385 273.82 151.385 273.1C151.385 272.38 151.165 271.78 150.745 271.32C150.325 270.86 149.765 270.62 149.105 270.62C148.445 270.62 147.885 270.86 147.465 271.32ZM156.893 277.14C156.233 276.56 156.153 275.8 156.653 275.24C157.193 274.64 157.813 274.62 158.533 275.2C159.073 275.62 159.793 275.84 160.673 275.84C161.293 275.84 161.773 275.62 161.773 275.24C161.773 274.92 161.553 274.76 160.893 274.58L159.793 274.26C157.613 273.64 156.593 272.64 156.593 271.06C156.593 270.12 156.953 269.38 157.693 268.82C158.433 268.24 159.333 267.96 160.393 267.96C161.533 267.96 162.493 268.2 163.293 268.7C164.013 269.18 164.193 269.9 163.813 270.52C163.393 271.16 162.713 271.34 161.933 270.88C161.413 270.54 160.853 270.38 160.273 270.38C159.713 270.38 159.353 270.6 159.353 270.92C159.353 271.22 159.573 271.34 160.053 271.48L161.313 271.82C163.313 272.38 164.533 273.24 164.533 275.06C164.533 276.92 162.933 278.22 160.433 278.22C158.933 278.22 157.753 277.86 156.893 277.14ZM167.298 277.7C166.658 277.04 166.658 275.92 167.298 275.26C167.958 274.6 169.078 274.6 169.738 275.26C170.438 275.92 170.438 277.04 169.738 277.7C169.078 278.36 167.958 278.36 167.298 277.7Z" fill="#930345"/>
<circle cx="123.5" cy="97.4997" r="77.9997" fill="white" stroke="white" stroke-width="9"/>
<path d="M86.4518 95.464V99.08H90.2917C91.7318 99.08 92.5318 99.944 92.5318 101.128C92.5318 102.376 91.7318 103.176 90.2917 103.176H86.4518V106.856C86.4518 108.296 85.5878 109.16 84.3398 109.16C83.1558 109.16 82.2278 108.264 82.2278 106.856V103.176H78.4518C77.0438 103.176 76.2118 102.376 76.2118 101.128C76.2118 99.976 77.0438 99.08 78.4518 99.08H82.2278V95.464C82.2278 93.96 83.1558 93.16 84.3398 93.16C85.5878 93.16 86.4518 93.96 86.4518 95.464ZM97.4023 97.896L97.7543 89.64C97.8503 87.624 98.8743 86.6 100.794 86.6H109.69C111.13 86.6 112.026 87.528 112.026 88.808C112.026 90.056 111.13 90.984 109.69 90.984H102.298L102.106 95.08C103.13 94.408 104.378 94.056 105.85 94.056C107.93 94.056 109.722 94.728 111.226 96.104C112.73 97.448 113.498 99.24 113.498 101.448C113.498 103.816 112.666 105.736 111.002 107.176C109.37 108.616 107.226 109.352 104.634 109.352C102.362 109.352 100.41 108.776 98.7463 107.592C97.4663 106.696 97.3703 105.16 98.1703 104.168C98.9703 103.048 100.282 102.888 101.594 103.816C102.65 104.616 103.77 105 104.986 105C107.13 105 108.762 103.656 108.762 101.704C108.762 99.688 107.226 98.216 105.082 98.216C103.77 98.216 102.778 98.696 102.074 99.656C101.594 100.328 100.89 100.68 99.9943 100.68C98.4903 100.68 97.3703 99.592 97.4023 97.896ZM129.166 103.08C129.902 101.768 130.254 100.008 130.254 97.768C130.254 95.528 129.902 93.768 129.166 92.488C128.462 91.208 127.438 90.568 126.094 90.568C124.75 90.568 123.726 91.208 122.99 92.488C122.286 93.768 121.934 95.528 121.934 97.768C121.934 100.008 122.286 101.768 122.99 103.08C123.726 104.36 124.75 105 126.094 105C127.438 105 128.462 104.36 129.166 103.08ZM134.99 97.768C134.99 101.224 134.19 104.008 132.622 106.152C131.054 108.296 128.878 109.352 126.094 109.352C123.31 109.352 121.134 108.296 119.566 106.152C117.998 104.008 117.198 101.224 117.198 97.768C117.198 94.312 117.998 91.528 119.566 89.416C121.134 87.272 123.31 86.216 126.094 86.216C128.878 86.216 131.054 87.272 132.622 89.416C134.19 91.56 134.99 94.344 134.99 97.768ZM150.541 103.08C151.277 101.768 151.629 100.008 151.629 97.768C151.629 95.528 151.277 93.768 150.541 92.488C149.837 91.208 148.813 90.568 147.469 90.568C146.125 90.568 145.101 91.208 144.365 92.488C143.661 93.768 143.309 95.528 143.309 97.768C143.309 100.008 143.661 101.768 144.365 103.08C145.101 104.36 146.125 105 147.469 105C148.813 105 149.837 104.36 150.541 103.08ZM156.365 97.768C156.365 101.224 155.565 104.008 153.997 106.152C152.429 108.296 150.253 109.352 147.469 109.352C144.685 109.352 142.509 108.296 140.941 106.152C139.373 104.008 138.573 101.224 138.573 97.768C138.573 94.312 139.373 91.528 140.941 89.416C142.509 87.272 144.685 86.216 147.469 86.216C150.253 86.216 152.429 87.272 153.997 89.416C155.565 91.56 156.365 94.344 156.365 97.768Z" fill="#930345"/>
</svg>
