<svg width="244" height="298" viewBox="0 0 244 298" fill="none" xmlns="http://www.w3.org/2000/svg">
<rect width="243.562" height="297.688" fill="#930345"/>
<path d="M33.1121 197.866H31.0421V201.502H33.1121C34.8581 201.502 35.7401 200.89 35.7401 199.648C35.7401 198.424 34.9301 197.866 33.1121 197.866ZM35.6681 207.316L33.1841 203.95H31.0421V206.668C31.0421 207.55 30.4661 208.09 29.6921 208.09C28.9181 208.09 28.3601 207.55 28.3601 206.668V197.11C28.3601 196.03 28.9901 195.4 30.0701 195.4H33.5801C35.0021 195.4 36.1541 195.76 37.0541 196.498C37.9541 197.218 38.4041 198.226 38.4041 199.504C38.4041 201.286 37.4321 202.726 35.9201 203.446L37.8641 205.93C38.3861 206.65 38.2421 207.46 37.5941 207.874C37.0001 208.252 36.1901 208.036 35.6681 207.316ZM48.427 202.834C48.427 203.77 47.959 204.238 47.005 204.238H42.487C42.631 205.192 43.369 205.858 44.467 205.858C45.079 205.858 45.601 205.678 46.051 205.318C46.753 204.814 47.401 204.976 47.851 205.57C48.265 206.074 48.139 206.794 47.473 207.316C46.699 207.91 45.709 208.198 44.539 208.198C43.189 208.198 42.091 207.784 41.209 206.956C40.327 206.11 39.895 205.012 39.895 203.644C39.895 202.294 40.291 201.178 41.101 200.296C41.911 199.414 42.955 198.964 44.233 198.964C45.115 198.964 45.889 199.18 46.555 199.594C47.905 200.44 48.427 201.628 48.427 202.834ZM44.287 201.214C43.369 201.214 42.775 201.754 42.613 202.528H45.781C45.727 201.79 45.133 201.214 44.287 201.214ZM56.2433 201.808C55.8293 201.502 55.3973 201.34 54.9473 201.34C53.6693 201.34 52.8053 202.276 52.8053 203.59C52.8053 204.904 53.6693 205.84 54.9473 205.84C55.4333 205.84 55.9193 205.642 56.4053 205.264C57.1073 204.76 57.7553 204.922 58.2053 205.516C58.6193 206.02 58.4933 206.74 57.8273 207.262C56.9993 207.892 56.0093 208.198 54.8573 208.198C53.5253 208.198 52.4093 207.766 51.5273 206.884C50.6453 206.002 50.1953 204.904 50.1953 203.59C50.1953 202.276 50.6453 201.178 51.5273 200.296C52.4273 199.414 53.5433 198.964 54.8573 198.964C55.8833 198.964 56.7833 199.234 57.5393 199.792C58.2053 200.314 58.3853 201.07 58.0073 201.574C57.5933 202.15 56.9453 202.294 56.2433 201.808ZM60.6289 196.678C60.6289 195.832 61.2949 195.184 62.1049 195.184C62.9509 195.184 63.5989 195.832 63.5989 196.678C63.5989 197.488 62.9149 198.154 62.1049 198.154C61.2949 198.154 60.6289 197.488 60.6289 196.678ZM63.3829 206.722C63.3829 207.568 62.8429 208.09 62.1049 208.09C61.3669 208.09 60.8269 207.568 60.8269 206.722V200.458C60.8269 199.612 61.3669 199.09 62.1049 199.09C62.8429 199.09 63.3829 199.612 63.3829 200.458V206.722ZM66.3091 206.722V196.678C66.2011 194.878 68.9731 194.878 68.8651 196.678V199.738C69.4591 199.216 70.2151 198.964 71.1331 198.964C72.3751 198.964 73.4191 199.396 74.2651 200.26C75.1111 201.106 75.5431 202.222 75.5431 203.59C75.5431 204.976 75.1111 206.092 74.2651 206.938C73.4191 207.784 72.3751 208.198 71.1331 208.198C70.1791 208.198 69.2251 207.82 68.7751 207.262C68.5951 207.82 68.1991 208.09 67.5871 208.09C66.8671 208.09 66.3091 207.568 66.3091 206.722ZM69.4051 201.934C69.0271 202.366 68.8291 202.924 68.8291 203.59C68.8291 204.256 69.0271 204.814 69.4051 205.246C69.8011 205.678 70.2871 205.894 70.8811 205.894C71.4751 205.894 71.9611 205.678 72.3391 205.246C72.7351 204.814 72.9331 204.256 72.9331 203.59C72.9331 202.924 72.7351 202.366 72.3391 201.934C71.9611 201.502 71.4751 201.286 70.8811 201.286C70.2871 201.286 69.8011 201.502 69.4051 201.934ZM77.5566 196.678C77.5566 195.832 78.2226 195.184 79.0326 195.184C79.8786 195.184 80.5266 195.832 80.5266 196.678C80.5266 197.488 79.8426 198.154 79.0326 198.154C78.2226 198.154 77.5566 197.488 77.5566 196.678ZM80.3106 206.722C80.3106 207.568 79.7706 208.09 79.0326 208.09C78.2946 208.09 77.7546 207.568 77.7546 206.722V200.458C77.7546 199.612 78.2946 199.09 79.0326 199.09C79.7706 199.09 80.3106 199.612 80.3106 200.458V206.722ZM83.8715 206.884C82.9895 206.002 82.5395 204.904 82.5395 203.59C82.5395 202.276 82.9895 201.178 83.8715 200.296C84.7715 199.414 85.8875 198.964 87.2015 198.964C88.5155 198.964 89.6315 199.414 90.5135 200.296C91.4135 201.178 91.8635 202.276 91.8635 203.59C91.8635 204.904 91.4135 206.002 90.5315 206.884C89.6495 207.766 88.5335 208.198 87.2015 208.198C85.8695 208.198 84.7535 207.766 83.8715 206.884ZM85.7255 201.988C85.3475 202.402 85.1495 202.942 85.1495 203.59C85.1495 204.238 85.3475 204.778 85.7255 205.192C86.1035 205.606 86.6075 205.822 87.2015 205.822C87.7955 205.822 88.2995 205.606 88.6775 205.192C89.0555 204.778 89.2535 204.238 89.2535 203.59C89.2535 202.942 89.0555 202.402 88.6775 201.988C88.2995 201.574 87.7955 201.358 87.2015 201.358C86.6075 201.358 86.1035 201.574 85.7255 201.988ZM88.2635 197.11L86.7155 197.83C86.3735 197.992 86.0495 197.974 85.7255 197.776C85.2395 197.47 85.1135 196.786 85.4195 196.336C85.5095 196.192 85.6355 196.084 85.7795 195.994L87.3095 194.986C87.7235 194.716 88.1555 194.734 88.6055 195.004C89.1275 195.346 89.2895 196.084 88.9295 196.642C88.7675 196.858 88.5335 197.02 88.2635 197.11ZM101.578 196.678V206.722C101.686 208.522 98.914 208.522 99.022 206.722V196.678C98.914 194.878 101.686 194.878 101.578 196.678ZM104.658 199.882C105.432 199.27 106.458 198.964 107.7 198.964C108.798 198.964 109.698 199.288 110.4 199.918C111.102 200.548 111.444 201.394 111.444 202.492V206.722C111.444 207.568 110.886 208.09 110.166 208.09C109.572 208.09 109.176 207.82 108.978 207.28C108.366 207.892 107.61 208.198 106.728 208.198C105.846 208.198 105.144 207.946 104.586 207.442C104.028 206.92 103.758 206.272 103.758 205.48C103.758 204.562 104.082 203.878 104.748 203.41C105.414 202.942 106.26 202.69 107.25 202.654L108.87 202.582C108.87 201.682 108.42 201.232 107.52 201.232C106.98 201.232 106.494 201.376 106.044 201.682C105.378 202.132 104.73 202.078 104.352 201.574C103.938 201.088 104.064 200.368 104.658 199.882ZM106.332 205.336C106.332 205.768 106.71 206.038 107.358 206.038C107.88 206.038 108.384 205.858 108.87 205.498V204.454L107.736 204.544C106.8 204.598 106.332 204.85 106.332 205.336ZM129.431 196.696C130.079 197.272 130.133 198.064 129.629 198.586C129.143 199.162 128.423 199.234 127.721 198.658C126.983 198.01 126.101 197.686 125.057 197.686C124.067 197.686 123.203 198.046 122.447 198.766C121.709 199.468 121.331 200.44 121.331 201.664C121.331 202.906 121.709 203.896 122.447 204.616C123.185 205.336 124.103 205.696 125.201 205.696C126.227 205.696 127.127 205.372 127.919 204.706C128.621 204.148 129.341 204.22 129.827 204.778C130.331 205.3 130.277 206.092 129.629 206.668C128.477 207.694 127.019 208.198 125.273 208.198C123.347 208.198 121.745 207.604 120.467 206.416C119.207 205.228 118.577 203.662 118.577 201.718C118.577 199.756 119.207 198.172 120.467 196.984C121.727 195.778 123.293 195.184 125.183 195.184C126.821 195.184 128.243 195.688 129.431 196.696ZM132.958 199.882C133.732 199.27 134.758 198.964 136 198.964C137.098 198.964 137.998 199.288 138.7 199.918C139.402 200.548 139.744 201.394 139.744 202.492V206.722C139.744 207.568 139.186 208.09 138.466 208.09C137.872 208.09 137.476 207.82 137.278 207.28C136.666 207.892 135.91 208.198 135.028 208.198C134.146 208.198 133.444 207.946 132.886 207.442C132.328 206.92 132.058 206.272 132.058 205.48C132.058 204.562 132.382 203.878 133.048 203.41C133.714 202.942 134.56 202.69 135.55 202.654L137.17 202.582C137.17 201.682 136.72 201.232 135.82 201.232C135.28 201.232 134.794 201.376 134.344 201.682C133.678 202.132 133.03 202.078 132.652 201.574C132.238 201.088 132.364 200.368 132.958 199.882ZM134.632 205.336C134.632 205.768 135.01 206.038 135.658 206.038C136.18 206.038 136.684 205.858 137.17 205.498V204.454L136.036 204.544C135.1 204.598 134.632 204.85 134.632 205.336ZM142.48 207.226C141.886 206.704 141.814 206.02 142.264 205.516C142.75 204.976 143.308 204.958 143.956 205.48C144.442 205.858 145.09 206.056 145.882 206.056C146.44 206.056 146.872 205.858 146.872 205.516C146.872 205.228 146.674 205.084 146.08 204.922L145.09 204.634C143.128 204.076 142.21 203.176 142.21 201.754C142.21 200.908 142.534 200.242 143.2 199.738C143.866 199.216 144.676 198.964 145.63 198.964C146.656 198.964 147.52 199.18 148.24 199.63C148.888 200.062 149.05 200.71 148.708 201.268C148.33 201.844 147.718 202.006 147.016 201.592C146.548 201.286 146.044 201.142 145.522 201.142C145.018 201.142 144.694 201.34 144.694 201.628C144.694 201.898 144.892 202.006 145.324 202.132L146.458 202.438C148.258 202.942 149.356 203.716 149.356 205.354C149.356 207.028 147.916 208.198 145.666 208.198C144.316 208.198 143.254 207.874 142.48 207.226ZM151.855 199.882C152.629 199.27 153.655 198.964 154.897 198.964C155.995 198.964 156.895 199.288 157.597 199.918C158.299 200.548 158.641 201.394 158.641 202.492V206.722C158.641 207.568 158.083 208.09 157.363 208.09C156.769 208.09 156.373 207.82 156.175 207.28C155.563 207.892 154.807 208.198 153.925 208.198C153.043 208.198 152.341 207.946 151.783 207.442C151.225 206.92 150.955 206.272 150.955 205.48C150.955 204.562 151.279 203.878 151.945 203.41C152.611 202.942 153.457 202.69 154.447 202.654L156.067 202.582C156.067 201.682 155.617 201.232 154.717 201.232C154.177 201.232 153.691 201.376 153.241 201.682C152.575 202.132 151.927 202.078 151.549 201.574C151.135 201.088 151.261 200.368 151.855 199.882ZM153.529 205.336C153.529 205.768 153.907 206.038 154.555 206.038C155.077 206.038 155.581 205.858 156.067 205.498V204.454L154.933 204.544C153.997 204.598 153.529 204.85 153.529 205.336ZM171.03 197.866H168.96V201.502H171.03C172.776 201.502 173.658 200.89 173.658 199.648C173.658 198.424 172.848 197.866 171.03 197.866ZM173.586 207.316L171.102 203.95H168.96V206.668C168.96 207.55 168.384 208.09 167.61 208.09C166.836 208.09 166.278 207.55 166.278 206.668V197.11C166.278 196.03 166.908 195.4 167.988 195.4H171.498C172.92 195.4 174.072 195.76 174.972 196.498C175.872 197.218 176.322 198.226 176.322 199.504C176.322 201.286 175.35 202.726 173.838 203.446L175.782 205.93C176.304 206.65 176.16 207.46 175.512 207.874C174.918 208.252 174.108 208.036 173.586 207.316ZM179.145 206.884C178.263 206.002 177.813 204.904 177.813 203.59C177.813 202.276 178.263 201.178 179.145 200.296C180.045 199.414 181.161 198.964 182.475 198.964C183.789 198.964 184.905 199.414 185.787 200.296C186.687 201.178 187.137 202.276 187.137 203.59C187.137 204.904 186.687 206.002 185.805 206.884C184.923 207.766 183.807 208.198 182.475 208.198C181.143 208.198 180.027 207.766 179.145 206.884ZM180.999 201.988C180.621 202.402 180.423 202.942 180.423 203.59C180.423 204.238 180.621 204.778 180.999 205.192C181.377 205.606 181.881 205.822 182.475 205.822C183.069 205.822 183.573 205.606 183.951 205.192C184.329 204.778 184.527 204.238 184.527 203.59C184.527 202.942 184.329 202.402 183.951 201.988C183.573 201.574 183.069 201.358 182.475 201.358C181.881 201.358 181.377 201.574 180.999 201.988ZM189.268 206.722V200.458C189.268 199.612 189.826 199.09 190.546 199.09C191.14 199.09 191.536 199.36 191.734 199.882C192.256 199.27 192.958 198.964 193.876 198.964C196.054 198.964 197.458 200.404 197.458 202.87V206.722C197.458 207.568 196.918 208.09 196.18 208.09C195.442 208.09 194.902 207.568 194.902 206.722V203.068C194.902 202.06 194.434 201.34 193.444 201.34C192.364 201.34 191.824 202.096 191.824 203.59V206.722C191.932 208.522 189.16 208.522 189.268 206.722ZM200.335 199.882C201.109 199.27 202.135 198.964 203.377 198.964C204.475 198.964 205.375 199.288 206.077 199.918C206.779 200.548 207.121 201.394 207.121 202.492V206.722C207.121 207.568 206.563 208.09 205.843 208.09C205.249 208.09 204.853 207.82 204.655 207.28C204.043 207.892 203.287 208.198 202.405 208.198C201.523 208.198 200.821 207.946 200.263 207.442C199.705 206.92 199.435 206.272 199.435 205.48C199.435 204.562 199.759 203.878 200.425 203.41C201.091 202.942 201.937 202.69 202.927 202.654L204.547 202.582C204.547 201.682 204.097 201.232 203.197 201.232C202.657 201.232 202.171 201.376 201.721 201.682C201.055 202.132 200.407 202.078 200.029 201.574C199.615 201.088 199.741 200.368 200.335 199.882ZM202.009 205.336C202.009 205.768 202.387 206.038 203.035 206.038C203.557 206.038 204.061 205.858 204.547 205.498V204.454L203.413 204.544C202.477 204.598 202.009 204.85 202.009 205.336ZM212.391 196.678V206.722C212.499 208.522 209.727 208.522 209.835 206.722V196.678C209.727 194.878 212.499 194.878 212.391 196.678ZM223.732 196.678V206.722C223.732 207.568 223.174 208.09 222.454 208.09C221.842 208.09 221.446 207.82 221.266 207.262C220.816 207.82 219.862 208.198 218.908 208.198C217.666 208.198 216.604 207.784 215.758 206.938C214.912 206.092 214.498 204.976 214.498 203.59C214.498 202.222 214.912 201.106 215.758 200.26C216.604 199.396 217.666 198.964 218.908 198.964C219.826 198.964 220.582 199.216 221.176 199.738V196.678C221.068 194.878 223.84 194.878 223.732 196.678ZM220.618 205.246C221.014 204.814 221.212 204.256 221.212 203.59C221.212 202.924 221.014 202.366 220.618 201.934C220.24 201.502 219.754 201.286 219.16 201.286C218.566 201.286 218.08 201.502 217.684 201.934C217.306 202.366 217.108 202.924 217.108 203.59C217.108 204.256 217.306 204.814 217.684 205.246C218.08 205.678 218.566 205.894 219.16 205.894C219.754 205.894 220.24 205.678 220.618 205.246ZM35.129 220.138L38.333 226.456L41.555 220.138C41.861 219.526 42.365 219.22 43.085 219.22C44.039 219.22 44.597 219.832 44.597 220.822V230.668C44.597 231.55 44.039 232.09 43.265 232.09C42.491 232.09 41.933 231.55 41.933 230.668V224.836L39.791 228.922C39.467 229.534 38.981 229.84 38.333 229.84C37.685 229.84 37.199 229.534 36.893 228.94L34.751 224.836V230.668C34.751 231.55 34.193 232.09 33.419 232.09C32.645 232.09 32.087 231.55 32.087 230.668V220.822C32.087 219.832 32.645 219.22 33.599 219.22C34.301 219.22 34.823 219.526 35.129 220.138ZM52.8332 225.808C52.4192 225.502 51.9872 225.34 51.5372 225.34C50.2592 225.34 49.3952 226.276 49.3952 227.59C49.3952 228.904 50.2592 229.84 51.5372 229.84C52.0232 229.84 52.5092 229.642 52.9952 229.264C53.6972 228.76 54.3452 228.922 54.7952 229.516C55.2092 230.02 55.0832 230.74 54.4172 231.262C53.5892 231.892 52.5992 232.198 51.4472 232.198C50.1152 232.198 48.9992 231.766 48.1172 230.884C47.2352 230.002 46.7852 228.904 46.7852 227.59C46.7852 226.276 47.2352 225.178 48.1172 224.296C49.0172 223.414 50.1332 222.964 51.4472 222.964C52.4732 222.964 53.3732 223.234 54.1292 223.792C54.7952 224.314 54.9752 225.07 54.5972 225.574C54.1832 226.15 53.5352 226.294 52.8332 225.808ZM61.5747 232H59.1267C58.0467 232 57.4167 231.37 57.4167 230.29V221.11C57.4167 220.03 58.0467 219.4 59.1267 219.4H61.5747C63.3747 219.4 64.9767 219.85 66.3447 220.786C67.7307 221.704 68.6127 223.432 68.6127 225.61C68.6127 227.824 67.7307 229.552 66.3627 230.542C64.9947 231.496 63.3567 232 61.5747 232ZM61.1607 221.866H60.0987V229.534H61.1787C64.3287 229.534 65.8947 228.22 65.8947 225.61C65.8947 223.108 64.3107 221.866 61.1607 221.866ZM71.6547 230.884C70.7727 230.002 70.3227 228.904 70.3227 227.59C70.3227 226.276 70.7727 225.178 71.6547 224.296C72.5547 223.414 73.6707 222.964 74.9847 222.964C76.2987 222.964 77.4147 223.414 78.2967 224.296C79.1967 225.178 79.6467 226.276 79.6467 227.59C79.6467 228.904 79.1967 230.002 78.3147 230.884C77.4327 231.766 76.3167 232.198 74.9847 232.198C73.6527 232.198 72.5367 231.766 71.6547 230.884ZM73.5087 225.988C73.1307 226.402 72.9327 226.942 72.9327 227.59C72.9327 228.238 73.1307 228.778 73.5087 229.192C73.8867 229.606 74.3907 229.822 74.9847 229.822C75.5787 229.822 76.0827 229.606 76.4607 229.192C76.8387 228.778 77.0367 228.238 77.0367 227.59C77.0367 226.942 76.8387 226.402 76.4607 225.988C76.0827 225.574 75.5787 225.358 74.9847 225.358C74.3907 225.358 73.8867 225.574 73.5087 225.988ZM81.7779 230.722V224.458C81.7779 223.612 82.3359 223.09 83.0559 223.09C83.6499 223.09 84.0459 223.36 84.2439 223.882C84.7659 223.27 85.4679 222.964 86.3859 222.964C88.5639 222.964 89.9679 224.404 89.9679 226.87V230.722C89.9679 231.568 89.4279 232.09 88.6899 232.09C87.9519 232.09 87.4119 231.568 87.4119 230.722V227.068C87.4119 226.06 86.9439 225.34 85.9539 225.34C84.8739 225.34 84.3339 226.096 84.3339 227.59V230.722C84.4419 232.522 81.6699 232.522 81.7779 230.722ZM92.8451 223.882C93.6191 223.27 94.6451 222.964 95.8871 222.964C96.9851 222.964 97.8851 223.288 98.5871 223.918C99.2891 224.548 99.6311 225.394 99.6311 226.492V230.722C99.6311 231.568 99.0731 232.09 98.3531 232.09C97.7591 232.09 97.3631 231.82 97.1651 231.28C96.5531 231.892 95.7971 232.198 94.9151 232.198C94.0331 232.198 93.3311 231.946 92.7731 231.442C92.2151 230.92 91.9451 230.272 91.9451 229.48C91.9451 228.562 92.2691 227.878 92.9351 227.41C93.6011 226.942 94.4471 226.69 95.4371 226.654L97.0571 226.582C97.0571 225.682 96.6071 225.232 95.7071 225.232C95.1671 225.232 94.6811 225.376 94.2311 225.682C93.5651 226.132 92.9171 226.078 92.5391 225.574C92.1251 225.088 92.2511 224.368 92.8451 223.882ZM94.5191 229.336C94.5191 229.768 94.8971 230.038 95.5451 230.038C96.0671 230.038 96.5711 229.858 97.0571 229.498V228.454L95.9231 228.544C94.9871 228.598 94.5191 228.85 94.5191 229.336ZM104.9 220.678V230.722C105.008 232.522 102.236 232.522 102.344 230.722V220.678C102.236 218.878 105.008 218.878 104.9 220.678ZM116.242 220.678V230.722C116.242 231.568 115.684 232.09 114.964 232.09C114.352 232.09 113.956 231.82 113.776 231.262C113.326 231.82 112.372 232.198 111.418 232.198C110.176 232.198 109.114 231.784 108.268 230.938C107.422 230.092 107.008 228.976 107.008 227.59C107.008 226.222 107.422 225.106 108.268 224.26C109.114 223.396 110.176 222.964 111.418 222.964C112.336 222.964 113.092 223.216 113.686 223.738V220.678C113.578 218.878 116.35 218.878 116.242 220.678ZM113.128 229.246C113.524 228.814 113.722 228.256 113.722 227.59C113.722 226.924 113.524 226.366 113.128 225.934C112.75 225.502 112.264 225.286 111.67 225.286C111.076 225.286 110.59 225.502 110.194 225.934C109.816 226.366 109.618 226.924 109.618 227.59C109.618 228.256 109.816 228.814 110.194 229.246C110.59 229.678 111.076 229.894 111.67 229.894C112.264 229.894 112.75 229.678 113.128 229.246ZM134.335 220.696C134.983 221.272 135.037 222.064 134.533 222.586C134.047 223.162 133.327 223.234 132.625 222.658C131.887 222.01 131.005 221.686 129.961 221.686C128.971 221.686 128.107 222.046 127.351 222.766C126.613 223.468 126.235 224.44 126.235 225.664C126.235 226.906 126.613 227.896 127.351 228.616C128.089 229.336 129.007 229.696 130.105 229.696C131.131 229.696 132.031 229.372 132.823 228.706C133.525 228.148 134.245 228.22 134.731 228.778C135.235 229.3 135.181 230.092 134.533 230.668C133.381 231.694 131.923 232.198 130.177 232.198C128.251 232.198 126.649 231.604 125.371 230.416C124.111 229.228 123.481 227.662 123.481 225.718C123.481 223.756 124.111 222.172 125.371 220.984C126.631 219.778 128.197 219.184 130.087 219.184C131.725 219.184 133.147 219.688 134.335 220.696ZM138.241 230.884C137.359 230.002 136.909 228.904 136.909 227.59C136.909 226.276 137.359 225.178 138.241 224.296C139.141 223.414 140.257 222.964 141.571 222.964C142.885 222.964 144.001 223.414 144.883 224.296C145.783 225.178 146.233 226.276 146.233 227.59C146.233 228.904 145.783 230.002 144.901 230.884C144.019 231.766 142.903 232.198 141.571 232.198C140.239 232.198 139.123 231.766 138.241 230.884ZM140.095 225.988C139.717 226.402 139.519 226.942 139.519 227.59C139.519 228.238 139.717 228.778 140.095 229.192C140.473 229.606 140.977 229.822 141.571 229.822C142.165 229.822 142.669 229.606 143.047 229.192C143.425 228.778 143.623 228.238 143.623 227.59C143.623 226.942 143.425 226.402 143.047 225.988C142.669 225.574 142.165 225.358 141.571 225.358C140.977 225.358 140.473 225.574 140.095 225.988ZM148.364 230.722V224.458C148.364 223.612 148.922 223.09 149.642 223.09C150.236 223.09 150.632 223.36 150.83 223.882C151.352 223.27 152.054 222.964 152.972 222.964C155.15 222.964 156.554 224.404 156.554 226.87V230.722C156.554 231.568 156.014 232.09 155.276 232.09C154.538 232.09 153.998 231.568 153.998 230.722V227.068C153.998 226.06 153.53 225.34 152.54 225.34C151.46 225.34 150.92 226.096 150.92 227.59V230.722C151.028 232.522 148.256 232.522 148.364 230.722ZM158.693 231.172C158.045 230.65 158.027 229.858 158.513 229.336C158.963 228.778 159.647 228.724 160.349 229.246C160.763 229.588 161.195 229.75 161.645 229.75C162.707 229.75 163.283 229.048 163.283 227.77V220.714C163.283 219.832 163.841 219.292 164.615 219.292C165.389 219.292 165.947 219.832 165.947 220.714V227.662C165.947 230.596 164.363 232.198 161.627 232.198C160.493 232.198 159.521 231.856 158.693 231.172ZM176.232 224.458V230.722C176.232 231.568 175.674 232.09 174.954 232.09C174.378 232.09 173.982 231.82 173.784 231.298C173.28 231.892 172.56 232.198 171.606 232.198C169.446 232.198 168.24 230.812 168.24 228.31V224.458C168.132 222.658 170.904 222.658 170.796 224.458V228.112C170.796 229.264 171.246 229.84 172.146 229.84C173.28 229.84 173.676 229.048 173.676 227.59V224.458C173.568 222.658 176.34 222.658 176.232 224.458ZM179.073 230.722V224.458C179.073 223.612 179.631 223.09 180.351 223.09C180.945 223.09 181.341 223.36 181.539 223.882C182.061 223.27 182.763 222.964 183.681 222.964C185.859 222.964 187.263 224.404 187.263 226.87V230.722C187.263 231.568 186.723 232.09 185.985 232.09C185.247 232.09 184.707 231.568 184.707 230.722V227.068C184.707 226.06 184.239 225.34 183.249 225.34C182.169 225.34 181.629 226.096 181.629 227.59V230.722C181.737 232.522 178.965 232.522 179.073 230.722ZM193.347 229.66C194.157 229.75 194.589 230.2 194.589 230.866C194.589 231.532 194.103 232.036 193.221 232.036H192.987C190.935 232.036 189.909 230.992 189.909 228.886V225.538H189.585C188.793 225.538 188.307 225.034 188.307 224.368C188.307 223.702 188.793 223.18 189.585 223.18H189.909V221.992C189.801 220.192 192.573 220.192 192.447 221.992V223.18H193.311C194.103 223.18 194.589 223.702 194.589 224.368C194.589 225.034 194.103 225.538 193.311 225.538H192.447V228.58C192.447 229.318 192.753 229.606 193.347 229.66ZM197.444 230.884C196.562 230.002 196.112 228.904 196.112 227.59C196.112 226.276 196.562 225.178 197.444 224.296C198.344 223.414 199.46 222.964 200.774 222.964C202.088 222.964 203.204 223.414 204.086 224.296C204.986 225.178 205.436 226.276 205.436 227.59C205.436 228.904 204.986 230.002 204.104 230.884C203.222 231.766 202.106 232.198 200.774 232.198C199.442 232.198 198.326 231.766 197.444 230.884ZM199.298 225.988C198.92 226.402 198.722 226.942 198.722 227.59C198.722 228.238 198.92 228.778 199.298 229.192C199.676 229.606 200.18 229.822 200.774 229.822C201.368 229.822 201.872 229.606 202.25 229.192C202.628 228.778 202.826 228.238 202.826 227.59C202.826 226.942 202.628 226.402 202.25 225.988C201.872 225.574 201.368 225.358 200.774 225.358C200.18 225.358 199.676 225.574 199.298 225.988ZM207.783 231.226C207.189 230.704 207.117 230.02 207.567 229.516C208.053 228.976 208.611 228.958 209.259 229.48C209.745 229.858 210.393 230.056 211.185 230.056C211.743 230.056 212.175 229.858 212.175 229.516C212.175 229.228 211.977 229.084 211.383 228.922L210.393 228.634C208.431 228.076 207.513 227.176 207.513 225.754C207.513 224.908 207.837 224.242 208.503 223.738C209.169 223.216 209.979 222.964 210.933 222.964C211.959 222.964 212.823 223.18 213.543 223.63C214.191 224.062 214.353 224.71 214.011 225.268C213.633 225.844 213.021 226.006 212.319 225.592C211.851 225.286 211.347 225.142 210.825 225.142C210.321 225.142 209.997 225.34 209.997 225.628C209.997 225.898 210.195 226.006 210.627 226.132L211.761 226.438C213.561 226.942 214.659 227.716 214.659 229.354C214.659 231.028 213.219 232.198 210.969 232.198C209.619 232.198 208.557 231.874 207.783 231.226ZM217.474 225.628C216.88 225.034 216.88 224.026 217.474 223.432C218.068 222.802 219.076 222.802 219.67 223.432C220.3 224.026 220.3 225.034 219.67 225.628C219.076 226.222 218.068 226.222 217.474 225.628ZM219.346 231.496L218.14 234.07C217.87 234.646 217.348 234.88 216.79 234.736C216.142 234.538 215.764 233.944 216.034 233.242L217.006 230.596C217.294 229.804 217.942 229.48 218.68 229.714C219.382 229.93 219.688 230.722 219.346 231.496ZM35.1643 250.834C35.1643 251.77 34.6963 252.238 33.7423 252.238H29.2243C29.3683 253.192 30.1063 253.858 31.2043 253.858C31.8163 253.858 32.3383 253.678 32.7883 253.318C33.4903 252.814 34.1383 252.976 34.5883 253.57C35.0023 254.074 34.8763 254.794 34.2103 255.316C33.4363 255.91 32.4463 256.198 31.2763 256.198C29.9263 256.198 28.8283 255.784 27.9463 254.956C27.0643 254.11 26.6323 253.012 26.6323 251.644C26.6323 250.294 27.0283 249.178 27.8383 248.296C28.6483 247.414 29.6923 246.964 30.9703 246.964C31.8523 246.964 32.6263 247.18 33.2923 247.594C34.6423 248.44 35.1643 249.628 35.1643 250.834ZM31.0243 249.214C30.1063 249.214 29.5123 249.754 29.3503 250.528H32.5183C32.4643 249.79 31.8703 249.214 31.0243 249.214ZM37.3492 254.722V248.458C37.3492 247.612 37.9072 247.09 38.6272 247.09C39.2212 247.09 39.6172 247.36 39.8152 247.882C40.3372 247.27 41.0392 246.964 41.9572 246.964C44.1352 246.964 45.5392 248.404 45.5392 250.87V254.722C45.5392 255.568 44.9992 256.09 44.2612 256.09C43.5232 256.09 42.9832 255.568 42.9832 254.722V251.068C42.9832 250.06 42.5152 249.34 41.5252 249.34C40.4452 249.34 39.9052 250.096 39.9052 251.59V254.722C40.0132 256.522 37.2412 256.522 37.3492 254.722ZM51.6229 253.66C52.4329 253.75 52.8649 254.2 52.8649 254.866C52.8649 255.532 52.3789 256.036 51.4969 256.036H51.2629C49.2109 256.036 48.1849 254.992 48.1849 252.886V249.538H47.8609C47.0689 249.538 46.5829 249.034 46.5829 248.368C46.5829 247.702 47.0689 247.18 47.8609 247.18H48.1849V245.992C48.0769 244.192 50.8489 244.192 50.7229 245.992V247.18H51.5869C52.3789 247.18 52.8649 247.702 52.8649 248.368C52.8649 249.034 52.3789 249.538 51.5869 249.538H50.7229V252.58C50.7229 253.318 51.0289 253.606 51.6229 253.66ZM60.3796 247.126C60.9556 247.27 61.3876 247.72 61.3876 248.386C61.3876 249.088 60.9016 249.574 60.2716 249.574C60.1456 249.574 59.8756 249.538 59.7136 249.538C58.4896 249.538 57.5536 250.528 57.5536 252.31V254.722C57.6616 256.522 54.8896 256.522 54.9976 254.722V248.458C54.9976 247.612 55.5556 247.09 56.2756 247.09C56.9416 247.09 57.4276 247.522 57.5176 248.152C58.0216 247.45 58.8856 247.054 59.6596 247.054C59.9656 247.054 60.1996 247.072 60.3796 247.126ZM70.6545 250.834C70.6545 251.77 70.1865 252.238 69.2325 252.238H64.7145C64.8585 253.192 65.5965 253.858 66.6945 253.858C67.3065 253.858 67.8285 253.678 68.2785 253.318C68.9805 252.814 69.6285 252.976 70.0785 253.57C70.4925 254.074 70.3665 254.794 69.7005 255.316C68.9265 255.91 67.9365 256.198 66.7665 256.198C65.4165 256.198 64.3185 255.784 63.4365 254.956C62.5545 254.11 62.1225 253.012 62.1225 251.644C62.1225 250.294 62.5185 249.178 63.3285 248.296C64.1385 247.414 65.1825 246.964 66.4605 246.964C67.3425 246.964 68.1165 247.18 68.7825 247.594C70.1325 248.44 70.6545 249.628 70.6545 250.834ZM66.5145 249.214C65.5965 249.214 65.0025 249.754 64.8405 250.528H68.0085C67.9545 249.79 67.3605 249.214 66.5145 249.214ZM77.8667 254.722V248.458C77.8667 247.612 78.4247 247.09 79.1447 247.09C79.7387 247.09 80.1347 247.36 80.3327 247.882C80.8547 247.27 81.5927 246.964 82.5107 246.964C83.5367 246.964 84.3467 247.324 84.9587 248.026C85.6607 247.324 86.5427 246.964 87.6047 246.964C89.9627 246.964 91.2947 248.368 91.2947 250.87V254.722C91.4027 256.522 88.6307 256.522 88.7387 254.722V250.978C88.7387 249.988 88.2707 249.34 87.3887 249.34C86.4347 249.34 85.8587 250.078 85.8587 251.302V254.722C85.9667 256.522 83.1947 256.522 83.3027 254.722V250.978C83.3027 249.988 82.8347 249.34 81.9527 249.34C80.9447 249.34 80.4227 250.114 80.4227 251.482V254.722C80.5307 256.522 77.7587 256.522 77.8667 254.722ZM94.1722 247.882C94.9462 247.27 95.9722 246.964 97.2142 246.964C98.3122 246.964 99.2122 247.288 99.9142 247.918C100.616 248.548 100.958 249.394 100.958 250.492V254.722C100.958 255.568 100.4 256.09 99.6802 256.09C99.0862 256.09 98.6902 255.82 98.4922 255.28C97.8802 255.892 97.1242 256.198 96.2422 256.198C95.3602 256.198 94.6582 255.946 94.1002 255.442C93.5422 254.92 93.2722 254.272 93.2722 253.48C93.2722 252.562 93.5962 251.878 94.2622 251.41C94.9282 250.942 95.7742 250.69 96.7642 250.654L98.3842 250.582C98.3842 249.682 97.9342 249.232 97.0342 249.232C96.4942 249.232 96.0082 249.376 95.5582 249.682C94.8922 250.132 94.2442 250.078 93.8662 249.574C93.4522 249.088 93.5782 248.368 94.1722 247.882ZM95.8462 253.336C95.8462 253.768 96.2242 254.038 96.8722 254.038C97.3942 254.038 97.8982 253.858 98.3842 253.498V252.454L97.2502 252.544C96.3142 252.598 95.8462 252.85 95.8462 253.336ZM112.19 244.678V254.722C112.19 255.568 111.632 256.09 110.912 256.09C110.3 256.09 109.904 255.82 109.724 255.262C109.274 255.82 108.32 256.198 107.366 256.198C106.124 256.198 105.062 255.784 104.216 254.938C103.37 254.092 102.956 252.976 102.956 251.59C102.956 250.222 103.37 249.106 104.216 248.26C105.062 247.396 106.124 246.964 107.366 246.964C108.284 246.964 109.04 247.216 109.634 247.738V244.678C109.526 242.878 112.298 242.878 112.19 244.678ZM109.076 253.246C109.472 252.814 109.67 252.256 109.67 251.59C109.67 250.924 109.472 250.366 109.076 249.934C108.698 249.502 108.212 249.286 107.618 249.286C107.024 249.286 106.538 249.502 106.142 249.934C105.764 250.366 105.566 250.924 105.566 251.59C105.566 252.256 105.764 252.814 106.142 253.246C106.538 253.678 107.024 253.894 107.618 253.894C108.212 253.894 108.698 253.678 109.076 253.246ZM120.391 247.126C120.967 247.27 121.399 247.72 121.399 248.386C121.399 249.088 120.913 249.574 120.283 249.574C120.157 249.574 119.887 249.538 119.725 249.538C118.501 249.538 117.565 250.528 117.565 252.31V254.722C117.673 256.522 114.901 256.522 115.009 254.722V248.458C115.009 247.612 115.567 247.09 116.287 247.09C116.953 247.09 117.439 247.522 117.529 248.152C118.033 247.45 118.897 247.054 119.671 247.054C119.977 247.054 120.211 247.072 120.391 247.126ZM130.666 250.834C130.666 251.77 130.198 252.238 129.244 252.238H124.726C124.87 253.192 125.608 253.858 126.706 253.858C127.318 253.858 127.84 253.678 128.29 253.318C128.992 252.814 129.64 252.976 130.09 253.57C130.504 254.074 130.378 254.794 129.712 255.316C128.938 255.91 127.948 256.198 126.778 256.198C125.428 256.198 124.33 255.784 123.448 254.956C122.566 254.11 122.134 253.012 122.134 251.644C122.134 250.294 122.53 249.178 123.34 248.296C124.15 247.414 125.194 246.964 126.472 246.964C127.354 246.964 128.128 247.18 128.794 247.594C130.144 248.44 130.666 249.628 130.666 250.834ZM126.526 249.214C125.608 249.214 125.014 249.754 124.852 250.528H128.02C127.966 249.79 127.372 249.214 126.526 249.214ZM133.067 255.226C132.473 254.704 132.401 254.02 132.851 253.516C133.337 252.976 133.895 252.958 134.543 253.48C135.029 253.858 135.677 254.056 136.469 254.056C137.027 254.056 137.459 253.858 137.459 253.516C137.459 253.228 137.261 253.084 136.667 252.922L135.677 252.634C133.715 252.076 132.797 251.176 132.797 249.754C132.797 248.908 133.121 248.242 133.787 247.738C134.453 247.216 135.263 246.964 136.217 246.964C137.243 246.964 138.107 247.18 138.827 247.63C139.475 248.062 139.637 248.71 139.295 249.268C138.917 249.844 138.305 250.006 137.603 249.592C137.135 249.286 136.631 249.142 136.109 249.142C135.605 249.142 135.281 249.34 135.281 249.628C135.281 249.898 135.479 250.006 135.911 250.132L137.045 250.438C138.845 250.942 139.943 251.716 139.943 253.354C139.943 255.028 138.503 256.198 136.253 256.198C134.903 256.198 133.841 255.874 133.067 255.226ZM144.645 255.496L143.439 258.07C143.169 258.646 142.647 258.88 142.089 258.736C141.441 258.538 141.063 257.944 141.333 257.242L142.305 254.596C142.593 253.804 143.241 253.48 143.979 253.714C144.681 253.93 144.987 254.722 144.645 255.496ZM152.662 258.214V248.44C152.662 247.576 153.22 247.072 153.94 247.072C154.552 247.072 154.948 247.342 155.128 247.9C155.578 247.342 156.532 246.964 157.486 246.964C158.728 246.964 159.772 247.396 160.618 248.242C161.464 249.088 161.896 250.204 161.896 251.59C161.896 252.958 161.464 254.074 160.618 254.92C159.772 255.766 158.728 256.198 157.486 256.198C156.568 256.198 155.812 255.946 155.218 255.424V258.214C155.326 260.014 152.554 260.014 152.662 258.214ZM155.758 249.934C155.38 250.366 155.182 250.924 155.182 251.59C155.182 252.256 155.38 252.814 155.758 253.246C156.154 253.678 156.64 253.894 157.234 253.894C157.828 253.894 158.314 253.678 158.692 253.246C159.088 252.814 159.286 252.256 159.286 251.59C159.286 250.924 159.088 250.366 158.692 249.934C158.314 249.502 157.828 249.286 157.234 249.286C156.64 249.286 156.154 249.502 155.758 249.934ZM164.45 247.882C165.224 247.27 166.25 246.964 167.492 246.964C168.59 246.964 169.49 247.288 170.192 247.918C170.894 248.548 171.236 249.394 171.236 250.492V254.722C171.236 255.568 170.678 256.09 169.958 256.09C169.364 256.09 168.968 255.82 168.77 255.28C168.158 255.892 167.402 256.198 166.52 256.198C165.638 256.198 164.936 255.946 164.378 255.442C163.82 254.92 163.55 254.272 163.55 253.48C163.55 252.562 163.874 251.878 164.54 251.41C165.206 250.942 166.052 250.69 167.042 250.654L168.662 250.582C168.662 249.682 168.212 249.232 167.312 249.232C166.772 249.232 166.286 249.376 165.836 249.682C165.17 250.132 164.522 250.078 164.144 249.574C163.73 249.088 163.856 248.368 164.45 247.882ZM166.124 253.336C166.124 253.768 166.502 254.038 167.15 254.038C167.672 254.038 168.176 253.858 168.662 253.498V252.454L167.528 252.544C166.592 252.598 166.124 252.85 166.124 253.336ZM182.467 244.678V254.722C182.467 255.568 181.909 256.09 181.189 256.09C180.577 256.09 180.181 255.82 180.001 255.262C179.551 255.82 178.597 256.198 177.643 256.198C176.401 256.198 175.339 255.784 174.493 254.938C173.647 254.092 173.233 252.976 173.233 251.59C173.233 250.222 173.647 249.106 174.493 248.26C175.339 247.396 176.401 246.964 177.643 246.964C178.561 246.964 179.317 247.216 179.911 247.738V244.678C179.803 242.878 182.575 242.878 182.467 244.678ZM179.353 253.246C179.749 252.814 179.947 252.256 179.947 251.59C179.947 250.924 179.749 250.366 179.353 249.934C178.975 249.502 178.489 249.286 177.895 249.286C177.301 249.286 176.815 249.502 176.419 249.934C176.041 250.366 175.843 250.924 175.843 251.59C175.843 252.256 176.041 252.814 176.419 253.246C176.815 253.678 177.301 253.894 177.895 253.894C178.489 253.894 178.975 253.678 179.353 253.246ZM190.669 247.126C191.245 247.27 191.677 247.72 191.677 248.386C191.677 249.088 191.191 249.574 190.561 249.574C190.435 249.574 190.165 249.538 190.003 249.538C188.779 249.538 187.843 250.528 187.843 252.31V254.722C187.951 256.522 185.179 256.522 185.287 254.722V248.458C185.287 247.612 185.845 247.09 186.565 247.09C187.231 247.09 187.717 247.522 187.807 248.152C188.311 247.45 189.175 247.054 189.949 247.054C190.255 247.054 190.489 247.072 190.669 247.126ZM200.944 250.834C200.944 251.77 200.476 252.238 199.522 252.238H195.004C195.148 253.192 195.886 253.858 196.984 253.858C197.596 253.858 198.118 253.678 198.568 253.318C199.27 252.814 199.918 252.976 200.368 253.57C200.782 254.074 200.656 254.794 199.99 255.316C199.216 255.91 198.226 256.198 197.056 256.198C195.706 256.198 194.608 255.784 193.726 254.956C192.844 254.11 192.412 253.012 192.412 251.644C192.412 250.294 192.808 249.178 193.618 248.296C194.428 247.414 195.472 246.964 196.75 246.964C197.632 246.964 198.406 247.18 199.072 247.594C200.422 248.44 200.944 249.628 200.944 250.834ZM196.804 249.214C195.886 249.214 195.292 249.754 195.13 250.528H198.298C198.244 249.79 197.65 249.214 196.804 249.214ZM203.344 255.226C202.75 254.704 202.678 254.02 203.128 253.516C203.614 252.976 204.172 252.958 204.82 253.48C205.306 253.858 205.954 254.056 206.746 254.056C207.304 254.056 207.736 253.858 207.736 253.516C207.736 253.228 207.538 253.084 206.944 252.922L205.954 252.634C203.992 252.076 203.074 251.176 203.074 249.754C203.074 248.908 203.398 248.242 204.064 247.738C204.73 247.216 205.54 246.964 206.494 246.964C207.52 246.964 208.384 247.18 209.104 247.63C209.752 248.062 209.914 248.71 209.572 249.268C209.194 249.844 208.582 250.006 207.88 249.592C207.412 249.286 206.908 249.142 206.386 249.142C205.882 249.142 205.558 249.34 205.558 249.628C205.558 249.898 205.756 250.006 206.188 250.132L207.322 250.438C209.122 250.942 210.22 251.716 210.22 253.354C210.22 255.028 208.78 256.198 206.53 256.198C205.18 256.198 204.118 255.874 203.344 255.226ZM219.132 257.836L219.924 256L217.206 248.908C216.918 248.116 217.296 247.36 218.016 247.144C218.682 246.946 219.33 247.27 219.618 248.08L221.31 252.634L223.02 248.08C223.308 247.27 223.956 246.946 224.622 247.144C225.342 247.378 225.756 248.044 225.45 248.818L221.562 258.574C221.22 259.42 220.698 259.726 219.96 259.51C219.222 259.276 218.79 258.61 219.132 257.836ZM81.7163 278.722V268.678C81.6083 266.878 84.3803 266.878 84.2723 268.678V271.72C84.7583 271.216 85.4423 270.964 86.3243 270.964C88.5023 270.964 89.9063 272.404 89.9063 274.87V278.722C89.9063 279.568 89.3663 280.09 88.6283 280.09C87.8903 280.09 87.3503 279.568 87.3503 278.722V275.068C87.3503 274.06 86.8823 273.34 85.8923 273.34C84.8123 273.34 84.2723 274.024 84.2723 275.392V278.722C84.3803 280.522 81.6083 280.522 81.7163 278.722ZM100.362 274.834C100.362 275.77 99.8935 276.238 98.9395 276.238H94.4215C94.5655 277.192 95.3035 277.858 96.4015 277.858C97.0135 277.858 97.5355 277.678 97.9855 277.318C98.6875 276.814 99.3355 276.976 99.7855 277.57C100.2 278.074 100.074 278.794 99.4075 279.316C98.6335 279.91 97.6435 280.198 96.4735 280.198C95.1235 280.198 94.0255 279.784 93.1435 278.956C92.2615 278.11 91.8295 277.012 91.8295 275.644C91.8295 274.294 92.2255 273.178 93.0355 272.296C93.8455 271.414 94.8895 270.964 96.1675 270.964C97.0495 270.964 97.8235 271.18 98.4895 271.594C99.8395 272.44 100.362 273.628 100.362 274.834ZM96.2215 273.214C95.3035 273.214 94.7095 273.754 94.5475 274.528H97.7155C97.6615 273.79 97.0675 273.214 96.2215 273.214ZM107.928 271.126C108.504 271.27 108.936 271.72 108.936 272.386C108.936 273.088 108.45 273.574 107.82 273.574C107.694 273.574 107.424 273.538 107.262 273.538C106.038 273.538 105.102 274.528 105.102 276.31V278.722C105.21 280.522 102.438 280.522 102.546 278.722V272.458C102.546 271.612 103.104 271.09 103.824 271.09C104.49 271.09 104.976 271.522 105.066 272.152C105.57 271.45 106.434 271.054 107.208 271.054C107.514 271.054 107.748 271.072 107.928 271.126ZM110.369 278.722V272.458C110.369 271.612 110.927 271.09 111.647 271.09C112.241 271.09 112.637 271.36 112.835 271.882C113.357 271.27 114.095 270.964 115.013 270.964C116.039 270.964 116.849 271.324 117.461 272.026C118.163 271.324 119.045 270.964 120.107 270.964C122.465 270.964 123.797 272.368 123.797 274.87V278.722C123.905 280.522 121.133 280.522 121.241 278.722V274.978C121.241 273.988 120.773 273.34 119.891 273.34C118.937 273.34 118.361 274.078 118.361 275.302V278.722C118.469 280.522 115.697 280.522 115.805 278.722V274.978C115.805 273.988 115.337 273.34 114.455 273.34C113.447 273.34 112.925 274.114 112.925 275.482V278.722C113.033 280.522 110.261 280.522 110.369 278.722ZM126.674 271.882C127.448 271.27 128.474 270.964 129.716 270.964C130.814 270.964 131.714 271.288 132.416 271.918C133.118 272.548 133.46 273.394 133.46 274.492V278.722C133.46 279.568 132.902 280.09 132.182 280.09C131.588 280.09 131.192 279.82 130.994 279.28C130.382 279.892 129.626 280.198 128.744 280.198C127.862 280.198 127.16 279.946 126.602 279.442C126.044 278.92 125.774 278.272 125.774 277.48C125.774 276.562 126.098 275.878 126.764 275.41C127.43 274.942 128.276 274.69 129.266 274.654L130.886 274.582C130.886 273.682 130.436 273.232 129.536 273.232C128.996 273.232 128.51 273.376 128.06 273.682C127.394 274.132 126.746 274.078 126.368 273.574C125.954 273.088 126.08 272.368 126.674 271.882ZM128.348 277.336C128.348 277.768 128.726 278.038 129.374 278.038C129.896 278.038 130.4 277.858 130.886 277.498V276.454L129.752 276.544C128.816 276.598 128.348 276.85 128.348 277.336ZM136.173 278.722V272.458C136.173 271.612 136.731 271.09 137.451 271.09C138.045 271.09 138.441 271.36 138.639 271.882C139.161 271.27 139.863 270.964 140.781 270.964C142.959 270.964 144.363 272.404 144.363 274.87V278.722C144.363 279.568 143.823 280.09 143.085 280.09C142.347 280.09 141.807 279.568 141.807 278.722V275.068C141.807 274.06 141.339 273.34 140.349 273.34C139.269 273.34 138.729 274.096 138.729 275.59V278.722C138.837 280.522 136.065 280.522 136.173 278.722ZM147.619 278.884C146.737 278.002 146.287 276.904 146.287 275.59C146.287 274.276 146.737 273.178 147.619 272.296C148.519 271.414 149.635 270.964 150.949 270.964C152.263 270.964 153.379 271.414 154.261 272.296C155.161 273.178 155.611 274.276 155.611 275.59C155.611 276.904 155.161 278.002 154.279 278.884C153.397 279.766 152.281 280.198 150.949 280.198C149.617 280.198 148.501 279.766 147.619 278.884ZM149.473 273.988C149.095 274.402 148.897 274.942 148.897 275.59C148.897 276.238 149.095 276.778 149.473 277.192C149.851 277.606 150.355 277.822 150.949 277.822C151.543 277.822 152.047 277.606 152.425 277.192C152.803 276.778 153.001 276.238 153.001 275.59C153.001 274.942 152.803 274.402 152.425 273.988C152.047 273.574 151.543 273.358 150.949 273.358C150.355 273.358 149.851 273.574 149.473 273.988ZM157.958 279.226C157.364 278.704 157.292 278.02 157.742 277.516C158.228 276.976 158.786 276.958 159.434 277.48C159.92 277.858 160.568 278.056 161.36 278.056C161.918 278.056 162.35 277.858 162.35 277.516C162.35 277.228 162.152 277.084 161.558 276.922L160.568 276.634C158.606 276.076 157.688 275.176 157.688 273.754C157.688 272.908 158.012 272.242 158.678 271.738C159.344 271.216 160.154 270.964 161.108 270.964C162.134 270.964 162.998 271.18 163.718 271.63C164.366 272.062 164.528 272.71 164.186 273.268C163.808 273.844 163.196 274.006 162.494 273.592C162.026 273.286 161.522 273.142 161 273.142C160.496 273.142 160.172 273.34 160.172 273.628C160.172 273.898 160.37 274.006 160.802 274.132L161.936 274.438C163.736 274.942 164.834 275.716 164.834 277.354C164.834 279.028 163.394 280.198 161.144 280.198C159.794 280.198 158.732 279.874 157.958 279.226ZM167.322 279.73C166.746 279.136 166.746 278.128 167.322 277.534C167.916 276.94 168.924 276.94 169.518 277.534C170.148 278.128 170.148 279.136 169.518 279.73C168.924 280.324 167.916 280.324 167.322 279.73Z" fill="#F9D332"/>
<circle cx="121.5" cy="91.5" r="78" fill="#F9D332" stroke="#930345" stroke-width="9"/>
<path d="M89.8141 93.816C86.6781 94.04 86.6781 89.176 89.8141 89.4C92.0221 89.4 93.3021 88.408 93.3021 86.872C93.3021 85.56 92.1501 84.568 90.3581 84.568C89.0461 84.568 87.9581 84.888 87.0941 85.496C85.9101 86.296 84.7581 86.2 83.9901 85.304C83.2221 84.504 83.2861 83.032 84.4061 82.136C86.0061 80.856 87.9581 80.216 90.2301 80.216C92.4061 80.216 94.2621 80.728 95.7661 81.784C97.3021 82.84 98.0701 84.376 98.0701 86.424C98.0701 88.568 97.2381 90.168 95.5741 91.288C97.2701 92.152 98.6141 94.04 98.6141 96.568C98.6141 98.712 97.8141 100.376 96.2141 101.56C94.6141 102.744 92.5981 103.352 90.1661 103.352C87.7981 103.352 85.7181 102.68 83.9581 101.368C82.7741 100.472 82.7101 98.904 83.5101 98.04C84.4381 97.016 85.5261 96.952 86.7741 97.848C87.8301 98.616 89.0141 99 90.3581 99C92.4381 99 93.8781 98.072 93.8781 96.44C93.8781 94.68 92.5341 93.816 89.8141 93.816ZM111.999 86.552L106.847 94.072H111.999V86.552ZM116.735 84.024V94.072H117.919C120.863 93.88 120.863 98.488 117.919 98.264H116.735V100.632C116.735 102.2 115.679 103.16 114.367 103.16C112.991 103.16 111.999 102.2 111.999 100.632V98.264H104.671C102.847 98.264 101.759 97.08 101.759 95.544C101.759 94.968 101.951 94.392 102.303 93.848L110.655 81.816C111.263 80.888 112.191 80.44 113.375 80.44C115.295 80.44 116.735 81.816 116.735 84.024ZM135.821 95.672C135.821 93.72 134.381 92.344 132.461 92.344C130.541 92.344 129.101 93.72 129.101 95.672C129.101 97.592 130.541 99 132.461 99C134.381 99 135.821 97.592 135.821 95.672ZM135.757 85.432C134.861 84.856 133.869 84.568 132.781 84.568C131.437 84.568 130.285 85.08 129.357 86.136C128.429 87.16 127.949 88.504 127.917 90.168C129.101 88.792 130.733 88.12 132.781 88.12C134.925 88.12 136.749 88.824 138.253 90.232C139.789 91.64 140.557 93.464 140.557 95.704C140.557 98.008 139.757 99.864 138.157 101.272C136.589 102.648 134.669 103.352 132.429 103.352C129.645 103.352 127.437 102.296 125.805 100.216C124.205 98.104 123.405 95.224 123.405 91.576C123.405 88.152 124.269 85.4 125.965 83.32C127.693 81.24 130.029 80.216 132.973 80.216C134.733 80.216 136.429 80.696 137.997 81.624C139.309 82.392 139.629 83.736 138.989 84.792C138.349 85.912 137.069 86.2 135.757 85.432ZM144.532 99.96C144.532 96.408 146.964 93.272 151.796 90.552L153.044 89.848C155.252 88.6 155.828 87.864 155.828 86.808C155.828 85.432 154.644 84.568 152.724 84.568C151.604 84.568 150.388 85.112 149.14 86.2C148.084 87.096 146.58 87.256 145.716 86.456C144.852 85.656 144.884 84.248 145.908 83.192C146.708 82.328 147.764 81.624 149.044 81.08C150.324 80.504 151.572 80.216 152.82 80.216C155.028 80.216 156.852 80.792 158.356 81.976C159.86 83.128 160.596 84.728 160.596 86.744C160.596 88.376 160.116 89.688 159.06 90.808C158.036 91.864 157.012 92.6 155.252 93.624L153.3 94.744C151.156 95.992 150.1 96.952 149.748 98.616H158.484C159.988 98.616 160.82 99.544 160.82 100.824C160.82 102.072 159.988 103 158.484 103H147.572C145.652 103 144.532 101.88 144.532 99.96Z" fill="#930345"/>
</svg>
