<svg width="244" height="298" viewBox="0 0 244 298" fill="none" xmlns="http://www.w3.org/2000/svg">
<rect width="243.562" height="297.688" fill="#930345"/>
<path d="M35.9021 199.126C36.4781 199.27 36.9101 199.72 36.9101 200.386C36.9101 201.088 36.4241 201.574 35.7941 201.574C35.6681 201.574 35.3981 201.538 35.2361 201.538C34.0121 201.538 33.0761 202.528 33.0761 204.31V206.722C33.1841 208.522 30.4121 208.522 30.5201 206.722V200.458C30.5201 199.612 31.0781 199.09 31.7981 199.09C32.4641 199.09 32.9501 199.522 33.0401 200.152C33.5441 199.45 34.4081 199.054 35.1821 199.054C35.4881 199.054 35.7221 199.072 35.9021 199.126ZM46.177 202.834C46.177 203.77 45.709 204.238 44.755 204.238H40.237C40.381 205.192 41.119 205.858 42.217 205.858C42.829 205.858 43.351 205.678 43.801 205.318C44.503 204.814 45.151 204.976 45.601 205.57C46.015 206.074 45.889 206.794 45.223 207.316C44.449 207.91 43.459 208.198 42.289 208.198C40.939 208.198 39.841 207.784 38.959 206.956C38.077 206.11 37.645 205.012 37.645 203.644C37.645 202.294 38.041 201.178 38.851 200.296C39.661 199.414 40.705 198.964 41.983 198.964C42.865 198.964 43.639 199.18 44.305 199.594C45.655 200.44 46.177 201.628 46.177 202.834ZM42.037 201.214C41.119 201.214 40.525 201.754 40.363 202.528H43.531C43.477 201.79 42.883 201.214 42.037 201.214ZM53.9933 201.808C53.5793 201.502 53.1473 201.34 52.6973 201.34C51.4193 201.34 50.5553 202.276 50.5553 203.59C50.5553 204.904 51.4193 205.84 52.6973 205.84C53.1833 205.84 53.6693 205.642 54.1553 205.264C54.8573 204.76 55.5053 204.922 55.9553 205.516C56.3693 206.02 56.2433 206.74 55.5773 207.262C54.7493 207.892 53.7593 208.198 52.6073 208.198C51.2753 208.198 50.1593 207.766 49.2773 206.884C48.3953 206.002 47.9453 204.904 47.9453 203.59C47.9453 202.276 48.3953 201.178 49.2773 200.296C50.1773 199.414 51.2933 198.964 52.6073 198.964C53.6333 198.964 54.5333 199.234 55.2893 199.792C55.9553 200.314 56.1353 201.07 55.7573 201.574C55.3433 202.15 54.6953 202.294 53.9933 201.808ZM58.3789 196.678C58.3789 195.832 59.0449 195.184 59.8549 195.184C60.7009 195.184 61.3489 195.832 61.3489 196.678C61.3489 197.488 60.6649 198.154 59.8549 198.154C59.0449 198.154 58.3789 197.488 58.3789 196.678ZM61.1329 206.722C61.1329 207.568 60.5929 208.09 59.8549 208.09C59.1169 208.09 58.5769 207.568 58.5769 206.722V200.458C58.5769 199.612 59.1169 199.09 59.8549 199.09C60.5929 199.09 61.1329 199.612 61.1329 200.458V206.722ZM64.0591 206.722V196.678C63.9511 194.878 66.7231 194.878 66.6151 196.678V199.738C67.2091 199.216 67.9651 198.964 68.8831 198.964C70.1251 198.964 71.1691 199.396 72.0151 200.26C72.8611 201.106 73.2931 202.222 73.2931 203.59C73.2931 204.976 72.8611 206.092 72.0151 206.938C71.1691 207.784 70.1251 208.198 68.8831 208.198C67.9291 208.198 66.9751 207.82 66.5251 207.262C66.3451 207.82 65.9491 208.09 65.3371 208.09C64.6171 208.09 64.0591 207.568 64.0591 206.722ZM67.1551 201.934C66.7771 202.366 66.5791 202.924 66.5791 203.59C66.5791 204.256 66.7771 204.814 67.1551 205.246C67.5511 205.678 68.0371 205.894 68.6311 205.894C69.2251 205.894 69.7111 205.678 70.0891 205.246C70.4851 204.814 70.6831 204.256 70.6831 203.59C70.6831 202.924 70.4851 202.366 70.0891 201.934C69.7111 201.502 69.2251 201.286 68.6311 201.286C68.0371 201.286 67.5511 201.502 67.1551 201.934ZM75.3066 196.678C75.3066 195.832 75.9726 195.184 76.7826 195.184C77.6286 195.184 78.2766 195.832 78.2766 196.678C78.2766 197.488 77.5926 198.154 76.7826 198.154C75.9726 198.154 75.3066 197.488 75.3066 196.678ZM78.0606 206.722C78.0606 207.568 77.5206 208.09 76.7826 208.09C76.0446 208.09 75.5046 207.568 75.5046 206.722V200.458C75.5046 199.612 76.0446 199.09 76.7826 199.09C77.5206 199.09 78.0606 199.612 78.0606 200.458V206.722ZM81.6215 206.884C80.7395 206.002 80.2895 204.904 80.2895 203.59C80.2895 202.276 80.7395 201.178 81.6215 200.296C82.5215 199.414 83.6375 198.964 84.9515 198.964C86.2655 198.964 87.3815 199.414 88.2635 200.296C89.1635 201.178 89.6135 202.276 89.6135 203.59C89.6135 204.904 89.1635 206.002 88.2815 206.884C87.3995 207.766 86.2835 208.198 84.9515 208.198C83.6195 208.198 82.5035 207.766 81.6215 206.884ZM83.4755 201.988C83.0975 202.402 82.8995 202.942 82.8995 203.59C82.8995 204.238 83.0975 204.778 83.4755 205.192C83.8535 205.606 84.3575 205.822 84.9515 205.822C85.5455 205.822 86.0495 205.606 86.4275 205.192C86.8055 204.778 87.0035 204.238 87.0035 203.59C87.0035 202.942 86.8055 202.402 86.4275 201.988C86.0495 201.574 85.5455 201.358 84.9515 201.358C84.3575 201.358 83.8535 201.574 83.4755 201.988ZM86.0135 197.11L84.4655 197.83C84.1235 197.992 83.7995 197.974 83.4755 197.776C82.9895 197.47 82.8635 196.786 83.1695 196.336C83.2595 196.192 83.3855 196.084 83.5295 195.994L85.0595 194.986C85.4735 194.716 85.9055 194.734 86.3555 195.004C86.8775 195.346 87.0395 196.084 86.6795 196.642C86.5175 196.858 86.2835 197.02 86.0135 197.11ZM99.328 196.678V206.722C99.436 208.522 96.664 208.522 96.772 206.722V196.678C96.664 194.878 99.436 194.878 99.328 196.678ZM102.408 199.882C103.182 199.27 104.208 198.964 105.45 198.964C106.548 198.964 107.448 199.288 108.15 199.918C108.852 200.548 109.194 201.394 109.194 202.492V206.722C109.194 207.568 108.636 208.09 107.916 208.09C107.322 208.09 106.926 207.82 106.728 207.28C106.116 207.892 105.36 208.198 104.478 208.198C103.596 208.198 102.894 207.946 102.336 207.442C101.778 206.92 101.508 206.272 101.508 205.48C101.508 204.562 101.832 203.878 102.498 203.41C103.164 202.942 104.01 202.69 105 202.654L106.62 202.582C106.62 201.682 106.17 201.232 105.27 201.232C104.73 201.232 104.244 201.376 103.794 201.682C103.128 202.132 102.48 202.078 102.102 201.574C101.688 201.088 101.814 200.368 102.408 199.882ZM104.082 205.336C104.082 205.768 104.46 206.038 105.108 206.038C105.63 206.038 106.134 205.858 106.62 205.498V204.454L105.486 204.544C104.55 204.598 104.082 204.85 104.082 205.336ZM127.181 196.696C127.829 197.272 127.883 198.064 127.379 198.586C126.893 199.162 126.173 199.234 125.471 198.658C124.733 198.01 123.851 197.686 122.807 197.686C121.817 197.686 120.953 198.046 120.197 198.766C119.459 199.468 119.081 200.44 119.081 201.664C119.081 202.906 119.459 203.896 120.197 204.616C120.935 205.336 121.853 205.696 122.951 205.696C123.977 205.696 124.877 205.372 125.669 204.706C126.371 204.148 127.091 204.22 127.577 204.778C128.081 205.3 128.027 206.092 127.379 206.668C126.227 207.694 124.769 208.198 123.023 208.198C121.097 208.198 119.495 207.604 118.217 206.416C116.957 205.228 116.327 203.662 116.327 201.718C116.327 199.756 116.957 198.172 118.217 196.984C119.477 195.778 121.043 195.184 122.933 195.184C124.571 195.184 125.993 195.688 127.181 196.696ZM130.708 199.882C131.482 199.27 132.508 198.964 133.75 198.964C134.848 198.964 135.748 199.288 136.45 199.918C137.152 200.548 137.494 201.394 137.494 202.492V206.722C137.494 207.568 136.936 208.09 136.216 208.09C135.622 208.09 135.226 207.82 135.028 207.28C134.416 207.892 133.66 208.198 132.778 208.198C131.896 208.198 131.194 207.946 130.636 207.442C130.078 206.92 129.808 206.272 129.808 205.48C129.808 204.562 130.132 203.878 130.798 203.41C131.464 202.942 132.31 202.69 133.3 202.654L134.92 202.582C134.92 201.682 134.47 201.232 133.57 201.232C133.03 201.232 132.544 201.376 132.094 201.682C131.428 202.132 130.78 202.078 130.402 201.574C129.988 201.088 130.114 200.368 130.708 199.882ZM132.382 205.336C132.382 205.768 132.76 206.038 133.408 206.038C133.93 206.038 134.434 205.858 134.92 205.498V204.454L133.786 204.544C132.85 204.598 132.382 204.85 132.382 205.336ZM140.23 207.226C139.636 206.704 139.564 206.02 140.014 205.516C140.5 204.976 141.058 204.958 141.706 205.48C142.192 205.858 142.84 206.056 143.632 206.056C144.19 206.056 144.622 205.858 144.622 205.516C144.622 205.228 144.424 205.084 143.83 204.922L142.84 204.634C140.878 204.076 139.96 203.176 139.96 201.754C139.96 200.908 140.284 200.242 140.95 199.738C141.616 199.216 142.426 198.964 143.38 198.964C144.406 198.964 145.27 199.18 145.99 199.63C146.638 200.062 146.8 200.71 146.458 201.268C146.08 201.844 145.468 202.006 144.766 201.592C144.298 201.286 143.794 201.142 143.272 201.142C142.768 201.142 142.444 201.34 142.444 201.628C142.444 201.898 142.642 202.006 143.074 202.132L144.208 202.438C146.008 202.942 147.106 203.716 147.106 205.354C147.106 207.028 145.666 208.198 143.416 208.198C142.066 208.198 141.004 207.874 140.23 207.226ZM149.605 199.882C150.379 199.27 151.405 198.964 152.647 198.964C153.745 198.964 154.645 199.288 155.347 199.918C156.049 200.548 156.391 201.394 156.391 202.492V206.722C156.391 207.568 155.833 208.09 155.113 208.09C154.519 208.09 154.123 207.82 153.925 207.28C153.313 207.892 152.557 208.198 151.675 208.198C150.793 208.198 150.091 207.946 149.533 207.442C148.975 206.92 148.705 206.272 148.705 205.48C148.705 204.562 149.029 203.878 149.695 203.41C150.361 202.942 151.207 202.69 152.197 202.654L153.817 202.582C153.817 201.682 153.367 201.232 152.467 201.232C151.927 201.232 151.441 201.376 150.991 201.682C150.325 202.132 149.677 202.078 149.299 201.574C148.885 201.088 149.011 200.368 149.605 199.882ZM151.279 205.336C151.279 205.768 151.657 206.038 152.305 206.038C152.827 206.038 153.331 205.858 153.817 205.498V204.454L152.683 204.544C151.747 204.598 151.279 204.85 151.279 205.336ZM168.78 197.866H166.71V201.502H168.78C170.526 201.502 171.408 200.89 171.408 199.648C171.408 198.424 170.598 197.866 168.78 197.866ZM171.336 207.316L168.852 203.95H166.71V206.668C166.71 207.55 166.134 208.09 165.36 208.09C164.586 208.09 164.028 207.55 164.028 206.668V197.11C164.028 196.03 164.658 195.4 165.738 195.4H169.248C170.67 195.4 171.822 195.76 172.722 196.498C173.622 197.218 174.072 198.226 174.072 199.504C174.072 201.286 173.1 202.726 171.588 203.446L173.532 205.93C174.054 206.65 173.91 207.46 173.262 207.874C172.668 208.252 171.858 208.036 171.336 207.316ZM176.895 206.884C176.013 206.002 175.563 204.904 175.563 203.59C175.563 202.276 176.013 201.178 176.895 200.296C177.795 199.414 178.911 198.964 180.225 198.964C181.539 198.964 182.655 199.414 183.537 200.296C184.437 201.178 184.887 202.276 184.887 203.59C184.887 204.904 184.437 206.002 183.555 206.884C182.673 207.766 181.557 208.198 180.225 208.198C178.893 208.198 177.777 207.766 176.895 206.884ZM178.749 201.988C178.371 202.402 178.173 202.942 178.173 203.59C178.173 204.238 178.371 204.778 178.749 205.192C179.127 205.606 179.631 205.822 180.225 205.822C180.819 205.822 181.323 205.606 181.701 205.192C182.079 204.778 182.277 204.238 182.277 203.59C182.277 202.942 182.079 202.402 181.701 201.988C181.323 201.574 180.819 201.358 180.225 201.358C179.631 201.358 179.127 201.574 178.749 201.988ZM187.018 206.722V200.458C187.018 199.612 187.576 199.09 188.296 199.09C188.89 199.09 189.286 199.36 189.484 199.882C190.006 199.27 190.708 198.964 191.626 198.964C193.804 198.964 195.208 200.404 195.208 202.87V206.722C195.208 207.568 194.668 208.09 193.93 208.09C193.192 208.09 192.652 207.568 192.652 206.722V203.068C192.652 202.06 192.184 201.34 191.194 201.34C190.114 201.34 189.574 202.096 189.574 203.59V206.722C189.682 208.522 186.91 208.522 187.018 206.722ZM198.085 199.882C198.859 199.27 199.885 198.964 201.127 198.964C202.225 198.964 203.125 199.288 203.827 199.918C204.529 200.548 204.871 201.394 204.871 202.492V206.722C204.871 207.568 204.313 208.09 203.593 208.09C202.999 208.09 202.603 207.82 202.405 207.28C201.793 207.892 201.037 208.198 200.155 208.198C199.273 208.198 198.571 207.946 198.013 207.442C197.455 206.92 197.185 206.272 197.185 205.48C197.185 204.562 197.509 203.878 198.175 203.41C198.841 202.942 199.687 202.69 200.677 202.654L202.297 202.582C202.297 201.682 201.847 201.232 200.947 201.232C200.407 201.232 199.921 201.376 199.471 201.682C198.805 202.132 198.157 202.078 197.779 201.574C197.365 201.088 197.491 200.368 198.085 199.882ZM199.759 205.336C199.759 205.768 200.137 206.038 200.785 206.038C201.307 206.038 201.811 205.858 202.297 205.498V204.454L201.163 204.544C200.227 204.598 199.759 204.85 199.759 205.336ZM210.141 196.678V206.722C210.249 208.522 207.477 208.522 207.585 206.722V196.678C207.477 194.878 210.249 194.878 210.141 196.678ZM221.482 196.678V206.722C221.482 207.568 220.924 208.09 220.204 208.09C219.592 208.09 219.196 207.82 219.016 207.262C218.566 207.82 217.612 208.198 216.658 208.198C215.416 208.198 214.354 207.784 213.508 206.938C212.662 206.092 212.248 204.976 212.248 203.59C212.248 202.222 212.662 201.106 213.508 200.26C214.354 199.396 215.416 198.964 216.658 198.964C217.576 198.964 218.332 199.216 218.926 199.738V196.678C218.818 194.878 221.59 194.878 221.482 196.678ZM218.368 205.246C218.764 204.814 218.962 204.256 218.962 203.59C218.962 202.924 218.764 202.366 218.368 201.934C217.99 201.502 217.504 201.286 216.91 201.286C216.316 201.286 215.83 201.502 215.434 201.934C215.056 202.366 214.858 202.924 214.858 203.59C214.858 204.256 215.056 204.814 215.434 205.246C215.83 205.678 216.316 205.894 216.91 205.894C217.504 205.894 217.99 205.678 218.368 205.246ZM35.129 220.138L38.333 226.456L41.555 220.138C41.861 219.526 42.365 219.22 43.085 219.22C44.039 219.22 44.597 219.832 44.597 220.822V230.668C44.597 231.55 44.039 232.09 43.265 232.09C42.491 232.09 41.933 231.55 41.933 230.668V224.836L39.791 228.922C39.467 229.534 38.981 229.84 38.333 229.84C37.685 229.84 37.199 229.534 36.893 228.94L34.751 224.836V230.668C34.751 231.55 34.193 232.09 33.419 232.09C32.645 232.09 32.087 231.55 32.087 230.668V220.822C32.087 219.832 32.645 219.22 33.599 219.22C34.301 219.22 34.823 219.526 35.129 220.138ZM52.8332 225.808C52.4192 225.502 51.9872 225.34 51.5372 225.34C50.2592 225.34 49.3952 226.276 49.3952 227.59C49.3952 228.904 50.2592 229.84 51.5372 229.84C52.0232 229.84 52.5092 229.642 52.9952 229.264C53.6972 228.76 54.3452 228.922 54.7952 229.516C55.2092 230.02 55.0832 230.74 54.4172 231.262C53.5892 231.892 52.5992 232.198 51.4472 232.198C50.1152 232.198 48.9992 231.766 48.1172 230.884C47.2352 230.002 46.7852 228.904 46.7852 227.59C46.7852 226.276 47.2352 225.178 48.1172 224.296C49.0172 223.414 50.1332 222.964 51.4472 222.964C52.4732 222.964 53.3732 223.234 54.1292 223.792C54.7952 224.314 54.9752 225.07 54.5972 225.574C54.1832 226.15 53.5352 226.294 52.8332 225.808ZM61.5747 232H59.1267C58.0467 232 57.4167 231.37 57.4167 230.29V221.11C57.4167 220.03 58.0467 219.4 59.1267 219.4H61.5747C63.3747 219.4 64.9767 219.85 66.3447 220.786C67.7307 221.704 68.6127 223.432 68.6127 225.61C68.6127 227.824 67.7307 229.552 66.3627 230.542C64.9947 231.496 63.3567 232 61.5747 232ZM61.1607 221.866H60.0987V229.534H61.1787C64.3287 229.534 65.8947 228.22 65.8947 225.61C65.8947 223.108 64.3107 221.866 61.1607 221.866ZM71.6547 230.884C70.7727 230.002 70.3227 228.904 70.3227 227.59C70.3227 226.276 70.7727 225.178 71.6547 224.296C72.5547 223.414 73.6707 222.964 74.9847 222.964C76.2987 222.964 77.4147 223.414 78.2967 224.296C79.1967 225.178 79.6467 226.276 79.6467 227.59C79.6467 228.904 79.1967 230.002 78.3147 230.884C77.4327 231.766 76.3167 232.198 74.9847 232.198C73.6527 232.198 72.5367 231.766 71.6547 230.884ZM73.5087 225.988C73.1307 226.402 72.9327 226.942 72.9327 227.59C72.9327 228.238 73.1307 228.778 73.5087 229.192C73.8867 229.606 74.3907 229.822 74.9847 229.822C75.5787 229.822 76.0827 229.606 76.4607 229.192C76.8387 228.778 77.0367 228.238 77.0367 227.59C77.0367 226.942 76.8387 226.402 76.4607 225.988C76.0827 225.574 75.5787 225.358 74.9847 225.358C74.3907 225.358 73.8867 225.574 73.5087 225.988ZM81.7779 230.722V224.458C81.7779 223.612 82.3359 223.09 83.0559 223.09C83.6499 223.09 84.0459 223.36 84.2439 223.882C84.7659 223.27 85.4679 222.964 86.3859 222.964C88.5639 222.964 89.9679 224.404 89.9679 226.87V230.722C89.9679 231.568 89.4279 232.09 88.6899 232.09C87.9519 232.09 87.4119 231.568 87.4119 230.722V227.068C87.4119 226.06 86.9439 225.34 85.9539 225.34C84.8739 225.34 84.3339 226.096 84.3339 227.59V230.722C84.4419 232.522 81.6699 232.522 81.7779 230.722ZM92.8451 223.882C93.6191 223.27 94.6451 222.964 95.8871 222.964C96.9851 222.964 97.8851 223.288 98.5871 223.918C99.2891 224.548 99.6311 225.394 99.6311 226.492V230.722C99.6311 231.568 99.0731 232.09 98.3531 232.09C97.7591 232.09 97.3631 231.82 97.1651 231.28C96.5531 231.892 95.7971 232.198 94.9151 232.198C94.0331 232.198 93.3311 231.946 92.7731 231.442C92.2151 230.92 91.9451 230.272 91.9451 229.48C91.9451 228.562 92.2691 227.878 92.9351 227.41C93.6011 226.942 94.4471 226.69 95.4371 226.654L97.0571 226.582C97.0571 225.682 96.6071 225.232 95.7071 225.232C95.1671 225.232 94.6811 225.376 94.2311 225.682C93.5651 226.132 92.9171 226.078 92.5391 225.574C92.1251 225.088 92.2511 224.368 92.8451 223.882ZM94.5191 229.336C94.5191 229.768 94.8971 230.038 95.5451 230.038C96.0671 230.038 96.5711 229.858 97.0571 229.498V228.454L95.9231 228.544C94.9871 228.598 94.5191 228.85 94.5191 229.336ZM104.9 220.678V230.722C105.008 232.522 102.236 232.522 102.344 230.722V220.678C102.236 218.878 105.008 218.878 104.9 220.678ZM116.242 220.678V230.722C116.242 231.568 115.684 232.09 114.964 232.09C114.352 232.09 113.956 231.82 113.776 231.262C113.326 231.82 112.372 232.198 111.418 232.198C110.176 232.198 109.114 231.784 108.268 230.938C107.422 230.092 107.008 228.976 107.008 227.59C107.008 226.222 107.422 225.106 108.268 224.26C109.114 223.396 110.176 222.964 111.418 222.964C112.336 222.964 113.092 223.216 113.686 223.738V220.678C113.578 218.878 116.35 218.878 116.242 220.678ZM113.128 229.246C113.524 228.814 113.722 228.256 113.722 227.59C113.722 226.924 113.524 226.366 113.128 225.934C112.75 225.502 112.264 225.286 111.67 225.286C111.076 225.286 110.59 225.502 110.194 225.934C109.816 226.366 109.618 226.924 109.618 227.59C109.618 228.256 109.816 228.814 110.194 229.246C110.59 229.678 111.076 229.894 111.67 229.894C112.264 229.894 112.75 229.678 113.128 229.246ZM134.335 220.696C134.983 221.272 135.037 222.064 134.533 222.586C134.047 223.162 133.327 223.234 132.625 222.658C131.887 222.01 131.005 221.686 129.961 221.686C128.971 221.686 128.107 222.046 127.351 222.766C126.613 223.468 126.235 224.44 126.235 225.664C126.235 226.906 126.613 227.896 127.351 228.616C128.089 229.336 129.007 229.696 130.105 229.696C131.131 229.696 132.031 229.372 132.823 228.706C133.525 228.148 134.245 228.22 134.731 228.778C135.235 229.3 135.181 230.092 134.533 230.668C133.381 231.694 131.923 232.198 130.177 232.198C128.251 232.198 126.649 231.604 125.371 230.416C124.111 229.228 123.481 227.662 123.481 225.718C123.481 223.756 124.111 222.172 125.371 220.984C126.631 219.778 128.197 219.184 130.087 219.184C131.725 219.184 133.147 219.688 134.335 220.696ZM138.241 230.884C137.359 230.002 136.909 228.904 136.909 227.59C136.909 226.276 137.359 225.178 138.241 224.296C139.141 223.414 140.257 222.964 141.571 222.964C142.885 222.964 144.001 223.414 144.883 224.296C145.783 225.178 146.233 226.276 146.233 227.59C146.233 228.904 145.783 230.002 144.901 230.884C144.019 231.766 142.903 232.198 141.571 232.198C140.239 232.198 139.123 231.766 138.241 230.884ZM140.095 225.988C139.717 226.402 139.519 226.942 139.519 227.59C139.519 228.238 139.717 228.778 140.095 229.192C140.473 229.606 140.977 229.822 141.571 229.822C142.165 229.822 142.669 229.606 143.047 229.192C143.425 228.778 143.623 228.238 143.623 227.59C143.623 226.942 143.425 226.402 143.047 225.988C142.669 225.574 142.165 225.358 141.571 225.358C140.977 225.358 140.473 225.574 140.095 225.988ZM148.364 230.722V224.458C148.364 223.612 148.922 223.09 149.642 223.09C150.236 223.09 150.632 223.36 150.83 223.882C151.352 223.27 152.054 222.964 152.972 222.964C155.15 222.964 156.554 224.404 156.554 226.87V230.722C156.554 231.568 156.014 232.09 155.276 232.09C154.538 232.09 153.998 231.568 153.998 230.722V227.068C153.998 226.06 153.53 225.34 152.54 225.34C151.46 225.34 150.92 226.096 150.92 227.59V230.722C151.028 232.522 148.256 232.522 148.364 230.722ZM158.693 231.172C158.045 230.65 158.027 229.858 158.513 229.336C158.963 228.778 159.647 228.724 160.349 229.246C160.763 229.588 161.195 229.75 161.645 229.75C162.707 229.75 163.283 229.048 163.283 227.77V220.714C163.283 219.832 163.841 219.292 164.615 219.292C165.389 219.292 165.947 219.832 165.947 220.714V227.662C165.947 230.596 164.363 232.198 161.627 232.198C160.493 232.198 159.521 231.856 158.693 231.172ZM176.232 224.458V230.722C176.232 231.568 175.674 232.09 174.954 232.09C174.378 232.09 173.982 231.82 173.784 231.298C173.28 231.892 172.56 232.198 171.606 232.198C169.446 232.198 168.24 230.812 168.24 228.31V224.458C168.132 222.658 170.904 222.658 170.796 224.458V228.112C170.796 229.264 171.246 229.84 172.146 229.84C173.28 229.84 173.676 229.048 173.676 227.59V224.458C173.568 222.658 176.34 222.658 176.232 224.458ZM179.073 230.722V224.458C179.073 223.612 179.631 223.09 180.351 223.09C180.945 223.09 181.341 223.36 181.539 223.882C182.061 223.27 182.763 222.964 183.681 222.964C185.859 222.964 187.263 224.404 187.263 226.87V230.722C187.263 231.568 186.723 232.09 185.985 232.09C185.247 232.09 184.707 231.568 184.707 230.722V227.068C184.707 226.06 184.239 225.34 183.249 225.34C182.169 225.34 181.629 226.096 181.629 227.59V230.722C181.737 232.522 178.965 232.522 179.073 230.722ZM193.347 229.66C194.157 229.75 194.589 230.2 194.589 230.866C194.589 231.532 194.103 232.036 193.221 232.036H192.987C190.935 232.036 189.909 230.992 189.909 228.886V225.538H189.585C188.793 225.538 188.307 225.034 188.307 224.368C188.307 223.702 188.793 223.18 189.585 223.18H189.909V221.992C189.801 220.192 192.573 220.192 192.447 221.992V223.18H193.311C194.103 223.18 194.589 223.702 194.589 224.368C194.589 225.034 194.103 225.538 193.311 225.538H192.447V228.58C192.447 229.318 192.753 229.606 193.347 229.66ZM197.444 230.884C196.562 230.002 196.112 228.904 196.112 227.59C196.112 226.276 196.562 225.178 197.444 224.296C198.344 223.414 199.46 222.964 200.774 222.964C202.088 222.964 203.204 223.414 204.086 224.296C204.986 225.178 205.436 226.276 205.436 227.59C205.436 228.904 204.986 230.002 204.104 230.884C203.222 231.766 202.106 232.198 200.774 232.198C199.442 232.198 198.326 231.766 197.444 230.884ZM199.298 225.988C198.92 226.402 198.722 226.942 198.722 227.59C198.722 228.238 198.92 228.778 199.298 229.192C199.676 229.606 200.18 229.822 200.774 229.822C201.368 229.822 201.872 229.606 202.25 229.192C202.628 228.778 202.826 228.238 202.826 227.59C202.826 226.942 202.628 226.402 202.25 225.988C201.872 225.574 201.368 225.358 200.774 225.358C200.18 225.358 199.676 225.574 199.298 225.988ZM207.783 231.226C207.189 230.704 207.117 230.02 207.567 229.516C208.053 228.976 208.611 228.958 209.259 229.48C209.745 229.858 210.393 230.056 211.185 230.056C211.743 230.056 212.175 229.858 212.175 229.516C212.175 229.228 211.977 229.084 211.383 228.922L210.393 228.634C208.431 228.076 207.513 227.176 207.513 225.754C207.513 224.908 207.837 224.242 208.503 223.738C209.169 223.216 209.979 222.964 210.933 222.964C211.959 222.964 212.823 223.18 213.543 223.63C214.191 224.062 214.353 224.71 214.011 225.268C213.633 225.844 213.021 226.006 212.319 225.592C211.851 225.286 211.347 225.142 210.825 225.142C210.321 225.142 209.997 225.34 209.997 225.628C209.997 225.898 210.195 226.006 210.627 226.132L211.761 226.438C213.561 226.942 214.659 227.716 214.659 229.354C214.659 231.028 213.219 232.198 210.969 232.198C209.619 232.198 208.557 231.874 207.783 231.226ZM217.474 225.628C216.88 225.034 216.88 224.026 217.474 223.432C218.068 222.802 219.076 222.802 219.67 223.432C220.3 224.026 220.3 225.034 219.67 225.628C219.076 226.222 218.068 226.222 217.474 225.628ZM219.346 231.496L218.14 234.07C217.87 234.646 217.348 234.88 216.79 234.736C216.142 234.538 215.764 233.944 216.034 233.242L217.006 230.596C217.294 229.804 217.942 229.48 218.68 229.714C219.382 229.93 219.688 230.722 219.346 231.496ZM35.1643 250.834C35.1643 251.77 34.6963 252.238 33.7423 252.238H29.2243C29.3683 253.192 30.1063 253.858 31.2043 253.858C31.8163 253.858 32.3383 253.678 32.7883 253.318C33.4903 252.814 34.1383 252.976 34.5883 253.57C35.0023 254.074 34.8763 254.794 34.2103 255.316C33.4363 255.91 32.4463 256.198 31.2763 256.198C29.9263 256.198 28.8283 255.784 27.9463 254.956C27.0643 254.11 26.6323 253.012 26.6323 251.644C26.6323 250.294 27.0283 249.178 27.8383 248.296C28.6483 247.414 29.6923 246.964 30.9703 246.964C31.8523 246.964 32.6263 247.18 33.2923 247.594C34.6423 248.44 35.1643 249.628 35.1643 250.834ZM31.0243 249.214C30.1063 249.214 29.5123 249.754 29.3503 250.528H32.5183C32.4643 249.79 31.8703 249.214 31.0243 249.214ZM37.3492 254.722V248.458C37.3492 247.612 37.9072 247.09 38.6272 247.09C39.2212 247.09 39.6172 247.36 39.8152 247.882C40.3372 247.27 41.0392 246.964 41.9572 246.964C44.1352 246.964 45.5392 248.404 45.5392 250.87V254.722C45.5392 255.568 44.9992 256.09 44.2612 256.09C43.5232 256.09 42.9832 255.568 42.9832 254.722V251.068C42.9832 250.06 42.5152 249.34 41.5252 249.34C40.4452 249.34 39.9052 250.096 39.9052 251.59V254.722C40.0132 256.522 37.2412 256.522 37.3492 254.722ZM51.6229 253.66C52.4329 253.75 52.8649 254.2 52.8649 254.866C52.8649 255.532 52.3789 256.036 51.4969 256.036H51.2629C49.2109 256.036 48.1849 254.992 48.1849 252.886V249.538H47.8609C47.0689 249.538 46.5829 249.034 46.5829 248.368C46.5829 247.702 47.0689 247.18 47.8609 247.18H48.1849V245.992C48.0769 244.192 50.8489 244.192 50.7229 245.992V247.18H51.5869C52.3789 247.18 52.8649 247.702 52.8649 248.368C52.8649 249.034 52.3789 249.538 51.5869 249.538H50.7229V252.58C50.7229 253.318 51.0289 253.606 51.6229 253.66ZM60.3796 247.126C60.9556 247.27 61.3876 247.72 61.3876 248.386C61.3876 249.088 60.9016 249.574 60.2716 249.574C60.1456 249.574 59.8756 249.538 59.7136 249.538C58.4896 249.538 57.5536 250.528 57.5536 252.31V254.722C57.6616 256.522 54.8896 256.522 54.9976 254.722V248.458C54.9976 247.612 55.5556 247.09 56.2756 247.09C56.9416 247.09 57.4276 247.522 57.5176 248.152C58.0216 247.45 58.8856 247.054 59.6596 247.054C59.9656 247.054 60.1996 247.072 60.3796 247.126ZM70.6545 250.834C70.6545 251.77 70.1865 252.238 69.2325 252.238H64.7145C64.8585 253.192 65.5965 253.858 66.6945 253.858C67.3065 253.858 67.8285 253.678 68.2785 253.318C68.9805 252.814 69.6285 252.976 70.0785 253.57C70.4925 254.074 70.3665 254.794 69.7005 255.316C68.9265 255.91 67.9365 256.198 66.7665 256.198C65.4165 256.198 64.3185 255.784 63.4365 254.956C62.5545 254.11 62.1225 253.012 62.1225 251.644C62.1225 250.294 62.5185 249.178 63.3285 248.296C64.1385 247.414 65.1825 246.964 66.4605 246.964C67.3425 246.964 68.1165 247.18 68.7825 247.594C70.1325 248.44 70.6545 249.628 70.6545 250.834ZM66.5145 249.214C65.5965 249.214 65.0025 249.754 64.8405 250.528H68.0085C67.9545 249.79 67.3605 249.214 66.5145 249.214ZM77.8667 254.722V248.458C77.8667 247.612 78.4247 247.09 79.1447 247.09C79.7387 247.09 80.1347 247.36 80.3327 247.882C80.8547 247.27 81.5927 246.964 82.5107 246.964C83.5367 246.964 84.3467 247.324 84.9587 248.026C85.6607 247.324 86.5427 246.964 87.6047 246.964C89.9627 246.964 91.2947 248.368 91.2947 250.87V254.722C91.4027 256.522 88.6307 256.522 88.7387 254.722V250.978C88.7387 249.988 88.2707 249.34 87.3887 249.34C86.4347 249.34 85.8587 250.078 85.8587 251.302V254.722C85.9667 256.522 83.1947 256.522 83.3027 254.722V250.978C83.3027 249.988 82.8347 249.34 81.9527 249.34C80.9447 249.34 80.4227 250.114 80.4227 251.482V254.722C80.5307 256.522 77.7587 256.522 77.8667 254.722ZM94.1722 247.882C94.9462 247.27 95.9722 246.964 97.2142 246.964C98.3122 246.964 99.2122 247.288 99.9142 247.918C100.616 248.548 100.958 249.394 100.958 250.492V254.722C100.958 255.568 100.4 256.09 99.6802 256.09C99.0862 256.09 98.6902 255.82 98.4922 255.28C97.8802 255.892 97.1242 256.198 96.2422 256.198C95.3602 256.198 94.6582 255.946 94.1002 255.442C93.5422 254.92 93.2722 254.272 93.2722 253.48C93.2722 252.562 93.5962 251.878 94.2622 251.41C94.9282 250.942 95.7742 250.69 96.7642 250.654L98.3842 250.582C98.3842 249.682 97.9342 249.232 97.0342 249.232C96.4942 249.232 96.0082 249.376 95.5582 249.682C94.8922 250.132 94.2442 250.078 93.8662 249.574C93.4522 249.088 93.5782 248.368 94.1722 247.882ZM95.8462 253.336C95.8462 253.768 96.2242 254.038 96.8722 254.038C97.3942 254.038 97.8982 253.858 98.3842 253.498V252.454L97.2502 252.544C96.3142 252.598 95.8462 252.85 95.8462 253.336ZM112.19 244.678V254.722C112.19 255.568 111.632 256.09 110.912 256.09C110.3 256.09 109.904 255.82 109.724 255.262C109.274 255.82 108.32 256.198 107.366 256.198C106.124 256.198 105.062 255.784 104.216 254.938C103.37 254.092 102.956 252.976 102.956 251.59C102.956 250.222 103.37 249.106 104.216 248.26C105.062 247.396 106.124 246.964 107.366 246.964C108.284 246.964 109.04 247.216 109.634 247.738V244.678C109.526 242.878 112.298 242.878 112.19 244.678ZM109.076 253.246C109.472 252.814 109.67 252.256 109.67 251.59C109.67 250.924 109.472 250.366 109.076 249.934C108.698 249.502 108.212 249.286 107.618 249.286C107.024 249.286 106.538 249.502 106.142 249.934C105.764 250.366 105.566 250.924 105.566 251.59C105.566 252.256 105.764 252.814 106.142 253.246C106.538 253.678 107.024 253.894 107.618 253.894C108.212 253.894 108.698 253.678 109.076 253.246ZM120.391 247.126C120.967 247.27 121.399 247.72 121.399 248.386C121.399 249.088 120.913 249.574 120.283 249.574C120.157 249.574 119.887 249.538 119.725 249.538C118.501 249.538 117.565 250.528 117.565 252.31V254.722C117.673 256.522 114.901 256.522 115.009 254.722V248.458C115.009 247.612 115.567 247.09 116.287 247.09C116.953 247.09 117.439 247.522 117.529 248.152C118.033 247.45 118.897 247.054 119.671 247.054C119.977 247.054 120.211 247.072 120.391 247.126ZM130.666 250.834C130.666 251.77 130.198 252.238 129.244 252.238H124.726C124.87 253.192 125.608 253.858 126.706 253.858C127.318 253.858 127.84 253.678 128.29 253.318C128.992 252.814 129.64 252.976 130.09 253.57C130.504 254.074 130.378 254.794 129.712 255.316C128.938 255.91 127.948 256.198 126.778 256.198C125.428 256.198 124.33 255.784 123.448 254.956C122.566 254.11 122.134 253.012 122.134 251.644C122.134 250.294 122.53 249.178 123.34 248.296C124.15 247.414 125.194 246.964 126.472 246.964C127.354 246.964 128.128 247.18 128.794 247.594C130.144 248.44 130.666 249.628 130.666 250.834ZM126.526 249.214C125.608 249.214 125.014 249.754 124.852 250.528H128.02C127.966 249.79 127.372 249.214 126.526 249.214ZM133.067 255.226C132.473 254.704 132.401 254.02 132.851 253.516C133.337 252.976 133.895 252.958 134.543 253.48C135.029 253.858 135.677 254.056 136.469 254.056C137.027 254.056 137.459 253.858 137.459 253.516C137.459 253.228 137.261 253.084 136.667 252.922L135.677 252.634C133.715 252.076 132.797 251.176 132.797 249.754C132.797 248.908 133.121 248.242 133.787 247.738C134.453 247.216 135.263 246.964 136.217 246.964C137.243 246.964 138.107 247.18 138.827 247.63C139.475 248.062 139.637 248.71 139.295 249.268C138.917 249.844 138.305 250.006 137.603 249.592C137.135 249.286 136.631 249.142 136.109 249.142C135.605 249.142 135.281 249.34 135.281 249.628C135.281 249.898 135.479 250.006 135.911 250.132L137.045 250.438C138.845 250.942 139.943 251.716 139.943 253.354C139.943 255.028 138.503 256.198 136.253 256.198C134.903 256.198 133.841 255.874 133.067 255.226ZM144.645 255.496L143.439 258.07C143.169 258.646 142.647 258.88 142.089 258.736C141.441 258.538 141.063 257.944 141.333 257.242L142.305 254.596C142.593 253.804 143.241 253.48 143.979 253.714C144.681 253.93 144.987 254.722 144.645 255.496ZM152.662 258.214V248.44C152.662 247.576 153.22 247.072 153.94 247.072C154.552 247.072 154.948 247.342 155.128 247.9C155.578 247.342 156.532 246.964 157.486 246.964C158.728 246.964 159.772 247.396 160.618 248.242C161.464 249.088 161.896 250.204 161.896 251.59C161.896 252.958 161.464 254.074 160.618 254.92C159.772 255.766 158.728 256.198 157.486 256.198C156.568 256.198 155.812 255.946 155.218 255.424V258.214C155.326 260.014 152.554 260.014 152.662 258.214ZM155.758 249.934C155.38 250.366 155.182 250.924 155.182 251.59C155.182 252.256 155.38 252.814 155.758 253.246C156.154 253.678 156.64 253.894 157.234 253.894C157.828 253.894 158.314 253.678 158.692 253.246C159.088 252.814 159.286 252.256 159.286 251.59C159.286 250.924 159.088 250.366 158.692 249.934C158.314 249.502 157.828 249.286 157.234 249.286C156.64 249.286 156.154 249.502 155.758 249.934ZM164.45 247.882C165.224 247.27 166.25 246.964 167.492 246.964C168.59 246.964 169.49 247.288 170.192 247.918C170.894 248.548 171.236 249.394 171.236 250.492V254.722C171.236 255.568 170.678 256.09 169.958 256.09C169.364 256.09 168.968 255.82 168.77 255.28C168.158 255.892 167.402 256.198 166.52 256.198C165.638 256.198 164.936 255.946 164.378 255.442C163.82 254.92 163.55 254.272 163.55 253.48C163.55 252.562 163.874 251.878 164.54 251.41C165.206 250.942 166.052 250.69 167.042 250.654L168.662 250.582C168.662 249.682 168.212 249.232 167.312 249.232C166.772 249.232 166.286 249.376 165.836 249.682C165.17 250.132 164.522 250.078 164.144 249.574C163.73 249.088 163.856 248.368 164.45 247.882ZM166.124 253.336C166.124 253.768 166.502 254.038 167.15 254.038C167.672 254.038 168.176 253.858 168.662 253.498V252.454L167.528 252.544C166.592 252.598 166.124 252.85 166.124 253.336ZM182.467 244.678V254.722C182.467 255.568 181.909 256.09 181.189 256.09C180.577 256.09 180.181 255.82 180.001 255.262C179.551 255.82 178.597 256.198 177.643 256.198C176.401 256.198 175.339 255.784 174.493 254.938C173.647 254.092 173.233 252.976 173.233 251.59C173.233 250.222 173.647 249.106 174.493 248.26C175.339 247.396 176.401 246.964 177.643 246.964C178.561 246.964 179.317 247.216 179.911 247.738V244.678C179.803 242.878 182.575 242.878 182.467 244.678ZM179.353 253.246C179.749 252.814 179.947 252.256 179.947 251.59C179.947 250.924 179.749 250.366 179.353 249.934C178.975 249.502 178.489 249.286 177.895 249.286C177.301 249.286 176.815 249.502 176.419 249.934C176.041 250.366 175.843 250.924 175.843 251.59C175.843 252.256 176.041 252.814 176.419 253.246C176.815 253.678 177.301 253.894 177.895 253.894C178.489 253.894 178.975 253.678 179.353 253.246ZM190.669 247.126C191.245 247.27 191.677 247.72 191.677 248.386C191.677 249.088 191.191 249.574 190.561 249.574C190.435 249.574 190.165 249.538 190.003 249.538C188.779 249.538 187.843 250.528 187.843 252.31V254.722C187.951 256.522 185.179 256.522 185.287 254.722V248.458C185.287 247.612 185.845 247.09 186.565 247.09C187.231 247.09 187.717 247.522 187.807 248.152C188.311 247.45 189.175 247.054 189.949 247.054C190.255 247.054 190.489 247.072 190.669 247.126ZM200.944 250.834C200.944 251.77 200.476 252.238 199.522 252.238H195.004C195.148 253.192 195.886 253.858 196.984 253.858C197.596 253.858 198.118 253.678 198.568 253.318C199.27 252.814 199.918 252.976 200.368 253.57C200.782 254.074 200.656 254.794 199.99 255.316C199.216 255.91 198.226 256.198 197.056 256.198C195.706 256.198 194.608 255.784 193.726 254.956C192.844 254.11 192.412 253.012 192.412 251.644C192.412 250.294 192.808 249.178 193.618 248.296C194.428 247.414 195.472 246.964 196.75 246.964C197.632 246.964 198.406 247.18 199.072 247.594C200.422 248.44 200.944 249.628 200.944 250.834ZM196.804 249.214C195.886 249.214 195.292 249.754 195.13 250.528H198.298C198.244 249.79 197.65 249.214 196.804 249.214ZM203.344 255.226C202.75 254.704 202.678 254.02 203.128 253.516C203.614 252.976 204.172 252.958 204.82 253.48C205.306 253.858 205.954 254.056 206.746 254.056C207.304 254.056 207.736 253.858 207.736 253.516C207.736 253.228 207.538 253.084 206.944 252.922L205.954 252.634C203.992 252.076 203.074 251.176 203.074 249.754C203.074 248.908 203.398 248.242 204.064 247.738C204.73 247.216 205.54 246.964 206.494 246.964C207.52 246.964 208.384 247.18 209.104 247.63C209.752 248.062 209.914 248.71 209.572 249.268C209.194 249.844 208.582 250.006 207.88 249.592C207.412 249.286 206.908 249.142 206.386 249.142C205.882 249.142 205.558 249.34 205.558 249.628C205.558 249.898 205.756 250.006 206.188 250.132L207.322 250.438C209.122 250.942 210.22 251.716 210.22 253.354C210.22 255.028 208.78 256.198 206.53 256.198C205.18 256.198 204.118 255.874 203.344 255.226ZM219.132 257.836L219.924 256L217.206 248.908C216.918 248.116 217.296 247.36 218.016 247.144C218.682 246.946 219.33 247.27 219.618 248.08L221.31 252.634L223.02 248.08C223.308 247.27 223.956 246.946 224.622 247.144C225.342 247.378 225.756 248.044 225.45 248.818L221.562 258.574C221.22 259.42 220.698 259.726 219.96 259.51C219.222 259.276 218.79 258.61 219.132 257.836ZM81.7163 278.722V268.678C81.6083 266.878 84.3803 266.878 84.2723 268.678V271.72C84.7583 271.216 85.4423 270.964 86.3243 270.964C88.5023 270.964 89.9063 272.404 89.9063 274.87V278.722C89.9063 279.568 89.3663 280.09 88.6283 280.09C87.8903 280.09 87.3503 279.568 87.3503 278.722V275.068C87.3503 274.06 86.8823 273.34 85.8923 273.34C84.8123 273.34 84.2723 274.024 84.2723 275.392V278.722C84.3803 280.522 81.6083 280.522 81.7163 278.722ZM100.362 274.834C100.362 275.77 99.8935 276.238 98.9395 276.238H94.4215C94.5655 277.192 95.3035 277.858 96.4015 277.858C97.0135 277.858 97.5355 277.678 97.9855 277.318C98.6875 276.814 99.3355 276.976 99.7855 277.57C100.2 278.074 100.074 278.794 99.4075 279.316C98.6335 279.91 97.6435 280.198 96.4735 280.198C95.1235 280.198 94.0255 279.784 93.1435 278.956C92.2615 278.11 91.8295 277.012 91.8295 275.644C91.8295 274.294 92.2255 273.178 93.0355 272.296C93.8455 271.414 94.8895 270.964 96.1675 270.964C97.0495 270.964 97.8235 271.18 98.4895 271.594C99.8395 272.44 100.362 273.628 100.362 274.834ZM96.2215 273.214C95.3035 273.214 94.7095 273.754 94.5475 274.528H97.7155C97.6615 273.79 97.0675 273.214 96.2215 273.214ZM107.928 271.126C108.504 271.27 108.936 271.72 108.936 272.386C108.936 273.088 108.45 273.574 107.82 273.574C107.694 273.574 107.424 273.538 107.262 273.538C106.038 273.538 105.102 274.528 105.102 276.31V278.722C105.21 280.522 102.438 280.522 102.546 278.722V272.458C102.546 271.612 103.104 271.09 103.824 271.09C104.49 271.09 104.976 271.522 105.066 272.152C105.57 271.45 106.434 271.054 107.208 271.054C107.514 271.054 107.748 271.072 107.928 271.126ZM110.369 278.722V272.458C110.369 271.612 110.927 271.09 111.647 271.09C112.241 271.09 112.637 271.36 112.835 271.882C113.357 271.27 114.095 270.964 115.013 270.964C116.039 270.964 116.849 271.324 117.461 272.026C118.163 271.324 119.045 270.964 120.107 270.964C122.465 270.964 123.797 272.368 123.797 274.87V278.722C123.905 280.522 121.133 280.522 121.241 278.722V274.978C121.241 273.988 120.773 273.34 119.891 273.34C118.937 273.34 118.361 274.078 118.361 275.302V278.722C118.469 280.522 115.697 280.522 115.805 278.722V274.978C115.805 273.988 115.337 273.34 114.455 273.34C113.447 273.34 112.925 274.114 112.925 275.482V278.722C113.033 280.522 110.261 280.522 110.369 278.722ZM126.674 271.882C127.448 271.27 128.474 270.964 129.716 270.964C130.814 270.964 131.714 271.288 132.416 271.918C133.118 272.548 133.46 273.394 133.46 274.492V278.722C133.46 279.568 132.902 280.09 132.182 280.09C131.588 280.09 131.192 279.82 130.994 279.28C130.382 279.892 129.626 280.198 128.744 280.198C127.862 280.198 127.16 279.946 126.602 279.442C126.044 278.92 125.774 278.272 125.774 277.48C125.774 276.562 126.098 275.878 126.764 275.41C127.43 274.942 128.276 274.69 129.266 274.654L130.886 274.582C130.886 273.682 130.436 273.232 129.536 273.232C128.996 273.232 128.51 273.376 128.06 273.682C127.394 274.132 126.746 274.078 126.368 273.574C125.954 273.088 126.08 272.368 126.674 271.882ZM128.348 277.336C128.348 277.768 128.726 278.038 129.374 278.038C129.896 278.038 130.4 277.858 130.886 277.498V276.454L129.752 276.544C128.816 276.598 128.348 276.85 128.348 277.336ZM136.173 278.722V272.458C136.173 271.612 136.731 271.09 137.451 271.09C138.045 271.09 138.441 271.36 138.639 271.882C139.161 271.27 139.863 270.964 140.781 270.964C142.959 270.964 144.363 272.404 144.363 274.87V278.722C144.363 279.568 143.823 280.09 143.085 280.09C142.347 280.09 141.807 279.568 141.807 278.722V275.068C141.807 274.06 141.339 273.34 140.349 273.34C139.269 273.34 138.729 274.096 138.729 275.59V278.722C138.837 280.522 136.065 280.522 136.173 278.722ZM147.619 278.884C146.737 278.002 146.287 276.904 146.287 275.59C146.287 274.276 146.737 273.178 147.619 272.296C148.519 271.414 149.635 270.964 150.949 270.964C152.263 270.964 153.379 271.414 154.261 272.296C155.161 273.178 155.611 274.276 155.611 275.59C155.611 276.904 155.161 278.002 154.279 278.884C153.397 279.766 152.281 280.198 150.949 280.198C149.617 280.198 148.501 279.766 147.619 278.884ZM149.473 273.988C149.095 274.402 148.897 274.942 148.897 275.59C148.897 276.238 149.095 276.778 149.473 277.192C149.851 277.606 150.355 277.822 150.949 277.822C151.543 277.822 152.047 277.606 152.425 277.192C152.803 276.778 153.001 276.238 153.001 275.59C153.001 274.942 152.803 274.402 152.425 273.988C152.047 273.574 151.543 273.358 150.949 273.358C150.355 273.358 149.851 273.574 149.473 273.988ZM157.958 279.226C157.364 278.704 157.292 278.02 157.742 277.516C158.228 276.976 158.786 276.958 159.434 277.48C159.92 277.858 160.568 278.056 161.36 278.056C161.918 278.056 162.35 277.858 162.35 277.516C162.35 277.228 162.152 277.084 161.558 276.922L160.568 276.634C158.606 276.076 157.688 275.176 157.688 273.754C157.688 272.908 158.012 272.242 158.678 271.738C159.344 271.216 160.154 270.964 161.108 270.964C162.134 270.964 162.998 271.18 163.718 271.63C164.366 272.062 164.528 272.71 164.186 273.268C163.808 273.844 163.196 274.006 162.494 273.592C162.026 273.286 161.522 273.142 161 273.142C160.496 273.142 160.172 273.34 160.172 273.628C160.172 273.898 160.37 274.006 160.802 274.132L161.936 274.438C163.736 274.942 164.834 275.716 164.834 277.354C164.834 279.028 163.394 280.198 161.144 280.198C159.794 280.198 158.732 279.874 157.958 279.226ZM167.322 279.73C166.746 279.136 166.746 278.128 167.322 277.534C167.916 276.94 168.924 276.94 169.518 277.534C170.148 278.128 170.148 279.136 169.518 279.73C168.924 280.324 167.916 280.324 167.322 279.73Z" fill="#F9D332"/>
<circle cx="121.5" cy="91.5" r="78" fill="#F9D332" stroke="#930345" stroke-width="9"/>
<path d="M89.6891 87.816C86.5531 88.04 86.5531 83.176 89.6891 83.4C91.8971 83.4 93.1771 82.408 93.1771 80.872C93.1771 79.56 92.0251 78.568 90.2331 78.568C88.9211 78.568 87.8331 78.888 86.9691 79.496C85.7851 80.296 84.6331 80.2 83.8651 79.304C83.0971 78.504 83.1611 77.032 84.2811 76.136C85.8811 74.856 87.8331 74.216 90.1051 74.216C92.2811 74.216 94.1371 74.728 95.6411 75.784C97.1771 76.84 97.9451 78.376 97.9451 80.424C97.9451 82.568 97.1131 84.168 95.4491 85.288C97.1451 86.152 98.4891 88.04 98.4891 90.568C98.4891 92.712 97.6891 94.376 96.0891 95.56C94.4891 96.744 92.4731 97.352 90.0411 97.352C87.6731 97.352 85.5931 96.68 83.8331 95.368C82.6491 94.472 82.5851 92.904 83.3851 92.04C84.3131 91.016 85.4011 90.952 86.6491 91.848C87.7051 92.616 88.8891 93 90.2331 93C92.3131 93 93.7531 92.072 93.7531 90.44C93.7531 88.68 92.4091 87.816 89.6891 87.816ZM103.074 85.896L103.426 77.64C103.522 75.624 104.546 74.6 106.466 74.6H115.362C116.802 74.6 117.698 75.528 117.698 76.808C117.698 78.056 116.802 78.984 115.362 78.984H107.97L107.778 83.08C108.802 82.408 110.05 82.056 111.522 82.056C113.602 82.056 115.394 82.728 116.898 84.104C118.402 85.448 119.17 87.24 119.17 89.448C119.17 91.816 118.338 93.736 116.674 95.176C115.042 96.616 112.898 97.352 110.306 97.352C108.034 97.352 106.082 96.776 104.418 95.592C103.138 94.696 103.042 93.16 103.842 92.168C104.642 91.048 105.954 90.888 107.266 91.816C108.322 92.616 109.442 93 110.658 93C112.802 93 114.434 91.656 114.434 89.704C114.434 87.688 112.898 86.216 110.754 86.216C109.442 86.216 108.45 86.696 107.746 87.656C107.266 88.328 106.562 88.68 105.666 88.68C104.162 88.68 103.042 87.592 103.074 85.896ZM127.606 81.896C127.606 83.848 129.046 85.224 130.966 85.224C132.886 85.224 134.326 83.848 134.326 81.896C134.326 79.976 132.886 78.568 130.966 78.568C129.046 78.568 127.606 79.976 127.606 81.896ZM127.67 92.136C128.566 92.712 129.558 93 130.646 93C131.99 93 133.142 92.488 134.07 91.464C134.998 90.408 135.478 89.064 135.51 87.4C134.326 88.776 132.694 89.448 130.646 89.448C128.502 89.448 126.678 88.744 125.142 87.336C123.638 85.928 122.87 84.104 122.87 81.864C122.87 79.56 123.67 77.704 125.238 76.328C126.838 74.92 128.758 74.216 130.998 74.216C133.782 74.216 135.99 75.272 137.59 77.384C139.222 79.464 140.022 82.344 140.022 85.992C140.022 89.416 139.158 92.168 137.43 94.248C135.734 96.328 133.398 97.352 130.454 97.352C128.694 97.352 126.998 96.872 125.43 95.944C124.118 95.176 123.798 93.832 124.438 92.776C125.078 91.656 126.358 91.368 127.67 92.136ZM156.352 89.672C156.352 87.72 154.912 86.344 152.992 86.344C151.072 86.344 149.632 87.72 149.632 89.672C149.632 91.592 151.072 93 152.992 93C154.912 93 156.352 91.592 156.352 89.672ZM156.288 79.432C155.392 78.856 154.4 78.568 153.312 78.568C151.968 78.568 150.816 79.08 149.888 80.136C148.96 81.16 148.48 82.504 148.448 84.168C149.632 82.792 151.264 82.12 153.312 82.12C155.456 82.12 157.28 82.824 158.784 84.232C160.32 85.64 161.088 87.464 161.088 89.704C161.088 92.008 160.288 93.864 158.688 95.272C157.12 96.648 155.2 97.352 152.96 97.352C150.176 97.352 147.968 96.296 146.336 94.216C144.736 92.104 143.936 89.224 143.936 85.576C143.936 82.152 144.8 79.4 146.496 77.32C148.224 75.24 150.56 74.216 153.504 74.216C155.264 74.216 156.96 74.696 158.528 75.624C159.84 76.392 160.16 77.736 159.52 78.792C158.88 79.912 157.6 80.2 156.288 79.432ZM65.2683 115.372V103.206C65.2683 102.128 65.9503 101.468 66.8963 101.468C67.8423 101.468 68.5243 102.128 68.5243 103.206V107.628H74.9923V103.206C74.9923 102.128 75.6743 101.468 76.6203 101.468C77.5663 101.468 78.2483 102.128 78.2483 103.206V115.372C78.2483 116.45 77.5663 117.11 76.6203 117.11C75.6743 117.11 74.9923 116.45 74.9923 115.372V110.62H68.5243V115.372C68.5243 116.45 67.8423 117.11 66.8963 117.11C65.9503 117.11 65.2683 116.45 65.2683 115.372ZM91.0758 107.782V115.438C91.0758 116.472 90.3938 117.11 89.5138 117.11C88.8098 117.11 88.3258 116.78 88.0838 116.142C87.4678 116.868 86.5878 117.242 85.4218 117.242C82.7818 117.242 81.3078 115.548 81.3078 112.49V107.782C81.1758 105.582 84.5638 105.582 84.4318 107.782V112.248C84.4318 113.656 84.9818 114.36 86.0818 114.36C87.4678 114.36 87.9518 113.392 87.9518 111.61V107.782C87.8198 105.582 91.2078 105.582 91.0758 107.782ZM104.124 110.686C104.124 111.83 103.552 112.402 102.386 112.402H96.8641C97.0401 113.568 97.9421 114.382 99.2841 114.382C100.032 114.382 100.67 114.162 101.22 113.722C102.078 113.106 102.87 113.304 103.42 114.03C103.926 114.646 103.772 115.526 102.958 116.164C102.012 116.89 100.802 117.242 99.3721 117.242C97.7221 117.242 96.3801 116.736 95.3021 115.724C94.2241 114.69 93.6961 113.348 93.6961 111.676C93.6961 110.026 94.1801 108.662 95.1701 107.584C96.1601 106.506 97.4361 105.956 98.9981 105.956C100.076 105.956 101.022 106.22 101.836 106.726C103.486 107.76 104.124 109.212 104.124 110.686ZM99.0641 108.706C97.9421 108.706 97.2161 109.366 97.0181 110.312H100.89C100.824 109.41 100.098 108.706 99.0641 108.706ZM100.252 103.69L98.3601 104.57C97.9421 104.768 97.5461 104.746 97.1501 104.504C96.5561 104.13 96.4021 103.294 96.7761 102.744C96.8861 102.568 97.0401 102.436 97.2161 102.326L99.0861 101.094C99.5921 100.764 100.12 100.786 100.67 101.116C101.308 101.534 101.506 102.436 101.066 103.118C100.868 103.382 100.582 103.58 100.252 103.69ZM107.058 116.054C106.332 115.416 106.244 114.58 106.794 113.964C107.388 113.304 108.07 113.282 108.862 113.92C109.456 114.382 110.248 114.624 111.216 114.624C111.898 114.624 112.426 114.382 112.426 113.964C112.426 113.612 112.184 113.436 111.458 113.238L110.248 112.886C107.85 112.204 106.728 111.104 106.728 109.366C106.728 108.332 107.124 107.518 107.938 106.902C108.752 106.264 109.742 105.956 110.908 105.956C112.162 105.956 113.218 106.22 114.098 106.77C114.89 107.298 115.088 108.09 114.67 108.772C114.208 109.476 113.46 109.674 112.602 109.168C112.03 108.794 111.414 108.618 110.776 108.618C110.16 108.618 109.764 108.86 109.764 109.212C109.764 109.542 110.006 109.674 110.534 109.828L111.92 110.202C114.12 110.818 115.462 111.764 115.462 113.766C115.462 115.812 113.702 117.242 110.952 117.242C109.302 117.242 108.004 116.846 107.058 116.054ZM117.966 119.706V107.76C117.966 106.704 118.648 106.088 119.528 106.088C120.276 106.088 120.76 106.418 120.98 107.1C121.53 106.418 122.696 105.956 123.862 105.956C125.38 105.956 126.656 106.484 127.69 107.518C128.724 108.552 129.252 109.916 129.252 111.61C129.252 113.282 128.724 114.646 127.69 115.68C126.656 116.714 125.38 117.242 123.862 117.242C122.74 117.242 121.816 116.934 121.09 116.296V119.706C121.222 121.906 117.834 121.906 117.966 119.706ZM121.75 109.586C121.288 110.114 121.046 110.796 121.046 111.61C121.046 112.424 121.288 113.106 121.75 113.634C122.234 114.162 122.828 114.426 123.554 114.426C124.28 114.426 124.874 114.162 125.336 113.634C125.82 113.106 126.062 112.424 126.062 111.61C126.062 110.796 125.82 110.114 125.336 109.586C124.874 109.058 124.28 108.794 123.554 108.794C122.828 108.794 122.234 109.058 121.75 109.586ZM141.765 110.686C141.765 111.83 141.193 112.402 140.027 112.402H134.505C134.681 113.568 135.583 114.382 136.925 114.382C137.673 114.382 138.311 114.162 138.861 113.722C139.719 113.106 140.511 113.304 141.061 114.03C141.567 114.646 141.413 115.526 140.599 116.164C139.653 116.89 138.443 117.242 137.013 117.242C135.363 117.242 134.021 116.736 132.943 115.724C131.865 114.69 131.337 113.348 131.337 111.676C131.337 110.026 131.821 108.662 132.811 107.584C133.801 106.506 135.077 105.956 136.639 105.956C137.717 105.956 138.663 106.22 139.477 106.726C141.127 107.76 141.765 109.212 141.765 110.686ZM136.705 108.706C135.583 108.706 134.857 109.366 134.659 110.312H138.531C138.465 109.41 137.739 108.706 136.705 108.706ZM155.212 103.162V115.438C155.212 116.472 154.53 117.11 153.65 117.11C152.902 117.11 152.418 116.78 152.198 116.098C151.648 116.78 150.482 117.242 149.316 117.242C147.798 117.242 146.5 116.736 145.466 115.702C144.432 114.668 143.926 113.304 143.926 111.61C143.926 109.938 144.432 108.574 145.466 107.54C146.5 106.484 147.798 105.956 149.316 105.956C150.438 105.956 151.362 106.264 152.088 106.902V103.162C151.956 100.962 155.344 100.962 155.212 103.162ZM151.406 113.634C151.89 113.106 152.132 112.424 152.132 111.61C152.132 110.796 151.89 110.114 151.406 109.586C150.944 109.058 150.35 108.794 149.624 108.794C148.898 108.794 148.304 109.058 147.82 109.586C147.358 110.114 147.116 110.796 147.116 111.61C147.116 112.424 147.358 113.106 147.82 113.634C148.304 114.162 148.898 114.426 149.624 114.426C150.35 114.426 150.944 114.162 151.406 113.634ZM168.233 110.686C168.233 111.83 167.661 112.402 166.495 112.402H160.973C161.149 113.568 162.051 114.382 163.393 114.382C164.141 114.382 164.779 114.162 165.329 113.722C166.187 113.106 166.979 113.304 167.529 114.03C168.035 114.646 167.881 115.526 167.067 116.164C166.121 116.89 164.911 117.242 163.481 117.242C161.831 117.242 160.489 116.736 159.411 115.724C158.333 114.69 157.805 113.348 157.805 111.676C157.805 110.026 158.289 108.662 159.279 107.584C160.269 106.506 161.545 105.956 163.107 105.956C164.185 105.956 165.131 106.22 165.945 106.726C167.595 107.76 168.233 109.212 168.233 110.686ZM163.173 108.706C162.051 108.706 161.325 109.366 161.127 110.312H164.999C164.933 109.41 164.207 108.706 163.173 108.706ZM171.168 116.054C170.442 115.416 170.354 114.58 170.904 113.964C171.498 113.304 172.18 113.282 172.972 113.92C173.566 114.382 174.358 114.624 175.326 114.624C176.008 114.624 176.536 114.382 176.536 113.964C176.536 113.612 176.294 113.436 175.568 113.238L174.358 112.886C171.96 112.204 170.838 111.104 170.838 109.366C170.838 108.332 171.234 107.518 172.048 106.902C172.862 106.264 173.852 105.956 175.018 105.956C176.272 105.956 177.328 106.22 178.208 106.77C179 107.298 179.198 108.09 178.78 108.772C178.318 109.476 177.57 109.674 176.712 109.168C176.14 108.794 175.524 108.618 174.886 108.618C174.27 108.618 173.874 108.86 173.874 109.212C173.874 109.542 174.116 109.674 174.644 109.828L176.03 110.202C178.23 110.818 179.572 111.764 179.572 113.766C179.572 115.812 177.812 117.242 175.062 117.242C173.412 117.242 172.114 116.846 171.168 116.054Z" fill="#930345"/>
</svg>
