<svg width="1440" height="169" viewBox="0 0 1440 169" fill="none" xmlns="http://www.w3.org/2000/svg">
<rect width="1440" height="169" fill="#930345"/>
<path d="M1102 84.5C1102 131.168 1139.83 169 1186.5 169C1233.17 169 1271 131.168 1271 84.5C1271 37.8319 1233.17 -1.65369e-06 1186.5 -3.69361e-06C1139.83 -5.73354e-06 1102 37.8319 1102 84.5Z" fill="#F9D332"/>
<path d="M1440 169V0L1355.63 84.5L1440 169Z" fill="#F9D332"/>
<path d="M1355.5 169V0L1271 84.5L1355.5 169Z" fill="#F9D332"/>
<path d="M340 2.21617e-05L171 0L171 169L340 169L340 2.21617e-05Z" fill="#F9D332"/>
<path d="M480.522 75.416C478.674 73.848 476.462 73.064 473.914 73.064C470.974 73.064 468.538 73.988 466.578 75.864C464.618 77.712 463.638 80.176 463.638 83.228C463.638 86.252 464.618 88.688 466.578 90.536C468.566 92.384 471.058 93.308 474.054 93.308C476.77 93.308 479.038 92.524 480.83 90.928C481.838 90.032 481.922 88.8 481.138 87.988C480.382 87.12 479.262 87.008 478.17 87.876C476.938 88.912 475.538 89.416 473.942 89.416C472.234 89.416 470.806 88.856 469.658 87.736C468.51 86.616 467.922 85.076 467.922 83.144C467.922 81.24 468.51 79.728 469.658 78.636C470.834 77.516 472.178 76.956 473.718 76.956C475.342 76.956 476.714 77.46 477.862 78.468C478.954 79.364 480.074 79.252 480.83 78.356C481.614 77.544 481.53 76.312 480.522 75.416ZM484.201 83.172C484.201 86.112 485.181 88.52 487.113 90.452C489.045 92.356 491.453 93.308 494.281 93.308C497.137 93.308 499.545 92.356 501.505 90.452C503.465 88.52 504.445 86.112 504.445 83.172C504.445 80.26 503.465 77.852 501.505 75.948C499.545 74.016 497.137 73.064 494.281 73.064C491.453 73.064 489.045 74.016 487.113 75.948C485.181 77.852 484.201 80.26 484.201 83.172ZM488.485 83.172C488.485 81.436 489.017 79.98 490.081 78.776C491.173 77.572 492.601 76.984 494.393 76.984C496.101 76.984 497.473 77.6 498.565 78.804C499.657 80.008 500.217 81.464 500.217 83.172C500.217 84.936 499.685 86.392 498.621 87.596C497.585 88.8 496.157 89.388 494.393 89.388C492.573 89.388 491.145 88.8 490.081 87.596C489.017 86.392 488.485 84.936 488.485 83.172ZM519.124 91.32C519.88 92.552 520.636 93.14 522.064 93.14C523.968 93.14 525.116 91.964 525.116 89.92V75.444C525.116 74.072 524.248 73.232 523.044 73.232C521.84 73.232 520.972 74.072 520.972 75.444V86.616L514.028 75.052C513.272 73.82 512.516 73.232 511.088 73.232C509.184 73.232 508.036 74.408 508.036 76.452V90.928C508.036 92.3 508.904 93.14 510.108 93.14C511.312 93.14 512.18 92.3 512.18 90.928V79.756L519.124 91.32ZM532.412 74.8C531.964 73.54 530.9 73.036 529.78 73.372C528.688 73.708 528.1 74.828 528.576 76.06L534.26 91.012C534.792 92.44 535.716 93.14 537.032 93.14C538.292 93.14 539.216 92.412 539.776 90.984L545.432 76.06C545.908 74.828 545.32 73.708 544.228 73.372C543.108 73.036 542.044 73.54 541.596 74.8L537.004 87.372L532.412 74.8ZM548.29 90.928C548.29 92.3 549.158 93.14 550.362 93.14C551.566 93.14 552.434 92.3 552.434 90.928V75.444C552.434 74.072 551.566 73.232 550.362 73.232C549.158 73.232 548.29 74.072 548.29 75.444V90.928ZM569.546 84.88C570.778 84.88 571.562 84.04 571.562 83.004C571.562 81.912 570.778 81.1 569.546 81.1H561.454V77.236H569.994C571.254 77.236 572.038 76.424 572.038 75.332C572.038 74.212 571.254 73.4 569.994 73.4H559.942C558.262 73.4 557.282 74.38 557.282 76.06V90.34C557.282 92.02 558.262 93 559.942 93H569.994C571.254 93 572.038 92.188 572.038 91.096C572.038 89.976 571.254 89.164 569.994 89.164H561.454V84.88H569.546ZM583.678 77.236C586.506 77.236 587.766 78.104 587.766 80.008C587.766 81.94 586.394 82.892 583.678 82.892H580.458V77.236H583.678ZM587.654 91.936C588.466 93.056 589.726 93.392 590.65 92.804C591.658 92.16 591.882 90.9 591.07 89.78L588.046 85.916C590.398 84.796 591.91 82.556 591.91 79.784C591.91 77.796 591.21 76.228 589.81 75.108C588.41 73.96 586.618 73.4 584.406 73.4H578.946C577.266 73.4 576.286 74.38 576.286 76.06V90.928C576.286 92.3 577.154 93.14 578.358 93.14C579.562 93.14 580.458 92.3 580.458 90.928V86.7H583.79L587.654 91.936ZM595.988 73.4C594.728 73.4 593.944 74.212 593.944 75.332C593.944 76.424 594.728 77.236 595.988 77.236H599.824V90.928C599.824 92.3 600.692 93.14 601.896 93.14C603.1 93.14 603.996 92.3 603.996 90.928V77.236H607.86C609.12 77.236 609.904 76.424 609.904 75.332C609.904 74.212 609.12 73.4 607.86 73.4H595.988ZM625.136 84.88C626.368 84.88 627.151 84.04 627.151 83.004C627.151 81.912 626.368 81.1 625.136 81.1H617.044V77.236H625.584C626.844 77.236 627.628 76.424 627.628 75.332C627.628 74.212 626.844 73.4 625.584 73.4H615.532C613.852 73.4 612.872 74.38 612.872 76.06V90.34C612.872 92.02 613.852 93 615.532 93H625.584C626.844 93 627.628 92.188 627.628 91.096C627.628 89.976 626.844 89.164 625.584 89.164H617.044V84.88H625.136ZM632.219 73.4C630.959 73.4 630.175 74.212 630.175 75.332C630.175 76.424 630.959 77.236 632.219 77.236H636.055V90.928C636.055 92.3 636.923 93.14 638.127 93.14C639.331 93.14 640.227 92.3 640.227 90.928V77.236H644.091C645.351 77.236 646.135 76.424 646.135 75.332C646.135 74.212 645.351 73.4 644.091 73.4H632.219ZM661.366 84.88C662.598 84.88 663.382 84.04 663.382 83.004C663.382 81.912 662.598 81.1 661.366 81.1H653.274V77.236H661.814C663.074 77.236 663.858 76.424 663.858 75.332C663.858 74.212 663.074 73.4 661.814 73.4H651.762C650.082 73.4 649.102 74.38 649.102 76.06V90.34C649.102 92.02 650.082 93 651.762 93H661.814C663.074 93 663.858 92.188 663.858 91.096C663.858 89.976 663.074 89.164 661.814 89.164H653.274V84.88H661.366ZM687.889 84.88C689.121 84.88 689.905 84.04 689.905 83.004C689.905 81.912 689.121 81.1 687.889 81.1H679.797V77.236H688.337C689.597 77.236 690.381 76.424 690.381 75.332C690.381 74.212 689.597 73.4 688.337 73.4H678.285C676.605 73.4 675.625 74.38 675.625 76.06V90.34C675.625 92.02 676.605 93 678.285 93H688.337C689.597 93 690.381 92.188 690.381 91.096C690.381 89.976 689.597 89.164 688.337 89.164H679.797V84.88H687.889ZM705.717 91.32C706.473 92.552 707.229 93.14 708.657 93.14C710.561 93.14 711.709 91.964 711.709 89.92V75.444C711.709 74.072 710.841 73.232 709.637 73.232C708.433 73.232 707.565 74.072 707.565 75.444V86.616L700.621 75.052C699.865 73.82 699.109 73.232 697.681 73.232C695.777 73.232 694.629 74.408 694.629 76.452V90.928C694.629 92.3 695.497 93.14 696.701 93.14C697.905 93.14 698.773 92.3 698.773 90.928V79.756L705.717 91.32ZM735.002 91.32C735.758 92.552 736.514 93.14 737.942 93.14C739.846 93.14 740.994 91.964 740.994 89.92V75.444C740.994 74.072 740.126 73.232 738.922 73.232C737.718 73.232 736.85 74.072 736.85 75.444V86.616L729.906 75.052C729.15 73.82 728.394 73.232 726.966 73.232C725.062 73.232 723.914 74.408 723.914 76.452V90.928C723.914 92.3 724.782 93.14 725.986 93.14C727.19 93.14 728.058 92.3 728.058 90.928V79.756L735.002 91.32ZM749.215 75.472C749.215 74.1 748.347 73.26 747.143 73.26C745.939 73.26 745.071 74.1 745.071 75.472V84.292C745.071 90.144 748.151 93.308 753.303 93.308C758.455 93.308 761.535 90.144 761.535 84.292V75.472C761.535 74.1 760.667 73.26 759.463 73.26C758.259 73.26 757.391 74.1 757.391 75.472V84.432C757.391 87.82 756.019 89.5 753.303 89.5C750.615 89.5 749.215 87.484 749.215 84.488V75.472ZM777.85 84.88C779.082 84.88 779.866 84.04 779.866 83.004C779.866 81.912 779.082 81.1 777.85 81.1H769.758V77.236H778.298C779.558 77.236 780.342 76.424 780.342 75.332C780.342 74.212 779.558 73.4 778.298 73.4H768.246C766.566 73.4 765.586 74.38 765.586 76.06V90.34C765.586 92.02 766.566 93 768.246 93H778.298C779.558 93 780.342 92.188 780.342 91.096C780.342 89.976 779.558 89.164 778.298 89.164H769.758V84.88H777.85ZM797.617 74.912C795.909 73.68 793.837 73.064 791.457 73.064C789.469 73.064 787.761 73.596 786.333 74.688C784.905 75.752 784.205 77.18 784.205 79C784.205 82.248 786.557 84.208 790.393 84.908L792.521 85.3C794.341 85.636 795.265 86.336 795.265 87.372C795.265 88.604 793.977 89.5 791.849 89.5C790.197 89.5 788.601 88.912 787.117 87.708C785.997 86.896 784.877 87.12 784.205 88.044C783.449 88.912 783.589 90.2 784.681 91.012C786.753 92.552 789.049 93.308 791.597 93.308C793.949 93.308 795.825 92.748 797.253 91.656C798.681 90.564 799.409 89.108 799.409 87.316C799.409 83.928 797.197 81.884 792.801 81.184L791.149 80.904C789.273 80.568 788.349 79.868 788.349 78.804C788.349 77.656 789.469 76.872 791.233 76.872C792.661 76.872 793.977 77.32 795.181 78.216C796.329 79 797.421 78.804 798.093 77.88C798.849 77.012 798.737 75.696 797.617 74.912ZM803.527 73.4C802.267 73.4 801.483 74.212 801.483 75.332C801.483 76.424 802.267 77.236 803.527 77.236H807.363V90.928C807.363 92.3 808.231 93.14 809.435 93.14C810.639 93.14 811.535 92.3 811.535 90.928V77.236H815.399C816.659 77.236 817.443 76.424 817.443 75.332C817.443 74.212 816.659 73.4 815.399 73.4H803.527ZM827.803 77.236C830.631 77.236 831.891 78.104 831.891 80.008C831.891 81.94 830.519 82.892 827.803 82.892H824.583V77.236H827.803ZM831.779 91.936C832.591 93.056 833.851 93.392 834.775 92.804C835.783 92.16 836.007 90.9 835.195 89.78L832.171 85.916C834.523 84.796 836.035 82.556 836.035 79.784C836.035 77.796 835.335 76.228 833.935 75.108C832.535 73.96 830.743 73.4 828.531 73.4H823.071C821.391 73.4 820.411 74.38 820.411 76.06V90.928C820.411 92.3 821.279 93.14 822.483 93.14C823.687 93.14 824.583 92.3 824.583 90.928V86.7H827.915L831.779 91.936ZM838.685 83.172C838.685 86.112 839.665 88.52 841.597 90.452C843.529 92.356 845.937 93.308 848.765 93.308C851.621 93.308 854.029 92.356 855.989 90.452C857.949 88.52 858.929 86.112 858.929 83.172C858.929 80.26 857.949 77.852 855.989 75.948C854.029 74.016 851.621 73.064 848.765 73.064C845.937 73.064 843.529 74.016 841.597 75.948C839.665 77.852 838.685 80.26 838.685 83.172ZM842.969 83.172C842.969 81.436 843.501 79.98 844.565 78.776C845.657 77.572 847.085 76.984 848.877 76.984C850.585 76.984 851.957 77.6 853.049 78.804C854.141 80.008 854.701 81.464 854.701 83.172C854.701 84.936 854.169 86.392 853.105 87.596C852.069 88.8 850.641 89.388 848.877 89.388C847.057 89.388 845.629 88.8 844.565 87.596C843.501 86.392 842.969 84.936 842.969 83.172ZM881.204 85.44H876.332L878.768 79.028L881.204 85.44ZM870.116 90.396C869.64 91.628 870.228 92.664 871.348 93.028C872.44 93.364 873.476 92.916 873.952 91.656L874.96 89.136H882.548L883.584 91.656C884.116 92.944 884.984 93.392 886.188 93.028C887.308 92.664 887.896 91.628 887.42 90.396L881.428 75.108C880.952 73.876 880.056 73.26 878.74 73.26C877.452 73.26 876.556 73.876 876.08 75.136L870.116 90.396ZM890.876 90.34C890.876 92.02 891.856 93 893.536 93H902.076C903.336 93 904.12 92.188 904.12 91.096C904.12 89.976 903.336 89.164 902.076 89.164H895.02V75.444C895.02 74.072 894.152 73.232 892.948 73.232C891.744 73.232 890.876 74.072 890.876 75.444V90.34ZM907.395 90.928C907.395 92.3 908.263 93.14 909.467 93.14C910.671 93.14 911.539 92.3 911.539 90.928V75.444C911.539 74.072 910.671 73.232 909.467 73.232C908.263 73.232 907.395 74.072 907.395 75.444V90.928ZM926.95 85.44H922.078L924.514 79.028L926.95 85.44ZM915.862 90.396C915.386 91.628 915.974 92.664 917.094 93.028C918.186 93.364 919.222 92.916 919.698 91.656L920.706 89.136H928.294L929.33 91.656C929.862 92.944 930.73 93.392 931.934 93.028C933.054 92.664 933.642 91.628 933.166 90.396L927.174 75.108C926.698 73.876 925.802 73.26 924.486 73.26C923.198 73.26 922.302 73.876 921.826 75.136L915.862 90.396ZM943.062 93C945.834 93 948.382 92.216 950.51 90.732C952.638 89.192 954.01 86.504 954.01 83.06C954.01 79.672 952.638 76.984 950.482 75.556C948.354 74.1 945.862 73.4 943.062 73.4H939.254C937.574 73.4 936.594 74.38 936.594 76.06V90.34C936.594 92.02 937.574 93 939.254 93H943.062ZM942.418 77.236C947.318 77.236 949.782 79.168 949.782 83.06C949.782 87.12 947.346 89.164 942.446 89.164H940.766V77.236H942.418ZM957.111 83.172C957.111 86.112 958.091 88.52 960.023 90.452C961.955 92.356 964.363 93.308 967.191 93.308C970.047 93.308 972.455 92.356 974.415 90.452C976.375 88.52 977.355 86.112 977.355 83.172C977.355 80.26 976.375 77.852 974.415 75.948C972.455 74.016 970.047 73.064 967.191 73.064C964.363 73.064 961.955 74.016 960.023 75.948C958.091 77.852 957.111 80.26 957.111 83.172ZM961.395 83.172C961.395 81.436 961.927 79.98 962.991 78.776C964.083 77.572 965.511 76.984 967.303 76.984C969.011 76.984 970.383 77.6 971.475 78.804C972.567 80.008 973.127 81.464 973.127 83.172C973.127 84.936 972.595 86.392 971.531 87.596C970.495 88.8 969.067 89.388 967.303 89.388C965.483 89.388 964.055 88.8 962.991 87.596C961.927 86.392 961.395 84.936 961.395 83.172Z" fill="white"/>
<path d="M0 169C0 122.327 38.2599 84.4373 85.3881 84.4373C132.516 84.4373 170.776 122.327 170.776 169H0Z" fill="#F9D332"/>
<path d="M0 84.5628C0 37.8901 38.2599 0 85.3881 0C132.516 0 170.776 37.8901 170.776 84.5628L0 84.5628Z" fill="#F9D332"/>
</svg>
