<svg width="245" height="298" viewBox="0 0 245 298" fill="none" xmlns="http://www.w3.org/2000/svg">
<rect width="244.793" height="297.688" fill="#F9D332"/>
<path d="M72.933 220L76.213 228.98L79.493 220C79.813 219.1 80.573 218.74 81.373 218.98C82.153 219.22 82.573 220.02 82.233 220.9L78.193 231.56C77.793 232.58 77.133 233.1 76.233 233.1C75.293 233.1 74.633 232.6 74.253 231.58L70.193 220.9C69.853 220.02 70.273 219.22 71.053 218.98C71.853 218.74 72.613 219.1 72.933 220ZM83.7042 231.76C82.7242 230.78 82.2242 229.56 82.2242 228.1C82.2242 226.64 82.7242 225.42 83.7042 224.44C84.7042 223.46 85.9442 222.96 87.4042 222.96C88.8642 222.96 90.1042 223.46 91.0842 224.44C92.0842 225.42 92.5842 226.64 92.5842 228.1C92.5842 229.56 92.0842 230.78 91.1042 231.76C90.1242 232.74 88.8842 233.22 87.4042 233.22C85.9242 233.22 84.6842 232.74 83.7042 231.76ZM85.7642 226.32C85.3442 226.78 85.1242 227.38 85.1242 228.1C85.1242 228.82 85.3442 229.42 85.7642 229.88C86.1842 230.34 86.7442 230.58 87.4042 230.58C88.0642 230.58 88.6242 230.34 89.0442 229.88C89.4642 229.42 89.6842 228.82 89.6842 228.1C89.6842 227.38 89.4642 226.78 89.0442 226.32C88.6242 225.86 88.0642 225.62 87.4042 225.62C86.7442 225.62 86.1842 225.86 85.7642 226.32ZM97.7922 220.42V231.58C97.9122 233.58 94.8322 233.58 94.9522 231.58V220.42C94.8322 218.42 97.9122 218.42 97.7922 220.42ZM109.354 224.62V231.58C109.354 232.52 108.734 233.1 107.934 233.1C107.294 233.1 106.854 232.8 106.634 232.22C106.074 232.88 105.274 233.22 104.214 233.22C101.814 233.22 100.474 231.68 100.474 228.9V224.62C100.354 222.62 103.434 222.62 103.314 224.62V228.68C103.314 229.96 103.814 230.6 104.814 230.6C106.074 230.6 106.514 229.72 106.514 228.1V224.62C106.394 222.62 109.474 222.62 109.354 224.62ZM112.511 231.58V224.62C112.511 223.68 113.131 223.1 113.931 223.1C114.591 223.1 115.031 223.4 115.251 223.98C115.831 223.3 116.611 222.96 117.631 222.96C120.051 222.96 121.611 224.56 121.611 227.3V231.58C121.611 232.52 121.011 233.1 120.191 233.1C119.371 233.1 118.771 232.52 118.771 231.58V227.52C118.771 226.4 118.251 225.6 117.151 225.6C115.951 225.6 115.351 226.44 115.351 228.1V231.58C115.471 233.58 112.391 233.58 112.511 231.58ZM128.37 230.4C129.27 230.5 129.75 231 129.75 231.74C129.75 232.48 129.21 233.04 128.23 233.04H127.97C125.69 233.04 124.55 231.88 124.55 229.54V225.82H124.19C123.31 225.82 122.77 225.26 122.77 224.52C122.77 223.78 123.31 223.2 124.19 223.2H124.55V221.88C124.43 219.88 127.51 219.88 127.37 221.88V223.2H128.33C129.21 223.2 129.75 223.78 129.75 224.52C129.75 225.26 129.21 225.82 128.33 225.82H127.37V229.2C127.37 230.02 127.71 230.34 128.37 230.4ZM132.62 223.98C133.48 223.3 134.62 222.96 136 222.96C137.22 222.96 138.22 223.32 139 224.02C139.78 224.72 140.16 225.66 140.16 226.88V231.58C140.16 232.52 139.54 233.1 138.74 233.1C138.08 233.1 137.64 232.8 137.42 232.2C136.74 232.88 135.9 233.22 134.92 233.22C133.94 233.22 133.16 232.94 132.54 232.38C131.92 231.8 131.62 231.08 131.62 230.2C131.62 229.18 131.98 228.42 132.72 227.9C133.46 227.38 134.4 227.1 135.5 227.06L137.3 226.98C137.3 225.98 136.8 225.48 135.8 225.48C135.2 225.48 134.66 225.64 134.16 225.98C133.42 226.48 132.7 226.42 132.28 225.86C131.82 225.32 131.96 224.52 132.62 223.98ZM134.48 230.04C134.48 230.52 134.9 230.82 135.62 230.82C136.2 230.82 136.76 230.62 137.3 230.22V229.06L136.04 229.16C135 229.22 134.48 229.5 134.48 230.04ZM149.155 223.14C149.795 223.3 150.275 223.8 150.275 224.54C150.275 225.32 149.735 225.86 149.035 225.86C148.895 225.86 148.595 225.82 148.415 225.82C147.055 225.82 146.015 226.92 146.015 228.9V231.58C146.135 233.58 143.055 233.58 143.175 231.58V224.62C143.175 223.68 143.795 223.1 144.595 223.1C145.335 223.1 145.875 223.58 145.975 224.28C146.535 223.5 147.495 223.06 148.355 223.06C148.695 223.06 148.955 223.08 149.155 223.14ZM151.746 220.42C151.746 219.48 152.486 218.76 153.386 218.76C154.326 218.76 155.046 219.48 155.046 220.42C155.046 221.32 154.286 222.06 153.386 222.06C152.486 222.06 151.746 221.32 151.746 220.42ZM154.806 231.58C154.806 232.52 154.206 233.1 153.386 233.1C152.566 233.1 151.966 232.52 151.966 231.58V224.62C151.966 223.68 152.566 223.1 153.386 223.1C154.206 223.1 154.806 223.68 154.806 224.62V231.58ZM158.763 231.76C157.783 230.78 157.283 229.56 157.283 228.1C157.283 226.64 157.783 225.42 158.763 224.44C159.763 223.46 161.003 222.96 162.463 222.96C163.923 222.96 165.163 223.46 166.143 224.44C167.143 225.42 167.643 226.64 167.643 228.1C167.643 229.56 167.143 230.78 166.163 231.76C165.183 232.74 163.943 233.22 162.463 233.22C160.983 233.22 159.743 232.74 158.763 231.76ZM160.823 226.32C160.403 226.78 160.183 227.38 160.183 228.1C160.183 228.82 160.403 229.42 160.823 229.88C161.243 230.34 161.803 230.58 162.463 230.58C163.123 230.58 163.683 230.34 164.103 229.88C164.523 229.42 164.743 228.82 164.743 228.1C164.743 227.38 164.523 226.78 164.103 226.32C163.683 225.86 163.123 225.62 162.463 225.62C161.803 225.62 161.243 225.86 160.823 226.32ZM170.251 232.14C169.591 231.56 169.511 230.8 170.011 230.24C170.551 229.64 171.171 229.62 171.891 230.2C172.431 230.62 173.151 230.84 174.031 230.84C174.651 230.84 175.131 230.62 175.131 230.24C175.131 229.92 174.911 229.76 174.251 229.58L173.151 229.26C170.971 228.64 169.951 227.64 169.951 226.06C169.951 225.12 170.311 224.38 171.051 223.82C171.791 223.24 172.691 222.96 173.751 222.96C174.891 222.96 175.851 223.2 176.651 223.7C177.371 224.18 177.551 224.9 177.171 225.52C176.751 226.16 176.071 226.34 175.291 225.88C174.771 225.54 174.211 225.38 173.631 225.38C173.071 225.38 172.711 225.6 172.711 225.92C172.711 226.22 172.931 226.34 173.411 226.48L174.671 226.82C176.671 227.38 177.891 228.24 177.891 230.06C177.891 231.92 176.291 233.22 173.791 233.22C172.291 233.22 171.111 232.86 170.251 232.14ZM64.8155 255.58V248.62C64.8155 247.68 65.4355 247.1 66.2355 247.1C66.8955 247.1 67.3355 247.4 67.5555 247.98C68.1355 247.3 68.9555 246.96 69.9755 246.96C71.1155 246.96 72.0155 247.36 72.6955 248.14C73.4755 247.36 74.4555 246.96 75.6355 246.96C78.2555 246.96 79.7355 248.52 79.7355 251.3V255.58C79.8555 257.58 76.7755 257.58 76.8955 255.58V251.42C76.8955 250.32 76.3755 249.6 75.3955 249.6C74.3355 249.6 73.6955 250.42 73.6955 251.78V255.58C73.8155 257.58 70.7355 257.58 70.8555 255.58V251.42C70.8555 250.32 70.3355 249.6 69.3555 249.6C68.2355 249.6 67.6555 250.46 67.6555 251.98V255.58C67.7755 257.58 64.6955 257.58 64.8155 255.58ZM83.3527 255.76C82.3727 254.78 81.8727 253.56 81.8727 252.1C81.8727 250.64 82.3727 249.42 83.3527 248.44C84.3527 247.46 85.5927 246.96 87.0527 246.96C88.5127 246.96 89.7527 247.46 90.7327 248.44C91.7327 249.42 92.2327 250.64 92.2327 252.1C92.2327 253.56 91.7327 254.78 90.7527 255.76C89.7727 256.74 88.5327 257.22 87.0527 257.22C85.5727 257.22 84.3327 256.74 83.3527 255.76ZM85.4127 250.32C84.9927 250.78 84.7727 251.38 84.7727 252.1C84.7727 252.82 84.9927 253.42 85.4127 253.88C85.8327 254.34 86.3927 254.58 87.0527 254.58C87.7127 254.58 88.2727 254.34 88.6927 253.88C89.1127 253.42 89.3327 252.82 89.3327 252.1C89.3327 251.38 89.1127 250.78 88.6927 250.32C88.2727 249.86 87.7127 249.62 87.0527 249.62C86.3927 249.62 85.8327 249.86 85.4127 250.32ZM102.889 249.1L100.289 255.6C99.9286 256.62 99.2686 257.12 98.3286 257.12C97.4286 257.12 96.7886 256.62 96.3686 255.6L93.7486 249.1C93.4086 248.22 93.8086 247.4 94.6086 247.16C95.3886 246.92 96.1286 247.34 96.4286 248.24L98.3286 253.26L100.229 248.24C100.529 247.34 101.309 246.92 102.089 247.16C102.869 247.4 103.229 248.2 102.889 249.1ZM104.676 244.42C104.676 243.48 105.416 242.76 106.316 242.76C107.256 242.76 107.976 243.48 107.976 244.42C107.976 245.32 107.216 246.06 106.316 246.06C105.416 246.06 104.676 245.32 104.676 244.42ZM107.736 255.58C107.736 256.52 107.136 257.1 106.316 257.1C105.496 257.1 104.896 256.52 104.896 255.58V248.62C104.896 247.68 105.496 247.1 106.316 247.1C107.136 247.1 107.736 247.68 107.736 248.62V255.58ZM113.827 244.42V255.58C113.947 257.58 110.867 257.58 110.987 255.58V244.42C110.867 242.42 113.947 242.42 113.827 244.42ZM116.844 244.42C116.844 243.48 117.584 242.76 118.484 242.76C119.424 242.76 120.144 243.48 120.144 244.42C120.144 245.32 119.384 246.06 118.484 246.06C117.584 246.06 116.844 245.32 116.844 244.42ZM119.904 255.58C119.904 256.52 119.304 257.1 118.484 257.1C117.664 257.1 117.064 256.52 117.064 255.58V248.62C117.064 247.68 117.664 247.1 118.484 247.1C119.304 247.1 119.904 247.68 119.904 248.62V255.58ZM129.78 257H124C123.06 257 122.5 256.4 122.5 255.54C122.5 255.16 122.62 254.84 122.86 254.56L126.94 249.76H124C122.2 249.9 122.16 247.06 124 247.2H129.44C130.38 247.2 130.94 247.8 130.94 248.66C130.94 249.04 130.82 249.36 130.58 249.64L126.42 254.44H129.78C131.6 254.3 131.6 257.14 129.78 257ZM134.144 247.98C135.004 247.3 136.144 246.96 137.524 246.96C138.744 246.96 139.744 247.32 140.524 248.02C141.304 248.72 141.684 249.66 141.684 250.88V255.58C141.684 256.52 141.064 257.1 140.264 257.1C139.604 257.1 139.164 256.8 138.944 256.2C138.264 256.88 137.424 257.22 136.444 257.22C135.464 257.22 134.684 256.94 134.064 256.38C133.444 255.8 133.144 255.08 133.144 254.2C133.144 253.18 133.504 252.42 134.244 251.9C134.984 251.38 135.924 251.1 137.024 251.06L138.824 250.98C138.824 249.98 138.324 249.48 137.324 249.48C136.724 249.48 136.184 249.64 135.684 249.98C134.944 250.48 134.224 250.42 133.804 249.86C133.344 249.32 133.484 248.52 134.144 247.98ZM136.004 254.04C136.004 254.52 136.424 254.82 137.144 254.82C137.724 254.82 138.284 254.62 138.824 254.22V253.06L137.564 253.16C136.524 253.22 136.004 253.5 136.004 254.04ZM154.163 244.42V255.58C154.163 256.52 153.543 257.1 152.743 257.1C152.063 257.1 151.623 256.8 151.423 256.18C150.923 256.8 149.863 257.22 148.803 257.22C147.423 257.22 146.243 256.76 145.303 255.82C144.363 254.88 143.903 253.64 143.903 252.1C143.903 250.58 144.363 249.34 145.303 248.4C146.243 247.44 147.423 246.96 148.803 246.96C149.823 246.96 150.663 247.24 151.323 247.82V244.42C151.203 242.42 154.283 242.42 154.163 244.42ZM150.703 253.94C151.143 253.46 151.363 252.84 151.363 252.1C151.363 251.36 151.143 250.74 150.703 250.26C150.283 249.78 149.743 249.54 149.083 249.54C148.423 249.54 147.883 249.78 147.443 250.26C147.023 250.74 146.803 251.36 146.803 252.1C146.803 252.84 147.023 253.46 147.443 253.94C147.883 254.42 148.423 254.66 149.083 254.66C149.743 254.66 150.283 254.42 150.703 253.94ZM158.001 255.76C157.021 254.78 156.521 253.56 156.521 252.1C156.521 250.64 157.021 249.42 158.001 248.44C159.001 247.46 160.241 246.96 161.701 246.96C163.161 246.96 164.401 247.46 165.381 248.44C166.381 249.42 166.881 250.64 166.881 252.1C166.881 253.56 166.381 254.78 165.401 255.76C164.421 256.74 163.181 257.22 161.701 257.22C160.221 257.22 158.981 256.74 158.001 255.76ZM160.061 250.32C159.641 250.78 159.421 251.38 159.421 252.1C159.421 252.82 159.641 253.42 160.061 253.88C160.481 254.34 161.041 254.58 161.701 254.58C162.361 254.58 162.921 254.34 163.341 253.88C163.761 253.42 163.981 252.82 163.981 252.1C163.981 251.38 163.761 250.78 163.341 250.32C162.921 249.86 162.361 249.62 161.701 249.62C161.041 249.62 160.481 249.86 160.061 250.32ZM169.489 256.14C168.829 255.56 168.749 254.8 169.249 254.24C169.789 253.64 170.409 253.62 171.129 254.2C171.669 254.62 172.389 254.84 173.269 254.84C173.889 254.84 174.369 254.62 174.369 254.24C174.369 253.92 174.149 253.76 173.489 253.58L172.389 253.26C170.209 252.64 169.189 251.64 169.189 250.06C169.189 249.12 169.549 248.38 170.289 247.82C171.029 247.24 171.929 246.96 172.989 246.96C174.129 246.96 175.089 247.2 175.889 247.7C176.609 248.18 176.789 248.9 176.409 249.52C175.989 250.16 175.309 250.34 174.529 249.88C174.009 249.54 173.449 249.38 172.869 249.38C172.309 249.38 171.949 249.6 171.949 249.92C171.949 250.22 172.169 250.34 172.649 250.48L173.909 250.82C175.909 251.38 177.129 252.24 177.129 254.06C177.129 255.92 175.529 257.22 173.029 257.22C171.529 257.22 170.349 256.86 169.489 256.14ZM179.893 256.7C179.253 256.04 179.253 254.92 179.893 254.26C180.553 253.6 181.673 253.6 182.333 254.26C183.033 254.92 183.033 256.04 182.333 256.7C181.673 257.36 180.553 257.36 179.893 256.7Z" fill="#930345"/>
<path d="M199.5 105.5C199.5 148.578 164.578 183.5 121.5 183.5C78.4218 183.5 43.5 148.578 43.5 105.5C43.5 62.4218 78.4218 27.5 121.5 27.5C164.578 27.5 199.5 62.4218 199.5 105.5Z" fill="white" stroke="white" stroke-width="9"/>
<path d="M86.4986 97.464V101.08H90.3386C91.7786 101.08 92.5786 101.944 92.5786 103.128C92.5786 104.376 91.7786 105.176 90.3386 105.176H86.4986V108.856C86.4986 110.296 85.6346 111.16 84.3866 111.16C83.2026 111.16 82.2746 110.264 82.2746 108.856V105.176H78.4986C77.0906 105.176 76.2586 104.376 76.2586 103.128C76.2586 101.976 77.0906 101.08 78.4986 101.08H82.2746V97.464C82.2746 95.96 83.2026 95.16 84.3866 95.16C85.6346 95.16 86.4986 95.96 86.4986 97.464ZM96.9691 107.96C96.9691 104.408 99.4011 101.272 104.233 98.552L105.481 97.848C107.689 96.6 108.265 95.864 108.265 94.808C108.265 93.432 107.081 92.568 105.161 92.568C104.041 92.568 102.825 93.112 101.577 94.2C100.521 95.096 99.0171 95.256 98.1531 94.456C97.2891 93.656 97.3211 92.248 98.3451 91.192C99.1451 90.328 100.201 89.624 101.481 89.08C102.761 88.504 104.009 88.216 105.257 88.216C107.465 88.216 109.289 88.792 110.793 89.976C112.297 91.128 113.033 92.728 113.033 94.744C113.033 96.376 112.553 97.688 111.497 98.808C110.473 99.864 109.449 100.6 107.689 101.624L105.737 102.744C103.593 103.992 102.537 104.952 102.185 106.616H110.921C112.425 106.616 113.257 107.544 113.257 108.824C113.257 110.072 112.425 111 110.921 111H100.009C98.0891 111 96.9691 109.88 96.9691 107.96ZM129.119 105.08C129.855 103.768 130.207 102.008 130.207 99.768C130.207 97.528 129.855 95.768 129.119 94.488C128.415 93.208 127.391 92.568 126.047 92.568C124.703 92.568 123.679 93.208 122.943 94.488C122.239 95.768 121.887 97.528 121.887 99.768C121.887 102.008 122.239 103.768 122.943 105.08C123.679 106.36 124.703 107 126.047 107C127.391 107 128.415 106.36 129.119 105.08ZM134.943 99.768C134.943 103.224 134.143 106.008 132.575 108.152C131.007 110.296 128.831 111.352 126.047 111.352C123.263 111.352 121.087 110.296 119.519 108.152C117.951 106.008 117.151 103.224 117.151 99.768C117.151 96.312 117.951 93.528 119.519 91.416C121.087 89.272 123.263 88.216 126.047 88.216C128.831 88.216 131.007 89.272 132.575 91.416C134.143 93.56 134.943 96.344 134.943 99.768ZM150.494 105.08C151.23 103.768 151.582 102.008 151.582 99.768C151.582 97.528 151.23 95.768 150.494 94.488C149.79 93.208 148.766 92.568 147.422 92.568C146.078 92.568 145.054 93.208 144.318 94.488C143.614 95.768 143.262 97.528 143.262 99.768C143.262 102.008 143.614 103.768 144.318 105.08C145.054 106.36 146.078 107 147.422 107C148.766 107 149.79 106.36 150.494 105.08ZM156.318 99.768C156.318 103.224 155.518 106.008 153.95 108.152C152.382 110.296 150.206 111.352 147.422 111.352C144.638 111.352 142.462 110.296 140.894 108.152C139.326 106.008 138.526 103.224 138.526 99.768C138.526 96.312 139.326 93.528 140.894 91.416C142.462 89.272 144.638 88.216 147.422 88.216C150.206 88.216 152.382 89.272 153.95 91.416C155.518 93.56 156.318 96.344 156.318 99.768Z" fill="#930345"/>
</svg>
