<svg width="245" height="298" viewBox="0 0 245 298" fill="none" xmlns="http://www.w3.org/2000/svg">
<rect width="244.793" height="297.688" fill="#F9D332"/>
<path d="M82.0355 233H79.3155C78.1155 233 77.4155 232.3 77.4155 231.1V220.9C77.4155 219.7 78.1155 219 79.3155 219H82.0355C84.0355 219 85.8155 219.5 87.3355 220.54C88.8755 221.56 89.8555 223.48 89.8555 225.9C89.8555 228.36 88.8755 230.28 87.3555 231.38C85.8355 232.44 84.0155 233 82.0355 233ZM81.5755 221.74H80.3955V230.26H81.5955C85.0955 230.26 86.8355 228.8 86.8355 225.9C86.8355 223.12 85.0755 221.74 81.5755 221.74ZM101.235 227.26C101.235 228.3 100.715 228.82 99.6555 228.82H94.6355C94.7955 229.88 95.6155 230.62 96.8355 230.62C97.5155 230.62 98.0955 230.42 98.5955 230.02C99.3755 229.46 100.095 229.64 100.595 230.3C101.055 230.86 100.915 231.66 100.175 232.24C99.3155 232.9 98.2155 233.22 96.9155 233.22C95.4155 233.22 94.1955 232.76 93.2155 231.84C92.2355 230.9 91.7555 229.68 91.7555 228.16C91.7555 226.66 92.1955 225.42 93.0955 224.44C93.9955 223.46 95.1555 222.96 96.5755 222.96C97.5555 222.96 98.4155 223.2 99.1555 223.66C100.655 224.6 101.235 225.92 101.235 227.26ZM96.6355 225.46C95.6155 225.46 94.9555 226.06 94.7755 226.92H98.2955C98.2355 226.1 97.5755 225.46 96.6355 225.46ZM109.749 223.98C110.609 223.3 111.749 222.96 113.129 222.96C114.349 222.96 115.349 223.32 116.129 224.02C116.909 224.72 117.289 225.66 117.289 226.88V231.58C117.289 232.52 116.669 233.1 115.869 233.1C115.209 233.1 114.769 232.8 114.549 232.2C113.869 232.88 113.029 233.22 112.049 233.22C111.069 233.22 110.289 232.94 109.669 232.38C109.049 231.8 108.749 231.08 108.749 230.2C108.749 229.18 109.109 228.42 109.849 227.9C110.589 227.38 111.529 227.1 112.629 227.06L114.429 226.98C114.429 225.98 113.929 225.48 112.929 225.48C112.329 225.48 111.789 225.64 111.289 225.98C110.549 226.48 109.829 226.42 109.409 225.86C108.949 225.32 109.089 224.52 109.749 223.98ZM111.609 230.04C111.609 230.52 112.029 230.82 112.749 230.82C113.329 230.82 113.889 230.62 114.429 230.22V229.06L113.169 229.16C112.129 229.22 111.609 229.5 111.609 230.04ZM120.304 231.58V220.42C120.184 218.42 123.264 218.42 123.144 220.42V223.8C123.684 223.24 124.444 222.96 125.424 222.96C127.844 222.96 129.404 224.56 129.404 227.3V231.58C129.404 232.52 128.804 233.1 127.984 233.1C127.164 233.1 126.564 232.52 126.564 231.58V227.52C126.564 226.4 126.044 225.6 124.944 225.6C123.744 225.6 123.144 226.36 123.144 227.88V231.58C123.264 233.58 120.184 233.58 120.304 231.58ZM133.021 231.76C132.041 230.78 131.541 229.56 131.541 228.1C131.541 226.64 132.041 225.42 133.021 224.44C134.021 223.46 135.261 222.96 136.721 222.96C138.181 222.96 139.421 223.46 140.401 224.44C141.401 225.42 141.901 226.64 141.901 228.1C141.901 229.56 141.401 230.78 140.421 231.76C139.441 232.74 138.201 233.22 136.721 233.22C135.241 233.22 134.001 232.74 133.021 231.76ZM135.081 226.32C134.661 226.78 134.441 227.38 134.441 228.1C134.441 228.82 134.661 229.42 135.081 229.88C135.501 230.34 136.061 230.58 136.721 230.58C137.381 230.58 137.941 230.34 138.361 229.88C138.781 229.42 139.001 228.82 139.001 228.1C139.001 227.38 138.781 226.78 138.361 226.32C137.941 225.86 137.381 225.62 136.721 225.62C136.061 225.62 135.501 225.86 135.081 226.32ZM150.249 223.14C150.889 223.3 151.369 223.8 151.369 224.54C151.369 225.32 150.829 225.86 150.129 225.86C149.989 225.86 149.689 225.82 149.509 225.82C148.149 225.82 147.109 226.92 147.109 228.9V231.58C147.229 233.58 144.149 233.58 144.269 231.58V224.62C144.269 223.68 144.889 223.1 145.689 223.1C146.429 223.1 146.969 223.58 147.069 224.28C147.629 223.5 148.589 223.06 149.449 223.06C149.789 223.06 150.049 223.08 150.249 223.14ZM158.94 223.14C159.58 223.3 160.06 223.8 160.06 224.54C160.06 225.32 159.52 225.86 158.82 225.86C158.68 225.86 158.38 225.82 158.2 225.82C156.84 225.82 155.8 226.92 155.8 228.9V231.58C155.92 233.58 152.84 233.58 152.96 231.58V224.62C152.96 223.68 153.58 223.1 154.38 223.1C155.12 223.1 155.66 223.58 155.76 224.28C156.32 223.5 157.28 223.06 158.14 223.06C158.48 223.06 158.74 223.08 158.94 223.14ZM162.357 231.76C161.377 230.78 160.877 229.56 160.877 228.1C160.877 226.64 161.377 225.42 162.357 224.44C163.357 223.46 164.597 222.96 166.057 222.96C167.517 222.96 168.757 223.46 169.737 224.44C170.737 225.42 171.237 226.64 171.237 228.1C171.237 229.56 170.737 230.78 169.757 231.76C168.777 232.74 167.537 233.22 166.057 233.22C164.577 233.22 163.337 232.74 162.357 231.76ZM164.417 226.32C163.997 226.78 163.777 227.38 163.777 228.1C163.777 228.82 163.997 229.42 164.417 229.88C164.837 230.34 165.397 230.58 166.057 230.58C166.717 230.58 167.277 230.34 167.697 229.88C168.117 229.42 168.337 228.82 168.337 228.1C168.337 227.38 168.117 226.78 167.697 226.32C167.277 225.86 166.717 225.62 166.057 225.62C165.397 225.62 164.837 225.86 164.417 226.32ZM46.202 251.88C46.202 250.5 45.242 249.54 44.022 249.54C42.822 249.54 41.862 250.5 41.862 251.88C41.862 253.24 42.822 254.2 44.022 254.2C45.242 254.2 46.202 253.24 46.202 251.88ZM40.142 260.02C39.402 259.46 39.402 258.54 39.942 257.98C40.442 257.44 41.122 257.42 41.982 257.96C42.562 258.3 43.122 258.48 43.682 258.48C45.182 258.48 46.142 257.6 46.142 256.3V256.04C45.582 256.54 44.782 256.78 43.762 256.78C42.362 256.78 41.202 256.34 40.302 255.46C39.402 254.58 38.962 253.38 38.962 251.88C38.962 250.36 39.422 249.16 40.362 248.28C41.302 247.4 42.422 246.96 43.762 246.96C44.802 246.96 45.642 247.3 46.262 248C46.462 247.38 46.902 247.08 47.582 247.08C48.402 247.08 49.002 247.64 49.002 248.6V255.98C49.002 257.5 48.522 258.74 47.582 259.68C46.642 260.62 45.362 261.1 43.702 261.1C42.302 261.1 41.122 260.74 40.142 260.02ZM60.8253 251.26C60.8253 252.3 60.3053 252.82 59.2453 252.82H54.2253C54.3853 253.88 55.2053 254.62 56.4253 254.62C57.1053 254.62 57.6853 254.42 58.1853 254.02C58.9653 253.46 59.6853 253.64 60.1853 254.3C60.6453 254.86 60.5053 255.66 59.7653 256.24C58.9053 256.9 57.8053 257.22 56.5053 257.22C55.0053 257.22 53.7853 256.76 52.8053 255.84C51.8253 254.9 51.3453 253.68 51.3453 252.16C51.3453 250.66 51.7853 249.42 52.6853 248.44C53.5853 247.46 54.7453 246.96 56.1653 246.96C57.1453 246.96 58.0053 247.2 58.7453 247.66C60.2453 248.6 60.8253 249.92 60.8253 251.26ZM56.2253 249.46C55.2053 249.46 54.5453 250.06 54.3653 250.92H57.8853C57.8253 250.1 57.1653 249.46 56.2253 249.46ZM63.253 255.58V248.62C63.253 247.68 63.873 247.1 64.673 247.1C65.333 247.1 65.773 247.4 65.993 247.98C66.573 247.3 67.353 246.96 68.373 246.96C70.793 246.96 72.353 248.56 72.353 251.3V255.58C72.353 256.52 71.753 257.1 70.933 257.1C70.113 257.1 69.513 256.52 69.513 255.58V251.52C69.513 250.4 68.993 249.6 67.893 249.6C66.693 249.6 66.093 250.44 66.093 252.1V255.58C66.213 257.58 63.133 257.58 63.253 255.58ZM83.9698 251.26C83.9698 252.3 83.4498 252.82 82.3898 252.82H77.3698C77.5298 253.88 78.3498 254.62 79.5698 254.62C80.2498 254.62 80.8298 254.42 81.3298 254.02C82.1098 253.46 82.8298 253.64 83.3298 254.3C83.7898 254.86 83.6498 255.66 82.9098 256.24C82.0498 256.9 80.9498 257.22 79.6498 257.22C78.1498 257.22 76.9298 256.76 75.9498 255.84C74.9698 254.9 74.4898 253.68 74.4898 252.16C74.4898 250.66 74.9298 249.42 75.8298 248.44C76.7298 247.46 77.8898 246.96 79.3098 246.96C80.2898 246.96 81.1498 247.2 81.8898 247.66C83.3898 248.6 83.9698 249.92 83.9698 251.26ZM79.3698 249.46C78.3498 249.46 77.6898 250.06 77.5098 250.92H81.0298C80.9698 250.1 80.3098 249.46 79.3698 249.46ZM92.3775 247.14C93.0175 247.3 93.4975 247.8 93.4975 248.54C93.4975 249.32 92.9575 249.86 92.2575 249.86C92.1175 249.86 91.8175 249.82 91.6375 249.82C90.2775 249.82 89.2375 250.92 89.2375 252.9V255.58C89.3575 257.58 86.2775 257.58 86.3975 255.58V248.62C86.3975 247.68 87.0175 247.1 87.8175 247.1C88.5575 247.1 89.0975 247.58 89.1975 248.28C89.7575 247.5 90.7175 247.06 91.5775 247.06C91.9175 247.06 92.1775 247.08 92.3775 247.14ZM95.3741 247.98C96.2341 247.3 97.3741 246.96 98.7541 246.96C99.9741 246.96 100.974 247.32 101.754 248.02C102.534 248.72 102.914 249.66 102.914 250.88V255.58C102.914 256.52 102.294 257.1 101.494 257.1C100.834 257.1 100.394 256.8 100.174 256.2C99.4941 256.88 98.6541 257.22 97.6741 257.22C96.6941 257.22 95.9141 256.94 95.2941 256.38C94.6741 255.8 94.3741 255.08 94.3741 254.2C94.3741 253.18 94.7341 252.42 95.4741 251.9C96.2141 251.38 97.1541 251.1 98.2541 251.06L100.054 250.98C100.054 249.98 99.5541 249.48 98.5541 249.48C97.9541 249.48 97.4141 249.64 96.9141 249.98C96.1741 250.48 95.4541 250.42 95.0341 249.86C94.5741 249.32 94.7141 248.52 95.3741 247.98ZM97.2341 254.04C97.2341 254.52 97.6541 254.82 98.3741 254.82C98.9541 254.82 99.5141 254.62 100.054 254.22V253.06L98.7941 253.16C97.7541 253.22 97.2341 253.5 97.2341 254.04ZM115.394 244.42V255.58C115.394 256.52 114.774 257.1 113.974 257.1C113.294 257.1 112.854 256.8 112.654 256.18C112.154 256.8 111.094 257.22 110.034 257.22C108.654 257.22 107.474 256.76 106.534 255.82C105.594 254.88 105.134 253.64 105.134 252.1C105.134 250.58 105.594 249.34 106.534 248.4C107.474 247.44 108.654 246.96 110.034 246.96C111.054 246.96 111.894 247.24 112.554 247.82V244.42C112.434 242.42 115.514 242.42 115.394 244.42ZM111.934 253.94C112.374 253.46 112.594 252.84 112.594 252.1C112.594 251.36 112.374 250.74 111.934 250.26C111.514 249.78 110.974 249.54 110.314 249.54C109.654 249.54 109.114 249.78 108.674 250.26C108.254 250.74 108.034 251.36 108.034 252.1C108.034 252.84 108.254 253.46 108.674 253.94C109.114 254.42 109.654 254.66 110.314 254.66C110.974 254.66 111.514 254.42 111.934 253.94ZM119.232 255.76C118.252 254.78 117.752 253.56 117.752 252.1C117.752 250.64 118.252 249.42 119.232 248.44C120.232 247.46 121.472 246.96 122.932 246.96C124.392 246.96 125.632 247.46 126.612 248.44C127.612 249.42 128.112 250.64 128.112 252.1C128.112 253.56 127.612 254.78 126.632 255.76C125.652 256.74 124.412 257.22 122.932 257.22C121.452 257.22 120.212 256.74 119.232 255.76ZM121.292 250.32C120.872 250.78 120.652 251.38 120.652 252.1C120.652 252.82 120.872 253.42 121.292 253.88C121.712 254.34 122.272 254.58 122.932 254.58C123.592 254.58 124.152 254.34 124.572 253.88C124.992 253.42 125.212 252.82 125.212 252.1C125.212 251.38 124.992 250.78 124.572 250.32C124.152 249.86 123.592 249.62 122.932 249.62C122.272 249.62 121.712 249.86 121.292 250.32ZM136.065 259.46V248.6C136.065 247.64 136.685 247.08 137.485 247.08C138.165 247.08 138.605 247.38 138.805 248C139.305 247.38 140.365 246.96 141.425 246.96C142.805 246.96 143.965 247.44 144.905 248.38C145.845 249.32 146.325 250.56 146.325 252.1C146.325 253.62 145.845 254.86 144.905 255.8C143.965 256.74 142.805 257.22 141.425 257.22C140.405 257.22 139.565 256.94 138.905 256.36V259.46C139.025 261.46 135.945 261.46 136.065 259.46ZM139.505 250.26C139.085 250.74 138.865 251.36 138.865 252.1C138.865 252.84 139.085 253.46 139.505 253.94C139.945 254.42 140.485 254.66 141.145 254.66C141.805 254.66 142.345 254.42 142.765 253.94C143.205 253.46 143.425 252.84 143.425 252.1C143.425 251.36 143.205 250.74 142.765 250.26C142.345 249.78 141.805 249.54 141.145 249.54C140.485 249.54 139.945 249.78 139.505 250.26ZM149.163 247.98C150.023 247.3 151.163 246.96 152.543 246.96C153.763 246.96 154.763 247.32 155.543 248.02C156.323 248.72 156.703 249.66 156.703 250.88V255.58C156.703 256.52 156.083 257.1 155.283 257.1C154.623 257.1 154.183 256.8 153.963 256.2C153.283 256.88 152.443 257.22 151.463 257.22C150.483 257.22 149.703 256.94 149.083 256.38C148.463 255.8 148.163 255.08 148.163 254.2C148.163 253.18 148.523 252.42 149.263 251.9C150.003 251.38 150.943 251.1 152.043 251.06L153.843 250.98C153.843 249.98 153.343 249.48 152.343 249.48C151.743 249.48 151.203 249.64 150.703 249.98C149.963 250.48 149.243 250.42 148.823 249.86C148.363 249.32 148.503 248.52 149.163 247.98ZM151.023 254.04C151.023 254.52 151.443 254.82 152.163 254.82C152.743 254.82 153.303 254.62 153.843 254.22V253.06L152.583 253.16C151.543 253.22 151.023 253.5 151.023 254.04ZM165.698 247.14C166.338 247.3 166.818 247.8 166.818 248.54C166.818 249.32 166.278 249.86 165.578 249.86C165.438 249.86 165.138 249.82 164.958 249.82C163.598 249.82 162.558 250.92 162.558 252.9V255.58C162.678 257.58 159.598 257.58 159.718 255.58V248.62C159.718 247.68 160.338 247.1 161.138 247.1C161.878 247.1 162.418 247.58 162.518 248.28C163.078 247.5 164.038 247.06 164.898 247.06C165.238 247.06 165.498 247.08 165.698 247.14ZM168.694 247.98C169.554 247.3 170.694 246.96 172.074 246.96C173.294 246.96 174.294 247.32 175.074 248.02C175.854 248.72 176.234 249.66 176.234 250.88V255.58C176.234 256.52 175.614 257.1 174.814 257.1C174.154 257.1 173.714 256.8 173.494 256.2C172.814 256.88 171.974 257.22 170.994 257.22C170.014 257.22 169.234 256.94 168.614 256.38C167.994 255.8 167.694 255.08 167.694 254.2C167.694 253.18 168.054 252.42 168.794 251.9C169.534 251.38 170.474 251.1 171.574 251.06L173.374 250.98C173.374 249.98 172.874 249.48 171.874 249.48C171.274 249.48 170.734 249.64 170.234 249.98C169.494 250.48 168.774 250.42 168.354 249.86C167.894 249.32 168.034 248.52 168.694 247.98ZM170.554 254.04C170.554 254.52 170.974 254.82 171.694 254.82C172.274 254.82 172.834 254.62 173.374 254.22V253.06L172.114 253.16C171.074 253.22 170.554 253.5 170.554 254.04ZM187.46 244.42V255.58C187.58 257.58 184.5 257.58 184.62 255.58V244.42C184.5 242.42 187.58 242.42 187.46 244.42ZM190.882 247.98C191.742 247.3 192.882 246.96 194.262 246.96C195.482 246.96 196.482 247.32 197.262 248.02C198.042 248.72 198.422 249.66 198.422 250.88V255.58C198.422 256.52 197.802 257.1 197.002 257.1C196.342 257.1 195.902 256.8 195.682 256.2C195.002 256.88 194.162 257.22 193.182 257.22C192.202 257.22 191.422 256.94 190.802 256.38C190.182 255.8 189.882 255.08 189.882 254.2C189.882 253.18 190.242 252.42 190.982 251.9C191.722 251.38 192.662 251.1 193.762 251.06L195.562 250.98C195.562 249.98 195.062 249.48 194.062 249.48C193.462 249.48 192.922 249.64 192.422 249.98C191.682 250.48 190.962 250.42 190.542 249.86C190.082 249.32 190.222 248.52 190.882 247.98ZM192.742 254.04C192.742 254.52 193.162 254.82 193.882 254.82C194.462 254.82 195.022 254.62 195.562 254.22V253.06L194.302 253.16C193.262 253.22 192.742 253.5 192.742 254.04ZM201.462 256.14C200.802 255.56 200.722 254.8 201.222 254.24C201.762 253.64 202.382 253.62 203.102 254.2C203.642 254.62 204.362 254.84 205.242 254.84C205.862 254.84 206.342 254.62 206.342 254.24C206.342 253.92 206.122 253.76 205.462 253.58L204.362 253.26C202.182 252.64 201.162 251.64 201.162 250.06C201.162 249.12 201.522 248.38 202.262 247.82C203.002 247.24 203.902 246.96 204.962 246.96C206.102 246.96 207.062 247.2 207.862 247.7C208.582 248.18 208.762 248.9 208.382 249.52C207.962 250.16 207.282 250.34 206.502 249.88C205.982 249.54 205.422 249.38 204.842 249.38C204.282 249.38 203.922 249.6 203.922 249.92C203.922 250.22 204.142 250.34 204.622 250.48L205.882 250.82C207.882 251.38 209.102 252.24 209.102 254.06C209.102 255.92 207.502 257.22 205.002 257.22C203.502 257.22 202.322 256.86 201.462 256.14ZM85.9342 269.66C85.1942 269.72 84.8342 270.14 84.8342 270.92V271.2H85.7942C86.6742 271.2 87.2142 271.76 87.2142 272.5C87.2142 273.24 86.6742 273.82 85.7942 273.82H84.8342V279.58C84.9742 281.6 81.8942 281.56 82.0142 279.58V273.82H81.6542C80.7742 273.82 80.2342 273.24 80.2342 272.5C80.2342 271.76 80.7742 271.2 81.6542 271.2H82.0142V270.78C82.0142 268.24 83.6342 266.98 85.7942 266.98C86.7742 266.98 87.3142 267.54 87.3142 268.28C87.3142 269.02 86.8342 269.56 85.9342 269.66ZM89.5733 271.98C90.4333 271.3 91.5733 270.96 92.9533 270.96C94.1733 270.96 95.1733 271.32 95.9533 272.02C96.7333 272.72 97.1133 273.66 97.1133 274.88V279.58C97.1133 280.52 96.4933 281.1 95.6933 281.1C95.0333 281.1 94.5933 280.8 94.3733 280.2C93.6933 280.88 92.8533 281.22 91.8733 281.22C90.8933 281.22 90.1133 280.94 89.4933 280.38C88.8733 279.8 88.5733 279.08 88.5733 278.2C88.5733 277.18 88.9333 276.42 89.6733 275.9C90.4133 275.38 91.3533 275.1 92.4533 275.06L94.2533 274.98C94.2533 273.98 93.7533 273.48 92.7533 273.48C92.1533 273.48 91.6133 273.64 91.1133 273.98C90.3733 274.48 89.6533 274.42 89.2333 273.86C88.7733 273.32 88.9133 272.52 89.5733 271.98ZM91.4333 278.04C91.4333 278.52 91.8533 278.82 92.5733 278.82C93.1533 278.82 93.7133 278.62 94.2533 278.22V277.06L92.9933 277.16C91.9533 277.22 91.4333 277.5 91.4333 278.04ZM100.128 279.58V272.62C100.128 271.68 100.748 271.1 101.548 271.1C102.208 271.1 102.648 271.4 102.868 271.98C103.448 271.3 104.268 270.96 105.288 270.96C106.428 270.96 107.328 271.36 108.008 272.14C108.788 271.36 109.768 270.96 110.948 270.96C113.568 270.96 115.048 272.52 115.048 275.3V279.58C115.168 281.58 112.088 281.58 112.208 279.58V275.42C112.208 274.32 111.688 273.6 110.708 273.6C109.648 273.6 109.008 274.42 109.008 275.78V279.58C109.128 281.58 106.048 281.58 106.168 279.58V275.42C106.168 274.32 105.648 273.6 104.668 273.6C103.548 273.6 102.968 274.46 102.968 275.98V279.58C103.088 281.58 100.008 281.58 100.128 279.58ZM117.84 268.42C117.84 267.48 118.58 266.76 119.48 266.76C120.42 266.76 121.14 267.48 121.14 268.42C121.14 269.32 120.38 270.06 119.48 270.06C118.58 270.06 117.84 269.32 117.84 268.42ZM120.9 279.58C120.9 280.52 120.3 281.1 119.48 281.1C118.66 281.1 118.06 280.52 118.06 279.58V272.62C118.06 271.68 118.66 271.1 119.48 271.1C120.3 271.1 120.9 271.68 120.9 272.62V279.58ZM126.991 268.42V279.58C127.111 281.58 124.031 281.58 124.151 279.58V268.42C124.031 266.42 127.111 266.42 126.991 268.42ZM130.008 268.42C130.008 267.48 130.748 266.76 131.648 266.76C132.588 266.76 133.308 267.48 133.308 268.42C133.308 269.32 132.548 270.06 131.648 270.06C130.748 270.06 130.008 269.32 130.008 268.42ZM133.068 279.58C133.068 280.52 132.468 281.1 131.648 281.1C130.828 281.1 130.228 280.52 130.228 279.58V272.62C130.228 271.68 130.828 271.1 131.648 271.1C132.468 271.1 133.068 271.68 133.068 272.62V279.58ZM136.605 271.98C137.465 271.3 138.605 270.96 139.985 270.96C141.205 270.96 142.205 271.32 142.985 272.02C143.765 272.72 144.145 273.66 144.145 274.88V279.58C144.145 280.52 143.525 281.1 142.725 281.1C142.065 281.1 141.625 280.8 141.405 280.2C140.725 280.88 139.885 281.22 138.905 281.22C137.925 281.22 137.145 280.94 136.525 280.38C135.905 279.8 135.605 279.08 135.605 278.2C135.605 277.18 135.965 276.42 136.705 275.9C137.445 275.38 138.385 275.1 139.485 275.06L141.285 274.98C141.285 273.98 140.785 273.48 139.785 273.48C139.185 273.48 138.645 273.64 138.145 273.98C137.405 274.48 136.685 274.42 136.265 273.86C135.805 273.32 135.945 272.52 136.605 271.98ZM138.465 278.04C138.465 278.52 138.885 278.82 139.605 278.82C140.185 278.82 140.745 278.62 141.285 278.22V277.06L140.025 277.16C138.985 277.22 138.465 277.5 138.465 278.04ZM147.184 280.14C146.524 279.56 146.444 278.8 146.944 278.24C147.484 277.64 148.104 277.62 148.824 278.2C149.364 278.62 150.084 278.84 150.964 278.84C151.584 278.84 152.064 278.62 152.064 278.24C152.064 277.92 151.844 277.76 151.184 277.58L150.084 277.26C147.904 276.64 146.884 275.64 146.884 274.06C146.884 273.12 147.244 272.38 147.984 271.82C148.724 271.24 149.624 270.96 150.684 270.96C151.824 270.96 152.784 271.2 153.584 271.7C154.304 272.18 154.484 272.9 154.104 273.52C153.684 274.16 153.004 274.34 152.224 273.88C151.704 273.54 151.144 273.38 150.564 273.38C150.004 273.38 149.644 273.6 149.644 273.92C149.644 274.22 149.864 274.34 150.344 274.48L151.604 274.82C153.604 275.38 154.824 276.24 154.824 278.06C154.824 279.92 153.224 281.22 150.724 281.22C149.224 281.22 148.044 280.86 147.184 280.14ZM157.589 280.7C156.949 280.04 156.949 278.92 157.589 278.26C158.249 277.6 159.369 277.6 160.029 278.26C160.729 278.92 160.729 280.04 160.029 280.7C159.369 281.36 158.249 281.36 157.589 280.7Z" fill="#930345"/>
<path d="M199.5 105.5C199.5 148.578 164.578 183.5 121.5 183.5C78.4218 183.5 43.5 148.578 43.5 105.5C43.5 62.4218 78.4218 27.5 121.5 27.5C164.578 27.5 199.5 62.4218 199.5 105.5Z" fill="white" stroke="white" stroke-width="9"/>
<path d="M74.6861 84.464V88.08H78.5261C79.9661 88.08 80.7661 88.944 80.7661 90.128C80.7661 91.376 79.9661 92.176 78.5261 92.176H74.6861V95.856C74.6861 97.296 73.8221 98.16 72.5741 98.16C71.3901 98.16 70.4621 97.264 70.4621 95.856V92.176H66.6861C65.2781 92.176 64.4461 91.376 64.4461 90.128C64.4461 88.976 65.2781 88.08 66.6861 88.08H70.4621V84.464C70.4621 82.96 71.3901 82.16 72.5741 82.16C73.8221 82.16 74.6861 82.96 74.6861 84.464ZM100.869 77.328C102.149 78.224 102.277 79.728 101.413 80.72C100.645 81.776 99.3966 82 98.0846 81.104C96.7086 80.08 95.2046 79.568 93.5726 79.568C91.5566 79.568 90.2766 80.464 90.2766 81.776C90.2766 82.992 91.3326 83.792 93.4766 84.176L95.3646 84.496C100.389 85.296 102.917 87.632 102.917 91.504C102.917 93.552 102.085 95.216 100.453 96.464C98.8206 97.712 96.6766 98.352 93.9886 98.352C91.0766 98.352 88.4526 97.488 86.0846 95.728C84.8366 94.8 84.6766 93.328 85.5406 92.336C86.3086 91.28 87.5886 91.024 88.8686 91.952C90.5646 93.328 92.3886 94 94.2766 94C96.7086 94 98.1806 92.976 98.1806 91.568C98.1806 90.384 97.1246 89.584 95.0446 89.2L92.6126 88.752C88.2286 87.952 85.5406 85.712 85.5406 82C85.5406 79.92 86.3406 78.288 87.9726 77.072C89.6046 75.824 91.5566 75.216 93.8286 75.216C96.5486 75.216 98.9166 75.92 100.869 77.328ZM118.61 78.704L111.122 96.624C110.514 98.032 109.266 98.512 108.114 98C106.93 97.488 106.482 96.336 107.026 94.896L114.546 76.976C115.154 75.568 116.37 75.088 117.522 75.6C118.706 76.112 119.154 77.264 118.61 78.704ZM122.813 94.96C122.813 91.408 125.245 88.272 130.077 85.552L131.325 84.848C133.533 83.6 134.109 82.864 134.109 81.808C134.109 80.432 132.925 79.568 131.005 79.568C129.885 79.568 128.669 80.112 127.421 81.2C126.365 82.096 124.861 82.256 123.997 81.456C123.133 80.656 123.165 79.248 124.189 78.192C124.989 77.328 126.045 76.624 127.325 76.08C128.605 75.504 129.853 75.216 131.101 75.216C133.309 75.216 135.133 75.792 136.637 76.976C138.141 78.128 138.877 79.728 138.877 81.744C138.877 83.376 138.397 84.688 137.341 85.808C136.317 86.864 135.293 87.6 133.533 88.624L131.581 89.744C129.437 90.992 128.381 91.952 128.029 93.616H136.765C138.269 93.616 139.101 94.544 139.101 95.824C139.101 97.072 138.269 98 136.765 98H125.853C123.933 98 122.813 96.88 122.813 94.96ZM144.851 97.52C143.827 96.464 143.827 94.672 144.851 93.616C145.907 92.56 147.699 92.56 148.755 93.616C149.875 94.672 149.875 96.464 148.755 97.52C147.699 98.576 145.907 98.576 144.851 97.52ZM154.597 91.568C154.597 89.232 155.781 87.376 157.413 86.448C155.909 85.2 155.141 83.728 155.141 82C155.141 79.984 155.845 78.352 157.285 77.104C158.725 75.856 160.549 75.216 162.725 75.216C164.901 75.216 166.693 75.856 168.133 77.104C169.573 78.352 170.309 79.984 170.309 82C170.309 83.728 169.573 85.2 168.069 86.448C169.637 87.376 170.853 89.232 170.853 91.568C170.853 93.648 170.085 95.28 168.549 96.528C167.045 97.744 165.093 98.352 162.725 98.352C160.357 98.352 158.405 97.744 156.869 96.528C155.365 95.28 154.597 93.648 154.597 91.568ZM162.725 79.568C161.189 79.568 159.877 80.496 159.877 82C159.877 83.504 161.189 84.432 162.725 84.432C164.293 84.432 165.573 83.504 165.573 82C165.573 80.496 164.293 79.568 162.725 79.568ZM162.725 94C164.773 94 166.117 92.976 166.117 91.312C166.117 89.648 164.773 88.592 162.725 88.592C160.709 88.592 159.333 89.648 159.333 91.312C159.333 92.976 160.709 94 162.725 94ZM59.3516 135.728V124.592C59.3516 123.088 60.3436 122.16 61.6236 122.16C62.6796 122.16 63.3836 122.64 63.7356 123.568C64.6636 122.48 65.9756 121.936 67.6076 121.936C69.4316 121.936 70.8716 122.576 71.9596 123.824C73.2076 122.576 74.7756 121.936 76.6636 121.936C80.8556 121.936 83.2236 124.432 83.2236 128.88V135.728C83.4156 138.928 78.4876 138.928 78.6796 135.728V129.072C78.6796 127.312 77.8476 126.16 76.2796 126.16C74.5836 126.16 73.5596 127.472 73.5596 129.648V135.728C73.7516 138.928 68.8236 138.928 69.0156 135.728V129.072C69.0156 127.312 68.1836 126.16 66.6156 126.16C64.8236 126.16 63.8956 127.536 63.8956 129.968V135.728C64.0876 138.928 59.1596 138.928 59.3516 135.728ZM87.6909 117.872C87.6909 116.368 88.8749 115.216 90.3149 115.216C91.8189 115.216 92.9709 116.368 92.9709 117.872C92.9709 119.312 91.7549 120.496 90.3149 120.496C88.8749 120.496 87.6909 119.312 87.6909 117.872ZM92.5869 135.728C92.5869 137.232 91.6269 138.16 90.3149 138.16C89.0029 138.16 88.0429 137.232 88.0429 135.728V124.592C88.0429 123.088 89.0029 122.16 90.3149 122.16C91.6269 122.16 92.5869 123.088 92.5869 124.592V135.728ZM102.333 117.872V135.728C102.525 138.928 97.5971 138.928 97.7891 135.728V117.872C97.5971 114.672 102.525 114.672 102.333 117.872ZM111.896 117.872V135.728C112.088 138.928 107.16 138.928 107.352 135.728V117.872C107.16 114.672 112.088 114.672 111.896 117.872ZM118.042 136.016C116.474 134.448 115.674 132.496 115.674 130.16C115.674 127.824 116.474 125.872 118.042 124.304C119.642 122.736 121.626 121.936 123.962 121.936C126.298 121.936 128.282 122.736 129.85 124.304C131.45 125.872 132.25 127.824 132.25 130.16C132.25 132.496 131.45 134.448 129.882 136.016C128.314 137.584 126.33 138.352 123.962 138.352C121.594 138.352 119.61 137.584 118.042 136.016ZM121.338 127.312C120.666 128.048 120.314 129.008 120.314 130.16C120.314 131.312 120.666 132.272 121.338 133.008C122.01 133.744 122.906 134.128 123.962 134.128C125.018 134.128 125.914 133.744 126.586 133.008C127.258 132.272 127.61 131.312 127.61 130.16C127.61 129.008 127.258 128.048 126.586 127.312C125.914 126.576 125.018 126.192 123.962 126.192C122.906 126.192 122.01 126.576 121.338 127.312ZM136.039 135.728V124.592C136.039 123.088 137.031 122.16 138.311 122.16C139.367 122.16 140.071 122.64 140.423 123.568C141.351 122.48 142.599 121.936 144.231 121.936C148.103 121.936 150.599 124.496 150.599 128.88V135.728C150.599 137.232 149.639 138.16 148.327 138.16C147.015 138.16 146.055 137.232 146.055 135.728V129.232C146.055 127.44 145.223 126.16 143.463 126.16C141.543 126.16 140.583 127.504 140.583 130.16V135.728C140.775 138.928 135.847 138.928 136.039 135.728ZM169.186 128.816C169.186 130.48 168.354 131.312 166.658 131.312H158.626C158.882 133.008 160.194 134.192 162.146 134.192C163.234 134.192 164.162 133.872 164.962 133.232C166.21 132.336 167.362 132.624 168.162 133.68C168.898 134.576 168.674 135.856 167.49 136.784C166.114 137.84 164.354 138.352 162.274 138.352C159.874 138.352 157.922 137.616 156.354 136.144C154.786 134.64 154.018 132.688 154.018 130.256C154.018 127.856 154.722 125.872 156.162 124.304C157.602 122.736 159.458 121.936 161.73 121.936C163.298 121.936 164.674 122.32 165.858 123.056C168.258 124.56 169.186 126.672 169.186 128.816ZM161.826 125.936C160.194 125.936 159.138 126.896 158.85 128.272H164.482C164.386 126.96 163.33 125.936 161.826 125.936ZM173.454 136.624C172.398 135.696 172.27 134.48 173.07 133.584C173.934 132.624 174.926 132.592 176.078 133.52C176.942 134.192 178.094 134.544 179.502 134.544C180.494 134.544 181.262 134.192 181.262 133.584C181.262 133.072 180.91 132.816 179.854 132.528L178.094 132.016C174.606 131.024 172.974 129.424 172.974 126.896C172.974 125.392 173.55 124.208 174.734 123.312C175.918 122.384 177.358 121.936 179.054 121.936C180.878 121.936 182.414 122.32 183.694 123.12C184.846 123.888 185.134 125.04 184.526 126.032C183.854 127.056 182.766 127.344 181.518 126.608C180.686 126.064 179.79 125.808 178.862 125.808C177.966 125.808 177.39 126.16 177.39 126.672C177.39 127.152 177.742 127.344 178.51 127.568L180.526 128.112C183.726 129.008 185.678 130.384 185.678 133.296C185.678 136.272 183.118 138.352 179.118 138.352C176.718 138.352 174.83 137.776 173.454 136.624Z" fill="#930345"/>
</svg>
