<svg width="245" height="298" viewBox="0 0 245 298" fill="none" xmlns="http://www.w3.org/2000/svg">
<rect width="244.793" height="297.688" fill="#F9D332"/>
<path d="M49.0362 229.56L43.0842 219.648V229.224C43.0842 230.4 42.3402 231.12 41.3082 231.12C40.2762 231.12 39.5322 230.4 39.5322 229.224V216.816C39.5322 215.064 40.5162 214.056 42.1482 214.056C43.3722 214.056 44.0202 214.56 44.6682 215.616L50.6202 225.528V215.952C50.6202 214.776 51.3642 214.056 52.3962 214.056C53.4282 214.056 54.1722 214.776 54.1722 215.952V228.36C54.1722 230.112 53.1882 231.12 51.5562 231.12C50.3322 231.12 49.6842 230.616 49.0362 229.56ZM57.6666 215.904C57.6666 214.776 58.5546 213.912 59.6346 213.912C60.7626 213.912 61.6266 214.776 61.6266 215.904C61.6266 216.984 60.7146 217.872 59.6346 217.872C58.5546 217.872 57.6666 216.984 57.6666 215.904ZM61.3386 229.296C61.3386 230.424 60.6186 231.12 59.6346 231.12C58.6506 231.12 57.9306 230.424 57.9306 229.296V220.944C57.9306 219.816 58.6506 219.12 59.6346 219.12C60.6186 219.12 61.3386 219.816 61.3386 220.944V229.296ZM64.9825 220.944C64.9825 219.816 65.7265 219.12 66.6865 219.12C67.4785 219.12 68.0065 219.48 68.2705 220.176C68.9665 219.36 69.9025 218.952 71.1265 218.952C74.0305 218.952 75.9025 220.872 75.9025 224.16V229.296C75.9025 230.424 75.1825 231.12 74.1985 231.12C73.2145 231.12 72.4945 230.424 72.4945 229.296V224.424C72.4945 223.08 71.8705 222.12 70.5505 222.12C69.1105 222.12 68.3905 223.128 68.3905 225.12V229.296C68.5345 231.696 64.8385 231.696 64.9825 229.296V220.944ZM69.7345 214.344L70.7185 214.656C71.0305 214.752 71.2705 214.8 71.4385 214.8C71.6785 214.8 71.8705 214.68 72.0385 214.464C72.2545 214.176 72.5905 214.032 73.0225 214.032C73.7905 214.032 74.1505 214.512 74.1505 215.256C74.1505 216.216 73.2145 217.176 71.9425 217.176C71.8225 217.176 71.4865 217.104 70.9105 216.984L69.9265 216.672C69.6145 216.576 69.3745 216.528 69.2065 216.528C68.9665 216.528 68.7745 216.648 68.6065 216.864C68.3905 217.152 68.0545 217.296 67.6225 217.296C66.8545 217.296 66.4945 216.816 66.4945 216.072C66.4945 215.112 67.4305 214.152 68.7025 214.152C68.8225 214.152 69.1585 214.224 69.7345 214.344ZM80.2427 229.512C79.0667 228.336 78.4667 226.872 78.4667 225.12C78.4667 223.368 79.0667 221.904 80.2427 220.728C81.4427 219.552 82.9307 218.952 84.6827 218.952C86.4347 218.952 87.9227 219.552 89.0987 220.728C90.2987 221.904 90.8987 223.368 90.8987 225.12C90.8987 226.872 90.2987 228.336 89.1227 229.512C87.9467 230.688 86.4587 231.264 84.6827 231.264C82.9067 231.264 81.4187 230.688 80.2427 229.512ZM82.7147 222.984C82.2107 223.536 81.9467 224.256 81.9467 225.12C81.9467 225.984 82.2107 226.704 82.7147 227.256C83.2187 227.808 83.8907 228.096 84.6827 228.096C85.4747 228.096 86.1467 227.808 86.6507 227.256C87.1547 226.704 87.4187 225.984 87.4187 225.12C87.4187 224.256 87.1547 223.536 86.6507 222.984C86.1467 222.432 85.4747 222.144 84.6827 222.144C83.8907 222.144 83.2187 222.432 82.7147 222.984ZM94.0283 229.968C93.2363 229.272 93.1403 228.36 93.7403 227.688C94.3883 226.968 95.1323 226.944 95.9963 227.64C96.6443 228.144 97.5083 228.408 98.5643 228.408C99.3083 228.408 99.8843 228.144 99.8843 227.688C99.8843 227.304 99.6203 227.112 98.8283 226.896L97.5083 226.512C94.8923 225.768 93.6683 224.568 93.6683 222.672C93.6683 221.544 94.1003 220.656 94.9883 219.984C95.8763 219.288 96.9563 218.952 98.2283 218.952C99.5963 218.952 100.748 219.24 101.708 219.84C102.572 220.416 102.788 221.28 102.332 222.024C101.828 222.792 101.012 223.008 100.076 222.456C99.4523 222.048 98.7803 221.856 98.0843 221.856C97.4123 221.856 96.9803 222.12 96.9803 222.504C96.9803 222.864 97.2443 223.008 97.8203 223.176L99.3323 223.584C101.732 224.256 103.196 225.288 103.196 227.472C103.196 229.704 101.276 231.264 98.2763 231.264C96.4763 231.264 95.0603 230.832 94.0283 229.968ZM109.465 230.328L107.857 233.76C107.497 234.528 106.801 234.84 106.057 234.648C105.193 234.384 104.689 233.592 105.049 232.656L106.345 229.128C106.729 228.072 107.593 227.64 108.577 227.952C109.513 228.24 109.921 229.296 109.465 230.328ZM120.154 229.296V220.944C120.154 219.816 120.898 219.12 121.858 219.12C122.65 219.12 123.178 219.48 123.442 220.176C124.138 219.36 125.074 218.952 126.298 218.952C129.202 218.952 131.074 220.872 131.074 224.16V229.296C131.074 230.424 130.354 231.12 129.37 231.12C128.386 231.12 127.666 230.424 127.666 229.296V224.424C127.666 223.08 127.042 222.12 125.722 222.12C124.282 222.12 123.562 223.128 123.562 225.12V229.296C123.706 231.696 120.01 231.696 120.154 229.296ZM134.424 215.904C134.424 214.776 135.312 213.912 136.392 213.912C137.52 213.912 138.384 214.776 138.384 215.904C138.384 216.984 137.472 217.872 136.392 217.872C135.312 217.872 134.424 216.984 134.424 215.904ZM138.096 229.296C138.096 230.424 137.376 231.12 136.392 231.12C135.408 231.12 134.688 230.424 134.688 229.296V220.944C134.688 219.816 135.408 219.12 136.392 219.12C137.376 219.12 138.096 219.816 138.096 220.944V229.296ZM141.74 220.944C141.74 219.816 142.484 219.12 143.444 219.12C144.236 219.12 144.764 219.48 145.028 220.176C145.724 219.36 146.66 218.952 147.884 218.952C150.788 218.952 152.66 220.872 152.66 224.16V229.296C152.66 230.424 151.94 231.12 150.956 231.12C149.972 231.12 149.252 230.424 149.252 229.296V224.424C149.252 223.08 148.628 222.12 147.308 222.12C145.868 222.12 145.148 223.128 145.148 225.12V229.296C145.292 231.696 141.596 231.696 141.74 229.296V220.944ZM146.492 214.344L147.476 214.656C147.788 214.752 148.028 214.8 148.196 214.8C148.436 214.8 148.628 214.68 148.796 214.464C149.012 214.176 149.348 214.032 149.78 214.032C150.548 214.032 150.908 214.512 150.908 215.256C150.908 216.216 149.972 217.176 148.7 217.176C148.58 217.176 148.244 217.104 147.668 216.984L146.684 216.672C146.372 216.576 146.132 216.528 145.964 216.528C145.724 216.528 145.532 216.648 145.364 216.864C145.148 217.152 144.812 217.296 144.38 217.296C143.612 217.296 143.252 216.816 143.252 216.072C143.252 215.112 144.188 214.152 145.46 214.152C145.58 214.152 145.916 214.224 146.492 214.344ZM156.497 220.176C157.529 219.36 158.897 218.952 160.553 218.952C162.017 218.952 163.217 219.384 164.153 220.224C165.089 221.064 165.545 222.192 165.545 223.656V229.296C165.545 230.424 164.801 231.12 163.841 231.12C163.049 231.12 162.521 230.76 162.257 230.04C161.441 230.856 160.433 231.264 159.257 231.264C158.081 231.264 157.145 230.928 156.401 230.256C155.657 229.56 155.297 228.696 155.297 227.64C155.297 226.416 155.729 225.504 156.617 224.88C157.505 224.256 158.633 223.92 159.953 223.872L162.113 223.776C162.113 222.576 161.513 221.976 160.313 221.976C159.593 221.976 158.945 222.168 158.345 222.576C157.457 223.176 156.593 223.104 156.089 222.432C155.537 221.784 155.705 220.824 156.497 220.176ZM158.729 227.448C158.729 228.024 159.233 228.384 160.097 228.384C160.793 228.384 161.465 228.144 162.113 227.664V226.272L160.601 226.392C159.353 226.464 158.729 226.8 158.729 227.448ZM169.192 229.968C168.4 229.272 168.304 228.36 168.904 227.688C169.552 226.968 170.296 226.944 171.16 227.64C171.808 228.144 172.672 228.408 173.728 228.408C174.472 228.408 175.048 228.144 175.048 227.688C175.048 227.304 174.784 227.112 173.992 226.896L172.672 226.512C170.056 225.768 168.832 224.568 168.832 222.672C168.832 221.544 169.264 220.656 170.152 219.984C171.04 219.288 172.12 218.952 173.392 218.952C174.76 218.952 175.912 219.24 176.872 219.84C177.736 220.416 177.952 221.28 177.496 222.024C176.992 222.792 176.176 223.008 175.24 222.456C174.616 222.048 173.944 221.856 173.248 221.856C172.576 221.856 172.144 222.12 172.144 222.504C172.144 222.864 172.408 223.008 172.984 223.176L174.496 223.584C176.896 224.256 178.36 225.288 178.36 227.472C178.36 229.704 176.44 231.264 173.44 231.264C171.64 231.264 170.224 230.832 169.192 229.968ZM190.243 233.448L191.299 231L187.675 221.544C187.291 220.488 187.795 219.48 188.755 219.192C189.643 218.928 190.507 219.36 190.891 220.44L193.147 226.512L195.427 220.44C195.811 219.36 196.675 218.928 197.563 219.192C198.523 219.504 199.075 220.392 198.667 221.424L193.483 234.432C193.027 235.56 192.331 235.968 191.347 235.68C190.363 235.368 189.787 234.48 190.243 233.448ZM48.8129 244.176C49.8449 243.36 51.2129 242.952 52.8689 242.952C54.3329 242.952 55.5329 243.384 56.4689 244.224C57.4049 245.064 57.8609 246.192 57.8609 247.656V253.296C57.8609 254.424 57.1169 255.12 56.1569 255.12C55.3649 255.12 54.8369 254.76 54.5729 254.04C53.7569 254.856 52.7489 255.264 51.5729 255.264C50.3969 255.264 49.4609 254.928 48.7169 254.256C47.9729 253.56 47.6129 252.696 47.6129 251.64C47.6129 250.416 48.0449 249.504 48.9329 248.88C49.8209 248.256 50.9489 247.92 52.2689 247.872L54.4289 247.776C54.4289 246.576 53.8289 245.976 52.6289 245.976C51.9089 245.976 51.2609 246.168 50.6609 246.576C49.7729 247.176 48.9089 247.104 48.4049 246.432C47.8529 245.784 48.0209 244.824 48.8129 244.176ZM51.0449 251.448C51.0449 252.024 51.5489 252.384 52.4129 252.384C53.1089 252.384 53.7809 252.144 54.4289 251.664V250.272L52.9169 250.392C51.6689 250.464 51.0449 250.8 51.0449 251.448ZM72.8368 239.904V253.296C72.8368 254.424 72.0928 255.12 71.1328 255.12C70.3168 255.12 69.7888 254.76 69.5488 254.016C68.9488 254.76 67.6768 255.264 66.4048 255.264C64.7488 255.264 63.3328 254.712 62.2048 253.584C61.0768 252.456 60.5248 250.968 60.5248 249.12C60.5248 247.296 61.0768 245.808 62.2048 244.68C63.3328 243.528 64.7488 242.952 66.4048 242.952C67.6288 242.952 68.6368 243.288 69.4288 243.984V239.904C69.2848 237.504 72.9808 237.504 72.8368 239.904ZM68.6848 251.328C69.2128 250.752 69.4768 250.008 69.4768 249.12C69.4768 248.232 69.2128 247.488 68.6848 246.912C68.1808 246.336 67.5328 246.048 66.7408 246.048C65.9488 246.048 65.3008 246.336 64.7728 246.912C64.2688 247.488 64.0048 248.232 64.0048 249.12C64.0048 250.008 64.2688 250.752 64.7728 251.328C65.3008 251.904 65.9488 252.192 66.7408 252.192C67.5328 252.192 68.1808 251.904 68.6848 251.328ZM77.4419 253.512C76.2659 252.336 75.6659 250.872 75.6659 249.12C75.6659 247.368 76.2659 245.904 77.4419 244.728C78.6419 243.552 80.1299 242.952 81.8819 242.952C83.6339 242.952 85.1219 243.552 86.2979 244.728C87.4979 245.904 88.0979 247.368 88.0979 249.12C88.0979 250.872 87.4979 252.336 86.3219 253.512C85.1459 254.688 83.6579 255.264 81.8819 255.264C80.1059 255.264 78.6179 254.688 77.4419 253.512ZM79.9139 246.984C79.4099 247.536 79.1459 248.256 79.1459 249.12C79.1459 249.984 79.4099 250.704 79.9139 251.256C80.4179 251.808 81.0899 252.096 81.8819 252.096C82.6739 252.096 83.3459 251.808 83.8499 251.256C84.3539 250.704 84.6179 249.984 84.6179 249.12C84.6179 248.256 84.3539 247.536 83.8499 246.984C83.3459 246.432 82.6739 246.144 81.8819 246.144C81.0899 246.144 80.4179 246.432 79.9139 246.984ZM94.3475 239.904V253.296C94.4915 255.696 90.7955 255.696 90.9395 253.296V239.904C90.7955 237.504 94.4915 237.504 94.3475 239.904ZM108.558 248.112C108.558 249.36 107.934 249.984 106.662 249.984H100.638C100.83 251.256 101.814 252.144 103.278 252.144C104.094 252.144 104.79 251.904 105.39 251.424C106.326 250.752 107.19 250.968 107.79 251.76C108.342 252.432 108.174 253.392 107.286 254.088C106.254 254.88 104.934 255.264 103.374 255.264C101.574 255.264 100.11 254.712 98.9336 253.608C97.7576 252.48 97.1816 251.016 97.1816 249.192C97.1816 247.392 97.7096 245.904 98.7896 244.728C99.8696 243.552 101.262 242.952 102.966 242.952C104.142 242.952 105.174 243.24 106.062 243.792C107.862 244.92 108.558 246.504 108.558 248.112ZM103.038 245.952C101.814 245.952 101.022 246.672 100.806 247.704H105.03C104.958 246.72 104.166 245.952 103.038 245.952ZM111.759 253.968C110.967 253.272 110.871 252.36 111.471 251.688C112.119 250.968 112.863 250.944 113.727 251.64C114.375 252.144 115.239 252.408 116.295 252.408C117.039 252.408 117.615 252.144 117.615 251.688C117.615 251.304 117.351 251.112 116.559 250.896L115.239 250.512C112.623 249.768 111.399 248.568 111.399 246.672C111.399 245.544 111.831 244.656 112.719 243.984C113.607 243.288 114.687 242.952 115.959 242.952C117.327 242.952 118.479 243.24 119.439 243.84C120.303 244.416 120.519 245.28 120.063 246.024C119.559 246.792 118.743 247.008 117.807 246.456C117.183 246.048 116.511 245.856 115.815 245.856C115.143 245.856 114.711 246.12 114.711 246.504C114.711 246.864 114.975 247.008 115.551 247.176L117.063 247.584C119.463 248.256 120.927 249.288 120.927 251.472C120.927 253.704 119.007 255.264 116.007 255.264C114.207 255.264 112.791 254.832 111.759 253.968ZM130.886 246.744C130.334 246.336 129.758 246.12 129.158 246.12C127.454 246.12 126.302 247.368 126.302 249.12C126.302 250.872 127.454 252.12 129.158 252.12C129.806 252.12 130.454 251.856 131.102 251.352C132.038 250.68 132.902 250.896 133.502 251.688C134.054 252.36 133.886 253.32 132.998 254.016C131.894 254.856 130.574 255.264 129.038 255.264C127.262 255.264 125.774 254.688 124.598 253.512C123.422 252.336 122.822 250.872 122.822 249.12C122.822 247.368 123.422 245.904 124.598 244.728C125.798 243.552 127.286 242.952 129.038 242.952C130.406 242.952 131.606 243.312 132.614 244.056C133.502 244.752 133.742 245.76 133.238 246.432C132.686 247.2 131.822 247.392 130.886 246.744ZM147.183 248.112C147.183 249.36 146.559 249.984 145.287 249.984H139.263C139.455 251.256 140.439 252.144 141.903 252.144C142.719 252.144 143.415 251.904 144.015 251.424C144.951 250.752 145.815 250.968 146.415 251.76C146.967 252.432 146.799 253.392 145.911 254.088C144.879 254.88 143.559 255.264 141.999 255.264C140.199 255.264 138.735 254.712 137.559 253.608C136.383 252.48 135.807 251.016 135.807 249.192C135.807 247.392 136.335 245.904 137.415 244.728C138.495 243.552 139.887 242.952 141.591 242.952C142.767 242.952 143.799 243.24 144.687 243.792C146.487 244.92 147.183 246.504 147.183 248.112ZM141.663 245.952C140.439 245.952 139.647 246.672 139.431 247.704H143.655C143.583 246.72 142.791 245.952 141.663 245.952ZM150.096 253.296V244.944C150.096 243.816 150.84 243.12 151.8 243.12C152.592 243.12 153.12 243.48 153.384 244.176C154.08 243.36 155.016 242.952 156.24 242.952C159.144 242.952 161.016 244.872 161.016 248.16V253.296C161.016 254.424 160.296 255.12 159.312 255.12C158.328 255.12 157.608 254.424 157.608 253.296V248.424C157.608 247.08 156.984 246.12 155.664 246.12C154.224 246.12 153.504 247.128 153.504 249.12V253.296C153.648 255.696 149.952 255.696 150.096 253.296ZM169.127 251.88C170.207 252 170.783 252.6 170.783 253.488C170.783 254.376 170.135 255.048 168.959 255.048H168.647C165.911 255.048 164.543 253.656 164.543 250.848V246.384H164.111C163.055 246.384 162.407 245.712 162.407 244.824C162.407 243.936 163.055 243.24 164.111 243.24H164.543V241.656C164.399 239.256 168.095 239.256 167.927 241.656V243.24H169.079C170.135 243.24 170.783 243.936 170.783 244.824C170.783 245.712 170.135 246.384 169.079 246.384H167.927V250.44C167.927 251.424 168.335 251.808 169.127 251.88ZM184.19 248.112C184.19 249.36 183.566 249.984 182.294 249.984H176.27C176.462 251.256 177.446 252.144 178.91 252.144C179.726 252.144 180.422 251.904 181.022 251.424C181.958 250.752 182.822 250.968 183.422 251.76C183.974 252.432 183.806 253.392 182.918 254.088C181.886 254.88 180.566 255.264 179.006 255.264C177.206 255.264 175.742 254.712 174.566 253.608C173.39 252.48 172.814 251.016 172.814 249.192C172.814 247.392 173.342 245.904 174.422 244.728C175.502 243.552 176.894 242.952 178.598 242.952C179.774 242.952 180.806 243.24 181.694 243.792C183.494 244.92 184.19 246.504 184.19 248.112ZM178.67 245.952C177.446 245.952 176.654 246.672 176.438 247.704H180.662C180.59 246.72 179.798 245.952 178.67 245.952ZM187.392 253.968C186.6 253.272 186.504 252.36 187.104 251.688C187.752 250.968 188.496 250.944 189.36 251.64C190.008 252.144 190.872 252.408 191.928 252.408C192.672 252.408 193.248 252.144 193.248 251.688C193.248 251.304 192.984 251.112 192.192 250.896L190.872 250.512C188.256 249.768 187.032 248.568 187.032 246.672C187.032 245.544 187.464 244.656 188.352 243.984C189.24 243.288 190.32 242.952 191.592 242.952C192.96 242.952 194.112 243.24 195.072 243.84C195.936 244.416 196.152 245.28 195.696 246.024C195.192 246.792 194.376 247.008 193.44 246.456C192.816 246.048 192.144 245.856 191.448 245.856C190.776 245.856 190.344 246.12 190.344 246.504C190.344 246.864 190.608 247.008 191.184 247.176L192.696 247.584C195.096 248.256 196.56 249.288 196.56 251.472C196.56 253.704 194.64 255.264 191.64 255.264C189.84 255.264 188.424 254.832 187.392 253.968ZM63.0981 268.176C64.1301 267.36 65.4981 266.952 67.1541 266.952C68.6181 266.952 69.8181 267.384 70.7541 268.224C71.6901 269.064 72.1461 270.192 72.1461 271.656V277.296C72.1461 278.424 71.4021 279.12 70.4421 279.12C69.6501 279.12 69.1221 278.76 68.8581 278.04C68.0421 278.856 67.0341 279.264 65.8581 279.264C64.6821 279.264 63.7461 278.928 63.0021 278.256C62.2581 277.56 61.8981 276.696 61.8981 275.64C61.8981 274.416 62.3301 273.504 63.2181 272.88C64.1061 272.256 65.2341 271.92 66.5541 271.872L68.7141 271.776C68.7141 270.576 68.1141 269.976 66.9141 269.976C66.1941 269.976 65.5461 270.168 64.9461 270.576C64.0581 271.176 63.1941 271.104 62.6901 270.432C62.1381 269.784 62.3061 268.824 63.0981 268.176ZM65.3301 275.448C65.3301 276.024 65.8341 276.384 66.6981 276.384C67.3941 276.384 68.0661 276.144 68.7141 275.664V274.272L67.2021 274.392C65.9541 274.464 65.3301 274.8 65.3301 275.448ZM80.3813 275.88C81.4613 276 82.0373 276.6 82.0373 277.488C82.0373 278.376 81.3893 279.048 80.2133 279.048H79.9013C77.1653 279.048 75.7973 277.656 75.7973 274.848V270.384H75.3653C74.3093 270.384 73.6613 269.712 73.6613 268.824C73.6613 267.936 74.3093 267.24 75.3653 267.24H75.7973V265.656C75.6533 263.256 79.3493 263.256 79.1813 265.656V267.24H80.3333C81.3893 267.24 82.0373 267.936 82.0373 268.824C82.0373 269.712 81.3893 270.384 80.3333 270.384H79.1813V274.44C79.1813 275.424 79.5893 275.808 80.3813 275.88ZM95.4443 272.112C95.4443 273.36 94.8203 273.984 93.5483 273.984H87.5243C87.7163 275.256 88.7003 276.144 90.1643 276.144C90.9803 276.144 91.6763 275.904 92.2763 275.424C93.2123 274.752 94.0763 274.968 94.6763 275.76C95.2283 276.432 95.0603 277.392 94.1723 278.088C93.1403 278.88 91.8203 279.264 90.2603 279.264C88.4603 279.264 86.9963 278.712 85.8203 277.608C84.6443 276.48 84.0683 275.016 84.0683 273.192C84.0683 271.392 84.5963 269.904 85.6763 268.728C86.7563 267.552 88.1483 266.952 89.8523 266.952C91.0283 266.952 92.0603 267.24 92.9483 267.792C94.7483 268.92 95.4443 270.504 95.4443 272.112ZM89.9243 269.952C88.7003 269.952 87.9083 270.672 87.6923 271.704H91.9163C91.8443 270.72 91.0523 269.952 89.9243 269.952ZM98.3575 277.296V268.944C98.3575 267.816 99.1015 267.12 100.061 267.12C100.853 267.12 101.381 267.48 101.645 268.176C102.341 267.36 103.277 266.952 104.501 266.952C107.405 266.952 109.277 268.872 109.277 272.16V277.296C109.277 278.424 108.557 279.12 107.573 279.12C106.589 279.12 105.869 278.424 105.869 277.296V272.424C105.869 271.08 105.245 270.12 103.925 270.12C102.485 270.12 101.765 271.128 101.765 273.12V277.296C101.909 279.696 98.2135 279.696 98.3575 277.296ZM124.13 263.904V277.296C124.13 278.424 123.386 279.12 122.426 279.12C121.61 279.12 121.082 278.76 120.842 278.016C120.242 278.76 118.97 279.264 117.698 279.264C116.042 279.264 114.626 278.712 113.498 277.584C112.37 276.456 111.818 274.968 111.818 273.12C111.818 271.296 112.37 269.808 113.498 268.68C114.626 267.528 116.042 266.952 117.698 266.952C118.922 266.952 119.93 267.288 120.722 267.984V263.904C120.578 261.504 124.274 261.504 124.13 263.904ZM119.978 275.328C120.506 274.752 120.77 274.008 120.77 273.12C120.77 272.232 120.506 271.488 119.978 270.912C119.474 270.336 118.826 270.048 118.034 270.048C117.242 270.048 116.594 270.336 116.066 270.912C115.562 271.488 115.298 272.232 115.298 273.12C115.298 274.008 115.562 274.752 116.066 275.328C116.594 275.904 117.242 276.192 118.034 276.192C118.826 276.192 119.474 275.904 119.978 275.328ZM127.745 263.904C127.745 262.776 128.633 261.912 129.713 261.912C130.841 261.912 131.705 262.776 131.705 263.904C131.705 264.984 130.793 265.872 129.713 265.872C128.633 265.872 127.745 264.984 127.745 263.904ZM131.417 277.296C131.417 278.424 130.697 279.12 129.713 279.12C128.729 279.12 128.009 278.424 128.009 277.296V268.944C128.009 267.816 128.729 267.12 129.713 267.12C130.697 267.12 131.417 267.816 131.417 268.944V277.296ZM146.677 263.904V277.296C146.677 278.424 145.933 279.12 144.973 279.12C144.157 279.12 143.629 278.76 143.389 278.016C142.789 278.76 141.517 279.264 140.245 279.264C138.589 279.264 137.173 278.712 136.045 277.584C134.917 276.456 134.365 274.968 134.365 273.12C134.365 271.296 134.917 269.808 136.045 268.68C137.173 267.528 138.589 266.952 140.245 266.952C141.469 266.952 142.477 267.288 143.269 267.984V263.904C143.125 261.504 146.821 261.504 146.677 263.904ZM142.525 275.328C143.053 274.752 143.317 274.008 143.317 273.12C143.317 272.232 143.053 271.488 142.525 270.912C142.021 270.336 141.373 270.048 140.581 270.048C139.789 270.048 139.141 270.336 138.613 270.912C138.109 271.488 137.845 272.232 137.845 273.12C137.845 274.008 138.109 274.752 138.613 275.328C139.141 275.904 139.789 276.192 140.581 276.192C141.373 276.192 142.021 275.904 142.525 275.328ZM151.282 277.512C150.106 276.336 149.506 274.872 149.506 273.12C149.506 271.368 150.106 269.904 151.282 268.728C152.482 267.552 153.97 266.952 155.722 266.952C157.474 266.952 158.962 267.552 160.138 268.728C161.338 269.904 161.938 271.368 161.938 273.12C161.938 274.872 161.338 276.336 160.162 277.512C158.986 278.688 157.498 279.264 155.722 279.264C153.946 279.264 152.458 278.688 151.282 277.512ZM153.754 270.984C153.25 271.536 152.986 272.256 152.986 273.12C152.986 273.984 153.25 274.704 153.754 275.256C154.258 275.808 154.93 276.096 155.722 276.096C156.514 276.096 157.186 275.808 157.69 275.256C158.194 274.704 158.458 273.984 158.458 273.12C158.458 272.256 158.194 271.536 157.69 270.984C157.186 270.432 156.514 270.144 155.722 270.144C154.93 270.144 154.258 270.432 153.754 270.984ZM165.067 277.968C164.275 277.272 164.179 276.36 164.779 275.688C165.427 274.968 166.171 274.944 167.035 275.64C167.683 276.144 168.547 276.408 169.603 276.408C170.347 276.408 170.923 276.144 170.923 275.688C170.923 275.304 170.659 275.112 169.867 274.896L168.547 274.512C165.931 273.768 164.707 272.568 164.707 270.672C164.707 269.544 165.139 268.656 166.027 267.984C166.915 267.288 167.995 266.952 169.267 266.952C170.635 266.952 171.787 267.24 172.747 267.84C173.611 268.416 173.827 269.28 173.371 270.024C172.867 270.792 172.051 271.008 171.115 270.456C170.491 270.048 169.819 269.856 169.123 269.856C168.451 269.856 168.019 270.12 168.019 270.504C168.019 270.864 168.283 271.008 168.859 271.176L170.371 271.584C172.771 272.256 174.235 273.288 174.235 275.472C174.235 277.704 172.315 279.264 169.315 279.264C167.515 279.264 166.099 278.832 165.067 277.968ZM177.552 278.64C176.784 277.848 176.784 276.504 177.552 275.712C178.344 274.92 179.688 274.92 180.48 275.712C181.32 276.504 181.32 277.848 180.48 278.64C179.688 279.432 178.344 279.432 177.552 278.64Z" fill="#930345"/>
<circle cx="123.5" cy="97.4997" r="77.9997" fill="white" stroke="white" stroke-width="9"/>
<path d="M87.4389 89.736L91.5349 87.24C92.4309 86.696 93.1989 86.44 93.8709 86.44C95.3749 86.44 96.3989 87.496 96.3989 89.288V104.616H99.4709C100.911 104.616 101.839 105.544 101.839 106.824C101.839 108.072 100.943 109 99.5029 109H87.8869C86.4469 109 85.5509 108.072 85.5509 106.824C85.5509 105.544 86.4469 104.616 87.8869 104.616H91.6629V92.456L89.4229 93.768C88.4949 94.248 87.6629 94.312 86.9269 93.896C86.2229 93.48 85.8709 92.904 85.8709 92.104C85.8709 91.176 86.3829 90.376 87.4389 89.736ZM105.066 102.568C105.066 100.232 106.25 98.376 107.882 97.448C106.378 96.2 105.61 94.728 105.61 93C105.61 90.984 106.314 89.352 107.754 88.104C109.194 86.856 111.018 86.216 113.194 86.216C115.37 86.216 117.162 86.856 118.602 88.104C120.042 89.352 120.778 90.984 120.778 93C120.778 94.728 120.042 96.2 118.538 97.448C120.106 98.376 121.322 100.232 121.322 102.568C121.322 104.648 120.554 106.28 119.018 107.528C117.514 108.744 115.562 109.352 113.194 109.352C110.826 109.352 108.874 108.744 107.338 107.528C105.834 106.28 105.066 104.648 105.066 102.568ZM113.194 90.568C111.658 90.568 110.346 91.496 110.346 93C110.346 94.504 111.658 95.432 113.194 95.432C114.762 95.432 116.042 94.504 116.042 93C116.042 91.496 114.762 90.568 113.194 90.568ZM113.194 105C115.242 105 116.586 103.976 116.586 102.312C116.586 100.648 115.242 99.592 113.194 99.592C111.178 99.592 109.802 100.648 109.802 102.312C109.802 103.976 111.178 105 113.194 105ZM132.189 99.816C129.053 100.04 129.053 95.176 132.189 95.4C134.397 95.4 135.677 94.408 135.677 92.872C135.677 91.56 134.525 90.568 132.733 90.568C131.421 90.568 130.333 90.888 129.469 91.496C128.285 92.296 127.133 92.2 126.365 91.304C125.597 90.504 125.661 89.032 126.781 88.136C128.381 86.856 130.333 86.216 132.605 86.216C134.781 86.216 136.637 86.728 138.141 87.784C139.677 88.84 140.445 90.376 140.445 92.424C140.445 94.568 139.613 96.168 137.949 97.288C139.645 98.152 140.989 100.04 140.989 102.568C140.989 104.712 140.189 106.376 138.589 107.56C136.989 108.744 134.973 109.352 132.541 109.352C130.173 109.352 128.093 108.68 126.333 107.368C125.149 106.472 125.085 104.904 125.885 104.04C126.813 103.016 127.901 102.952 129.149 103.848C130.205 104.616 131.389 105 132.733 105C134.813 105 136.253 104.072 136.253 102.44C136.253 100.68 134.909 99.816 132.189 99.816ZM146.47 89.736L150.566 87.24C151.462 86.696 152.23 86.44 152.902 86.44C154.406 86.44 155.43 87.496 155.43 89.288V104.616H158.502C159.942 104.616 160.87 105.544 160.87 106.824C160.87 108.072 159.974 109 158.534 109H146.918C145.478 109 144.582 108.072 144.582 106.824C144.582 105.544 145.478 104.616 146.918 104.616H150.694V92.456L148.454 93.768C147.526 94.248 146.694 94.312 145.958 93.896C145.254 93.48 144.902 92.904 144.902 92.104C144.902 91.176 145.414 90.376 146.47 89.736Z" fill="#930345"/>
</svg>
