<svg width="657" height="192" viewBox="0 0 657 192" fill="none" xmlns="http://www.w3.org/2000/svg">
<rect x="182" width="457" height="192" fill="#F9D332"/>
<circle cx="411" cy="86" r="43" fill="#930345"/>
<path d="M397.108 83.512C397.108 84.358 397.81 85.06 398.674 85.06C399.538 85.06 400.204 84.376 400.204 83.512C400.204 82.648 399.538 81.964 398.674 81.964C397.81 81.964 397.108 82.648 397.108 83.512ZM397.342 87.544V93.124C397.342 94.042 397.918 94.582 398.656 94.582C399.448 94.582 399.988 94.042 399.988 93.124V87.544C399.988 86.626 399.448 86.086 398.656 86.086C397.918 86.086 397.342 86.626 397.342 87.544ZM411.788 79.372C410.69 78.58 409.358 78.184 407.828 78.184C406.55 78.184 405.452 78.526 404.534 79.228C403.616 79.912 403.166 80.83 403.166 82C403.166 84.088 404.678 85.348 407.144 85.798L408.512 86.05C409.682 86.266 410.276 86.716 410.276 87.382C410.276 88.174 409.448 88.75 408.08 88.75C407.018 88.75 405.992 88.372 405.038 87.598C404.318 87.076 403.598 87.22 403.166 87.814C402.68 88.372 402.77 89.2 403.472 89.722C404.804 90.712 406.28 91.198 407.918 91.198C409.43 91.198 410.636 90.838 411.554 90.136C412.472 89.434 412.94 88.498 412.94 87.346C412.94 85.168 411.518 83.854 408.692 83.404L407.63 83.224C406.424 83.008 405.83 82.558 405.83 81.874C405.83 81.136 406.55 80.632 407.684 80.632C408.602 80.632 409.448 80.92 410.222 81.496C410.96 82 411.662 81.874 412.094 81.28C412.58 80.722 412.508 79.876 411.788 79.372ZM417.734 83.458C417.734 82.612 417.194 82.09 416.456 82.09C415.718 82.09 415.178 82.612 415.178 83.458V89.722C415.178 90.568 415.718 91.09 416.456 91.09C417.194 91.09 417.734 90.568 417.734 89.722V83.458ZM417.536 80.11C417.806 80.02 418.04 79.858 418.202 79.642C418.562 79.084 418.4 78.346 417.878 78.004C417.428 77.734 416.996 77.716 416.582 77.986L415.052 78.994C414.908 79.084 414.782 79.192 414.692 79.336C414.386 79.786 414.512 80.47 414.998 80.776C415.322 80.974 415.646 80.992 415.988 80.83L417.536 80.11ZM423.9 89.596C423.9 88.75 423.198 88.048 422.334 88.048C421.47 88.048 420.804 88.732 420.804 89.596C420.804 90.46 421.47 91.144 422.334 91.144C423.198 91.144 423.9 90.46 423.9 89.596ZM423.666 79.768C423.666 78.85 423.09 78.31 422.352 78.31C421.56 78.31 421.02 78.85 421.02 79.768V85.564C421.02 86.482 421.56 87.022 422.352 87.022C423.09 87.022 423.666 86.482 423.666 85.564V79.768Z" fill="white"/>
<path d="M-7.95752e-06 0.000244141L0 191.843L90.8642 95.8506L-7.95752e-06 0.000244141Z" fill="#930345"/>
<path d="M91 0.000244141L91 191.843L181.999 95.8506L91 0.000244141Z" fill="#930345"/>
</svg>
