<svg width="1072" height="531" viewBox="0 0 1072 531" fill="none" xmlns="http://www.w3.org/2000/svg">
<ellipse cx="85" cy="206.5" rx="38" ry="37.5" fill="#930345"/>
<circle cx="196.5" cy="206.5" r="37.5" fill="#930345"/>
<circle cx="308.5" cy="206.5" r="37.5" fill="#930345"/>
<ellipse cx="559" cy="206.5" rx="38" ry="37.5" fill="#930345"/>
<circle cx="710.5" cy="206.5" r="37.5" fill="#930345"/>
<circle cx="855.5" cy="206.5" r="37.5" fill="#930345"/>
<ellipse cx="987" cy="206.5" rx="38" ry="37.5" fill="#930345"/>
<line x1="90" y1="203.5" x2="962" y2="203.5" stroke="#930345" stroke-width="3" stroke-dasharray="10 10"/>
<path d="M64.1795 205.164C63.5855 205.524 63.2975 205.974 63.2975 206.496C63.2975 206.946 63.4955 207.27 63.8915 207.504C64.3055 207.738 64.7735 207.702 65.2955 207.432L66.5555 206.694V213.534H64.4315C63.6215 213.534 63.1175 214.056 63.1175 214.776C63.1175 215.478 63.6215 216 64.4315 216H70.9655C71.7755 216 72.2795 215.478 72.2795 214.776C72.2795 214.056 71.7575 213.534 70.9475 213.534H69.2195V204.912C69.2195 203.904 68.6435 203.31 67.7975 203.31C67.4195 203.31 66.9875 203.454 66.4835 203.76L64.1795 205.164ZM76.5607 207.504C76.5607 206.424 77.3707 205.632 78.4507 205.632C79.5307 205.632 80.3407 206.424 80.3407 207.504C80.3407 208.602 79.5307 209.376 78.4507 209.376C77.3707 209.376 76.5607 208.602 76.5607 207.504ZM76.5967 213.264C75.8587 212.832 75.1387 212.994 74.7787 213.624C74.4187 214.218 74.5987 214.974 75.3367 215.406C76.2187 215.928 77.1727 216.198 78.1627 216.198C79.8187 216.198 81.1327 215.622 82.0867 214.452C83.0587 213.282 83.5447 211.734 83.5447 209.808C83.5447 207.756 83.0947 206.136 82.1767 204.966C81.2767 203.778 80.0347 203.184 78.4687 203.184C77.2087 203.184 76.1287 203.58 75.2287 204.372C74.3467 205.146 73.8967 206.19 73.8967 207.486C73.8967 208.746 74.3287 209.772 75.1747 210.564C76.0387 211.356 77.0647 211.752 78.2707 211.752C79.4227 211.752 80.3407 211.374 81.0067 210.6C80.9887 211.536 80.7187 212.292 80.1967 212.886C79.6747 213.462 79.0267 213.75 78.2707 213.75C77.6587 213.75 77.1007 213.588 76.5967 213.264ZM86.0524 209.754C86.0344 210.708 86.6644 211.32 87.5104 211.32C88.0144 211.32 88.4104 211.122 88.6804 210.744C89.0764 210.204 89.6344 209.934 90.3724 209.934C91.5784 209.934 92.4424 210.762 92.4424 211.896C92.4424 212.994 91.5244 213.75 90.3184 213.75C89.6344 213.75 89.0044 213.534 88.4104 213.084C87.6724 212.562 86.9344 212.652 86.4844 213.282C86.0344 213.84 86.0884 214.704 86.8084 215.208C87.7444 215.874 88.8424 216.198 90.1204 216.198C91.5784 216.198 92.7844 215.784 93.7024 214.974C94.6384 214.164 95.1064 213.084 95.1064 211.752C95.1064 210.51 94.6744 209.502 93.8284 208.746C92.9824 207.972 91.9744 207.594 90.8044 207.594C89.9764 207.594 89.2744 207.792 88.6984 208.17L88.8064 205.866H92.9644C93.7744 205.866 94.2784 205.344 94.2784 204.642C94.2784 203.922 93.7744 203.4 92.9644 203.4H87.9604C86.8804 203.4 86.3044 203.976 86.2504 205.11L86.0524 209.754ZM97.3857 212.382C97.3857 213.552 97.8177 214.47 98.6637 215.172C99.5277 215.856 100.626 216.198 101.958 216.198C103.29 216.198 104.388 215.856 105.234 215.172C106.098 214.47 106.53 213.552 106.53 212.382C106.53 211.068 105.846 210.024 104.964 209.502C105.81 208.8 106.224 207.972 106.224 207C106.224 205.866 105.81 204.948 105 204.246C104.19 203.544 103.182 203.184 101.958 203.184C100.734 203.184 99.7077 203.544 98.8977 204.246C98.0877 204.948 97.6917 205.866 97.6917 207C97.6917 207.972 98.1237 208.8 98.9697 209.502C98.0517 210.024 97.3857 211.068 97.3857 212.382ZM101.958 205.632C102.84 205.632 103.56 206.154 103.56 207C103.56 207.846 102.84 208.368 101.958 208.368C101.094 208.368 100.356 207.846 100.356 207C100.356 206.154 101.094 205.632 101.958 205.632ZM101.958 213.75C100.824 213.75 100.05 213.174 100.05 212.238C100.05 211.302 100.824 210.708 101.958 210.708C103.11 210.708 103.866 211.302 103.866 212.238C103.866 213.174 103.11 213.75 101.958 213.75Z" fill="#F9D332"/>
<path d="M175.276 205.164C174.682 205.524 174.394 205.974 174.394 206.496C174.394 206.946 174.592 207.27 174.988 207.504C175.402 207.738 175.87 207.702 176.392 207.432L177.652 206.694V213.534H175.528C174.718 213.534 174.214 214.056 174.214 214.776C174.214 215.478 174.718 216 175.528 216H182.062C182.872 216 183.376 215.478 183.376 214.776C183.376 214.056 182.854 213.534 182.044 213.534H180.316V204.912C180.316 203.904 179.74 203.31 178.894 203.31C178.516 203.31 178.084 203.454 177.58 203.76L175.276 205.164ZM187.657 207.504C187.657 206.424 188.467 205.632 189.547 205.632C190.627 205.632 191.437 206.424 191.437 207.504C191.437 208.602 190.627 209.376 189.547 209.376C188.467 209.376 187.657 208.602 187.657 207.504ZM187.693 213.264C186.955 212.832 186.235 212.994 185.875 213.624C185.515 214.218 185.695 214.974 186.433 215.406C187.315 215.928 188.269 216.198 189.259 216.198C190.915 216.198 192.229 215.622 193.183 214.452C194.155 213.282 194.641 211.734 194.641 209.808C194.641 207.756 194.191 206.136 193.273 204.966C192.373 203.778 191.131 203.184 189.565 203.184C188.305 203.184 187.225 203.58 186.325 204.372C185.443 205.146 184.993 206.19 184.993 207.486C184.993 208.746 185.425 209.772 186.271 210.564C187.135 211.356 188.161 211.752 189.367 211.752C190.519 211.752 191.437 211.374 192.103 210.6C192.085 211.536 191.815 212.292 191.293 212.886C190.771 213.462 190.123 213.75 189.367 213.75C188.755 213.75 188.197 213.588 187.693 213.264ZM203.827 211.878C203.827 212.958 203.017 213.75 201.937 213.75C200.857 213.75 200.047 212.958 200.047 211.878C200.047 210.78 200.857 210.006 201.937 210.006C203.017 210.006 203.827 210.78 203.827 211.878ZM203.791 206.118C204.529 206.55 205.249 206.388 205.609 205.758C205.969 205.164 205.789 204.408 205.051 203.976C204.169 203.454 203.215 203.184 202.225 203.184C200.569 203.184 199.255 203.76 198.283 204.93C197.329 206.1 196.843 207.648 196.843 209.574C196.843 211.626 197.293 213.246 198.193 214.434C199.111 215.604 200.353 216.198 201.919 216.198C203.179 216.198 204.259 215.802 205.141 215.028C206.041 214.236 206.491 213.192 206.491 211.896C206.491 210.636 206.059 209.61 205.195 208.818C204.349 208.026 203.323 207.63 202.117 207.63C200.965 207.63 200.047 208.008 199.381 208.782C199.399 207.846 199.669 207.09 200.191 206.514C200.713 205.92 201.361 205.632 202.117 205.632C202.729 205.632 203.287 205.794 203.791 206.118ZM212.507 210.834C214.037 210.834 214.793 211.32 214.793 212.31C214.793 213.228 213.983 213.75 212.813 213.75C212.057 213.75 211.391 213.534 210.797 213.102C210.095 212.598 209.483 212.634 208.961 213.21C208.511 213.696 208.547 214.578 209.213 215.082C210.203 215.82 211.373 216.198 212.705 216.198C214.073 216.198 215.207 215.856 216.107 215.19C217.007 214.524 217.457 213.588 217.457 212.382C217.457 210.96 216.701 209.898 215.747 209.412C216.683 208.782 217.151 207.882 217.151 206.676C217.151 205.524 216.719 204.66 215.855 204.066C215.009 203.472 213.965 203.184 212.741 203.184C211.463 203.184 210.365 203.544 209.465 204.264C208.835 204.768 208.799 205.596 209.231 206.046C209.663 206.55 210.311 206.604 210.977 206.154C211.463 205.812 212.075 205.632 212.813 205.632C213.821 205.632 214.469 206.19 214.469 206.928C214.469 207.792 213.749 208.35 212.507 208.35C210.743 208.224 210.743 210.96 212.507 210.834Z" fill="#F9D332"/>
<path d="M289.531 205.164C288.937 205.524 288.649 205.974 288.649 206.496C288.649 206.946 288.847 207.27 289.243 207.504C289.657 207.738 290.125 207.702 290.647 207.432L291.907 206.694V213.534H289.783C288.973 213.534 288.469 214.056 288.469 214.776C288.469 215.478 288.973 216 289.783 216H296.317C297.127 216 297.631 215.478 297.631 214.776C297.631 214.056 297.109 213.534 296.299 213.534H294.571V204.912C294.571 203.904 293.995 203.31 293.149 203.31C292.771 203.31 292.339 203.454 291.835 203.76L289.531 205.164ZM301.912 207.504C301.912 206.424 302.722 205.632 303.802 205.632C304.882 205.632 305.692 206.424 305.692 207.504C305.692 208.602 304.882 209.376 303.802 209.376C302.722 209.376 301.912 208.602 301.912 207.504ZM301.948 213.264C301.21 212.832 300.49 212.994 300.13 213.624C299.77 214.218 299.95 214.974 300.688 215.406C301.57 215.928 302.524 216.198 303.514 216.198C305.17 216.198 306.484 215.622 307.438 214.452C308.41 213.282 308.896 211.734 308.896 209.808C308.896 207.756 308.446 206.136 307.528 204.966C306.628 203.778 305.386 203.184 303.82 203.184C302.56 203.184 301.48 203.58 300.58 204.372C299.698 205.146 299.248 206.19 299.248 207.486C299.248 208.746 299.68 209.772 300.526 210.564C301.39 211.356 302.416 211.752 303.622 211.752C304.774 211.752 305.692 211.374 306.358 210.6C306.34 211.536 306.07 212.292 305.548 212.886C305.026 213.462 304.378 213.75 303.622 213.75C303.01 213.75 302.452 213.588 301.948 213.264ZM310.792 206.748C310.792 207.612 311.35 208.134 312.088 208.134C312.826 208.134 313.384 207.612 313.384 206.748V205.866H316.768C314.608 208.494 313.402 211.428 313.132 214.668C313.06 215.532 313.672 216.09 314.464 216.09C315.22 216.09 315.67 215.622 315.796 214.668C316.282 211.266 317.596 208.368 319.756 205.974C320.044 205.668 320.188 205.308 320.188 204.912C320.188 204.048 319.576 203.4 318.586 203.4H312.502C311.422 203.4 310.792 204.03 310.792 205.11V206.748ZM327.059 206.748V210.978H324.161L327.059 206.748ZM329.723 205.326C329.723 204.084 328.913 203.31 327.833 203.31C327.167 203.31 326.645 203.562 326.303 204.084L321.605 210.852C321.407 211.158 321.299 211.482 321.299 211.806C321.299 212.67 321.911 213.336 322.937 213.336H327.059V214.668C327.059 215.55 327.617 216.09 328.391 216.09C329.129 216.09 329.723 215.55 329.723 214.668V213.336H330.389C332.045 213.462 332.045 210.87 330.389 210.978H329.723V205.326Z" fill="#F9D332"/>
<path d="M537.266 214.29C537.266 215.37 537.896 216 538.976 216H545.114C545.96 216 546.428 215.478 546.428 214.776C546.428 214.056 545.96 213.534 545.114 213.534H540.2C540.398 212.598 540.992 212.058 542.198 211.356L543.296 210.726C544.286 210.15 544.862 209.736 545.438 209.142C546.032 208.512 546.302 207.774 546.302 206.856C546.302 205.722 545.888 204.822 545.042 204.174C544.196 203.508 543.17 203.184 541.928 203.184C541.226 203.184 540.524 203.346 539.804 203.67C539.084 203.976 538.49 204.372 538.04 204.858C537.464 205.452 537.446 206.244 537.932 206.694C538.418 207.144 539.264 207.054 539.858 206.55C540.56 205.938 541.244 205.632 541.874 205.632C542.954 205.632 543.62 206.118 543.62 206.892C543.62 207.486 543.296 207.9 542.054 208.602L541.352 208.998C538.634 210.528 537.266 212.292 537.266 214.29ZM555.35 212.67C554.954 213.39 554.378 213.75 553.622 213.75C552.866 213.75 552.29 213.39 551.876 212.67C551.48 211.932 551.282 210.942 551.282 209.682C551.282 208.422 551.48 207.432 551.876 206.712C552.29 205.992 552.866 205.632 553.622 205.632C554.378 205.632 554.954 205.992 555.35 206.712C555.764 207.432 555.962 208.422 555.962 209.682C555.962 210.942 555.764 211.932 555.35 212.67ZM558.626 209.682C558.626 207.756 558.176 206.19 557.294 204.984C556.412 203.778 555.188 203.184 553.622 203.184C552.056 203.184 550.832 203.778 549.95 204.984C549.068 206.172 548.618 207.738 548.618 209.682C548.618 211.626 549.068 213.192 549.95 214.398C550.832 215.604 552.056 216.198 553.622 216.198C555.188 216.198 556.412 215.604 557.294 214.398C558.176 213.192 558.626 211.626 558.626 209.682ZM561.542 205.164C560.948 205.524 560.66 205.974 560.66 206.496C560.66 206.946 560.858 207.27 561.254 207.504C561.668 207.738 562.136 207.702 562.658 207.432L563.918 206.694V213.534H561.794C560.984 213.534 560.48 214.056 560.48 214.776C560.48 215.478 560.984 216 561.794 216H568.328C569.138 216 569.642 215.478 569.642 214.776C569.642 214.056 569.12 213.534 568.31 213.534H566.582V204.912C566.582 203.904 566.006 203.31 565.16 203.31C564.782 203.31 564.35 203.454 563.846 203.76L561.542 205.164ZM572.159 205.164C571.565 205.524 571.277 205.974 571.277 206.496C571.277 206.946 571.475 207.27 571.871 207.504C572.285 207.738 572.753 207.702 573.275 207.432L574.535 206.694V213.534H572.411C571.601 213.534 571.097 214.056 571.097 214.776C571.097 215.478 571.601 216 572.411 216H578.945C579.755 216 580.259 215.478 580.259 214.776C580.259 214.056 579.737 213.534 578.927 213.534H577.199V204.912C577.199 203.904 576.623 203.31 575.777 203.31C575.399 203.31 574.967 203.454 574.463 203.76L572.159 205.164Z" fill="#F9D332"/>
<path d="M688.651 214.29C688.651 215.37 689.281 216 690.361 216H696.499C697.345 216 697.813 215.478 697.813 214.776C697.813 214.056 697.345 213.534 696.499 213.534H691.585C691.783 212.598 692.377 212.058 693.583 211.356L694.681 210.726C695.671 210.15 696.247 209.736 696.823 209.142C697.417 208.512 697.687 207.774 697.687 206.856C697.687 205.722 697.273 204.822 696.427 204.174C695.581 203.508 694.555 203.184 693.313 203.184C692.611 203.184 691.909 203.346 691.189 203.67C690.469 203.976 689.875 204.372 689.425 204.858C688.849 205.452 688.831 206.244 689.317 206.694C689.803 207.144 690.649 207.054 691.243 206.55C691.945 205.938 692.629 205.632 693.259 205.632C694.339 205.632 695.005 206.118 695.005 206.892C695.005 207.486 694.681 207.9 693.439 208.602L692.737 208.998C690.019 210.528 688.651 212.292 688.651 214.29ZM706.735 212.67C706.339 213.39 705.763 213.75 705.007 213.75C704.251 213.75 703.675 213.39 703.261 212.67C702.865 211.932 702.667 210.942 702.667 209.682C702.667 208.422 702.865 207.432 703.261 206.712C703.675 205.992 704.251 205.632 705.007 205.632C705.763 205.632 706.339 205.992 706.735 206.712C707.149 207.432 707.347 208.422 707.347 209.682C707.347 210.942 707.149 211.932 706.735 212.67ZM710.011 209.682C710.011 207.756 709.561 206.19 708.679 204.984C707.797 203.778 706.573 203.184 705.007 203.184C703.441 203.184 702.217 203.778 701.335 204.984C700.453 206.172 700.003 207.738 700.003 209.682C700.003 211.626 700.453 213.192 701.335 214.398C702.217 215.604 703.441 216.198 705.007 216.198C706.573 216.198 707.797 215.604 708.679 214.398C709.561 213.192 710.011 211.626 710.011 209.682ZM712.927 205.164C712.333 205.524 712.045 205.974 712.045 206.496C712.045 206.946 712.243 207.27 712.639 207.504C713.053 207.738 713.521 207.702 714.043 207.432L715.303 206.694V213.534H713.179C712.369 213.534 711.865 214.056 711.865 214.776C711.865 215.478 712.369 216 713.179 216H719.713C720.523 216 721.027 215.478 721.027 214.776C721.027 214.056 720.505 213.534 719.695 213.534H717.967V204.912C717.967 203.904 717.391 203.31 716.545 203.31C716.167 203.31 715.735 203.454 715.231 203.76L712.927 205.164ZM729.718 211.878C729.718 212.958 728.908 213.75 727.828 213.75C726.748 213.75 725.938 212.958 725.938 211.878C725.938 210.78 726.748 210.006 727.828 210.006C728.908 210.006 729.718 210.78 729.718 211.878ZM729.682 206.118C730.42 206.55 731.14 206.388 731.5 205.758C731.86 205.164 731.68 204.408 730.942 203.976C730.06 203.454 729.106 203.184 728.116 203.184C726.46 203.184 725.146 203.76 724.174 204.93C723.22 206.1 722.734 207.648 722.734 209.574C722.734 211.626 723.184 213.246 724.084 214.434C725.002 215.604 726.244 216.198 727.81 216.198C729.07 216.198 730.15 215.802 731.032 215.028C731.932 214.236 732.382 213.192 732.382 211.896C732.382 210.636 731.95 209.61 731.086 208.818C730.24 208.026 729.214 207.63 728.008 207.63C726.856 207.63 725.938 208.008 725.272 208.782C725.29 207.846 725.56 207.09 726.082 206.514C726.604 205.92 727.252 205.632 728.008 205.632C728.62 205.632 729.178 205.794 729.682 206.118Z" fill="#F9D332"/>
<path d="M833.132 214.29C833.132 215.37 833.762 216 834.842 216H840.98C841.826 216 842.294 215.478 842.294 214.776C842.294 214.056 841.826 213.534 840.98 213.534H836.066C836.264 212.598 836.858 212.058 838.064 211.356L839.162 210.726C840.152 210.15 840.728 209.736 841.304 209.142C841.898 208.512 842.168 207.774 842.168 206.856C842.168 205.722 841.754 204.822 840.908 204.174C840.062 203.508 839.036 203.184 837.794 203.184C837.092 203.184 836.39 203.346 835.67 203.67C834.95 203.976 834.356 204.372 833.906 204.858C833.33 205.452 833.312 206.244 833.798 206.694C834.284 207.144 835.13 207.054 835.724 206.55C836.426 205.938 837.11 205.632 837.74 205.632C838.82 205.632 839.486 206.118 839.486 206.892C839.486 207.486 839.162 207.9 837.92 208.602L837.218 208.998C834.5 210.528 833.132 212.292 833.132 214.29ZM851.217 212.67C850.821 213.39 850.245 213.75 849.489 213.75C848.733 213.75 848.157 213.39 847.743 212.67C847.347 211.932 847.149 210.942 847.149 209.682C847.149 208.422 847.347 207.432 847.743 206.712C848.157 205.992 848.733 205.632 849.489 205.632C850.245 205.632 850.821 205.992 851.217 206.712C851.631 207.432 851.829 208.422 851.829 209.682C851.829 210.942 851.631 211.932 851.217 212.67ZM854.493 209.682C854.493 207.756 854.043 206.19 853.161 204.984C852.279 203.778 851.055 203.184 849.489 203.184C847.923 203.184 846.699 203.778 845.817 204.984C844.935 206.172 844.485 207.738 844.485 209.682C844.485 211.626 844.935 213.192 845.817 214.398C846.699 215.604 847.923 216.198 849.489 216.198C851.055 216.198 852.279 215.604 853.161 214.398C854.043 213.192 854.493 211.626 854.493 209.682ZM856.634 214.29C856.634 215.37 857.264 216 858.344 216H864.482C865.328 216 865.796 215.478 865.796 214.776C865.796 214.056 865.328 213.534 864.482 213.534H859.568C859.766 212.598 860.36 212.058 861.566 211.356L862.664 210.726C863.654 210.15 864.23 209.736 864.806 209.142C865.4 208.512 865.67 207.774 865.67 206.856C865.67 205.722 865.256 204.822 864.41 204.174C863.564 203.508 862.538 203.184 861.296 203.184C860.594 203.184 859.892 203.346 859.172 203.67C858.452 203.976 857.858 204.372 857.408 204.858C856.832 205.452 856.814 206.244 857.3 206.694C857.786 207.144 858.632 207.054 859.226 206.55C859.928 205.938 860.612 205.632 861.242 205.632C862.322 205.632 862.988 206.118 862.988 206.892C862.988 207.486 862.664 207.9 861.422 208.602L860.72 208.998C858.002 210.528 856.634 212.292 856.634 214.29ZM874.719 212.67C874.323 213.39 873.747 213.75 872.991 213.75C872.235 213.75 871.659 213.39 871.245 212.67C870.849 211.932 870.651 210.942 870.651 209.682C870.651 208.422 870.849 207.432 871.245 206.712C871.659 205.992 872.235 205.632 872.991 205.632C873.747 205.632 874.323 205.992 874.719 206.712C875.133 207.432 875.331 208.422 875.331 209.682C875.331 210.942 875.133 211.932 874.719 212.67ZM877.995 209.682C877.995 207.756 877.545 206.19 876.663 204.984C875.781 203.778 874.557 203.184 872.991 203.184C871.425 203.184 870.201 203.778 869.319 204.984C868.437 206.172 867.987 207.738 867.987 209.682C867.987 211.626 868.437 213.192 869.319 214.398C870.201 215.604 871.425 216.198 872.991 216.198C874.557 216.198 875.781 215.604 876.663 214.398C877.545 213.192 877.995 211.626 877.995 209.682Z" fill="#F9D332"/>
<path d="M964.835 214.29C964.835 215.37 965.465 216 966.545 216H972.683C973.529 216 973.997 215.478 973.997 214.776C973.997 214.056 973.529 213.534 972.683 213.534H967.769C967.967 212.598 968.561 212.058 969.767 211.356L970.865 210.726C971.855 210.15 972.431 209.736 973.007 209.142C973.601 208.512 973.871 207.774 973.871 206.856C973.871 205.722 973.457 204.822 972.611 204.174C971.765 203.508 970.739 203.184 969.497 203.184C968.795 203.184 968.093 203.346 967.373 203.67C966.653 203.976 966.059 204.372 965.609 204.858C965.033 205.452 965.015 206.244 965.501 206.694C965.987 207.144 966.833 207.054 967.427 206.55C968.129 205.938 968.813 205.632 969.443 205.632C970.523 205.632 971.189 206.118 971.189 206.892C971.189 207.486 970.865 207.9 969.623 208.602L968.921 208.998C966.203 210.528 964.835 212.292 964.835 214.29ZM982.92 212.67C982.524 213.39 981.948 213.75 981.192 213.75C980.436 213.75 979.86 213.39 979.446 212.67C979.05 211.932 978.852 210.942 978.852 209.682C978.852 208.422 979.05 207.432 979.446 206.712C979.86 205.992 980.436 205.632 981.192 205.632C981.948 205.632 982.524 205.992 982.92 206.712C983.334 207.432 983.532 208.422 983.532 209.682C983.532 210.942 983.334 211.932 982.92 212.67ZM986.196 209.682C986.196 207.756 985.746 206.19 984.864 204.984C983.982 203.778 982.758 203.184 981.192 203.184C979.626 203.184 978.402 203.778 977.52 204.984C976.638 206.172 976.188 207.738 976.188 209.682C976.188 211.626 976.638 213.192 977.52 214.398C978.402 215.604 979.626 216.198 981.192 216.198C982.758 216.198 983.982 215.604 984.864 214.398C985.746 213.192 986.196 211.626 986.196 209.682ZM988.337 214.29C988.337 215.37 988.967 216 990.047 216H996.185C997.031 216 997.499 215.478 997.499 214.776C997.499 214.056 997.031 213.534 996.185 213.534H991.271C991.469 212.598 992.063 212.058 993.269 211.356L994.367 210.726C995.357 210.15 995.933 209.736 996.509 209.142C997.103 208.512 997.373 207.774 997.373 206.856C997.373 205.722 996.959 204.822 996.113 204.174C995.267 203.508 994.241 203.184 992.999 203.184C992.297 203.184 991.595 203.346 990.875 203.67C990.155 203.976 989.561 204.372 989.111 204.858C988.535 205.452 988.517 206.244 989.003 206.694C989.489 207.144 990.335 207.054 990.929 206.55C991.631 205.938 992.315 205.632 992.945 205.632C994.025 205.632 994.691 206.118 994.691 206.892C994.691 207.486 994.367 207.9 993.125 208.602L992.423 208.998C989.705 210.528 988.337 212.292 988.337 214.29ZM1000.59 205.164C999.996 205.524 999.708 205.974 999.708 206.496C999.708 206.946 999.906 207.27 1000.3 207.504C1000.72 207.738 1001.18 207.702 1001.71 207.432L1002.97 206.694V213.534H1000.84C1000.03 213.534 999.528 214.056 999.528 214.776C999.528 215.478 1000.03 216 1000.84 216H1007.38C1008.19 216 1008.69 215.478 1008.69 214.776C1008.69 214.056 1008.17 213.534 1007.36 213.534H1005.63V204.912C1005.63 203.904 1005.05 203.31 1004.21 203.31C1003.83 203.31 1003.4 203.454 1002.89 203.76L1000.59 205.164Z" fill="#F9D332"/>
<ellipse cx="85.5" cy="329" rx="85.5" ry="85" fill="#F9D332"/>
<circle cx="308.5" cy="387.5" r="143.5" fill="#FF3B9D"/>
<ellipse cx="559" cy="84.5" rx="85" ry="84.5" fill="#F9D332"/>
<circle cx="711" cy="334" r="90" fill="#F9D332"/>
<ellipse cx="856" cy="84.5" rx="85" ry="84.5" fill="#F9D332"/>
<ellipse cx="986.5" cy="329" rx="85.5" ry="85" fill="#F9D332"/>
<path d="M145.242 53.316C145.242 53.838 145.476 54.09 145.926 54.09C146.376 54.09 146.61 53.838 146.61 53.316V48.222H152.082C152.586 48.222 152.838 47.934 152.838 47.574C152.838 47.142 152.586 46.926 152.082 46.926H146.61V42.696H152.514C153.018 42.696 153.27 42.408 153.27 42.048C153.27 41.616 153.018 41.4 152.514 41.4H146.052C145.602 41.4 145.242 41.778 145.242 42.228V53.316ZM162.547 45.846C162.547 45.342 162.331 45.09 161.881 45.09C161.431 45.09 161.215 45.342 161.215 45.846V49.536C161.215 51.804 160.387 52.938 158.713 52.938C157.291 52.938 156.499 52.056 156.499 50.4V45.846C156.499 45.342 156.283 45.09 155.833 45.09C155.383 45.09 155.167 45.342 155.167 45.846V50.292C155.167 52.812 156.301 54.198 158.533 54.198C159.667 54.198 160.585 53.766 161.269 52.902V53.352C161.269 53.838 161.485 54.09 161.899 54.09C162.277 54.09 162.547 53.838 162.547 53.352V45.846ZM165.808 53.334C165.808 53.838 166.024 54.09 166.474 54.09C166.924 54.09 167.14 53.838 167.14 53.334V49.626C167.14 47.52 168.076 46.206 169.804 46.206C171.226 46.206 172.054 47.124 172.054 48.762V53.334C172.054 53.838 172.27 54.09 172.72 54.09C173.098 54.09 173.404 53.838 173.404 53.334V48.87C173.404 46.368 172.144 44.964 169.894 44.964C168.796 44.964 167.698 45.486 167.104 46.26V45.828C167.104 45.342 166.888 45.09 166.456 45.09C166.096 45.09 165.808 45.342 165.808 45.828V53.334ZM177.925 47.178C178.447 46.548 179.131 46.224 180.013 46.224C180.895 46.224 181.579 46.548 182.101 47.178C182.623 47.808 182.893 48.618 182.893 49.59C182.893 50.562 182.623 51.372 182.101 52.002C181.579 52.632 180.895 52.956 180.013 52.956C179.131 52.956 178.447 52.632 177.925 52.002C177.403 51.372 177.151 50.562 177.151 49.59C177.151 48.618 177.403 47.808 177.925 47.178ZM184.189 42.066C184.189 41.562 183.973 41.31 183.523 41.31C183.073 41.31 182.857 41.562 182.857 42.066V46.35C182.065 45.432 181.075 44.964 179.887 44.964C178.681 44.964 177.709 45.414 176.935 46.314C176.161 47.196 175.783 48.294 175.783 49.59C175.783 50.886 176.161 51.984 176.935 52.866C177.709 53.748 178.681 54.198 179.887 54.198C181.093 54.198 182.083 53.73 182.893 52.794V53.352C182.893 54.324 184.189 54.324 184.189 53.352V42.066ZM188.208 47.142C188.892 46.512 189.594 46.206 190.332 46.206C191.61 46.206 192.384 46.926 192.384 48.276V48.546L189.972 48.834C188.028 49.05 186.714 50.04 186.714 51.606C186.714 53.208 187.938 54.198 189.594 54.198C190.764 54.198 191.826 53.676 192.42 53.01V53.352C192.42 54.324 193.716 54.324 193.716 53.352V48.42C193.716 46.188 192.456 44.964 190.35 44.964C189.216 44.964 188.028 45.54 187.308 46.314C187.002 46.674 187.02 47.016 187.29 47.25C187.56 47.484 187.866 47.448 188.208 47.142ZM188.046 51.642C188.046 50.76 188.712 50.238 190.044 50.076L192.384 49.788V51.606C191.862 52.398 190.764 53.01 189.666 53.01C188.676 53.01 188.046 52.452 188.046 51.642ZM208.155 53.334C208.155 53.838 208.371 54.09 208.821 54.09C209.271 54.09 209.487 53.838 209.487 53.334V48.87C209.487 46.35 208.335 44.964 206.175 44.964C205.023 44.964 203.961 45.486 203.331 46.422C202.773 45.45 201.873 44.964 200.613 44.964C199.569 44.964 198.759 45.36 198.165 46.152V45.828C198.165 45.342 197.949 45.09 197.517 45.09C197.157 45.09 196.869 45.342 196.869 45.828V53.334C196.869 53.838 197.085 54.09 197.535 54.09C197.985 54.09 198.201 53.838 198.201 53.334V49.14C198.201 47.43 199.137 46.206 200.523 46.206C201.837 46.206 202.503 47.088 202.503 48.852V53.334C202.503 53.838 202.719 54.09 203.169 54.09C203.619 54.09 203.835 53.838 203.835 53.334V49.14C203.835 47.268 204.645 46.206 206.103 46.206C207.471 46.206 208.155 47.052 208.155 48.762V53.334ZM216.457 54.198C217.735 54.198 218.797 53.748 219.643 52.866C220.489 51.966 220.921 50.868 220.921 49.59C220.921 48.312 220.489 47.214 219.625 46.314C218.779 45.414 217.717 44.964 216.457 44.964C215.197 44.964 214.135 45.414 213.289 46.314C212.443 47.214 212.029 48.312 212.029 49.59C212.029 50.868 212.443 51.966 213.289 52.866C214.135 53.748 215.197 54.198 216.457 54.198ZM216.457 52.956C215.575 52.956 214.837 52.632 214.261 52.002C213.685 51.354 213.397 50.544 213.397 49.59C213.397 48.636 213.685 47.826 214.261 47.196C214.837 46.548 215.575 46.224 216.457 46.224C217.357 46.224 218.095 46.548 218.671 47.196C219.247 47.826 219.535 48.636 219.535 49.59C219.535 50.544 219.247 51.354 218.671 52.002C218.095 52.632 217.357 52.956 216.457 52.956ZM228.52 46.89C228.934 47.232 229.258 47.25 229.528 46.962C229.834 46.638 229.798 46.314 229.438 45.972C228.718 45.306 227.818 44.964 226.756 44.964C225.928 44.964 225.208 45.198 224.614 45.648C224.02 46.098 223.714 46.71 223.714 47.502C223.714 48.798 224.542 49.644 226.216 50.04L227.53 50.346C228.448 50.562 228.916 50.994 228.916 51.624C228.916 52.47 228.178 52.974 226.936 52.974C226.054 52.974 225.298 52.668 224.65 52.038C224.344 51.732 224.02 51.714 223.714 52.02C223.426 52.308 223.444 52.614 223.75 52.956C224.56 53.784 225.622 54.198 226.954 54.198C228.952 54.198 230.248 53.118 230.248 51.552C230.248 50.292 229.42 49.464 227.746 49.068L226.36 48.744C225.478 48.546 225.046 48.114 225.046 47.448C225.046 46.71 225.712 46.206 226.666 46.206C227.368 46.206 227.98 46.44 228.52 46.89ZM239.334 42.048C239.334 41.562 239.118 41.31 238.668 41.31C238.29 41.31 238.002 41.562 238.002 42.048V53.334C238.002 53.838 238.218 54.09 238.668 54.09C239.118 54.09 239.334 53.838 239.334 53.334V42.048ZM243.35 47.142C244.034 46.512 244.736 46.206 245.474 46.206C246.752 46.206 247.526 46.926 247.526 48.276V48.546L245.114 48.834C243.17 49.05 241.856 50.04 241.856 51.606C241.856 53.208 243.08 54.198 244.736 54.198C245.906 54.198 246.968 53.676 247.562 53.01V53.352C247.562 54.324 248.858 54.324 248.858 53.352V48.42C248.858 46.188 247.598 44.964 245.492 44.964C244.358 44.964 243.17 45.54 242.45 46.314C242.144 46.674 242.162 47.016 242.432 47.25C242.702 47.484 243.008 47.448 243.35 47.142ZM243.188 51.642C243.188 50.76 243.854 50.238 245.186 50.076L247.526 49.788V51.606C247.004 52.398 245.906 53.01 244.808 53.01C243.818 53.01 243.188 52.452 243.188 51.642ZM131.05 69.788H125.938L128.476 63.146L131.05 69.788ZM123.148 73.082C122.968 73.568 123.094 73.874 123.526 74.036C123.94 74.198 124.246 74.036 124.444 73.55L125.398 71.102H131.554L132.526 73.55C132.724 74.036 133.03 74.198 133.444 74.036C133.876 73.874 134.002 73.568 133.822 73.082L129.538 62.084C129.34 61.562 128.998 61.31 128.494 61.31C128.008 61.31 127.648 61.562 127.45 62.066L123.148 73.082ZM141.007 66.89C141.421 67.232 141.745 67.25 142.015 66.962C142.321 66.638 142.285 66.314 141.925 65.972C141.205 65.306 140.305 64.964 139.243 64.964C138.415 64.964 137.695 65.198 137.101 65.648C136.507 66.098 136.201 66.71 136.201 67.502C136.201 68.798 137.029 69.644 138.703 70.04L140.017 70.346C140.935 70.562 141.403 70.994 141.403 71.624C141.403 72.47 140.665 72.974 139.423 72.974C138.541 72.974 137.785 72.668 137.137 72.038C136.831 71.732 136.507 71.714 136.201 72.02C135.913 72.308 135.931 72.614 136.237 72.956C137.047 73.784 138.109 74.198 139.441 74.198C141.439 74.198 142.735 73.118 142.735 71.552C142.735 70.292 141.907 69.464 140.233 69.068L138.847 68.744C137.965 68.546 137.533 68.114 137.533 67.448C137.533 66.71 138.199 66.206 139.153 66.206C139.855 66.206 140.467 66.44 141.007 66.89ZM148.86 74.198C150.138 74.198 151.2 73.748 152.046 72.866C152.892 71.966 153.324 70.868 153.324 69.59C153.324 68.312 152.892 67.214 152.028 66.314C151.182 65.414 150.12 64.964 148.86 64.964C147.6 64.964 146.538 65.414 145.692 66.314C144.846 67.214 144.432 68.312 144.432 69.59C144.432 70.868 144.846 71.966 145.692 72.866C146.538 73.748 147.6 74.198 148.86 74.198ZM148.86 72.956C147.978 72.956 147.24 72.632 146.664 72.002C146.088 71.354 145.8 70.544 145.8 69.59C145.8 68.636 146.088 67.826 146.664 67.196C147.24 66.548 147.978 66.224 148.86 66.224C149.76 66.224 150.498 66.548 151.074 67.196C151.65 67.826 151.938 68.636 151.938 69.59C151.938 70.544 151.65 71.354 151.074 72.002C150.498 72.632 149.76 72.956 148.86 72.956ZM162.163 66.998C162.541 67.304 162.865 67.304 163.135 67.034C163.405 66.728 163.369 66.404 163.045 66.08C162.307 65.342 161.335 64.964 160.147 64.964C158.905 64.964 157.843 65.414 156.961 66.332C156.097 67.232 155.665 68.312 155.665 69.59C155.665 70.868 156.079 71.966 156.925 72.866C157.771 73.748 158.833 74.198 160.093 74.198C161.335 74.198 162.379 73.784 163.225 72.974C163.549 72.65 163.585 72.326 163.315 72.02C163.009 71.714 162.685 71.714 162.343 72.056C161.749 72.65 161.029 72.956 160.201 72.956C158.239 72.956 157.033 71.552 157.033 69.59C157.033 68.636 157.321 67.826 157.915 67.196C158.509 66.548 159.247 66.224 160.147 66.224C160.885 66.224 161.551 66.476 162.163 66.998ZM166.135 62.984C166.549 63.362 167.179 63.362 167.557 62.984C167.971 62.57 167.971 61.94 167.557 61.562C167.179 61.184 166.549 61.184 166.135 61.562C165.757 61.94 165.757 62.57 166.135 62.984ZM167.521 65.828C167.521 65.342 167.305 65.09 166.855 65.09C166.477 65.09 166.189 65.342 166.189 65.828V73.334C166.189 73.838 166.405 74.09 166.855 74.09C167.305 74.09 167.521 73.838 167.521 73.334V65.828ZM171.675 67.142C172.359 66.512 173.061 66.206 173.799 66.206C175.077 66.206 175.851 66.926 175.851 68.276V68.546L173.439 68.834C171.495 69.05 170.181 70.04 170.181 71.606C170.181 73.208 171.405 74.198 173.061 74.198C174.231 74.198 175.293 73.676 175.887 73.01V73.352C175.887 74.324 177.183 74.324 177.183 73.352V68.42C177.183 66.188 175.923 64.964 173.817 64.964C172.683 64.964 171.495 65.54 170.775 66.314C170.469 66.674 170.487 67.016 170.757 67.25C171.027 67.484 171.333 67.448 171.675 67.142ZM171.513 71.642C171.513 70.76 172.179 70.238 173.511 70.076L175.851 69.788V71.606C175.329 72.398 174.231 73.01 173.133 73.01C172.143 73.01 171.513 72.452 171.513 71.642ZM186.227 66.998C186.605 67.304 186.929 67.304 187.199 67.034C187.469 66.728 187.433 66.404 187.109 66.08C186.371 65.342 185.399 64.964 184.211 64.964C182.969 64.964 181.907 65.414 181.025 66.332C180.161 67.232 179.729 68.312 179.729 69.59C179.729 70.868 180.143 71.966 180.989 72.866C181.835 73.748 182.897 74.198 184.157 74.198C185.399 74.198 186.443 73.784 187.289 72.974C187.613 72.65 187.649 72.326 187.379 72.02C187.073 71.714 186.749 71.714 186.407 72.056C185.813 72.65 185.093 72.956 184.265 72.956C182.303 72.956 181.097 71.552 181.097 69.59C181.097 68.636 181.385 67.826 181.979 67.196C182.573 66.548 183.311 66.224 184.211 66.224C184.949 66.224 185.615 66.476 186.227 66.998ZM190.2 62.984C190.614 63.362 191.244 63.362 191.622 62.984C192.036 62.57 192.036 61.94 191.622 61.562C191.244 61.184 190.614 61.184 190.2 61.562C189.822 61.94 189.822 62.57 190.2 62.984ZM191.586 65.828C191.586 65.342 191.37 65.09 190.92 65.09C190.542 65.09 190.254 65.342 190.254 65.828V73.334C190.254 73.838 190.47 74.09 190.92 74.09C191.37 74.09 191.586 73.838 191.586 73.334V65.828ZM198.8 74.198C200.078 74.198 201.14 73.748 201.986 72.866C202.832 71.966 203.264 70.868 203.264 69.59C203.264 68.312 202.832 67.214 201.968 66.314C201.122 65.414 200.06 64.964 198.8 64.964C197.54 64.964 196.478 65.414 195.632 66.314C194.786 67.214 194.372 68.312 194.372 69.59C194.372 70.868 194.786 71.966 195.632 72.866C196.478 73.748 197.54 74.198 198.8 74.198ZM198.8 72.956C197.918 72.956 197.18 72.632 196.604 72.002C196.028 71.354 195.74 70.544 195.74 69.59C195.74 68.636 196.028 67.826 196.604 67.196C197.18 66.548 197.918 66.224 198.8 66.224C199.7 66.224 200.438 66.548 201.014 67.196C201.59 67.826 201.878 68.636 201.878 69.59C201.878 70.544 201.59 71.354 201.014 72.002C200.438 72.632 199.7 72.956 198.8 72.956ZM197.522 62.75C197.18 63.002 197.09 63.272 197.252 63.56C197.45 63.884 197.738 63.938 198.098 63.704L200.042 62.552C200.456 62.282 200.546 61.976 200.348 61.616C200.096 61.238 199.772 61.184 199.376 61.454L197.522 62.75ZM205.913 73.334C205.913 73.838 206.129 74.09 206.579 74.09C207.029 74.09 207.245 73.838 207.245 73.334V69.626C207.245 67.52 208.181 66.206 209.909 66.206C211.331 66.206 212.159 67.124 212.159 68.762V73.334C212.159 73.838 212.375 74.09 212.825 74.09C213.203 74.09 213.509 73.838 213.509 73.334V68.87C213.509 66.368 212.249 64.964 209.999 64.964C208.901 64.964 207.803 65.486 207.209 66.26V65.828C207.209 65.342 206.993 65.09 206.561 65.09C206.201 65.09 205.913 65.342 205.913 65.828V73.334ZM231.433 62.066C231.433 61.544 231.199 61.292 230.749 61.292C230.299 61.292 230.065 61.544 230.065 62.066V66.926H223.207V62.066C223.207 61.544 222.973 61.292 222.523 61.292C222.073 61.292 221.839 61.544 221.839 62.066V73.316C221.839 73.838 222.073 74.09 222.523 74.09C222.973 74.09 223.207 73.838 223.207 73.316V68.222H230.065V73.316C230.065 73.838 230.299 74.09 230.749 74.09C231.199 74.09 231.433 73.838 231.433 73.316V62.066ZM238.509 74.198C239.787 74.198 240.849 73.748 241.695 72.866C242.541 71.966 242.973 70.868 242.973 69.59C242.973 68.312 242.541 67.214 241.677 66.314C240.831 65.414 239.769 64.964 238.509 64.964C237.249 64.964 236.187 65.414 235.341 66.314C234.495 67.214 234.081 68.312 234.081 69.59C234.081 70.868 234.495 71.966 235.341 72.866C236.187 73.748 237.249 74.198 238.509 74.198ZM238.509 72.956C237.627 72.956 236.889 72.632 236.313 72.002C235.737 71.354 235.449 70.544 235.449 69.59C235.449 68.636 235.737 67.826 236.313 67.196C236.889 66.548 237.627 66.224 238.509 66.224C239.409 66.224 240.147 66.548 240.723 67.196C241.299 67.826 241.587 68.636 241.587 69.59C241.587 70.544 241.299 71.354 240.723 72.002C240.147 72.632 239.409 72.956 238.509 72.956ZM246.681 69.392C246.681 68.456 246.933 67.7 247.455 67.106C247.977 66.512 248.625 66.224 249.435 66.224C250.245 66.224 250.911 66.512 251.433 67.106C251.955 67.7 252.225 68.456 252.225 69.392C252.225 70.31 251.955 71.066 251.433 71.66C250.911 72.254 250.245 72.542 249.435 72.542C248.625 72.542 247.977 72.254 247.455 71.66C246.933 71.066 246.681 70.31 246.681 69.392ZM245.925 76.16C246.735 77.186 247.851 77.69 249.273 77.69C251.883 77.69 253.521 75.962 253.521 73.28V65.81C253.521 64.82 252.225 64.82 252.225 65.81V66.314C251.523 65.414 250.551 64.964 249.309 64.964C248.175 64.964 247.239 65.378 246.465 66.224C245.691 67.07 245.313 68.114 245.313 69.392C245.313 70.652 245.691 71.696 246.465 72.542C247.239 73.388 248.175 73.802 249.309 73.802C250.569 73.802 251.523 73.352 252.189 72.47V73.388C252.189 75.242 251.163 76.466 249.273 76.466C248.355 76.466 247.581 76.088 246.933 75.332C246.609 74.954 246.285 74.918 245.961 75.188C245.637 75.458 245.619 75.782 245.925 76.16ZM257.527 67.142C258.211 66.512 258.913 66.206 259.651 66.206C260.929 66.206 261.703 66.926 261.703 68.276V68.546L259.291 68.834C257.347 69.05 256.033 70.04 256.033 71.606C256.033 73.208 257.257 74.198 258.913 74.198C260.083 74.198 261.145 73.676 261.739 73.01V73.352C261.739 74.324 263.035 74.324 263.035 73.352V68.42C263.035 66.188 261.775 64.964 259.669 64.964C258.535 64.964 257.347 65.54 256.627 66.314C256.321 66.674 256.339 67.016 256.609 67.25C256.879 67.484 257.185 67.448 257.527 67.142ZM257.365 71.642C257.365 70.76 258.031 70.238 259.363 70.076L261.703 69.788V71.606C261.181 72.398 260.083 73.01 258.985 73.01C257.995 73.01 257.365 72.452 257.365 71.642ZM270.364 66.332C270.49 66.332 270.652 66.35 270.868 66.386C271.354 66.458 271.624 66.17 271.624 65.792C271.624 65.432 271.426 65.216 271.012 65.126L270.364 65.054C269.122 65.054 268.168 65.468 267.484 66.296V65.828C267.484 65.342 267.268 65.09 266.836 65.09C266.476 65.09 266.188 65.342 266.188 65.828V73.334C266.188 73.838 266.404 74.09 266.854 74.09C267.304 74.09 267.52 73.838 267.52 73.334V70.238C267.52 67.412 268.366 66.332 270.364 66.332ZM136.771 82.696C138.643 82.696 139.813 83.668 139.813 85.378C139.813 87.16 138.643 88.078 136.771 88.078H133.549V82.696H136.771ZM139.669 93.748C139.957 94.126 140.425 94.162 140.713 93.928C141.037 93.658 141.055 93.316 140.749 92.902L138.085 89.212C140.011 88.726 141.181 87.322 141.181 85.378C141.181 84.172 140.767 83.2 139.921 82.48C139.093 81.76 137.977 81.4 136.573 81.4H132.991C132.541 81.4 132.181 81.778 132.181 82.228V93.316C132.181 93.838 132.415 94.09 132.865 94.09C133.315 94.09 133.549 93.838 133.549 93.316V89.356H136.573L139.669 93.748ZM147.405 86.224C148.863 86.224 149.799 87.25 149.817 88.816H144.633C144.849 87.304 145.893 86.224 147.405 86.224ZM151.167 89.176C151.167 87.196 150.105 84.964 147.369 84.964C146.163 84.964 145.173 85.414 144.381 86.332C143.607 87.25 143.211 88.348 143.211 89.644C143.211 90.994 143.607 92.092 144.381 92.938C145.173 93.784 146.235 94.198 147.549 94.198C148.719 94.198 149.727 93.784 150.573 92.974C150.897 92.65 150.933 92.326 150.663 92.02C150.357 91.714 150.033 91.714 149.691 92.056C149.097 92.65 148.377 92.956 147.549 92.956C145.821 92.956 144.705 91.858 144.579 90.004H150.249C150.861 90.004 151.167 89.734 151.167 89.176ZM158.77 86.89C159.184 87.232 159.508 87.25 159.778 86.962C160.084 86.638 160.048 86.314 159.688 85.972C158.968 85.306 158.068 84.964 157.006 84.964C156.178 84.964 155.458 85.198 154.864 85.648C154.27 86.098 153.964 86.71 153.964 87.502C153.964 88.798 154.792 89.644 156.466 90.04L157.78 90.346C158.698 90.562 159.166 90.994 159.166 91.624C159.166 92.47 158.428 92.974 157.186 92.974C156.304 92.974 155.548 92.668 154.9 92.038C154.594 91.732 154.27 91.714 153.964 92.02C153.676 92.308 153.694 92.614 154 92.956C154.81 93.784 155.872 94.198 157.204 94.198C159.202 94.198 160.498 93.118 160.498 91.552C160.498 90.292 159.67 89.464 157.996 89.068L156.61 88.744C155.728 88.546 155.296 88.114 155.296 87.448C155.296 86.71 155.962 86.206 156.916 86.206C157.618 86.206 158.23 86.44 158.77 86.89ZM162.787 82.984C163.201 83.362 163.831 83.362 164.209 82.984C164.623 82.57 164.623 81.94 164.209 81.562C163.831 81.184 163.201 81.184 162.787 81.562C162.409 81.94 162.409 82.57 162.787 82.984ZM164.173 85.828C164.173 85.342 163.957 85.09 163.507 85.09C163.129 85.09 162.841 85.342 162.841 85.828V93.334C162.841 93.838 163.057 94.09 163.507 94.09C163.957 94.09 164.173 93.838 164.173 93.334V85.828ZM169.101 87.178C169.623 86.548 170.307 86.224 171.189 86.224C172.071 86.224 172.755 86.548 173.277 87.178C173.799 87.808 174.069 88.618 174.069 89.59C174.069 90.562 173.799 91.372 173.277 92.002C172.755 92.632 172.071 92.956 171.189 92.956C170.307 92.956 169.623 92.632 169.101 92.002C168.579 91.372 168.327 90.562 168.327 89.59C168.327 88.618 168.579 87.808 169.101 87.178ZM175.365 82.066C175.365 81.562 175.149 81.31 174.699 81.31C174.249 81.31 174.033 81.562 174.033 82.066V86.35C173.241 85.432 172.251 84.964 171.063 84.964C169.857 84.964 168.885 85.414 168.111 86.314C167.337 87.196 166.959 88.294 166.959 89.59C166.959 90.886 167.337 91.984 168.111 92.866C168.885 93.748 169.857 94.198 171.063 94.198C172.269 94.198 173.259 93.73 174.069 92.794V93.352C174.069 94.324 175.365 94.324 175.365 93.352V82.066ZM182.209 86.224C183.667 86.224 184.603 87.25 184.621 88.816H179.437C179.653 87.304 180.697 86.224 182.209 86.224ZM185.971 89.176C185.971 87.196 184.909 84.964 182.173 84.964C180.967 84.964 179.977 85.414 179.185 86.332C178.411 87.25 178.015 88.348 178.015 89.644C178.015 90.994 178.411 92.092 179.185 92.938C179.977 93.784 181.039 94.198 182.353 94.198C183.523 94.198 184.531 93.784 185.377 92.974C185.701 92.65 185.737 92.326 185.467 92.02C185.161 91.714 184.837 91.714 184.495 92.056C183.901 92.65 183.181 92.956 182.353 92.956C180.625 92.956 179.509 91.858 179.383 90.004H185.053C185.665 90.004 185.971 89.734 185.971 89.176ZM188.625 93.334C188.625 93.838 188.841 94.09 189.291 94.09C189.741 94.09 189.957 93.838 189.957 93.334V89.626C189.957 87.52 190.893 86.206 192.621 86.206C194.043 86.206 194.871 87.124 194.871 88.762V93.334C194.871 93.838 195.087 94.09 195.537 94.09C195.915 94.09 196.221 93.838 196.221 93.334V88.87C196.221 86.368 194.961 84.964 192.711 84.964C191.613 84.964 190.515 85.486 189.921 86.26V85.828C189.921 85.342 189.705 85.09 189.273 85.09C188.913 85.09 188.625 85.342 188.625 85.828V93.334ZM205.097 86.998C205.475 87.304 205.799 87.304 206.069 87.034C206.339 86.728 206.303 86.404 205.979 86.08C205.241 85.342 204.269 84.964 203.081 84.964C201.839 84.964 200.777 85.414 199.895 86.332C199.031 87.232 198.599 88.312 198.599 89.59C198.599 90.868 199.013 91.966 199.859 92.866C200.705 93.748 201.767 94.198 203.027 94.198C204.269 94.198 205.313 93.784 206.159 92.974C206.483 92.65 206.519 92.326 206.249 92.02C205.943 91.714 205.619 91.714 205.277 92.056C204.683 92.65 203.963 92.956 203.135 92.956C201.173 92.956 199.967 91.552 199.967 89.59C199.967 88.636 200.255 87.826 200.849 87.196C201.443 86.548 202.181 86.224 203.081 86.224C203.819 86.224 204.485 86.476 205.097 86.998ZM209.07 82.984C209.484 83.362 210.114 83.362 210.492 82.984C210.906 82.57 210.906 81.94 210.492 81.562C210.114 81.184 209.484 81.184 209.07 81.562C208.692 81.94 208.692 82.57 209.07 82.984ZM210.456 85.828C210.456 85.342 210.24 85.09 209.79 85.09C209.412 85.09 209.124 85.342 209.124 85.828V93.334C209.124 93.838 209.34 94.09 209.79 94.09C210.24 94.09 210.456 93.838 210.456 93.334V85.828ZM214.61 87.142C215.294 86.512 215.996 86.206 216.734 86.206C218.012 86.206 218.786 86.926 218.786 88.276V88.546L216.374 88.834C214.43 89.05 213.116 90.04 213.116 91.606C213.116 93.208 214.34 94.198 215.996 94.198C217.166 94.198 218.228 93.676 218.822 93.01V93.352C218.822 94.324 220.118 94.324 220.118 93.352V88.42C220.118 86.188 218.858 84.964 216.752 84.964C215.618 84.964 214.43 85.54 213.71 86.314C213.404 86.674 213.422 87.016 213.692 87.25C213.962 87.484 214.268 87.448 214.61 87.142ZM214.448 91.642C214.448 90.76 215.114 90.238 216.446 90.076L218.786 89.788V91.606C218.264 92.398 217.166 93.01 216.068 93.01C215.078 93.01 214.448 92.452 214.448 91.642ZM224.603 82.048C224.603 81.562 224.387 81.31 223.937 81.31C223.559 81.31 223.271 81.562 223.271 82.048V93.334C223.271 93.838 223.487 94.09 223.937 94.09C224.387 94.09 224.603 93.838 224.603 93.334V82.048ZM240.889 83.65C241.267 83.992 241.609 84.028 241.915 83.758C242.257 83.452 242.239 83.11 241.897 82.732C240.889 81.706 239.557 81.184 237.919 81.184C236.749 81.184 235.723 81.508 234.859 82.138C233.995 82.768 233.563 83.614 233.563 84.676C233.563 85.648 233.905 86.422 234.571 86.998C235.237 87.574 236.101 87.952 237.127 88.132L238.675 88.402C240.439 88.708 241.321 89.464 241.321 90.67C241.321 92.092 240.025 92.92 238.243 92.92C236.713 92.92 235.507 92.434 234.625 91.444C234.283 91.066 233.941 91.03 233.599 91.336C233.257 91.642 233.275 91.984 233.617 92.362C234.553 93.37 236.119 94.198 238.081 94.198C239.467 94.198 240.583 93.856 241.429 93.19C242.275 92.524 242.689 91.678 242.689 90.652C242.689 88.69 241.303 87.484 238.855 87.052L237.613 86.836C235.831 86.548 234.931 85.81 234.931 84.622C234.931 83.344 236.155 82.462 237.811 82.462C239.053 82.462 240.079 82.858 240.889 83.65ZM245.829 87.142C246.513 86.512 247.215 86.206 247.953 86.206C249.231 86.206 250.005 86.926 250.005 88.276V88.546L247.593 88.834C245.649 89.05 244.335 90.04 244.335 91.606C244.335 93.208 245.559 94.198 247.215 94.198C248.385 94.198 249.447 93.676 250.041 93.01V93.352C250.041 94.324 251.337 94.324 251.337 93.352V88.42C251.337 86.188 250.077 84.964 247.971 84.964C246.837 84.964 245.649 85.54 244.929 86.314C244.623 86.674 244.641 87.016 244.911 87.25C245.181 87.484 245.487 87.448 245.829 87.142ZM245.667 91.642C245.667 90.76 246.333 90.238 247.665 90.076L250.005 89.788V91.606C249.483 92.398 248.385 93.01 247.287 93.01C246.297 93.01 245.667 92.452 245.667 91.642ZM254.49 93.334C254.49 93.838 254.706 94.09 255.156 94.09C255.606 94.09 255.822 93.838 255.822 93.334V89.626C255.822 87.52 256.758 86.206 258.486 86.206C259.908 86.206 260.736 87.124 260.736 88.762V93.334C260.736 93.838 260.952 94.09 261.402 94.09C261.78 94.09 262.086 93.838 262.086 93.334V88.87C262.086 86.368 260.826 84.964 258.576 84.964C257.478 84.964 256.38 85.486 255.786 86.26V85.828C255.786 85.342 255.57 85.09 255.138 85.09C254.778 85.09 254.49 85.342 254.49 85.828V93.334ZM137.888 112.38C138.104 112.164 138.212 111.912 138.212 111.606V108.546C138.212 108.096 137.852 107.718 137.402 107.718H133.964C133.46 107.718 133.208 107.934 133.208 108.366C133.208 108.726 133.46 109.014 133.964 109.014H136.88V111.552C135.962 112.47 134.81 112.92 133.388 112.92C131.966 112.92 130.778 112.416 129.824 111.426C128.888 110.418 128.42 109.176 128.42 107.718C128.42 106.224 128.888 104.982 129.806 103.974C130.742 102.966 131.912 102.462 133.298 102.462C134.648 102.462 135.782 102.93 136.7 103.848C137.042 104.19 137.384 104.208 137.708 103.902C138.014 103.596 137.978 103.254 137.636 102.912C136.484 101.76 135.044 101.184 133.298 101.184C131.516 101.184 130.04 101.814 128.834 103.092C127.646 104.37 127.052 105.9 127.052 107.718C127.052 109.518 127.646 111.048 128.852 112.308C130.058 113.568 131.57 114.198 133.388 114.198C135.134 114.198 136.646 113.586 137.888 112.38ZM142.1 107.142C142.784 106.512 143.486 106.206 144.224 106.206C145.502 106.206 146.276 106.926 146.276 108.276V108.546L143.864 108.834C141.92 109.05 140.606 110.04 140.606 111.606C140.606 113.208 141.83 114.198 143.486 114.198C144.656 114.198 145.718 113.676 146.312 113.01V113.352C146.312 114.324 147.608 114.324 147.608 113.352V108.42C147.608 106.188 146.348 104.964 144.242 104.964C143.108 104.964 141.92 105.54 141.2 106.314C140.894 106.674 140.912 107.016 141.182 107.25C141.452 107.484 141.758 107.448 142.1 107.142ZM141.938 111.642C141.938 110.76 142.604 110.238 143.936 110.076L146.276 109.788V111.606C145.754 112.398 144.656 113.01 143.558 113.01C142.568 113.01 141.938 112.452 141.938 111.642ZM157.025 112.002C156.503 112.632 155.819 112.956 154.937 112.956C154.055 112.956 153.353 112.632 152.831 112.002C152.309 111.372 152.057 110.562 152.057 109.59C152.057 108.618 152.309 107.808 152.831 107.178C153.353 106.548 154.055 106.224 154.937 106.224C155.819 106.224 156.503 106.548 157.025 107.178C157.547 107.808 157.799 108.618 157.799 109.59C157.799 110.562 157.547 111.372 157.025 112.002ZM150.761 113.352C150.761 114.324 152.057 114.324 152.057 113.352V112.794C152.867 113.73 153.857 114.198 155.063 114.198C156.269 114.198 157.241 113.748 158.015 112.866C158.789 111.984 159.167 110.886 159.167 109.59C159.167 108.294 158.789 107.196 158.015 106.314C157.241 105.414 156.269 104.964 155.063 104.964C153.875 104.964 152.885 105.432 152.093 106.35V102.066C152.093 101.562 151.877 101.31 151.427 101.31C150.977 101.31 150.761 101.562 150.761 102.066V113.352ZM165.994 106.332C166.12 106.332 166.282 106.35 166.498 106.386C166.984 106.458 167.254 106.17 167.254 105.792C167.254 105.432 167.056 105.216 166.642 105.126L165.994 105.054C164.752 105.054 163.798 105.468 163.114 106.296V105.828C163.114 105.342 162.898 105.09 162.466 105.09C162.106 105.09 161.818 105.342 161.818 105.828V113.334C161.818 113.838 162.034 114.09 162.484 114.09C162.934 114.09 163.15 113.838 163.15 113.334V110.238C163.15 107.412 163.996 106.332 165.994 106.332ZM169.308 102.984C169.722 103.362 170.352 103.362 170.73 102.984C171.144 102.57 171.144 101.94 170.73 101.562C170.352 101.184 169.722 101.184 169.308 101.562C168.93 101.94 168.93 102.57 169.308 102.984ZM170.694 105.828C170.694 105.342 170.478 105.09 170.028 105.09C169.65 105.09 169.362 105.342 169.362 105.828V113.334C169.362 113.838 169.578 114.09 170.028 114.09C170.478 114.09 170.694 113.838 170.694 113.334V105.828ZM177.674 106.224C179.132 106.224 180.068 107.25 180.086 108.816H174.902C175.118 107.304 176.162 106.224 177.674 106.224ZM181.436 109.176C181.436 107.196 180.374 104.964 177.638 104.964C176.432 104.964 175.442 105.414 174.65 106.332C173.876 107.25 173.48 108.348 173.48 109.644C173.48 110.994 173.876 112.092 174.65 112.938C175.442 113.784 176.504 114.198 177.818 114.198C178.988 114.198 179.996 113.784 180.842 112.974C181.166 112.65 181.202 112.326 180.932 112.02C180.626 111.714 180.302 111.714 179.96 112.056C179.366 112.65 178.646 112.956 177.818 112.956C176.09 112.956 174.974 111.858 174.848 110.004H180.518C181.13 110.004 181.436 109.734 181.436 109.176ZM185.422 102.048C185.422 101.562 185.206 101.31 184.756 101.31C184.378 101.31 184.09 101.562 184.09 102.048V113.334C184.09 113.838 184.306 114.09 184.756 114.09C185.206 114.09 185.422 113.838 185.422 113.334V102.048ZM201.617 109.788H196.505L199.043 103.146L201.617 109.788ZM193.715 113.082C193.535 113.568 193.661 113.874 194.093 114.036C194.507 114.198 194.813 114.036 195.011 113.55L195.965 111.102H202.121L203.093 113.55C203.291 114.036 203.597 114.198 204.011 114.036C204.443 113.874 204.569 113.568 204.389 113.082L200.105 102.084C199.907 101.562 199.565 101.31 199.061 101.31C198.575 101.31 198.215 101.562 198.017 102.066L193.715 113.082ZM210.801 106.332C210.927 106.332 211.089 106.35 211.305 106.386C211.791 106.458 212.061 106.17 212.061 105.792C212.061 105.432 211.863 105.216 211.449 105.126L210.801 105.054C209.559 105.054 208.605 105.468 207.921 106.296V105.828C207.921 105.342 207.705 105.09 207.273 105.09C206.913 105.09 206.625 105.342 206.625 105.828V113.334C206.625 113.838 206.841 114.09 207.291 114.09C207.741 114.09 207.957 113.838 207.957 113.334V110.238C207.957 107.412 208.803 106.332 210.801 106.332ZM219.933 106.998C220.311 107.304 220.635 107.304 220.905 107.034C221.175 106.728 221.139 106.404 220.815 106.08C220.077 105.342 219.105 104.964 217.917 104.964C216.675 104.964 215.613 105.414 214.731 106.332C213.867 107.232 213.435 108.312 213.435 109.59C213.435 110.868 213.849 111.966 214.695 112.866C215.541 113.748 216.603 114.198 217.863 114.198C219.105 114.198 220.149 113.784 220.995 112.974C221.319 112.65 221.355 112.326 221.085 112.02C220.779 111.714 220.455 111.714 220.113 112.056C219.519 112.65 218.799 112.956 217.971 112.956C216.009 112.956 214.803 111.552 214.803 109.59C214.803 108.636 215.091 107.826 215.685 107.196C216.279 106.548 217.017 106.224 217.917 106.224C218.655 106.224 219.321 106.476 219.933 106.998ZM224.914 107.142C225.598 106.512 226.3 106.206 227.038 106.206C228.316 106.206 229.09 106.926 229.09 108.276V108.546L226.678 108.834C224.734 109.05 223.42 110.04 223.42 111.606C223.42 113.208 224.644 114.198 226.3 114.198C227.47 114.198 228.532 113.676 229.126 113.01V113.352C229.126 114.324 230.422 114.324 230.422 113.352V108.42C230.422 106.188 229.162 104.964 227.056 104.964C225.922 104.964 224.734 105.54 224.014 106.314C223.708 106.674 223.726 107.016 223.996 107.25C224.266 107.484 224.572 107.448 224.914 107.142ZM224.752 111.642C224.752 110.76 225.418 110.238 226.75 110.076L229.09 109.788V111.606C228.568 112.398 227.47 113.01 226.372 113.01C225.382 113.01 224.752 112.452 224.752 111.642ZM225.796 102.75C225.454 103.002 225.364 103.272 225.526 103.56C225.724 103.884 226.012 103.938 226.372 103.704L228.316 102.552C228.73 102.282 228.82 101.976 228.622 101.616C228.37 101.238 228.046 101.184 227.65 101.454L225.796 102.75ZM233.572 113.334C233.572 113.838 233.788 114.09 234.238 114.09C234.688 114.09 234.904 113.838 234.904 113.334V109.626C234.904 107.52 235.84 106.206 237.568 106.206C238.99 106.206 239.818 107.124 239.818 108.762V113.334C239.818 113.838 240.034 114.09 240.484 114.09C240.862 114.09 241.168 113.838 241.168 113.334V108.87C241.168 106.368 239.908 104.964 237.658 104.964C236.56 104.964 235.462 105.486 234.868 106.26V105.828C234.868 105.342 234.652 105.09 234.22 105.09C233.86 105.09 233.572 105.342 233.572 105.828V113.334ZM244.915 109.392C244.915 108.456 245.167 107.7 245.689 107.106C246.211 106.512 246.859 106.224 247.669 106.224C248.479 106.224 249.145 106.512 249.667 107.106C250.189 107.7 250.459 108.456 250.459 109.392C250.459 110.31 250.189 111.066 249.667 111.66C249.145 112.254 248.479 112.542 247.669 112.542C246.859 112.542 246.211 112.254 245.689 111.66C245.167 111.066 244.915 110.31 244.915 109.392ZM244.159 116.16C244.969 117.186 246.085 117.69 247.507 117.69C250.117 117.69 251.755 115.962 251.755 113.28V105.81C251.755 104.82 250.459 104.82 250.459 105.81V106.314C249.757 105.414 248.785 104.964 247.543 104.964C246.409 104.964 245.473 105.378 244.699 106.224C243.925 107.07 243.547 108.114 243.547 109.392C243.547 110.652 243.925 111.696 244.699 112.542C245.473 113.388 246.409 113.802 247.543 113.802C248.803 113.802 249.757 113.352 250.423 112.47V113.388C250.423 115.242 249.397 116.466 247.507 116.466C246.589 116.466 245.815 116.088 245.167 115.332C244.843 114.954 244.519 114.918 244.195 115.188C243.871 115.458 243.853 115.782 244.159 116.16ZM258.586 106.224C260.044 106.224 260.98 107.25 260.998 108.816H255.814C256.03 107.304 257.074 106.224 258.586 106.224ZM262.348 109.176C262.348 107.196 261.286 104.964 258.55 104.964C257.344 104.964 256.354 105.414 255.562 106.332C254.788 107.25 254.392 108.348 254.392 109.644C254.392 110.994 254.788 112.092 255.562 112.938C256.354 113.784 257.416 114.198 258.73 114.198C259.9 114.198 260.908 113.784 261.754 112.974C262.078 112.65 262.114 112.326 261.844 112.02C261.538 111.714 261.214 111.714 260.872 112.056C260.278 112.65 259.558 112.956 258.73 112.956C257.002 112.956 255.886 111.858 255.76 110.004H261.43C262.042 110.004 262.348 109.734 262.348 109.176ZM266.334 102.048C266.334 101.562 266.118 101.31 265.668 101.31C265.29 101.31 265.002 101.562 265.002 102.048V113.334C265.002 113.838 265.218 114.09 265.668 114.09C266.118 114.09 266.334 113.838 266.334 113.334V102.048Z" fill="#930345"/>
</svg>
