<svg width="657" height="192" viewBox="0 0 657 192" fill="none" xmlns="http://www.w3.org/2000/svg">
<rect x="182" width="457" height="192" fill="#F9D332"/>
<circle cx="411" cy="86" r="43" fill="#930345"/>
<path d="M209.289 149.65C209.667 149.992 210.009 150.028 210.315 149.758C210.657 149.452 210.639 149.11 210.297 148.732C209.289 147.706 207.957 147.184 206.319 147.184C205.149 147.184 204.123 147.508 203.259 148.138C202.395 148.768 201.963 149.614 201.963 150.676C201.963 151.648 202.305 152.422 202.971 152.998C203.637 153.574 204.501 153.952 205.527 154.132L207.075 154.402C208.839 154.708 209.721 155.464 209.721 156.67C209.721 158.092 208.425 158.92 206.643 158.92C205.113 158.92 203.907 158.434 203.025 157.444C202.683 157.066 202.341 157.03 201.999 157.336C201.657 157.642 201.675 157.984 202.017 158.362C202.953 159.37 204.519 160.198 206.481 160.198C207.867 160.198 208.983 159.856 209.829 159.19C210.675 158.524 211.089 157.678 211.089 156.652C211.089 154.69 209.703 153.484 207.255 153.052L206.013 152.836C204.231 152.548 203.331 151.81 203.331 150.622C203.331 149.344 204.555 148.462 206.211 148.462C207.453 148.462 208.479 148.858 209.289 149.65ZM213.154 148.984C213.568 149.362 214.198 149.362 214.576 148.984C214.99 148.57 214.99 147.94 214.576 147.562C214.198 147.184 213.568 147.184 213.154 147.562C212.776 147.94 212.776 148.57 213.154 148.984ZM214.54 151.828C214.54 151.342 214.324 151.09 213.874 151.09C213.496 151.09 213.208 151.342 213.208 151.828V159.334C213.208 159.838 213.424 160.09 213.874 160.09C214.324 160.09 214.54 159.838 214.54 159.334V151.828ZM221.52 152.224C222.978 152.224 223.914 153.25 223.932 154.816H218.748C218.964 153.304 220.008 152.224 221.52 152.224ZM225.282 155.176C225.282 153.196 224.22 150.964 221.484 150.964C220.278 150.964 219.288 151.414 218.496 152.332C217.722 153.25 217.326 154.348 217.326 155.644C217.326 156.994 217.722 158.092 218.496 158.938C219.288 159.784 220.35 160.198 221.664 160.198C222.834 160.198 223.842 159.784 224.688 158.974C225.012 158.65 225.048 158.326 224.778 158.02C224.472 157.714 224.148 157.714 223.806 158.056C223.212 158.65 222.492 158.956 221.664 158.956C219.936 158.956 218.82 157.858 218.694 156.004H224.364C224.976 156.004 225.282 155.734 225.282 155.176ZM239.221 159.334C239.221 159.838 239.437 160.09 239.887 160.09C240.337 160.09 240.553 159.838 240.553 159.334V154.87C240.553 152.35 239.401 150.964 237.241 150.964C236.089 150.964 235.027 151.486 234.397 152.422C233.839 151.45 232.939 150.964 231.679 150.964C230.635 150.964 229.825 151.36 229.231 152.152V151.828C229.231 151.342 229.015 151.09 228.583 151.09C228.223 151.09 227.935 151.342 227.935 151.828V159.334C227.935 159.838 228.151 160.09 228.601 160.09C229.051 160.09 229.267 159.838 229.267 159.334V155.14C229.267 153.43 230.203 152.206 231.589 152.206C232.903 152.206 233.569 153.088 233.569 154.852V159.334C233.569 159.838 233.785 160.09 234.235 160.09C234.685 160.09 234.901 159.838 234.901 159.334V155.14C234.901 153.268 235.711 152.206 237.169 152.206C238.537 152.206 239.221 153.052 239.221 154.762V159.334ZM249.967 157.984C249.445 158.614 248.761 158.938 247.879 158.938C246.997 158.938 246.295 158.614 245.773 157.984C245.251 157.354 244.999 156.544 244.999 155.572C244.999 154.6 245.251 153.79 245.773 153.16C246.295 152.53 246.997 152.206 247.879 152.206C248.761 152.206 249.445 152.53 249.967 153.16C250.489 153.79 250.741 154.6 250.741 155.572C250.741 156.544 250.489 157.354 249.967 157.984ZM243.703 162.826C243.703 163.33 243.919 163.582 244.369 163.582C244.819 163.582 245.035 163.33 245.035 162.826V158.812C245.827 159.73 246.817 160.198 248.005 160.198C249.211 160.198 250.183 159.748 250.957 158.866C251.731 157.966 252.109 156.868 252.109 155.572C252.109 154.276 251.731 153.178 250.957 152.296C250.183 151.414 249.211 150.964 248.005 150.964C246.799 150.964 245.809 151.432 244.999 152.368V151.81C244.999 150.82 243.703 150.82 243.703 151.81V162.826ZM258.935 152.332C259.061 152.332 259.223 152.35 259.439 152.386C259.925 152.458 260.195 152.17 260.195 151.792C260.195 151.432 259.997 151.216 259.583 151.126L258.935 151.054C257.693 151.054 256.739 151.468 256.055 152.296V151.828C256.055 151.342 255.839 151.09 255.407 151.09C255.047 151.09 254.759 151.342 254.759 151.828V159.334C254.759 159.838 254.975 160.09 255.425 160.09C255.875 160.09 256.091 159.838 256.091 159.334V156.238C256.091 153.412 256.937 152.332 258.935 152.332ZM265.764 152.224C267.222 152.224 268.158 153.25 268.176 154.816H262.992C263.208 153.304 264.252 152.224 265.764 152.224ZM269.526 155.176C269.526 153.196 268.464 150.964 265.728 150.964C264.522 150.964 263.532 151.414 262.74 152.332C261.966 153.25 261.57 154.348 261.57 155.644C261.57 156.994 261.966 158.092 262.74 158.938C263.532 159.784 264.594 160.198 265.908 160.198C267.078 160.198 268.086 159.784 268.932 158.974C269.256 158.65 269.292 158.326 269.022 158.02C268.716 157.714 268.392 157.714 268.05 158.056C267.456 158.65 266.736 158.956 265.908 158.956C264.18 158.956 263.064 157.858 262.938 156.004H268.608C269.22 156.004 269.526 155.734 269.526 155.176ZM281.497 152.224C282.955 152.224 283.891 153.25 283.909 154.816H278.725C278.941 153.304 279.985 152.224 281.497 152.224ZM285.259 155.176C285.259 153.196 284.197 150.964 281.461 150.964C280.255 150.964 279.265 151.414 278.473 152.332C277.699 153.25 277.303 154.348 277.303 155.644C277.303 156.994 277.699 158.092 278.473 158.938C279.265 159.784 280.327 160.198 281.641 160.198C282.811 160.198 283.819 159.784 284.665 158.974C284.989 158.65 285.025 158.326 284.755 158.02C284.449 157.714 284.125 157.714 283.783 158.056C283.189 158.65 282.469 158.956 281.641 158.956C279.913 158.956 278.797 157.858 278.671 156.004H284.341C284.953 156.004 285.259 155.734 285.259 155.176ZM292.862 152.89C293.276 153.232 293.6 153.25 293.87 152.962C294.176 152.638 294.14 152.314 293.78 151.972C293.06 151.306 292.16 150.964 291.098 150.964C290.27 150.964 289.55 151.198 288.956 151.648C288.362 152.098 288.056 152.71 288.056 153.502C288.056 154.798 288.884 155.644 290.558 156.04L291.872 156.346C292.79 156.562 293.258 156.994 293.258 157.624C293.258 158.47 292.52 158.974 291.278 158.974C290.396 158.974 289.64 158.668 288.992 158.038C288.686 157.732 288.362 157.714 288.056 158.02C287.768 158.308 287.786 158.614 288.092 158.956C288.902 159.784 289.964 160.198 291.296 160.198C293.294 160.198 294.59 159.118 294.59 157.552C294.59 156.292 293.762 155.464 292.088 155.068L290.702 154.744C289.82 154.546 289.388 154.114 289.388 153.448C289.388 152.71 290.054 152.206 291.008 152.206C291.71 152.206 292.322 152.44 292.862 152.89ZM299.995 158.794C298.753 158.794 298.447 158.452 298.447 157.156V152.404H299.977C300.445 152.404 300.679 152.206 300.679 151.792C300.679 151.378 300.445 151.18 299.977 151.18H298.447V149.38C298.447 148.876 298.231 148.624 297.781 148.624C297.331 148.624 297.115 148.876 297.115 149.38V151.18H296.197C295.729 151.18 295.495 151.378 295.495 151.792C295.495 152.206 295.729 152.404 296.197 152.404H297.115V157.246C297.115 159.388 297.943 160.018 299.887 160.018C300.409 160.018 300.679 159.82 300.679 159.406C300.679 158.992 300.445 158.794 299.995 158.794ZM304.176 153.142C304.86 152.512 305.562 152.206 306.3 152.206C307.578 152.206 308.352 152.926 308.352 154.276V154.546L305.94 154.834C303.996 155.05 302.682 156.04 302.682 157.606C302.682 159.208 303.906 160.198 305.562 160.198C306.732 160.198 307.794 159.676 308.388 159.01V159.352C308.388 160.324 309.684 160.324 309.684 159.352V154.42C309.684 152.188 308.424 150.964 306.318 150.964C305.184 150.964 303.996 151.54 303.276 152.314C302.97 152.674 302.988 153.016 303.258 153.25C303.528 153.484 303.834 153.448 304.176 153.142ZM304.014 157.642C304.014 156.76 304.68 156.238 306.012 156.076L308.352 155.788V157.606C307.83 158.398 306.732 159.01 305.634 159.01C304.644 159.01 304.014 158.452 304.014 157.642ZM324.124 159.334C324.124 159.838 324.34 160.09 324.79 160.09C325.24 160.09 325.456 159.838 325.456 159.334V154.87C325.456 152.35 324.304 150.964 322.144 150.964C320.992 150.964 319.93 151.486 319.3 152.422C318.742 151.45 317.842 150.964 316.582 150.964C315.538 150.964 314.728 151.36 314.134 152.152V151.828C314.134 151.342 313.918 151.09 313.486 151.09C313.126 151.09 312.838 151.342 312.838 151.828V159.334C312.838 159.838 313.054 160.09 313.504 160.09C313.954 160.09 314.17 159.838 314.17 159.334V155.14C314.17 153.43 315.106 152.206 316.492 152.206C317.806 152.206 318.472 153.088 318.472 154.852V159.334C318.472 159.838 318.688 160.09 319.138 160.09C319.588 160.09 319.804 159.838 319.804 159.334V155.14C319.804 153.268 320.614 152.206 322.072 152.206C323.44 152.206 324.124 153.052 324.124 154.762V159.334ZM332.426 160.198C333.704 160.198 334.766 159.748 335.612 158.866C336.458 157.966 336.89 156.868 336.89 155.59C336.89 154.312 336.458 153.214 335.594 152.314C334.748 151.414 333.686 150.964 332.426 150.964C331.166 150.964 330.104 151.414 329.258 152.314C328.412 153.214 327.998 154.312 327.998 155.59C327.998 156.868 328.412 157.966 329.258 158.866C330.104 159.748 331.166 160.198 332.426 160.198ZM332.426 158.956C331.544 158.956 330.806 158.632 330.23 158.002C329.654 157.354 329.366 156.544 329.366 155.59C329.366 154.636 329.654 153.826 330.23 153.196C330.806 152.548 331.544 152.224 332.426 152.224C333.326 152.224 334.064 152.548 334.64 153.196C335.216 153.826 335.504 154.636 335.504 155.59C335.504 156.544 335.216 157.354 334.64 158.002C334.064 158.632 333.326 158.956 332.426 158.956ZM344.489 152.89C344.903 153.232 345.227 153.25 345.497 152.962C345.803 152.638 345.767 152.314 345.407 151.972C344.687 151.306 343.787 150.964 342.725 150.964C341.897 150.964 341.177 151.198 340.583 151.648C339.989 152.098 339.683 152.71 339.683 153.502C339.683 154.798 340.511 155.644 342.185 156.04L343.499 156.346C344.417 156.562 344.885 156.994 344.885 157.624C344.885 158.47 344.147 158.974 342.905 158.974C342.023 158.974 341.267 158.668 340.619 158.038C340.313 157.732 339.989 157.714 339.683 158.02C339.395 158.308 339.413 158.614 339.719 158.956C340.529 159.784 341.591 160.198 342.923 160.198C344.921 160.198 346.217 159.118 346.217 157.552C346.217 156.292 345.389 155.464 343.715 155.068L342.329 154.744C341.447 154.546 341.015 154.114 341.015 153.448C341.015 152.71 341.681 152.206 342.635 152.206C343.337 152.206 343.949 152.44 344.489 152.89ZM354.924 153.142C355.608 152.512 356.31 152.206 357.048 152.206C358.326 152.206 359.1 152.926 359.1 154.276V154.546L356.688 154.834C354.744 155.05 353.43 156.04 353.43 157.606C353.43 159.208 354.654 160.198 356.31 160.198C357.48 160.198 358.542 159.676 359.136 159.01V159.352C359.136 160.324 360.432 160.324 360.432 159.352V154.42C360.432 152.188 359.172 150.964 357.066 150.964C355.932 150.964 354.744 151.54 354.024 152.314C353.718 152.674 353.736 153.016 354.006 153.25C354.276 153.484 354.582 153.448 354.924 153.142ZM354.762 157.642C354.762 156.76 355.428 156.238 356.76 156.076L359.1 155.788V157.606C358.578 158.398 357.48 159.01 356.382 159.01C355.392 159.01 354.762 158.452 354.762 157.642ZM369.85 158.002C369.328 158.632 368.644 158.956 367.762 158.956C366.88 158.956 366.178 158.632 365.656 158.002C365.134 157.372 364.882 156.562 364.882 155.59C364.882 154.618 365.134 153.808 365.656 153.178C366.178 152.548 366.88 152.224 367.762 152.224C368.644 152.224 369.328 152.548 369.85 153.178C370.372 153.808 370.624 154.618 370.624 155.59C370.624 156.562 370.372 157.372 369.85 158.002ZM363.586 159.352C363.586 160.324 364.882 160.324 364.882 159.352V158.794C365.692 159.73 366.682 160.198 367.888 160.198C369.094 160.198 370.066 159.748 370.84 158.866C371.614 157.984 371.992 156.886 371.992 155.59C371.992 154.294 371.614 153.196 370.84 152.314C370.066 151.414 369.094 150.964 367.888 150.964C366.7 150.964 365.71 151.432 364.918 152.35V148.066C364.918 147.562 364.702 147.31 364.252 147.31C363.802 147.31 363.586 147.562 363.586 148.066V159.352ZM374.714 148.984C375.128 149.362 375.758 149.362 376.136 148.984C376.55 148.57 376.55 147.94 376.136 147.562C375.758 147.184 375.128 147.184 374.714 147.562C374.336 147.94 374.336 148.57 374.714 148.984ZM376.1 151.828C376.1 151.342 375.884 151.09 375.434 151.09C375.056 151.09 374.768 151.342 374.768 151.828V159.334C374.768 159.838 374.984 160.09 375.434 160.09C375.884 160.09 376.1 159.838 376.1 159.334V151.828ZM383.081 152.224C384.539 152.224 385.475 153.25 385.493 154.816H380.309C380.525 153.304 381.569 152.224 383.081 152.224ZM386.843 155.176C386.843 153.196 385.781 150.964 383.045 150.964C381.839 150.964 380.849 151.414 380.057 152.332C379.283 153.25 378.887 154.348 378.887 155.644C378.887 156.994 379.283 158.092 380.057 158.938C380.849 159.784 381.911 160.198 383.225 160.198C384.395 160.198 385.403 159.784 386.249 158.974C386.573 158.65 386.609 158.326 386.339 158.02C386.033 157.714 385.709 157.714 385.367 158.056C384.773 158.65 384.053 158.956 383.225 158.956C381.497 158.956 380.381 157.858 380.255 156.004H385.925C386.537 156.004 386.843 155.734 386.843 155.176ZM393.672 152.332C393.798 152.332 393.96 152.35 394.176 152.386C394.662 152.458 394.932 152.17 394.932 151.792C394.932 151.432 394.734 151.216 394.32 151.126L393.672 151.054C392.43 151.054 391.476 151.468 390.792 152.296V151.828C390.792 151.342 390.576 151.09 390.144 151.09C389.784 151.09 389.496 151.342 389.496 151.828V159.334C389.496 159.838 389.712 160.09 390.162 160.09C390.612 160.09 390.828 159.838 390.828 159.334V156.238C390.828 153.412 391.674 152.332 393.672 152.332ZM400.507 158.794C399.265 158.794 398.959 158.452 398.959 157.156V152.404H400.489C400.957 152.404 401.191 152.206 401.191 151.792C401.191 151.378 400.957 151.18 400.489 151.18H398.959V149.38C398.959 148.876 398.743 148.624 398.293 148.624C397.843 148.624 397.627 148.876 397.627 149.38V151.18H396.709C396.241 151.18 396.007 151.378 396.007 151.792C396.007 152.206 396.241 152.404 396.709 152.404H397.627V157.246C397.627 159.388 398.455 160.018 400.399 160.018C400.921 160.018 401.191 159.82 401.191 159.406C401.191 158.992 400.957 158.794 400.507 158.794ZM407.643 160.198C408.921 160.198 409.983 159.748 410.829 158.866C411.675 157.966 412.107 156.868 412.107 155.59C412.107 154.312 411.675 153.214 410.811 152.314C409.965 151.414 408.903 150.964 407.643 150.964C406.383 150.964 405.321 151.414 404.475 152.314C403.629 153.214 403.215 154.312 403.215 155.59C403.215 156.868 403.629 157.966 404.475 158.866C405.321 159.748 406.383 160.198 407.643 160.198ZM407.643 158.956C406.761 158.956 406.023 158.632 405.447 158.002C404.871 157.354 404.583 156.544 404.583 155.59C404.583 154.636 404.871 153.826 405.447 153.196C406.023 152.548 406.761 152.224 407.643 152.224C408.543 152.224 409.281 152.548 409.857 153.196C410.433 153.826 410.721 154.636 410.721 155.59C410.721 156.544 410.433 157.354 409.857 158.002C409.281 158.632 408.543 158.956 407.643 158.956ZM419.706 152.89C420.12 153.232 420.444 153.25 420.714 152.962C421.02 152.638 420.984 152.314 420.624 151.972C419.904 151.306 419.004 150.964 417.942 150.964C417.114 150.964 416.394 151.198 415.8 151.648C415.206 152.098 414.9 152.71 414.9 153.502C414.9 154.798 415.728 155.644 417.402 156.04L418.716 156.346C419.634 156.562 420.102 156.994 420.102 157.624C420.102 158.47 419.364 158.974 418.122 158.974C417.24 158.974 416.484 158.668 415.836 158.038C415.53 157.732 415.206 157.714 414.9 158.02C414.612 158.308 414.63 158.614 414.936 158.956C415.746 159.784 416.808 160.198 418.14 160.198C420.138 160.198 421.434 159.118 421.434 157.552C421.434 156.292 420.606 155.464 418.932 155.068L417.546 154.744C416.664 154.546 416.232 154.114 416.232 153.448C416.232 152.71 416.898 152.206 417.852 152.206C418.554 152.206 419.166 152.44 419.706 152.89ZM430.141 153.142C430.825 152.512 431.527 152.206 432.265 152.206C433.543 152.206 434.317 152.926 434.317 154.276V154.546L431.905 154.834C429.961 155.05 428.647 156.04 428.647 157.606C428.647 159.208 429.871 160.198 431.527 160.198C432.697 160.198 433.759 159.676 434.353 159.01V159.352C434.353 160.324 435.649 160.324 435.649 159.352V154.42C435.649 152.188 434.389 150.964 432.283 150.964C431.149 150.964 429.961 151.54 429.241 152.314C428.935 152.674 428.953 153.016 429.223 153.25C429.493 153.484 429.799 153.448 430.141 153.142ZM429.979 157.642C429.979 156.76 430.645 156.238 431.977 156.076L434.317 155.788V157.606C433.795 158.398 432.697 159.01 431.599 159.01C430.609 159.01 429.979 158.452 429.979 157.642ZM444.146 159.334C444.146 159.838 444.362 160.09 444.812 160.09C445.262 160.09 445.478 159.838 445.478 159.334V155.626C445.478 153.52 446.414 152.206 448.142 152.206C449.564 152.206 450.392 153.124 450.392 154.762V159.334C450.392 159.838 450.608 160.09 451.058 160.09C451.436 160.09 451.742 159.838 451.742 159.334V154.87C451.742 152.368 450.482 150.964 448.232 150.964C447.134 150.964 446.036 151.486 445.442 152.26V151.828C445.442 151.342 445.226 151.09 444.794 151.09C444.434 151.09 444.146 151.342 444.146 151.828V159.334ZM461.838 151.846C461.838 151.342 461.622 151.09 461.172 151.09C460.722 151.09 460.506 151.342 460.506 151.846V155.536C460.506 157.804 459.678 158.938 458.004 158.938C456.582 158.938 455.79 158.056 455.79 156.4V151.846C455.79 151.342 455.574 151.09 455.124 151.09C454.674 151.09 454.458 151.342 454.458 151.846V156.292C454.458 158.812 455.592 160.198 457.824 160.198C458.958 160.198 459.876 159.766 460.56 158.902V159.352C460.56 159.838 460.776 160.09 461.19 160.09C461.568 160.09 461.838 159.838 461.838 159.352V151.846ZM468.686 152.224C470.144 152.224 471.08 153.25 471.098 154.816H465.914C466.13 153.304 467.174 152.224 468.686 152.224ZM472.448 155.176C472.448 153.196 471.386 150.964 468.65 150.964C467.444 150.964 466.454 151.414 465.662 152.332C464.888 153.25 464.492 154.348 464.492 155.644C464.492 156.994 464.888 158.092 465.662 158.938C466.454 159.784 467.516 160.198 468.83 160.198C470 160.198 471.008 159.784 471.854 158.974C472.178 158.65 472.214 158.326 471.944 158.02C471.638 157.714 471.314 157.714 470.972 158.056C470.378 158.65 469.658 158.956 468.83 158.956C467.102 158.956 465.986 157.858 465.86 156.004H471.53C472.142 156.004 472.448 155.734 472.448 155.176ZM477.25 159.352C477.43 159.838 477.736 160.09 478.186 160.09C478.636 160.09 478.942 159.838 479.14 159.334L481.984 152.062C482.164 151.594 482.038 151.288 481.606 151.126C481.174 151 480.868 151.162 480.706 151.63L478.186 158.38L475.666 151.63C475.504 151.162 475.198 151 474.766 151.126C474.334 151.288 474.208 151.594 474.388 152.062L477.25 159.352ZM487.799 160.198C489.077 160.198 490.139 159.748 490.985 158.866C491.831 157.966 492.263 156.868 492.263 155.59C492.263 154.312 491.831 153.214 490.967 152.314C490.121 151.414 489.059 150.964 487.799 150.964C486.539 150.964 485.477 151.414 484.631 152.314C483.785 153.214 483.371 154.312 483.371 155.59C483.371 156.868 483.785 157.966 484.631 158.866C485.477 159.748 486.539 160.198 487.799 160.198ZM487.799 158.956C486.917 158.956 486.179 158.632 485.603 158.002C485.027 157.354 484.739 156.544 484.739 155.59C484.739 154.636 485.027 153.826 485.603 153.196C486.179 152.548 486.917 152.224 487.799 152.224C488.699 152.224 489.437 152.548 490.013 153.196C490.589 153.826 490.877 154.636 490.877 155.59C490.877 156.544 490.589 157.354 490.013 158.002C489.437 158.632 488.699 158.956 487.799 158.956ZM499.862 152.89C500.276 153.232 500.6 153.25 500.87 152.962C501.176 152.638 501.14 152.314 500.78 151.972C500.06 151.306 499.16 150.964 498.098 150.964C497.27 150.964 496.55 151.198 495.956 151.648C495.362 152.098 495.056 152.71 495.056 153.502C495.056 154.798 495.884 155.644 497.558 156.04L498.872 156.346C499.79 156.562 500.258 156.994 500.258 157.624C500.258 158.47 499.52 158.974 498.278 158.974C497.396 158.974 496.64 158.668 495.992 158.038C495.686 157.732 495.362 157.714 495.056 158.02C494.768 158.308 494.786 158.614 495.092 158.956C495.902 159.784 496.964 160.198 498.296 160.198C500.294 160.198 501.59 159.118 501.59 157.552C501.59 156.292 500.762 155.464 499.088 155.068L497.702 154.744C496.82 154.546 496.388 154.114 496.388 153.448C496.388 152.71 497.054 152.206 498.008 152.206C498.71 152.206 499.322 152.44 499.862 152.89ZM515.607 157.984C515.085 158.614 514.401 158.938 513.519 158.938C512.637 158.938 511.935 158.614 511.413 157.984C510.891 157.354 510.639 156.544 510.639 155.572C510.639 154.6 510.891 153.79 511.413 153.16C511.935 152.53 512.637 152.206 513.519 152.206C514.401 152.206 515.085 152.53 515.607 153.16C516.129 153.79 516.381 154.6 516.381 155.572C516.381 156.544 516.129 157.354 515.607 157.984ZM509.343 162.826C509.343 163.33 509.559 163.582 510.009 163.582C510.459 163.582 510.675 163.33 510.675 162.826V158.812C511.467 159.73 512.457 160.198 513.645 160.198C514.851 160.198 515.823 159.748 516.597 158.866C517.371 157.966 517.749 156.868 517.749 155.572C517.749 154.276 517.371 153.178 516.597 152.296C515.823 151.414 514.851 150.964 513.645 150.964C512.439 150.964 511.449 151.432 510.639 152.368V151.81C510.639 150.82 509.343 150.82 509.343 151.81V162.826ZM524.576 152.332C524.702 152.332 524.864 152.35 525.08 152.386C525.566 152.458 525.836 152.17 525.836 151.792C525.836 151.432 525.638 151.216 525.224 151.126L524.576 151.054C523.334 151.054 522.38 151.468 521.696 152.296V151.828C521.696 151.342 521.48 151.09 521.048 151.09C520.688 151.09 520.4 151.342 520.4 151.828V159.334C520.4 159.838 520.616 160.09 521.066 160.09C521.516 160.09 521.732 159.838 521.732 159.334V156.238C521.732 153.412 522.578 152.332 524.576 152.332ZM531.639 160.198C532.917 160.198 533.979 159.748 534.825 158.866C535.671 157.966 536.103 156.868 536.103 155.59C536.103 154.312 535.671 153.214 534.807 152.314C533.961 151.414 532.899 150.964 531.639 150.964C530.379 150.964 529.317 151.414 528.471 152.314C527.625 153.214 527.211 154.312 527.211 155.59C527.211 156.868 527.625 157.966 528.471 158.866C529.317 159.748 530.379 160.198 531.639 160.198ZM531.639 158.956C530.757 158.956 530.019 158.632 529.443 158.002C528.867 157.354 528.579 156.544 528.579 155.59C528.579 154.636 528.867 153.826 529.443 153.196C530.019 152.548 530.757 152.224 531.639 152.224C532.539 152.224 533.277 152.548 533.853 153.196C534.429 153.826 534.717 154.636 534.717 155.59C534.717 156.544 534.429 157.354 533.853 158.002C533.277 158.632 532.539 158.956 531.639 158.956ZM540.451 162.61C540.271 163.078 540.397 163.384 540.829 163.546C541.261 163.672 541.567 163.51 541.747 163.042L546.139 152.062C546.319 151.594 546.193 151.288 545.761 151.126C545.329 151 545.023 151.162 544.843 151.63L542.179 158.506L539.461 151.63C539.281 151.162 538.975 151 538.543 151.126C538.093 151.288 537.967 151.612 538.147 152.062L541.441 160.108L540.451 162.61ZM551.62 152.224C553.078 152.224 554.014 153.25 554.032 154.816H548.848C549.064 153.304 550.108 152.224 551.62 152.224ZM555.382 155.176C555.382 153.196 554.32 150.964 551.584 150.964C550.378 150.964 549.388 151.414 548.596 152.332C547.822 153.25 547.426 154.348 547.426 155.644C547.426 156.994 547.822 158.092 548.596 158.938C549.388 159.784 550.45 160.198 551.764 160.198C552.934 160.198 553.942 159.784 554.788 158.974C555.112 158.65 555.148 158.326 554.878 158.02C554.572 157.714 554.248 157.714 553.906 158.056C553.312 158.65 552.592 158.956 551.764 158.956C550.036 158.956 548.92 157.858 548.794 156.004H554.464C555.076 156.004 555.382 155.734 555.382 155.176ZM564.224 152.998C564.602 153.304 564.926 153.304 565.196 153.034C565.466 152.728 565.43 152.404 565.106 152.08C564.368 151.342 563.396 150.964 562.208 150.964C560.966 150.964 559.904 151.414 559.022 152.332C558.158 153.232 557.726 154.312 557.726 155.59C557.726 156.868 558.14 157.966 558.986 158.866C559.832 159.748 560.894 160.198 562.154 160.198C563.396 160.198 564.44 159.784 565.286 158.974C565.61 158.65 565.646 158.326 565.376 158.02C565.07 157.714 564.746 157.714 564.404 158.056C563.81 158.65 563.09 158.956 562.262 158.956C560.3 158.956 559.094 157.552 559.094 155.59C559.094 154.636 559.382 153.826 559.976 153.196C560.57 152.548 561.308 152.224 562.208 152.224C562.946 152.224 563.612 152.476 564.224 152.998ZM571.524 158.794C570.282 158.794 569.976 158.452 569.976 157.156V152.404H571.506C571.974 152.404 572.208 152.206 572.208 151.792C572.208 151.378 571.974 151.18 571.506 151.18H569.976V149.38C569.976 148.876 569.76 148.624 569.31 148.624C568.86 148.624 568.644 148.876 568.644 149.38V151.18H567.726C567.258 151.18 567.024 151.378 567.024 151.792C567.024 152.206 567.258 152.404 567.726 152.404H568.644V157.246C568.644 159.388 569.472 160.018 571.416 160.018C571.938 160.018 572.208 159.82 572.208 159.406C572.208 158.992 571.974 158.794 571.524 158.794ZM578.66 160.198C579.938 160.198 581 159.748 581.846 158.866C582.692 157.966 583.124 156.868 583.124 155.59C583.124 154.312 582.692 153.214 581.828 152.314C580.982 151.414 579.92 150.964 578.66 150.964C577.4 150.964 576.338 151.414 575.492 152.314C574.646 153.214 574.232 154.312 574.232 155.59C574.232 156.868 574.646 157.966 575.492 158.866C576.338 159.748 577.4 160.198 578.66 160.198ZM578.66 158.956C577.778 158.956 577.04 158.632 576.464 158.002C575.888 157.354 575.6 156.544 575.6 155.59C575.6 154.636 575.888 153.826 576.464 153.196C577.04 152.548 577.778 152.224 578.66 152.224C579.56 152.224 580.298 152.548 580.874 153.196C581.45 153.826 581.738 154.636 581.738 155.59C581.738 156.544 581.45 157.354 580.874 158.002C580.298 158.632 579.56 158.956 578.66 158.956ZM590.723 152.89C591.137 153.232 591.461 153.25 591.731 152.962C592.037 152.638 592.001 152.314 591.641 151.972C590.921 151.306 590.021 150.964 588.959 150.964C588.131 150.964 587.411 151.198 586.817 151.648C586.223 152.098 585.917 152.71 585.917 153.502C585.917 154.798 586.745 155.644 588.419 156.04L589.733 156.346C590.651 156.562 591.119 156.994 591.119 157.624C591.119 158.47 590.381 158.974 589.139 158.974C588.257 158.974 587.501 158.668 586.853 158.038C586.547 157.732 586.223 157.714 585.917 158.02C585.629 158.308 585.647 158.614 585.953 158.956C586.763 159.784 587.825 160.198 589.157 160.198C591.155 160.198 592.451 159.118 592.451 157.552C592.451 156.292 591.623 155.464 589.949 155.068L588.563 154.744C587.681 154.546 587.249 154.114 587.249 153.448C587.249 152.71 587.915 152.206 588.869 152.206C589.571 152.206 590.183 152.44 590.723 152.89ZM601.933 153.178C602.455 152.548 603.139 152.224 604.021 152.224C604.903 152.224 605.587 152.548 606.109 153.178C606.631 153.808 606.901 154.618 606.901 155.59C606.901 156.562 606.631 157.372 606.109 158.002C605.587 158.632 604.903 158.956 604.021 158.956C603.139 158.956 602.455 158.632 601.933 158.002C601.411 157.372 601.159 156.562 601.159 155.59C601.159 154.618 601.411 153.808 601.933 153.178ZM608.197 148.066C608.197 147.562 607.981 147.31 607.531 147.31C607.081 147.31 606.865 147.562 606.865 148.066V152.35C606.073 151.432 605.083 150.964 603.895 150.964C602.689 150.964 601.717 151.414 600.943 152.314C600.169 153.196 599.791 154.294 599.791 155.59C599.791 156.886 600.169 157.984 600.943 158.866C601.717 159.748 602.689 160.198 603.895 160.198C605.101 160.198 606.091 159.73 606.901 158.794V159.352C606.901 160.324 608.197 160.324 608.197 159.352V148.066ZM615.041 152.224C616.499 152.224 617.435 153.25 617.453 154.816H612.269C612.485 153.304 613.529 152.224 615.041 152.224ZM618.803 155.176C618.803 153.196 617.741 150.964 615.005 150.964C613.799 150.964 612.809 151.414 612.017 152.332C611.243 153.25 610.847 154.348 610.847 155.644C610.847 156.994 611.243 158.092 612.017 158.938C612.809 159.784 613.871 160.198 615.185 160.198C616.355 160.198 617.363 159.784 618.209 158.974C618.533 158.65 618.569 158.326 618.299 158.02C617.993 157.714 617.669 157.714 617.327 158.056C616.733 158.65 616.013 158.956 615.185 158.956C613.457 158.956 612.341 157.858 612.215 156.004H617.885C618.497 156.004 618.803 155.734 618.803 155.176ZM359.852 172.998C360.23 173.304 360.554 173.304 360.824 173.034C361.094 172.728 361.058 172.404 360.734 172.08C359.996 171.342 359.024 170.964 357.836 170.964C356.594 170.964 355.532 171.414 354.65 172.332C353.786 173.232 353.354 174.312 353.354 175.59C353.354 176.868 353.768 177.966 354.614 178.866C355.46 179.748 356.522 180.198 357.782 180.198C359.024 180.198 360.068 179.784 360.914 178.974C361.238 178.65 361.274 178.326 361.004 178.02C360.698 177.714 360.374 177.714 360.032 178.056C359.438 178.65 358.718 178.956 357.89 178.956C355.928 178.956 354.722 177.552 354.722 175.59C354.722 174.636 355.01 173.826 355.604 173.196C356.198 172.548 356.936 172.224 357.836 172.224C358.574 172.224 359.24 172.476 359.852 172.998ZM367.468 180.198C368.746 180.198 369.808 179.748 370.654 178.866C371.5 177.966 371.932 176.868 371.932 175.59C371.932 174.312 371.5 173.214 370.636 172.314C369.79 171.414 368.728 170.964 367.468 170.964C366.208 170.964 365.146 171.414 364.3 172.314C363.454 173.214 363.04 174.312 363.04 175.59C363.04 176.868 363.454 177.966 364.3 178.866C365.146 179.748 366.208 180.198 367.468 180.198ZM367.468 178.956C366.586 178.956 365.848 178.632 365.272 178.002C364.696 177.354 364.408 176.544 364.408 175.59C364.408 174.636 364.696 173.826 365.272 173.196C365.848 172.548 366.586 172.224 367.468 172.224C368.368 172.224 369.106 172.548 369.682 173.196C370.258 173.826 370.546 174.636 370.546 175.59C370.546 176.544 370.258 177.354 369.682 178.002C369.106 178.632 368.368 178.956 367.468 178.956ZM375.913 168.048C375.913 167.562 375.697 167.31 375.247 167.31C374.869 167.31 374.581 167.562 374.581 168.048V179.334C374.581 179.838 374.797 180.09 375.247 180.09C375.697 180.09 375.913 179.838 375.913 179.334V168.048ZM379.929 173.142C380.613 172.512 381.315 172.206 382.053 172.206C383.331 172.206 384.105 172.926 384.105 174.276V174.546L381.693 174.834C379.749 175.05 378.435 176.04 378.435 177.606C378.435 179.208 379.659 180.198 381.315 180.198C382.485 180.198 383.547 179.676 384.141 179.01V179.352C384.141 180.324 385.437 180.324 385.437 179.352V174.42C385.437 172.188 384.177 170.964 382.071 170.964C380.937 170.964 379.749 171.54 379.029 172.314C378.723 172.674 378.741 173.016 379.011 173.25C379.281 173.484 379.587 173.448 379.929 173.142ZM379.767 177.642C379.767 176.76 380.433 176.238 381.765 176.076L384.105 175.788V177.606C383.583 178.398 382.485 179.01 381.387 179.01C380.397 179.01 379.767 178.452 379.767 177.642ZM394.855 178.002C394.333 178.632 393.649 178.956 392.767 178.956C391.885 178.956 391.183 178.632 390.661 178.002C390.139 177.372 389.887 176.562 389.887 175.59C389.887 174.618 390.139 173.808 390.661 173.178C391.183 172.548 391.885 172.224 392.767 172.224C393.649 172.224 394.333 172.548 394.855 173.178C395.377 173.808 395.629 174.618 395.629 175.59C395.629 176.562 395.377 177.372 394.855 178.002ZM388.591 179.352C388.591 180.324 389.887 180.324 389.887 179.352V178.794C390.697 179.73 391.687 180.198 392.893 180.198C394.099 180.198 395.071 179.748 395.845 178.866C396.619 177.984 396.997 176.886 396.997 175.59C396.997 174.294 396.619 173.196 395.845 172.314C395.071 171.414 394.099 170.964 392.893 170.964C391.705 170.964 390.715 171.432 389.923 172.35V168.066C389.923 167.562 389.707 167.31 389.257 167.31C388.807 167.31 388.591 167.562 388.591 168.066V179.352ZM403.767 180.198C405.045 180.198 406.107 179.748 406.953 178.866C407.799 177.966 408.231 176.868 408.231 175.59C408.231 174.312 407.799 173.214 406.935 172.314C406.089 171.414 405.027 170.964 403.767 170.964C402.507 170.964 401.445 171.414 400.599 172.314C399.753 173.214 399.339 174.312 399.339 175.59C399.339 176.868 399.753 177.966 400.599 178.866C401.445 179.748 402.507 180.198 403.767 180.198ZM403.767 178.956C402.885 178.956 402.147 178.632 401.571 178.002C400.995 177.354 400.707 176.544 400.707 175.59C400.707 174.636 400.995 173.826 401.571 173.196C402.147 172.548 402.885 172.224 403.767 172.224C404.667 172.224 405.405 172.548 405.981 173.196C406.557 173.826 406.845 174.636 406.845 175.59C406.845 176.544 406.557 177.354 405.981 178.002C405.405 178.632 404.667 178.956 403.767 178.956ZM415.056 172.332C415.182 172.332 415.344 172.35 415.56 172.386C416.046 172.458 416.316 172.17 416.316 171.792C416.316 171.432 416.118 171.216 415.704 171.126L415.056 171.054C413.814 171.054 412.86 171.468 412.176 172.296V171.828C412.176 171.342 411.96 171.09 411.528 171.09C411.168 171.09 410.88 171.342 410.88 171.828V179.334C410.88 179.838 411.096 180.09 411.546 180.09C411.996 180.09 412.212 179.838 412.212 179.334V176.238C412.212 173.412 413.058 172.332 415.056 172.332ZM419.058 173.142C419.742 172.512 420.444 172.206 421.182 172.206C422.46 172.206 423.234 172.926 423.234 174.276V174.546L420.822 174.834C418.878 175.05 417.564 176.04 417.564 177.606C417.564 179.208 418.788 180.198 420.444 180.198C421.614 180.198 422.676 179.676 423.27 179.01V179.352C423.27 180.324 424.566 180.324 424.566 179.352V174.42C424.566 172.188 423.306 170.964 421.2 170.964C420.066 170.964 418.878 171.54 418.158 172.314C417.852 172.674 417.87 173.016 418.14 173.25C418.41 173.484 418.716 173.448 419.058 173.142ZM418.896 177.642C418.896 176.76 419.562 176.238 420.894 176.076L423.234 175.788V177.606C422.712 178.398 421.614 179.01 420.516 179.01C419.526 179.01 418.896 178.452 418.896 177.642ZM433.61 172.998C433.988 173.304 434.312 173.304 434.582 173.034C434.852 172.728 434.816 172.404 434.492 172.08C433.754 171.342 432.782 170.964 431.594 170.964C430.352 170.964 429.29 171.414 428.408 172.332C427.544 173.232 427.112 174.312 427.112 175.59C427.112 176.868 427.526 177.966 428.372 178.866C429.218 179.748 430.28 180.198 431.54 180.198C432.782 180.198 433.826 179.784 434.672 178.974C434.996 178.65 435.032 178.326 434.762 178.02C434.456 177.714 434.132 177.714 433.79 178.056C433.196 178.65 432.476 178.956 431.648 178.956C429.686 178.956 428.48 177.552 428.48 175.59C428.48 174.636 428.768 173.826 429.362 173.196C429.956 172.548 430.694 172.224 431.594 172.224C432.332 172.224 432.998 172.476 433.61 172.998ZM437.582 168.984C437.996 169.362 438.626 169.362 439.004 168.984C439.418 168.57 439.418 167.94 439.004 167.562C438.626 167.184 437.996 167.184 437.582 167.562C437.204 167.94 437.204 168.57 437.582 168.984ZM438.968 171.828C438.968 171.342 438.752 171.09 438.302 171.09C437.924 171.09 437.636 171.342 437.636 171.828V179.334C437.636 179.838 437.852 180.09 438.302 180.09C438.752 180.09 438.968 179.838 438.968 179.334V171.828ZM446.183 180.198C447.461 180.198 448.523 179.748 449.369 178.866C450.215 177.966 450.647 176.868 450.647 175.59C450.647 174.312 450.215 173.214 449.351 172.314C448.505 171.414 447.443 170.964 446.183 170.964C444.923 170.964 443.861 171.414 443.015 172.314C442.169 173.214 441.755 174.312 441.755 175.59C441.755 176.868 442.169 177.966 443.015 178.866C443.861 179.748 444.923 180.198 446.183 180.198ZM446.183 178.956C445.301 178.956 444.563 178.632 443.987 178.002C443.411 177.354 443.123 176.544 443.123 175.59C443.123 174.636 443.411 173.826 443.987 173.196C444.563 172.548 445.301 172.224 446.183 172.224C447.083 172.224 447.821 172.548 448.397 173.196C448.973 173.826 449.261 174.636 449.261 175.59C449.261 176.544 448.973 177.354 448.397 178.002C447.821 178.632 447.083 178.956 446.183 178.956ZM444.905 168.75C444.563 169.002 444.473 169.272 444.635 169.56C444.833 169.884 445.121 169.938 445.481 169.704L447.425 168.552C447.839 168.282 447.929 167.976 447.731 167.616C447.479 167.238 447.155 167.184 446.759 167.454L444.905 168.75ZM453.296 179.334C453.296 179.838 453.512 180.09 453.962 180.09C454.412 180.09 454.628 179.838 454.628 179.334V175.626C454.628 173.52 455.564 172.206 457.292 172.206C458.714 172.206 459.542 173.124 459.542 174.762V179.334C459.542 179.838 459.758 180.09 460.208 180.09C460.586 180.09 460.892 179.838 460.892 179.334V174.87C460.892 172.368 459.632 170.964 457.382 170.964C456.284 170.964 455.186 171.486 454.592 172.26V171.828C454.592 171.342 454.376 171.09 453.944 171.09C453.584 171.09 453.296 171.342 453.296 171.828V179.334ZM464.944 178.056C464.35 178.056 463.882 178.542 463.882 179.136C463.882 179.73 464.35 180.198 464.944 180.198C465.574 180.198 466.042 179.73 466.042 179.136C466.042 178.506 465.574 178.056 464.944 178.056Z" fill="#930345"/>
<path d="M256.486 18.256C254.47 18.67 253.174 20.038 253.174 21.91C253.174 23.044 253.588 23.962 254.434 24.646C255.28 25.348 256.306 25.69 257.548 25.69C258.952 25.69 260.122 25.24 261.076 24.358C261.67 23.782 261.67 23.008 261.184 22.558C260.68 22.036 260.086 22.036 259.402 22.576C258.862 23.008 258.232 23.224 257.53 23.224C256.54 23.224 255.838 22.72 255.838 21.928C255.838 21.064 256.612 20.488 257.746 20.416C258.61 20.362 259.114 19.714 259.114 18.76V18.256C259.114 17.392 258.538 16.852 257.8 16.852C257.062 16.852 256.486 17.392 256.486 18.256ZM259.312 14.512C259.312 13.648 258.628 12.964 257.782 12.964C256.918 12.964 256.216 13.648 256.216 14.512C256.216 15.358 256.918 16.06 257.782 16.06C258.628 16.06 259.312 15.358 259.312 14.512ZM264.087 9.4C263.277 9.4 262.773 9.922 262.773 10.642C262.773 11.344 263.277 11.866 264.087 11.866H266.553V20.668C266.553 21.55 267.111 22.09 267.885 22.09C268.659 22.09 269.235 21.55 269.235 20.668V11.866H271.719C272.529 11.866 273.033 11.344 273.033 10.642C273.033 9.922 272.529 9.4 271.719 9.4H264.087ZM274.742 10.678C274.742 11.488 275.408 12.154 276.218 12.154C277.028 12.154 277.712 11.488 277.712 10.678C277.712 9.832 277.064 9.184 276.218 9.184C275.408 9.184 274.742 9.832 274.742 10.678ZM277.496 20.722V14.458C277.496 13.612 276.956 13.09 276.218 13.09C275.48 13.09 274.94 13.612 274.94 14.458V20.722C274.94 21.568 275.48 22.09 276.218 22.09C276.956 22.09 277.496 21.568 277.496 20.722ZM288.257 16.834C288.257 15.628 287.735 14.44 286.385 13.594C285.719 13.18 284.945 12.964 284.063 12.964C282.785 12.964 281.741 13.414 280.931 14.296C280.121 15.178 279.725 16.294 279.725 17.644C279.725 19.012 280.157 20.11 281.039 20.956C281.921 21.784 283.019 22.198 284.369 22.198C285.539 22.198 286.529 21.91 287.303 21.316C287.969 20.794 288.095 20.074 287.681 19.57C287.231 18.976 286.583 18.814 285.881 19.318C285.431 19.678 284.909 19.858 284.297 19.858C283.199 19.858 282.461 19.192 282.317 18.238H286.835C287.789 18.238 288.257 17.77 288.257 16.834ZM284.117 15.214C284.963 15.214 285.557 15.79 285.611 16.528H282.443C282.605 15.754 283.199 15.214 284.117 15.214ZM290.442 20.722C290.334 22.522 293.106 22.522 292.998 20.722V17.59C292.998 16.096 293.538 15.34 294.618 15.34C295.608 15.34 296.076 16.06 296.076 17.068V20.722C296.076 21.568 296.616 22.09 297.354 22.09C298.092 22.09 298.632 21.568 298.632 20.722V16.87C298.632 14.404 297.228 12.964 295.05 12.964C294.132 12.964 293.43 13.27 292.908 13.882C292.71 13.36 292.314 13.09 291.72 13.09C291 13.09 290.442 13.612 290.442 14.458V20.722ZM309.087 16.834C309.087 15.628 308.565 14.44 307.215 13.594C306.549 13.18 305.775 12.964 304.893 12.964C303.615 12.964 302.571 13.414 301.761 14.296C300.951 15.178 300.555 16.294 300.555 17.644C300.555 19.012 300.987 20.11 301.869 20.956C302.751 21.784 303.849 22.198 305.199 22.198C306.369 22.198 307.359 21.91 308.133 21.316C308.799 20.794 308.925 20.074 308.511 19.57C308.061 18.976 307.413 18.814 306.711 19.318C306.261 19.678 305.739 19.858 305.127 19.858C304.029 19.858 303.291 19.192 303.147 18.238H307.665C308.619 18.238 309.087 17.77 309.087 16.834ZM304.947 15.214C305.793 15.214 306.387 15.79 306.441 16.528H303.273C303.435 15.754 304.029 15.214 304.947 15.214ZM311.488 21.226C312.262 21.874 313.324 22.198 314.674 22.198C316.924 22.198 318.364 21.028 318.364 19.354C318.364 17.716 317.266 16.942 315.466 16.438L314.332 16.132C313.9 16.006 313.702 15.898 313.702 15.628C313.702 15.34 314.026 15.142 314.53 15.142C315.052 15.142 315.556 15.286 316.024 15.592C316.726 16.006 317.338 15.844 317.716 15.268C318.058 14.71 317.896 14.062 317.248 13.63C316.528 13.18 315.664 12.964 314.638 12.964C313.684 12.964 312.874 13.216 312.208 13.738C311.542 14.242 311.218 14.908 311.218 15.754C311.218 17.176 312.136 18.076 314.098 18.634L315.088 18.922C315.682 19.084 315.88 19.228 315.88 19.516C315.88 19.858 315.448 20.056 314.89 20.056C314.098 20.056 313.45 19.858 312.964 19.48C312.316 18.958 311.758 18.976 311.272 19.516C310.822 20.02 310.894 20.704 311.488 21.226ZM325.89 13.882C325.296 14.368 325.17 15.088 325.584 15.574C325.962 16.078 326.61 16.132 327.276 15.682C327.726 15.376 328.212 15.232 328.752 15.232C329.652 15.232 330.102 15.682 330.102 16.582L328.482 16.654C327.492 16.69 326.646 16.942 325.98 17.41C325.314 17.878 324.99 18.562 324.99 19.48C324.99 20.272 325.26 20.92 325.818 21.442C326.376 21.946 327.078 22.198 327.96 22.198C328.842 22.198 329.598 21.892 330.21 21.28C330.408 21.82 330.804 22.09 331.398 22.09C332.118 22.09 332.676 21.568 332.676 20.722V16.492C332.676 15.394 332.334 14.548 331.632 13.918C330.93 13.288 330.03 12.964 328.932 12.964C327.69 12.964 326.664 13.27 325.89 13.882ZM327.564 19.336C327.564 18.85 328.032 18.598 328.968 18.544L330.102 18.454V19.498C329.616 19.858 329.112 20.038 328.59 20.038C327.942 20.038 327.564 19.768 327.564 19.336ZM337.945 10.678C338.053 8.878 335.281 8.878 335.389 10.678V20.722C335.281 22.522 338.053 22.522 337.945 20.722V10.678ZM346.569 17.392C346.569 18.616 345.705 19.48 344.607 19.48C343.527 19.48 342.663 18.616 342.663 17.392C342.663 16.15 343.527 15.286 344.607 15.286C345.705 15.286 346.569 16.15 346.569 17.392ZM341.115 24.718C341.997 25.366 343.059 25.69 344.319 25.69C345.813 25.69 346.965 25.258 347.811 24.412C348.657 23.566 349.089 22.45 349.089 21.082V14.44C349.089 13.576 348.549 13.072 347.811 13.072C347.199 13.072 346.803 13.342 346.623 13.9C346.065 13.27 345.309 12.964 344.373 12.964C343.167 12.964 342.159 13.36 341.313 14.152C340.467 14.944 340.053 16.024 340.053 17.392C340.053 18.742 340.449 19.822 341.259 20.614C342.069 21.406 343.113 21.802 344.373 21.802C345.291 21.802 346.011 21.586 346.515 21.136V21.37C346.515 22.54 345.651 23.332 344.301 23.332C343.797 23.332 343.293 23.17 342.771 22.864C341.997 22.378 341.385 22.396 340.935 22.882C340.449 23.386 340.449 24.214 341.115 24.718ZM359.478 14.458C359.586 12.658 356.814 12.658 356.922 14.458V17.59C356.922 19.048 356.526 19.84 355.392 19.84C354.492 19.84 354.042 19.264 354.042 18.112V14.458C354.15 12.658 351.378 12.658 351.486 14.458V18.31C351.486 20.812 352.692 22.198 354.852 22.198C355.806 22.198 356.526 21.892 357.03 21.298C357.228 21.82 357.624 22.09 358.2 22.09C358.92 22.09 359.478 21.568 359.478 20.722V14.458ZM356.67 11.11C356.94 11.02 357.174 10.858 357.336 10.642C357.696 10.084 357.534 9.346 357.012 9.004C356.562 8.734 356.13 8.716 355.716 8.986L354.186 9.994C354.042 10.084 353.916 10.192 353.826 10.336C353.52 10.786 353.646 11.47 354.132 11.776C354.456 11.974 354.78 11.992 355.122 11.83L356.67 11.11ZM362.319 20.722C362.211 22.522 364.983 22.522 364.875 20.722V17.59C364.875 16.096 365.415 15.34 366.495 15.34C367.485 15.34 367.953 16.06 367.953 17.068V20.722C367.953 21.568 368.493 22.09 369.231 22.09C369.969 22.09 370.509 21.568 370.509 20.722V16.87C370.509 14.404 369.105 12.964 366.927 12.964C366.009 12.964 365.307 13.27 364.785 13.882C364.587 13.36 364.191 13.09 363.597 13.09C362.877 13.09 362.319 13.612 362.319 14.458V20.722ZM373.386 13.882C372.792 14.368 372.666 15.088 373.08 15.574C373.458 16.078 374.106 16.132 374.772 15.682C375.222 15.376 375.708 15.232 376.248 15.232C377.148 15.232 377.598 15.682 377.598 16.582L375.978 16.654C374.988 16.69 374.142 16.942 373.476 17.41C372.81 17.878 372.486 18.562 372.486 19.48C372.486 20.272 372.756 20.92 373.314 21.442C373.872 21.946 374.574 22.198 375.456 22.198C376.338 22.198 377.094 21.892 377.706 21.28C377.904 21.82 378.3 22.09 378.894 22.09C379.614 22.09 380.172 21.568 380.172 20.722V16.492C380.172 15.394 379.83 14.548 379.128 13.918C378.426 13.288 377.526 12.964 376.428 12.964C375.186 12.964 374.16 13.27 373.386 13.882ZM375.06 19.336C375.06 18.85 375.528 18.598 376.464 18.544L377.598 18.454V19.498C377.112 19.858 376.608 20.038 376.086 20.038C375.438 20.038 375.06 19.768 375.06 19.336ZM387.611 10.678C387.611 11.488 388.277 12.154 389.087 12.154C389.897 12.154 390.581 11.488 390.581 10.678C390.581 9.832 389.933 9.184 389.087 9.184C388.277 9.184 387.611 9.832 387.611 10.678ZM390.365 20.722V14.458C390.365 13.612 389.825 13.09 389.087 13.09C388.349 13.09 387.809 13.612 387.809 14.458V20.722C387.809 21.568 388.349 22.09 389.087 22.09C389.825 22.09 390.365 21.568 390.365 20.722ZM401.81 10.678C401.918 8.878 399.146 8.878 399.254 10.678V13.738C398.66 13.216 397.904 12.964 396.986 12.964C395.744 12.964 394.682 13.396 393.836 14.26C392.99 15.106 392.576 16.222 392.576 17.59C392.576 18.976 392.99 20.092 393.836 20.938C394.682 21.784 395.744 22.198 396.986 22.198C397.94 22.198 398.894 21.82 399.344 21.262C399.524 21.82 399.92 22.09 400.532 22.09C401.252 22.09 401.81 21.568 401.81 20.722V10.678ZM398.696 19.246C398.318 19.678 397.832 19.894 397.238 19.894C396.644 19.894 396.158 19.678 395.762 19.246C395.384 18.814 395.186 18.256 395.186 17.59C395.186 16.924 395.384 16.366 395.762 15.934C396.158 15.502 396.644 15.286 397.238 15.286C397.832 15.286 398.318 15.502 398.696 15.934C399.092 16.366 399.29 16.924 399.29 17.59C399.29 18.256 399.092 18.814 398.696 19.246ZM412.464 16.834C412.464 15.628 411.942 14.44 410.592 13.594C409.926 13.18 409.152 12.964 408.27 12.964C406.992 12.964 405.948 13.414 405.138 14.296C404.328 15.178 403.932 16.294 403.932 17.644C403.932 19.012 404.364 20.11 405.246 20.956C406.128 21.784 407.226 22.198 408.576 22.198C409.746 22.198 410.736 21.91 411.51 21.316C412.176 20.794 412.302 20.074 411.888 19.57C411.438 18.976 410.79 18.814 410.088 19.318C409.638 19.678 409.116 19.858 408.504 19.858C407.406 19.858 406.668 19.192 406.524 18.238H411.042C411.996 18.238 412.464 17.77 412.464 16.834ZM408.324 15.214C409.17 15.214 409.764 15.79 409.818 16.528H406.65C406.812 15.754 407.406 15.214 408.324 15.214ZM415.099 13.882C414.505 14.368 414.379 15.088 414.793 15.574C415.171 16.078 415.819 16.132 416.485 15.682C416.935 15.376 417.421 15.232 417.961 15.232C418.861 15.232 419.311 15.682 419.311 16.582L417.691 16.654C416.701 16.69 415.855 16.942 415.189 17.41C414.523 17.878 414.199 18.562 414.199 19.48C414.199 20.272 414.469 20.92 415.027 21.442C415.585 21.946 416.287 22.198 417.169 22.198C418.051 22.198 418.807 21.892 419.419 21.28C419.617 21.82 420.013 22.09 420.607 22.09C421.327 22.09 421.885 21.568 421.885 20.722V16.492C421.885 15.394 421.543 14.548 420.841 13.918C420.139 13.288 419.239 12.964 418.141 12.964C416.899 12.964 415.873 13.27 415.099 13.882ZM416.773 19.336C416.773 18.85 417.241 18.598 418.177 18.544L419.311 18.454V19.498C418.825 19.858 418.321 20.038 417.799 20.038C417.151 20.038 416.773 19.768 416.773 19.336ZM438.144 10.678C438.252 8.878 435.48 8.878 435.588 10.678V13.738C434.994 13.216 434.238 12.964 433.32 12.964C432.078 12.964 431.016 13.396 430.17 14.26C429.324 15.106 428.91 16.222 428.91 17.59C428.91 18.976 429.324 20.092 430.17 20.938C431.016 21.784 432.078 22.198 433.32 22.198C434.274 22.198 435.228 21.82 435.678 21.262C435.858 21.82 436.254 22.09 436.866 22.09C437.586 22.09 438.144 21.568 438.144 20.722V10.678ZM435.03 19.246C434.652 19.678 434.166 19.894 433.572 19.894C432.978 19.894 432.492 19.678 432.096 19.246C431.718 18.814 431.52 18.256 431.52 17.59C431.52 16.924 431.718 16.366 432.096 15.934C432.492 15.502 432.978 15.286 433.572 15.286C434.166 15.286 434.652 15.502 435.03 15.934C435.426 16.366 435.624 16.924 435.624 17.59C435.624 18.256 435.426 18.814 435.03 19.246ZM448.798 16.834C448.798 15.628 448.276 14.44 446.926 13.594C446.26 13.18 445.486 12.964 444.604 12.964C443.326 12.964 442.282 13.414 441.472 14.296C440.662 15.178 440.266 16.294 440.266 17.644C440.266 19.012 440.698 20.11 441.58 20.956C442.462 21.784 443.56 22.198 444.91 22.198C446.08 22.198 447.07 21.91 447.844 21.316C448.51 20.794 448.636 20.074 448.222 19.57C447.772 18.976 447.124 18.814 446.422 19.318C445.972 19.678 445.45 19.858 444.838 19.858C443.74 19.858 443.002 19.192 442.858 18.238H447.376C448.33 18.238 448.798 17.77 448.798 16.834ZM444.658 15.214C445.504 15.214 446.098 15.79 446.152 16.528H442.984C443.146 15.754 443.74 15.214 444.658 15.214ZM463.786 14.458C463.894 12.658 461.122 12.658 461.23 14.458V17.59C461.23 19.048 460.834 19.84 459.7 19.84C458.8 19.84 458.35 19.264 458.35 18.112V14.458C458.458 12.658 455.686 12.658 455.794 14.458V18.31C455.794 20.812 457 22.198 459.16 22.198C460.114 22.198 460.834 21.892 461.338 21.298C461.536 21.82 461.932 22.09 462.508 22.09C463.228 22.09 463.786 21.568 463.786 20.722V14.458ZM466.627 20.722C466.519 22.522 469.291 22.522 469.183 20.722V17.59C469.183 16.096 469.723 15.34 470.803 15.34C471.793 15.34 472.261 16.06 472.261 17.068V20.722C472.261 21.568 472.801 22.09 473.539 22.09C474.277 22.09 474.817 21.568 474.817 20.722V16.87C474.817 14.404 473.413 12.964 471.235 12.964C470.317 12.964 469.615 13.27 469.093 13.882C468.895 13.36 468.499 13.09 467.905 13.09C467.185 13.09 466.627 13.612 466.627 14.458V20.722ZM490.03 14.89C490.336 14.08 490.012 13.36 489.31 13.144C488.608 12.928 487.906 13.306 487.636 14.116L485.926 18.634L484.216 14.116C483.946 13.306 483.28 12.928 482.578 13.144C481.858 13.36 481.498 14.098 481.804 14.89L484.162 20.74C484.54 21.658 485.116 22.108 485.926 22.108C486.772 22.108 487.366 21.658 487.69 20.74L490.03 14.89ZM492.276 20.884C493.158 21.766 494.274 22.198 495.606 22.198C496.938 22.198 498.054 21.766 498.936 20.884C499.818 20.002 500.268 18.904 500.268 17.59C500.268 16.276 499.818 15.178 498.918 14.296C498.036 13.414 496.92 12.964 495.606 12.964C494.292 12.964 493.176 13.414 492.276 14.296C491.394 15.178 490.944 16.276 490.944 17.59C490.944 18.904 491.394 20.002 492.276 20.884ZM494.13 15.988C494.508 15.574 495.012 15.358 495.606 15.358C496.2 15.358 496.704 15.574 497.082 15.988C497.46 16.402 497.658 16.942 497.658 17.59C497.658 18.238 497.46 18.778 497.082 19.192C496.704 19.606 496.2 19.822 495.606 19.822C495.012 19.822 494.508 19.606 494.13 19.192C493.752 18.778 493.554 18.238 493.554 17.59C493.554 16.942 493.752 16.402 494.13 15.988ZM504.955 10.678C505.063 8.878 502.291 8.878 502.399 10.678V20.722C502.291 22.522 505.063 22.522 504.955 20.722V10.678ZM515.361 14.458C515.469 12.658 512.697 12.658 512.805 14.458V17.59C512.805 19.048 512.409 19.84 511.275 19.84C510.375 19.84 509.925 19.264 509.925 18.112V14.458C510.033 12.658 507.261 12.658 507.369 14.458V18.31C507.369 20.812 508.575 22.198 510.735 22.198C511.689 22.198 512.409 21.892 512.913 21.298C513.111 21.82 513.507 22.09 514.083 22.09C514.803 22.09 515.361 21.568 515.361 20.722V14.458ZM518.202 20.722C518.094 22.522 520.866 22.522 520.758 20.722V17.59C520.758 16.096 521.298 15.34 522.378 15.34C523.368 15.34 523.836 16.06 523.836 17.068V20.722C523.836 21.568 524.376 22.09 525.114 22.09C525.852 22.09 526.392 21.568 526.392 20.722V16.87C526.392 14.404 524.988 12.964 522.81 12.964C521.892 12.964 521.19 13.27 520.668 13.882C520.47 13.36 520.074 13.09 519.48 13.09C518.76 13.09 518.202 13.612 518.202 14.458V20.722ZM532.475 19.66C531.881 19.606 531.575 19.318 531.575 18.58V15.538H532.439C533.231 15.538 533.717 15.034 533.717 14.368C533.717 13.702 533.231 13.18 532.439 13.18H531.575V11.992C531.701 10.192 528.929 10.192 529.037 11.992V13.18H528.713C527.921 13.18 527.435 13.702 527.435 14.368C527.435 15.034 527.921 15.538 528.713 15.538H529.037V18.886C529.037 20.992 530.063 22.036 532.115 22.036H532.349C533.231 22.036 533.717 21.532 533.717 20.866C533.717 20.2 533.285 19.75 532.475 19.66ZM536.3 13.882C535.706 14.368 535.58 15.088 535.994 15.574C536.372 16.078 537.02 16.132 537.686 15.682C538.136 15.376 538.622 15.232 539.162 15.232C540.062 15.232 540.512 15.682 540.512 16.582L538.892 16.654C537.902 16.69 537.056 16.942 536.39 17.41C535.724 17.878 535.4 18.562 535.4 19.48C535.4 20.272 535.67 20.92 536.228 21.442C536.786 21.946 537.488 22.198 538.37 22.198C539.252 22.198 540.008 21.892 540.62 21.28C540.818 21.82 541.214 22.09 541.808 22.09C542.528 22.09 543.086 21.568 543.086 20.722V16.492C543.086 15.394 542.744 14.548 542.042 13.918C541.34 13.288 540.44 12.964 539.342 12.964C538.1 12.964 537.074 13.27 536.3 13.882ZM537.974 19.336C537.974 18.85 538.442 18.598 539.378 18.544L540.512 18.454V19.498C540.026 19.858 539.522 20.038 539 20.038C538.352 20.038 537.974 19.768 537.974 19.336ZM551.181 13.126C551.001 13.072 550.767 13.054 550.461 13.054C549.687 13.054 548.823 13.45 548.319 14.152C548.229 13.522 547.743 13.09 547.077 13.09C546.357 13.09 545.799 13.612 545.799 14.458V20.722C545.691 22.522 548.463 22.522 548.355 20.722V18.31C548.355 16.528 549.291 15.538 550.515 15.538C550.677 15.538 550.947 15.574 551.073 15.574C551.703 15.574 552.189 15.088 552.189 14.386C552.189 13.72 551.757 13.27 551.181 13.126ZM553.514 10.678C553.514 11.488 554.18 12.154 554.99 12.154C555.8 12.154 556.484 11.488 556.484 10.678C556.484 9.832 555.836 9.184 554.99 9.184C554.18 9.184 553.514 9.832 553.514 10.678ZM556.268 20.722V14.458C556.268 13.612 555.728 13.09 554.99 13.09C554.252 13.09 553.712 13.612 553.712 14.458V20.722C553.712 21.568 554.252 22.09 554.99 22.09C555.728 22.09 556.268 21.568 556.268 20.722ZM559.451 13.882C558.857 14.368 558.731 15.088 559.145 15.574C559.523 16.078 560.171 16.132 560.837 15.682C561.287 15.376 561.773 15.232 562.313 15.232C563.213 15.232 563.663 15.682 563.663 16.582L562.043 16.654C561.053 16.69 560.207 16.942 559.541 17.41C558.875 17.878 558.551 18.562 558.551 19.48C558.551 20.272 558.821 20.92 559.379 21.442C559.937 21.946 560.639 22.198 561.521 22.198C562.403 22.198 563.159 21.892 563.771 21.28C563.969 21.82 564.365 22.09 564.959 22.09C565.679 22.09 566.237 21.568 566.237 20.722V16.492C566.237 15.394 565.895 14.548 565.193 13.918C564.491 13.288 563.591 12.964 562.493 12.964C561.251 12.964 560.225 13.27 559.451 13.882ZM561.125 19.336C561.125 18.85 561.593 18.598 562.529 18.544L563.663 18.454V19.498C563.177 19.858 562.673 20.038 562.151 20.038C561.503 20.038 561.125 19.768 561.125 19.336ZM577.468 10.678C577.576 8.878 574.804 8.878 574.912 10.678V13.738C574.318 13.216 573.562 12.964 572.644 12.964C571.402 12.964 570.34 13.396 569.494 14.26C568.648 15.106 568.234 16.222 568.234 17.59C568.234 18.976 568.648 20.092 569.494 20.938C570.34 21.784 571.402 22.198 572.644 22.198C573.598 22.198 574.552 21.82 575.002 21.262C575.182 21.82 575.578 22.09 576.19 22.09C576.91 22.09 577.468 21.568 577.468 20.722V10.678ZM574.354 19.246C573.976 19.678 573.49 19.894 572.896 19.894C572.302 19.894 571.816 19.678 571.42 19.246C571.042 18.814 570.844 18.256 570.844 17.59C570.844 16.924 571.042 16.366 571.42 15.934C571.816 15.502 572.302 15.286 572.896 15.286C573.49 15.286 573.976 15.502 574.354 15.934C574.75 16.366 574.948 16.924 574.948 17.59C574.948 18.256 574.75 18.814 574.354 19.246ZM580.922 20.884C581.804 21.766 582.92 22.198 584.252 22.198C585.584 22.198 586.7 21.766 587.582 20.884C588.464 20.002 588.914 18.904 588.914 17.59C588.914 16.276 588.464 15.178 587.564 14.296C586.682 13.414 585.566 12.964 584.252 12.964C582.938 12.964 581.822 13.414 580.922 14.296C580.04 15.178 579.59 16.276 579.59 17.59C579.59 18.904 580.04 20.002 580.922 20.884ZM582.776 15.988C583.154 15.574 583.658 15.358 584.252 15.358C584.846 15.358 585.35 15.574 585.728 15.988C586.106 16.402 586.304 16.942 586.304 17.59C586.304 18.238 586.106 18.778 585.728 19.192C585.35 19.606 584.846 19.822 584.252 19.822C583.658 19.822 583.154 19.606 582.776 19.192C582.398 18.778 582.2 18.238 582.2 17.59C582.2 16.942 582.398 16.402 582.776 15.988ZM595.509 16.852C596.499 16.654 597.309 16.204 597.903 15.52C598.515 14.818 598.821 14.008 598.821 13.054C598.821 11.92 598.389 10.984 597.543 10.264C596.697 9.544 595.671 9.184 594.447 9.184C593.043 9.184 591.873 9.634 590.919 10.516C590.325 11.092 590.325 11.866 590.811 12.316C591.297 12.82 591.963 12.856 592.611 12.298C593.097 11.866 593.727 11.65 594.465 11.65C595.455 11.65 596.157 12.208 596.157 13C596.157 13.864 595.383 14.512 594.249 14.656C593.385 14.782 592.881 15.394 592.881 16.348V16.852C592.881 17.716 593.457 18.256 594.195 18.256C594.933 18.256 595.509 17.716 595.509 16.852ZM592.683 20.596C592.683 21.46 593.367 22.144 594.213 22.144C595.077 22.144 595.779 21.46 595.779 20.596C595.779 19.75 595.077 19.048 594.213 19.048C593.367 19.048 592.683 19.75 592.683 20.596Z" fill="#930345"/>
<path d="M397.108 83.512C397.108 84.358 397.81 85.06 398.674 85.06C399.538 85.06 400.204 84.376 400.204 83.512C400.204 82.648 399.538 81.964 398.674 81.964C397.81 81.964 397.108 82.648 397.108 83.512ZM397.342 87.544V93.124C397.342 94.042 397.918 94.582 398.656 94.582C399.448 94.582 399.988 94.042 399.988 93.124V87.544C399.988 86.626 399.448 86.086 398.656 86.086C397.918 86.086 397.342 86.626 397.342 87.544ZM411.788 79.372C410.69 78.58 409.358 78.184 407.828 78.184C406.55 78.184 405.452 78.526 404.534 79.228C403.616 79.912 403.166 80.83 403.166 82C403.166 84.088 404.678 85.348 407.144 85.798L408.512 86.05C409.682 86.266 410.276 86.716 410.276 87.382C410.276 88.174 409.448 88.75 408.08 88.75C407.018 88.75 405.992 88.372 405.038 87.598C404.318 87.076 403.598 87.22 403.166 87.814C402.68 88.372 402.77 89.2 403.472 89.722C404.804 90.712 406.28 91.198 407.918 91.198C409.43 91.198 410.636 90.838 411.554 90.136C412.472 89.434 412.94 88.498 412.94 87.346C412.94 85.168 411.518 83.854 408.692 83.404L407.63 83.224C406.424 83.008 405.83 82.558 405.83 81.874C405.83 81.136 406.55 80.632 407.684 80.632C408.602 80.632 409.448 80.92 410.222 81.496C410.96 82 411.662 81.874 412.094 81.28C412.58 80.722 412.508 79.876 411.788 79.372ZM417.734 83.458C417.734 82.612 417.194 82.09 416.456 82.09C415.718 82.09 415.178 82.612 415.178 83.458V89.722C415.178 90.568 415.718 91.09 416.456 91.09C417.194 91.09 417.734 90.568 417.734 89.722V83.458ZM417.536 80.11C417.806 80.02 418.04 79.858 418.202 79.642C418.562 79.084 418.4 78.346 417.878 78.004C417.428 77.734 416.996 77.716 416.582 77.986L415.052 78.994C414.908 79.084 414.782 79.192 414.692 79.336C414.386 79.786 414.512 80.47 414.998 80.776C415.322 80.974 415.646 80.992 415.988 80.83L417.536 80.11ZM423.9 89.596C423.9 88.75 423.198 88.048 422.334 88.048C421.47 88.048 420.804 88.732 420.804 89.596C420.804 90.46 421.47 91.144 422.334 91.144C423.198 91.144 423.9 90.46 423.9 89.596ZM423.666 79.768C423.666 78.85 423.09 78.31 422.352 78.31C421.56 78.31 421.02 78.85 421.02 79.768V85.564C421.02 86.482 421.56 87.022 422.352 87.022C423.09 87.022 423.666 86.482 423.666 85.564V79.768Z" fill="white"/>
<path d="M-7.95752e-06 0.000236852L0 191.843L90.8642 95.8506L-7.95752e-06 0.000236852Z" fill="#930345"/>
<path d="M91 0.000236852L91 191.843L181.999 95.8506L91 0.000236852Z" fill="#930345"/>
</svg>
