<svg width="165" height="165" viewBox="0 0 165 165" fill="none" xmlns="http://www.w3.org/2000/svg">
<circle cx="82.5" cy="82.5" r="82.5" fill="#F9D332"/>
<path d="M54.7631 68.056C52.9871 69.52 50.8991 70.264 48.5231 70.264C46.0511 70.264 43.9631 69.448 42.2591 67.84C40.5791 66.232 39.7391 64.144 39.7391 61.624C39.7391 59.008 40.5791 56.896 42.2591 55.312C43.9391 53.704 46.0271 52.912 48.5471 52.912C50.7311 52.912 52.6271 53.584 54.2111 54.928C55.0751 55.696 55.1471 56.752 54.4751 57.448C53.8271 58.216 52.8671 58.312 51.9311 57.544C50.9471 56.68 49.7711 56.248 48.3791 56.248C47.0591 56.248 45.9071 56.728 44.8991 57.688C43.9151 58.624 43.4111 59.92 43.4111 61.552C43.4111 63.16 43.9151 64.48 44.8991 65.464C45.8831 66.448 47.1071 66.928 48.5711 66.928C49.9391 66.928 51.0671 66.592 52.0031 65.92V63.88H49.9151C48.8591 63.88 48.1871 63.16 48.1871 62.272C48.1871 61.336 48.8591 60.64 49.9151 60.64H53.2271C54.6671 60.64 55.5071 61.48 55.5071 62.92V66.232C55.5071 67.048 55.2671 67.648 54.7631 68.056ZM69.5028 59.944V68.296C69.5028 69.424 68.7588 70.12 67.7988 70.12C67.0308 70.12 66.5028 69.76 66.2388 69.064C65.5668 69.856 64.6068 70.264 63.3348 70.264C60.4548 70.264 58.8468 68.416 58.8468 65.08V59.944C58.7028 57.544 62.3988 57.544 62.2548 59.944V64.816C62.2548 66.352 62.8548 67.12 64.0548 67.12C65.5668 67.12 66.0948 66.064 66.0948 64.12V59.944C65.9508 57.544 69.6468 57.544 69.5028 59.944ZM77.0831 59.944V68.296C77.0831 69.424 76.3631 70.12 75.3791 70.12C74.3951 70.12 73.6751 69.424 73.6751 68.296V59.944C73.6751 58.816 74.3951 58.12 75.3791 58.12C76.3631 58.12 77.0831 58.816 77.0831 59.944ZM76.8191 55.48L74.7551 56.44C74.2991 56.656 73.8671 56.632 73.4351 56.368C72.7871 55.96 72.6191 55.048 73.0271 54.448C73.1471 54.256 73.3151 54.112 73.5071 53.992L75.5471 52.648C76.0991 52.288 76.6751 52.312 77.2751 52.672C77.9711 53.128 78.1871 54.112 77.7071 54.856C77.4911 55.144 77.1791 55.36 76.8191 55.48ZM81.3676 59.176C82.3996 58.36 83.7676 57.952 85.4236 57.952C86.8876 57.952 88.0876 58.384 89.0236 59.224C89.9596 60.064 90.4156 61.192 90.4156 62.656V68.296C90.4156 69.424 89.6716 70.12 88.7116 70.12C87.9196 70.12 87.3916 69.76 87.1276 69.04C86.3116 69.856 85.3036 70.264 84.1276 70.264C82.9516 70.264 82.0156 69.928 81.2716 69.256C80.5276 68.56 80.1676 67.696 80.1676 66.64C80.1676 65.416 80.5996 64.504 81.4876 63.88C82.3756 63.256 83.5036 62.92 84.8236 62.872L86.9836 62.776C86.9836 61.576 86.3836 60.976 85.1836 60.976C84.4636 60.976 83.8156 61.168 83.2156 61.576C82.3276 62.176 81.4636 62.104 80.9596 61.432C80.4076 60.784 80.5756 59.824 81.3676 59.176ZM83.5996 66.448C83.5996 67.024 84.1036 67.384 84.9676 67.384C85.6636 67.384 86.3356 67.144 86.9836 66.664V65.272L85.4716 65.392C84.2236 65.464 83.5996 65.8 83.5996 66.448ZM112.095 54.904V68.296C112.095 69.424 111.351 70.12 110.391 70.12C109.575 70.12 109.047 69.76 108.807 69.016C108.207 69.76 106.935 70.264 105.663 70.264C104.007 70.264 102.591 69.712 101.463 68.584C100.335 67.456 99.7826 65.968 99.7826 64.12C99.7826 62.296 100.335 60.808 101.463 59.68C102.591 58.528 104.007 57.952 105.663 57.952C106.887 57.952 107.895 58.288 108.687 58.984V54.904C108.543 52.504 112.239 52.504 112.095 54.904ZM107.943 66.328C108.471 65.752 108.735 65.008 108.735 64.12C108.735 63.232 108.471 62.488 107.943 61.912C107.439 61.336 106.791 61.048 105.999 61.048C105.207 61.048 104.559 61.336 104.031 61.912C103.527 62.488 103.263 63.232 103.263 64.12C103.263 65.008 103.527 65.752 104.031 66.328C104.559 66.904 105.207 67.192 105.999 67.192C106.791 67.192 107.439 66.904 107.943 66.328ZM126.3 63.112C126.3 64.36 125.676 64.984 124.404 64.984H118.38C118.572 66.256 119.556 67.144 121.02 67.144C121.836 67.144 122.532 66.904 123.132 66.424C124.068 65.752 124.932 65.968 125.532 66.76C126.084 67.432 125.916 68.392 125.028 69.088C123.996 69.88 122.676 70.264 121.116 70.264C119.316 70.264 117.852 69.712 116.676 68.608C115.5 67.48 114.924 66.016 114.924 64.192C114.924 62.392 115.452 60.904 116.532 59.728C117.612 58.552 119.004 57.952 120.708 57.952C121.884 57.952 122.916 58.24 123.804 58.792C125.604 59.92 126.3 61.504 126.3 63.112ZM120.78 60.952C119.556 60.952 118.764 61.672 118.548 62.704H122.772C122.7 61.72 121.908 60.952 120.78 60.952ZM20.7241 107.72V94.952C20.7241 93.776 21.4681 93.056 22.5001 93.056C23.5321 93.056 24.2761 93.776 24.2761 94.952V106.712H30.3241C31.4041 106.712 32.0761 107.408 32.0761 108.368C32.0761 109.304 31.4041 110 30.3241 110H23.0041C21.5641 110 20.7241 109.16 20.7241 107.72ZM38.4112 99.944V108.296C38.4112 109.424 37.6912 110.12 36.7072 110.12C35.7232 110.12 35.0032 109.424 35.0032 108.296V99.944C35.0032 98.816 35.7232 98.12 36.7072 98.12C37.6912 98.12 38.4112 98.816 38.4112 99.944ZM38.1472 95.48L36.0832 96.44C35.6272 96.656 35.1952 96.632 34.7632 96.368C34.1152 95.96 33.9472 95.048 34.3552 94.448C34.4752 94.256 34.6432 94.112 34.8352 93.992L36.8752 92.648C37.4272 92.288 38.0032 92.312 38.6032 92.672C39.2992 93.128 39.5152 94.112 39.0352 94.856C38.8192 95.144 38.5072 95.36 38.1472 95.48ZM42.3536 108.296V99.944C42.3536 98.816 43.0976 98.12 44.0576 98.12C44.8496 98.12 45.3776 98.48 45.6416 99.176C46.3376 98.36 47.2736 97.952 48.4976 97.952C51.4016 97.952 53.2736 99.872 53.2736 103.16V108.296C53.2736 109.424 52.5536 110.12 51.5696 110.12C50.5856 110.12 49.8656 109.424 49.8656 108.296V103.424C49.8656 102.08 49.2416 101.12 47.9216 101.12C46.4816 101.12 45.7616 102.128 45.7616 104.12V108.296C45.9056 110.696 42.2096 110.696 42.3536 108.296ZM67.2138 103.112C67.2138 104.36 66.5898 104.984 65.3178 104.984H59.2938C59.4858 106.256 60.4698 107.144 61.9338 107.144C62.7498 107.144 63.4458 106.904 64.0458 106.424C64.9818 105.752 65.8458 105.968 66.4458 106.76C66.9978 107.432 66.8298 108.392 65.9418 109.088C64.9098 109.88 63.5898 110.264 62.0298 110.264C60.2298 110.264 58.7658 109.712 57.5898 108.608C56.4138 107.48 55.8378 106.016 55.8378 104.192C55.8378 102.392 56.3658 100.904 57.4458 99.728C58.5258 98.552 59.9178 97.952 61.6218 97.952C62.7978 97.952 63.8298 98.24 64.7178 98.792C66.5178 99.92 67.2138 101.504 67.2138 103.112ZM61.6938 100.952C60.4698 100.952 59.6778 101.672 59.4618 102.704H63.6858C63.6138 101.72 62.8218 100.952 61.6938 100.952ZM70.727 99.176C71.759 98.36 73.127 97.952 74.783 97.952C76.247 97.952 77.447 98.384 78.383 99.224C79.319 100.064 79.775 101.192 79.775 102.656V108.296C79.775 109.424 79.031 110.12 78.071 110.12C77.279 110.12 76.751 109.76 76.487 109.04C75.671 109.856 74.663 110.264 73.487 110.264C72.311 110.264 71.375 109.928 70.631 109.256C69.887 108.56 69.527 107.696 69.527 106.64C69.527 105.416 69.959 104.504 70.847 103.88C71.735 103.256 72.863 102.92 74.183 102.872L76.343 102.776C76.343 101.576 75.743 100.976 74.543 100.976C73.823 100.976 73.175 101.168 72.575 101.576C71.687 102.176 70.823 102.104 70.319 101.432C69.767 100.784 69.935 99.824 70.727 99.176ZM72.959 106.448C72.959 107.024 73.463 107.384 74.327 107.384C75.023 107.384 75.695 107.144 76.343 106.664V105.272L74.831 105.392C73.583 105.464 72.959 105.8 72.959 106.448ZM100.47 103.04H93.5339V106.712H100.854C101.934 106.712 102.606 107.408 102.606 108.368C102.606 109.304 101.934 110 100.854 110H92.2379C90.7979 110 89.9579 109.16 89.9579 107.72V95.48C89.9579 94.04 90.7979 93.2 92.2379 93.2H100.854C101.934 93.2 102.606 93.896 102.606 94.856C102.606 95.792 101.934 96.488 100.854 96.488H93.5339V99.8H100.47C101.526 99.8 102.198 100.496 102.198 101.432C102.198 102.32 101.526 103.04 100.47 103.04ZM97.5179 90.608L95.4539 91.568C94.9979 91.784 94.5659 91.76 94.1339 91.496C93.4859 91.088 93.3179 90.176 93.7259 89.576C93.8459 89.384 94.0139 89.24 94.2059 89.12L96.2459 87.776C96.7979 87.416 97.3739 87.44 97.9739 87.8C98.6699 88.256 98.8859 89.24 98.4059 89.984C98.1899 90.272 97.8779 90.488 97.5179 90.608ZM110.885 106.88C111.965 107 112.541 107.6 112.541 108.488C112.541 109.376 111.893 110.048 110.717 110.048H110.405C107.669 110.048 106.301 108.656 106.301 105.848V101.384H105.869C104.813 101.384 104.165 100.712 104.165 99.824C104.165 98.936 104.813 98.24 105.869 98.24H106.301V96.656C106.157 94.256 109.853 94.256 109.685 96.656V98.24H110.837C111.893 98.24 112.541 98.936 112.541 99.824C112.541 100.712 111.893 101.384 110.837 101.384H109.685V105.44C109.685 106.424 110.093 106.808 110.885 106.88ZM115.241 94.904C115.241 93.776 116.129 92.912 117.209 92.912C118.337 92.912 119.201 93.776 119.201 94.904C119.201 95.984 118.289 96.872 117.209 96.872C116.129 96.872 115.241 95.984 115.241 94.904ZM118.913 108.296C118.913 109.424 118.193 110.12 117.209 110.12C116.225 110.12 115.505 109.424 115.505 108.296V99.944C115.505 98.816 116.225 98.12 117.209 98.12C118.193 98.12 118.913 98.816 118.913 99.944V108.296ZM129.925 101.744C129.373 101.336 128.797 101.12 128.197 101.12C126.493 101.12 125.341 102.368 125.341 104.12C125.341 105.872 126.493 107.12 128.197 107.12C128.845 107.12 129.493 106.856 130.141 106.352C131.077 105.68 131.941 105.896 132.541 106.688C133.093 107.36 132.925 108.32 132.037 109.016C130.933 109.856 129.613 110.264 128.077 110.264C126.301 110.264 124.813 109.688 123.637 108.512C122.461 107.336 121.861 105.872 121.861 104.12C121.861 102.368 122.461 100.904 123.637 99.728C124.837 98.552 126.325 97.952 128.077 97.952C129.445 97.952 130.645 98.312 131.653 99.056C132.541 99.752 132.781 100.76 132.277 101.432C131.725 102.2 130.861 102.392 129.925 101.744ZM136.516 99.176C137.548 98.36 138.916 97.952 140.572 97.952C142.036 97.952 143.236 98.384 144.172 99.224C145.108 100.064 145.564 101.192 145.564 102.656V108.296C145.564 109.424 144.82 110.12 143.86 110.12C143.068 110.12 142.54 109.76 142.276 109.04C141.46 109.856 140.452 110.264 139.276 110.264C138.1 110.264 137.164 109.928 136.42 109.256C135.676 108.56 135.316 107.696 135.316 106.64C135.316 105.416 135.748 104.504 136.636 103.88C137.524 103.256 138.652 102.92 139.972 102.872L142.132 102.776C142.132 101.576 141.532 100.976 140.332 100.976C139.612 100.976 138.964 101.168 138.364 101.576C137.476 102.176 136.612 102.104 136.108 101.432C135.556 100.784 135.724 99.824 136.516 99.176ZM138.748 106.448C138.748 107.024 139.252 107.384 140.116 107.384C140.812 107.384 141.484 107.144 142.132 106.664V105.272L140.62 105.392C139.372 105.464 138.748 105.8 138.748 106.448Z" fill="#930345"/>
</svg>
