<svg width="250" height="124" viewBox="0 0 250 124" fill="none" xmlns="http://www.w3.org/2000/svg">
<path d="M-5.42021e-06 124C-2.42854e-06 55.5584 56.0065 -8.47973e-06 125 -5.46392e-06C193.994 -2.44812e-06 250 55.5584 250 124L-5.42021e-06 124Z" fill="#FF3B9D"/>
<path d="M83.5054 31.904C84.6574 32.928 84.7534 34.336 83.8574 35.264C82.9934 36.288 81.7134 36.416 80.4654 35.392C79.1534 34.24 77.5854 33.664 75.7294 33.664C73.9694 33.664 72.4334 34.304 71.0894 35.584C69.7774 36.832 69.1054 38.56 69.1054 40.736C69.1054 42.944 69.7774 44.704 71.0894 45.984C72.4014 47.264 74.0334 47.904 75.9854 47.904C77.8094 47.904 79.4094 47.328 80.8174 46.144C82.0654 45.152 83.3454 45.28 84.2094 46.272C85.1054 47.2 85.0094 48.608 83.8574 49.632C81.8094 51.456 79.2174 52.352 76.1134 52.352C72.6894 52.352 69.8414 51.296 67.5694 49.184C65.3294 47.072 64.2094 44.288 64.2094 40.832C64.2094 37.344 65.3294 34.528 67.5694 32.416C69.8094 30.272 72.5934 29.216 75.9534 29.216C78.8654 29.216 81.3934 30.112 83.5054 31.904ZM90.4486 50.016C88.8806 48.448 88.0806 46.496 88.0806 44.16C88.0806 41.824 88.8806 39.872 90.4486 38.304C92.0486 36.736 94.0326 35.936 96.3686 35.936C98.7046 35.936 100.689 36.736 102.257 38.304C103.857 39.872 104.657 41.824 104.657 44.16C104.657 46.496 103.857 48.448 102.289 50.016C100.721 51.584 98.7366 52.352 96.3686 52.352C94.0006 52.352 92.0166 51.584 90.4486 50.016ZM93.7446 41.312C93.0726 42.048 92.7206 43.008 92.7206 44.16C92.7206 45.312 93.0726 46.272 93.7446 47.008C94.4166 47.744 95.3126 48.128 96.3686 48.128C97.4246 48.128 98.3206 47.744 98.9926 47.008C99.6646 46.272 100.017 45.312 100.017 44.16C100.017 43.008 99.6646 42.048 98.9926 41.312C98.3206 40.576 97.4246 40.192 96.3686 40.192C95.3126 40.192 94.4166 40.576 93.7446 41.312ZM108.445 49.728V38.592C108.445 37.088 109.437 36.16 110.717 36.16C111.773 36.16 112.477 36.64 112.829 37.568C113.757 36.48 115.005 35.936 116.637 35.936C120.509 35.936 123.005 38.496 123.005 42.88V49.728C123.005 51.232 122.045 52.16 120.733 52.16C119.421 52.16 118.461 51.232 118.461 49.728V43.232C118.461 41.44 117.629 40.16 115.869 40.16C113.949 40.16 112.989 41.504 112.989 44.16V49.728C113.181 52.928 108.253 52.928 108.445 49.728ZM127.704 50.624C126.648 49.696 126.52 48.48 127.32 47.584C128.184 46.624 129.176 46.592 130.328 47.52C131.192 48.192 132.344 48.544 133.752 48.544C134.744 48.544 135.512 48.192 135.512 47.584C135.512 47.072 135.16 46.816 134.104 46.528L132.344 46.016C128.856 45.024 127.224 43.424 127.224 40.896C127.224 39.392 127.8 38.208 128.984 37.312C130.168 36.384 131.608 35.936 133.304 35.936C135.128 35.936 136.664 36.32 137.944 37.12C139.096 37.888 139.384 39.04 138.776 40.032C138.104 41.056 137.016 41.344 135.768 40.608C134.936 40.064 134.04 39.808 133.112 39.808C132.216 39.808 131.64 40.16 131.64 40.672C131.64 41.152 131.992 41.344 132.76 41.568L134.776 42.112C137.976 43.008 139.928 44.384 139.928 47.296C139.928 50.272 137.368 52.352 133.368 52.352C130.968 52.352 129.08 51.776 127.704 50.624ZM157.655 42.816C157.655 44.48 156.823 45.312 155.127 45.312H147.095C147.351 47.008 148.663 48.192 150.615 48.192C151.703 48.192 152.631 47.872 153.431 47.232C154.679 46.336 155.831 46.624 156.631 47.68C157.367 48.576 157.143 49.856 155.959 50.784C154.583 51.84 152.823 52.352 150.743 52.352C148.343 52.352 146.391 51.616 144.823 50.144C143.255 48.64 142.487 46.688 142.487 44.256C142.487 41.856 143.191 39.872 144.631 38.304C146.071 36.736 147.927 35.936 150.199 35.936C151.767 35.936 153.143 36.32 154.327 37.056C156.727 38.56 157.655 40.672 157.655 42.816ZM150.295 39.936C148.663 39.936 147.607 40.896 147.319 42.272H152.951C152.855 40.96 151.799 39.936 150.295 39.936ZM160.419 54.112C161.283 54.112 161.859 53.44 161.859 52.384V38.592C161.667 35.392 166.595 35.392 166.403 38.592V52.768C166.403 56.512 164.579 58.368 160.899 58.368C159.203 58.368 158.307 57.44 158.307 56.192C158.307 55.008 159.139 54.112 160.419 54.112ZM161.507 31.872C161.507 30.368 162.691 29.216 164.131 29.216C165.571 29.216 166.787 30.432 166.787 31.872C166.787 33.312 165.571 34.496 164.131 34.496C162.691 34.496 161.507 33.312 161.507 31.872ZM172.73 50.016C171.162 48.448 170.362 46.496 170.362 44.16C170.362 41.824 171.162 39.872 172.73 38.304C174.33 36.736 176.314 35.936 178.65 35.936C180.986 35.936 182.97 36.736 184.538 38.304C186.138 39.872 186.938 41.824 186.938 44.16C186.938 46.496 186.138 48.448 184.57 50.016C183.002 51.584 181.018 52.352 178.65 52.352C176.282 52.352 174.298 51.584 172.73 50.016ZM176.026 41.312C175.354 42.048 175.002 43.008 175.002 44.16C175.002 45.312 175.354 46.272 176.026 47.008C176.698 47.744 177.594 48.128 178.65 48.128C179.706 48.128 180.602 47.744 181.274 47.008C181.946 46.272 182.298 45.312 182.298 44.16C182.298 43.008 181.946 42.048 181.274 41.312C180.602 40.576 179.706 40.192 178.65 40.192C177.594 40.192 176.698 40.576 176.026 41.312ZM64.4661 89H60.1141C58.1941 89 57.0741 87.88 57.0741 85.96V69.64C57.0741 67.72 58.1941 66.6 60.1141 66.6H64.4661C67.6661 66.6 70.5141 67.4 72.9461 69.064C75.4101 70.696 76.9781 73.768 76.9781 77.64C76.9781 81.576 75.4101 84.648 72.9781 86.408C70.5461 88.104 67.6341 89 64.4661 89ZM63.7301 70.984H61.8421V84.616H63.7621C69.3621 84.616 72.1461 82.28 72.1461 77.64C72.1461 73.192 69.3301 70.984 63.7301 70.984ZM80.7221 68.872C80.7221 67.368 81.9061 66.216 83.3461 66.216C84.8501 66.216 86.0021 67.368 86.0021 68.872C86.0021 70.312 84.7861 71.496 83.3461 71.496C81.9061 71.496 80.7221 70.312 80.7221 68.872ZM85.6181 86.728C85.6181 88.232 84.6581 89.16 83.3461 89.16C82.0341 89.16 81.0741 88.232 81.0741 86.728V75.592C81.0741 74.088 82.0341 73.16 83.3461 73.16C84.6581 73.16 85.6181 74.088 85.6181 75.592V86.728ZM100.388 73.224C101.412 73.48 102.18 74.28 102.18 75.464C102.18 76.712 101.316 77.576 100.196 77.576C99.9724 77.576 99.4924 77.512 99.2044 77.512C97.0284 77.512 95.3644 79.272 95.3644 82.44V86.728C95.5564 89.928 90.6284 89.928 90.8204 86.728V75.592C90.8204 74.088 91.8124 73.16 93.0924 73.16C94.2764 73.16 95.1404 73.928 95.3004 75.048C96.1964 73.8 97.7324 73.096 99.1084 73.096C99.6524 73.096 100.068 73.128 100.388 73.224ZM118.655 79.816C118.655 81.48 117.823 82.312 116.127 82.312H108.095C108.351 84.008 109.663 85.192 111.615 85.192C112.703 85.192 113.631 84.872 114.431 84.232C115.679 83.336 116.831 83.624 117.631 84.68C118.367 85.576 118.143 86.856 116.959 87.784C115.583 88.84 113.823 89.352 111.743 89.352C109.343 89.352 107.391 88.616 105.823 87.144C104.255 85.64 103.487 83.688 103.487 81.256C103.487 78.856 104.191 76.872 105.631 75.304C107.071 73.736 108.927 72.936 111.199 72.936C112.767 72.936 114.143 73.32 115.327 74.056C117.727 75.56 118.655 77.672 118.655 79.816ZM111.295 76.936C109.663 76.936 108.607 77.896 108.319 79.272H113.951C113.855 77.96 112.799 76.936 111.295 76.936ZM132.551 77.992C131.815 77.448 131.047 77.16 130.247 77.16C127.975 77.16 126.439 78.824 126.439 81.16C126.439 83.496 127.975 85.16 130.247 85.16C131.111 85.16 131.975 84.808 132.839 84.136C134.087 83.24 135.239 83.528 136.039 84.584C136.775 85.48 136.551 86.76 135.367 87.688C133.895 88.808 132.135 89.352 130.087 89.352C127.719 89.352 125.735 88.584 124.167 87.016C122.599 85.448 121.799 83.496 121.799 81.16C121.799 78.824 122.599 76.872 124.167 75.304C125.767 73.736 127.751 72.936 130.087 72.936C131.911 72.936 133.511 73.416 134.855 74.408C136.039 75.336 136.359 76.68 135.687 77.576C134.951 78.6 133.799 78.856 132.551 77.992ZM147.415 84.84C148.855 85 149.623 85.8 149.623 86.984C149.623 88.168 148.759 89.064 147.191 89.064H146.775C143.127 89.064 141.303 87.208 141.303 83.464V77.512H140.727C139.319 77.512 138.455 76.616 138.455 75.432C138.455 74.248 139.319 73.32 140.727 73.32H141.303V71.208C141.111 68.008 146.039 68.008 145.815 71.208V73.32H147.351C148.759 73.32 149.623 74.248 149.623 75.432C149.623 76.616 148.759 77.512 147.351 77.512H145.815V82.92C145.815 84.232 146.359 84.744 147.415 84.84ZM153.222 68.872C153.222 67.368 154.406 66.216 155.846 66.216C157.35 66.216 158.502 67.368 158.502 68.872C158.502 70.312 157.286 71.496 155.846 71.496C154.406 71.496 153.222 70.312 153.222 68.872ZM158.118 86.728C158.118 88.232 157.158 89.16 155.846 89.16C154.534 89.16 153.574 88.232 153.574 86.728V75.592C153.574 74.088 154.534 73.16 155.846 73.16C157.158 73.16 158.118 74.088 158.118 75.592V86.728ZM176.769 76.36L172.609 86.76C172.033 88.392 170.977 89.192 169.473 89.192C168.033 89.192 167.009 88.392 166.337 86.76L162.145 76.36C161.601 74.952 162.241 73.64 163.521 73.256C164.769 72.872 165.953 73.544 166.433 74.984L169.473 83.016L172.513 74.984C172.993 73.544 174.241 72.872 175.489 73.256C176.737 73.64 177.313 74.92 176.769 76.36ZM180.761 87.016C179.193 85.448 178.393 83.496 178.393 81.16C178.393 78.824 179.193 76.872 180.761 75.304C182.361 73.736 184.345 72.936 186.681 72.936C189.017 72.936 191.001 73.736 192.569 75.304C194.169 76.872 194.969 78.824 194.969 81.16C194.969 83.496 194.169 85.448 192.601 87.016C191.033 88.584 189.049 89.352 186.681 89.352C184.313 89.352 182.329 88.584 180.761 87.016ZM184.057 78.312C183.385 79.048 183.033 80.008 183.033 81.16C183.033 82.312 183.385 83.272 184.057 84.008C184.729 84.744 185.625 85.128 186.681 85.128C187.737 85.128 188.633 84.744 189.305 84.008C189.977 83.272 190.329 82.312 190.329 81.16C190.329 80.008 189.977 79.048 189.305 78.312C188.633 77.576 187.737 77.192 186.681 77.192C185.625 77.192 184.729 77.576 184.057 78.312Z" fill="white"/>
</svg>
