<svg width="250" height="124" viewBox="0 0 250 124" fill="none" xmlns="http://www.w3.org/2000/svg">
<path d="M-5.42021e-06 124C-2.42854e-06 55.5584 56.0065 -8.47973e-06 125 -5.46392e-06C193.994 -2.44812e-06 250 55.5584 250 124L-5.42021e-06 124Z" fill="#FF3B9D"/>
<path d="M85.1053 50.528C83.9533 49.6 83.9213 48.192 84.7853 47.264C85.5853 46.272 86.8013 46.176 88.0493 47.104C88.7853 47.712 89.5533 48 90.3533 48C92.2413 48 93.2653 46.752 93.2653 44.48V31.936C93.2653 30.368 94.2573 29.408 95.6333 29.408C97.0093 29.408 98.0013 30.368 98.0013 31.936V44.288C98.0013 49.504 95.1853 52.352 90.3213 52.352C88.3053 52.352 86.5773 51.744 85.1053 50.528ZM116.285 38.592V49.728C116.285 51.232 115.293 52.16 114.013 52.16C112.989 52.16 112.285 51.68 111.933 50.752C111.037 51.808 109.757 52.352 108.061 52.352C104.221 52.352 102.077 49.888 102.077 45.44V38.592C101.885 35.392 106.813 35.392 106.621 38.592V45.088C106.621 47.136 107.421 48.16 109.021 48.16C111.037 48.16 111.741 46.752 111.741 44.16V38.592C111.549 35.392 116.477 35.392 116.285 38.592ZM121.336 49.728V38.592C121.336 37.088 122.328 36.16 123.608 36.16C124.664 36.16 125.368 36.64 125.72 37.568C126.648 36.48 127.896 35.936 129.528 35.936C133.4 35.936 135.896 38.496 135.896 42.88V49.728C135.896 51.232 134.936 52.16 133.624 52.16C132.312 52.16 131.352 51.232 131.352 49.728V43.232C131.352 41.44 130.52 40.16 128.76 40.16C126.84 40.16 125.88 41.504 125.88 44.16V49.728C126.072 52.928 121.144 52.928 121.336 49.728ZM146.712 47.84C148.152 48 148.92 48.8 148.92 49.984C148.92 51.168 148.056 52.064 146.488 52.064H146.072C142.424 52.064 140.6 50.208 140.6 46.464V40.512H140.024C138.616 40.512 137.752 39.616 137.752 38.432C137.752 37.248 138.616 36.32 140.024 36.32H140.6V34.208C140.408 31.008 145.336 31.008 145.112 34.208V36.32H146.648C148.056 36.32 148.92 37.248 148.92 38.432C148.92 39.616 148.056 40.512 146.648 40.512H145.112V45.92C145.112 47.232 145.656 47.744 146.712 47.84ZM153.511 37.568C154.887 36.48 156.711 35.936 158.919 35.936C160.871 35.936 162.471 36.512 163.719 37.632C164.967 38.752 165.575 40.256 165.575 42.208V49.728C165.575 51.232 164.583 52.16 163.303 52.16C162.247 52.16 161.543 51.68 161.191 50.72C160.103 51.808 158.759 52.352 157.191 52.352C155.623 52.352 154.375 51.904 153.383 51.008C152.391 50.08 151.911 48.928 151.911 47.52C151.911 45.888 152.487 44.672 153.671 43.84C154.855 43.008 156.359 42.56 158.119 42.496L160.999 42.368C160.999 40.768 160.199 39.968 158.599 39.968C157.639 39.968 156.775 40.224 155.975 40.768C154.791 41.568 153.639 41.472 152.967 40.576C152.231 39.712 152.455 38.432 153.511 37.568ZM156.487 47.264C156.487 48.032 157.159 48.512 158.311 48.512C159.239 48.512 160.135 48.192 160.999 47.552V45.696L158.983 45.856C157.319 45.952 156.487 46.4 156.487 47.264ZM65.4349 89H61.0829C59.1629 89 58.0429 87.88 58.0429 85.96V69.64C58.0429 67.72 59.1629 66.6 61.0829 66.6H65.4349C68.6349 66.6 71.4829 67.4 73.9149 69.064C76.3789 70.696 77.9469 73.768 77.9469 77.64C77.9469 81.576 76.3789 84.648 73.9469 86.408C71.5149 88.104 68.6029 89 65.4349 89ZM64.6989 70.984H62.8109V84.616H64.7309C70.3309 84.616 73.1149 82.28 73.1149 77.64C73.1149 73.192 70.2989 70.984 64.6989 70.984ZM81.6909 68.872C81.6909 67.368 82.8749 66.216 84.3149 66.216C85.8189 66.216 86.9709 67.368 86.9709 68.872C86.9709 70.312 85.7549 71.496 84.3149 71.496C82.8749 71.496 81.6909 70.312 81.6909 68.872ZM86.5869 86.728C86.5869 88.232 85.6269 89.16 84.3149 89.16C83.0029 89.16 82.0429 88.232 82.0429 86.728V75.592C82.0429 74.088 83.0029 73.16 84.3149 73.16C85.6269 73.16 86.5869 74.088 86.5869 75.592V86.728ZM101.357 73.224C102.381 73.48 103.149 74.28 103.149 75.464C103.149 76.712 102.285 77.576 101.165 77.576C100.941 77.576 100.461 77.512 100.173 77.512C97.9971 77.512 96.3331 79.272 96.3331 82.44V86.728C96.5251 89.928 91.5971 89.928 91.7891 86.728V75.592C91.7891 74.088 92.7811 73.16 94.0611 73.16C95.2451 73.16 96.1091 73.928 96.2691 75.048C97.1651 73.8 98.7011 73.096 100.077 73.096C100.621 73.096 101.037 73.128 101.357 73.224ZM119.624 79.816C119.624 81.48 118.792 82.312 117.096 82.312H109.064C109.32 84.008 110.632 85.192 112.584 85.192C113.672 85.192 114.6 84.872 115.4 84.232C116.648 83.336 117.8 83.624 118.6 84.68C119.336 85.576 119.112 86.856 117.928 87.784C116.552 88.84 114.792 89.352 112.712 89.352C110.312 89.352 108.36 88.616 106.792 87.144C105.224 85.64 104.456 83.688 104.456 81.256C104.456 78.856 105.16 76.872 106.6 75.304C108.04 73.736 109.896 72.936 112.168 72.936C113.736 72.936 115.112 73.32 116.296 74.056C118.696 75.56 119.624 77.672 119.624 79.816ZM112.264 76.936C110.632 76.936 109.576 77.896 109.288 79.272H114.92C114.824 77.96 113.768 76.936 112.264 76.936ZM133.519 77.992C132.783 77.448 132.015 77.16 131.215 77.16C128.943 77.16 127.407 78.824 127.407 81.16C127.407 83.496 128.943 85.16 131.215 85.16C132.079 85.16 132.943 84.808 133.807 84.136C135.055 83.24 136.207 83.528 137.007 84.584C137.743 85.48 137.519 86.76 136.335 87.688C134.863 88.808 133.103 89.352 131.055 89.352C128.687 89.352 126.703 88.584 125.135 87.016C123.567 85.448 122.767 83.496 122.767 81.16C122.767 78.824 123.567 76.872 125.135 75.304C126.735 73.736 128.719 72.936 131.055 72.936C132.879 72.936 134.479 73.416 135.823 74.408C137.007 75.336 137.327 76.68 136.655 77.576C135.919 78.6 134.767 78.856 133.519 77.992ZM148.383 84.84C149.823 85 150.591 85.8 150.591 86.984C150.591 88.168 149.727 89.064 148.159 89.064H147.743C144.095 89.064 142.271 87.208 142.271 83.464V77.512H141.695C140.287 77.512 139.423 76.616 139.423 75.432C139.423 74.248 140.287 73.32 141.695 73.32H142.271V71.208C142.079 68.008 147.007 68.008 146.783 71.208V73.32H148.319C149.727 73.32 150.591 74.248 150.591 75.432C150.591 76.616 149.727 77.512 148.319 77.512H146.783V82.92C146.783 84.232 147.327 84.744 148.383 84.84ZM154.191 68.872C154.191 67.368 155.375 66.216 156.815 66.216C158.319 66.216 159.471 67.368 159.471 68.872C159.471 70.312 158.255 71.496 156.815 71.496C155.375 71.496 154.191 70.312 154.191 68.872ZM159.087 86.728C159.087 88.232 158.127 89.16 156.815 89.16C155.503 89.16 154.543 88.232 154.543 86.728V75.592C154.543 74.088 155.503 73.16 156.815 73.16C158.127 73.16 159.087 74.088 159.087 75.592V86.728ZM177.737 76.36L173.577 86.76C173.001 88.392 171.945 89.192 170.441 89.192C169.001 89.192 167.977 88.392 167.305 86.76L163.113 76.36C162.569 74.952 163.209 73.64 164.489 73.256C165.737 72.872 166.921 73.544 167.401 74.984L170.441 83.016L173.481 74.984C173.961 73.544 175.209 72.872 176.457 73.256C177.705 73.64 178.281 74.92 177.737 76.36ZM181.245 74.568C182.621 73.48 184.445 72.936 186.653 72.936C188.605 72.936 190.205 73.512 191.453 74.632C192.701 75.752 193.309 77.256 193.309 79.208V86.728C193.309 88.232 192.317 89.16 191.037 89.16C189.981 89.16 189.277 88.68 188.925 87.72C187.837 88.808 186.493 89.352 184.925 89.352C183.357 89.352 182.109 88.904 181.117 88.008C180.125 87.08 179.645 85.928 179.645 84.52C179.645 82.888 180.221 81.672 181.405 80.84C182.589 80.008 184.093 79.56 185.853 79.496L188.733 79.368C188.733 77.768 187.933 76.968 186.333 76.968C185.373 76.968 184.509 77.224 183.709 77.768C182.525 78.568 181.373 78.472 180.701 77.576C179.965 76.712 180.189 75.432 181.245 74.568ZM184.221 84.264C184.221 85.032 184.893 85.512 186.045 85.512C186.973 85.512 187.869 85.192 188.733 84.552V82.696L186.717 82.856C185.053 82.952 184.221 83.4 184.221 84.264Z" fill="white"/>
</svg>
