<svg width="225" height="107" viewBox="0 0 225 107" fill="none" xmlns="http://www.w3.org/2000/svg">
<rect width="225" height="107" fill="#F9D332"/>
<path d="M52.136 52.784C54.404 52.784 56.252 52.168 57.68 50.908C59.108 49.648 59.808 47.996 59.808 45.952C59.808 43.936 59.108 42.34 57.708 41.164C56.308 39.988 54.46 39.4 52.136 39.4H46.844C45.164 39.4 44.184 40.38 44.184 42.06V56.928C44.184 58.3 45.052 59.14 46.256 59.14C47.46 59.14 48.356 58.3 48.356 56.928V52.784H52.136ZM51.408 43.236C54.292 43.236 55.664 44.104 55.664 46.036C55.664 47.968 54.236 48.948 51.408 48.948H48.356V43.236H51.408ZM74.9343 50.964C74.9343 49.088 74.1223 47.24 72.0223 45.924C70.9863 45.28 69.7823 44.944 68.4103 44.944C66.4223 44.944 64.7983 45.644 63.5383 47.016C62.2783 48.388 61.6623 50.124 61.6623 52.224C61.6623 54.352 62.3343 56.06 63.7063 57.376C65.0783 58.664 66.7863 59.308 68.8863 59.308C70.7063 59.308 72.2463 58.86 73.4503 57.936C74.4863 57.124 74.6823 56.004 74.0383 55.22C73.3383 54.296 72.3303 54.044 71.2383 54.828C70.5383 55.388 69.7263 55.668 68.7743 55.668C67.0663 55.668 65.9183 54.632 65.6943 53.148H72.7223C74.2063 53.148 74.9343 52.42 74.9343 50.964ZM68.4943 48.444C69.8103 48.444 70.7343 49.34 70.8183 50.488H65.8903C66.1423 49.284 67.0663 48.444 68.4943 48.444ZM86.7051 45.196C86.4251 45.112 86.0611 45.084 85.5851 45.084C84.3811 45.084 83.0371 45.7 82.2531 46.792C82.1131 45.812 81.3571 45.14 80.3211 45.14C79.2011 45.14 78.3331 45.952 78.3331 47.268V57.012C78.1651 59.812 82.4771 59.812 82.3091 57.012V53.26C82.3091 50.488 83.7651 48.948 85.6691 48.948C85.9211 48.948 86.3411 49.004 86.5371 49.004C87.5171 49.004 88.2731 48.248 88.2731 47.156C88.2731 46.12 87.6011 45.42 86.7051 45.196ZM90.673 57.796C91.877 58.804 93.529 59.308 95.629 59.308C99.129 59.308 101.369 57.488 101.369 54.884C101.369 52.336 99.661 51.132 96.861 50.348L95.097 49.872C94.425 49.676 94.117 49.508 94.117 49.088C94.117 48.64 94.621 48.332 95.405 48.332C96.217 48.332 97.001 48.556 97.729 49.032C98.821 49.676 99.773 49.424 100.361 48.528C100.893 47.66 100.641 46.652 99.633 45.98C98.513 45.28 97.169 44.944 95.573 44.944C94.089 44.944 92.829 45.336 91.793 46.148C90.757 46.932 90.253 47.968 90.253 49.284C90.253 51.496 91.681 52.896 94.733 53.764L96.273 54.212C97.197 54.464 97.505 54.688 97.505 55.136C97.505 55.668 96.833 55.976 95.965 55.976C94.733 55.976 93.725 55.668 92.969 55.08C91.961 54.268 91.093 54.296 90.337 55.136C89.637 55.92 89.749 56.984 90.673 57.796ZM105.68 57.264C107.052 58.636 108.788 59.308 110.86 59.308C112.932 59.308 114.668 58.636 116.04 57.264C117.412 55.892 118.112 54.184 118.112 52.14C118.112 50.096 117.412 48.388 116.012 47.016C114.64 45.644 112.904 44.944 110.86 44.944C108.816 44.944 107.08 45.644 105.68 47.016C104.308 48.388 103.608 50.096 103.608 52.14C103.608 54.184 104.308 55.892 105.68 57.264ZM108.564 49.648C109.152 49.004 109.936 48.668 110.86 48.668C111.784 48.668 112.568 49.004 113.156 49.648C113.744 50.292 114.052 51.132 114.052 52.14C114.052 53.148 113.744 53.988 113.156 54.632C112.568 55.276 111.784 55.612 110.86 55.612C109.936 55.612 109.152 55.276 108.564 54.632C107.976 53.988 107.668 53.148 107.668 52.14C107.668 51.132 107.976 50.292 108.564 49.648ZM121.427 57.012C121.259 59.812 125.571 59.812 125.403 57.012V52.14C125.403 49.816 126.243 48.64 127.923 48.64C129.463 48.64 130.191 49.76 130.191 51.328V57.012C130.191 58.328 131.031 59.14 132.179 59.14C133.327 59.14 134.167 58.328 134.167 57.012V51.02C134.167 47.184 131.983 44.944 128.595 44.944C127.167 44.944 126.075 45.42 125.263 46.372C124.955 45.56 124.339 45.14 123.415 45.14C122.295 45.14 121.427 45.952 121.427 47.268V57.012ZM138.642 46.372C137.718 47.128 137.522 48.248 138.166 49.004C138.754 49.788 139.762 49.872 140.798 49.172C141.498 48.696 142.254 48.472 143.094 48.472C144.494 48.472 145.194 49.172 145.194 50.572L142.674 50.684C141.134 50.74 139.818 51.132 138.782 51.86C137.746 52.588 137.242 53.652 137.242 55.08C137.242 56.312 137.662 57.32 138.53 58.132C139.398 58.916 140.49 59.308 141.862 59.308C143.234 59.308 144.41 58.832 145.362 57.88C145.67 58.72 146.286 59.14 147.21 59.14C148.33 59.14 149.198 58.328 149.198 57.012V50.432C149.198 48.724 148.666 47.408 147.574 46.428C146.482 45.448 145.082 44.944 143.374 44.944C141.442 44.944 139.846 45.42 138.642 46.372ZM141.246 54.856C141.246 54.1 141.974 53.708 143.43 53.624L145.194 53.484V55.108C144.438 55.668 143.654 55.948 142.842 55.948C141.834 55.948 141.246 55.528 141.246 54.856ZM153.454 57.796C154.658 58.804 156.31 59.308 158.41 59.308C161.91 59.308 164.15 57.488 164.15 54.884C164.15 52.336 162.442 51.132 159.642 50.348L157.878 49.872C157.206 49.676 156.898 49.508 156.898 49.088C156.898 48.64 157.402 48.332 158.186 48.332C158.998 48.332 159.782 48.556 160.51 49.032C161.602 49.676 162.554 49.424 163.142 48.528C163.674 47.66 163.422 46.652 162.414 45.98C161.294 45.28 159.95 44.944 158.354 44.944C156.87 44.944 155.61 45.336 154.574 46.148C153.538 46.932 153.034 47.968 153.034 49.284C153.034 51.496 154.462 52.896 157.514 53.764L159.054 54.212C159.978 54.464 160.286 54.688 160.286 55.136C160.286 55.668 159.614 55.976 158.746 55.976C157.514 55.976 156.506 55.668 155.75 55.08C154.742 54.268 153.874 54.296 153.118 55.136C152.418 55.92 152.53 56.984 153.454 57.796Z" fill="#930345"/>
</svg>
