<svg width="1072" height="543" viewBox="0 0 1072 543" fill="none" xmlns="http://www.w3.org/2000/svg">
<circle cx="196.5" cy="90.5" r="90.5" fill="#F9D332"/>
<ellipse cx="85" cy="218.5" rx="38" ry="37.5" fill="#930345"/>
<circle cx="196.5" cy="218.5" r="37.5" fill="#930345"/>
<circle cx="308.5" cy="218.5" r="37.5" fill="#930345"/>
<ellipse cx="559" cy="218.5" rx="38" ry="37.5" fill="#930345"/>
<circle cx="710.5" cy="218.5" r="37.5" fill="#930345"/>
<circle cx="855.5" cy="218.5" r="37.5" fill="#930345"/>
<ellipse cx="987" cy="218.5" rx="38" ry="37.5" fill="#930345"/>
<line x1="90" y1="215.5" x2="962" y2="215.5" stroke="#930345" stroke-width="3" stroke-dasharray="10 10"/>
<path d="M64.1795 217.164C63.5855 217.524 63.2975 217.974 63.2975 218.496C63.2975 218.946 63.4955 219.27 63.8915 219.504C64.3055 219.738 64.7735 219.702 65.2955 219.432L66.5555 218.694V225.534H64.4315C63.6215 225.534 63.1175 226.056 63.1175 226.776C63.1175 227.478 63.6215 228 64.4315 228H70.9655C71.7755 228 72.2795 227.478 72.2795 226.776C72.2795 226.056 71.7575 225.534 70.9475 225.534H69.2195V216.912C69.2195 215.904 68.6435 215.31 67.7975 215.31C67.4195 215.31 66.9875 215.454 66.4835 215.76L64.1795 217.164ZM76.5607 219.504C76.5607 218.424 77.3707 217.632 78.4507 217.632C79.5307 217.632 80.3407 218.424 80.3407 219.504C80.3407 220.602 79.5307 221.376 78.4507 221.376C77.3707 221.376 76.5607 220.602 76.5607 219.504ZM76.5967 225.264C75.8587 224.832 75.1387 224.994 74.7787 225.624C74.4187 226.218 74.5987 226.974 75.3367 227.406C76.2187 227.928 77.1727 228.198 78.1627 228.198C79.8187 228.198 81.1327 227.622 82.0867 226.452C83.0587 225.282 83.5447 223.734 83.5447 221.808C83.5447 219.756 83.0947 218.136 82.1767 216.966C81.2767 215.778 80.0347 215.184 78.4687 215.184C77.2087 215.184 76.1287 215.58 75.2287 216.372C74.3467 217.146 73.8967 218.19 73.8967 219.486C73.8967 220.746 74.3287 221.772 75.1747 222.564C76.0387 223.356 77.0647 223.752 78.2707 223.752C79.4227 223.752 80.3407 223.374 81.0067 222.6C80.9887 223.536 80.7187 224.292 80.1967 224.886C79.6747 225.462 79.0267 225.75 78.2707 225.75C77.6587 225.75 77.1007 225.588 76.5967 225.264ZM86.0524 221.754C86.0344 222.708 86.6644 223.32 87.5104 223.32C88.0144 223.32 88.4104 223.122 88.6804 222.744C89.0764 222.204 89.6344 221.934 90.3724 221.934C91.5784 221.934 92.4424 222.762 92.4424 223.896C92.4424 224.994 91.5244 225.75 90.3184 225.75C89.6344 225.75 89.0044 225.534 88.4104 225.084C87.6724 224.562 86.9344 224.652 86.4844 225.282C86.0344 225.84 86.0884 226.704 86.8084 227.208C87.7444 227.874 88.8424 228.198 90.1204 228.198C91.5784 228.198 92.7844 227.784 93.7024 226.974C94.6384 226.164 95.1064 225.084 95.1064 223.752C95.1064 222.51 94.6744 221.502 93.8284 220.746C92.9824 219.972 91.9744 219.594 90.8044 219.594C89.9764 219.594 89.2744 219.792 88.6984 220.17L88.8064 217.866H92.9644C93.7744 217.866 94.2784 217.344 94.2784 216.642C94.2784 215.922 93.7744 215.4 92.9644 215.4H87.9604C86.8804 215.4 86.3044 215.976 86.2504 217.11L86.0524 221.754ZM97.3857 224.382C97.3857 225.552 97.8177 226.47 98.6637 227.172C99.5277 227.856 100.626 228.198 101.958 228.198C103.29 228.198 104.388 227.856 105.234 227.172C106.098 226.47 106.53 225.552 106.53 224.382C106.53 223.068 105.846 222.024 104.964 221.502C105.81 220.8 106.224 219.972 106.224 219C106.224 217.866 105.81 216.948 105 216.246C104.19 215.544 103.182 215.184 101.958 215.184C100.734 215.184 99.7077 215.544 98.8977 216.246C98.0877 216.948 97.6917 217.866 97.6917 219C97.6917 219.972 98.1237 220.8 98.9697 221.502C98.0517 222.024 97.3857 223.068 97.3857 224.382ZM101.958 217.632C102.84 217.632 103.56 218.154 103.56 219C103.56 219.846 102.84 220.368 101.958 220.368C101.094 220.368 100.356 219.846 100.356 219C100.356 218.154 101.094 217.632 101.958 217.632ZM101.958 225.75C100.824 225.75 100.05 225.174 100.05 224.238C100.05 223.302 100.824 222.708 101.958 222.708C103.11 222.708 103.866 223.302 103.866 224.238C103.866 225.174 103.11 225.75 101.958 225.75Z" fill="#F9D332"/>
<path d="M175.276 217.164C174.682 217.524 174.394 217.974 174.394 218.496C174.394 218.946 174.592 219.27 174.988 219.504C175.402 219.738 175.87 219.702 176.392 219.432L177.652 218.694V225.534H175.528C174.718 225.534 174.214 226.056 174.214 226.776C174.214 227.478 174.718 228 175.528 228H182.062C182.872 228 183.376 227.478 183.376 226.776C183.376 226.056 182.854 225.534 182.044 225.534H180.316V216.912C180.316 215.904 179.74 215.31 178.894 215.31C178.516 215.31 178.084 215.454 177.58 215.76L175.276 217.164ZM187.657 219.504C187.657 218.424 188.467 217.632 189.547 217.632C190.627 217.632 191.437 218.424 191.437 219.504C191.437 220.602 190.627 221.376 189.547 221.376C188.467 221.376 187.657 220.602 187.657 219.504ZM187.693 225.264C186.955 224.832 186.235 224.994 185.875 225.624C185.515 226.218 185.695 226.974 186.433 227.406C187.315 227.928 188.269 228.198 189.259 228.198C190.915 228.198 192.229 227.622 193.183 226.452C194.155 225.282 194.641 223.734 194.641 221.808C194.641 219.756 194.191 218.136 193.273 216.966C192.373 215.778 191.131 215.184 189.565 215.184C188.305 215.184 187.225 215.58 186.325 216.372C185.443 217.146 184.993 218.19 184.993 219.486C184.993 220.746 185.425 221.772 186.271 222.564C187.135 223.356 188.161 223.752 189.367 223.752C190.519 223.752 191.437 223.374 192.103 222.6C192.085 223.536 191.815 224.292 191.293 224.886C190.771 225.462 190.123 225.75 189.367 225.75C188.755 225.75 188.197 225.588 187.693 225.264ZM203.827 223.878C203.827 224.958 203.017 225.75 201.937 225.75C200.857 225.75 200.047 224.958 200.047 223.878C200.047 222.78 200.857 222.006 201.937 222.006C203.017 222.006 203.827 222.78 203.827 223.878ZM203.791 218.118C204.529 218.55 205.249 218.388 205.609 217.758C205.969 217.164 205.789 216.408 205.051 215.976C204.169 215.454 203.215 215.184 202.225 215.184C200.569 215.184 199.255 215.76 198.283 216.93C197.329 218.1 196.843 219.648 196.843 221.574C196.843 223.626 197.293 225.246 198.193 226.434C199.111 227.604 200.353 228.198 201.919 228.198C203.179 228.198 204.259 227.802 205.141 227.028C206.041 226.236 206.491 225.192 206.491 223.896C206.491 222.636 206.059 221.61 205.195 220.818C204.349 220.026 203.323 219.63 202.117 219.63C200.965 219.63 200.047 220.008 199.381 220.782C199.399 219.846 199.669 219.09 200.191 218.514C200.713 217.92 201.361 217.632 202.117 217.632C202.729 217.632 203.287 217.794 203.791 218.118ZM212.507 222.834C214.037 222.834 214.793 223.32 214.793 224.31C214.793 225.228 213.983 225.75 212.813 225.75C212.057 225.75 211.391 225.534 210.797 225.102C210.095 224.598 209.483 224.634 208.961 225.21C208.511 225.696 208.547 226.578 209.213 227.082C210.203 227.82 211.373 228.198 212.705 228.198C214.073 228.198 215.207 227.856 216.107 227.19C217.007 226.524 217.457 225.588 217.457 224.382C217.457 222.96 216.701 221.898 215.747 221.412C216.683 220.782 217.151 219.882 217.151 218.676C217.151 217.524 216.719 216.66 215.855 216.066C215.009 215.472 213.965 215.184 212.741 215.184C211.463 215.184 210.365 215.544 209.465 216.264C208.835 216.768 208.799 217.596 209.231 218.046C209.663 218.55 210.311 218.604 210.977 218.154C211.463 217.812 212.075 217.632 212.813 217.632C213.821 217.632 214.469 218.19 214.469 218.928C214.469 219.792 213.749 220.35 212.507 220.35C210.743 220.224 210.743 222.96 212.507 222.834Z" fill="#F9D332"/>
<path d="M289.531 217.164C288.937 217.524 288.649 217.974 288.649 218.496C288.649 218.946 288.847 219.27 289.243 219.504C289.657 219.738 290.125 219.702 290.647 219.432L291.907 218.694V225.534H289.783C288.973 225.534 288.469 226.056 288.469 226.776C288.469 227.478 288.973 228 289.783 228H296.317C297.127 228 297.631 227.478 297.631 226.776C297.631 226.056 297.109 225.534 296.299 225.534H294.571V216.912C294.571 215.904 293.995 215.31 293.149 215.31C292.771 215.31 292.339 215.454 291.835 215.76L289.531 217.164ZM301.912 219.504C301.912 218.424 302.722 217.632 303.802 217.632C304.882 217.632 305.692 218.424 305.692 219.504C305.692 220.602 304.882 221.376 303.802 221.376C302.722 221.376 301.912 220.602 301.912 219.504ZM301.948 225.264C301.21 224.832 300.49 224.994 300.13 225.624C299.77 226.218 299.95 226.974 300.688 227.406C301.57 227.928 302.524 228.198 303.514 228.198C305.17 228.198 306.484 227.622 307.438 226.452C308.41 225.282 308.896 223.734 308.896 221.808C308.896 219.756 308.446 218.136 307.528 216.966C306.628 215.778 305.386 215.184 303.82 215.184C302.56 215.184 301.48 215.58 300.58 216.372C299.698 217.146 299.248 218.19 299.248 219.486C299.248 220.746 299.68 221.772 300.526 222.564C301.39 223.356 302.416 223.752 303.622 223.752C304.774 223.752 305.692 223.374 306.358 222.6C306.34 223.536 306.07 224.292 305.548 224.886C305.026 225.462 304.378 225.75 303.622 225.75C303.01 225.75 302.452 225.588 301.948 225.264ZM310.792 218.748C310.792 219.612 311.35 220.134 312.088 220.134C312.826 220.134 313.384 219.612 313.384 218.748V217.866H316.768C314.608 220.494 313.402 223.428 313.132 226.668C313.06 227.532 313.672 228.09 314.464 228.09C315.22 228.09 315.67 227.622 315.796 226.668C316.282 223.266 317.596 220.368 319.756 217.974C320.044 217.668 320.188 217.308 320.188 216.912C320.188 216.048 319.576 215.4 318.586 215.4H312.502C311.422 215.4 310.792 216.03 310.792 217.11V218.748ZM327.059 218.748V222.978H324.161L327.059 218.748ZM329.723 217.326C329.723 216.084 328.913 215.31 327.833 215.31C327.167 215.31 326.645 215.562 326.303 216.084L321.605 222.852C321.407 223.158 321.299 223.482 321.299 223.806C321.299 224.67 321.911 225.336 322.937 225.336H327.059V226.668C327.059 227.55 327.617 228.09 328.391 228.09C329.129 228.09 329.723 227.55 329.723 226.668V225.336H330.389C332.045 225.462 332.045 222.87 330.389 222.978H329.723V217.326Z" fill="#F9D332"/>
<path d="M537.266 226.29C537.266 227.37 537.896 228 538.976 228H545.114C545.96 228 546.428 227.478 546.428 226.776C546.428 226.056 545.96 225.534 545.114 225.534H540.2C540.398 224.598 540.992 224.058 542.198 223.356L543.296 222.726C544.286 222.15 544.862 221.736 545.438 221.142C546.032 220.512 546.302 219.774 546.302 218.856C546.302 217.722 545.888 216.822 545.042 216.174C544.196 215.508 543.17 215.184 541.928 215.184C541.226 215.184 540.524 215.346 539.804 215.67C539.084 215.976 538.49 216.372 538.04 216.858C537.464 217.452 537.446 218.244 537.932 218.694C538.418 219.144 539.264 219.054 539.858 218.55C540.56 217.938 541.244 217.632 541.874 217.632C542.954 217.632 543.62 218.118 543.62 218.892C543.62 219.486 543.296 219.9 542.054 220.602L541.352 220.998C538.634 222.528 537.266 224.292 537.266 226.29ZM555.35 224.67C554.954 225.39 554.378 225.75 553.622 225.75C552.866 225.75 552.29 225.39 551.876 224.67C551.48 223.932 551.282 222.942 551.282 221.682C551.282 220.422 551.48 219.432 551.876 218.712C552.29 217.992 552.866 217.632 553.622 217.632C554.378 217.632 554.954 217.992 555.35 218.712C555.764 219.432 555.962 220.422 555.962 221.682C555.962 222.942 555.764 223.932 555.35 224.67ZM558.626 221.682C558.626 219.756 558.176 218.19 557.294 216.984C556.412 215.778 555.188 215.184 553.622 215.184C552.056 215.184 550.832 215.778 549.95 216.984C549.068 218.172 548.618 219.738 548.618 221.682C548.618 223.626 549.068 225.192 549.95 226.398C550.832 227.604 552.056 228.198 553.622 228.198C555.188 228.198 556.412 227.604 557.294 226.398C558.176 225.192 558.626 223.626 558.626 221.682ZM561.542 217.164C560.948 217.524 560.66 217.974 560.66 218.496C560.66 218.946 560.858 219.27 561.254 219.504C561.668 219.738 562.136 219.702 562.658 219.432L563.918 218.694V225.534H561.794C560.984 225.534 560.48 226.056 560.48 226.776C560.48 227.478 560.984 228 561.794 228H568.328C569.138 228 569.642 227.478 569.642 226.776C569.642 226.056 569.12 225.534 568.31 225.534H566.582V216.912C566.582 215.904 566.006 215.31 565.16 215.31C564.782 215.31 564.35 215.454 563.846 215.76L561.542 217.164ZM572.159 217.164C571.565 217.524 571.277 217.974 571.277 218.496C571.277 218.946 571.475 219.27 571.871 219.504C572.285 219.738 572.753 219.702 573.275 219.432L574.535 218.694V225.534H572.411C571.601 225.534 571.097 226.056 571.097 226.776C571.097 227.478 571.601 228 572.411 228H578.945C579.755 228 580.259 227.478 580.259 226.776C580.259 226.056 579.737 225.534 578.927 225.534H577.199V216.912C577.199 215.904 576.623 215.31 575.777 215.31C575.399 215.31 574.967 215.454 574.463 215.76L572.159 217.164Z" fill="#F9D332"/>
<path d="M688.651 226.29C688.651 227.37 689.281 228 690.361 228H696.499C697.345 228 697.813 227.478 697.813 226.776C697.813 226.056 697.345 225.534 696.499 225.534H691.585C691.783 224.598 692.377 224.058 693.583 223.356L694.681 222.726C695.671 222.15 696.247 221.736 696.823 221.142C697.417 220.512 697.687 219.774 697.687 218.856C697.687 217.722 697.273 216.822 696.427 216.174C695.581 215.508 694.555 215.184 693.313 215.184C692.611 215.184 691.909 215.346 691.189 215.67C690.469 215.976 689.875 216.372 689.425 216.858C688.849 217.452 688.831 218.244 689.317 218.694C689.803 219.144 690.649 219.054 691.243 218.55C691.945 217.938 692.629 217.632 693.259 217.632C694.339 217.632 695.005 218.118 695.005 218.892C695.005 219.486 694.681 219.9 693.439 220.602L692.737 220.998C690.019 222.528 688.651 224.292 688.651 226.29ZM706.735 224.67C706.339 225.39 705.763 225.75 705.007 225.75C704.251 225.75 703.675 225.39 703.261 224.67C702.865 223.932 702.667 222.942 702.667 221.682C702.667 220.422 702.865 219.432 703.261 218.712C703.675 217.992 704.251 217.632 705.007 217.632C705.763 217.632 706.339 217.992 706.735 218.712C707.149 219.432 707.347 220.422 707.347 221.682C707.347 222.942 707.149 223.932 706.735 224.67ZM710.011 221.682C710.011 219.756 709.561 218.19 708.679 216.984C707.797 215.778 706.573 215.184 705.007 215.184C703.441 215.184 702.217 215.778 701.335 216.984C700.453 218.172 700.003 219.738 700.003 221.682C700.003 223.626 700.453 225.192 701.335 226.398C702.217 227.604 703.441 228.198 705.007 228.198C706.573 228.198 707.797 227.604 708.679 226.398C709.561 225.192 710.011 223.626 710.011 221.682ZM712.927 217.164C712.333 217.524 712.045 217.974 712.045 218.496C712.045 218.946 712.243 219.27 712.639 219.504C713.053 219.738 713.521 219.702 714.043 219.432L715.303 218.694V225.534H713.179C712.369 225.534 711.865 226.056 711.865 226.776C711.865 227.478 712.369 228 713.179 228H719.713C720.523 228 721.027 227.478 721.027 226.776C721.027 226.056 720.505 225.534 719.695 225.534H717.967V216.912C717.967 215.904 717.391 215.31 716.545 215.31C716.167 215.31 715.735 215.454 715.231 215.76L712.927 217.164ZM729.718 223.878C729.718 224.958 728.908 225.75 727.828 225.75C726.748 225.75 725.938 224.958 725.938 223.878C725.938 222.78 726.748 222.006 727.828 222.006C728.908 222.006 729.718 222.78 729.718 223.878ZM729.682 218.118C730.42 218.55 731.14 218.388 731.5 217.758C731.86 217.164 731.68 216.408 730.942 215.976C730.06 215.454 729.106 215.184 728.116 215.184C726.46 215.184 725.146 215.76 724.174 216.93C723.22 218.1 722.734 219.648 722.734 221.574C722.734 223.626 723.184 225.246 724.084 226.434C725.002 227.604 726.244 228.198 727.81 228.198C729.07 228.198 730.15 227.802 731.032 227.028C731.932 226.236 732.382 225.192 732.382 223.896C732.382 222.636 731.95 221.61 731.086 220.818C730.24 220.026 729.214 219.63 728.008 219.63C726.856 219.63 725.938 220.008 725.272 220.782C725.29 219.846 725.56 219.09 726.082 218.514C726.604 217.92 727.252 217.632 728.008 217.632C728.62 217.632 729.178 217.794 729.682 218.118Z" fill="#F9D332"/>
<path d="M833.132 226.29C833.132 227.37 833.762 228 834.842 228H840.98C841.826 228 842.294 227.478 842.294 226.776C842.294 226.056 841.826 225.534 840.98 225.534H836.066C836.264 224.598 836.858 224.058 838.064 223.356L839.162 222.726C840.152 222.15 840.728 221.736 841.304 221.142C841.898 220.512 842.168 219.774 842.168 218.856C842.168 217.722 841.754 216.822 840.908 216.174C840.062 215.508 839.036 215.184 837.794 215.184C837.092 215.184 836.39 215.346 835.67 215.67C834.95 215.976 834.356 216.372 833.906 216.858C833.33 217.452 833.312 218.244 833.798 218.694C834.284 219.144 835.13 219.054 835.724 218.55C836.426 217.938 837.11 217.632 837.74 217.632C838.82 217.632 839.486 218.118 839.486 218.892C839.486 219.486 839.162 219.9 837.92 220.602L837.218 220.998C834.5 222.528 833.132 224.292 833.132 226.29ZM851.217 224.67C850.821 225.39 850.245 225.75 849.489 225.75C848.733 225.75 848.157 225.39 847.743 224.67C847.347 223.932 847.149 222.942 847.149 221.682C847.149 220.422 847.347 219.432 847.743 218.712C848.157 217.992 848.733 217.632 849.489 217.632C850.245 217.632 850.821 217.992 851.217 218.712C851.631 219.432 851.829 220.422 851.829 221.682C851.829 222.942 851.631 223.932 851.217 224.67ZM854.493 221.682C854.493 219.756 854.043 218.19 853.161 216.984C852.279 215.778 851.055 215.184 849.489 215.184C847.923 215.184 846.699 215.778 845.817 216.984C844.935 218.172 844.485 219.738 844.485 221.682C844.485 223.626 844.935 225.192 845.817 226.398C846.699 227.604 847.923 228.198 849.489 228.198C851.055 228.198 852.279 227.604 853.161 226.398C854.043 225.192 854.493 223.626 854.493 221.682ZM856.634 226.29C856.634 227.37 857.264 228 858.344 228H864.482C865.328 228 865.796 227.478 865.796 226.776C865.796 226.056 865.328 225.534 864.482 225.534H859.568C859.766 224.598 860.36 224.058 861.566 223.356L862.664 222.726C863.654 222.15 864.23 221.736 864.806 221.142C865.4 220.512 865.67 219.774 865.67 218.856C865.67 217.722 865.256 216.822 864.41 216.174C863.564 215.508 862.538 215.184 861.296 215.184C860.594 215.184 859.892 215.346 859.172 215.67C858.452 215.976 857.858 216.372 857.408 216.858C856.832 217.452 856.814 218.244 857.3 218.694C857.786 219.144 858.632 219.054 859.226 218.55C859.928 217.938 860.612 217.632 861.242 217.632C862.322 217.632 862.988 218.118 862.988 218.892C862.988 219.486 862.664 219.9 861.422 220.602L860.72 220.998C858.002 222.528 856.634 224.292 856.634 226.29ZM874.719 224.67C874.323 225.39 873.747 225.75 872.991 225.75C872.235 225.75 871.659 225.39 871.245 224.67C870.849 223.932 870.651 222.942 870.651 221.682C870.651 220.422 870.849 219.432 871.245 218.712C871.659 217.992 872.235 217.632 872.991 217.632C873.747 217.632 874.323 217.992 874.719 218.712C875.133 219.432 875.331 220.422 875.331 221.682C875.331 222.942 875.133 223.932 874.719 224.67ZM877.995 221.682C877.995 219.756 877.545 218.19 876.663 216.984C875.781 215.778 874.557 215.184 872.991 215.184C871.425 215.184 870.201 215.778 869.319 216.984C868.437 218.172 867.987 219.738 867.987 221.682C867.987 223.626 868.437 225.192 869.319 226.398C870.201 227.604 871.425 228.198 872.991 228.198C874.557 228.198 875.781 227.604 876.663 226.398C877.545 225.192 877.995 223.626 877.995 221.682Z" fill="#F9D332"/>
<path d="M964.835 226.29C964.835 227.37 965.465 228 966.545 228H972.683C973.529 228 973.997 227.478 973.997 226.776C973.997 226.056 973.529 225.534 972.683 225.534H967.769C967.967 224.598 968.561 224.058 969.767 223.356L970.865 222.726C971.855 222.15 972.431 221.736 973.007 221.142C973.601 220.512 973.871 219.774 973.871 218.856C973.871 217.722 973.457 216.822 972.611 216.174C971.765 215.508 970.739 215.184 969.497 215.184C968.795 215.184 968.093 215.346 967.373 215.67C966.653 215.976 966.059 216.372 965.609 216.858C965.033 217.452 965.015 218.244 965.501 218.694C965.987 219.144 966.833 219.054 967.427 218.55C968.129 217.938 968.813 217.632 969.443 217.632C970.523 217.632 971.189 218.118 971.189 218.892C971.189 219.486 970.865 219.9 969.623 220.602L968.921 220.998C966.203 222.528 964.835 224.292 964.835 226.29ZM982.92 224.67C982.524 225.39 981.948 225.75 981.192 225.75C980.436 225.75 979.86 225.39 979.446 224.67C979.05 223.932 978.852 222.942 978.852 221.682C978.852 220.422 979.05 219.432 979.446 218.712C979.86 217.992 980.436 217.632 981.192 217.632C981.948 217.632 982.524 217.992 982.92 218.712C983.334 219.432 983.532 220.422 983.532 221.682C983.532 222.942 983.334 223.932 982.92 224.67ZM986.196 221.682C986.196 219.756 985.746 218.19 984.864 216.984C983.982 215.778 982.758 215.184 981.192 215.184C979.626 215.184 978.402 215.778 977.52 216.984C976.638 218.172 976.188 219.738 976.188 221.682C976.188 223.626 976.638 225.192 977.52 226.398C978.402 227.604 979.626 228.198 981.192 228.198C982.758 228.198 983.982 227.604 984.864 226.398C985.746 225.192 986.196 223.626 986.196 221.682ZM988.337 226.29C988.337 227.37 988.967 228 990.047 228H996.185C997.031 228 997.499 227.478 997.499 226.776C997.499 226.056 997.031 225.534 996.185 225.534H991.271C991.469 224.598 992.063 224.058 993.269 223.356L994.367 222.726C995.357 222.15 995.933 221.736 996.509 221.142C997.103 220.512 997.373 219.774 997.373 218.856C997.373 217.722 996.959 216.822 996.113 216.174C995.267 215.508 994.241 215.184 992.999 215.184C992.297 215.184 991.595 215.346 990.875 215.67C990.155 215.976 989.561 216.372 989.111 216.858C988.535 217.452 988.517 218.244 989.003 218.694C989.489 219.144 990.335 219.054 990.929 218.55C991.631 217.938 992.315 217.632 992.945 217.632C994.025 217.632 994.691 218.118 994.691 218.892C994.691 219.486 994.367 219.9 993.125 220.602L992.423 220.998C989.705 222.528 988.337 224.292 988.337 226.29ZM1000.59 217.164C999.996 217.524 999.708 217.974 999.708 218.496C999.708 218.946 999.906 219.27 1000.3 219.504C1000.72 219.738 1001.18 219.702 1001.71 219.432L1002.97 218.694V225.534H1000.84C1000.03 225.534 999.528 226.056 999.528 226.776C999.528 227.478 1000.03 228 1000.84 228H1007.38C1008.19 228 1008.69 227.478 1008.69 226.776C1008.69 226.056 1008.17 225.534 1007.36 225.534H1005.63V216.912C1005.63 215.904 1005.05 215.31 1004.21 215.31C1003.83 215.31 1003.4 215.454 1002.89 215.76L1000.59 217.164Z" fill="#F9D332"/>
<ellipse cx="85.5" cy="341" rx="85.5" ry="85" fill="#F9D332"/>
<circle cx="308.5" cy="399.5" r="143.5" fill="#FF3B9D"/>
<ellipse cx="559" cy="96.5" rx="85" ry="84.5" fill="#F9D332"/>
<circle cx="711" cy="346" r="90" fill="#F9D332"/>
<ellipse cx="856" cy="96.5" rx="85" ry="84.5" fill="#F9D332"/>
<ellipse cx="986.5" cy="341" rx="85.5" ry="85" fill="#F9D332"/>
</svg>
