<svg width="366" height="437" viewBox="0 0 366 437" fill="none" xmlns="http://www.w3.org/2000/svg">
<rect width="366" height="437" fill="#930345"/>
<path d="M64.7227 138.384H57.9067L61.2907 129.528L64.7227 138.384ZM54.1867 142.776C53.9467 143.424 54.1147 143.832 54.6907 144.048C55.2427 144.264 55.6507 144.048 55.9147 143.4L57.1867 140.136H65.3947L66.6907 143.4C66.9547 144.048 67.3627 144.264 67.9147 144.048C68.4907 143.832 68.6587 143.424 68.4187 142.776L62.7067 128.112C62.4427 127.416 61.9867 127.08 61.3147 127.08C60.6667 127.08 60.1867 127.416 59.9227 128.088L54.1867 142.776ZM77.9994 134.52C78.5514 134.976 78.9834 135 79.3434 134.616C79.7514 134.184 79.7034 133.752 79.2234 133.296C78.2634 132.408 77.0634 131.952 75.6474 131.952C74.5434 131.952 73.5834 132.264 72.7914 132.864C71.9994 133.464 71.5914 134.28 71.5914 135.336C71.5914 137.064 72.6954 138.192 74.9274 138.72L76.6794 139.128C77.9034 139.416 78.5274 139.992 78.5274 140.832C78.5274 141.96 77.5434 142.632 75.8874 142.632C74.7114 142.632 73.7034 142.224 72.8394 141.384C72.4314 140.976 71.9994 140.952 71.5914 141.36C71.2074 141.744 71.2314 142.152 71.6394 142.608C72.7194 143.712 74.1354 144.264 75.9114 144.264C78.5754 144.264 80.3034 142.824 80.3034 140.736C80.3034 139.056 79.1994 137.952 76.9674 137.424L75.1194 136.992C73.9434 136.728 73.3674 136.152 73.3674 135.264C73.3674 134.28 74.2554 133.608 75.5274 133.608C76.4634 133.608 77.2794 133.92 77.9994 134.52ZM88.4701 144.264C90.1741 144.264 91.5901 143.664 92.7181 142.488C93.8461 141.288 94.4221 139.824 94.4221 138.12C94.4221 136.416 93.8461 134.952 92.6941 133.752C91.5661 132.552 90.1501 131.952 88.4701 131.952C86.7901 131.952 85.3741 132.552 84.2461 133.752C83.1181 134.952 82.5661 136.416 82.5661 138.12C82.5661 139.824 83.1181 141.288 84.2461 142.488C85.3741 143.664 86.7901 144.264 88.4701 144.264ZM88.4701 142.608C87.2941 142.608 86.3101 142.176 85.5421 141.336C84.7741 140.472 84.3901 139.392 84.3901 138.12C84.3901 136.848 84.7741 135.768 85.5421 134.928C86.3101 134.064 87.2941 133.632 88.4701 133.632C89.6701 133.632 90.6541 134.064 91.4221 134.928C92.1901 135.768 92.5741 136.848 92.5741 138.12C92.5741 139.392 92.1901 140.472 91.4221 141.336C90.6541 142.176 89.6701 142.608 88.4701 142.608ZM106.207 134.664C106.711 135.072 107.143 135.072 107.503 134.712C107.863 134.304 107.815 133.872 107.383 133.44C106.399 132.456 105.103 131.952 103.519 131.952C101.863 131.952 100.447 132.552 99.2707 133.776C98.1187 134.976 97.5427 136.416 97.5427 138.12C97.5427 139.824 98.0947 141.288 99.2227 142.488C100.351 143.664 101.767 144.264 103.447 144.264C105.103 144.264 106.495 143.712 107.623 142.632C108.055 142.2 108.103 141.768 107.743 141.36C107.335 140.952 106.903 140.952 106.447 141.408C105.655 142.2 104.695 142.608 103.591 142.608C100.975 142.608 99.3667 140.736 99.3667 138.12C99.3667 136.848 99.7507 135.768 100.543 134.928C101.335 134.064 102.319 133.632 103.519 133.632C104.503 133.632 105.391 133.968 106.207 134.664ZM111.503 129.312C112.055 129.816 112.895 129.816 113.399 129.312C113.951 128.76 113.951 127.92 113.399 127.416C112.895 126.912 112.055 126.912 111.503 127.416C110.999 127.92 110.999 128.76 111.503 129.312ZM113.351 133.104C113.351 132.456 113.063 132.12 112.463 132.12C111.959 132.12 111.575 132.456 111.575 133.104V143.112C111.575 143.784 111.863 144.12 112.463 144.12C113.063 144.12 113.351 143.784 113.351 143.112V133.104ZM118.89 134.856C119.802 134.016 120.738 133.608 121.722 133.608C123.426 133.608 124.458 134.568 124.458 136.368V136.728L121.242 137.112C118.65 137.4 116.898 138.72 116.898 140.808C116.898 142.944 118.53 144.264 120.738 144.264C122.298 144.264 123.714 143.568 124.506 142.68V143.136C124.506 144.432 126.234 144.432 126.234 143.136V136.56C126.234 133.584 124.554 131.952 121.746 131.952C120.234 131.952 118.65 132.72 117.69 133.752C117.282 134.232 117.306 134.688 117.666 135C118.026 135.312 118.434 135.264 118.89 134.856ZM118.674 140.856C118.674 139.68 119.562 138.984 121.338 138.768L124.458 138.384V140.808C123.762 141.864 122.298 142.68 120.834 142.68C119.514 142.68 118.674 141.936 118.674 140.856ZM138.293 134.664C138.797 135.072 139.229 135.072 139.589 134.712C139.949 134.304 139.901 133.872 139.469 133.44C138.485 132.456 137.189 131.952 135.605 131.952C133.949 131.952 132.533 132.552 131.357 133.776C130.205 134.976 129.629 136.416 129.629 138.12C129.629 139.824 130.181 141.288 131.309 142.488C132.437 143.664 133.853 144.264 135.533 144.264C137.189 144.264 138.581 143.712 139.709 142.632C140.141 142.2 140.189 141.768 139.829 141.36C139.421 140.952 138.989 140.952 138.533 141.408C137.741 142.2 136.781 142.608 135.677 142.608C133.061 142.608 131.453 140.736 131.453 138.12C131.453 136.848 131.837 135.768 132.629 134.928C133.421 134.064 134.405 133.632 135.605 133.632C136.589 133.632 137.477 133.968 138.293 134.664ZM143.589 129.312C144.141 129.816 144.981 129.816 145.485 129.312C146.037 128.76 146.037 127.92 145.485 127.416C144.981 126.912 144.141 126.912 143.589 127.416C143.085 127.92 143.085 128.76 143.589 129.312ZM145.437 133.104C145.437 132.456 145.149 132.12 144.549 132.12C144.045 132.12 143.661 132.456 143.661 133.104V143.112C143.661 143.784 143.949 144.12 144.549 144.12C145.149 144.12 145.437 143.784 145.437 143.112V133.104ZM155.056 144.264C156.76 144.264 158.176 143.664 159.304 142.488C160.432 141.288 161.008 139.824 161.008 138.12C161.008 136.416 160.432 134.952 159.28 133.752C158.152 132.552 156.736 131.952 155.056 131.952C153.376 131.952 151.96 132.552 150.832 133.752C149.704 134.952 149.152 136.416 149.152 138.12C149.152 139.824 149.704 141.288 150.832 142.488C151.96 143.664 153.376 144.264 155.056 144.264ZM155.056 142.608C153.88 142.608 152.896 142.176 152.128 141.336C151.36 140.472 150.976 139.392 150.976 138.12C150.976 136.848 151.36 135.768 152.128 134.928C152.896 134.064 153.88 133.632 155.056 133.632C156.256 133.632 157.24 134.064 158.008 134.928C158.776 135.768 159.16 136.848 159.16 138.12C159.16 139.392 158.776 140.472 158.008 141.336C157.24 142.176 156.256 142.608 155.056 142.608ZM153.352 129C152.896 129.336 152.776 129.696 152.992 130.08C153.256 130.512 153.64 130.584 154.12 130.272L156.712 128.736C157.264 128.376 157.384 127.968 157.12 127.488C156.784 126.984 156.352 126.912 155.824 127.272L153.352 129ZM164.54 143.112C164.54 143.784 164.828 144.12 165.428 144.12C166.028 144.12 166.316 143.784 166.316 143.112V138.168C166.316 135.36 167.564 133.608 169.868 133.608C171.764 133.608 172.868 134.832 172.868 137.016V143.112C172.868 143.784 173.156 144.12 173.756 144.12C174.26 144.12 174.668 143.784 174.668 143.112V137.16C174.668 133.824 172.988 131.952 169.988 131.952C168.524 131.952 167.06 132.648 166.268 133.68V133.104C166.268 132.456 165.98 132.12 165.404 132.12C164.924 132.12 164.54 132.456 164.54 133.104V143.112ZM196.022 130.2C196.526 130.656 196.982 130.704 197.39 130.344C197.846 129.936 197.822 129.48 197.366 128.976C196.022 127.608 194.246 126.912 192.062 126.912C190.502 126.912 189.134 127.344 187.982 128.184C186.83 129.024 186.254 130.152 186.254 131.568C186.254 132.864 186.71 133.896 187.598 134.664C188.486 135.432 189.638 135.936 191.006 136.176L193.07 136.536C195.422 136.944 196.598 137.952 196.598 139.56C196.598 141.456 194.87 142.56 192.494 142.56C190.454 142.56 188.846 141.912 187.67 140.592C187.214 140.088 186.758 140.04 186.302 140.448C185.846 140.856 185.87 141.312 186.326 141.816C187.574 143.16 189.662 144.264 192.278 144.264C194.126 144.264 195.614 143.808 196.742 142.92C197.87 142.032 198.422 140.904 198.422 139.536C198.422 136.92 196.574 135.312 193.31 134.736L191.654 134.448C189.278 134.064 188.078 133.08 188.078 131.496C188.078 129.792 189.71 128.616 191.918 128.616C193.574 128.616 194.942 129.144 196.022 130.2ZM202.609 134.856C203.521 134.016 204.457 133.608 205.441 133.608C207.145 133.608 208.177 134.568 208.177 136.368V136.728L204.961 137.112C202.369 137.4 200.617 138.72 200.617 140.808C200.617 142.944 202.249 144.264 204.457 144.264C206.017 144.264 207.433 143.568 208.225 142.68V143.136C208.225 144.432 209.953 144.432 209.953 143.136V136.56C209.953 133.584 208.273 131.952 205.465 131.952C203.953 131.952 202.369 132.72 201.409 133.752C201.001 134.232 201.025 134.688 201.385 135C201.745 135.312 202.153 135.264 202.609 134.856ZM202.393 140.856C202.393 139.68 203.281 138.984 205.057 138.768L208.177 138.384V140.808C207.481 141.864 206.017 142.68 204.553 142.68C203.233 142.68 202.393 141.936 202.393 140.856ZM214.157 143.112C214.157 143.784 214.445 144.12 215.045 144.12C215.645 144.12 215.933 143.784 215.933 143.112V138.168C215.933 135.36 217.181 133.608 219.485 133.608C221.381 133.608 222.485 134.832 222.485 137.016V143.112C222.485 143.784 222.773 144.12 223.373 144.12C223.877 144.12 224.285 143.784 224.285 143.112V137.16C224.285 133.824 222.605 131.952 219.605 131.952C218.141 131.952 216.677 132.648 215.885 133.68V133.104C215.885 132.456 215.597 132.12 215.021 132.12C214.541 132.12 214.157 132.456 214.157 133.104V143.112ZM249.024 141.84C249.312 141.552 249.456 141.216 249.456 140.808V136.728C249.456 136.128 248.976 135.624 248.376 135.624H243.792C243.12 135.624 242.784 135.912 242.784 136.488C242.784 136.968 243.12 137.352 243.792 137.352H247.68V140.736C246.456 141.96 244.92 142.56 243.024 142.56C241.128 142.56 239.544 141.888 238.272 140.568C237.024 139.224 236.4 137.568 236.4 135.624C236.4 133.632 237.024 131.976 238.248 130.632C239.496 129.288 241.056 128.616 242.904 128.616C244.704 128.616 246.216 129.24 247.44 130.464C247.896 130.92 248.352 130.944 248.784 130.536C249.192 130.128 249.144 129.672 248.688 129.216C247.152 127.68 245.232 126.912 242.904 126.912C240.528 126.912 238.56 127.752 236.952 129.456C235.368 131.16 234.576 133.2 234.576 135.624C234.576 138.024 235.368 140.064 236.976 141.744C238.584 143.424 240.6 144.264 243.024 144.264C245.352 144.264 247.368 143.448 249.024 141.84ZM254.64 134.856C255.552 134.016 256.488 133.608 257.472 133.608C259.176 133.608 260.208 134.568 260.208 136.368V136.728L256.992 137.112C254.4 137.4 252.648 138.72 252.648 140.808C252.648 142.944 254.28 144.264 256.488 144.264C258.048 144.264 259.464 143.568 260.256 142.68V143.136C260.256 144.432 261.984 144.432 261.984 143.136V136.56C261.984 133.584 260.304 131.952 257.496 131.952C255.984 131.952 254.4 132.72 253.44 133.752C253.032 134.232 253.056 134.688 253.416 135C253.776 135.312 254.184 135.264 254.64 134.856ZM254.424 140.856C254.424 139.68 255.312 138.984 257.088 138.768L260.208 138.384V140.808C259.512 141.864 258.048 142.68 256.584 142.68C255.264 142.68 254.424 141.936 254.424 140.856ZM274.54 141.336C273.844 142.176 272.932 142.608 271.756 142.608C270.58 142.608 269.644 142.176 268.948 141.336C268.252 140.496 267.916 139.416 267.916 138.12C267.916 136.824 268.252 135.744 268.948 134.904C269.644 134.064 270.58 133.632 271.756 133.632C272.932 133.632 273.844 134.064 274.54 134.904C275.236 135.744 275.572 136.824 275.572 138.12C275.572 139.416 275.236 140.496 274.54 141.336ZM266.188 143.136C266.188 144.432 267.916 144.432 267.916 143.136V142.392C268.996 143.64 270.316 144.264 271.924 144.264C273.532 144.264 274.828 143.664 275.86 142.488C276.892 141.312 277.396 139.848 277.396 138.12C277.396 136.392 276.892 134.928 275.86 133.752C274.828 132.552 273.532 131.952 271.924 131.952C270.34 131.952 269.02 132.576 267.964 133.8V128.088C267.964 127.416 267.676 127.08 267.076 127.08C266.476 127.08 266.188 127.416 266.188 128.088V143.136ZM286.499 133.776C286.667 133.776 286.883 133.8 287.171 133.848C287.819 133.944 288.179 133.56 288.179 133.056C288.179 132.576 287.915 132.288 287.363 132.168L286.499 132.072C284.843 132.072 283.571 132.624 282.659 133.728V133.104C282.659 132.456 282.371 132.12 281.795 132.12C281.315 132.12 280.931 132.456 280.931 133.104V143.112C280.931 143.784 281.219 144.12 281.819 144.12C282.419 144.12 282.707 143.784 282.707 143.112V138.984C282.707 135.216 283.835 133.776 286.499 133.776ZM290.917 129.312C291.469 129.816 292.309 129.816 292.813 129.312C293.365 128.76 293.365 127.92 292.813 127.416C292.309 126.912 291.469 126.912 290.917 127.416C290.413 127.92 290.413 128.76 290.917 129.312ZM292.765 133.104C292.765 132.456 292.477 132.12 291.877 132.12C291.373 132.12 290.989 132.456 290.989 133.104V143.112C290.989 143.784 291.277 144.12 291.877 144.12C292.477 144.12 292.765 143.784 292.765 143.112V133.104ZM302.072 133.632C304.016 133.632 305.264 135 305.288 137.088H298.376C298.664 135.072 300.056 133.632 302.072 133.632ZM307.088 137.568C307.088 134.928 305.672 131.952 302.024 131.952C300.416 131.952 299.096 132.552 298.04 133.776C297.008 135 296.48 136.464 296.48 138.192C296.48 139.992 297.008 141.456 298.04 142.584C299.096 143.712 300.512 144.264 302.264 144.264C303.824 144.264 305.168 143.712 306.296 142.632C306.728 142.2 306.776 141.768 306.416 141.36C306.008 140.952 305.576 140.952 305.12 141.408C304.328 142.2 303.368 142.608 302.264 142.608C299.96 142.608 298.472 141.144 298.304 138.672H305.864C306.68 138.672 307.088 138.312 307.088 137.568ZM312.402 128.064C312.402 127.416 312.114 127.08 311.514 127.08C311.01 127.08 310.626 127.416 310.626 128.064V143.112C310.626 143.784 310.914 144.12 311.514 144.12C312.114 144.12 312.402 143.784 312.402 143.112V128.064ZM95.629 183.216C94.093 181.68 92.173 180.912 89.845 180.912C87.469 180.912 85.501 181.752 83.893 183.456C82.309 185.16 81.517 187.2 81.517 189.624C81.517 192.024 82.309 194.064 83.917 195.744C85.525 197.424 87.541 198.264 89.965 198.264C92.269 198.264 94.237 197.496 95.893 195.96C96.373 195.528 96.397 195.096 95.989 194.64C95.557 194.232 95.101 194.256 94.645 194.712C93.373 195.936 91.813 196.56 89.965 196.56C88.069 196.56 86.485 195.888 85.213 194.568C83.965 193.224 83.341 191.568 83.341 189.624C83.341 187.632 83.965 185.976 85.189 184.632C86.437 183.288 87.997 182.616 89.845 182.616C91.645 182.616 93.157 183.24 94.381 184.464C94.837 184.92 95.293 184.944 95.725 184.536C96.133 184.128 96.085 183.672 95.629 183.216ZM108.852 187.128C108.852 186.456 108.564 186.12 107.964 186.12C107.364 186.12 107.076 186.456 107.076 187.128V192.048C107.076 195.072 105.972 196.584 103.74 196.584C101.844 196.584 100.788 195.408 100.788 193.2V187.128C100.788 186.456 100.5 186.12 99.9 186.12C99.3 186.12 99.012 186.456 99.012 187.128V193.056C99.012 196.416 100.524 198.264 103.5 198.264C105.012 198.264 106.236 197.688 107.148 196.536V197.136C107.148 197.784 107.436 198.12 107.988 198.12C108.492 198.12 108.852 197.784 108.852 197.136V187.128ZM117.982 187.632C119.926 187.632 121.174 189 121.198 191.088H114.286C114.574 189.072 115.966 187.632 117.982 187.632ZM122.998 191.568C122.998 188.928 121.582 185.952 117.934 185.952C116.326 185.952 115.006 186.552 113.95 187.776C112.918 189 112.39 190.464 112.39 192.192C112.39 193.992 112.918 195.456 113.95 196.584C115.006 197.712 116.422 198.264 118.174 198.264C119.734 198.264 121.078 197.712 122.206 196.632C122.638 196.2 122.686 195.768 122.326 195.36C121.918 194.952 121.486 194.952 121.03 195.408C120.238 196.2 119.278 196.608 118.174 196.608C115.87 196.608 114.382 195.144 114.214 192.672H121.774C122.59 192.672 122.998 192.312 122.998 191.568ZM126.536 197.112C126.536 197.784 126.824 198.12 127.424 198.12C128.024 198.12 128.312 197.784 128.312 197.112V192.168C128.312 189.36 129.56 187.608 131.864 187.608C133.76 187.608 134.864 188.832 134.864 191.016V197.112C134.864 197.784 135.152 198.12 135.752 198.12C136.256 198.12 136.664 197.784 136.664 197.112V191.16C136.664 187.824 134.984 185.952 131.984 185.952C130.52 185.952 129.056 186.648 128.264 187.68V187.104C128.264 186.456 127.976 186.12 127.4 186.12C126.92 186.12 126.536 186.456 126.536 187.104V197.112ZM144.639 196.392C142.983 196.392 142.575 195.936 142.575 194.208V187.872H144.615C145.239 187.872 145.551 187.608 145.551 187.056C145.551 186.504 145.239 186.24 144.615 186.24H142.575V183.84C142.575 183.168 142.287 182.832 141.687 182.832C141.087 182.832 140.799 183.168 140.799 183.84V186.24H139.575C138.951 186.24 138.639 186.504 138.639 187.056C138.639 187.608 138.951 187.872 139.575 187.872H140.799V194.328C140.799 197.184 141.903 198.024 144.495 198.024C145.191 198.024 145.551 197.76 145.551 197.208C145.551 196.656 145.239 196.392 144.639 196.392ZM150.214 188.856C151.126 188.016 152.062 187.608 153.046 187.608C154.75 187.608 155.782 188.568 155.782 190.368V190.728L152.566 191.112C149.974 191.4 148.222 192.72 148.222 194.808C148.222 196.944 149.854 198.264 152.062 198.264C153.622 198.264 155.038 197.568 155.83 196.68V197.136C155.83 198.432 157.558 198.432 157.558 197.136V190.56C157.558 187.584 155.878 185.952 153.07 185.952C151.558 185.952 149.974 186.72 149.014 187.752C148.606 188.232 148.63 188.688 148.99 189C149.35 189.312 149.758 189.264 150.214 188.856ZM149.998 194.856C149.998 193.68 150.886 192.984 152.662 192.768L155.782 192.384V194.808C155.086 195.864 153.622 196.68 152.158 196.68C150.838 196.68 149.998 195.936 149.998 194.856ZM170.712 190.296H175.8C177.912 190.296 179.424 191.28 179.424 193.176C179.424 195.216 177.936 196.272 175.704 196.272H170.712V190.296ZM175.392 182.928C177.528 182.928 179.016 183.792 179.016 185.688C179.016 187.584 177.528 188.568 175.416 188.568H170.712V182.928H175.392ZM169.968 181.2C169.368 181.2 168.888 181.704 168.888 182.304V196.872C168.888 197.472 169.368 198 169.968 198H175.488C177.24 198 178.632 197.568 179.688 196.728C180.744 195.864 181.272 194.688 181.272 193.224C181.272 191.52 180.288 189.984 178.68 189.24C180.024 188.568 180.864 187.104 180.864 185.64C180.864 182.664 178.632 181.2 175.056 181.2H169.968ZM198.238 183.216C196.702 181.68 194.782 180.912 192.454 180.912C190.078 180.912 188.11 181.752 186.502 183.456C184.918 185.16 184.126 187.2 184.126 189.624C184.126 192.024 184.918 194.064 186.526 195.744C188.134 197.424 190.15 198.264 192.574 198.264C194.878 198.264 196.846 197.496 198.502 195.96C198.982 195.528 199.006 195.096 198.598 194.64C198.166 194.232 197.71 194.256 197.254 194.712C195.982 195.936 194.422 196.56 192.574 196.56C190.678 196.56 189.094 195.888 187.822 194.568C186.574 193.224 185.95 191.568 185.95 189.624C185.95 187.632 186.574 185.976 187.798 184.632C189.046 183.288 190.606 182.616 192.454 182.616C194.254 182.616 195.766 183.24 196.99 184.464C197.446 184.92 197.902 184.944 198.334 184.536C198.742 184.128 198.694 183.672 198.238 183.216ZM208.101 182.928C210.597 182.928 212.157 184.224 212.157 186.504C212.157 188.88 210.597 190.104 208.101 190.104H203.805V182.928H208.101ZM203.061 181.2C202.461 181.2 201.981 181.704 201.981 182.304V197.088C201.981 197.784 202.293 198.12 202.893 198.12C203.493 198.12 203.805 197.784 203.805 197.088V191.808H207.837C209.733 191.808 211.221 191.328 212.325 190.368C213.429 189.408 213.981 188.112 213.981 186.504C213.981 184.896 213.429 183.6 212.301 182.64C211.197 181.68 209.709 181.2 207.837 181.2H203.061ZM230.824 188.52C231.376 188.976 231.808 189 232.168 188.616C232.576 188.184 232.528 187.752 232.048 187.296C231.088 186.408 229.888 185.952 228.472 185.952C227.368 185.952 226.408 186.264 225.616 186.864C224.824 187.464 224.416 188.28 224.416 189.336C224.416 191.064 225.52 192.192 227.752 192.72L229.504 193.128C230.728 193.416 231.352 193.992 231.352 194.832C231.352 195.96 230.368 196.632 228.712 196.632C227.536 196.632 226.528 196.224 225.664 195.384C225.256 194.976 224.824 194.952 224.416 195.36C224.032 195.744 224.056 196.152 224.464 196.608C225.544 197.712 226.96 198.264 228.736 198.264C231.4 198.264 233.128 196.824 233.128 194.736C233.128 193.056 232.024 191.952 229.792 191.424L227.944 190.992C226.768 190.728 226.192 190.152 226.192 189.264C226.192 188.28 227.08 187.608 228.352 187.608C229.288 187.608 230.104 187.92 230.824 188.52ZM241.294 198.264C242.998 198.264 244.414 197.664 245.542 196.488C246.67 195.288 247.246 193.824 247.246 192.12C247.246 190.416 246.67 188.952 245.518 187.752C244.39 186.552 242.974 185.952 241.294 185.952C239.614 185.952 238.198 186.552 237.07 187.752C235.942 188.952 235.39 190.416 235.39 192.12C235.39 193.824 235.942 195.288 237.07 196.488C238.198 197.664 239.614 198.264 241.294 198.264ZM241.294 196.608C240.118 196.608 239.134 196.176 238.366 195.336C237.598 194.472 237.214 193.392 237.214 192.12C237.214 190.848 237.598 189.768 238.366 188.928C239.134 188.064 240.118 187.632 241.294 187.632C242.494 187.632 243.478 188.064 244.246 188.928C245.014 189.768 245.398 190.848 245.398 192.12C245.398 193.392 245.014 194.472 244.246 195.336C243.478 196.176 242.494 196.608 241.294 196.608ZM252.554 182.064C252.554 181.416 252.266 181.08 251.666 181.08C251.162 181.08 250.778 181.416 250.778 182.064V197.112C250.778 197.784 251.066 198.12 251.666 198.12C252.266 198.12 252.554 197.784 252.554 197.112V182.064ZM261.678 187.632C263.622 187.632 264.87 189 264.894 191.088H257.982C258.27 189.072 259.662 187.632 261.678 187.632ZM266.694 191.568C266.694 188.928 265.278 185.952 261.63 185.952C260.022 185.952 258.702 186.552 257.646 187.776C256.614 189 256.086 190.464 256.086 192.192C256.086 193.992 256.614 195.456 257.646 196.584C258.702 197.712 260.118 198.264 261.87 198.264C263.43 198.264 264.774 197.712 265.902 196.632C266.334 196.2 266.382 195.768 266.022 195.36C265.614 194.952 265.182 194.952 264.726 195.408C263.934 196.2 262.974 196.608 261.87 196.608C259.566 196.608 258.078 195.144 257.91 192.672H265.47C266.286 192.672 266.694 192.312 266.694 191.568ZM276.831 188.52C277.383 188.976 277.815 189 278.175 188.616C278.583 188.184 278.535 187.752 278.055 187.296C277.095 186.408 275.895 185.952 274.479 185.952C273.375 185.952 272.415 186.264 271.623 186.864C270.831 187.464 270.423 188.28 270.423 189.336C270.423 191.064 271.527 192.192 273.759 192.72L275.511 193.128C276.735 193.416 277.359 193.992 277.359 194.832C277.359 195.96 276.375 196.632 274.719 196.632C273.543 196.632 272.535 196.224 271.671 195.384C271.263 194.976 270.831 194.952 270.423 195.36C270.039 195.744 270.063 196.152 270.471 196.608C271.551 197.712 272.967 198.264 274.743 198.264C277.407 198.264 279.135 196.824 279.135 194.736C279.135 193.056 278.031 191.952 275.799 191.424L273.951 190.992C272.775 190.728 272.199 190.152 272.199 189.264C272.199 188.28 273.087 187.608 274.359 187.608C275.295 187.608 276.111 187.92 276.831 188.52ZM282.944 195.408C282.152 195.408 281.528 196.056 281.528 196.848C281.528 197.64 282.152 198.264 282.944 198.264C283.784 198.264 284.408 197.64 284.408 196.848C284.408 196.008 283.784 195.408 282.944 195.408ZM282.944 186.096C282.152 186.096 281.528 186.744 281.528 187.536C281.528 188.328 282.152 188.952 282.944 188.952C283.784 188.952 284.408 188.328 284.408 187.536C284.408 186.696 283.784 186.096 282.944 186.096ZM80.3368 209.16C80.3368 208.416 79.9288 208.08 79.3768 208.08C79.1368 208.08 78.7768 208.224 78.2728 208.512L74.8888 210.456C74.4328 210.72 74.2168 211.032 74.2168 211.392C74.2168 212.088 75.0088 212.424 75.5848 212.064L78.5128 210.432V223.272H74.9608C73.6648 223.272 73.6648 225 74.9608 225H83.6488C84.9448 225 84.9448 223.272 83.6488 223.272H80.3368V209.16ZM92.3395 217.344C91.3315 217.344 90.4675 217.008 89.7475 216.312C89.0275 215.616 88.6675 214.68 88.6675 213.504C88.6675 212.256 89.0275 211.296 89.7235 210.624C90.4435 209.952 91.2835 209.616 92.2195 209.616C93.2755 209.616 94.1635 210 94.8835 210.744C95.6035 211.488 95.9635 212.424 95.9635 213.528C95.9635 214.656 95.6035 215.592 94.8835 216.288C94.1875 216.984 93.3235 217.344 92.3395 217.344ZM89.3155 222.384C88.8595 221.928 88.4035 221.904 87.9715 222.312C87.5635 222.72 87.5875 223.176 88.0675 223.656C89.1715 224.736 90.5395 225.264 92.1715 225.264C94.1155 225.264 95.6275 224.496 96.7555 222.936C97.8835 221.376 98.4595 219.312 98.4595 216.744C98.4595 214.08 97.9075 211.944 96.8035 210.336C95.6995 208.728 94.2115 207.912 92.3395 207.912C90.8995 207.912 89.6275 208.416 88.4995 209.448C87.3715 210.456 86.8195 211.8 86.8195 213.504C86.8195 215.16 87.3715 216.504 88.4515 217.536C89.5555 218.568 90.8515 219.072 92.3395 219.072C94.0675 219.072 95.8435 218.184 96.7315 216.528C96.8035 218.592 96.4195 220.272 95.5555 221.592C94.6915 222.912 93.5635 223.56 92.1715 223.56C91.0435 223.56 90.1075 223.176 89.3155 222.384ZM102.261 223.488C103.509 224.616 105.405 225.264 107.133 225.264C108.693 225.264 110.013 224.832 111.069 223.992C112.149 223.128 112.677 221.904 112.677 220.32C112.677 218.304 111.453 216.864 109.893 216.216C110.445 216 110.973 215.544 111.477 214.848C112.005 214.152 112.269 213.36 112.269 212.448C112.269 211.008 111.741 209.904 110.709 209.112C109.677 208.32 108.453 207.912 107.061 207.912C105.381 207.912 103.917 208.464 102.669 209.568C102.165 210.024 102.093 210.48 102.501 210.912C102.909 211.344 103.341 211.344 103.845 210.888C104.829 210.048 105.933 209.616 107.157 209.616C107.997 209.616 108.741 209.856 109.413 210.312C110.109 210.768 110.445 211.488 110.445 212.424C110.445 214.416 108.861 215.568 106.461 215.568H106.221C105.549 215.568 105.213 215.856 105.213 216.456C105.213 217.032 105.549 217.32 106.221 217.32H106.725C109.125 217.32 110.853 218.304 110.853 220.344C110.853 222.456 109.293 223.56 107.253 223.56C105.765 223.56 104.493 223.104 103.437 222.168C102.933 221.712 102.501 221.712 102.093 222.144C101.685 222.576 101.757 223.032 102.261 223.488ZM116.567 217.896C115.967 217.896 115.655 218.16 115.655 218.688C115.655 219.24 115.967 219.528 116.567 219.528H123.431C124.031 219.528 124.343 219.24 124.343 218.688C124.343 218.16 124.031 217.896 123.431 217.896H116.567ZM136.769 221.664C136.049 222.936 135.017 223.56 133.673 223.56C132.329 223.56 131.297 222.912 130.553 221.64C129.809 220.368 129.449 218.664 129.449 216.576C129.449 214.488 129.809 212.808 130.553 211.536C131.297 210.264 132.329 209.616 133.673 209.616C135.017 209.616 136.049 210.24 136.769 211.512C137.513 212.784 137.873 214.464 137.873 216.576C137.873 218.688 137.513 220.392 136.769 221.664ZM127.985 219.792C128.465 221.808 129.377 223.56 130.937 224.544C131.729 225.024 132.641 225.264 133.673 225.264C134.705 225.264 135.593 225.024 136.385 224.544C137.993 223.56 138.881 221.808 139.361 219.792C139.841 217.776 139.841 215.376 139.361 213.36C138.881 211.344 137.993 209.616 136.385 208.656C135.593 208.152 134.705 207.912 133.673 207.912C132.641 207.912 131.729 208.152 130.937 208.656C129.377 209.616 128.465 211.344 127.985 213.36C127.505 215.376 127.505 217.776 127.985 219.792ZM142.695 223.872C142.695 224.472 143.175 225 143.775 225H152.703C154.023 225 154.023 223.272 152.703 223.272H144.639C144.735 221.64 146.295 219.792 148.407 218.448L149.487 217.752C152.199 216 153.519 214.56 153.519 212.424C153.519 211.008 153.015 209.904 151.983 209.112C150.975 208.32 149.751 207.912 148.335 207.912C146.031 207.912 144.159 209.232 143.175 210.984C142.887 211.488 142.983 212.04 143.367 212.304C143.727 212.592 144.351 212.472 144.639 211.968C145.503 210.408 146.727 209.616 148.335 209.616C150.351 209.616 151.671 210.696 151.671 212.4C151.671 213.264 151.431 213.96 150.687 214.632C150.327 214.968 150.039 215.232 149.799 215.4L148.623 216.192L148.047 216.576C144.375 219.048 142.695 221.304 142.695 223.872ZM156.781 223.872C156.781 224.472 157.261 225 157.861 225H166.789C168.109 225 168.109 223.272 166.789 223.272H158.725C158.821 221.64 160.381 219.792 162.493 218.448L163.573 217.752C166.285 216 167.605 214.56 167.605 212.424C167.605 211.008 167.101 209.904 166.069 209.112C165.061 208.32 163.837 207.912 162.421 207.912C160.117 207.912 158.245 209.232 157.261 210.984C156.973 211.488 157.069 212.04 157.453 212.304C157.813 212.592 158.437 212.472 158.725 211.968C159.589 210.408 160.813 209.616 162.421 209.616C164.437 209.616 165.757 210.696 165.757 212.4C165.757 213.264 165.517 213.96 164.773 214.632C164.413 214.968 164.125 215.232 163.885 215.4L162.709 216.192L162.133 216.576C158.461 219.048 156.781 221.304 156.781 223.872ZM177.395 215.832C178.403 215.832 179.267 216.192 179.987 216.888C180.707 217.584 181.067 218.496 181.067 219.672C181.067 220.92 180.707 221.88 179.987 222.552C179.291 223.224 178.451 223.56 177.515 223.56C176.459 223.56 175.571 223.176 174.851 222.432C174.131 221.688 173.771 220.752 173.771 219.648C173.771 218.52 174.131 217.584 174.827 216.888C175.547 216.192 176.411 215.832 177.395 215.832ZM180.419 210.792C180.875 211.248 181.403 211.224 181.763 210.864C182.171 210.456 182.147 210 181.667 209.52C180.563 208.44 179.195 207.912 177.563 207.912C175.619 207.912 174.083 208.68 172.955 210.24C171.827 211.8 171.275 213.864 171.275 216.432C171.275 219.096 171.827 221.256 172.931 222.864C174.035 224.472 175.523 225.264 177.395 225.264C178.835 225.264 180.107 224.76 181.235 223.752C182.363 222.72 182.915 221.376 182.915 219.672C182.915 218.016 182.363 216.672 181.259 215.64C180.179 214.608 178.883 214.104 177.395 214.104C175.667 214.104 173.891 214.992 173.003 216.648C172.931 214.584 173.315 212.904 174.179 211.584C175.043 210.264 176.171 209.616 177.563 209.616C178.691 209.616 179.627 210 180.419 210.792ZM193.258 211.224V219.024H187.594L193.258 211.224ZM185.698 218.88C185.482 219.192 185.362 219.48 185.362 219.72C185.362 220.416 185.746 220.752 186.538 220.752H193.258V224.088C193.258 224.784 193.57 225.12 194.17 225.12C194.77 225.12 195.082 224.784 195.082 224.088V220.752H196.666C197.314 220.752 197.65 220.464 197.65 219.888C197.65 219.312 197.314 219.024 196.666 219.024H195.082V209.28C195.082 208.488 194.722 208.08 194.026 208.08C193.642 208.08 193.33 208.248 193.114 208.56L185.698 218.88ZM200.117 223.872C200.117 224.472 200.597 225 201.197 225H210.125C211.445 225 211.445 223.272 210.125 223.272H202.061C202.157 221.64 203.717 219.792 205.829 218.448L206.909 217.752C209.621 216 210.941 214.56 210.941 212.424C210.941 211.008 210.437 209.904 209.405 209.112C208.397 208.32 207.173 207.912 205.757 207.912C203.453 207.912 201.581 209.232 200.597 210.984C200.309 211.488 200.405 212.04 200.789 212.304C201.149 212.592 201.773 212.472 202.061 211.968C202.925 210.408 204.149 209.616 205.757 209.616C207.773 209.616 209.093 210.696 209.093 212.4C209.093 213.264 208.853 213.96 208.109 214.632C207.749 214.968 207.461 215.232 207.221 215.4L206.045 216.192L205.469 216.576C201.797 219.048 200.117 221.304 200.117 223.872ZM221.571 211.224V219.024H215.907L221.571 211.224ZM214.011 218.88C213.795 219.192 213.675 219.48 213.675 219.72C213.675 220.416 214.059 220.752 214.851 220.752H221.571V224.088C221.571 224.784 221.883 225.12 222.483 225.12C223.083 225.12 223.395 224.784 223.395 224.088V220.752H224.979C225.627 220.752 225.963 220.464 225.963 219.888C225.963 219.312 225.627 219.024 224.979 219.024H223.395V209.28C223.395 208.488 223.035 208.08 222.339 208.08C221.955 208.08 221.643 208.248 221.427 208.56L214.011 218.88ZM229.653 217.896C229.053 217.896 228.741 218.16 228.741 218.688C228.741 219.24 229.053 219.528 229.653 219.528H236.517C237.117 219.528 237.429 219.24 237.429 218.688C237.429 218.16 237.117 217.896 236.517 217.896H229.653ZM249.855 221.664C249.135 222.936 248.103 223.56 246.759 223.56C245.415 223.56 244.383 222.912 243.639 221.64C242.895 220.368 242.535 218.664 242.535 216.576C242.535 214.488 242.895 212.808 243.639 211.536C244.383 210.264 245.415 209.616 246.759 209.616C248.103 209.616 249.135 210.24 249.855 211.512C250.599 212.784 250.959 214.464 250.959 216.576C250.959 218.688 250.599 220.392 249.855 221.664ZM241.071 219.792C241.551 221.808 242.463 223.56 244.023 224.544C244.815 225.024 245.727 225.264 246.759 225.264C247.791 225.264 248.679 225.024 249.471 224.544C251.079 223.56 251.967 221.808 252.447 219.792C252.927 217.776 252.927 215.376 252.447 213.36C251.967 211.344 251.079 209.616 249.471 208.656C248.679 208.152 247.791 207.912 246.759 207.912C245.727 207.912 244.815 208.152 244.023 208.656C242.463 209.616 241.551 211.344 241.071 213.36C240.591 215.376 240.591 217.776 241.071 219.792ZM257.005 217.896C256.405 217.896 256.093 218.16 256.093 218.688C256.093 219.24 256.405 219.528 257.005 219.528H263.869C264.469 219.528 264.781 219.24 264.781 218.688C264.781 218.16 264.469 217.896 263.869 217.896H257.005ZM274.446 209.16C274.446 208.416 274.038 208.08 273.486 208.08C273.246 208.08 272.886 208.224 272.382 208.512L268.998 210.456C268.542 210.72 268.326 211.032 268.326 211.392C268.326 212.088 269.118 212.424 269.694 212.064L272.622 210.432V223.272H269.07C267.774 223.272 267.774 225 269.07 225H277.758C279.054 225 279.054 223.272 277.758 223.272H274.446V209.16ZM290.097 221.664C289.377 222.936 288.345 223.56 287.001 223.56C285.657 223.56 284.625 222.912 283.881 221.64C283.137 220.368 282.777 218.664 282.777 216.576C282.777 214.488 283.137 212.808 283.881 211.536C284.625 210.264 285.657 209.616 287.001 209.616C288.345 209.616 289.377 210.24 290.097 211.512C290.841 212.784 291.201 214.464 291.201 216.576C291.201 218.688 290.841 220.392 290.097 221.664ZM281.313 219.792C281.793 221.808 282.705 223.56 284.265 224.544C285.057 225.024 285.969 225.264 287.001 225.264C288.033 225.264 288.921 225.024 289.713 224.544C291.321 223.56 292.209 221.808 292.689 219.792C293.169 217.776 293.169 215.376 292.689 213.36C292.209 211.344 291.321 209.616 289.713 208.656C288.921 208.152 288.033 207.912 287.001 207.912C285.969 207.912 285.057 208.152 284.265 208.656C282.705 209.616 281.793 211.344 281.313 213.36C280.833 215.376 280.833 217.776 281.313 219.792ZM175.434 264.216C173.898 262.68 171.978 261.912 169.65 261.912C167.274 261.912 165.306 262.752 163.698 264.456C162.114 266.16 161.322 268.2 161.322 270.624C161.322 273.024 162.114 275.064 163.722 276.744C165.33 278.424 167.346 279.264 169.77 279.264C172.074 279.264 174.042 278.496 175.698 276.96C176.178 276.528 176.202 276.096 175.794 275.64C175.362 275.232 174.906 275.256 174.45 275.712C173.178 276.936 171.618 277.56 169.77 277.56C167.874 277.56 166.29 276.888 165.018 275.568C163.77 274.224 163.146 272.568 163.146 270.624C163.146 268.632 163.77 266.976 164.994 265.632C166.242 264.288 167.802 263.616 169.65 263.616C171.45 263.616 172.962 264.24 174.186 265.464C174.642 265.92 175.098 265.944 175.53 265.536C175.938 265.128 175.89 264.672 175.434 264.216ZM192.074 264.216C190.538 262.68 188.618 261.912 186.29 261.912C183.914 261.912 181.946 262.752 180.338 264.456C178.754 266.16 177.962 268.2 177.962 270.624C177.962 273.024 178.754 275.064 180.362 276.744C181.97 278.424 183.986 279.264 186.41 279.264C188.714 279.264 190.682 278.496 192.338 276.96C192.818 276.528 192.842 276.096 192.434 275.64C192.002 275.232 191.546 275.256 191.09 275.712C189.818 276.936 188.258 277.56 186.41 277.56C184.514 277.56 182.93 276.888 181.658 275.568C180.41 274.224 179.786 272.568 179.786 270.624C179.786 268.632 180.41 266.976 181.634 265.632C182.882 264.288 184.442 263.616 186.29 263.616C188.09 263.616 189.602 264.24 190.826 265.464C191.282 265.92 191.738 265.944 192.17 265.536C192.578 265.128 192.53 264.672 192.074 264.216ZM197.641 263.088C197.641 262.392 197.329 262.056 196.729 262.056C196.129 262.056 195.817 262.392 195.817 263.088V278.088C195.817 278.784 196.129 279.12 196.729 279.12C197.329 279.12 197.641 278.784 197.641 278.088V263.088ZM203.14 276.408C202.348 276.408 201.724 277.056 201.724 277.848C201.724 278.64 202.348 279.264 203.14 279.264C203.98 279.264 204.604 278.64 204.604 277.848C204.604 277.008 203.98 276.408 203.14 276.408ZM203.14 267.096C202.348 267.096 201.724 267.744 201.724 268.536C201.724 269.328 202.348 269.952 203.14 269.952C203.98 269.952 204.604 269.328 204.604 268.536C204.604 267.696 203.98 267.096 203.14 267.096ZM51.1164 302.664C50.3964 303.936 49.3644 304.56 48.0204 304.56C46.6764 304.56 45.6444 303.912 44.9004 302.64C44.1564 301.368 43.7964 299.664 43.7964 297.576C43.7964 295.488 44.1564 293.808 44.9004 292.536C45.6444 291.264 46.6764 290.616 48.0204 290.616C49.3644 290.616 50.3964 291.24 51.1164 292.512C51.8604 293.784 52.2204 295.464 52.2204 297.576C52.2204 299.688 51.8604 301.392 51.1164 302.664ZM42.3324 300.792C42.8124 302.808 43.7244 304.56 45.2844 305.544C46.0764 306.024 46.9884 306.264 48.0204 306.264C49.0524 306.264 49.9404 306.024 50.7324 305.544C52.3404 304.56 53.2284 302.808 53.7084 300.792C54.1884 298.776 54.1884 296.376 53.7084 294.36C53.2284 292.344 52.3404 290.616 50.7324 289.656C49.9404 289.152 49.0524 288.912 48.0204 288.912C46.9884 288.912 46.0764 289.152 45.2844 289.656C43.7244 290.616 42.8124 292.344 42.3324 294.36C41.8524 296.376 41.8524 298.776 42.3324 300.792ZM66.1867 302.664C65.4667 303.936 64.4347 304.56 63.0907 304.56C61.7467 304.56 60.7147 303.912 59.9707 302.64C59.2267 301.368 58.8667 299.664 58.8667 297.576C58.8667 295.488 59.2267 293.808 59.9707 292.536C60.7147 291.264 61.7467 290.616 63.0907 290.616C64.4347 290.616 65.4667 291.24 66.1867 292.512C66.9307 293.784 67.2907 295.464 67.2907 297.576C67.2907 299.688 66.9307 301.392 66.1867 302.664ZM57.4027 300.792C57.8827 302.808 58.7947 304.56 60.3547 305.544C61.1467 306.024 62.0587 306.264 63.0907 306.264C64.1227 306.264 65.0107 306.024 65.8027 305.544C67.4107 304.56 68.2987 302.808 68.7787 300.792C69.2587 298.776 69.2587 296.376 68.7787 294.36C68.2987 292.344 67.4107 290.616 65.8027 289.656C65.0107 289.152 64.1227 288.912 63.0907 288.912C62.0587 288.912 61.1467 289.152 60.3547 289.656C58.7947 290.616 57.8827 292.344 57.4027 294.36C56.9227 296.376 56.9227 298.776 57.4027 300.792ZM72.113 304.872C72.113 305.472 72.593 306 73.193 306H82.121C83.441 306 83.441 304.272 82.121 304.272H74.057C74.153 302.64 75.713 300.792 77.825 299.448L78.905 298.752C81.617 297 82.937 295.56 82.937 293.424C82.937 292.008 82.433 290.904 81.401 290.112C80.393 289.32 79.169 288.912 77.753 288.912C75.449 288.912 73.577 290.232 72.593 291.984C72.305 292.488 72.401 293.04 72.785 293.304C73.145 293.592 73.769 293.472 74.057 292.968C74.921 291.408 76.145 290.616 77.753 290.616C79.769 290.616 81.089 291.696 81.089 293.4C81.089 294.264 80.849 294.96 80.105 295.632C79.745 295.968 79.457 296.232 79.217 296.4L78.041 297.192L77.465 297.576C73.793 300.048 72.113 302.304 72.113 304.872ZM92.5829 290.16C92.5829 289.416 92.1749 289.08 91.6229 289.08C91.3829 289.08 91.0229 289.224 90.5189 289.512L87.1349 291.456C86.6789 291.72 86.4629 292.032 86.4629 292.392C86.4629 293.088 87.2549 293.424 87.8309 293.064L90.7589 291.432V304.272H87.2069C85.9109 304.272 85.9109 306 87.2069 306H95.8949C97.1909 306 97.1909 304.272 95.8949 304.272H92.5829V290.16ZM104.586 298.344C103.578 298.344 102.714 298.008 101.994 297.312C101.274 296.616 100.914 295.68 100.914 294.504C100.914 293.256 101.274 292.296 101.97 291.624C102.69 290.952 103.53 290.616 104.466 290.616C105.522 290.616 106.41 291 107.13 291.744C107.85 292.488 108.21 293.424 108.21 294.528C108.21 295.656 107.85 296.592 107.13 297.288C106.434 297.984 105.57 298.344 104.586 298.344ZM101.562 303.384C101.106 302.928 100.65 302.904 100.218 303.312C99.8096 303.72 99.8336 304.176 100.314 304.656C101.418 305.736 102.786 306.264 104.418 306.264C106.362 306.264 107.874 305.496 109.002 303.936C110.13 302.376 110.706 300.312 110.706 297.744C110.706 295.08 110.154 292.944 109.05 291.336C107.946 289.728 106.458 288.912 104.586 288.912C103.146 288.912 101.874 289.416 100.746 290.448C99.6176 291.456 99.0656 292.8 99.0656 294.504C99.0656 296.16 99.6176 297.504 100.698 298.536C101.802 299.568 103.098 300.072 104.586 300.072C106.314 300.072 108.09 299.184 108.978 297.528C109.05 299.592 108.666 301.272 107.802 302.592C106.938 303.912 105.81 304.56 104.418 304.56C103.29 304.56 102.354 304.176 101.562 303.384ZM114.507 304.488C115.755 305.616 117.651 306.264 119.379 306.264C120.939 306.264 122.259 305.832 123.315 304.992C124.395 304.128 124.923 302.904 124.923 301.32C124.923 299.304 123.699 297.864 122.139 297.216C122.691 297 123.219 296.544 123.723 295.848C124.251 295.152 124.515 294.36 124.515 293.448C124.515 292.008 123.987 290.904 122.955 290.112C121.923 289.32 120.699 288.912 119.307 288.912C117.627 288.912 116.163 289.464 114.915 290.568C114.411 291.024 114.339 291.48 114.747 291.912C115.155 292.344 115.587 292.344 116.091 291.888C117.075 291.048 118.179 290.616 119.403 290.616C120.243 290.616 120.987 290.856 121.659 291.312C122.355 291.768 122.691 292.488 122.691 293.424C122.691 295.416 121.107 296.568 118.707 296.568H118.467C117.795 296.568 117.459 296.856 117.459 297.456C117.459 298.032 117.795 298.32 118.467 298.32H118.971C121.371 298.32 123.099 299.304 123.099 301.344C123.099 303.456 121.539 304.56 119.499 304.56C118.011 304.56 116.739 304.104 115.683 303.168C115.179 302.712 114.747 302.712 114.339 303.144C113.931 303.576 114.003 304.032 114.507 304.488ZM136.734 302.664C136.014 303.936 134.982 304.56 133.638 304.56C132.294 304.56 131.262 303.912 130.518 302.64C129.774 301.368 129.414 299.664 129.414 297.576C129.414 295.488 129.774 293.808 130.518 292.536C131.262 291.264 132.294 290.616 133.638 290.616C134.982 290.616 136.014 291.24 136.734 292.512C137.478 293.784 137.838 295.464 137.838 297.576C137.838 299.688 137.478 301.392 136.734 302.664ZM127.95 300.792C128.43 302.808 129.342 304.56 130.902 305.544C131.694 306.024 132.606 306.264 133.638 306.264C134.67 306.264 135.558 306.024 136.35 305.544C137.958 304.56 138.846 302.808 139.326 300.792C139.806 298.776 139.806 296.376 139.326 294.36C138.846 292.344 137.958 290.616 136.35 289.656C135.558 289.152 134.67 288.912 133.638 288.912C132.606 288.912 131.694 289.152 130.902 289.656C129.342 290.616 128.43 292.344 127.95 294.36C127.47 296.376 127.47 298.776 127.95 300.792ZM151.804 302.664C151.084 303.936 150.052 304.56 148.708 304.56C147.364 304.56 146.332 303.912 145.588 302.64C144.844 301.368 144.484 299.664 144.484 297.576C144.484 295.488 144.844 293.808 145.588 292.536C146.332 291.264 147.364 290.616 148.708 290.616C150.052 290.616 151.084 291.24 151.804 292.512C152.548 293.784 152.908 295.464 152.908 297.576C152.908 299.688 152.548 301.392 151.804 302.664ZM143.02 300.792C143.5 302.808 144.412 304.56 145.972 305.544C146.764 306.024 147.676 306.264 148.708 306.264C149.74 306.264 150.628 306.024 151.42 305.544C153.028 304.56 153.916 302.808 154.396 300.792C154.876 298.776 154.876 296.376 154.396 294.36C153.916 292.344 153.028 290.616 151.42 289.656C150.628 289.152 149.74 288.912 148.708 288.912C147.676 288.912 146.764 289.152 145.972 289.656C144.412 290.616 143.5 292.344 143.02 294.36C142.54 296.376 142.54 298.776 143.02 300.792ZM166.874 302.664C166.154 303.936 165.122 304.56 163.778 304.56C162.434 304.56 161.402 303.912 160.658 302.64C159.914 301.368 159.554 299.664 159.554 297.576C159.554 295.488 159.914 293.808 160.658 292.536C161.402 291.264 162.434 290.616 163.778 290.616C165.122 290.616 166.154 291.24 166.874 292.512C167.618 293.784 167.978 295.464 167.978 297.576C167.978 299.688 167.618 301.392 166.874 302.664ZM158.09 300.792C158.57 302.808 159.482 304.56 161.042 305.544C161.834 306.024 162.746 306.264 163.778 306.264C164.81 306.264 165.698 306.024 166.49 305.544C168.098 304.56 168.986 302.808 169.466 300.792C169.946 298.776 169.946 296.376 169.466 294.36C168.986 292.344 168.098 290.616 166.49 289.656C165.698 289.152 164.81 288.912 163.778 288.912C162.746 288.912 161.834 289.152 161.042 289.656C159.482 290.616 158.57 292.344 158.09 294.36C157.61 296.376 157.61 298.776 158.09 300.792ZM172.801 304.872C172.801 305.472 173.281 306 173.881 306H182.809C184.129 306 184.129 304.272 182.809 304.272H174.745C174.84 302.64 176.401 300.792 178.513 299.448L179.593 298.752C182.305 297 183.625 295.56 183.625 293.424C183.625 292.008 183.121 290.904 182.089 290.112C181.081 289.32 179.857 288.912 178.441 288.912C176.137 288.912 174.265 290.232 173.281 291.984C172.993 292.488 173.089 293.04 173.473 293.304C173.833 293.592 174.457 293.472 174.745 292.968C175.609 291.408 176.833 290.616 178.441 290.616C180.457 290.616 181.777 291.696 181.777 293.4C181.777 294.264 181.537 294.96 180.793 295.632C180.433 295.968 180.145 296.232 179.905 296.4L178.729 297.192L178.153 297.576C174.48 300.048 172.801 302.304 172.801 304.872ZM186.886 304.872C186.886 305.472 187.366 306 187.966 306H196.894C198.214 306 198.214 304.272 196.894 304.272H188.83C188.926 302.64 190.486 300.792 192.598 299.448L193.678 298.752C196.39 297 197.71 295.56 197.71 293.424C197.71 292.008 197.206 290.904 196.174 290.112C195.166 289.32 193.942 288.912 192.526 288.912C190.222 288.912 188.35 290.232 187.366 291.984C187.078 292.488 187.174 293.04 187.558 293.304C187.918 293.592 188.542 293.472 188.83 292.968C189.694 291.408 190.918 290.616 192.526 290.616C194.542 290.616 195.862 291.696 195.862 293.4C195.862 294.264 195.622 294.96 194.878 295.632C194.518 295.968 194.23 296.232 193.99 296.4L192.814 297.192L192.238 297.576C188.566 300.048 186.886 302.304 186.886 304.872ZM207.5 296.832C208.508 296.832 209.372 297.192 210.092 297.888C210.812 298.584 211.172 299.496 211.172 300.672C211.172 301.92 210.812 302.88 210.092 303.552C209.396 304.224 208.556 304.56 207.62 304.56C206.564 304.56 205.676 304.176 204.956 303.432C204.236 302.688 203.876 301.752 203.876 300.648C203.876 299.52 204.236 298.584 204.932 297.888C205.652 297.192 206.516 296.832 207.5 296.832ZM210.524 291.792C210.98 292.248 211.508 292.224 211.868 291.864C212.276 291.456 212.252 291 211.772 290.52C210.668 289.44 209.3 288.912 207.668 288.912C205.724 288.912 204.188 289.68 203.06 291.24C201.932 292.8 201.38 294.864 201.38 297.432C201.38 300.096 201.932 302.256 203.036 303.864C204.14 305.472 205.628 306.264 207.5 306.264C208.94 306.264 210.212 305.76 211.34 304.752C212.468 303.72 213.02 302.376 213.02 300.672C213.02 299.016 212.468 297.672 211.364 296.64C210.284 295.608 208.988 295.104 207.5 295.104C205.772 295.104 203.996 295.992 203.108 297.648C203.036 295.584 203.42 293.904 204.284 292.584C205.148 291.264 206.276 290.616 207.668 290.616C208.796 290.616 209.732 291 210.524 291.792ZM223.364 292.224V300.024H217.7L223.364 292.224ZM215.804 299.88C215.588 300.192 215.468 300.48 215.468 300.72C215.468 301.416 215.852 301.752 216.644 301.752H223.364V305.088C223.364 305.784 223.676 306.12 224.276 306.12C224.876 306.12 225.188 305.784 225.188 305.088V301.752H226.772C227.42 301.752 227.756 301.464 227.756 300.888C227.756 300.312 227.42 300.024 226.772 300.024H225.188V290.28C225.188 289.488 224.828 289.08 224.132 289.08C223.748 289.08 223.436 289.248 223.22 289.56L215.804 299.88ZM230.222 304.872C230.222 305.472 230.702 306 231.302 306H240.23C241.55 306 241.55 304.272 240.23 304.272H232.166C232.262 302.64 233.822 300.792 235.934 299.448L237.014 298.752C239.726 297 241.046 295.56 241.046 293.424C241.046 292.008 240.542 290.904 239.51 290.112C238.502 289.32 237.278 288.912 235.862 288.912C233.558 288.912 231.686 290.232 230.702 291.984C230.414 292.488 230.51 293.04 230.894 293.304C231.254 293.592 231.878 293.472 232.166 292.968C233.03 291.408 234.254 290.616 235.862 290.616C237.878 290.616 239.198 291.696 239.198 293.4C239.198 294.264 238.958 294.96 238.214 295.632C237.854 295.968 237.566 296.232 237.326 296.4L236.15 297.192L235.574 297.576C231.902 300.048 230.222 302.304 230.222 304.872ZM251.676 292.224V300.024H246.012L251.676 292.224ZM244.116 299.88C243.9 300.192 243.78 300.48 243.78 300.72C243.78 301.416 244.164 301.752 244.956 301.752H251.676V305.088C251.676 305.784 251.988 306.12 252.588 306.12C253.188 306.12 253.5 305.784 253.5 305.088V301.752H255.084C255.732 301.752 256.068 301.464 256.068 300.888C256.068 300.312 255.732 300.024 255.084 300.024H253.5V290.28C253.5 289.488 253.14 289.08 252.444 289.08C252.06 289.08 251.748 289.248 251.532 289.56L244.116 299.88ZM267.679 302.664C266.959 303.936 265.927 304.56 264.583 304.56C263.239 304.56 262.207 303.912 261.463 302.64C260.719 301.368 260.359 299.664 260.359 297.576C260.359 295.488 260.719 293.808 261.463 292.536C262.207 291.264 263.239 290.616 264.583 290.616C265.927 290.616 266.959 291.24 267.679 292.512C268.423 293.784 268.783 295.464 268.783 297.576C268.783 299.688 268.423 301.392 267.679 302.664ZM258.895 300.792C259.375 302.808 260.287 304.56 261.847 305.544C262.639 306.024 263.551 306.264 264.583 306.264C265.615 306.264 266.503 306.024 267.295 305.544C268.903 304.56 269.791 302.808 270.271 300.792C270.751 298.776 270.751 296.376 270.271 294.36C269.791 292.344 268.903 290.616 267.295 289.656C266.503 289.152 265.615 288.912 264.583 288.912C263.551 288.912 262.639 289.152 261.847 289.656C260.287 290.616 259.375 292.344 258.895 294.36C258.415 296.376 258.415 298.776 258.895 300.792ZM279.989 290.16C279.989 289.416 279.581 289.08 279.029 289.08C278.789 289.08 278.429 289.224 277.925 289.512L274.541 291.456C274.085 291.72 273.869 292.032 273.869 292.392C273.869 293.088 274.661 293.424 275.237 293.064L278.165 291.432V304.272H274.613C273.317 304.272 273.317 306 274.613 306H283.301C284.597 306 284.597 304.272 283.301 304.272H279.989V290.16ZM295.64 302.664C294.92 303.936 293.888 304.56 292.544 304.56C291.2 304.56 290.168 303.912 289.424 302.64C288.68 301.368 288.32 299.664 288.32 297.576C288.32 295.488 288.68 293.808 289.424 292.536C290.168 291.264 291.2 290.616 292.544 290.616C293.888 290.616 294.92 291.24 295.64 292.512C296.384 293.784 296.744 295.464 296.744 297.576C296.744 299.688 296.384 301.392 295.64 302.664ZM286.856 300.792C287.336 302.808 288.248 304.56 289.808 305.544C290.6 306.024 291.512 306.264 292.544 306.264C293.576 306.264 294.464 306.024 295.256 305.544C296.864 304.56 297.752 302.808 298.232 300.792C298.712 298.776 298.712 296.376 298.232 294.36C297.752 292.344 296.864 290.616 295.256 289.656C294.464 289.152 293.576 288.912 292.544 288.912C291.512 288.912 290.6 289.152 289.808 289.656C288.248 290.616 287.336 292.344 286.856 294.36C286.376 296.376 286.376 298.776 286.856 300.792ZM307.95 290.16C307.95 289.416 307.542 289.08 306.99 289.08C306.75 289.08 306.39 289.224 305.886 289.512L302.502 291.456C302.046 291.72 301.83 292.032 301.83 292.392C301.83 293.088 302.622 293.424 303.198 293.064L306.126 291.432V304.272H302.574C301.278 304.272 301.278 306 302.574 306H311.262C312.558 306 312.558 304.272 311.262 304.272H307.95V290.16ZM314.313 301.56C314.313 302.976 314.841 304.104 315.873 304.968C316.929 305.832 318.225 306.264 319.737 306.264C321.249 306.264 322.545 305.832 323.577 304.968C324.633 304.104 325.161 302.976 325.161 301.56C325.161 300.576 324.825 299.688 324.177 298.944C323.529 298.2 322.881 297.72 322.233 297.552C322.833 297.288 323.385 296.856 323.937 296.232C324.489 295.608 324.753 294.84 324.753 293.904C324.753 292.512 324.249 291.408 323.241 290.568C322.257 289.728 321.081 289.32 319.737 289.32C318.393 289.32 317.217 289.728 316.209 290.568C315.225 291.408 314.721 292.512 314.721 293.904C314.721 294.84 314.985 295.608 315.537 296.232C316.089 296.856 316.641 297.288 317.241 297.552C316.593 297.72 315.921 298.2 315.273 298.944C314.625 299.688 314.313 300.576 314.313 301.56ZM319.737 298.488C321.777 298.488 323.313 299.64 323.313 301.536C323.313 303.384 321.753 304.56 319.737 304.56C317.721 304.56 316.161 303.384 316.161 301.536C316.161 299.64 317.649 298.488 319.737 298.488ZM316.569 293.928C316.569 292.992 316.905 292.272 317.553 291.768C318.201 291.264 318.945 291.024 319.737 291.024C320.529 291.024 321.273 291.264 321.921 291.768C322.569 292.272 322.905 292.992 322.905 293.928C322.905 295.68 321.561 296.76 319.737 296.76C317.889 296.76 316.569 295.68 316.569 293.928Z" fill="#F9D332"/>
<path d="M106.815 79.2C105.735 79.2 105.063 79.896 105.063 80.856C105.063 81.792 105.735 82.488 106.815 82.488H110.103V94.224C110.103 95.4 110.847 96.12 111.879 96.12C112.911 96.12 113.679 95.4 113.679 94.224V82.488H116.991C118.071 82.488 118.743 81.792 118.743 80.856C118.743 79.896 118.071 79.2 116.991 79.2H106.815ZM126.983 84.168C126.743 84.096 126.431 84.072 126.023 84.072C124.991 84.072 123.839 84.6 123.167 85.536C123.047 84.696 122.399 84.12 121.511 84.12C120.551 84.12 119.807 84.816 119.807 85.944V94.296C119.663 96.696 123.359 96.696 123.215 94.296V91.08C123.215 88.704 124.463 87.384 126.095 87.384C126.311 87.384 126.671 87.432 126.839 87.432C127.679 87.432 128.327 86.784 128.327 85.848C128.327 84.96 127.751 84.36 126.983 84.168ZM130.579 85.176C129.787 85.824 129.619 86.784 130.171 87.432C130.675 88.104 131.539 88.176 132.427 87.576C133.027 87.168 133.675 86.976 134.395 86.976C135.595 86.976 136.195 87.576 136.195 88.776L134.035 88.872C132.715 88.92 131.587 89.256 130.699 89.88C129.811 90.504 129.379 91.416 129.379 92.64C129.379 93.696 129.739 94.56 130.483 95.256C131.227 95.928 132.163 96.264 133.339 96.264C134.515 96.264 135.523 95.856 136.339 95.04C136.603 95.76 137.131 96.12 137.923 96.12C138.883 96.12 139.627 95.424 139.627 94.296V88.656C139.627 87.192 139.171 86.064 138.235 85.224C137.299 84.384 136.099 83.952 134.635 83.952C132.979 83.952 131.611 84.36 130.579 85.176ZM132.811 92.448C132.811 91.8 133.435 91.464 134.683 91.392L136.195 91.272V92.664C135.547 93.144 134.875 93.384 134.179 93.384C133.315 93.384 132.811 93.024 132.811 92.448ZM143.244 94.296C143.1 96.696 146.796 96.696 146.652 94.296V90.12C146.652 88.128 147.372 87.12 148.812 87.12C150.132 87.12 150.756 88.08 150.756 89.424V94.296C150.756 95.424 151.476 96.12 152.46 96.12C153.444 96.12 154.164 95.424 154.164 94.296V89.16C154.164 85.872 152.292 83.952 149.388 83.952C148.164 83.952 147.228 84.36 146.532 85.176C146.268 84.48 145.74 84.12 144.948 84.12C143.988 84.12 143.244 84.816 143.244 85.944V94.296ZM157.688 94.968C158.72 95.832 160.136 96.264 161.936 96.264C164.936 96.264 166.856 94.704 166.856 92.472C166.856 90.288 165.392 89.256 162.992 88.584L161.48 88.176C160.904 88.008 160.64 87.864 160.64 87.504C160.64 87.12 161.072 86.856 161.744 86.856C162.44 86.856 163.112 87.048 163.736 87.456C164.672 88.008 165.488 87.792 165.992 87.024C166.448 86.28 166.232 85.416 165.368 84.84C164.408 84.24 163.256 83.952 161.888 83.952C160.616 83.952 159.536 84.288 158.648 84.984C157.76 85.656 157.328 86.544 157.328 87.672C157.328 89.568 158.552 90.768 161.168 91.512L162.488 91.896C163.28 92.112 163.544 92.304 163.544 92.688C163.544 93.144 162.968 93.408 162.224 93.408C161.168 93.408 160.304 93.144 159.656 92.64C158.792 91.944 158.048 91.968 157.4 92.688C156.8 93.36 156.896 94.272 157.688 94.968ZM174.61 82.392C175.69 82.272 176.266 81.624 176.266 80.736C176.266 79.848 175.618 79.176 174.442 79.176C171.85 79.176 169.906 80.688 169.906 83.736V84.24H169.474C168.418 84.24 167.77 84.912 167.77 85.8C167.77 86.688 168.418 87.384 169.474 87.384H169.906V94.296C169.762 96.672 173.458 96.72 173.29 94.296V87.384H174.442C175.498 87.384 176.146 86.688 176.146 85.8C176.146 84.912 175.498 84.24 174.442 84.24H173.29V83.904C173.29 82.968 173.722 82.464 174.61 82.392ZM188.964 89.112C188.964 87.504 188.268 85.92 186.468 84.792C185.58 84.24 184.548 83.952 183.372 83.952C181.668 83.952 180.276 84.552 179.196 85.728C178.116 86.904 177.588 88.392 177.588 90.192C177.588 92.016 178.164 93.48 179.34 94.608C180.516 95.712 181.98 96.264 183.78 96.264C185.34 96.264 186.66 95.88 187.692 95.088C188.58 94.392 188.748 93.432 188.196 92.76C187.596 91.968 186.732 91.752 185.796 92.424C185.196 92.904 184.5 93.144 183.684 93.144C182.22 93.144 181.236 92.256 181.044 90.984H187.068C188.34 90.984 188.964 90.36 188.964 89.112ZM183.444 86.952C184.572 86.952 185.364 87.72 185.436 88.704H181.212C181.428 87.672 182.22 86.952 183.444 86.952ZM199.053 84.168C198.813 84.096 198.501 84.072 198.093 84.072C197.061 84.072 195.909 84.6 195.237 85.536C195.117 84.696 194.469 84.12 193.581 84.12C192.621 84.12 191.877 84.816 191.877 85.944V94.296C191.733 96.696 195.429 96.696 195.285 94.296V91.08C195.285 88.704 196.533 87.384 198.165 87.384C198.381 87.384 198.741 87.432 198.909 87.432C199.749 87.432 200.397 86.784 200.397 85.848C200.397 84.96 199.821 84.36 199.053 84.168ZM212.753 89.112C212.753 87.504 212.057 85.92 210.257 84.792C209.369 84.24 208.337 83.952 207.161 83.952C205.457 83.952 204.065 84.552 202.985 85.728C201.905 86.904 201.377 88.392 201.377 90.192C201.377 92.016 201.953 93.48 203.129 94.608C204.305 95.712 205.769 96.264 207.569 96.264C209.129 96.264 210.449 95.88 211.481 95.088C212.369 94.392 212.537 93.432 211.985 92.76C211.385 91.968 210.521 91.752 209.585 92.424C208.985 92.904 208.289 93.144 207.473 93.144C206.009 93.144 205.025 92.256 204.833 90.984H210.857C212.129 90.984 212.753 90.36 212.753 89.112ZM207.233 86.952C208.361 86.952 209.153 87.72 209.225 88.704H205.001C205.217 87.672 206.009 86.952 207.233 86.952ZM215.666 94.296C215.522 96.696 219.218 96.696 219.074 94.296V90.12C219.074 88.128 219.794 87.12 221.234 87.12C222.554 87.12 223.178 88.08 223.178 89.424V94.296C223.178 95.424 223.898 96.12 224.882 96.12C225.866 96.12 226.586 95.424 226.586 94.296V89.16C226.586 85.872 224.714 83.952 221.81 83.952C220.586 83.952 219.65 84.36 218.954 85.176C218.69 84.48 218.162 84.12 217.37 84.12C216.41 84.12 215.666 84.816 215.666 85.944V94.296ZM237.19 87.744C238.126 88.392 238.99 88.2 239.542 87.432C240.046 86.76 239.806 85.752 238.918 85.056C237.91 84.312 236.71 83.952 235.342 83.952C233.59 83.952 232.102 84.552 230.902 85.728C229.726 86.904 229.126 88.368 229.126 90.12C229.126 91.872 229.726 93.336 230.902 94.512C232.078 95.688 233.566 96.264 235.342 96.264C236.878 96.264 238.198 95.856 239.302 95.016C240.19 94.32 240.358 93.36 239.806 92.688C239.206 91.896 238.342 91.68 237.406 92.352C236.758 92.856 236.11 93.12 235.462 93.12C233.758 93.12 232.606 91.872 232.606 90.12C232.606 88.368 233.758 87.12 235.462 87.12C236.062 87.12 236.638 87.336 237.19 87.744ZM243.038 80.904C243.038 81.984 243.926 82.872 245.006 82.872C246.086 82.872 246.998 81.984 246.998 80.904C246.998 79.776 246.134 78.912 245.006 78.912C243.926 78.912 243.038 79.776 243.038 80.904ZM246.71 94.296V85.944C246.71 84.816 245.99 84.12 245.006 84.12C244.022 84.12 243.302 84.816 243.302 85.944V94.296C243.302 95.424 244.022 96.12 245.006 96.12C245.99 96.12 246.71 95.424 246.71 94.296ZM250.954 85.176C250.162 85.824 249.994 86.784 250.546 87.432C251.05 88.104 251.914 88.176 252.802 87.576C253.402 87.168 254.05 86.976 254.77 86.976C255.97 86.976 256.57 87.576 256.57 88.776L254.41 88.872C253.09 88.92 251.962 89.256 251.074 89.88C250.186 90.504 249.754 91.416 249.754 92.64C249.754 93.696 250.114 94.56 250.858 95.256C251.602 95.928 252.538 96.264 253.714 96.264C254.89 96.264 255.898 95.856 256.714 95.04C256.978 95.76 257.506 96.12 258.298 96.12C259.258 96.12 260.002 95.424 260.002 94.296V88.656C260.002 87.192 259.546 86.064 258.61 85.224C257.674 84.384 256.474 83.952 255.01 83.952C253.354 83.952 251.986 84.36 250.954 85.176ZM253.186 92.448C253.186 91.8 253.81 91.464 255.058 91.392L256.57 91.272V92.664C255.922 93.144 255.25 93.384 254.554 93.384C253.69 93.384 253.186 93.024 253.186 92.448Z" fill="#F9D332"/>
</svg>
