<svg xmlns="http://www.w3.org/2000/svg" xmlns:xlink="http://www.w3.org/1999/xlink" version="1.1" width="1000" height="1000" viewBox="0 0 1000 1000" xml:space="preserve">
<desc>Created with Fabric.js 3.5.0</desc>
<defs>
</defs>
<rect x="0" y="0" width="100%" height="100%" fill="#ffffff"/>
<g transform="matrix(3.0506 0 0 3.0506 499.995 499.9939)" id="339354">
<g style="" vector-effect="non-scaling-stroke">
		<g transform="matrix(1 0 0 1 -0.1035 -0.156)">
<rect style="stroke: none; stroke-width: 1; stroke-dasharray: none; stroke-linecap: butt; stroke-dashoffset: 0; stroke-linejoin: miter; stroke-miterlimit: 4; is-custom-font: none; font-file-url: none; fill: rgb(249,211,50); fill-rule: nonzero; opacity: 1;" x="-122.3965" y="-148.844" rx="0" ry="0" width="244.793" height="297.688"/>
</g>
		<g transform="matrix(1 0 0 1 0.582 89.1298)">
<path style="stroke: none; stroke-width: 1; stroke-dasharray: none; stroke-linecap: butt; stroke-dashoffset: 0; stroke-linejoin: miter; stroke-miterlimit: 4; is-custom-font: none; font-file-url: none; fill: rgb(147,3,69); fill-rule: nonzero; opacity: 1;" transform=" translate(-123.0821, -238.1298)" d="M 79.9829 221.55 C 79.8569 221.172 79.6189 221.046 79.2689 221.172 C 78.9329 221.298 78.8349 221.536 78.9749 221.914 L 82.1109 230.468 C 82.2649 230.874 82.5309 231.07 82.9089 231.07 C 83.2869 231.07 83.5669 230.874 83.7209 230.482 L 86.8569 221.914 C 86.9829 221.536 86.8849 221.284 86.5629 221.172 C 86.2129 221.046 85.9749 221.172 85.8489 221.55 L 82.9089 229.698 L 79.9829 221.55 Z M 90.5169 231.154 C 91.5109 231.154 92.3369 230.804 92.9949 230.118 C 93.6529 229.418 93.9889 228.564 93.9889 227.57 C 93.9889 226.576 93.6529 225.722 92.9809 225.022 C 92.3229 224.322 91.4969 223.972 90.5169 223.972 C 89.5369 223.972 88.7109 224.322 88.0529 225.022 C 87.3949 225.722 87.0729 226.576 87.0729 227.57 C 87.0729 228.564 87.3949 229.418 88.0529 230.118 C 88.7109 230.804 89.5369 231.154 90.5169 231.154 Z M 90.5169 230.188 C 89.8309 230.188 89.2569 229.936 88.8089 229.446 C 88.3609 228.942 88.1369 228.312 88.1369 227.57 C 88.1369 226.828 88.3609 226.198 88.8089 225.708 C 89.2569 225.204 89.8309 224.952 90.5169 224.952 C 91.2169 224.952 91.7909 225.204 92.2389 225.708 C 92.6869 226.198 92.9109 226.828 92.9109 227.57 C 92.9109 228.312 92.6869 228.942 92.2389 229.446 C 91.7909 229.936 91.2169 230.188 90.5169 230.188 Z M 97.0852 221.704 C 97.0852 221.326 96.9172 221.13 96.5672 221.13 C 96.2732 221.13 96.0492 221.326 96.0492 221.704 V 230.482 C 96.0492 230.874 96.2172 231.07 96.5672 231.07 C 96.9172 231.07 97.0852 230.874 97.0852 230.482 V 221.704 Z M 104.997 224.658 C 104.997 224.266 104.829 224.07 104.479 224.07 C 104.129 224.07 103.961 224.266 103.961 224.658 V 227.528 C 103.961 229.292 103.317 230.174 102.015 230.174 C 100.909 230.174 100.293 229.488 100.293 228.2 V 224.658 C 100.293 224.266 100.125 224.07 99.7752 224.07 C 99.4252 224.07 99.2572 224.266 99.2572 224.658 V 228.116 C 99.2572 230.076 100.139 231.154 101.875 231.154 C 102.757 231.154 103.471 230.818 104.003 230.146 V 230.496 C 104.003 230.874 104.171 231.07 104.493 231.07 C 104.787 231.07 104.997 230.874 104.997 230.496 V 224.658 Z M 107.534 230.482 C 107.534 230.874 107.702 231.07 108.052 231.07 C 108.402 231.07 108.57 230.874 108.57 230.482 V 227.598 C 108.57 225.96 109.298 224.938 110.642 224.938 C 111.748 224.938 112.392 225.652 112.392 226.926 V 230.482 C 112.392 230.874 112.56 231.07 112.91 231.07 C 113.204 231.07 113.442 230.874 113.442 230.482 V 227.01 C 113.442 225.064 112.462 223.972 110.712 223.972 C 109.858 223.972 109.004 224.378 108.542 224.98 V 224.644 C 108.542 224.266 108.374 224.07 108.038 224.07 C 107.758 224.07 107.534 224.266 107.534 224.644 V 230.482 Z M 118.094 230.062 C 117.128 230.062 116.89 229.796 116.89 228.788 V 225.092 H 118.08 C 118.444 225.092 118.626 224.938 118.626 224.616 C 118.626 224.294 118.444 224.14 118.08 224.14 H 116.89 V 222.74 C 116.89 222.348 116.722 222.152 116.372 222.152 C 116.022 222.152 115.854 222.348 115.854 222.74 V 224.14 H 115.14 C 114.776 224.14 114.594 224.294 114.594 224.616 C 114.594 224.938 114.776 225.092 115.14 225.092 H 115.854 V 228.858 C 115.854 230.524 116.498 231.014 118.01 231.014 C 118.416 231.014 118.626 230.86 118.626 230.538 C 118.626 230.216 118.444 230.062 118.094 230.062 Z M 121.346 225.666 C 121.878 225.176 122.424 224.938 122.998 224.938 C 123.992 224.938 124.594 225.498 124.594 226.548 V 226.758 L 122.718 226.982 C 121.206 227.15 120.184 227.92 120.184 229.138 C 120.184 230.384 121.136 231.154 122.424 231.154 C 123.334 231.154 124.16 230.748 124.622 230.23 V 230.496 C 124.622 231.252 125.63 231.252 125.63 230.496 V 226.66 C 125.63 224.924 124.65 223.972 123.012 223.972 C 122.13 223.972 121.206 224.42 120.646 225.022 C 120.408 225.302 120.422 225.568 120.632 225.75 C 120.842 225.932 121.08 225.904 121.346 225.666 Z M 121.22 229.166 C 121.22 228.48 121.738 228.074 122.774 227.948 L 124.594 227.724 V 229.138 C 124.188 229.754 123.334 230.23 122.48 230.23 C 121.71 230.23 121.22 229.796 121.22 229.166 Z M 131.33 225.036 C 131.428 225.036 131.554 225.05 131.722 225.078 C 132.1 225.134 132.31 224.91 132.31 224.616 C 132.31 224.336 132.156 224.168 131.834 224.098 L 131.33 224.042 C 130.364 224.042 129.622 224.364 129.09 225.008 V 224.644 C 129.09 224.266 128.922 224.07 128.586 224.07 C 128.306 224.07 128.082 224.266 128.082 224.644 V 230.482 C 128.082 230.874 128.25 231.07 128.6 231.07 C 128.95 231.07 129.118 230.874 129.118 230.482 V 228.074 C 129.118 225.876 129.776 225.036 131.33 225.036 Z M 133.908 222.432 C 134.23 222.726 134.72 222.726 135.014 222.432 C 135.336 222.11 135.336 221.62 135.014 221.326 C 134.72 221.032 134.23 221.032 133.908 221.326 C 133.614 221.62 133.614 222.11 133.908 222.432 Z M 134.986 224.644 C 134.986 224.266 134.818 224.07 134.468 224.07 C 134.174 224.07 133.95 224.266 133.95 224.644 V 230.482 C 133.95 230.874 134.118 231.07 134.468 231.07 C 134.818 231.07 134.986 230.874 134.986 230.482 V 224.644 Z M 138.217 225.666 C 138.749 225.176 139.295 224.938 139.869 224.938 C 140.863 224.938 141.465 225.498 141.465 226.548 V 226.758 L 139.589 226.982 C 138.077 227.15 137.055 227.92 137.055 229.138 C 137.055 230.384 138.007 231.154 139.295 231.154 C 140.205 231.154 141.031 230.748 141.493 230.23 V 230.496 C 141.493 231.252 142.501 231.252 142.501 230.496 V 226.66 C 142.501 224.924 141.521 223.972 139.883 223.972 C 139.001 223.972 138.077 224.42 137.517 225.022 C 137.279 225.302 137.293 225.568 137.503 225.75 C 137.713 225.932 137.951 225.904 138.217 225.666 Z M 138.091 229.166 C 138.091 228.48 138.609 228.074 139.645 227.948 L 141.465 227.724 V 229.138 C 141.059 229.754 140.205 230.23 139.351 230.23 C 138.581 230.23 138.091 229.796 138.091 229.166 Z M 146.147 225.694 C 146.553 225.204 147.085 224.952 147.771 224.952 C 148.457 224.952 148.989 225.204 149.395 225.694 C 149.801 226.184 150.011 226.814 150.011 227.57 C 150.011 228.326 149.801 228.956 149.395 229.446 C 148.989 229.936 148.457 230.188 147.771 230.188 C 147.085 230.188 146.553 229.936 146.147 229.446 C 145.741 228.956 145.545 228.326 145.545 227.57 C 145.545 226.814 145.741 226.184 146.147 225.694 Z M 151.019 221.718 C 151.019 221.326 150.851 221.13 150.501 221.13 C 150.151 221.13 149.983 221.326 149.983 221.718 V 225.05 C 149.367 224.336 148.597 223.972 147.673 223.972 C 146.735 223.972 145.979 224.322 145.377 225.022 C 144.775 225.708 144.481 226.562 144.481 227.57 C 144.481 228.578 144.775 229.432 145.377 230.118 C 145.979 230.804 146.735 231.154 147.673 231.154 C 148.611 231.154 149.381 230.79 150.011 230.062 V 230.496 C 150.011 231.252 151.019 231.252 151.019 230.496 V 221.718 Z M 156.525 231.154 C 157.519 231.154 158.345 230.804 159.003 230.118 C 159.661 229.418 159.997 228.564 159.997 227.57 C 159.997 226.576 159.661 225.722 158.989 225.022 C 158.331 224.322 157.505 223.972 156.525 223.972 C 155.545 223.972 154.719 224.322 154.061 225.022 C 153.403 225.722 153.081 226.576 153.081 227.57 C 153.081 228.564 153.403 229.418 154.061 230.118 C 154.719 230.804 155.545 231.154 156.525 231.154 Z M 156.525 230.188 C 155.839 230.188 155.265 229.936 154.817 229.446 C 154.369 228.942 154.145 228.312 154.145 227.57 C 154.145 226.828 154.369 226.198 154.817 225.708 C 155.265 225.204 155.839 224.952 156.525 224.952 C 157.225 224.952 157.799 225.204 158.247 225.708 C 158.695 226.198 158.919 226.828 158.919 227.57 C 158.919 228.312 158.695 228.942 158.247 229.446 C 157.799 229.936 157.225 230.188 156.525 230.188 Z M 165.907 225.47 C 166.229 225.736 166.481 225.75 166.691 225.526 C 166.929 225.274 166.901 225.022 166.621 224.756 C 166.061 224.238 165.361 223.972 164.535 223.972 C 163.891 223.972 163.331 224.154 162.869 224.504 C 162.407 224.854 162.169 225.33 162.169 225.946 C 162.169 226.954 162.813 227.612 164.115 227.92 L 165.137 228.158 C 165.851 228.326 166.215 228.662 166.215 229.152 C 166.215 229.81 165.641 230.202 164.675 230.202 C 163.989 230.202 163.401 229.964 162.897 229.474 C 162.659 229.236 162.407 229.222 162.169 229.46 C 161.945 229.684 161.959 229.922 162.197 230.188 C 162.827 230.832 163.653 231.154 164.689 231.154 C 166.243 231.154 167.251 230.314 167.251 229.096 C 167.251 228.116 166.607 227.472 165.305 227.164 L 164.227 226.912 C 163.541 226.758 163.205 226.422 163.205 225.904 C 163.205 225.33 163.723 224.938 164.465 224.938 C 165.011 224.938 165.487 225.12 165.907 225.47 Z M 94.0199 249.036 C 94.1179 249.036 94.2439 249.05 94.4119 249.078 C 94.7899 249.134 94.9999 248.91 94.9999 248.616 C 94.9999 248.336 94.8459 248.168 94.5239 248.098 L 94.0199 248.042 C 93.0539 248.042 92.3119 248.364 91.7799 249.008 V 248.644 C 91.7799 248.266 91.6119 248.07 91.2759 248.07 C 90.9959 248.07 90.7719 248.266 90.7719 248.644 V 254.482 C 90.7719 254.874 90.9399 255.07 91.2899 255.07 C 91.6399 255.07 91.8079 254.874 91.8079 254.482 V 252.074 C 91.8079 249.876 92.4659 249.036 94.0199 249.036 Z M 99.331 248.952 C 100.465 248.952 101.193 249.75 101.207 250.968 H 97.175 C 97.343 249.792 98.155 248.952 99.331 248.952 Z M 102.257 251.248 C 102.257 249.708 101.431 247.972 99.303 247.972 C 98.365 247.972 97.595 248.322 96.979 249.036 C 96.377 249.75 96.069 250.604 96.069 251.612 C 96.069 252.662 96.377 253.516 96.979 254.174 C 97.595 254.832 98.421 255.154 99.443 255.154 C 100.353 255.154 101.137 254.832 101.795 254.202 C 102.047 253.95 102.075 253.698 101.865 253.46 C 101.627 253.222 101.375 253.222 101.109 253.488 C 100.647 253.95 100.087 254.188 99.443 254.188 C 98.099 254.188 97.231 253.334 97.133 251.892 H 101.543 C 102.019 251.892 102.257 251.682 102.257 251.248 Z M 105.063 249.666 C 105.595 249.176 106.141 248.938 106.715 248.938 C 107.709 248.938 108.311 249.498 108.311 250.548 V 250.758 L 106.435 250.982 C 104.923 251.15 103.901 251.92 103.901 253.138 C 103.901 254.384 104.853 255.154 106.141 255.154 C 107.051 255.154 107.877 254.748 108.339 254.23 V 254.496 C 108.339 255.252 109.347 255.252 109.347 254.496 V 250.66 C 109.347 248.924 108.367 247.972 106.729 247.972 C 105.847 247.972 104.923 248.42 104.363 249.022 C 104.125 249.302 104.139 249.568 104.349 249.75 C 104.559 249.932 104.797 249.904 105.063 249.666 Z M 104.937 253.166 C 104.937 252.48 105.455 252.074 106.491 251.948 L 108.311 251.724 V 253.138 C 107.905 253.754 107.051 254.23 106.197 254.23 C 105.427 254.23 104.937 253.796 104.937 253.166 Z M 112.835 245.704 C 112.835 245.326 112.667 245.13 112.317 245.13 C 112.023 245.13 111.799 245.326 111.799 245.704 V 254.482 C 111.799 254.874 111.967 255.07 112.317 255.07 C 112.667 255.07 112.835 254.874 112.835 254.482 V 245.704 Z M 115.424 246.432 C 115.746 246.726 116.236 246.726 116.53 246.432 C 116.852 246.11 116.852 245.62 116.53 245.326 C 116.236 245.032 115.746 245.032 115.424 245.326 C 115.13 245.62 115.13 246.11 115.424 246.432 Z M 116.502 248.644 C 116.502 248.266 116.334 248.07 115.984 248.07 C 115.69 248.07 115.466 248.266 115.466 248.644 V 254.482 C 115.466 254.874 115.634 255.07 115.984 255.07 C 116.334 255.07 116.502 254.874 116.502 254.482 V 248.644 Z M 118.823 254.02 C 118.725 254.132 118.683 254.258 118.683 254.412 C 118.683 254.748 118.935 255 119.271 255 H 123.639 C 124.003 255 124.185 254.846 124.185 254.524 C 124.185 254.202 124.003 254.048 123.639 254.048 H 120.055 L 123.821 249.12 C 123.919 249.008 123.961 248.882 123.961 248.728 C 123.961 248.392 123.709 248.14 123.373 248.14 H 119.313 C 118.949 248.14 118.767 248.294 118.767 248.616 C 118.767 248.938 118.949 249.092 119.313 249.092 H 122.547 L 118.823 254.02 Z M 126.924 249.666 C 127.456 249.176 128.002 248.938 128.576 248.938 C 129.57 248.938 130.172 249.498 130.172 250.548 V 250.758 L 128.296 250.982 C 126.784 251.15 125.762 251.92 125.762 253.138 C 125.762 254.384 126.714 255.154 128.002 255.154 C 128.912 255.154 129.738 254.748 130.2 254.23 V 254.496 C 130.2 255.252 131.208 255.252 131.208 254.496 V 250.66 C 131.208 248.924 130.228 247.972 128.59 247.972 C 127.708 247.972 126.784 248.42 126.224 249.022 C 125.986 249.302 126 249.568 126.21 249.75 C 126.42 249.932 126.658 249.904 126.924 249.666 Z M 126.798 253.166 C 126.798 252.48 127.316 252.074 128.352 251.948 L 130.172 251.724 V 253.138 C 129.766 253.754 128.912 254.23 128.058 254.23 C 127.288 254.23 126.798 253.796 126.798 253.166 Z M 134.854 249.694 C 135.26 249.204 135.792 248.952 136.478 248.952 C 137.164 248.952 137.696 249.204 138.102 249.694 C 138.508 250.184 138.718 250.814 138.718 251.57 C 138.718 252.326 138.508 252.956 138.102 253.446 C 137.696 253.936 137.164 254.188 136.478 254.188 C 135.792 254.188 135.26 253.936 134.854 253.446 C 134.448 252.956 134.252 252.326 134.252 251.57 C 134.252 250.814 134.448 250.184 134.854 249.694 Z M 139.726 245.718 C 139.726 245.326 139.558 245.13 139.208 245.13 C 138.858 245.13 138.69 245.326 138.69 245.718 V 249.05 C 138.074 248.336 137.304 247.972 136.38 247.972 C 135.442 247.972 134.686 248.322 134.084 249.022 C 133.482 249.708 133.188 250.562 133.188 251.57 C 133.188 252.578 133.482 253.432 134.084 254.118 C 134.686 254.804 135.442 255.154 136.38 255.154 C 137.318 255.154 138.088 254.79 138.718 254.062 V 254.496 C 138.718 255.252 139.726 255.252 139.726 254.496 V 245.718 Z M 145.232 255.154 C 146.226 255.154 147.052 254.804 147.71 254.118 C 148.368 253.418 148.704 252.564 148.704 251.57 C 148.704 250.576 148.368 249.722 147.696 249.022 C 147.038 248.322 146.212 247.972 145.232 247.972 C 144.252 247.972 143.426 248.322 142.768 249.022 C 142.11 249.722 141.788 250.576 141.788 251.57 C 141.788 252.564 142.11 253.418 142.768 254.118 C 143.426 254.804 144.252 255.154 145.232 255.154 Z M 145.232 254.188 C 144.546 254.188 143.972 253.936 143.524 253.446 C 143.076 252.942 142.852 252.312 142.852 251.57 C 142.852 250.828 143.076 250.198 143.524 249.708 C 143.972 249.204 144.546 248.952 145.232 248.952 C 145.932 248.952 146.506 249.204 146.954 249.708 C 147.402 250.198 147.626 250.828 147.626 251.57 C 147.626 252.312 147.402 252.942 146.954 253.446 C 146.506 253.936 145.932 254.188 145.232 254.188 Z M 154.614 249.47 C 154.936 249.736 155.188 249.75 155.398 249.526 C 155.636 249.274 155.608 249.022 155.328 248.756 C 154.768 248.238 154.068 247.972 153.242 247.972 C 152.598 247.972 152.038 248.154 151.576 248.504 C 151.114 248.854 150.876 249.33 150.876 249.946 C 150.876 250.954 151.52 251.612 152.822 251.92 L 153.844 252.158 C 154.558 252.326 154.922 252.662 154.922 253.152 C 154.922 253.81 154.348 254.202 153.382 254.202 C 152.696 254.202 152.108 253.964 151.604 253.474 C 151.366 253.236 151.114 253.222 150.876 253.46 C 150.652 253.684 150.666 253.922 150.904 254.188 C 151.534 254.832 152.36 255.154 153.396 255.154 C 154.95 255.154 155.958 254.314 155.958 253.096 C 155.958 252.116 155.314 251.472 154.012 251.164 L 152.934 250.912 C 152.248 250.758 151.912 250.422 151.912 249.904 C 151.912 249.33 152.43 248.938 153.172 248.938 C 153.718 248.938 154.194 249.12 154.614 249.47 Z" stroke-linecap="round"/>
</g>
		<g transform="matrix(1 0 0 1 2 -57.5)">
<circle style="stroke: rgb(249,211,50); stroke-width: 9; stroke-dasharray: none; stroke-linecap: butt; stroke-dashoffset: 0; stroke-linejoin: miter; stroke-miterlimit: 4; is-custom-font: none; font-file-url: none; fill: rgb(255,255,255); fill-rule: nonzero; opacity: 1;" cx="0" cy="0" r="53"/>
</g>
</g>
</g>
<g transform="matrix(1 0 0 1 516.6667 326.7261)" style="" id="256789">
		
<path xml:space="preserve" font-family="Lato" font-size="71" font-style="normal" font-weight="bold" style="stroke: none; stroke-width: 1; stroke-dasharray: none; stroke-linecap: butt; stroke-dashoffset: 0; stroke-linejoin: miter; stroke-miterlimit: 4; is-custom-font: none; font-file-url: none; fill: rgb(0,0,0); fill-rule: nonzero; opacity: 1; white-space: pre;" d="M-26.66-29.03L-26.66-25.30Q-26.66-23.42-27.85-22.25Q-29.04-21.08-31.81-21.08L-31.81-21.08L-45.94-21.08L-47.78-10.36Q-44.30-11.07-41.43-11.07L-41.43-11.07Q-37.38-11.07-34.31-9.86Q-31.24-8.65-29.15-6.52Q-27.05-4.39-25.99-1.53Q-24.92 1.32-24.92 4.62L-24.92 4.62Q-24.92 8.71-26.36 12.08Q-27.80 15.45-30.35 17.85Q-32.91 20.24-36.41 21.56Q-39.90 22.87-44.02 22.87L-44.02 22.87Q-46.43 22.87-48.60 22.37Q-50.77 21.88-52.66 21.04Q-54.56 20.21-56.18 19.13Q-57.79 18.04-59.07 16.84L-59.07 16.84L-56.37 13.11Q-55.52 11.90-54.10 11.90L-54.10 11.90Q-53.21 11.90-52.31 12.47Q-51.40 13.04-50.20 13.71Q-48.99 14.39-47.39 14.96Q-45.80 15.52-43.52 15.52L-43.52 15.52Q-41.11 15.52-39.26 14.74Q-37.42 13.96-36.19 12.56Q-34.97 11.16-34.35 9.22Q-33.73 7.29-33.73 5.02L-33.73 5.02Q-33.73 0.83-36.16-1.53Q-38.59-3.90-43.31-3.90L-43.31-3.90Q-47.04-3.90-50.80-2.55L-50.80-2.55L-56.27-4.11L-52.01-29.03L-26.66-29.03ZM18.82-3.36L18.82-3.36Q18.82 3.35 17.38 8.30Q15.94 13.25 13.40 16.48Q10.86 19.71 7.40 21.29Q3.94 22.87-0.07 22.87L-0.07 22.87Q-4.08 22.87-7.51 21.29Q-10.93 19.71-13.45 16.48Q-15.97 13.25-17.39 8.30Q-18.81 3.35-18.81-3.36L-18.81-3.36Q-18.81-10.11-17.39-15.04Q-15.97-19.98-13.45-23.21Q-10.93-26.44-7.51-28.02Q-4.08-29.60-0.07-29.60L-0.07-29.60Q3.94-29.60 7.40-28.02Q10.86-26.44 13.40-23.21Q15.94-19.98 17.38-15.04Q18.82-10.11 18.82-3.36ZM9.76-3.36L9.76-3.36Q9.76-8.94 8.95-12.59Q8.13-16.25 6.76-18.41Q5.40-20.58 3.62-21.45Q1.85-22.32-0.07-22.32L-0.07-22.32Q-1.95-22.32-3.71-21.45Q-5.47-20.58-6.82-18.41Q-8.16-16.25-8.96-12.59Q-9.76-8.94-9.76-3.36L-9.76-3.36Q-9.76 2.21-8.96 5.87Q-8.16 9.52-6.82 11.69Q-5.47 13.85-3.71 14.72Q-1.95 15.59-0.07 15.59L-0.07 15.59Q1.85 15.59 3.62 14.72Q5.40 13.85 6.76 11.69Q8.13 9.52 8.95 5.87Q9.76 2.21 9.76-3.36ZM37.56-19.34L44.66-19.34L44.66-4.78L58.47-4.78L58.47 1.71L44.66 1.71L44.66 16.34L37.56 16.34L37.56 1.71L23.82 1.71L23.82-4.78L37.56-4.78L37.56-19.34Z"/></g>
</svg>