<svg width="889" height="515" viewBox="0 0 889 515" fill="none" xmlns="http://www.w3.org/2000/svg">
<path d="M371 128.5C371 57.5314 313.692 2.60554e-05 243 1.67852e-05C172.308 7.51498e-06 115 57.5314 115 128.5C115 199.469 172.308 257 243 257C313.692 257 371 199.469 371 128.5Z" fill="#F9D332"/>
<path d="M171.15 113.328C169.198 111.92 166.83 111.216 164.11 111.216C161.838 111.216 159.886 111.824 158.254 113.072C156.622 114.288 155.822 115.92 155.822 118C155.822 121.712 158.51 123.952 162.894 124.752L165.326 125.2C167.406 125.584 168.462 126.384 168.462 127.568C168.462 128.976 166.99 130 164.558 130C162.67 130 160.846 129.328 159.15 127.952C157.87 127.024 156.59 127.28 155.822 128.336C154.958 129.328 155.118 130.8 156.366 131.728C158.734 133.488 161.358 134.352 164.27 134.352C166.958 134.352 169.102 133.712 170.734 132.464C172.366 131.216 173.198 129.552 173.198 127.504C173.198 123.632 170.67 121.296 165.646 120.496L163.758 120.176C161.614 119.792 160.558 118.992 160.558 117.776C160.558 116.464 161.838 115.568 163.854 115.568C165.486 115.568 166.99 116.08 168.366 117.104C169.678 118 170.926 117.776 171.694 116.72C172.558 115.728 172.43 114.224 171.15 113.328ZM178.824 132.016C180.392 133.584 182.376 134.352 184.744 134.352C187.112 134.352 189.096 133.584 190.664 132.016C192.232 130.448 193.032 128.496 193.032 126.16C193.032 123.824 192.232 121.872 190.632 120.304C189.064 118.736 187.08 117.936 184.744 117.936C182.408 117.936 180.424 118.736 178.824 120.304C177.256 121.872 176.456 123.824 176.456 126.16C176.456 128.496 177.256 130.448 178.824 132.016ZM182.12 123.312C182.792 122.576 183.688 122.192 184.744 122.192C185.8 122.192 186.696 122.576 187.368 123.312C188.04 124.048 188.392 125.008 188.392 126.16C188.392 127.312 188.04 128.272 187.368 129.008C186.696 129.744 185.8 130.128 184.744 130.128C183.688 130.128 182.792 129.744 182.12 129.008C181.448 128.272 181.096 127.312 181.096 126.16C181.096 125.008 181.448 124.048 182.12 123.312ZM201.364 113.872C201.556 110.672 196.628 110.672 196.82 113.872V131.728C196.628 134.928 201.556 134.928 201.364 131.728V113.872ZM206.191 113.872C206.191 115.312 207.375 116.496 208.815 116.496C210.255 116.496 211.471 115.312 211.471 113.872C211.471 112.368 210.319 111.216 208.815 111.216C207.375 111.216 206.191 112.368 206.191 113.872ZM211.087 131.728V120.592C211.087 119.088 210.127 118.16 208.815 118.16C207.503 118.16 206.543 119.088 206.543 120.592V131.728C206.543 133.232 207.503 134.16 208.815 134.16C210.127 134.16 211.087 133.232 211.087 131.728ZM231.433 113.872C231.625 110.672 226.697 110.672 226.889 113.872V119.312C225.833 118.384 224.489 117.936 222.857 117.936C220.649 117.936 218.761 118.704 217.257 120.24C215.753 121.744 215.017 123.728 215.017 126.16C215.017 128.624 215.753 130.608 217.257 132.112C218.761 133.616 220.649 134.352 222.857 134.352C224.553 134.352 226.249 133.68 227.049 132.688C227.369 133.68 228.073 134.16 229.161 134.16C230.441 134.16 231.433 133.232 231.433 131.728V113.872ZM225.897 129.104C225.225 129.872 224.361 130.256 223.305 130.256C222.249 130.256 221.385 129.872 220.681 129.104C220.009 128.336 219.657 127.344 219.657 126.16C219.657 124.976 220.009 123.984 220.681 123.216C221.385 122.448 222.249 122.064 223.305 122.064C224.361 122.064 225.225 122.448 225.897 123.216C226.601 123.984 226.953 124.976 226.953 126.16C226.953 127.344 226.601 128.336 225.897 129.104ZM236.902 119.568C235.846 120.432 235.622 121.712 236.358 122.576C237.03 123.472 238.182 123.568 239.366 122.768C240.166 122.224 241.03 121.968 241.99 121.968C243.59 121.968 244.39 122.768 244.39 124.368L241.51 124.496C239.75 124.56 238.246 125.008 237.062 125.84C235.878 126.672 235.302 127.888 235.302 129.52C235.302 130.928 235.782 132.08 236.774 133.008C237.766 133.904 239.014 134.352 240.582 134.352C242.15 134.352 243.494 133.808 244.582 132.72C244.934 133.68 245.638 134.16 246.694 134.16C247.974 134.16 248.966 133.232 248.966 131.728V124.208C248.966 122.256 248.358 120.752 247.11 119.632C245.862 118.512 244.262 117.936 242.31 117.936C240.102 117.936 238.278 118.48 236.902 119.568ZM239.878 129.264C239.878 128.4 240.71 127.952 242.374 127.856L244.39 127.696V129.552C243.526 130.192 242.63 130.512 241.702 130.512C240.55 130.512 239.878 130.032 239.878 129.264ZM263.357 118.224C263.037 118.128 262.621 118.096 262.077 118.096C260.701 118.096 259.165 118.8 258.269 120.048C258.109 118.928 257.245 118.16 256.061 118.16C254.781 118.16 253.789 119.088 253.789 120.592V131.728C253.597 134.928 258.525 134.928 258.333 131.728V127.44C258.333 124.272 259.997 122.512 262.173 122.512C262.461 122.512 262.941 122.576 263.165 122.576C264.285 122.576 265.149 121.712 265.149 120.464C265.149 119.28 264.381 118.48 263.357 118.224ZM267.503 113.872C267.503 115.312 268.687 116.496 270.127 116.496C271.567 116.496 272.783 115.312 272.783 113.872C272.783 112.368 271.631 111.216 270.127 111.216C268.687 111.216 267.503 112.368 267.503 113.872ZM272.399 131.728V120.592C272.399 119.088 271.439 118.16 270.127 118.16C268.815 118.16 267.855 119.088 267.855 120.592V131.728C267.855 133.232 268.815 134.16 270.127 134.16C271.439 134.16 272.399 133.232 272.399 131.728ZM292.746 113.872C292.938 110.672 288.01 110.672 288.202 113.872V119.312C287.146 118.384 285.802 117.936 284.17 117.936C281.962 117.936 280.074 118.704 278.57 120.24C277.066 121.744 276.33 123.728 276.33 126.16C276.33 128.624 277.066 130.608 278.57 132.112C280.074 133.616 281.962 134.352 284.17 134.352C285.866 134.352 287.562 133.68 288.362 132.688C288.682 133.68 289.386 134.16 290.474 134.16C291.754 134.16 292.746 133.232 292.746 131.728V113.872ZM287.21 129.104C286.538 129.872 285.674 130.256 284.618 130.256C283.562 130.256 282.698 129.872 281.994 129.104C281.322 128.336 280.97 127.344 280.97 126.16C280.97 124.976 281.322 123.984 281.994 123.216C282.698 122.448 283.562 122.064 284.618 122.064C285.674 122.064 286.538 122.448 287.21 123.216C287.914 123.984 288.266 124.976 288.266 126.16C288.266 127.344 287.914 128.336 287.21 129.104ZM298.214 119.568C297.158 120.432 296.934 121.712 297.67 122.576C298.342 123.472 299.494 123.568 300.678 122.768C301.478 122.224 302.342 121.968 303.302 121.968C304.902 121.968 305.702 122.768 305.702 124.368L302.822 124.496C301.062 124.56 299.558 125.008 298.374 125.84C297.19 126.672 296.614 127.888 296.614 129.52C296.614 130.928 297.094 132.08 298.086 133.008C299.078 133.904 300.326 134.352 301.894 134.352C303.462 134.352 304.806 133.808 305.894 132.72C306.246 133.68 306.95 134.16 308.006 134.16C309.286 134.16 310.278 133.232 310.278 131.728V124.208C310.278 122.256 309.67 120.752 308.422 119.632C307.174 118.512 305.574 117.936 303.622 117.936C301.414 117.936 299.59 118.48 298.214 119.568ZM301.19 129.264C301.19 128.4 302.022 127.952 303.686 127.856L305.702 127.696V129.552C304.838 130.192 303.942 130.512 303.014 130.512C301.862 130.512 301.19 130.032 301.19 129.264ZM330.246 113.872C330.438 110.672 325.51 110.672 325.702 113.872V119.312C324.646 118.384 323.302 117.936 321.67 117.936C319.462 117.936 317.574 118.704 316.07 120.24C314.566 121.744 313.83 123.728 313.83 126.16C313.83 128.624 314.566 130.608 316.07 132.112C317.574 133.616 319.462 134.352 321.67 134.352C323.366 134.352 325.062 133.68 325.862 132.688C326.182 133.68 326.886 134.16 327.974 134.16C329.254 134.16 330.246 133.232 330.246 131.728V113.872ZM324.71 129.104C324.038 129.872 323.174 130.256 322.118 130.256C321.062 130.256 320.198 129.872 319.494 129.104C318.822 128.336 318.47 127.344 318.47 126.16C318.47 124.976 318.822 123.984 319.494 123.216C320.198 122.448 321.062 122.064 322.118 122.064C323.174 122.064 324.038 122.448 324.71 123.216C325.414 123.984 325.766 124.976 325.766 126.16C325.766 127.344 325.414 128.336 324.71 129.104Z" fill="#930345"/>
<ellipse cx="503" cy="128.5" rx="129" ry="128.5" fill="#F9D332"/>
<circle cx="760.5" cy="128.5" r="128.5" fill="#F9D332"/>
<ellipse cx="243" cy="386.5" rx="129" ry="128.5" fill="#F9D332"/>
<ellipse cx="502.5" cy="386" rx="129.5" ry="129" fill="#F9D332"/>
<path d="M424.474 113.904C422.362 112.112 419.834 111.216 416.922 111.216C413.562 111.216 410.778 112.272 408.538 114.416C406.298 116.528 405.178 119.344 405.178 122.832C405.178 126.288 406.298 129.072 408.538 131.184C410.81 133.296 413.658 134.352 417.082 134.352C420.186 134.352 422.778 133.456 424.826 131.632C425.978 130.608 426.074 129.2 425.178 128.272C424.314 127.28 423.034 127.152 421.786 128.144C420.378 129.328 418.778 129.904 416.954 129.904C415.002 129.904 413.37 129.264 412.058 127.984C410.746 126.704 410.074 124.944 410.074 122.736C410.074 120.56 410.746 118.832 412.058 117.584C413.402 116.304 414.938 115.664 416.698 115.664C418.554 115.664 420.122 116.24 421.434 117.392C422.682 118.416 423.962 118.288 424.826 117.264C425.722 116.336 425.626 114.928 424.474 113.904ZM431.417 132.016C432.985 133.584 434.969 134.352 437.337 134.352C439.705 134.352 441.689 133.584 443.257 132.016C444.825 130.448 445.625 128.496 445.625 126.16C445.625 123.824 444.825 121.872 443.225 120.304C441.657 118.736 439.673 117.936 437.337 117.936C435.001 117.936 433.017 118.736 431.417 120.304C429.849 121.872 429.049 123.824 429.049 126.16C429.049 128.496 429.849 130.448 431.417 132.016ZM434.713 123.312C435.385 122.576 436.281 122.192 437.337 122.192C438.393 122.192 439.289 122.576 439.961 123.312C440.633 124.048 440.985 125.008 440.985 126.16C440.985 127.312 440.633 128.272 439.961 129.008C439.289 129.744 438.393 130.128 437.337 130.128C436.281 130.128 435.385 129.744 434.713 129.008C434.041 128.272 433.689 127.312 433.689 126.16C433.689 125.008 434.041 124.048 434.713 123.312ZM449.414 131.728C449.222 134.928 454.15 134.928 453.958 131.728V125.968C453.958 123.536 454.886 122.16 456.678 122.16C458.246 122.16 459.078 123.312 459.078 125.072V131.728C458.886 134.928 463.814 134.928 463.622 131.728V125.648C463.622 123.472 464.646 122.16 466.342 122.16C467.91 122.16 468.742 123.312 468.742 125.072V131.728C468.55 134.928 473.478 134.928 473.286 131.728V124.88C473.286 120.432 470.918 117.936 466.726 117.936C464.838 117.936 463.27 118.576 462.022 119.824C460.934 118.576 459.494 117.936 457.67 117.936C456.038 117.936 454.726 118.48 453.798 119.568C453.446 118.64 452.742 118.16 451.686 118.16C450.406 118.16 449.414 119.088 449.414 120.592V131.728ZM477.945 137.936C477.753 141.136 482.681 141.136 482.489 137.936V132.976C483.545 133.904 484.889 134.352 486.521 134.352C488.729 134.352 490.585 133.584 492.089 132.08C493.593 130.576 494.361 128.592 494.361 126.16C494.361 123.696 493.593 121.712 492.089 120.208C490.585 118.704 488.729 117.936 486.521 117.936C484.825 117.936 483.129 118.608 482.329 119.6C482.009 118.608 481.305 118.128 480.217 118.128C478.937 118.128 477.945 119.024 477.945 120.56V137.936ZM483.449 123.216C484.153 122.448 485.017 122.064 486.073 122.064C487.129 122.064 487.993 122.448 488.665 123.216C489.369 123.984 489.721 124.976 489.721 126.16C489.721 127.344 489.369 128.336 488.665 129.104C487.993 129.872 487.129 130.256 486.073 130.256C485.017 130.256 484.153 129.872 483.449 129.104C482.777 128.336 482.425 127.344 482.425 126.16C482.425 124.976 482.777 123.984 483.449 123.216ZM507.67 118.224C507.35 118.128 506.934 118.096 506.39 118.096C505.014 118.096 503.478 118.8 502.582 120.048C502.422 118.928 501.558 118.16 500.374 118.16C499.094 118.16 498.102 119.088 498.102 120.592V131.728C497.91 134.928 502.838 134.928 502.646 131.728V127.44C502.646 124.272 504.31 122.512 506.486 122.512C506.774 122.512 507.254 122.576 507.478 122.576C508.598 122.576 509.462 121.712 509.462 120.464C509.462 119.28 508.694 118.48 507.67 118.224ZM513.136 132.016C514.704 133.584 516.688 134.352 519.056 134.352C521.424 134.352 523.408 133.584 524.976 132.016C526.544 130.448 527.344 128.496 527.344 126.16C527.344 123.824 526.544 121.872 524.944 120.304C523.376 118.736 521.392 117.936 519.056 117.936C516.72 117.936 514.736 118.736 513.136 120.304C511.568 121.872 510.768 123.824 510.768 126.16C510.768 128.496 511.568 130.448 513.136 132.016ZM516.432 123.312C517.104 122.576 518 122.192 519.056 122.192C520.112 122.192 521.008 122.576 521.68 123.312C522.352 124.048 522.704 125.008 522.704 126.16C522.704 127.312 522.352 128.272 521.68 129.008C521.008 129.744 520.112 130.128 519.056 130.128C518 130.128 517.104 129.744 516.432 129.008C515.76 128.272 515.408 127.312 515.408 126.16C515.408 125.008 515.76 124.048 516.432 123.312ZM531.133 131.728C530.941 134.928 535.869 134.928 535.677 131.728V125.968C535.677 123.536 536.605 122.16 538.397 122.16C539.965 122.16 540.797 123.312 540.797 125.072V131.728C540.605 134.928 545.533 134.928 545.341 131.728V125.648C545.341 123.472 546.365 122.16 548.061 122.16C549.629 122.16 550.461 123.312 550.461 125.072V131.728C550.269 134.928 555.197 134.928 555.005 131.728V124.88C555.005 120.432 552.637 117.936 548.445 117.936C546.557 117.936 544.989 118.576 543.741 119.824C542.653 118.576 541.213 117.936 539.389 117.936C537.757 117.936 536.445 118.48 535.517 119.568C535.165 118.64 534.461 118.16 533.405 118.16C532.125 118.16 531.133 119.088 531.133 120.592V131.728ZM559.472 113.872C559.472 115.312 560.656 116.496 562.096 116.496C563.536 116.496 564.752 115.312 564.752 113.872C564.752 112.368 563.6 111.216 562.096 111.216C560.656 111.216 559.472 112.368 559.472 113.872ZM564.368 131.728V120.592C564.368 119.088 563.408 118.16 562.096 118.16C560.784 118.16 559.824 119.088 559.824 120.592V131.728C559.824 133.232 560.784 134.16 562.096 134.16C563.408 134.16 564.368 133.232 564.368 131.728ZM569.611 132.624C570.987 133.776 572.875 134.352 575.275 134.352C579.275 134.352 581.835 132.272 581.835 129.296C581.835 126.384 579.883 125.008 576.683 124.112L574.667 123.568C573.899 123.344 573.547 123.152 573.547 122.672C573.547 122.16 574.123 121.808 575.019 121.808C575.947 121.808 576.843 122.064 577.675 122.608C578.923 123.344 580.011 123.056 580.683 122.032C581.291 121.04 581.003 119.888 579.851 119.12C578.571 118.32 577.035 117.936 575.211 117.936C573.515 117.936 572.075 118.384 570.891 119.312C569.707 120.208 569.131 121.392 569.131 122.896C569.131 125.424 570.763 127.024 574.251 128.016L576.011 128.528C577.067 128.816 577.419 129.072 577.419 129.584C577.419 130.192 576.651 130.544 575.659 130.544C574.251 130.544 573.099 130.192 572.235 129.52C571.083 128.592 570.091 128.624 569.227 129.584C568.427 130.48 568.555 131.696 569.611 132.624ZM586.761 132.016C588.329 133.584 590.313 134.352 592.681 134.352C595.049 134.352 597.033 133.584 598.601 132.016C600.169 130.448 600.969 128.496 600.969 126.16C600.969 123.824 600.169 121.872 598.569 120.304C597.001 118.736 595.017 117.936 592.681 117.936C590.345 117.936 588.361 118.736 586.761 120.304C585.193 121.872 584.393 123.824 584.393 126.16C584.393 128.496 585.193 130.448 586.761 132.016ZM590.057 123.312C590.729 122.576 591.625 122.192 592.681 122.192C593.737 122.192 594.633 122.576 595.305 123.312C595.977 124.048 596.329 125.008 596.329 126.16C596.329 127.312 595.977 128.272 595.305 129.008C594.633 129.744 593.737 130.128 592.681 130.128C591.625 130.128 590.729 129.744 590.057 129.008C589.385 128.272 589.033 127.312 589.033 126.16C589.033 125.008 589.385 124.048 590.057 123.312Z" fill="#930345"/>
<path d="M705.06 125.136C706.468 125.136 707.364 124.176 707.364 122.992C707.364 121.744 706.468 120.816 705.06 120.816H697.092V115.984H705.764C707.204 115.984 708.1 115.056 708.1 113.808C708.1 112.528 707.204 111.6 705.764 111.6H695.364C693.444 111.6 692.324 112.72 692.324 114.64V131.632C692.324 133.2 693.316 134.16 694.692 134.16C696.068 134.16 697.092 133.2 697.092 131.632V125.136H705.06ZM725.467 124.816C725.467 122.672 724.539 120.56 722.139 119.056C720.955 118.32 719.579 117.936 718.011 117.936C715.739 117.936 713.883 118.736 712.443 120.304C711.003 121.872 710.299 123.856 710.299 126.256C710.299 128.688 711.067 130.64 712.635 132.144C714.203 133.616 716.155 134.352 718.555 134.352C720.635 134.352 722.395 133.84 723.771 132.784C724.955 131.856 725.179 130.576 724.443 129.68C723.643 128.624 722.491 128.336 721.243 129.232C720.443 129.872 719.515 130.192 718.427 130.192C716.475 130.192 715.163 129.008 714.907 127.312H722.939C724.635 127.312 725.467 126.48 725.467 124.816ZM718.107 121.936C719.611 121.936 720.667 122.96 720.763 124.272H715.131C715.419 122.896 716.475 121.936 718.107 121.936ZM733.896 113.872C734.088 110.672 729.16 110.672 729.352 113.872V131.728C729.16 134.928 734.088 134.928 733.896 131.728V113.872ZM738.722 113.872C738.722 115.312 739.906 116.496 741.346 116.496C742.786 116.496 744.002 115.312 744.002 113.872C744.002 112.368 742.85 111.216 741.346 111.216C739.906 111.216 738.722 112.368 738.722 113.872ZM743.618 131.728V120.592C743.618 119.088 742.658 118.16 741.346 118.16C740.034 118.16 739.074 119.088 739.074 120.592V131.728C739.074 133.232 740.034 134.16 741.346 134.16C742.658 134.16 743.618 133.232 743.618 131.728ZM758.301 122.992C759.549 123.856 760.701 123.6 761.437 122.576C762.109 121.68 761.789 120.336 760.605 119.408C759.261 118.416 757.661 117.936 755.837 117.936C753.501 117.936 751.517 118.736 749.917 120.304C748.349 121.872 747.549 123.824 747.549 126.16C747.549 128.496 748.349 130.448 749.917 132.016C751.485 133.584 753.469 134.352 755.837 134.352C757.885 134.352 759.645 133.808 761.117 132.688C762.301 131.76 762.525 130.48 761.789 129.584C760.989 128.528 759.837 128.24 758.589 129.136C757.725 129.808 756.861 130.16 755.997 130.16C753.725 130.16 752.189 128.496 752.189 126.16C752.189 123.824 753.725 122.16 755.997 122.16C756.797 122.16 757.565 122.448 758.301 122.992ZM766.097 113.872C766.097 115.312 767.281 116.496 768.721 116.496C770.161 116.496 771.377 115.312 771.377 113.872C771.377 112.368 770.225 111.216 768.721 111.216C767.281 111.216 766.097 112.368 766.097 113.872ZM770.993 131.728V120.592C770.993 119.088 770.033 118.16 768.721 118.16C767.409 118.16 766.449 119.088 766.449 120.592V131.728C766.449 133.232 767.409 134.16 768.721 134.16C770.033 134.16 770.993 133.232 770.993 131.728ZM791.34 113.872C791.532 110.672 786.604 110.672 786.796 113.872V119.312C785.74 118.384 784.396 117.936 782.764 117.936C780.556 117.936 778.668 118.704 777.164 120.24C775.66 121.744 774.924 123.728 774.924 126.16C774.924 128.624 775.66 130.608 777.164 132.112C778.668 133.616 780.556 134.352 782.764 134.352C784.46 134.352 786.156 133.68 786.956 132.688C787.276 133.68 787.98 134.16 789.068 134.16C790.348 134.16 791.34 133.232 791.34 131.728V113.872ZM785.804 129.104C785.132 129.872 784.268 130.256 783.212 130.256C782.156 130.256 781.292 129.872 780.588 129.104C779.916 128.336 779.564 127.344 779.564 126.16C779.564 124.976 779.916 123.984 780.588 123.216C781.292 122.448 782.156 122.064 783.212 122.064C784.268 122.064 785.132 122.448 785.804 123.216C786.508 123.984 786.86 124.976 786.86 126.16C786.86 127.344 786.508 128.336 785.804 129.104ZM796.808 119.568C795.752 120.432 795.528 121.712 796.264 122.576C796.936 123.472 798.088 123.568 799.272 122.768C800.072 122.224 800.936 121.968 801.896 121.968C803.496 121.968 804.296 122.768 804.296 124.368L801.416 124.496C799.656 124.56 798.152 125.008 796.968 125.84C795.784 126.672 795.208 127.888 795.208 129.52C795.208 130.928 795.688 132.08 796.68 133.008C797.672 133.904 798.92 134.352 800.488 134.352C802.056 134.352 803.4 133.808 804.488 132.72C804.84 133.68 805.544 134.16 806.6 134.16C807.88 134.16 808.872 133.232 808.872 131.728V124.208C808.872 122.256 808.264 120.752 807.016 119.632C805.768 118.512 804.168 117.936 802.216 117.936C800.008 117.936 798.184 118.48 796.808 119.568ZM799.784 129.264C799.784 128.4 800.616 127.952 802.28 127.856L804.296 127.696V129.552C803.432 130.192 802.536 130.512 801.608 130.512C800.456 130.512 799.784 130.032 799.784 129.264ZM828.84 113.872C829.032 110.672 824.104 110.672 824.296 113.872V119.312C823.24 118.384 821.896 117.936 820.264 117.936C818.056 117.936 816.168 118.704 814.664 120.24C813.16 121.744 812.424 123.728 812.424 126.16C812.424 128.624 813.16 130.608 814.664 132.112C816.168 133.616 818.056 134.352 820.264 134.352C821.96 134.352 823.656 133.68 824.456 132.688C824.776 133.68 825.48 134.16 826.568 134.16C827.848 134.16 828.84 133.232 828.84 131.728V113.872ZM823.304 129.104C822.632 129.872 821.768 130.256 820.712 130.256C819.656 130.256 818.792 129.872 818.088 129.104C817.416 128.336 817.064 127.344 817.064 126.16C817.064 124.976 817.416 123.984 818.088 123.216C818.792 122.448 819.656 122.064 820.712 122.064C821.768 122.064 822.632 122.448 823.304 123.216C824.008 123.984 824.36 124.976 824.36 126.16C824.36 127.344 824.008 128.336 823.304 129.104Z" fill="#930345"/>
<path d="M165.235 388.632C165.235 390.2 166.227 391.16 167.603 391.16C168.979 391.16 169.971 390.2 169.971 388.632V370.936C169.971 369.368 168.979 368.408 167.603 368.408C166.227 368.408 165.235 369.368 165.235 370.936V388.632ZM175.008 388.728C174.816 391.928 179.744 391.928 179.552 388.728V383.16C179.552 380.504 180.512 379.16 182.432 379.16C184.192 379.16 185.024 380.44 185.024 382.232V388.728C185.024 390.232 185.984 391.16 187.296 391.16C188.608 391.16 189.568 390.232 189.568 388.728V381.88C189.568 377.496 187.072 374.936 183.2 374.936C181.568 374.936 180.32 375.48 179.392 376.568C179.04 375.64 178.336 375.16 177.28 375.16C176 375.16 175.008 376.088 175.008 377.592V388.728ZM200.383 386.84C199.327 386.744 198.783 386.232 198.783 384.92V379.512H200.319C201.727 379.512 202.591 378.616 202.591 377.432C202.591 376.248 201.727 375.32 200.319 375.32H198.783V373.208C199.007 370.008 194.079 370.008 194.271 373.208V375.32H193.695C192.287 375.32 191.423 376.248 191.423 377.432C191.423 378.616 192.287 379.512 193.695 379.512H194.271V385.464C194.271 389.208 196.095 391.064 199.743 391.064H200.159C201.727 391.064 202.591 390.168 202.591 388.984C202.591 387.8 201.823 387 200.383 386.84ZM220.467 381.816C220.467 379.672 219.539 377.56 217.139 376.056C215.955 375.32 214.579 374.936 213.011 374.936C210.739 374.936 208.883 375.736 207.443 377.304C206.003 378.872 205.299 380.856 205.299 383.256C205.299 385.688 206.067 387.64 207.635 389.144C209.203 390.616 211.155 391.352 213.555 391.352C215.635 391.352 217.395 390.84 218.771 389.784C219.955 388.856 220.179 387.576 219.443 386.68C218.643 385.624 217.491 385.336 216.243 386.232C215.443 386.872 214.515 387.192 213.427 387.192C211.475 387.192 210.163 386.008 209.907 384.312H217.939C219.635 384.312 220.467 383.48 220.467 381.816ZM213.107 378.936C214.611 378.936 215.667 379.96 215.763 381.272H210.131C210.419 379.896 211.475 378.936 213.107 378.936ZM235.195 382.808C235.195 384.984 233.659 386.52 231.707 386.52C229.787 386.52 228.251 384.984 228.251 382.808C228.251 380.6 229.787 379.064 231.707 379.064C233.659 379.064 235.195 380.6 235.195 382.808ZM225.499 395.832C227.067 396.984 228.955 397.56 231.195 397.56C233.851 397.56 235.899 396.792 237.403 395.288C238.907 393.784 239.675 391.8 239.675 389.368V377.56C239.675 376.024 238.715 375.128 237.403 375.128C236.315 375.128 235.611 375.608 235.291 376.6C234.299 375.48 232.955 374.936 231.291 374.936C229.147 374.936 227.355 375.64 225.851 377.048C224.347 378.456 223.611 380.376 223.611 382.808C223.611 385.208 224.315 387.128 225.755 388.536C227.195 389.944 229.051 390.648 231.291 390.648C232.923 390.648 234.203 390.264 235.099 389.464V389.88C235.099 391.96 233.563 393.368 231.163 393.368C230.267 393.368 229.371 393.08 228.443 392.536C227.067 391.672 225.979 391.704 225.179 392.568C224.315 393.464 224.315 394.936 225.499 395.832ZM254.232 375.224C253.912 375.128 253.496 375.096 252.952 375.096C251.576 375.096 250.04 375.8 249.144 377.048C248.984 375.928 248.12 375.16 246.936 375.16C245.656 375.16 244.664 376.088 244.664 377.592V388.728C244.472 391.928 249.4 391.928 249.208 388.728V384.44C249.208 381.272 250.872 379.512 253.048 379.512C253.336 379.512 253.816 379.576 254.04 379.576C255.16 379.576 256.024 378.712 256.024 377.464C256.024 376.28 255.256 375.48 254.232 375.224ZM258.378 370.872C258.378 372.312 259.562 373.496 261.002 373.496C262.442 373.496 263.658 372.312 263.658 370.872C263.658 369.368 262.506 368.216 261.002 368.216C259.562 368.216 258.378 369.368 258.378 370.872ZM263.274 388.728V377.592C263.274 376.088 262.314 375.16 261.002 375.16C259.69 375.16 258.73 376.088 258.73 377.592V388.728C258.73 390.232 259.69 391.16 261.002 391.16C262.314 391.16 263.274 390.232 263.274 388.728ZM283.621 370.872C283.813 367.672 278.885 367.672 279.077 370.872V376.312C278.021 375.384 276.677 374.936 275.045 374.936C272.837 374.936 270.949 375.704 269.445 377.24C267.941 378.744 267.205 380.728 267.205 383.16C267.205 385.624 267.941 387.608 269.445 389.112C270.949 390.616 272.837 391.352 275.045 391.352C276.741 391.352 278.437 390.68 279.237 389.688C279.557 390.68 280.261 391.16 281.349 391.16C282.629 391.16 283.621 390.232 283.621 388.728V370.872ZM278.085 386.104C277.413 386.872 276.549 387.256 275.493 387.256C274.437 387.256 273.573 386.872 272.869 386.104C272.197 385.336 271.845 384.344 271.845 383.16C271.845 381.976 272.197 380.984 272.869 380.216C273.573 379.448 274.437 379.064 275.493 379.064C276.549 379.064 277.413 379.448 278.085 380.216C278.789 380.984 279.141 381.976 279.141 383.16C279.141 384.344 278.789 385.336 278.085 386.104ZM289.089 376.568C288.033 377.432 287.809 378.712 288.545 379.576C289.217 380.472 290.369 380.568 291.553 379.768C292.353 379.224 293.217 378.968 294.177 378.968C295.777 378.968 296.577 379.768 296.577 381.368L293.697 381.496C291.937 381.56 290.433 382.008 289.249 382.84C288.065 383.672 287.489 384.888 287.489 386.52C287.489 387.928 287.969 389.08 288.961 390.008C289.953 390.904 291.201 391.352 292.769 391.352C294.337 391.352 295.681 390.808 296.769 389.72C297.121 390.68 297.825 391.16 298.881 391.16C300.161 391.16 301.153 390.232 301.153 388.728V381.208C301.153 379.256 300.545 377.752 299.297 376.632C298.049 375.512 296.449 374.936 294.497 374.936C292.289 374.936 290.465 375.48 289.089 376.568ZM292.065 386.264C292.065 385.4 292.897 384.952 294.561 384.856L296.577 384.696V386.552C295.713 387.192 294.817 387.512 293.889 387.512C292.737 387.512 292.065 387.032 292.065 386.264ZM321.121 370.872C321.313 367.672 316.385 367.672 316.577 370.872V376.312C315.521 375.384 314.177 374.936 312.545 374.936C310.337 374.936 308.449 375.704 306.945 377.24C305.441 378.744 304.705 380.728 304.705 383.16C304.705 385.624 305.441 387.608 306.945 389.112C308.449 390.616 310.337 391.352 312.545 391.352C314.241 391.352 315.937 390.68 316.737 389.688C317.057 390.68 317.761 391.16 318.849 391.16C320.129 391.16 321.121 390.232 321.121 388.728V370.872ZM315.585 386.104C314.913 386.872 314.049 387.256 312.993 387.256C311.937 387.256 311.073 386.872 310.369 386.104C309.697 385.336 309.345 384.344 309.345 383.16C309.345 381.976 309.697 380.984 310.369 380.216C311.073 379.448 311.937 379.064 312.993 379.064C314.049 379.064 314.913 379.448 315.585 380.216C316.289 380.984 316.641 381.976 316.641 383.16C316.641 384.344 316.289 385.336 315.585 386.104Z" fill="#930345"/>
<path d="M426.31 372.6C424.87 372.6 423.974 373.528 423.974 374.808C423.974 376.056 424.87 376.984 426.31 376.984H430.694V392.632C430.694 394.2 431.686 395.16 433.062 395.16C434.438 395.16 435.462 394.2 435.462 392.632V376.984H439.878C441.318 376.984 442.214 376.056 442.214 374.808C442.214 373.528 441.318 372.6 439.878 372.6H426.31ZM444.042 393.016C445.61 394.584 447.594 395.352 449.962 395.352C452.33 395.352 454.314 394.584 455.882 393.016C457.45 391.448 458.25 389.496 458.25 387.16C458.25 384.824 457.45 382.872 455.85 381.304C454.282 379.736 452.298 378.936 449.962 378.936C447.626 378.936 445.642 379.736 444.042 381.304C442.474 382.872 441.674 384.824 441.674 387.16C441.674 389.496 442.474 391.448 444.042 393.016ZM447.338 384.312C448.01 383.576 448.906 383.192 449.962 383.192C451.018 383.192 451.914 383.576 452.586 384.312C453.258 385.048 453.61 386.008 453.61 387.16C453.61 388.312 453.258 389.272 452.586 390.008C451.914 390.744 451.018 391.128 449.962 391.128C448.906 391.128 448.01 390.744 447.338 390.008C446.666 389.272 446.314 388.312 446.314 387.16C446.314 386.008 446.666 385.048 447.338 384.312ZM466.583 374.872C466.775 371.672 461.847 371.672 462.039 374.872V392.728C461.847 395.928 466.775 395.928 466.583 392.728V374.872ZM485.53 385.816C485.53 383.672 484.602 381.56 482.202 380.056C481.018 379.32 479.642 378.936 478.074 378.936C475.802 378.936 473.946 379.736 472.506 381.304C471.066 382.872 470.362 384.856 470.362 387.256C470.362 389.688 471.13 391.64 472.698 393.144C474.266 394.616 476.218 395.352 478.618 395.352C480.698 395.352 482.458 394.84 483.834 393.784C485.018 392.856 485.242 391.576 484.506 390.68C483.706 389.624 482.554 389.336 481.306 390.232C480.506 390.872 479.578 391.192 478.49 391.192C476.538 391.192 475.226 390.008 474.97 388.312H483.002C484.698 388.312 485.53 387.48 485.53 385.816ZM478.17 382.936C479.674 382.936 480.73 383.96 480.826 385.272H475.194C475.482 383.896 476.538 382.936 478.17 382.936ZM498.982 379.224C498.662 379.128 498.246 379.096 497.702 379.096C496.326 379.096 494.79 379.8 493.894 381.048C493.734 379.928 492.87 379.16 491.686 379.16C490.406 379.16 489.414 380.088 489.414 381.592V392.728C489.222 395.928 494.15 395.928 493.958 392.728V388.44C493.958 385.272 495.622 383.512 497.798 383.512C498.086 383.512 498.566 383.576 498.79 383.576C499.91 383.576 500.774 382.712 500.774 381.464C500.774 380.28 500.006 379.48 498.982 379.224ZM503.777 380.568C502.721 381.432 502.497 382.712 503.233 383.576C503.905 384.472 505.057 384.568 506.241 383.768C507.041 383.224 507.905 382.968 508.865 382.968C510.465 382.968 511.265 383.768 511.265 385.368L508.385 385.496C506.625 385.56 505.121 386.008 503.937 386.84C502.753 387.672 502.177 388.888 502.177 390.52C502.177 391.928 502.657 393.08 503.649 394.008C504.641 394.904 505.889 395.352 507.457 395.352C509.025 395.352 510.369 394.808 511.457 393.72C511.809 394.68 512.513 395.16 513.569 395.16C514.849 395.16 515.841 394.232 515.841 392.728V385.208C515.841 383.256 515.233 381.752 513.985 380.632C512.737 379.512 511.137 378.936 509.185 378.936C506.977 378.936 505.153 379.48 503.777 380.568ZM506.753 390.264C506.753 389.4 507.585 388.952 509.249 388.856L511.265 388.696V390.552C510.401 391.192 509.505 391.512 508.577 391.512C507.425 391.512 506.753 391.032 506.753 390.264ZM520.664 392.728C520.472 395.928 525.4 395.928 525.208 392.728V387.16C525.208 384.504 526.168 383.16 528.088 383.16C529.848 383.16 530.68 384.44 530.68 386.232V392.728C530.68 394.232 531.64 395.16 532.952 395.16C534.264 395.16 535.224 394.232 535.224 392.728V385.88C535.224 381.496 532.728 378.936 528.856 378.936C527.224 378.936 525.976 379.48 525.048 380.568C524.696 379.64 523.992 379.16 522.936 379.16C521.656 379.16 520.664 380.088 520.664 381.592V392.728ZM549.363 383.992C550.611 384.856 551.763 384.6 552.499 383.576C553.171 382.68 552.851 381.336 551.667 380.408C550.323 379.416 548.723 378.936 546.899 378.936C544.563 378.936 542.579 379.736 540.979 381.304C539.411 382.872 538.611 384.824 538.611 387.16C538.611 389.496 539.411 391.448 540.979 393.016C542.547 394.584 544.531 395.352 546.899 395.352C548.947 395.352 550.707 394.808 552.179 393.688C553.363 392.76 553.587 391.48 552.851 390.584C552.051 389.528 550.899 389.24 549.651 390.136C548.787 390.808 547.923 391.16 547.059 391.16C544.787 391.16 543.251 389.496 543.251 387.16C543.251 384.824 544.787 383.16 547.059 383.16C547.859 383.16 548.627 383.448 549.363 383.992ZM557.16 374.872C557.16 376.312 558.344 377.496 559.784 377.496C561.224 377.496 562.44 376.312 562.44 374.872C562.44 373.368 561.288 372.216 559.784 372.216C558.344 372.216 557.16 373.368 557.16 374.872ZM562.056 392.728V381.592C562.056 380.088 561.096 379.16 559.784 379.16C558.472 379.16 557.512 380.088 557.512 381.592V392.728C557.512 394.232 558.472 395.16 559.784 395.16C561.096 395.16 562.056 394.232 562.056 392.728ZM567.714 380.568C566.658 381.432 566.434 382.712 567.17 383.576C567.842 384.472 568.994 384.568 570.178 383.768C570.978 383.224 571.842 382.968 572.802 382.968C574.402 382.968 575.202 383.768 575.202 385.368L572.322 385.496C570.562 385.56 569.058 386.008 567.874 386.84C566.69 387.672 566.114 388.888 566.114 390.52C566.114 391.928 566.594 393.08 567.586 394.008C568.578 394.904 569.826 395.352 571.394 395.352C572.962 395.352 574.306 394.808 575.394 393.72C575.746 394.68 576.45 395.16 577.506 395.16C578.786 395.16 579.778 394.232 579.778 392.728V385.208C579.778 383.256 579.17 381.752 577.922 380.632C576.674 379.512 575.074 378.936 573.122 378.936C570.914 378.936 569.09 379.48 567.714 380.568ZM570.69 390.264C570.69 389.4 571.522 388.952 573.186 388.856L575.202 388.696V390.552C574.338 391.192 573.442 391.512 572.514 391.512C571.362 391.512 570.69 391.032 570.69 390.264Z" fill="#930345"/>
<g clip-path="url(#clip0_992_132)">
<path d="M127 193.5C127 228.591 98.5907 257 63.5 257C28.4093 257 0 228.591 0 193.5C0 158.409 28.4093 130 63.5 130C98.5907 130 127 158.409 127 193.5Z" fill="#930345"/>
<path d="M64.1306 186.503C68.2856 186.503 71.6538 183.135 71.6538 178.98C71.6538 174.825 68.2856 171.457 64.1306 171.457C59.9757 171.457 56.6074 174.825 56.6074 178.98C56.6074 183.135 59.9757 186.503 64.1306 186.503Z" fill="#F9D332"/>
<path d="M104.851 186.503C109.006 186.503 112.375 183.135 112.375 178.98C112.375 174.825 109.006 171.457 104.851 171.457C100.696 171.457 97.3281 174.825 97.3281 178.98C97.3281 183.135 100.696 186.503 104.851 186.503Z" fill="#F9D332"/>
<path d="M84.3855 221.962C72.9692 221.962 62.3946 215.754 56.818 205.758C56.2393 204.759 56.6075 203.496 57.6071 202.97C58.6067 202.444 59.8694 202.759 60.3954 203.759C65.2355 212.44 74.3897 217.806 84.3329 217.806C94.3814 217.806 103.641 212.334 108.428 203.443C108.954 202.444 110.217 202.075 111.216 202.602C112.216 203.128 112.584 204.39 112.058 205.39C106.587 215.596 95.9597 221.962 84.3855 221.962Z" fill="#F9D332"/>
</g>
<g clip-path="url(#clip1_992_132)">
<path d="M889 386C889 457.235 831.459 515 760.5 515C689.541 515 632 457.235 632 386C632 314.765 689.541 257 760.5 257C831.459 257 889 314.765 889 386Z" fill="#930345"/>
<path d="M687.744 423.561C672.736 423.561 658.835 415.369 651.504 402.177C650.743 400.858 651.227 399.192 652.542 398.497C653.856 397.803 655.515 398.22 656.207 399.539C662.57 410.995 674.604 418.076 687.675 418.076C700.885 418.076 713.057 410.856 719.35 399.122C720.042 397.803 721.702 397.317 723.016 398.011C724.33 398.706 724.814 400.372 724.123 401.691C716.93 415.23 702.959 423.561 687.744 423.561Z" fill="#F9D332"/>
<path d="M714.646 376.766C720.108 376.766 724.536 372.321 724.536 366.837C724.536 361.354 720.108 356.909 714.646 356.909C709.184 356.909 704.756 361.354 704.756 366.837C704.756 372.321 709.184 376.766 714.646 376.766Z" fill="#F9D332"/>
<path d="M661.116 376.766C666.579 376.766 671.006 372.321 671.006 366.837C671.006 361.354 666.579 356.909 661.116 356.909C655.654 356.909 651.227 361.354 651.227 366.837C651.227 372.321 655.654 376.766 661.116 376.766Z" fill="#F9D332"/>
</g>
<defs>
<clipPath id="clip0_992_132">
<rect width="127" height="127" fill="white" transform="translate(0 130)"/>
</clipPath>
<clipPath id="clip1_992_132">
<rect width="257" height="258" fill="white" transform="translate(632 257)"/>
</clipPath>
</defs>
</svg>
