<svg width="486" height="162" viewBox="0 0 486 162" fill="none" xmlns="http://www.w3.org/2000/svg">
<rect width="486" height="162" fill="#930345"/>
<path d="M78.8048 32.56C79.2248 33.428 80.1488 33.82 81.0168 33.596C81.9968 33.288 82.5848 32.252 82.1648 31.132L80.7648 27.576C80.3168 26.344 79.3088 25.84 78.1608 26.204C77.0688 26.54 76.5928 27.772 77.1248 28.976L78.8048 32.56ZM84.9928 32.56C85.4128 33.428 86.3368 33.82 87.2048 33.596C88.1848 33.288 88.7728 32.252 88.3528 31.132L86.9528 27.576C86.5048 26.344 85.4968 25.84 84.3488 26.204C83.2568 26.54 82.7808 27.772 83.3128 28.976L84.9928 32.56ZM104.227 37.88C105.459 37.88 106.243 37.04 106.243 36.004C106.243 34.912 105.459 34.1 104.227 34.1H96.1353V30.236H104.675C105.935 30.236 106.719 29.424 106.719 28.332C106.719 27.212 105.935 26.4 104.675 26.4H94.6233C92.9433 26.4 91.9633 27.38 91.9633 29.06V43.34C91.9633 45.02 92.9433 46 94.6233 46H104.675C105.935 46 106.719 45.188 106.719 44.096C106.719 42.976 105.935 42.164 104.675 42.164H96.1353V37.88H104.227ZM114.502 28.388C114.67 25.588 110.358 25.588 110.526 28.388V44.012C110.358 46.812 114.67 46.812 114.502 44.012V28.388ZM127.113 33.372C126.189 34.128 125.993 35.248 126.637 36.004C127.225 36.788 128.233 36.872 129.269 36.172C129.969 35.696 130.725 35.472 131.565 35.472C132.965 35.472 133.665 36.172 133.665 37.572L131.145 37.684C129.605 37.74 128.289 38.132 127.253 38.86C126.217 39.588 125.713 40.652 125.713 42.08C125.713 43.312 126.133 44.32 127.001 45.132C127.869 45.916 128.961 46.308 130.333 46.308C131.705 46.308 132.881 45.832 133.833 44.88C134.141 45.72 134.757 46.14 135.681 46.14C136.801 46.14 137.669 45.328 137.669 44.012V37.432C137.669 35.724 137.137 34.408 136.045 33.428C134.953 32.448 133.553 31.944 131.845 31.944C129.913 31.944 128.317 32.42 127.113 33.372ZM129.717 41.856C129.717 41.1 130.445 40.708 131.901 40.624L133.665 40.484V42.108C132.909 42.668 132.125 42.948 131.313 42.948C130.305 42.948 129.717 42.528 129.717 41.856ZM150.185 36.368C151.277 37.124 152.285 36.9 152.929 36.004C153.517 35.22 153.237 34.044 152.201 33.232C151.025 32.364 149.625 31.944 148.029 31.944C145.985 31.944 144.249 32.644 142.849 34.016C141.477 35.388 140.777 37.096 140.777 39.14C140.777 41.184 141.477 42.892 142.849 44.264C144.221 45.636 145.957 46.308 148.029 46.308C149.821 46.308 151.361 45.832 152.649 44.852C153.685 44.04 153.881 42.92 153.237 42.136C152.537 41.212 151.529 40.96 150.437 41.744C149.681 42.332 148.925 42.64 148.169 42.64C146.181 42.64 144.837 41.184 144.837 39.14C144.837 37.096 146.181 35.64 148.169 35.64C148.869 35.64 149.541 35.892 150.185 36.368ZM163.191 42.36C162.267 42.276 161.791 41.828 161.791 40.68V35.948H163.135C164.367 35.948 165.123 35.164 165.123 34.128C165.123 33.092 164.367 32.28 163.135 32.28H161.791V30.432C161.987 27.632 157.675 27.632 157.843 30.432V32.28H157.339C156.107 32.28 155.351 33.092 155.351 34.128C155.351 35.164 156.107 35.948 157.339 35.948H157.843V41.156C157.843 44.432 159.439 46.056 162.631 46.056H162.995C164.367 46.056 165.123 45.272 165.123 44.236C165.123 43.2 164.451 42.5 163.191 42.36ZM169.564 44.264C170.936 45.636 172.672 46.308 174.744 46.308C176.816 46.308 178.552 45.636 179.924 44.264C181.296 42.892 181.996 41.184 181.996 39.14C181.996 37.096 181.296 35.388 179.896 34.016C178.524 32.644 176.788 31.944 174.744 31.944C172.7 31.944 170.964 32.644 169.564 34.016C168.192 35.388 167.492 37.096 167.492 39.14C167.492 41.184 168.192 42.892 169.564 44.264ZM172.448 36.648C173.036 36.004 173.82 35.668 174.744 35.668C175.668 35.668 176.452 36.004 177.04 36.648C177.628 37.292 177.936 38.132 177.936 39.14C177.936 40.148 177.628 40.988 177.04 41.632C176.452 42.276 175.668 42.612 174.744 42.612C173.82 42.612 173.036 42.276 172.448 41.632C171.86 40.988 171.552 40.148 171.552 39.14C171.552 38.132 171.86 37.292 172.448 36.648ZM193.132 44.012C192.964 46.812 197.276 46.812 197.108 44.012V38.972C197.108 36.844 197.92 35.64 199.488 35.64C200.86 35.64 201.588 36.648 201.588 38.188V44.012C201.42 46.812 205.732 46.812 205.564 44.012V38.692C205.564 36.788 206.46 35.64 207.944 35.64C209.316 35.64 210.044 36.648 210.044 38.188V44.012C209.876 46.812 214.188 46.812 214.02 44.012V38.02C214.02 34.128 211.948 31.944 208.28 31.944C206.628 31.944 205.256 32.504 204.164 33.596C203.212 32.504 201.952 31.944 200.356 31.944C198.928 31.944 197.78 32.42 196.968 33.372C196.66 32.56 196.044 32.14 195.12 32.14C194 32.14 193.132 32.952 193.132 34.268V44.012ZM218.496 33.372C217.572 34.128 217.376 35.248 218.02 36.004C218.608 36.788 219.616 36.872 220.652 36.172C221.352 35.696 222.108 35.472 222.948 35.472C224.348 35.472 225.048 36.172 225.048 37.572L222.528 37.684C220.988 37.74 219.672 38.132 218.636 38.86C217.6 39.588 217.096 40.652 217.096 42.08C217.096 43.312 217.516 44.32 218.384 45.132C219.252 45.916 220.344 46.308 221.716 46.308C223.088 46.308 224.264 45.832 225.216 44.88C225.524 45.72 226.14 46.14 227.064 46.14C228.184 46.14 229.052 45.328 229.052 44.012V37.432C229.052 35.724 228.52 34.408 227.428 33.428C226.336 32.448 224.936 31.944 223.228 31.944C221.296 31.944 219.7 32.42 218.496 33.372ZM221.1 41.856C221.1 41.1 221.828 40.708 223.284 40.624L225.048 40.484V42.108C224.292 42.668 223.508 42.948 222.696 42.948C221.688 42.948 221.1 42.528 221.1 41.856ZM233.308 44.796C234.512 45.804 236.164 46.308 238.264 46.308C241.764 46.308 244.004 44.488 244.004 41.884C244.004 39.336 242.296 38.132 239.496 37.348L237.732 36.872C237.06 36.676 236.752 36.508 236.752 36.088C236.752 35.64 237.256 35.332 238.04 35.332C238.852 35.332 239.636 35.556 240.364 36.032C241.456 36.676 242.408 36.424 242.996 35.528C243.528 34.66 243.276 33.652 242.268 32.98C241.148 32.28 239.804 31.944 238.208 31.944C236.724 31.944 235.464 32.336 234.428 33.148C233.392 33.932 232.888 34.968 232.888 36.284C232.888 38.496 234.316 39.896 237.368 40.764L238.908 41.212C239.832 41.464 240.14 41.688 240.14 42.136C240.14 42.668 239.468 42.976 238.6 42.976C237.368 42.976 236.36 42.668 235.604 42.08C234.596 41.268 233.728 41.296 232.972 42.136C232.272 42.92 232.384 43.984 233.308 44.796ZM255.011 49.444C254.843 52.244 259.155 52.244 258.987 49.444V45.104C259.911 45.916 261.087 46.308 262.515 46.308C264.447 46.308 266.071 45.636 267.387 44.32C268.703 43.004 269.375 41.268 269.375 39.14C269.375 36.984 268.703 35.248 267.387 33.932C266.071 32.616 264.447 31.944 262.515 31.944C261.031 31.944 259.547 32.532 258.847 33.4C258.567 32.532 257.951 32.112 256.999 32.112C255.879 32.112 255.011 32.896 255.011 34.24V49.444ZM259.827 36.564C260.443 35.892 261.199 35.556 262.123 35.556C263.047 35.556 263.803 35.892 264.391 36.564C265.007 37.236 265.315 38.104 265.315 39.14C265.315 40.176 265.007 41.044 264.391 41.716C263.803 42.388 263.047 42.724 262.123 42.724C261.199 42.724 260.443 42.388 259.827 41.716C259.239 41.044 258.931 40.176 258.931 39.14C258.931 38.104 259.239 37.236 259.827 36.564ZM285.3 37.964C285.3 36.088 284.488 34.24 282.388 32.924C281.352 32.28 280.148 31.944 278.776 31.944C276.788 31.944 275.164 32.644 273.904 34.016C272.644 35.388 272.028 37.124 272.028 39.224C272.028 41.352 272.7 43.06 274.072 44.376C275.444 45.664 277.152 46.308 279.252 46.308C281.072 46.308 282.612 45.86 283.816 44.936C284.852 44.124 285.048 43.004 284.404 42.22C283.704 41.296 282.696 41.044 281.604 41.828C280.904 42.388 280.092 42.668 279.14 42.668C277.432 42.668 276.284 41.632 276.06 40.148H283.088C284.572 40.148 285.3 39.42 285.3 37.964ZM278.86 35.444C280.176 35.444 281.1 36.34 281.184 37.488H276.256C276.508 36.284 277.432 35.444 278.86 35.444ZM302.414 34.24C302.414 32.896 301.546 32.112 300.426 32.112C299.474 32.112 298.858 32.532 298.578 33.4C297.878 32.532 296.394 31.944 294.91 31.944C292.978 31.944 291.326 32.616 290.01 33.932C288.694 35.248 288.05 36.984 288.05 39.14C288.05 41.268 288.694 43.004 290.01 44.32C291.326 45.636 292.978 46.308 294.91 46.308C296.338 46.308 297.514 45.916 298.438 45.104V49.444C298.27 52.244 302.582 52.244 302.414 49.444V34.24ZM297.57 41.716C296.982 42.388 296.226 42.724 295.302 42.724C294.378 42.724 293.622 42.388 293.006 41.716C292.418 41.044 292.11 40.176 292.11 39.14C292.11 38.104 292.418 37.236 293.006 36.564C293.622 35.892 294.378 35.556 295.302 35.556C296.226 35.556 296.982 35.892 297.57 36.564C298.186 37.236 298.494 38.104 298.494 39.14C298.494 40.176 298.186 41.044 297.57 41.716ZM318.595 34.268C318.763 31.468 314.451 31.468 314.619 34.268V39.14C314.619 41.408 314.003 42.64 312.239 42.64C310.839 42.64 310.139 41.744 310.139 39.952V34.268C310.307 31.468 305.995 31.468 306.163 34.268V40.26C306.163 44.152 308.039 46.308 311.399 46.308C312.883 46.308 314.003 45.832 314.787 44.908C315.095 45.72 315.711 46.14 316.607 46.14C317.727 46.14 318.595 45.328 318.595 44.012V34.268ZM335.202 37.964C335.202 36.088 334.39 34.24 332.29 32.924C331.254 32.28 330.05 31.944 328.678 31.944C326.69 31.944 325.066 32.644 323.806 34.016C322.546 35.388 321.93 37.124 321.93 39.224C321.93 41.352 322.602 43.06 323.974 44.376C325.346 45.664 327.054 46.308 329.154 46.308C330.974 46.308 332.514 45.86 333.718 44.936C334.754 44.124 334.95 43.004 334.306 42.22C333.606 41.296 332.598 41.044 331.506 41.828C330.806 42.388 329.994 42.668 329.042 42.668C327.334 42.668 326.186 41.632 325.962 40.148H332.99C334.474 40.148 335.202 39.42 335.202 37.964ZM328.762 35.444C330.078 35.444 331.002 36.34 331.086 37.488H326.158C326.41 36.284 327.334 35.444 328.762 35.444ZM338.601 34.268V44.012C338.433 46.812 342.745 46.812 342.577 44.012V39.14C342.577 36.816 343.417 35.64 345.097 35.64C346.637 35.64 347.365 36.76 347.365 38.328V44.012C347.365 45.328 348.205 46.14 349.353 46.14C350.501 46.14 351.341 45.328 351.341 44.012V38.02C351.341 34.184 349.157 31.944 345.769 31.944C344.341 31.944 343.249 32.42 342.437 33.372C342.129 32.56 341.513 32.14 340.589 32.14C339.469 32.14 338.601 32.952 338.601 34.268ZM344.145 26.568C343.473 26.428 343.081 26.344 342.941 26.344C341.457 26.344 340.365 27.464 340.365 28.584C340.365 29.452 340.785 30.012 341.681 30.012C342.185 30.012 342.577 29.844 342.829 29.508C343.025 29.256 343.249 29.116 343.529 29.116C343.725 29.116 344.005 29.172 344.369 29.284L345.517 29.648C346.189 29.788 346.581 29.872 346.721 29.872C348.205 29.872 349.297 28.752 349.297 27.632C349.297 26.764 348.877 26.204 347.981 26.204C347.477 26.204 347.085 26.372 346.833 26.708C346.637 26.96 346.413 27.1 346.133 27.1C345.937 27.1 345.657 27.044 345.293 26.932L344.145 26.568ZM356.404 44.264C357.776 45.636 359.512 46.308 361.584 46.308C363.656 46.308 365.392 45.636 366.764 44.264C368.136 42.892 368.836 41.184 368.836 39.14C368.836 37.096 368.136 35.388 366.736 34.016C365.364 32.644 363.628 31.944 361.584 31.944C359.54 31.944 357.804 32.644 356.404 34.016C355.032 35.388 354.332 37.096 354.332 39.14C354.332 41.184 355.032 42.892 356.404 44.264ZM359.288 36.648C359.876 36.004 360.66 35.668 361.584 35.668C362.508 35.668 363.292 36.004 363.88 36.648C364.468 37.292 364.776 38.132 364.776 39.14C364.776 40.148 364.468 40.988 363.88 41.632C363.292 42.276 362.508 42.612 361.584 42.612C360.66 42.612 359.876 42.276 359.288 41.632C358.7 40.988 358.392 40.148 358.392 39.14C358.392 38.132 358.7 37.292 359.288 36.648ZM393.524 28.388C393.692 25.588 389.38 25.588 389.548 28.388V33.148C388.624 32.336 387.448 31.944 386.02 31.944C384.088 31.944 382.436 32.616 381.12 33.96C379.804 35.276 379.16 37.012 379.16 39.14C379.16 41.296 379.804 43.032 381.12 44.348C382.436 45.664 384.088 46.308 386.02 46.308C387.504 46.308 388.988 45.72 389.688 44.852C389.968 45.72 390.584 46.14 391.536 46.14C392.656 46.14 393.524 45.328 393.524 44.012V28.388ZM388.68 41.716C388.092 42.388 387.336 42.724 386.412 42.724C385.488 42.724 384.732 42.388 384.116 41.716C383.528 41.044 383.22 40.176 383.22 39.14C383.22 38.104 383.528 37.236 384.116 36.564C384.732 35.892 385.488 35.556 386.412 35.556C387.336 35.556 388.092 35.892 388.68 36.564C389.296 37.236 389.604 38.104 389.604 39.14C389.604 40.176 389.296 41.044 388.68 41.716ZM410.096 37.964C410.096 36.088 409.284 34.24 407.184 32.924C406.148 32.28 404.944 31.944 403.572 31.944C401.584 31.944 399.96 32.644 398.7 34.016C397.44 35.388 396.824 37.124 396.824 39.224C396.824 41.352 397.496 43.06 398.868 44.376C400.24 45.664 401.948 46.308 404.048 46.308C405.868 46.308 407.408 45.86 408.612 44.936C409.648 44.124 409.844 43.004 409.2 42.22C408.5 41.296 407.492 41.044 406.4 41.828C405.7 42.388 404.888 42.668 403.936 42.668C402.228 42.668 401.08 41.632 400.856 40.148H407.884C409.368 40.148 410.096 39.42 410.096 37.964ZM403.656 35.444C404.972 35.444 405.896 36.34 405.98 37.488H401.052C401.304 36.284 402.228 35.444 403.656 35.444ZM65.0292 65.372C64.1052 66.128 63.9092 67.248 64.5532 68.004C65.1412 68.788 66.1492 68.872 67.1852 68.172C67.8852 67.696 68.6412 67.472 69.4812 67.472C70.8812 67.472 71.5812 68.172 71.5812 69.572L69.0612 69.684C67.5212 69.74 66.2052 70.132 65.1692 70.86C64.1332 71.588 63.6292 72.652 63.6292 74.08C63.6292 75.312 64.0492 76.32 64.9172 77.132C65.7852 77.916 66.8772 78.308 68.2492 78.308C69.6212 78.308 70.7972 77.832 71.7492 76.88C72.0572 77.72 72.6732 78.14 73.5972 78.14C74.7172 78.14 75.5852 77.328 75.5852 76.012V69.432C75.5852 67.724 75.0532 66.408 73.9612 65.428C72.8692 64.448 71.4692 63.944 69.7612 63.944C67.8292 63.944 66.2332 64.42 65.0292 65.372ZM67.6332 73.856C67.6332 73.1 68.3612 72.708 69.8172 72.624L71.5812 72.484V74.108C70.8252 74.668 70.0412 74.948 69.2292 74.948C68.2212 74.948 67.6332 74.528 67.6332 73.856ZM79.8057 76.012C79.6377 78.812 83.9497 78.812 83.7817 76.012V70.972C83.7817 68.844 84.5937 67.64 86.1617 67.64C87.5337 67.64 88.2617 68.648 88.2617 70.188V76.012C88.0937 78.812 92.4057 78.812 92.2377 76.012V70.692C92.2377 68.788 93.1337 67.64 94.6177 67.64C95.9897 67.64 96.7177 68.648 96.7177 70.188V76.012C96.5497 78.812 100.862 78.812 100.694 76.012V70.02C100.694 66.128 98.6217 63.944 94.9537 63.944C93.3017 63.944 91.9297 64.504 90.8377 65.596C89.8857 64.504 88.6257 63.944 87.0297 63.944C85.6017 63.944 84.4537 64.42 83.6417 65.372C83.3337 64.56 82.7177 64.14 81.7937 64.14C80.6737 64.14 79.8057 64.952 79.8057 66.268V76.012ZM105.17 65.372C104.246 66.128 104.05 67.248 104.694 68.004C105.282 68.788 106.29 68.872 107.326 68.172C108.026 67.696 108.782 67.472 109.622 67.472C111.022 67.472 111.722 68.172 111.722 69.572L109.202 69.684C107.662 69.74 106.346 70.132 105.31 70.86C104.274 71.588 103.77 72.652 103.77 74.08C103.77 75.312 104.19 76.32 105.058 77.132C105.926 77.916 107.018 78.308 108.39 78.308C109.762 78.308 110.938 77.832 111.89 76.88C112.198 77.72 112.814 78.14 113.738 78.14C114.858 78.14 115.726 77.328 115.726 76.012V69.432C115.726 67.724 115.194 66.408 114.102 65.428C113.01 64.448 111.61 63.944 109.902 63.944C107.97 63.944 106.374 64.42 105.17 65.372ZM107.774 73.856C107.774 73.1 108.502 72.708 109.958 72.624L111.722 72.484V74.108C110.966 74.668 110.182 74.948 109.37 74.948C108.362 74.948 107.774 74.528 107.774 73.856ZM119.946 76.012C119.946 77.328 120.814 78.14 121.934 78.14C122.886 78.14 123.502 77.72 123.782 76.852C124.482 77.72 125.966 78.308 127.45 78.308C129.382 78.308 131.006 77.664 132.322 76.348C133.638 75.032 134.31 73.296 134.31 71.14C134.31 69.012 133.638 67.276 132.322 65.96C131.006 64.616 129.382 63.944 127.45 63.944C126.022 63.944 124.846 64.336 123.922 65.148V60.388C124.09 57.588 119.778 57.588 119.946 60.388V76.012ZM124.762 68.564C125.378 67.892 126.134 67.556 127.058 67.556C127.982 67.556 128.738 67.892 129.326 68.564C129.942 69.236 130.25 70.104 130.25 71.14C130.25 72.176 129.942 73.044 129.326 73.716C128.738 74.388 127.982 74.724 127.058 74.724C126.134 74.724 125.378 74.388 124.762 73.716C124.174 73.044 123.866 72.176 123.866 71.14C123.866 70.104 124.174 69.236 124.762 68.564ZM137.442 60.388C137.442 61.648 138.478 62.684 139.738 62.684C140.998 62.684 142.062 61.648 142.062 60.388C142.062 59.072 141.054 58.064 139.738 58.064C138.478 58.064 137.442 59.072 137.442 60.388ZM141.726 76.012V66.268C141.726 64.952 140.886 64.14 139.738 64.14C138.59 64.14 137.75 64.952 137.75 66.268V76.012C137.75 77.328 138.59 78.14 139.738 78.14C140.886 78.14 141.726 77.328 141.726 76.012ZM150.254 60.388C150.422 57.588 146.11 57.588 146.278 60.388V76.012C146.11 78.812 150.422 78.812 150.254 76.012V60.388ZM154.478 60.388C154.478 61.648 155.514 62.684 156.774 62.684C158.034 62.684 159.098 61.648 159.098 60.388C159.098 59.072 158.09 58.064 156.774 58.064C155.514 58.064 154.478 59.072 154.478 60.388ZM158.762 76.012V66.268C158.762 64.952 157.922 64.14 156.774 64.14C155.626 64.14 154.786 64.952 154.786 66.268V76.012C154.786 77.328 155.626 78.14 156.774 78.14C157.922 78.14 158.762 77.328 158.762 76.012ZM176.565 60.388C176.733 57.588 172.421 57.588 172.589 60.388V65.148C171.665 64.336 170.489 63.944 169.061 63.944C167.129 63.944 165.477 64.616 164.161 65.96C162.845 67.276 162.201 69.012 162.201 71.14C162.201 73.296 162.845 75.032 164.161 76.348C165.477 77.664 167.129 78.308 169.061 78.308C170.545 78.308 172.029 77.72 172.729 76.852C173.009 77.72 173.625 78.14 174.577 78.14C175.697 78.14 176.565 77.328 176.565 76.012V60.388ZM171.721 73.716C171.133 74.388 170.377 74.724 169.453 74.724C168.529 74.724 167.773 74.388 167.157 73.716C166.569 73.044 166.261 72.176 166.261 71.14C166.261 70.104 166.569 69.236 167.157 68.564C167.773 67.892 168.529 67.556 169.453 67.556C170.377 67.556 171.133 67.892 171.721 68.564C172.337 69.236 172.645 70.104 172.645 71.14C172.645 72.176 172.337 73.044 171.721 73.716ZM181.349 65.372C180.425 66.128 180.229 67.248 180.873 68.004C181.461 68.788 182.469 68.872 183.505 68.172C184.205 67.696 184.961 67.472 185.801 67.472C187.201 67.472 187.901 68.172 187.901 69.572L185.381 69.684C183.841 69.74 182.525 70.132 181.489 70.86C180.453 71.588 179.949 72.652 179.949 74.08C179.949 75.312 180.369 76.32 181.237 77.132C182.105 77.916 183.197 78.308 184.569 78.308C185.941 78.308 187.117 77.832 188.069 76.88C188.377 77.72 188.993 78.14 189.917 78.14C191.037 78.14 191.905 77.328 191.905 76.012V69.432C191.905 67.724 191.373 66.408 190.281 65.428C189.189 64.448 187.789 63.944 186.081 63.944C184.149 63.944 182.553 64.42 181.349 65.372ZM183.953 73.856C183.953 73.1 184.681 72.708 186.137 72.624L187.901 72.484V74.108C187.145 74.668 186.361 74.948 185.549 74.948C184.541 74.948 183.953 74.528 183.953 73.856ZM209.377 60.388C209.545 57.588 205.233 57.588 205.401 60.388V65.148C204.477 64.336 203.301 63.944 201.873 63.944C199.941 63.944 198.289 64.616 196.973 65.96C195.657 67.276 195.013 69.012 195.013 71.14C195.013 73.296 195.657 75.032 196.973 76.348C198.289 77.664 199.941 78.308 201.873 78.308C203.357 78.308 204.841 77.72 205.541 76.852C205.821 77.72 206.437 78.14 207.389 78.14C208.509 78.14 209.377 77.328 209.377 76.012V60.388ZM204.533 73.716C203.945 74.388 203.189 74.724 202.265 74.724C201.341 74.724 200.585 74.388 199.969 73.716C199.381 73.044 199.073 72.176 199.073 71.14C199.073 70.104 199.381 69.236 199.969 68.564C200.585 67.892 201.341 67.556 202.265 67.556C203.189 67.556 203.945 67.892 204.533 68.564C205.149 69.236 205.457 70.104 205.457 71.14C205.457 72.176 205.149 73.044 204.533 73.716ZM233.35 66.94C233.826 65.68 233.322 64.56 232.23 64.224C231.138 63.888 230.046 64.476 229.626 65.736L226.966 72.764L224.306 65.736C223.886 64.476 222.85 63.888 221.758 64.224C220.638 64.56 220.078 65.708 220.554 66.94L224.222 76.04C224.81 77.468 225.706 78.168 226.966 78.168C228.282 78.168 229.206 77.468 229.71 76.04L233.35 66.94ZM236.42 65.372C235.496 66.128 235.3 67.248 235.944 68.004C236.532 68.788 237.54 68.872 238.576 68.172C239.276 67.696 240.032 67.472 240.872 67.472C242.272 67.472 242.972 68.172 242.972 69.572L240.452 69.684C238.912 69.74 237.596 70.132 236.56 70.86C235.524 71.588 235.02 72.652 235.02 74.08C235.02 75.312 235.44 76.32 236.308 77.132C237.176 77.916 238.268 78.308 239.64 78.308C241.012 78.308 242.188 77.832 243.14 76.88C243.448 77.72 244.064 78.14 244.988 78.14C246.108 78.14 246.976 77.328 246.976 76.012V69.432C246.976 67.724 246.444 66.408 245.352 65.428C244.26 64.448 242.86 63.944 241.152 63.944C239.22 63.944 237.624 64.42 236.42 65.372ZM239.024 73.856C239.024 73.1 239.752 72.708 241.208 72.624L242.972 72.484V74.108C242.216 74.668 241.432 74.948 240.62 74.948C239.612 74.948 239.024 74.528 239.024 73.856ZM255.172 60.388C255.34 57.588 251.028 57.588 251.196 60.388V76.012C251.028 78.812 255.34 78.812 255.172 76.012V60.388ZM271.751 69.964C271.751 68.088 270.939 66.24 268.839 64.924C267.803 64.28 266.599 63.944 265.227 63.944C263.239 63.944 261.615 64.644 260.355 66.016C259.095 67.388 258.479 69.124 258.479 71.224C258.479 73.352 259.151 75.06 260.523 76.376C261.895 77.664 263.603 78.308 265.703 78.308C267.523 78.308 269.063 77.86 270.267 76.936C271.303 76.124 271.499 75.004 270.855 74.22C270.155 73.296 269.147 73.044 268.055 73.828C267.355 74.388 266.543 74.668 265.591 74.668C263.883 74.668 262.735 73.632 262.511 72.148H269.539C271.023 72.148 271.751 71.42 271.751 69.964ZM265.311 67.444C266.627 67.444 267.551 68.34 267.635 69.488H262.707C262.959 68.284 263.883 67.444 265.311 67.444ZM282.97 76.012C282.802 78.812 287.114 78.812 286.946 76.012V70.972C286.946 68.844 287.758 67.64 289.326 67.64C290.698 67.64 291.426 68.648 291.426 70.188V76.012C291.258 78.812 295.57 78.812 295.402 76.012V70.692C295.402 68.788 296.298 67.64 297.782 67.64C299.154 67.64 299.882 68.648 299.882 70.188V76.012C299.714 78.812 304.026 78.812 303.858 76.012V70.02C303.858 66.128 301.786 63.944 298.118 63.944C296.466 63.944 295.094 64.504 294.002 65.596C293.05 64.504 291.79 63.944 290.194 63.944C288.766 63.944 287.618 64.42 286.806 65.372C286.498 64.56 285.882 64.14 284.958 64.14C283.838 64.14 282.97 64.952 282.97 66.268V76.012ZM308.446 65.372C307.522 66.128 307.326 67.248 307.97 68.004C308.558 68.788 309.566 68.872 310.602 68.172C311.302 67.696 312.058 67.472 312.898 67.472C314.298 67.472 314.998 68.172 314.998 69.572L312.478 69.684C310.938 69.74 309.622 70.132 308.586 70.86C307.55 71.588 307.046 72.652 307.046 74.08C307.046 75.312 307.466 76.32 308.334 77.132C309.202 77.916 310.294 78.308 311.666 78.308C313.038 78.308 314.214 77.832 315.166 76.88C315.474 77.72 316.09 78.14 317.014 78.14C318.134 78.14 319.002 77.328 319.002 76.012V69.432C319.002 67.724 318.47 66.408 317.378 65.428C316.286 64.448 314.886 63.944 313.178 63.944C311.246 63.944 309.65 64.42 308.446 65.372ZM311.05 73.856C311.05 73.1 311.778 72.708 313.234 72.624L314.998 72.484V74.108C314.242 74.668 313.458 74.948 312.646 74.948C311.638 74.948 311.05 74.528 311.05 73.856ZM314.886 61.06C315.306 60.92 315.67 60.668 315.922 60.332C316.482 59.464 316.23 58.316 315.418 57.784C314.718 57.364 314.046 57.336 313.402 57.756L311.022 59.324C310.798 59.464 310.602 59.632 310.462 59.856C309.986 60.556 310.182 61.62 310.938 62.096C311.442 62.404 311.946 62.432 312.478 62.18L314.886 61.06ZM323.255 76.796C324.459 77.804 326.111 78.308 328.211 78.308C331.711 78.308 333.951 76.488 333.951 73.884C333.951 71.336 332.243 70.132 329.443 69.348L327.679 68.872C327.007 68.676 326.699 68.508 326.699 68.088C326.699 67.64 327.203 67.332 327.987 67.332C328.799 67.332 329.583 67.556 330.311 68.032C331.403 68.676 332.355 68.424 332.943 67.528C333.475 66.66 333.223 65.652 332.215 64.98C331.095 64.28 329.751 63.944 328.155 63.944C326.671 63.944 325.411 64.336 324.375 65.148C323.339 65.932 322.835 66.968 322.835 68.284C322.835 70.496 324.263 71.896 327.315 72.764L328.855 73.212C329.779 73.464 330.087 73.688 330.087 74.136C330.087 74.668 329.415 74.976 328.547 74.976C327.315 74.976 326.307 74.668 325.551 74.08C324.543 73.268 323.675 73.296 322.919 74.136C322.219 74.92 322.331 75.984 323.255 76.796ZM358.51 66.24C358.51 64.896 357.642 64.112 356.522 64.112C355.57 64.112 354.954 64.532 354.674 65.4C353.974 64.532 352.49 63.944 351.006 63.944C349.074 63.944 347.422 64.616 346.106 65.932C344.79 67.248 344.146 68.984 344.146 71.14C344.146 73.268 344.79 75.004 346.106 76.32C347.422 77.636 349.074 78.308 351.006 78.308C352.434 78.308 353.61 77.916 354.534 77.104V81.444C354.366 84.244 358.678 84.244 358.51 81.444V66.24ZM353.666 73.716C353.078 74.388 352.322 74.724 351.398 74.724C350.474 74.724 349.718 74.388 349.102 73.716C348.514 73.044 348.206 72.176 348.206 71.14C348.206 70.104 348.514 69.236 349.102 68.564C349.718 67.892 350.474 67.556 351.398 67.556C352.322 67.556 353.078 67.892 353.666 68.564C354.282 69.236 354.59 70.104 354.59 71.14C354.59 72.176 354.282 73.044 353.666 73.716ZM374.691 66.268C374.859 63.468 370.547 63.468 370.715 66.268V71.14C370.715 73.408 370.099 74.64 368.335 74.64C366.935 74.64 366.235 73.744 366.235 71.952V66.268C366.403 63.468 362.091 63.468 362.259 66.268V72.26C362.259 76.152 364.135 78.308 367.495 78.308C368.979 78.308 370.099 77.832 370.883 76.908C371.191 77.72 371.807 78.14 372.703 78.14C373.823 78.14 374.691 77.328 374.691 76.012V66.268ZM391.298 69.964C391.298 68.088 390.486 66.24 388.386 64.924C387.35 64.28 386.146 63.944 384.774 63.944C382.786 63.944 381.162 64.644 379.902 66.016C378.642 67.388 378.026 69.124 378.026 71.224C378.026 73.352 378.698 75.06 380.07 76.376C381.442 77.664 383.15 78.308 385.25 78.308C387.07 78.308 388.61 77.86 389.814 76.936C390.85 76.124 391.046 75.004 390.402 74.22C389.702 73.296 388.694 73.044 387.602 73.828C386.902 74.388 386.09 74.668 385.138 74.668C383.43 74.668 382.282 73.632 382.058 72.148H389.086C390.57 72.148 391.298 71.42 391.298 69.964ZM384.858 67.444C386.174 67.444 387.098 68.34 387.182 69.488H382.254C382.506 68.284 383.43 67.444 384.858 67.444ZM406.493 60.388C406.661 57.588 402.349 57.588 402.517 60.388V76.012C402.349 78.812 406.661 78.812 406.493 76.012V60.388ZM411.283 65.372C410.359 66.128 410.163 67.248 410.807 68.004C411.395 68.788 412.403 68.872 413.439 68.172C414.139 67.696 414.895 67.472 415.735 67.472C417.135 67.472 417.835 68.172 417.835 69.572L415.315 69.684C413.775 69.74 412.459 70.132 411.423 70.86C410.387 71.588 409.883 72.652 409.883 74.08C409.883 75.312 410.303 76.32 411.171 77.132C412.039 77.916 413.131 78.308 414.503 78.308C415.875 78.308 417.051 77.832 418.003 76.88C418.311 77.72 418.927 78.14 419.851 78.14C420.971 78.14 421.839 77.328 421.839 76.012V69.432C421.839 67.724 421.307 66.408 420.215 65.428C419.123 64.448 417.723 63.944 416.015 63.944C414.083 63.944 412.487 64.42 411.283 65.372ZM413.887 73.856C413.887 73.1 414.615 72.708 416.071 72.624L417.835 72.484V74.108C417.079 74.668 416.295 74.948 415.483 74.948C414.475 74.948 413.887 74.528 413.887 73.856ZM87.335 92.388C87.335 93.648 88.371 94.684 89.631 94.684C90.891 94.684 91.955 93.648 91.955 92.388C91.955 91.072 90.947 90.064 89.631 90.064C88.371 90.064 87.335 91.072 87.335 92.388ZM91.619 108.012V98.268C91.619 96.952 90.779 96.14 89.631 96.14C88.483 96.14 87.643 96.952 87.643 98.268V108.012C87.643 109.328 88.483 110.14 89.631 110.14C90.779 110.14 91.619 109.328 91.619 108.012ZM96.171 108.012C96.003 110.812 100.315 110.812 100.147 108.012V103.14C100.147 100.816 100.987 99.64 102.667 99.64C104.207 99.64 104.935 100.76 104.935 102.328V108.012C104.935 109.328 105.775 110.14 106.923 110.14C108.071 110.14 108.911 109.328 108.911 108.012V102.02C108.911 98.184 106.727 95.944 103.339 95.944C101.911 95.944 100.819 96.42 100.007 97.372C99.699 96.56 99.083 96.14 98.159 96.14C97.039 96.14 96.171 96.952 96.171 98.268V108.012ZM118.375 106.36C117.451 106.276 116.975 105.828 116.975 104.68V99.948H118.319C119.551 99.948 120.307 99.164 120.307 98.128C120.307 97.092 119.551 96.28 118.319 96.28H116.975V94.432C117.171 91.632 112.859 91.632 113.027 94.432V96.28H112.523C111.291 96.28 110.535 97.092 110.535 98.128C110.535 99.164 111.291 99.948 112.523 99.948H113.027V105.156C113.027 108.432 114.623 110.056 117.815 110.056H118.179C119.551 110.056 120.307 109.272 120.307 108.236C120.307 107.2 119.635 106.5 118.375 106.36ZM135.948 101.964C135.948 100.088 135.136 98.24 133.036 96.924C132 96.28 130.796 95.944 129.424 95.944C127.436 95.944 125.812 96.644 124.552 98.016C123.292 99.388 122.676 101.124 122.676 103.224C122.676 105.352 123.348 107.06 124.72 108.376C126.092 109.664 127.8 110.308 129.9 110.308C131.72 110.308 133.26 109.86 134.464 108.936C135.5 108.124 135.696 107.004 135.052 106.22C134.352 105.296 133.344 105.044 132.252 105.828C131.552 106.388 130.74 106.668 129.788 106.668C128.08 106.668 126.932 105.632 126.708 104.148H133.736C135.22 104.148 135.948 103.42 135.948 101.964ZM129.508 99.444C130.824 99.444 131.748 100.34 131.832 101.488H126.904C127.156 100.284 128.08 99.444 129.508 99.444ZM139.347 108.012C139.179 110.812 143.491 110.812 143.323 108.012V103.14C143.323 100.816 144.163 99.64 145.843 99.64C147.383 99.64 148.111 100.76 148.111 102.328V108.012C148.111 109.328 148.951 110.14 150.099 110.14C151.247 110.14 152.087 109.328 152.087 108.012V102.02C152.087 98.184 149.903 95.944 146.515 95.944C145.087 95.944 143.995 96.42 143.183 97.372C142.875 96.56 142.259 96.14 141.335 96.14C140.215 96.14 139.347 96.952 139.347 98.268V108.012ZM164.458 100.368C165.55 101.124 166.558 100.9 167.202 100.004C167.79 99.22 167.51 98.044 166.474 97.232C165.298 96.364 163.898 95.944 162.302 95.944C160.258 95.944 158.522 96.644 157.122 98.016C155.75 99.388 155.05 101.096 155.05 103.14C155.05 105.184 155.75 106.892 157.122 108.264C158.494 109.636 160.23 110.308 162.302 110.308C164.094 110.308 165.634 109.832 166.922 108.852C167.958 108.04 168.154 106.92 167.51 106.136C166.81 105.212 165.802 104.96 164.71 105.744C163.954 106.332 163.198 106.64 162.442 106.64C160.454 106.64 159.11 105.184 159.11 103.14C159.11 101.096 160.454 99.64 162.442 99.64C163.142 99.64 163.814 99.892 164.458 100.368ZM171.28 92.388C171.28 93.648 172.316 94.684 173.576 94.684C174.836 94.684 175.9 93.648 175.9 92.388C175.9 91.072 174.892 90.064 173.576 90.064C172.316 90.064 171.28 91.072 171.28 92.388ZM175.564 108.012V98.268C175.564 96.952 174.724 96.14 173.576 96.14C172.428 96.14 171.588 96.952 171.588 98.268V108.012C171.588 109.328 172.428 110.14 173.576 110.14C174.724 110.14 175.564 109.328 175.564 108.012ZM181.103 108.264C182.475 109.636 184.211 110.308 186.283 110.308C188.355 110.308 190.091 109.636 191.463 108.264C192.835 106.892 193.535 105.184 193.535 103.14C193.535 101.096 192.835 99.388 191.435 98.016C190.063 96.644 188.327 95.944 186.283 95.944C184.239 95.944 182.503 96.644 181.103 98.016C179.731 99.388 179.031 101.096 179.031 103.14C179.031 105.184 179.731 106.892 181.103 108.264ZM183.987 100.648C184.575 100.004 185.359 99.668 186.283 99.668C187.207 99.668 187.991 100.004 188.579 100.648C189.167 101.292 189.475 102.132 189.475 103.14C189.475 104.148 189.167 104.988 188.579 105.632C187.991 106.276 187.207 106.612 186.283 106.612C185.359 106.612 184.575 106.276 183.987 105.632C183.399 104.988 183.091 104.148 183.091 103.14C183.091 102.132 183.399 101.292 183.987 100.648ZM187.935 93.06C188.355 92.92 188.719 92.668 188.971 92.332C189.531 91.464 189.279 90.316 188.467 89.784C187.767 89.364 187.095 89.336 186.451 89.756L184.071 91.324C183.847 91.464 183.651 91.632 183.511 91.856C183.035 92.556 183.231 93.62 183.987 94.096C184.491 94.404 184.995 94.432 185.527 94.18L187.935 93.06ZM196.851 108.012C196.683 110.812 200.995 110.812 200.827 108.012V103.14C200.827 100.816 201.667 99.64 203.347 99.64C204.887 99.64 205.615 100.76 205.615 102.328V108.012C205.615 109.328 206.455 110.14 207.603 110.14C208.751 110.14 209.591 109.328 209.591 108.012V102.02C209.591 98.184 207.407 95.944 204.019 95.944C202.591 95.944 201.499 96.42 200.687 97.372C200.379 96.56 199.763 96.14 198.839 96.14C197.719 96.14 196.851 96.952 196.851 98.268V108.012ZM221.187 108.012C221.019 110.812 225.331 110.812 225.163 108.012V102.972C225.163 100.844 225.975 99.64 227.543 99.64C228.915 99.64 229.643 100.648 229.643 102.188V108.012C229.475 110.812 233.787 110.812 233.619 108.012V102.692C233.619 100.788 234.515 99.64 235.999 99.64C237.371 99.64 238.099 100.648 238.099 102.188V108.012C237.931 110.812 242.243 110.812 242.075 108.012V102.02C242.075 98.128 240.003 95.944 236.335 95.944C234.683 95.944 233.311 96.504 232.219 97.596C231.267 96.504 230.007 95.944 228.411 95.944C226.983 95.944 225.835 96.42 225.023 97.372C224.715 96.56 224.099 96.14 223.175 96.14C222.055 96.14 221.187 96.952 221.187 98.268V108.012ZM246.663 97.372C245.739 98.128 245.543 99.248 246.187 100.004C246.775 100.788 247.783 100.872 248.819 100.172C249.519 99.696 250.275 99.472 251.115 99.472C252.515 99.472 253.215 100.172 253.215 101.572L250.695 101.684C249.155 101.74 247.839 102.132 246.803 102.86C245.767 103.588 245.263 104.652 245.263 106.08C245.263 107.312 245.683 108.32 246.551 109.132C247.419 109.916 248.511 110.308 249.883 110.308C251.255 110.308 252.431 109.832 253.383 108.88C253.691 109.72 254.307 110.14 255.231 110.14C256.351 110.14 257.219 109.328 257.219 108.012V101.432C257.219 99.724 256.687 98.408 255.595 97.428C254.503 96.448 253.103 95.944 251.395 95.944C249.463 95.944 247.867 96.42 246.663 97.372ZM249.267 105.856C249.267 105.1 249.995 104.708 251.451 104.624L253.215 104.484V106.108C252.459 106.668 251.675 106.948 250.863 106.948C249.855 106.948 249.267 106.528 249.267 105.856ZM253.103 93.06C253.523 92.92 253.887 92.668 254.139 92.332C254.699 91.464 254.447 90.316 253.635 89.784C252.935 89.364 252.263 89.336 251.619 89.756L249.239 91.324C249.015 91.464 248.819 91.632 248.679 91.856C248.203 92.556 248.399 93.62 249.155 94.096C249.659 94.404 250.163 94.432 250.695 94.18L253.103 93.06ZM261.472 108.796C262.676 109.804 264.328 110.308 266.428 110.308C269.928 110.308 272.168 108.488 272.168 105.884C272.168 103.336 270.46 102.132 267.66 101.348L265.896 100.872C265.224 100.676 264.916 100.508 264.916 100.088C264.916 99.64 265.42 99.332 266.204 99.332C267.016 99.332 267.8 99.556 268.528 100.032C269.62 100.676 270.572 100.424 271.16 99.528C271.692 98.66 271.44 97.652 270.432 96.98C269.312 96.28 267.968 95.944 266.372 95.944C264.888 95.944 263.628 96.336 262.592 97.148C261.556 97.932 261.052 98.968 261.052 100.284C261.052 102.496 262.48 103.896 265.532 104.764L267.072 105.212C267.996 105.464 268.304 105.688 268.304 106.136C268.304 106.668 267.632 106.976 266.764 106.976C265.532 106.976 264.524 106.668 263.768 106.08C262.76 105.268 261.892 105.296 261.136 106.136C260.436 106.92 260.548 107.984 261.472 108.796ZM292.499 102.832C292.499 104.736 291.155 106.08 289.447 106.08C287.767 106.08 286.423 104.736 286.423 102.832C286.423 100.9 287.767 99.556 289.447 99.556C291.155 99.556 292.499 100.9 292.499 102.832ZM284.015 114.228C285.387 115.236 287.039 115.74 288.999 115.74C291.323 115.74 293.115 115.068 294.431 113.752C295.747 112.436 296.419 110.7 296.419 108.572V98.24C296.419 96.896 295.579 96.112 294.431 96.112C293.479 96.112 292.863 96.532 292.583 97.4C291.715 96.42 290.539 95.944 289.083 95.944C287.207 95.944 285.639 96.56 284.323 97.792C283.007 99.024 282.363 100.704 282.363 102.832C282.363 104.932 282.979 106.612 284.239 107.844C285.499 109.076 287.123 109.692 289.083 109.692C290.511 109.692 291.631 109.356 292.415 108.656V109.02C292.415 110.84 291.071 112.072 288.971 112.072C288.187 112.072 287.403 111.82 286.591 111.344C285.387 110.588 284.435 110.616 283.735 111.372C282.979 112.156 282.979 113.444 284.015 114.228ZM309.156 96.196C308.876 96.112 308.512 96.084 308.036 96.084C306.832 96.084 305.488 96.7 304.704 97.792C304.564 96.812 303.808 96.14 302.772 96.14C301.652 96.14 300.784 96.952 300.784 98.268V108.012C300.616 110.812 304.928 110.812 304.76 108.012V104.26C304.76 101.488 306.216 99.948 308.12 99.948C308.372 99.948 308.792 100.004 308.988 100.004C309.968 100.004 310.724 99.248 310.724 98.156C310.724 97.12 310.052 96.42 309.156 96.196ZM313.351 97.372C312.427 98.128 312.231 99.248 312.875 100.004C313.463 100.788 314.471 100.872 315.507 100.172C316.207 99.696 316.963 99.472 317.803 99.472C319.203 99.472 319.903 100.172 319.903 101.572L317.383 101.684C315.843 101.74 314.527 102.132 313.491 102.86C312.455 103.588 311.951 104.652 311.951 106.08C311.951 107.312 312.371 108.32 313.239 109.132C314.107 109.916 315.199 110.308 316.571 110.308C317.943 110.308 319.119 109.832 320.071 108.88C320.379 109.72 320.995 110.14 321.919 110.14C323.039 110.14 323.907 109.328 323.907 108.012V101.432C323.907 99.724 323.375 98.408 322.283 97.428C321.191 96.448 319.791 95.944 318.083 95.944C316.151 95.944 314.555 96.42 313.351 97.372ZM315.955 105.856C315.955 105.1 316.683 104.708 318.139 104.624L319.903 104.484V106.108C319.147 106.668 318.363 106.948 317.551 106.948C316.543 106.948 315.955 106.528 315.955 105.856ZM328.128 108.012C327.96 110.812 332.272 110.812 332.104 108.012V103.14C332.104 100.816 332.944 99.64 334.624 99.64C336.164 99.64 336.892 100.76 336.892 102.328V108.012C336.892 109.328 337.732 110.14 338.88 110.14C340.028 110.14 340.868 109.328 340.868 108.012V102.02C340.868 98.184 338.684 95.944 335.296 95.944C333.868 95.944 332.776 96.42 331.964 97.372C331.656 96.56 331.04 96.14 330.116 96.14C328.996 96.14 328.128 96.952 328.128 98.268V108.012ZM358.196 92.388C358.364 89.588 354.052 89.588 354.22 92.388V97.148C353.296 96.336 352.12 95.944 350.692 95.944C348.76 95.944 347.108 96.616 345.792 97.96C344.476 99.276 343.832 101.012 343.832 103.14C343.832 105.296 344.476 107.032 345.792 108.348C347.108 109.664 348.76 110.308 350.692 110.308C352.176 110.308 353.66 109.72 354.36 108.852C354.64 109.72 355.256 110.14 356.208 110.14C357.328 110.14 358.196 109.328 358.196 108.012V92.388ZM353.352 105.716C352.764 106.388 352.008 106.724 351.084 106.724C350.16 106.724 349.404 106.388 348.788 105.716C348.2 105.044 347.892 104.176 347.892 103.14C347.892 102.104 348.2 101.236 348.788 100.564C349.404 99.892 350.16 99.556 351.084 99.556C352.008 99.556 352.764 99.892 353.352 100.564C353.968 101.236 354.276 102.104 354.276 103.14C354.276 104.176 353.968 105.044 353.352 105.716ZM374.768 101.964C374.768 100.088 373.956 98.24 371.856 96.924C370.82 96.28 369.616 95.944 368.244 95.944C366.256 95.944 364.632 96.644 363.372 98.016C362.112 99.388 361.496 101.124 361.496 103.224C361.496 105.352 362.168 107.06 363.54 108.376C364.912 109.664 366.62 110.308 368.72 110.308C370.54 110.308 372.08 109.86 373.284 108.936C374.32 108.124 374.516 107.004 373.872 106.22C373.172 105.296 372.164 105.044 371.072 105.828C370.372 106.388 369.56 106.668 368.608 106.668C366.9 106.668 365.752 105.632 365.528 104.148H372.556C374.04 104.148 374.768 103.42 374.768 101.964ZM368.328 99.444C369.644 99.444 370.568 100.34 370.652 101.488H365.724C365.976 100.284 366.9 99.444 368.328 99.444ZM378.659 109.58C379.583 110.504 381.151 110.504 382.075 109.58C383.055 108.656 383.055 107.088 382.075 106.164C381.151 105.24 379.583 105.24 378.659 106.164C377.763 107.088 377.763 108.656 378.659 109.58ZM392.087 92.976C392.619 91.772 392.143 90.54 391.051 90.204C389.903 89.84 388.895 90.344 388.447 91.576L387.047 95.132C386.627 96.252 387.215 97.288 388.195 97.596C389.063 97.82 389.987 97.428 390.407 96.56L392.087 92.976ZM398.275 92.976C398.807 91.772 398.331 90.54 397.239 90.204C396.091 89.84 395.083 90.344 394.635 91.576L393.235 95.132C392.815 96.252 393.403 97.288 394.383 97.596C395.251 97.82 396.175 97.428 396.595 96.56L398.275 92.976Z" fill="#F9D332"/>
<path d="M366.733 142.672C366.283 142.672 366.049 142.87 366.049 143.266C366.049 143.68 366.283 143.896 366.733 143.896H371.881C372.331 143.896 372.565 143.68 372.565 143.266C372.565 142.87 372.331 142.672 371.881 142.672H366.733ZM374.828 141.682C374.828 143.5 375.422 145.048 376.61 146.308C377.816 147.568 379.31 148.198 381.092 148.198C382.892 148.198 384.404 147.568 385.61 146.308C386.816 145.048 387.428 143.5 387.428 141.682C387.428 139.882 386.816 138.352 385.592 137.092C384.386 135.814 382.874 135.184 381.092 135.184C379.31 135.184 377.834 135.814 376.628 137.092C375.422 138.352 374.828 139.882 374.828 141.682ZM376.196 141.682C376.196 140.206 376.664 138.964 377.582 137.974C378.518 136.966 379.706 136.462 381.164 136.462C382.604 136.462 383.774 136.966 384.692 137.974C385.61 138.964 386.078 140.206 386.078 141.682C386.078 143.176 385.61 144.436 384.692 145.426C383.774 146.416 382.604 146.92 381.164 146.92C379.706 146.92 378.5 146.416 377.582 145.426C376.664 144.436 376.196 143.176 376.196 141.682ZM394.611 140.89C395.025 141.232 395.349 141.25 395.619 140.962C395.925 140.638 395.889 140.314 395.529 139.972C394.809 139.306 393.909 138.964 392.847 138.964C392.019 138.964 391.299 139.198 390.705 139.648C390.111 140.098 389.805 140.71 389.805 141.502C389.805 142.798 390.633 143.644 392.307 144.04L393.621 144.346C394.539 144.562 395.007 144.994 395.007 145.624C395.007 146.47 394.269 146.974 393.027 146.974C392.145 146.974 391.389 146.668 390.741 146.038C390.435 145.732 390.111 145.714 389.805 146.02C389.517 146.308 389.535 146.614 389.841 146.956C390.651 147.784 391.713 148.198 393.045 148.198C395.043 148.198 396.339 147.118 396.339 145.552C396.339 144.292 395.511 143.464 393.837 143.068L392.451 142.744C391.569 142.546 391.137 142.114 391.137 141.448C391.137 140.71 391.803 140.206 392.757 140.206C393.459 140.206 394.071 140.44 394.611 140.89ZM404.534 140.998C404.912 141.304 405.236 141.304 405.506 141.034C405.776 140.728 405.74 140.404 405.416 140.08C404.678 139.342 403.706 138.964 402.518 138.964C401.276 138.964 400.214 139.414 399.332 140.332C398.468 141.232 398.036 142.312 398.036 143.59C398.036 144.868 398.45 145.966 399.296 146.866C400.142 147.748 401.204 148.198 402.464 148.198C403.706 148.198 404.75 147.784 405.596 146.974C405.92 146.65 405.956 146.326 405.686 146.02C405.38 145.714 405.056 145.714 404.714 146.056C404.12 146.65 403.4 146.956 402.572 146.956C400.61 146.956 399.404 145.552 399.404 143.59C399.404 142.636 399.692 141.826 400.286 141.196C400.88 140.548 401.618 140.224 402.518 140.224C403.256 140.224 403.922 140.476 404.534 140.998ZM409.388 141.142C410.072 140.512 410.774 140.206 411.512 140.206C412.79 140.206 413.564 140.926 413.564 142.276V142.546L411.152 142.834C409.208 143.05 407.894 144.04 407.894 145.606C407.894 147.208 409.118 148.198 410.774 148.198C411.944 148.198 413.006 147.676 413.6 147.01V147.352C413.6 148.324 414.896 148.324 414.896 147.352V142.42C414.896 140.188 413.636 138.964 411.53 138.964C410.396 138.964 409.208 139.54 408.488 140.314C408.182 140.674 408.2 141.016 408.47 141.25C408.74 141.484 409.046 141.448 409.388 141.142ZM409.226 145.642C409.226 144.76 409.892 144.238 411.224 144.076L413.564 143.788V145.606C413.042 146.398 411.944 147.01 410.846 147.01C409.856 147.01 409.226 146.452 409.226 145.642ZM422.226 140.332C422.352 140.332 422.514 140.35 422.73 140.386C423.216 140.458 423.486 140.17 423.486 139.792C423.486 139.432 423.288 139.216 422.874 139.126L422.226 139.054C420.984 139.054 420.03 139.468 419.346 140.296V139.828C419.346 139.342 419.13 139.09 418.698 139.09C418.338 139.09 418.05 139.342 418.05 139.828V147.334C418.05 147.838 418.266 148.09 418.716 148.09C419.166 148.09 419.382 147.838 419.382 147.334V144.238C419.382 141.412 420.228 140.332 422.226 140.332ZM445.315 136.3C445.459 135.796 445.297 135.472 444.829 135.328C444.361 135.22 444.055 135.418 443.929 135.94L441.319 145.93L438.781 136.156C438.637 135.598 438.295 135.31 437.773 135.31C437.251 135.31 436.909 135.598 436.765 136.156L434.245 145.93L431.617 135.94C431.491 135.418 431.185 135.22 430.717 135.328C430.249 135.472 430.087 135.796 430.231 136.3L433.255 147.28C433.417 147.82 433.741 148.09 434.227 148.09C434.713 148.09 435.037 147.82 435.199 147.28L437.773 137.632L440.347 147.28C440.509 147.82 440.833 148.09 441.319 148.09C441.823 148.09 442.147 147.82 442.291 147.298L445.315 136.3ZM446.405 136.984C446.819 137.362 447.449 137.362 447.827 136.984C448.241 136.57 448.241 135.94 447.827 135.562C447.449 135.184 446.819 135.184 446.405 135.562C446.027 135.94 446.027 136.57 446.405 136.984ZM447.791 139.828C447.791 139.342 447.575 139.09 447.125 139.09C446.747 139.09 446.459 139.342 446.459 139.828V147.334C446.459 147.838 446.675 148.09 447.125 148.09C447.575 148.09 447.791 147.838 447.791 147.334V139.828ZM452.516 136.048C452.516 135.562 452.3 135.31 451.85 135.31C451.472 135.31 451.184 135.562 451.184 136.048V147.334C451.184 147.838 451.4 148.09 451.85 148.09C452.3 148.09 452.516 147.838 452.516 147.334V136.048ZM457.307 141.178C457.829 140.548 458.513 140.224 459.395 140.224C460.277 140.224 460.961 140.548 461.483 141.178C462.005 141.808 462.275 142.618 462.275 143.59C462.275 144.562 462.005 145.372 461.483 146.002C460.961 146.632 460.277 146.956 459.395 146.956C458.513 146.956 457.829 146.632 457.307 146.002C456.785 145.372 456.533 144.562 456.533 143.59C456.533 142.618 456.785 141.808 457.307 141.178ZM463.571 136.066C463.571 135.562 463.355 135.31 462.905 135.31C462.455 135.31 462.239 135.562 462.239 136.066V140.35C461.447 139.432 460.457 138.964 459.269 138.964C458.063 138.964 457.091 139.414 456.317 140.314C455.543 141.196 455.165 142.294 455.165 143.59C455.165 144.886 455.543 145.984 456.317 146.866C457.091 147.748 458.063 148.198 459.269 148.198C460.475 148.198 461.465 147.73 462.275 146.794V147.352C462.275 148.324 463.571 148.324 463.571 147.352V136.066ZM470.415 140.224C471.873 140.224 472.809 141.25 472.827 142.816H467.643C467.859 141.304 468.903 140.224 470.415 140.224ZM474.177 143.176C474.177 141.196 473.115 138.964 470.379 138.964C469.173 138.964 468.183 139.414 467.391 140.332C466.617 141.25 466.221 142.348 466.221 143.644C466.221 144.994 466.617 146.092 467.391 146.938C468.183 147.784 469.245 148.198 470.559 148.198C471.729 148.198 472.737 147.784 473.583 146.974C473.907 146.65 473.943 146.326 473.673 146.02C473.367 145.714 473.043 145.714 472.701 146.056C472.107 146.65 471.387 146.956 470.559 146.956C468.831 146.956 467.715 145.858 467.589 144.004H473.259C473.871 144.004 474.177 143.734 474.177 143.176Z" fill="#F9D332"/>
</svg>
