<svg width="98" height="98" viewBox="0 0 98 98" fill="none" xmlns="http://www.w3.org/2000/svg">
<path d="M97.0909 48.5337C97.0909 75.3653 75.3453 97.0674 48.5701 97.0674C21.7456 97.1167 0 75.3653 0 48.5337C0 21.7514 21.7456 0 48.5208 0C75.3453 0 97.0909 21.7514 97.0909 48.5337Z" fill="#930345"/>
<path d="M24.6562 50.2107C24.6562 44.7852 28.601 40.938 33.8279 40.938C36.8358 40.938 39.0054 41.8751 40.3368 43.2562C41.323 44.2426 41.7667 45.4264 41.7667 46.3142C41.7667 47.4979 40.9285 48.3364 39.7943 48.3364C38.8081 48.3364 38.1671 47.9418 37.4768 47.1033C36.6878 46.0182 35.5044 45.3277 33.9758 45.3277C31.461 45.3277 29.5379 47.3006 29.5379 50.2107C29.5379 53.1207 31.461 55.0936 33.9758 55.0936C35.7509 55.0936 36.8358 54.2552 37.5754 53.1207C38.2164 52.2822 38.7588 51.937 39.6957 51.937C40.8299 51.937 41.816 52.8248 41.816 54.0085C41.816 54.8964 41.323 56.0308 40.3368 57.0666C38.9561 58.4969 36.6385 59.4834 33.8279 59.4834C28.601 59.4834 24.6562 55.6362 24.6562 50.2107Z" fill="#F9D332"/>
<path d="M44.8223 50.2107C44.8223 44.5879 48.767 40.938 54.2897 40.938C59.8124 40.938 63.7572 44.5879 63.7572 50.2107C63.7572 55.8335 59.8124 59.4834 54.2897 59.4834C48.8164 59.4834 44.8223 55.8335 44.8223 50.2107ZM54.2897 55.0936C56.9525 55.0936 58.8262 53.1207 58.8262 50.2107C58.8262 47.3006 56.9525 45.3277 54.2897 45.3277C51.627 45.3277 49.7532 47.3006 49.7532 50.2107C49.7532 53.1207 51.627 55.0936 54.2897 55.0936Z" fill="#F9D332"/>
<path d="M68.1445 56.8693V43.5521C68.1445 42.0724 69.1307 41.086 70.5607 41.086C71.7935 41.086 72.7303 41.8751 72.9276 43.0589C73.9631 41.7271 75.8369 40.9873 77.9572 40.9873C82.2471 40.9873 85.1564 43.7001 85.1564 48.4844V56.9186C85.1564 58.3489 84.1702 59.3847 82.7402 59.3847C81.3102 59.3847 80.324 58.2996 80.324 56.9186V49.2242C80.324 46.6594 78.9927 45.3277 76.7737 45.3277C74.4069 45.3277 72.9276 46.9554 72.9276 49.4215V56.9679C72.9276 58.4476 71.9414 59.4341 70.5607 59.4341C69.1307 59.3847 68.1445 58.3489 68.1445 56.8693Z" fill="#F9D332"/>
</svg>
